<svg width="42" height="30" viewBox="0 0 42 30" fill="none" xmlns="http://www.w3.org/2000/svg">
<g filter="url(#filter0_dd_5_11532)">
<mask id="mask0_5_11532" style="mask-type:alpha" maskUnits="userSpaceOnUse" x="3" y="2" width="36" height="24">
<rect x="3" y="2" width="36" height="24" fill="white"/>
</mask>
<g mask="url(#mask0_5_11532)">
<path fill-rule="evenodd" clip-rule="evenodd" d="M3 2V26H39V2H3Z" fill="#2E42A5"/>
<mask id="mask1_5_11532" style="mask-type:alpha" maskUnits="userSpaceOnUse" x="3" y="2" width="36" height="24">
<path fill-rule="evenodd" clip-rule="evenodd" d="M3 2V26H39V2H3Z" fill="white"/>
</mask>
<g mask="url(#mask1_5_11532)">
<path fill-rule="evenodd" clip-rule="evenodd" d="M26.5609 13.8562L26.5645 14.2066C26.5948 17.1566 26.7172 19.0865 26.9351 20.011C27.116 20.7787 27.7735 22.0518 28.5468 23.0726C29.519 24.3561 30.5564 25.1368 31.5492 25.1368C32.5456 25.1368 33.5837 24.4108 34.5518 23.2011C35.3465 22.2082 36.027 20.9486 36.298 20.0204C36.6333 18.8714 36.7896 16.9356 36.7706 14.2035L36.7682 13.8556L36.4106 14.0202C35.6898 14.3518 34.9138 14.5174 34.0789 14.5174C33.2537 14.5174 32.4573 14.2982 31.6849 13.8563L31.5525 13.7805L31.4181 13.8537C30.6029 14.2979 29.837 14.5174 29.119 14.5174C28.3918 14.5174 27.6606 14.3521 26.9228 14.0194L26.5609 13.8562ZM27.1746 19.9695C26.9609 19.0627 26.839 17.1411 26.8089 14.2048C27.5807 14.5529 28.3507 14.7269 29.1189 14.7269C29.8871 14.7269 30.6972 14.4948 31.5492 14.0306C32.3606 14.4948 33.2039 14.7269 34.0789 14.7269C34.9539 14.7269 35.7696 14.5529 36.5261 14.2048C36.545 16.9205 36.3899 18.842 36.0608 19.9695C35.5671 21.6607 33.4968 24.9273 31.5492 24.9273C29.6015 24.9273 27.4952 21.3297 27.1746 19.9695Z" fill="#FBE625"/>
<path fill-rule="evenodd" clip-rule="evenodd" d="M26.8088 14.2048C26.8088 14.2048 26.854 18.6093 27.1746 19.9695C27.4951 21.3297 29.6015 24.9273 31.5491 24.9273C33.4968 24.9273 35.567 21.6607 36.0607 19.9695C36.5544 18.2783 36.5261 14.2048 36.5261 14.2048C36.5261 14.2048 35.3913 14.7269 34.0788 14.7269C32.7664 14.7269 31.5491 14.0306 31.5491 14.0306C31.5491 14.0306 30.2712 14.7269 29.1189 14.7269C27.9666 14.7269 26.8088 14.2048 26.8088 14.2048Z" fill="#F5FBFF"/>
<mask id="mask2_5_11532" style="mask-type:alpha" maskUnits="userSpaceOnUse" x="26" y="14" width="11" height="11">
<path fill-rule="evenodd" clip-rule="evenodd" d="M26.8088 14.2048C26.8088 14.2048 26.854 18.6093 27.1746 19.9695C27.4951 21.3297 29.6015 24.9273 31.5491 24.9273C33.4968 24.9273 35.567 21.6607 36.0607 19.9695C36.5544 18.2783 36.5261 14.2048 36.5261 14.2048C36.5261 14.2048 35.3913 14.7269 34.0788 14.7269C32.7664 14.7269 31.5491 14.0306 31.5491 14.0306C31.5491 14.0306 30.2712 14.7269 29.1189 14.7269C27.9666 14.7269 26.8088 14.2048 26.8088 14.2048Z" fill="white"/>
</mask>
<g mask="url(#mask2_5_11532)">
<path fill-rule="evenodd" clip-rule="evenodd" d="M30.7198 17.4882C30.7198 17.7759 30.2574 18.6134 29.9895 18.8277C29.7912 18.9863 29.8524 18.6178 29.8976 18.3458C29.9135 18.2503 29.9274 18.1668 29.9274 18.122L29.9274 18.1024C29.9275 18.0465 29.9275 18.0158 29.9213 17.9863C29.9138 17.9504 29.897 17.9165 29.8597 17.8411L29.8597 17.8411C29.8459 17.813 29.8292 17.7793 29.8091 17.7375C29.3799 16.9237 29.6836 16.5339 29.8184 16.3608C29.8391 16.3343 29.8558 16.3129 29.8653 16.2958C29.8856 16.2592 29.924 16.2263 29.9668 16.1897C30.0745 16.0973 30.2104 15.9808 30.1592 15.7195C30.0875 15.3543 30.5219 14.8859 30.5219 14.8859C30.5219 14.8859 30.4165 15.7943 30.9157 15.5718C31.2402 15.4271 31.8282 15.6347 32.3513 15.8193C32.6329 15.9187 32.8957 16.0114 33.0883 16.0389C33.4774 16.0945 33.6905 15.9493 33.8224 15.8594C33.877 15.8221 33.9178 15.7943 33.9513 15.7943C34.0657 15.7943 34.2006 15.8147 34.2006 15.8889C34.2006 15.9632 33.6883 16.1805 33.4307 16.2483C33.2366 16.2993 33.4358 16.4401 33.6027 16.5581C33.6572 16.5967 33.7084 16.6328 33.7411 16.6625C33.8741 16.7832 33.996 17.4416 33.6883 17.0274C33.3806 16.6133 32.7255 16.3364 32.1687 16.2958C31.612 16.2553 30.9099 16.6309 30.8256 17.0274C30.7413 17.4239 31.4842 17.3513 31.4842 17.3513C31.4842 17.3513 31.43 17.4131 31.1904 17.4882C30.9508 17.5634 30.7198 17.4882 30.7198 17.4882ZM30.1596 17.4571C30.1596 17.515 30.1049 17.5619 30.0374 17.5619C29.9699 17.5619 29.9151 17.515 29.9151 17.4571C29.9151 17.3993 29.9699 17.3524 30.0374 17.3524C30.1049 17.3524 30.1596 17.3993 30.1596 17.4571ZM32.9047 19.4011C32.564 19.2967 31.5158 19.3432 31.2327 19.4826C31.2327 19.4826 31.1946 19.2666 31.0045 19.1168C30.8145 18.9669 30.7273 18.9547 30.7273 18.9547C30.7273 18.9547 31.159 19.4971 30.728 19.6237C30.297 19.7504 29.587 19.3868 29.357 18.9343C29.127 18.4818 29.0818 17.8382 29.3401 17.3982C29.5984 16.9582 29.0098 17.3721 28.9555 17.534C28.9421 17.5739 28.9313 17.6312 28.9198 17.6923C28.8847 17.8792 28.8427 18.1024 28.6984 17.9762C28.5068 17.8088 28.0446 17.5158 27.9715 17.5518C27.8985 17.5878 27.9439 17.7026 27.9993 17.7916C28.0156 17.8176 28.0626 17.8358 28.1258 17.8603C28.2782 17.9192 28.5244 18.0144 28.6584 18.3439C28.7247 18.507 28.7608 18.7563 28.7996 19.0234C28.8715 19.5195 28.9524 20.0773 29.252 20.2594C29.713 20.5396 28.7681 20.8981 28.7681 20.8981C28.7681 20.8981 29.4396 21.0087 29.7641 20.776C29.9964 20.6095 30.177 20.6587 30.32 20.6976C30.3769 20.7131 30.4278 20.727 30.4737 20.7251C30.4951 20.7242 30.5243 20.7268 30.5604 20.73C30.7961 20.7509 31.3268 20.7981 31.9195 20.0698C31.9508 20.0339 31.976 20.0046 31.9968 19.9802C32.0514 19.9165 32.0768 19.8869 32.1073 19.8639C32.1338 19.8439 32.1642 19.8289 32.2212 19.8009L32.2212 19.8009L32.2405 19.7914C32.2845 19.7697 32.3735 19.74 32.4751 19.7061C32.7647 19.6094 33.1569 19.4783 32.9047 19.4011ZM31.4948 19.8816C31.5517 19.8536 31.6244 19.8734 31.6571 19.9258C31.6898 19.9783 31.6702 20.0436 31.6133 20.0716C31.5564 20.0997 31.4837 20.0799 31.451 20.0274C31.4182 19.9749 31.4378 19.9097 31.4948 19.8816ZM32.072 16.8743C32.1591 17.1851 32.7738 17.9412 33.0596 18.0763C33.0596 18.0763 32.8765 18.2223 32.8387 18.4456C32.8008 18.669 32.8368 18.7406 32.8368 18.7406C32.8368 18.7406 33.1134 18.1234 33.4676 18.3757C33.8219 18.628 33.8655 19.3554 33.5638 19.7733C33.2621 20.1912 32.6796 20.5753 32.1237 20.6224C31.5679 20.6695 32.279 20.8829 32.4614 20.8352C32.5063 20.8234 32.5662 20.8003 32.6301 20.7756C32.8256 20.7 33.059 20.6097 33.0186 20.786C32.965 21.02 32.9403 21.5242 33.014 21.559C33.0878 21.5939 33.1714 21.4975 33.2251 21.4077C33.2408 21.3814 33.2324 21.3364 33.221 21.276C33.1936 21.1303 33.1494 20.8949 33.3873 20.6156C33.505 20.4773 33.7205 20.3146 33.9515 20.1403L33.9515 20.1403C34.3804 19.8164 34.8626 19.4524 34.8712 19.1298C34.8846 18.6335 35.7374 19.1427 35.7374 19.1427C35.7374 19.1427 35.4761 18.5819 35.0797 18.4667C34.7961 18.3842 34.7442 18.2228 34.703 18.0949C34.6867 18.0441 34.672 17.9986 34.6452 17.9654C34.6327 17.9499 34.6193 17.9268 34.6026 17.8982L34.6026 17.8981C34.494 17.711 34.2495 17.2897 33.2395 17.2445C33.1886 17.2407 33.1473 17.2379 33.1129 17.2356C33.0203 17.2295 32.9787 17.2267 32.9394 17.2157C32.9074 17.2067 32.8769 17.1923 32.8215 17.166C32.8154 17.1631 32.8089 17.16 32.8021 17.1568C32.7576 17.1358 32.6811 17.0857 32.5938 17.0284L32.5937 17.0284C32.3448 16.8652 32.0075 16.6442 32.072 16.8743ZM33.3321 17.7033C33.2746 17.6762 33.2537 17.6112 33.2854 17.5582C33.3171 17.5053 33.3894 17.4843 33.4469 17.5115C33.5043 17.5386 33.5252 17.6036 33.4935 17.6566C33.4618 17.7096 33.3896 17.7305 33.3321 17.7033Z" fill="#FF9800"/>
<path fill-rule="evenodd" clip-rule="evenodd" d="M27.1041 21.7524H35.293V25.2095H27.1041V21.7524Z" fill="#36C6FF"/>
</g>
<rect x="3" y="2" width="20.25" height="14" fill="#2B409A"/>
<mask id="mask3_5_11532" style="mask-type:alpha" maskUnits="userSpaceOnUse" x="3" y="2" width="21" height="14">
<rect x="3" y="2" width="20.25" height="14" fill="white"/>
</mask>
<g mask="url(#mask3_5_11532)">
<path d="M0.745117 14.9998L5.20119 16.737L23.351 3.88872L25.7015 1.30719L20.9364 0.726562L13.5335 6.26325L7.57493 9.99369L0.745117 14.9998Z" fill="#F7FCFF"/>
<path d="M1.35498 16.2169L3.62514 17.225L24.8573 1.06732H21.6697L1.35498 16.2169Z" fill="#F50100"/>
<path d="M25.5048 14.9998L21.0487 16.737L2.89885 3.88872L0.54837 1.30719L5.3135 0.726562L12.7164 6.26325L18.6749 9.99369L25.5048 14.9998Z" fill="#F7FCFF"/>
<path d="M25.3528 15.8733L23.0826 16.8815L14.0418 9.96351L11.3613 9.19059L0.322273 1.31605H3.50984L14.5427 9.00368L17.4733 9.9305L25.3528 15.8733Z" fill="#F50100"/>
<mask id="path-16-outside-1_5_11532" maskUnits="userSpaceOnUse" x="1" y="0" width="24" height="18" fill="black">
<rect fill="white" x="1" width="24" height="18"/>
<path fill-rule="evenodd" clip-rule="evenodd" d="M14.2326 2H11.9826V8H3V10H11.9826V16H14.2326V10H23.25V8H14.2326V2Z"/>
</mask>
<path fill-rule="evenodd" clip-rule="evenodd" d="M14.2326 2H11.9826V8H3V10H11.9826V16H14.2326V10H23.25V8H14.2326V2Z" fill="#F50100"/>
<path d="M11.9826 2V0.5H10.4826V2H11.9826ZM14.2326 2H15.7326V0.5H14.2326V2ZM11.9826 8V9.5H13.4826V8H11.9826ZM3 8V6.5H1.5V8H3ZM3 10H1.5V11.5H3V10ZM11.9826 10H13.4826V8.5H11.9826V10ZM11.9826 16H10.4826V17.5H11.9826V16ZM14.2326 16V17.5H15.7326V16H14.2326ZM14.2326 10V8.5H12.7326V10H14.2326ZM23.25 10V11.5H24.75V10H23.25ZM23.25 8H24.75V6.5H23.25V8ZM14.2326 8H12.7326V9.5H14.2326V8ZM11.9826 3.5H14.2326V0.5H11.9826V3.5ZM13.4826 8V2H10.4826V8H13.4826ZM3 9.5H11.9826V6.5H3V9.5ZM4.5 10V8H1.5V10H4.5ZM11.9826 8.5H3V11.5H11.9826V8.5ZM13.4826 16V10H10.4826V16H13.4826ZM14.2326 14.5H11.9826V17.5H14.2326V14.5ZM12.7326 10V16H15.7326V10H12.7326ZM23.25 8.5H14.2326V11.5H23.25V8.5ZM21.75 8V10H24.75V8H21.75ZM14.2326 9.5H23.25V6.5H14.2326V9.5ZM12.7326 2V8H15.7326V2H12.7326Z" fill="#F7FCFF" mask="url(#path-16-outside-1_5_11532)"/>
</g>
</g>
</g>
</g>
<defs>
<filter id="filter0_dd_5_11532" x="0" y="0" width="42" height="30" filterUnits="userSpaceOnUse" color-interpolation-filters="sRGB">
<feFlood flood-opacity="0" result="BackgroundImageFix"/>
<feColorMatrix in="SourceAlpha" type="matrix" values="0 0 0 0 0 0 0 0 0 0 0 0 0 0 0 0 0 0 127 0" result="hardAlpha"/>
<feOffset dy="1"/>
<feGaussianBlur stdDeviation="1"/>
<feColorMatrix type="matrix" values="0 0 0 0 0.0627451 0 0 0 0 0.0941176 0 0 0 0 0.156863 0 0 0 0.06 0"/>
<feBlend mode="normal" in2="BackgroundImageFix" result="effect1_dropShadow_5_11532"/>
<feColorMatrix in="SourceAlpha" type="matrix" values="0 0 0 0 0 0 0 0 0 0 0 0 0 0 0 0 0 0 127 0" result="hardAlpha"/>
<feOffset dy="1"/>
<feGaussianBlur stdDeviation="1.5"/>
<feColorMatrix type="matrix" values="0 0 0 0 0.0627451 0 0 0 0 0.0941176 0 0 0 0 0.156863 0 0 0 0.1 0"/>
<feBlend mode="normal" in2="effect1_dropShadow_5_11532" result="effect2_dropShadow_5_11532"/>
<feBlend mode="normal" in="SourceGraphic" in2="effect2_dropShadow_5_11532" result="shape"/>
</filter>
</defs>
</svg>
