<svg width="42" height="30" viewBox="0 0 42 30" fill="none" xmlns="http://www.w3.org/2000/svg">
<g filter="url(#filter0_dd_5_10687)">
<mask id="mask0_5_10687" style="mask-type:alpha" maskUnits="userSpaceOnUse" x="3" y="2" width="36" height="24">
<rect x="3" y="2" width="36" height="24" fill="white"/>
</mask>
<g mask="url(#mask0_5_10687)">
<path fill-rule="evenodd" clip-rule="evenodd" d="M3 2H39V26H3V2Z" fill="#5EAA22"/>
<path fill-rule="evenodd" clip-rule="evenodd" d="M30 9L28.875 9.73205L29.0257 8.5L27.75 8L29.0257 7.5L28.875 6.26795L30 7L31.125 6.26795L30.9743 7.5L32.25 8L30.9743 8.5L31.125 9.73205L30 9Z" fill="#FECA00"/>
<path fill-rule="evenodd" clip-rule="evenodd" d="M28.833 15.6787L27.708 16.4107L27.8587 15.1787L26.583 14.6787L27.8587 14.1787L27.708 12.9466L28.833 13.6787L29.958 12.9466L29.8073 14.1787L31.083 14.6787L29.8073 15.1787L29.958 16.4107L28.833 15.6787Z" fill="#FECA00"/>
<path fill-rule="evenodd" clip-rule="evenodd" d="M32.25 21L31.125 21.7321L31.2757 20.5L30 20L31.2757 19.5L31.125 18.2679L32.25 19L33.375 18.2679L33.2243 19.5L34.5 20L33.2243 20.5L33.375 21.7321L32.25 21Z" fill="#FECA00"/>
<path fill-rule="evenodd" clip-rule="evenodd" d="M33.375 11.5L32.8125 11.866L32.8879 11.25L32.25 11L32.8879 10.75L32.8125 10.134L33.375 10.5L33.9375 10.134L33.8621 10.75L34.5 11L33.8621 11.25L33.9375 11.866L33.375 11.5Z" fill="#FECA00"/>
<path fill-rule="evenodd" clip-rule="evenodd" d="M10.875 16C13.9816 16 16.5 13.7614 16.5 11C16.5 8.23858 13.9816 6 10.875 6C7.7684 6 5.25 8.23858 5.25 11C5.25 13.7614 7.7684 16 10.875 16Z" fill="#FECA00"/>
<path fill-rule="evenodd" clip-rule="evenodd" d="M25.385 16.9449C24.6445 18.0745 23.4678 18.5872 21.8928 18.5872C19.5358 18.5872 17.625 16.8887 17.625 14.7936C17.625 12.6984 19.5358 11 21.8928 11C23.6911 11 25.126 11.5593 25.7843 13.0826C25.2632 12.6233 24.4566 12.3081 23.25 12.3481C21.386 12.3481 20.1735 13.6389 20.1735 14.7434C20.1735 15.848 21.386 17.3495 23.25 17.3495C24.1875 17.337 24.88 17.1846 25.385 16.9449Z" fill="#FECA00"/>
<path d="M11.5302 10.6937C11.5302 10.6937 10.4303 14.2746 9.97619 14.6135C9.77516 14.6923 11.7972 14.6135 11.7972 14.6135C11.7972 14.6135 11.0392 14.3187 11.3062 13.9263C11.5732 13.534 11.922 11.0095 11.7972 10.1497C11.6724 9.2898 11.5302 10.6937 11.5302 10.6937Z" fill="#915E2B"/>
<path fill-rule="evenodd" clip-rule="evenodd" d="M11.7642 10.8267C11.7642 10.8267 12.9435 11.1415 12.9435 11.6772C12.9435 12.2129 13.9247 12.9658 13.9247 12.2528C13.9247 11.5397 13.7411 10.8267 13.3423 10.8267C12.9435 10.8267 13.5374 10.3473 13.8784 10.7454C14.2195 11.1435 15.4153 10.7079 15.1724 10.4285C14.9295 10.1491 14.0673 9.80099 13.9247 9.80099C13.782 9.80099 14.9058 9.12043 13.9247 9.12043C12.9435 9.12043 13.5062 9.70175 12.8413 9.08458C12.1764 8.46741 13.1244 9.38584 13.1244 8.34943C13.1244 7.31301 12.8554 6.88954 11.9673 7.4713C11.0792 8.05306 11.2495 7.68408 10.9334 7.46473C10.6173 7.24538 10.3399 8.26781 10.6877 8.47653C11.0356 8.68524 11.4212 9.20253 11.0733 9.20253C10.7255 9.20253 10.4799 8.90402 10.4799 8.69028C10.4799 8.47653 9.53333 8.099 8.63494 8.099C7.73655 8.099 8.31782 8.69028 8.63494 8.69028C8.95206 8.69028 10.3722 9.12043 9.66213 9.12043C8.95206 9.12043 9.71698 8.80217 8.82196 8.80217C7.92693 8.80217 6.88653 8.43988 6.88653 9.12043C6.88653 9.80099 7.78084 10.1025 8.06023 9.80099C8.33961 9.4995 8.6626 8.99124 8.6626 9.49867C8.6626 10.0061 7.95074 9.79893 6.88653 10.1137C5.82231 10.4285 6.1277 11.2585 7.39724 11.0558C8.66679 10.8531 8.52942 10.8642 9.03912 10.5493C9.54882 10.2345 10.1796 10.3223 9.66213 10.8267C9.14464 11.331 8.62715 12.2528 9.14464 12.2528C9.66213 12.2528 9.99573 12.3782 9.99573 11.8909C9.99573 11.4037 10.2961 10.455 10.2961 11.0558C10.2961 11.6566 10.6877 12.1095 11.0356 11.8909C11.3834 11.6724 10.9546 10.9886 11.3517 10.9886C11.7488 10.9886 11.7642 10.8267 11.7642 10.8267Z" fill="#5EAA22"/>
</g>
</g>
<defs>
<filter id="filter0_dd_5_10687" x="0" y="0" width="42" height="30" filterUnits="userSpaceOnUse" color-interpolation-filters="sRGB">
<feFlood flood-opacity="0" result="BackgroundImageFix"/>
<feColorMatrix in="SourceAlpha" type="matrix" values="0 0 0 0 0 0 0 0 0 0 0 0 0 0 0 0 0 0 127 0" result="hardAlpha"/>
<feOffset dy="1"/>
<feGaussianBlur stdDeviation="1"/>
<feColorMatrix type="matrix" values="0 0 0 0 0.0627451 0 0 0 0 0.0941176 0 0 0 0 0.156863 0 0 0 0.06 0"/>
<feBlend mode="normal" in2="BackgroundImageFix" result="effect1_dropShadow_5_10687"/>
<feColorMatrix in="SourceAlpha" type="matrix" values="0 0 0 0 0 0 0 0 0 0 0 0 0 0 0 0 0 0 127 0" result="hardAlpha"/>
<feOffset dy="1"/>
<feGaussianBlur stdDeviation="1.5"/>
<feColorMatrix type="matrix" values="0 0 0 0 0.0627451 0 0 0 0 0.0941176 0 0 0 0 0.156863 0 0 0 0.1 0"/>
<feBlend mode="normal" in2="effect1_dropShadow_5_10687" result="effect2_dropShadow_5_10687"/>
<feBlend mode="normal" in="SourceGraphic" in2="effect2_dropShadow_5_10687" result="shape"/>
</filter>
</defs>
</svg>
