<svg width="42" height="30" viewBox="0 0 42 30" fill="none" xmlns="http://www.w3.org/2000/svg">
<g filter="url(#filter0_dd_5_9614)">
<mask id="mask0_5_9614" style="mask-type:alpha" maskUnits="userSpaceOnUse" x="3" y="2" width="36" height="24">
<rect x="3" y="2" width="36" height="24" fill="white"/>
</mask>
<g mask="url(#mask0_5_9614)">
<path fill-rule="evenodd" clip-rule="evenodd" d="M3 2V26H39V2H3Z" fill="#F7FCFF"/>
<mask id="mask1_5_9614" style="mask-type:alpha" maskUnits="userSpaceOnUse" x="3" y="2" width="36" height="24">
<path fill-rule="evenodd" clip-rule="evenodd" d="M3 2V26H39V2H3Z" fill="white"/>
</mask>
<g mask="url(#mask1_5_9614)">
<path fill-rule="evenodd" clip-rule="evenodd" d="M3 2V10H39V2H3Z" fill="#009D00"/>
<path fill-rule="evenodd" clip-rule="evenodd" d="M3 10V18H39V10H3Z" fill="white"/>
<path fill-rule="evenodd" clip-rule="evenodd" d="M3 18V26H39V18H3Z" fill="#F80000"/>
</g>
<path fill-rule="evenodd" clip-rule="evenodd" d="M3 2V26L12 14.152L3 2Z" fill="#0075D5"/>
<mask id="mask2_5_9614" style="mask-type:alpha" maskUnits="userSpaceOnUse" x="3" y="2" width="9" height="24">
<path fill-rule="evenodd" clip-rule="evenodd" d="M3 2V26L12 14.152L3 2Z" fill="white"/>
</mask>
<g mask="url(#mask2_5_9614)">
</g>
<path d="M19.3892 10.8826L19.3773 10.885L19.3683 10.8777L19.1311 10.6829L19.1018 10.9651L19.1004 10.9791L19.0872 10.9856L18.8121 11.1227L19.1042 11.2344L19.116 11.2389L19.1187 11.2509L19.1819 11.533L19.3954 11.3168L19.4045 11.3076L19.4172 11.3089L19.733 11.342L19.5718 11.1011L19.5641 11.0896L19.5708 11.0768L19.7042 10.8194L19.3892 10.8826Z" fill="#FFD500" stroke="black" stroke-width="0.05"/>
<path d="M20.5142 10.8826L20.5023 10.885L20.4933 10.8777L20.2561 10.6829L20.2268 10.9651L20.2254 10.9791L20.2122 10.9856L19.9371 11.1227L20.2292 11.2344L20.241 11.2389L20.2437 11.2509L20.3069 11.533L20.5204 11.3168L20.5295 11.3076L20.5422 11.3089L20.858 11.342L20.6968 11.1011L20.6891 11.0896L20.6958 11.0768L20.8292 10.8194L20.5142 10.8826Z" fill="#FFD500" stroke="black" stroke-width="0.05"/>
<path d="M21.6392 10.8826L21.6273 10.885L21.6183 10.8777L21.3811 10.6829L21.3518 10.9651L21.3504 10.9791L21.3372 10.9856L21.0621 11.1227L21.3542 11.2344L21.366 11.2389L21.3687 11.2509L21.4319 11.533L21.6454 11.3168L21.6545 11.3076L21.6672 11.3089L21.983 11.342L21.8218 11.1011L21.8141 11.0896L21.8208 11.0768L21.9542 10.8194L21.6392 10.8826Z" fill="#FFD500" stroke="black" stroke-width="0.05"/>
<path d="M22.7642 10.8826L22.7523 10.885L22.7433 10.8777L22.5061 10.6829L22.4768 10.9651L22.4754 10.9791L22.4622 10.9856L22.1871 11.1227L22.4792 11.2344L22.491 11.2389L22.4937 11.2509L22.5569 11.533L22.7704 11.3168L22.7795 11.3076L22.7922 11.3089L23.108 11.342L22.9468 11.1011L22.9391 11.0896L22.9458 11.0768L23.0792 10.8194L22.7642 10.8826Z" fill="#FFD500" stroke="black" stroke-width="0.05"/>
<path d="M23.8892 10.8826L23.8773 10.885L23.8683 10.8777L23.6311 10.6829L23.6018 10.9651L23.6004 10.9791L23.5872 10.9856L23.3121 11.1227L23.6042 11.2344L23.616 11.2389L23.6187 11.2509L23.6819 11.533L23.8954 11.3168L23.9045 11.3076L23.9172 11.3089L24.233 11.342L24.0718 11.1011L24.0641 11.0896L24.0708 11.0768L24.2042 10.8194L23.8892 10.8826Z" fill="#FFD500" stroke="black" stroke-width="0.05"/>
<path d="M25.0142 10.8826L25.0023 10.885L24.9933 10.8777L24.7561 10.6829L24.7268 10.9651L24.7254 10.9791L24.7122 10.9856L24.4371 11.1227L24.7292 11.2344L24.741 11.2389L24.7437 11.2509L24.8069 11.533L25.0204 11.3168L25.0295 11.3076L25.0422 11.3089L25.358 11.342L25.1968 11.1011L25.1891 11.0896L25.1958 11.0768L25.3292 10.8194L25.0142 10.8826Z" fill="#FFD500" stroke="black" stroke-width="0.05"/>
<path d="M19.925 12.05H24.325V14.75C24.325 15.965 23.34 16.95 22.125 16.95C20.91 16.95 19.925 15.965 19.925 14.75V12.05Z" stroke="#373737" stroke-width="0.1"/>
<path fill-rule="evenodd" clip-rule="evenodd" d="M21.8172 13.9598C21.8172 13.9598 21.5903 16.3251 21.3637 16.4684C21.1372 16.6118 22.4493 16.6834 22.5747 16.5759C22.7001 16.4684 22.0025 14.541 22.2424 13.9598C22.4824 13.3786 22.8689 13.3315 22.8689 13.3315C22.8689 13.3315 22.3817 13.24 22.2424 13.4144C22.1032 13.5888 21.688 13.3315 21.688 13.3315L21.8172 13.9598Z" fill="#6F3E1D"/>
<path fill-rule="evenodd" clip-rule="evenodd" d="M21.7675 13.8261H21.5929C21.5929 13.8261 21.4747 14.2369 21.2036 14.0315C20.9324 13.8261 20.5499 13.8985 20.5499 13.8985C20.5499 13.8985 20.5842 13.6528 21.0005 13.555C21.4168 13.4573 21.5929 12.6639 21.5929 12.6639C21.5929 12.6639 22.182 12.469 22.5404 12.8684C22.8987 13.2678 23.4036 13.0974 23.4036 13.0974C23.4036 13.0974 23.7726 13.2839 23.5881 13.555C23.4036 13.8261 23.0889 14.0245 22.8146 13.8261C22.5404 13.6278 21.7675 13.8261 21.7675 13.8261Z" fill="#009D29"/>
</g>
</g>
<defs>
<filter id="filter0_dd_5_9614" x="0" y="0" width="42" height="30" filterUnits="userSpaceOnUse" color-interpolation-filters="sRGB">
<feFlood flood-opacity="0" result="BackgroundImageFix"/>
<feColorMatrix in="SourceAlpha" type="matrix" values="0 0 0 0 0 0 0 0 0 0 0 0 0 0 0 0 0 0 127 0" result="hardAlpha"/>
<feOffset dy="1"/>
<feGaussianBlur stdDeviation="1"/>
<feColorMatrix type="matrix" values="0 0 0 0 0.0627451 0 0 0 0 0.0941176 0 0 0 0 0.156863 0 0 0 0.06 0"/>
<feBlend mode="normal" in2="BackgroundImageFix" result="effect1_dropShadow_5_9614"/>
<feColorMatrix in="SourceAlpha" type="matrix" values="0 0 0 0 0 0 0 0 0 0 0 0 0 0 0 0 0 0 127 0" result="hardAlpha"/>
<feOffset dy="1"/>
<feGaussianBlur stdDeviation="1.5"/>
<feColorMatrix type="matrix" values="0 0 0 0 0.0627451 0 0 0 0 0.0941176 0 0 0 0 0.156863 0 0 0 0.1 0"/>
<feBlend mode="normal" in2="effect1_dropShadow_5_9614" result="effect2_dropShadow_5_9614"/>
<feBlend mode="normal" in="SourceGraphic" in2="effect2_dropShadow_5_9614" result="shape"/>
</filter>
</defs>
</svg>
