<svg width="42" height="30" viewBox="0 0 42 30" fill="none" xmlns="http://www.w3.org/2000/svg">
<g filter="url(#filter0_dd_5_11572)">
<mask id="mask0_5_11572" style="mask-type:alpha" maskUnits="userSpaceOnUse" x="3" y="2" width="36" height="24">
<rect x="3" y="2" width="36" height="24" fill="white"/>
</mask>
<g mask="url(#mask0_5_11572)">
<path fill-rule="evenodd" clip-rule="evenodd" d="M3 2H39V26H3V2Z" fill="#1B1B1B"/>
<path fill-rule="evenodd" clip-rule="evenodd" d="M21 16L18.747 19.7994L18.8035 15.6039L14.6872 18.2547L17.042 14.494L11.8777 15.4711L16.0644 12.8901L10.875 12L16.0644 11.1099L11.8777 8.52893L17.042 9.50604L14.6872 5.74535L18.8035 8.39612L18.747 4.20058L21 8L23.253 4.20058L23.1965 8.39612L27.3128 5.74535L24.958 9.50604L30.1223 8.52893L25.9356 11.1099L31.125 12L25.9356 12.8901L30.1223 15.4711L24.958 14.494L27.3128 18.2547L23.1965 15.6039L23.253 19.7994L21 16Z" fill="#F9D313"/>
<rect x="9.75" y="16" width="22.5" height="10" fill="#F1F9FF"/>
<rect x="5.25" y="12" width="31.5" height="4" fill="#4A80E8"/>
<path fill-rule="evenodd" clip-rule="evenodd" d="M3 8L21 26L39 8V26H3V8Z" fill="#E31D1C"/>
</g>
</g>
<defs>
<filter id="filter0_dd_5_11572" x="0" y="0" width="42" height="30" filterUnits="userSpaceOnUse" color-interpolation-filters="sRGB">
<feFlood flood-opacity="0" result="BackgroundImageFix"/>
<feColorMatrix in="SourceAlpha" type="matrix" values="0 0 0 0 0 0 0 0 0 0 0 0 0 0 0 0 0 0 127 0" result="hardAlpha"/>
<feOffset dy="1"/>
<feGaussianBlur stdDeviation="1"/>
<feColorMatrix type="matrix" values="0 0 0 0 0.0627451 0 0 0 0 0.0941176 0 0 0 0 0.156863 0 0 0 0.06 0"/>
<feBlend mode="normal" in2="BackgroundImageFix" result="effect1_dropShadow_5_11572"/>
<feColorMatrix in="SourceAlpha" type="matrix" values="0 0 0 0 0 0 0 0 0 0 0 0 0 0 0 0 0 0 127 0" result="hardAlpha"/>
<feOffset dy="1"/>
<feGaussianBlur stdDeviation="1.5"/>
<feColorMatrix type="matrix" values="0 0 0 0 0.0627451 0 0 0 0 0.0941176 0 0 0 0 0.156863 0 0 0 0.1 0"/>
<feBlend mode="normal" in2="effect1_dropShadow_5_11572" result="effect2_dropShadow_5_11572"/>
<feBlend mode="normal" in="SourceGraphic" in2="effect2_dropShadow_5_11572" result="shape"/>
</filter>
</defs>
</svg>
