<svg width="42" height="30" viewBox="0 0 42 30" fill="none" xmlns="http://www.w3.org/2000/svg">
<g filter="url(#filter0_dd_5_11631)">
<mask id="mask0_5_11631" style="mask-type:alpha" maskUnits="userSpaceOnUse" x="3" y="2" width="36" height="24">
<rect x="3" y="2" width="36" height="24" fill="white"/>
</mask>
<g mask="url(#mask0_5_11631)">
<path fill-rule="evenodd" clip-rule="evenodd" d="M12 2H30V26H12V2Z" fill="#FFD018"/>
<path fill-rule="evenodd" clip-rule="evenodd" d="M3 2H12V26H3V2Z" fill="#2E42A5"/>
<path fill-rule="evenodd" clip-rule="evenodd" d="M30 2H39V26H30V2Z" fill="#E31D1C"/>
<path fill-rule="evenodd" clip-rule="evenodd" d="M21.3364 21.4236C21.585 21.3615 21.7989 20.9772 21.7989 20.9772C21.7989 20.9772 21.9613 21.09 22.2187 21.2048C22.4761 21.3195 22.7438 20.9772 22.7438 20.9772C22.7438 20.9772 23.1094 20.9772 23.2697 20.5937C23.4301 20.2103 22.9498 20.046 22.9498 20.046C22.9498 20.046 23.5112 19.5217 24.4592 19.5217C25.4072 19.5217 26.145 19.5217 26.7635 19.2883C27.3821 19.0549 27.9832 18.6536 28.208 17.8203C28.4329 16.9869 27.7212 16.4621 27.7212 16.4621C27.7212 16.4621 27.8788 16.5064 28.208 16.267C28.5373 16.0276 28.0065 15.2572 27.7212 15.2572C27.4358 15.2572 27.4018 15.3998 27.4018 15.3998C27.4018 15.3998 27.2255 15.2638 26.984 14.8014C26.7424 14.339 27.2255 13.933 27.2255 13.933C27.2255 13.933 27.4902 14.0679 27.7212 13.8454C27.9521 13.623 27.6012 13.2821 27.6012 13.2821C27.6012 13.2821 28.7128 12.9458 28.5521 11.6818C28.3914 10.4177 26.9256 10.4896 26.9256 10.4896C26.9256 10.4896 26.9701 10.2795 26.7635 10.1597C26.557 10.0399 26.404 10.2795 26.404 10.2795C26.2419 9.94606 26.7171 9.48997 27.0974 9.12497C27.2152 9.01186 27.324 8.90751 27.4018 8.81826C27.7308 8.44099 27.5242 7.9749 26.3222 7.46617C25.1203 6.95744 24.464 7.64116 24.3677 7.88344C24.2714 8.12571 24.6443 8.27563 24.6443 8.27563C24.3401 8.51292 23.7518 8.60353 23.3508 8.43958C22.9498 8.27563 23.1275 7.77705 23.2104 7.64116C23.2195 7.62629 23.2316 7.60827 23.2455 7.58746C23.3589 7.4181 23.5959 7.06401 23.3508 6.71967C23.0756 6.33302 22.5992 6.33302 22.2187 6.55258C21.893 6.7405 21.43 6.84015 21.3033 6.86497C21.1766 6.84015 20.7136 6.7405 20.3878 6.55258C20.0073 6.33302 19.5309 6.33302 19.2557 6.71967C19.0107 7.06401 19.2477 7.4181 19.361 7.58746C19.375 7.60827 19.387 7.62629 19.3961 7.64116C19.479 7.77705 19.6567 8.27563 19.2557 8.43958C18.8547 8.60353 18.2664 8.51292 17.9622 8.27563C17.9622 8.27563 18.3352 8.12571 18.2388 7.88344C18.1425 7.64116 17.4863 6.95744 16.2843 7.46617C15.0823 7.9749 14.8757 8.44099 15.2047 8.81826C15.2826 8.90751 15.3913 9.01186 15.5091 9.12497C15.8894 9.48997 16.3646 9.94606 16.2025 10.2795C16.2025 10.2795 16.0495 10.0399 15.843 10.1597C15.6365 10.2795 15.6809 10.4896 15.6809 10.4896C15.6809 10.4896 14.2152 10.4177 14.0545 11.6818C13.8938 12.9458 15.0053 13.2821 15.0053 13.2821C15.0053 13.2821 14.6545 13.623 14.8854 13.8454C15.1163 14.0679 15.381 13.933 15.381 13.933C15.381 13.933 15.8641 14.339 15.6226 14.8014C15.381 15.2638 15.2047 15.3998 15.2047 15.3998C15.2047 15.3998 15.1707 15.2572 14.8854 15.2572C14.6001 15.2572 14.0692 16.0276 14.3985 16.267C14.7278 16.5064 14.8854 16.4621 14.8854 16.4621C14.8854 16.4621 14.1736 16.9869 14.3985 17.8203C14.6234 18.6536 15.2244 19.0549 15.843 19.2883C16.4616 19.5217 17.1994 19.5217 18.1473 19.5217C19.0953 19.5217 19.6567 20.046 19.6567 20.046C19.6567 20.046 19.1765 20.2103 19.3368 20.5937C19.4971 20.9772 19.8627 20.9772 19.8627 20.9772C19.8627 20.9772 20.1304 21.3195 20.3878 21.2048C20.6453 21.09 20.8076 20.9772 20.8076 20.9772C20.8076 20.9772 21.0215 21.3615 21.2701 21.4236V21.4321C21.2812 21.4321 21.2923 21.4313 21.3033 21.4299C21.3143 21.4313 21.3253 21.4321 21.3364 21.4321V21.4236Z" fill="#BF9937"/>
<path d="M16.6238 17.9978L16.742 17.7437C18.1007 18.2614 19.6468 18.5206 21.3814 18.5206C23.1151 18.5206 24.6196 18.2617 25.896 17.7449L26.0204 17.9966C24.7026 18.5301 23.1559 18.7963 21.3814 18.7963C19.6077 18.7963 18.0215 18.5304 16.6238 17.9978Z" fill="#805440"/>
<path fill-rule="evenodd" clip-rule="evenodd" d="M17.0381 9.23273H21.2266H21.3325H25.521V16.2625C25.521 16.2625 25.5195 16.883 24.7815 17.1543C24.0436 17.4256 23.1755 17.3285 23.1755 17.3285C23.1755 17.3285 22.345 17.1697 21.9065 17.3285C21.6377 17.4258 21.443 17.4739 21.3325 17.4966V17.5151C21.3325 17.5151 21.3146 17.513 21.2795 17.5068C21.2445 17.513 21.2266 17.5151 21.2266 17.5151V17.4966C21.1161 17.4739 20.9213 17.4258 20.6526 17.3285C20.2141 17.1697 19.3835 17.3285 19.3835 17.3285C19.3835 17.3285 18.5155 17.4256 17.7775 17.1543C17.0396 16.883 17.0381 16.2625 17.0381 16.2625V9.23273Z" fill="#BF9937"/>
<mask id="mask1_5_11631" style="mask-type:alpha" maskUnits="userSpaceOnUse" x="17" y="9" width="9" height="9">
<path fill-rule="evenodd" clip-rule="evenodd" d="M17.0381 9.23273H21.2266H21.3325H25.521V16.2625C25.521 16.2625 25.5195 16.883 24.7815 17.1543C24.0436 17.4256 23.1755 17.3285 23.1755 17.3285C23.1755 17.3285 22.345 17.1697 21.9065 17.3285C21.6377 17.4258 21.443 17.4739 21.3325 17.4966V17.5151C21.3325 17.5151 21.3146 17.513 21.2795 17.5068C21.2445 17.513 21.2266 17.5151 21.2266 17.5151V17.4966C21.1161 17.4739 20.9213 17.4258 20.6526 17.3285C20.2141 17.1697 19.3835 17.3285 19.3835 17.3285C19.3835 17.3285 18.5155 17.4256 17.7775 17.1543C17.0396 16.883 17.0381 16.2625 17.0381 16.2625V9.23273Z" fill="white"/>
</mask>
<g mask="url(#mask1_5_11631)">
<rect x="16.9194" y="9.14447" width="4.11328" height="3.9" fill="#D00F3A"/>
<path fill-rule="evenodd" clip-rule="evenodd" d="M21.4897 9.14447H25.7554V13.0445H21.4897V9.14447Z" fill="#FEDF00"/>
<path fill-rule="evenodd" clip-rule="evenodd" d="M21.4897 13.4778H25.603V17.5222H21.4897V13.4778Z" fill="#FEDF00"/>
<rect x="16.9194" y="13.4778" width="4.11328" height="4.04444" fill="#FEDF00"/>
<path fill-rule="evenodd" clip-rule="evenodd" d="M24.5366 15.2985C24.5366 15.2985 24.7277 15.1262 24.7277 14.7192C24.7277 14.3122 24.8888 14.0429 24.5366 14.0429C24.1843 14.0429 23.706 14.0429 23.3692 14.0429C23.0324 14.0429 23.2054 14.2238 22.8667 14.0429C22.528 13.862 22.2551 13.9195 22.2551 14.0429C22.2551 14.1663 22.5969 14.112 22.5969 14.3626C22.5969 14.6132 22.7262 14.3953 22.7262 14.8469C22.7262 15.2985 22.7977 15.2227 22.8322 15.2227C22.8667 15.2227 22.8667 15.1411 22.8667 15.0224C22.8667 14.9037 22.8496 14.4248 22.9435 14.572C23.0375 14.7192 23.0839 14.6496 23.1303 14.8169C23.1766 14.9842 23.3014 15.1469 23.2158 15.2227C23.1303 15.2985 22.9575 15.3637 23.0867 15.3637C23.2158 15.3637 23.4035 15.1711 23.3097 14.8469C23.2158 14.5227 23.4262 14.8169 23.4262 14.8169C23.4262 14.8169 23.9236 14.915 23.9556 14.7804C23.9876 14.6457 24.0332 14.9092 24.168 14.9092C24.3029 14.9092 24.038 15.1802 23.9266 15.2227C23.8153 15.2652 23.9266 15.2985 23.9266 15.2985C23.9266 15.2985 24.0304 15.3744 24.0992 15.2985C24.168 15.2227 24.4142 14.9747 24.4142 14.8469C24.4142 14.7192 24.572 14.7959 24.572 14.9092C24.572 15.0224 24.4255 15.4288 24.4811 15.3637C24.5366 15.2985 24.5366 15.2985 24.5366 15.2985Z" fill="#D00F3A"/>
<path fill-rule="evenodd" clip-rule="evenodd" d="M24.5366 16.8875C24.5366 16.8875 24.7277 16.7151 24.7277 16.3081C24.7277 15.9011 24.8888 15.6318 24.5366 15.6318C24.1843 15.6318 23.706 15.6318 23.3692 15.6318C23.0324 15.6318 23.2054 15.8128 22.8667 15.6318C22.528 15.4509 22.2551 15.5085 22.2551 15.6318C22.2551 15.7552 22.5969 15.7009 22.5969 15.9515C22.5969 16.2021 22.7262 15.9842 22.7262 16.4358C22.7262 16.8875 22.7977 16.8117 22.8322 16.8117C22.8667 16.8117 22.8667 16.7301 22.8667 16.6113C22.8667 16.4926 22.8496 16.0137 22.9435 16.1609C23.0375 16.3081 23.0839 16.2386 23.1303 16.4058C23.1766 16.5731 23.3014 16.7358 23.2158 16.8117C23.1303 16.8875 22.9575 16.9526 23.0867 16.9526C23.2158 16.9526 23.4035 16.76 23.3097 16.4358C23.2158 16.1117 23.4262 16.4058 23.4262 16.4058C23.4262 16.4058 23.9236 16.504 23.9556 16.3693C23.9876 16.2347 24.0332 16.4981 24.168 16.4981C24.3029 16.4981 24.038 16.7692 23.9266 16.8117C23.8153 16.8542 23.9266 16.8875 23.9266 16.8875C23.9266 16.8875 24.0304 16.9633 24.0992 16.8875C24.168 16.8117 24.4142 16.5636 24.4142 16.4358C24.4142 16.3081 24.572 16.3848 24.572 16.4981C24.572 16.6113 24.4255 17.0177 24.4811 16.9526C24.5366 16.8875 24.5366 16.8875 24.5366 16.8875Z" fill="#D00F3A"/>
<path fill-rule="evenodd" clip-rule="evenodd" d="M18.9861 12.2977C18.9861 12.4628 18.8916 12.5888 18.6764 12.7819L18.648 12.8072L18.5903 12.8587C18.559 12.8869 18.5352 12.9093 18.5143 12.9303C18.3303 13.1149 18.0086 12.9557 17.9263 12.7765C17.9131 12.7478 17.8485 12.6448 17.7435 12.4834L17.7378 12.4746L17.6758 12.3797L17.6195 12.2937C17.5783 12.2306 17.5566 12.1971 17.5459 12.1795C17.5384 12.1673 17.4959 12.1815 17.4212 12.2662C17.3927 12.2985 17.4511 12.4089 17.6369 12.5855L17.5315 12.6898C17.273 12.4657 17.1479 12.3205 17.1479 12.2199C17.1479 12.0519 17.2999 11.9617 17.5829 11.9617C17.761 11.9617 17.856 12.0732 17.9986 12.3537L18.0349 12.4255C18.1052 12.5641 18.1503 12.6396 18.205 12.7011C18.2701 12.7741 18.3091 12.7706 18.3762 12.6954C18.4423 12.6213 18.5035 12.5057 18.5952 12.2977C18.6049 12.2757 18.6134 12.2572 18.6205 12.2417C18.6399 12.1992 18.6489 12.1795 18.6439 12.1749C18.6395 12.1708 18.6246 12.1781 18.5967 12.1916C18.5869 12.1964 18.5756 12.202 18.5625 12.2081L18.4914 12.2413L17.8456 10.862L19.0675 9.54332V12.2897L18.9892 12.2268C18.9873 12.2457 18.9861 12.2695 18.9861 12.2977ZM19.0733 12.2944L19.0675 12.2992V12.2897L19.0733 12.2944ZM19.0792 12.2897V12.2992L19.0733 12.2944L19.0792 12.2897ZM19.0792 9.54332L20.3011 10.862L19.6553 12.2413L19.5842 12.2081C19.5338 12.1846 19.5087 12.1694 19.5028 12.1749C19.4959 12.1812 19.5152 12.2157 19.5514 12.2977C19.6432 12.5057 19.7044 12.6213 19.7704 12.6954C19.8376 12.7706 19.8766 12.7741 19.9416 12.7011C19.9964 12.6396 20.0415 12.5641 20.1117 12.4255L20.1481 12.3537C20.2906 12.0732 20.3857 11.9617 20.5637 11.9617C20.8468 11.9617 20.9987 12.0519 20.9987 12.2199C20.9987 12.3205 20.8737 12.4657 20.6151 12.6898L20.5098 12.5855C20.6956 12.4089 20.7539 12.2985 20.7255 12.2662C20.6508 12.1815 20.6082 12.1673 20.6008 12.1795C20.59 12.1971 20.5684 12.2306 20.5271 12.2937L20.4708 12.3797L20.4089 12.4746L20.4031 12.4834C20.2982 12.6448 20.2336 12.7478 20.2204 12.7765C20.138 12.9557 19.8163 13.1149 19.6324 12.9303C19.6115 12.9093 19.5876 12.8869 19.5563 12.8587C19.5464 12.8497 19.5199 12.8261 19.4987 12.8072C19.4856 12.7955 19.4744 12.7856 19.4703 12.7819C19.255 12.5888 19.1606 12.4628 19.1606 12.2977C19.1606 12.2695 19.1594 12.2457 19.1574 12.2268L19.0792 12.2897V9.54332ZM19.0792 9.54332L19.0733 9.53698L19.0792 9.53064V9.54332ZM19.0733 9.53698L19.0675 9.54332V9.53064L19.0733 9.53698ZM18.9979 12.1837L19.0002 12.1803L18.9995 12.1815L18.9979 12.1837Z" fill="white"/>
<path fill-rule="evenodd" clip-rule="evenodd" d="M19.0633 12.0497V9.82294L20.1224 10.8879L19.5783 12.0497C19.3778 11.9877 19.3076 12.1192 19.4109 12.3534C19.4725 12.4929 19.5211 12.5934 19.5685 12.6711C19.3882 12.5085 19.313 12.4069 19.313 12.2977C19.313 12.2093 19.3038 12.1485 19.2797 12.1086C19.2683 12.0898 19.1732 12.0716 19.1121 12.06C19.0884 12.0555 19.0698 12.052 19.0633 12.0497ZM18.5684 12.0497L18.0244 10.8879L19.0578 9.83112V12.0579C19.051 12.0602 19.0335 12.0632 19.0116 12.067C18.958 12.0763 18.8783 12.09 18.8671 12.1086C18.843 12.1485 18.8338 12.2093 18.8338 12.2977C18.8338 12.4069 18.7586 12.5085 18.5782 12.6711C18.6257 12.5934 18.6743 12.4929 18.7358 12.3534C18.8391 12.1192 18.7689 11.9877 18.5684 12.0497Z" fill="#FEDF00"/>
<path fill-rule="evenodd" clip-rule="evenodd" d="M17.8335 13.4778H17.3765V17.5223H17.8335V13.4778ZM18.7475 13.4778H18.2905V17.5223H18.7475V13.4778ZM19.2046 13.4778H19.6616V17.5223H19.2046V13.4778ZM20.5757 13.4778H20.1186V17.5223H20.5757V13.4778Z" fill="#D00F3A"/>
<path fill-rule="evenodd" clip-rule="evenodd" d="M22.5562 9.14447H22.0991V13.1889H22.5562V9.14447ZM23.4702 9.14447H23.0132V13.1889H23.4702V9.14447ZM23.9273 9.14447H24.3843V13.1889H23.9273V9.14447ZM25.2983 9.14447H24.8413V13.1889H25.2983V9.14447Z" fill="#D00F3A"/>
</g>
</g>
</g>
<defs>
<filter id="filter0_dd_5_11631" x="0" y="0" width="42" height="30" filterUnits="userSpaceOnUse" color-interpolation-filters="sRGB">
<feFlood flood-opacity="0" result="BackgroundImageFix"/>
<feColorMatrix in="SourceAlpha" type="matrix" values="0 0 0 0 0 0 0 0 0 0 0 0 0 0 0 0 0 0 127 0" result="hardAlpha"/>
<feOffset dy="1"/>
<feGaussianBlur stdDeviation="1"/>
<feColorMatrix type="matrix" values="0 0 0 0 0.0627451 0 0 0 0 0.0941176 0 0 0 0 0.156863 0 0 0 0.06 0"/>
<feBlend mode="normal" in2="BackgroundImageFix" result="effect1_dropShadow_5_11631"/>
<feColorMatrix in="SourceAlpha" type="matrix" values="0 0 0 0 0 0 0 0 0 0 0 0 0 0 0 0 0 0 127 0" result="hardAlpha"/>
<feOffset dy="1"/>
<feGaussianBlur stdDeviation="1.5"/>
<feColorMatrix type="matrix" values="0 0 0 0 0.0627451 0 0 0 0 0.0941176 0 0 0 0 0.156863 0 0 0 0.1 0"/>
<feBlend mode="normal" in2="effect1_dropShadow_5_11631" result="effect2_dropShadow_5_11631"/>
<feBlend mode="normal" in="SourceGraphic" in2="effect2_dropShadow_5_11631" result="shape"/>
</filter>
</defs>
</svg>
