<svg width="42" height="30" viewBox="0 0 42 30" fill="none" xmlns="http://www.w3.org/2000/svg">
<g filter="url(#filter0_dd_5_7176)">
<mask id="mask0_5_7176" style="mask-type:alpha" maskUnits="userSpaceOnUse" x="3" y="2" width="36" height="24">
<rect x="3" y="2" width="36" height="24" fill="white"/>
</mask>
<g mask="url(#mask0_5_7176)">
<path fill-rule="evenodd" clip-rule="evenodd" d="M12 2H39V26H12V2Z" fill="#EF0000"/>
<path fill-rule="evenodd" clip-rule="evenodd" d="M3 2H16.5V26H3V2Z" fill="#2F8D00"/>
<mask id="mask1_5_7176" style="mask-type:alpha" maskUnits="userSpaceOnUse" x="7" y="6" width="19" height="16">
<path fill-rule="evenodd" clip-rule="evenodd" d="M16.3929 21.8072C11.5999 21.8072 7.71436 18.3118 7.71436 14C7.71436 9.68816 11.5999 6.19275 16.3929 6.19275C21.186 6.19275 25.0715 9.68816 25.0715 14C25.0715 18.3118 21.186 21.8072 16.3929 21.8072Z" fill="white"/>
</mask>
<g mask="url(#mask1_5_7176)">
<path fill-rule="evenodd" clip-rule="evenodd" d="M15.8572 6H16.9822V8.6988H15.8572V6Z" fill="#FFE017"/>
<path fill-rule="evenodd" clip-rule="evenodd" d="M15.8572 19.4939H16.9822V21.9999H15.8572V19.4939Z" fill="#FFE017"/>
<path d="M7.85384 14.4038L7.53931 13.6865C11.0101 12.4548 13.6298 11.6605 15.4073 11.3025C18.0151 10.7773 20.8806 10.3887 24.0038 10.1365L24.0805 10.9045C20.9931 11.1538 18.1644 11.5374 15.5945 12.055C13.8699 12.4023 11.2867 13.1856 7.85384 14.4038Z" fill="#FFE017"/>
<path d="M24.5336 9.66384L24.2784 10.3999C21.6552 9.66383 19.5184 9.34741 17.8758 9.44542L17.8191 8.67603C19.5826 8.5708 21.8181 8.90183 24.5336 9.66384Z" fill="#FFE017"/>
<path d="M25.4411 13.7798L24.9562 14.4157C23.6189 13.5904 21.9714 13.1759 20.0024 13.1759V12.4048C22.137 12.4048 23.9536 12.8619 25.4411 13.7798Z" fill="#FFE017"/>
<path d="M24.7148 14.0105L24.9364 14.7554C22.0534 15.4495 19.3468 15.8433 16.8161 15.9361C14.2681 16.0294 11.2982 15.6342 7.90405 14.7534L8.14163 14.0125C11.4533 14.8719 14.334 15.2553 16.7812 15.1656C19.2459 15.0753 21.8905 14.6905 24.7148 14.0105Z" fill="#FFE017"/>
<path d="M24.3884 17.6359L23.0335 18.8705C20.4587 16.584 18.1919 14.949 16.2471 13.9666C14.269 12.9675 11.6893 11.9529 8.51221 10.927L9.16375 9.29407C12.4346 10.3502 15.1091 11.4021 17.1913 12.4538C19.3067 13.5224 21.7011 15.2494 24.3884 17.6359Z" fill="#FFE017"/>
<path d="M9.14077 18.3353L8.62793 17.7175C8.69955 17.6694 8.82733 17.5891 9.0034 17.4875C9.29409 17.3196 9.6169 17.152 9.96421 16.9954C10.9208 16.5641 11.8804 16.2947 12.7956 16.27C12.8403 16.2688 12.8849 16.2682 12.9293 16.2682V17.0393C12.8935 17.0393 12.8575 17.0398 12.8213 17.0407C12.05 17.0616 11.2031 17.2993 10.3483 17.6847C10.0297 17.8284 9.73284 17.9825 9.46643 18.1364C9.37369 18.1899 9.29164 18.2394 9.22134 18.2836C9.18034 18.3093 9.15314 18.327 9.14077 18.3353Z" fill="#FFE017"/>
<path d="M9.53882 18.6025L9.75467 17.8563C12.6123 18.5253 14.8154 18.8586 16.3529 18.8586C17.8847 18.8586 20.1646 18.4654 23.1778 17.6763L23.4174 18.4166C20.3329 19.2244 17.983 19.6297 16.3529 19.6297C14.7285 19.6297 12.4608 19.2866 9.53882 18.6025Z" fill="#FFE017"/>
<path d="M8.42529 11.6943L9.78325 10.4624L11.7715 12.236L10.4135 13.468L8.42529 11.6943Z" fill="#FFE017"/>
<path d="M19.6904 17.8477L20.7005 16.3698L23.8546 18.1142L22.8445 19.5922L19.6904 17.8477Z" fill="#FFE017"/>
</g>
<path fill-rule="evenodd" clip-rule="evenodd" d="M7.71436 14C7.71436 18.3118 11.5999 21.8072 16.3929 21.8072C21.186 21.8072 25.0715 18.3118 25.0715 14C25.0715 9.68816 21.186 6.19275 16.3929 6.19275C11.5999 6.19275 7.71436 9.68816 7.71436 14ZM24 14.0964C24 17.8226 20.6422 20.8433 16.5 20.8433C12.3579 20.8433 9.00003 17.8226 9.00003 14.0964C9.00003 10.3701 12.3579 7.34937 16.5 7.34937C20.6422 7.34937 24 10.3701 24 14.0964Z" fill="#F9E813"/>
<path d="M11.6138 9.1853V15.446C12.0774 17.9241 13.6394 19.1631 16.2998 19.1631C18.9602 19.1631 20.5222 17.9241 20.9859 15.446V9.1853H11.6138Z" fill="white"/>
<path d="M10.9709 8.60693H21.6288V15.4943L21.6199 15.5419C21.105 18.2936 19.2799 19.7414 16.2999 19.7414C13.3199 19.7414 11.4947 18.2936 10.9799 15.5419L10.9709 15.4943V8.60693Z" fill="#C51918"/>
<path d="M13.4089 10.7107H19.1911V15.1516C19.1911 15.1516 18.762 17.4449 16.3 17.4449C13.838 17.4449 13.4089 15.1516 13.4089 15.1516V10.7107Z" fill="#F7FCFF"/>
<path fill-rule="evenodd" clip-rule="evenodd" d="M12 9.08435H12.8133V9.56628H12V9.08435Z" fill="#F9E813"/>
<path fill-rule="evenodd" clip-rule="evenodd" d="M11.5715 9.2771H13.0715V9.51806H11.5715V9.2771Z" fill="#060101"/>
<path fill-rule="evenodd" clip-rule="evenodd" d="M11.5715 9.46985H12.3848V9.71081H11.5715V9.46985Z" fill="#F9E813"/>
<path fill-rule="evenodd" clip-rule="evenodd" d="M12.4287 9.46985H13.242V9.71081H12.4287V9.46985Z" fill="#F9E813"/>
<path fill-rule="evenodd" clip-rule="evenodd" d="M11.5715 10.0482H12.1137V10.7711H11.5715V10.0482Z" fill="#F9E813"/>
<path fill-rule="evenodd" clip-rule="evenodd" d="M12.6431 10.0482H13.1852V10.7711H12.6431V10.0482Z" fill="#F9E813"/>
<path fill-rule="evenodd" clip-rule="evenodd" d="M12.2144 10.0482H12.4854V10.7711H12.2144V10.0482Z" fill="#F9E813"/>
<path fill-rule="evenodd" clip-rule="evenodd" d="M11.5715 9.85547H13.0715V10.0964H11.5715V9.85547Z" fill="#060101"/>
<path fill-rule="evenodd" clip-rule="evenodd" d="M11.5715 10.4337H13.0715V10.6747H11.5715V10.4337Z" fill="#060101"/>
<path fill-rule="evenodd" clip-rule="evenodd" d="M11.7856 9.6626H12.0567V9.90356H11.7856V9.6626Z" fill="#F9E813"/>
<path fill-rule="evenodd" clip-rule="evenodd" d="M12.6431 9.6626H12.9142V9.90356H12.6431V9.6626Z" fill="#F9E813"/>
<path fill-rule="evenodd" clip-rule="evenodd" d="M12.2144 9.46985H12.4854V9.95178H12.2144V9.46985Z" fill="#F9E813"/>
<path fill-rule="evenodd" clip-rule="evenodd" d="M16.0713 9.08435H16.8845V9.56628H16.0713V9.08435Z" fill="#F9E813"/>
<path fill-rule="evenodd" clip-rule="evenodd" d="M15.6428 9.2771H17.1428V9.51806H15.6428V9.2771Z" fill="#060101"/>
<path fill-rule="evenodd" clip-rule="evenodd" d="M15.6428 9.46985H16.4561V9.71081H15.6428V9.46985Z" fill="#F9E813"/>
<path fill-rule="evenodd" clip-rule="evenodd" d="M16.5 9.46985H17.3133V9.71081H16.5V9.46985Z" fill="#F9E813"/>
<path fill-rule="evenodd" clip-rule="evenodd" d="M15.6428 10.0482H16.185V10.7711H15.6428V10.0482Z" fill="#F9E813"/>
<path fill-rule="evenodd" clip-rule="evenodd" d="M16.7144 10.0482H17.2565V10.7711H16.7144V10.0482Z" fill="#F9E813"/>
<path fill-rule="evenodd" clip-rule="evenodd" d="M16.2856 10.0482H16.5567V10.7711H16.2856V10.0482Z" fill="#F9E813"/>
<path fill-rule="evenodd" clip-rule="evenodd" d="M15.6428 9.85547H17.1428V10.0964H15.6428V9.85547Z" fill="#060101"/>
<path fill-rule="evenodd" clip-rule="evenodd" d="M15.6428 10.4337H17.1428V10.6747H15.6428V10.4337Z" fill="#060101"/>
<path fill-rule="evenodd" clip-rule="evenodd" d="M15.8569 9.6626H16.128V9.90356H15.8569V9.6626Z" fill="#F9E813"/>
<path fill-rule="evenodd" clip-rule="evenodd" d="M16.7144 9.6626H16.9854V9.90356H16.7144V9.6626Z" fill="#F9E813"/>
<path fill-rule="evenodd" clip-rule="evenodd" d="M16.2856 9.46985H16.5567V9.95178H16.2856V9.46985Z" fill="#F9E813"/>
<path fill-rule="evenodd" clip-rule="evenodd" d="M19.9285 9.08435H20.7417V9.56628H19.9285V9.08435Z" fill="#F9E813"/>
<path fill-rule="evenodd" clip-rule="evenodd" d="M19.5 9.2771H21V9.51806H19.5V9.2771Z" fill="#060101"/>
<path fill-rule="evenodd" clip-rule="evenodd" d="M19.5 9.46985H20.3133V9.71081H19.5V9.46985Z" fill="#F9E813"/>
<path fill-rule="evenodd" clip-rule="evenodd" d="M20.3572 9.46985H21.1704V9.71081H20.3572V9.46985Z" fill="#F9E813"/>
<path fill-rule="evenodd" clip-rule="evenodd" d="M19.5 10.0482H20.0422V10.7711H19.5V10.0482Z" fill="#F9E813"/>
<path fill-rule="evenodd" clip-rule="evenodd" d="M20.5713 10.0482H21.1135V10.7711H20.5713V10.0482Z" fill="#F9E813"/>
<path fill-rule="evenodd" clip-rule="evenodd" d="M20.1428 10.0482H20.4139V10.7711H20.1428V10.0482Z" fill="#F9E813"/>
<path fill-rule="evenodd" clip-rule="evenodd" d="M19.5 9.85547H21V10.0964H19.5V9.85547Z" fill="#060101"/>
<path fill-rule="evenodd" clip-rule="evenodd" d="M19.5 10.4337H21V10.6747H19.5V10.4337Z" fill="#060101"/>
<path fill-rule="evenodd" clip-rule="evenodd" d="M19.7141 9.6626H19.9852V9.90356H19.7141V9.6626Z" fill="#F9E813"/>
<path fill-rule="evenodd" clip-rule="evenodd" d="M20.5713 9.6626H20.8424V9.90356H20.5713V9.6626Z" fill="#F9E813"/>
<path fill-rule="evenodd" clip-rule="evenodd" d="M20.1428 9.46985H20.4139V9.95178H20.1428V9.46985Z" fill="#F9E813"/>
<path fill-rule="evenodd" clip-rule="evenodd" d="M19.9285 12.5542H20.7417V13.0361H19.9285V12.5542Z" fill="#F9E813"/>
<path fill-rule="evenodd" clip-rule="evenodd" d="M19.5 12.7469H21V12.9879H19.5V12.7469Z" fill="#060101"/>
<path fill-rule="evenodd" clip-rule="evenodd" d="M19.5 12.9397H20.3133V13.1807H19.5V12.9397Z" fill="#F9E813"/>
<path fill-rule="evenodd" clip-rule="evenodd" d="M20.3572 12.9397H21.1704V13.1807H20.3572V12.9397Z" fill="#F9E813"/>
<path fill-rule="evenodd" clip-rule="evenodd" d="M19.5 13.5181H20.0422V14.241H19.5V13.5181Z" fill="#F9E813"/>
<path fill-rule="evenodd" clip-rule="evenodd" d="M20.5713 13.5181H21.1135V14.241H20.5713V13.5181Z" fill="#F9E813"/>
<path fill-rule="evenodd" clip-rule="evenodd" d="M20.1428 13.5181H20.4139V14.241H20.1428V13.5181Z" fill="#F9E813"/>
<path fill-rule="evenodd" clip-rule="evenodd" d="M19.5 13.3253H21V13.5663H19.5V13.3253Z" fill="#060101"/>
<path fill-rule="evenodd" clip-rule="evenodd" d="M19.5 13.9036H21V14.1445H19.5V13.9036Z" fill="#060101"/>
<path fill-rule="evenodd" clip-rule="evenodd" d="M19.7141 13.1326H19.9852V13.3735H19.7141V13.1326Z" fill="#F9E813"/>
<path fill-rule="evenodd" clip-rule="evenodd" d="M20.5713 13.1326H20.8424V13.3735H20.5713V13.1326Z" fill="#F9E813"/>
<path fill-rule="evenodd" clip-rule="evenodd" d="M20.1428 12.9397H20.4139V13.4216H20.1428V12.9397Z" fill="#F9E813"/>
<path fill-rule="evenodd" clip-rule="evenodd" d="M12 12.5542H12.8133V13.0361H12V12.5542Z" fill="#F9E813"/>
<path fill-rule="evenodd" clip-rule="evenodd" d="M11.5715 12.7469H13.0715V12.9879H11.5715V12.7469Z" fill="#060101"/>
<path fill-rule="evenodd" clip-rule="evenodd" d="M11.5715 12.9397H12.3848V13.1807H11.5715V12.9397Z" fill="#F9E813"/>
<path fill-rule="evenodd" clip-rule="evenodd" d="M12.4287 12.9397H13.242V13.1807H12.4287V12.9397Z" fill="#F9E813"/>
<path fill-rule="evenodd" clip-rule="evenodd" d="M11.5715 13.5181H12.1137V14.241H11.5715V13.5181Z" fill="#F9E813"/>
<path fill-rule="evenodd" clip-rule="evenodd" d="M12.6431 13.5181H13.1852V14.241H12.6431V13.5181Z" fill="#F9E813"/>
<path fill-rule="evenodd" clip-rule="evenodd" d="M12.2144 13.5181H12.4854V14.241H12.2144V13.5181Z" fill="#F9E813"/>
<path fill-rule="evenodd" clip-rule="evenodd" d="M11.5715 13.3253H13.0715V13.5663H11.5715V13.3253Z" fill="#060101"/>
<path fill-rule="evenodd" clip-rule="evenodd" d="M11.5715 13.9036H13.0715V14.1445H11.5715V13.9036Z" fill="#060101"/>
<path fill-rule="evenodd" clip-rule="evenodd" d="M11.7856 13.1326H12.0567V13.3735H11.7856V13.1326Z" fill="#F9E813"/>
<path fill-rule="evenodd" clip-rule="evenodd" d="M12.6431 13.1326H12.9142V13.3735H12.6431V13.1326Z" fill="#F9E813"/>
<path fill-rule="evenodd" clip-rule="evenodd" d="M12.2144 12.9397H12.4854V13.4216H12.2144V12.9397Z" fill="#F9E813"/>
<path fill-rule="evenodd" clip-rule="evenodd" d="M12.5217 16.9039L13.0445 16.3502L13.4598 16.6599L12.9371 17.2137L12.5217 16.9039Z" fill="#F9E813"/>
<path fill-rule="evenodd" clip-rule="evenodd" d="M12.4126 17.3197L13.3768 16.2983L13.5844 16.4532L12.6203 17.4746L12.4126 17.3197Z" fill="#060101"/>
<path fill-rule="evenodd" clip-rule="evenodd" d="M12.5786 17.4436L13.1014 16.8898L13.309 17.0447L12.7863 17.5985L12.5786 17.4436Z" fill="#F9E813"/>
<path fill-rule="evenodd" clip-rule="evenodd" d="M13.1294 16.86L13.6521 16.3062L13.8598 16.4611L13.3371 17.0149L13.1294 16.86Z" fill="#F9E813"/>
<path fill-rule="evenodd" clip-rule="evenodd" d="M13.0771 17.8153L13.4256 17.4461L14.0486 17.9108L13.7001 18.28L13.0771 17.8153Z" fill="#F9E813"/>
<path fill-rule="evenodd" clip-rule="evenodd" d="M13.7659 17.0858L14.1144 16.7166L14.7374 17.1813L14.3889 17.5505L13.7659 17.0858Z" fill="#F9E813"/>
<path fill-rule="evenodd" clip-rule="evenodd" d="M13.4902 17.3777L13.6645 17.1931L14.2875 17.6578L14.1132 17.8424L13.4902 17.3777Z" fill="#F9E813"/>
<path fill-rule="evenodd" clip-rule="evenodd" d="M12.9109 17.6914L13.8751 16.67L14.0827 16.8249L13.1186 17.8463L12.9109 17.6914Z" fill="#060101"/>
<path fill-rule="evenodd" clip-rule="evenodd" d="M13.4092 18.0631L14.3734 17.0417L14.581 17.1966L13.6168 18.218L13.4092 18.0631Z" fill="#060101"/>
<path fill-rule="evenodd" clip-rule="evenodd" d="M12.8826 17.4216L13.0568 17.237L13.2645 17.3919L13.0902 17.5765L12.8826 17.4216Z" fill="#F9E813"/>
<path fill-rule="evenodd" clip-rule="evenodd" d="M13.4333 16.838L13.6076 16.6534L13.8153 16.8083L13.641 16.9929L13.4333 16.838Z" fill="#F9E813"/>
<path fill-rule="evenodd" clip-rule="evenodd" d="M12.9917 17.0059L13.1659 16.8213L13.5813 17.131L13.407 17.3156L12.9917 17.0059Z" fill="#F9E813"/>
<path fill-rule="evenodd" clip-rule="evenodd" d="M19.8508 16.4663L20.3736 17.0201L19.9583 17.3299L19.4355 16.7761L19.8508 16.4663Z" fill="#F9E813"/>
<path fill-rule="evenodd" clip-rule="evenodd" d="M19.4092 16.2983L20.3734 17.3197L20.1657 17.4746L19.2015 16.4532L19.4092 16.2983Z" fill="#060101"/>
<path fill-rule="evenodd" clip-rule="evenodd" d="M19.2432 16.4222L19.7659 16.976L19.5583 17.1309L19.0355 16.5771L19.2432 16.4222Z" fill="#F9E813"/>
<path fill-rule="evenodd" clip-rule="evenodd" d="M19.7942 17.006L20.3169 17.5597L20.1093 17.7146L19.5865 17.1609L19.7942 17.006Z" fill="#F9E813"/>
<path fill-rule="evenodd" clip-rule="evenodd" d="M18.7446 16.7941L19.0931 17.1632L18.4701 17.6279L18.1216 17.2587L18.7446 16.7941Z" fill="#F9E813"/>
<path fill-rule="evenodd" clip-rule="evenodd" d="M19.4333 17.5236L19.7818 17.8927L19.1589 18.3574L18.8104 17.9882L19.4333 17.5236Z" fill="#F9E813"/>
<path fill-rule="evenodd" clip-rule="evenodd" d="M19.158 17.2317L19.3322 17.4163L18.7092 17.8809L18.535 17.6964L19.158 17.2317Z" fill="#F9E813"/>
<path fill-rule="evenodd" clip-rule="evenodd" d="M18.9109 16.67L19.8751 17.6914L19.6674 17.8463L18.7032 16.8249L18.9109 16.67Z" fill="#060101"/>
<path fill-rule="evenodd" clip-rule="evenodd" d="M18.4126 17.0419L19.3768 18.0633L19.1691 18.2182L18.2049 17.1968L18.4126 17.0419Z" fill="#060101"/>
<path fill-rule="evenodd" clip-rule="evenodd" d="M19.2148 16.6921L19.3891 16.8767L19.1814 17.0316L19.0072 16.847L19.2148 16.6921Z" fill="#F9E813"/>
<path fill-rule="evenodd" clip-rule="evenodd" d="M19.7659 17.2758L19.9401 17.4603L19.7325 17.6152L19.5582 17.4306L19.7659 17.2758Z" fill="#F9E813"/>
<path fill-rule="evenodd" clip-rule="evenodd" d="M19.6565 16.86L19.8307 17.0446L19.4154 17.3544L19.2412 17.1698L19.6565 16.86Z" fill="#F9E813"/>
<path fill-rule="evenodd" clip-rule="evenodd" d="M17.1282 11.2048H15.6428V12.1663C15.6428 12.1663 15.753 12.6628 16.3855 12.6628C17.018 12.6628 17.1282 12.1663 17.1282 12.1663V11.2048ZM16.2856 11.5904C16.2856 11.6968 16.1897 11.7832 16.0713 11.7832C15.953 11.7832 15.857 11.6968 15.857 11.5904C15.857 11.4839 15.953 11.3976 16.0713 11.3976C16.1897 11.3976 16.2856 11.4839 16.2856 11.5904ZM16.0713 12.5542C16.1897 12.5542 16.2856 12.4679 16.2856 12.3615C16.2856 12.255 16.1897 12.1687 16.0713 12.1687C15.953 12.1687 15.857 12.255 15.857 12.3615C15.857 12.4679 15.953 12.5542 16.0713 12.5542ZM16.9286 12.3615C16.9286 12.4679 16.8326 12.5542 16.7143 12.5542C16.5959 12.5542 16.5 12.4679 16.5 12.3615C16.5 12.255 16.5959 12.1687 16.7143 12.1687C16.8326 12.1687 16.9286 12.255 16.9286 12.3615ZM16.3928 12.1687C16.5111 12.1687 16.6071 12.0824 16.6071 11.9759C16.6071 11.8694 16.5111 11.7831 16.3928 11.7831C16.2745 11.7831 16.1785 11.8694 16.1785 11.9759C16.1785 12.0824 16.2745 12.1687 16.3928 12.1687ZM16.9286 11.5904C16.9286 11.6968 16.8326 11.7832 16.7143 11.7832C16.5959 11.7832 16.5 11.6968 16.5 11.5904C16.5 11.4839 16.5959 11.3976 16.7143 11.3976C16.8326 11.3976 16.9286 11.4839 16.9286 11.5904Z" fill="#013399"/>
<path fill-rule="evenodd" clip-rule="evenodd" d="M17.1282 13.3253H15.6428V14.2868C15.6428 14.2868 15.753 14.7833 16.3855 14.7833C17.018 14.7833 17.1282 14.2868 17.1282 14.2868V13.3253ZM16.2856 13.7109C16.2856 13.8173 16.1897 13.9036 16.0713 13.9036C15.953 13.9036 15.857 13.8173 15.857 13.7109C15.857 13.6044 15.953 13.5181 16.0713 13.5181C16.1897 13.5181 16.2856 13.6044 16.2856 13.7109ZM16.0713 14.6747C16.1897 14.6747 16.2856 14.5884 16.2856 14.482C16.2856 14.3755 16.1897 14.2892 16.0713 14.2892C15.953 14.2892 15.857 14.3755 15.857 14.482C15.857 14.5884 15.953 14.6747 16.0713 14.6747ZM16.9286 14.482C16.9286 14.5884 16.8326 14.6747 16.7143 14.6747C16.5959 14.6747 16.5 14.5884 16.5 14.482C16.5 14.3755 16.5959 14.2892 16.7143 14.2892C16.8326 14.2892 16.9286 14.3755 16.9286 14.482ZM16.3928 14.2892C16.5111 14.2892 16.6071 14.2029 16.6071 14.0964C16.6071 13.9899 16.5111 13.9036 16.3928 13.9036C16.2745 13.9036 16.1785 13.9899 16.1785 14.0964C16.1785 14.2029 16.2745 14.2892 16.3928 14.2892ZM16.9286 13.7109C16.9286 13.8173 16.8326 13.9036 16.7143 13.9036C16.5959 13.9036 16.5 13.8173 16.5 13.7109C16.5 13.6044 16.5959 13.5181 16.7143 13.5181C16.8326 13.5181 16.9286 13.6044 16.9286 13.7109Z" fill="#013399"/>
<path fill-rule="evenodd" clip-rule="evenodd" d="M19.0569 13.3253H17.5715V14.2868C17.5715 14.2868 17.6818 14.7833 18.3142 14.7833C18.9467 14.7833 19.0569 14.2868 19.0569 14.2868V13.3253ZM18.2144 13.7109C18.2144 13.8173 18.1184 13.9036 18.0001 13.9036C17.8817 13.9036 17.7858 13.8173 17.7858 13.7109C17.7858 13.6044 17.8817 13.5181 18.0001 13.5181C18.1184 13.5181 18.2144 13.6044 18.2144 13.7109ZM18.0001 14.6747C18.1184 14.6747 18.2144 14.5884 18.2144 14.482C18.2144 14.3755 18.1184 14.2892 18.0001 14.2892C17.8817 14.2892 17.7858 14.3755 17.7858 14.482C17.7858 14.5884 17.8817 14.6747 18.0001 14.6747ZM18.8573 14.482C18.8573 14.5884 18.7614 14.6747 18.643 14.6747C18.5247 14.6747 18.4288 14.5884 18.4288 14.482C18.4288 14.3755 18.5247 14.2892 18.643 14.2892C18.7614 14.2892 18.8573 14.3755 18.8573 14.482ZM18.3216 14.2892C18.4399 14.2892 18.5358 14.2029 18.5358 14.0964C18.5358 13.9899 18.4399 13.9036 18.3216 13.9036C18.2032 13.9036 18.1073 13.9899 18.1073 14.0964C18.1073 14.2029 18.2032 14.2892 18.3216 14.2892ZM18.8573 13.7109C18.8573 13.8173 18.7614 13.9036 18.643 13.9036C18.5247 13.9036 18.4288 13.8173 18.4288 13.7109C18.4288 13.6044 18.5247 13.5181 18.643 13.5181C18.7614 13.5181 18.8573 13.6044 18.8573 13.7109Z" fill="#013399"/>
<path fill-rule="evenodd" clip-rule="evenodd" d="M15.1997 13.3253H13.7144V14.2868C13.7144 14.2868 13.8246 14.7833 14.457 14.7833C15.0895 14.7833 15.1997 14.2868 15.1997 14.2868V13.3253ZM14.3572 13.7109C14.3572 13.8173 14.2613 13.9036 14.1429 13.9036C14.0246 13.9036 13.9286 13.8173 13.9286 13.7109C13.9286 13.6044 14.0246 13.5181 14.1429 13.5181C14.2613 13.5181 14.3572 13.6044 14.3572 13.7109ZM14.1429 14.6747C14.2613 14.6747 14.3572 14.5884 14.3572 14.482C14.3572 14.3755 14.2613 14.2892 14.1429 14.2892C14.0246 14.2892 13.9286 14.3755 13.9286 14.482C13.9286 14.5884 14.0246 14.6747 14.1429 14.6747ZM15.0002 14.482C15.0002 14.5884 14.9042 14.6747 14.7859 14.6747C14.6675 14.6747 14.5716 14.5884 14.5716 14.482C14.5716 14.3755 14.6675 14.2892 14.7859 14.2892C14.9042 14.2892 15.0002 14.3755 15.0002 14.482ZM14.4644 14.2892C14.5828 14.2892 14.6787 14.2029 14.6787 14.0964C14.6787 13.9899 14.5828 13.9036 14.4644 13.9036C14.3461 13.9036 14.2501 13.9899 14.2501 14.0964C14.2501 14.2029 14.3461 14.2892 14.4644 14.2892ZM15.0002 13.7109C15.0002 13.8173 14.9042 13.9036 14.7859 13.9036C14.6675 13.9036 14.5716 13.8173 14.5716 13.7109C14.5716 13.6044 14.6675 13.5181 14.7859 13.5181C14.9042 13.5181 15.0002 13.6044 15.0002 13.7109Z" fill="#013399"/>
<path fill-rule="evenodd" clip-rule="evenodd" d="M17.1282 15.4458H15.6428V16.4073C15.6428 16.4073 15.753 16.9038 16.3855 16.9038C17.018 16.9038 17.1282 16.4073 17.1282 16.4073V15.4458ZM16.2856 15.8314C16.2856 15.9378 16.1897 16.0241 16.0713 16.0241C15.953 16.0241 15.857 15.9378 15.857 15.8314C15.857 15.7249 15.953 15.6386 16.0713 15.6386C16.1897 15.6386 16.2856 15.7249 16.2856 15.8314ZM16.0713 16.7952C16.1897 16.7952 16.2856 16.7089 16.2856 16.6024C16.2856 16.496 16.1897 16.4097 16.0713 16.4097C15.953 16.4097 15.857 16.496 15.857 16.6024C15.857 16.7089 15.953 16.7952 16.0713 16.7952ZM16.9286 16.6024C16.9286 16.7089 16.8326 16.7952 16.7143 16.7952C16.5959 16.7952 16.5 16.7089 16.5 16.6024C16.5 16.496 16.5959 16.4097 16.7143 16.4097C16.8326 16.4097 16.9286 16.496 16.9286 16.6024ZM16.3928 16.4097C16.5111 16.4097 16.6071 16.3233 16.6071 16.2169C16.6071 16.1104 16.5111 16.0241 16.3928 16.0241C16.2745 16.0241 16.1785 16.1104 16.1785 16.2169C16.1785 16.3233 16.2745 16.4097 16.3928 16.4097ZM16.9286 15.8314C16.9286 15.9378 16.8326 16.0241 16.7143 16.0241C16.5959 16.0241 16.5 15.9378 16.5 15.8314C16.5 15.7249 16.5959 15.6386 16.7143 15.6386C16.8326 15.6386 16.9286 15.7249 16.9286 15.8314Z" fill="#013399"/>
</g>
</g>
<defs>
<filter id="filter0_dd_5_7176" x="0" y="0" width="42" height="30" filterUnits="userSpaceOnUse" color-interpolation-filters="sRGB">
<feFlood flood-opacity="0" result="BackgroundImageFix"/>
<feColorMatrix in="SourceAlpha" type="matrix" values="0 0 0 0 0 0 0 0 0 0 0 0 0 0 0 0 0 0 127 0" result="hardAlpha"/>
<feOffset dy="1"/>
<feGaussianBlur stdDeviation="1"/>
<feColorMatrix type="matrix" values="0 0 0 0 0.0627451 0 0 0 0 0.0941176 0 0 0 0 0.156863 0 0 0 0.06 0"/>
<feBlend mode="normal" in2="BackgroundImageFix" result="effect1_dropShadow_5_7176"/>
<feColorMatrix in="SourceAlpha" type="matrix" values="0 0 0 0 0 0 0 0 0 0 0 0 0 0 0 0 0 0 127 0" result="hardAlpha"/>
<feOffset dy="1"/>
<feGaussianBlur stdDeviation="1.5"/>
<feColorMatrix type="matrix" values="0 0 0 0 0.0627451 0 0 0 0 0.0941176 0 0 0 0 0.156863 0 0 0 0.1 0"/>
<feBlend mode="normal" in2="effect1_dropShadow_5_7176" result="effect2_dropShadow_5_7176"/>
<feBlend mode="normal" in="SourceGraphic" in2="effect2_dropShadow_5_7176" result="shape"/>
</filter>
</defs>
</svg>
