<svg width="42" height="30" viewBox="0 0 42 30" fill="none" xmlns="http://www.w3.org/2000/svg">
<g filter="url(#filter0_dd_5_8118)">
<mask id="mask0_5_8118" style="mask-type:alpha" maskUnits="userSpaceOnUse" x="3" y="2" width="36" height="24">
<rect x="3" y="2" width="36" height="24" fill="white"/>
</mask>
<g mask="url(#mask0_5_8118)">
<path fill-rule="evenodd" clip-rule="evenodd" d="M14.25 2H27.75V26H14.25V2Z" fill="#4C67E8"/>
<path fill-rule="evenodd" clip-rule="evenodd" d="M27.75 2H39V26H27.75V2Z" fill="#C51918"/>
<path fill-rule="evenodd" clip-rule="evenodd" d="M3 2H16.5V26H3V2Z" fill="#C51918"/>
<path fill-rule="evenodd" clip-rule="evenodd" d="M9.76567 8.88423C8.62566 8.88423 8.7753 7.89689 8.7753 7.89689L9.31581 6.85929V7.27725V7.89689C9.31581 8.03035 9.52068 7.76343 9.52068 7.44212C9.52068 7.12081 9.76567 6.63967 9.76567 6.63967C9.76567 6.63967 9.77551 6.47878 9.78228 6.31992C9.8215 6.40166 9.9001 6.47243 10.0194 6.57987C10.0402 6.5986 10.0623 6.61845 10.0856 6.63967C10.2264 6.76796 10.2074 7.10781 10.191 7.40186C10.1761 7.66816 10.1633 7.89689 10.2733 7.89689C10.5046 7.89689 10.4874 6.97812 10.4874 6.97812L10.8757 7.89689C10.8757 7.89689 10.9057 8.88423 9.76567 8.88423ZM9.76567 6.06455C9.79468 5.91379 9.79102 6.11518 9.78228 6.31992C9.74954 6.25168 9.74426 6.1758 9.76567 6.06455ZM11.4808 10.6838C11.4808 11.4865 10.7252 12.1372 9.79326 12.1372C8.86128 12.1372 8.10576 11.4865 8.10576 10.6838C8.10576 9.8811 8.86128 9.23039 9.79326 9.23039C10.7252 9.23039 11.4808 9.8811 11.4808 10.6838ZM7.24038 13.4043H5.25V21.9756H7.24038V13.4043ZM14.2499 13.4043H12.2596V21.9756H14.2499V13.4043ZM7.75955 13.4788L9.69987 14.5466L11.8867 13.4788H7.75955ZM9.69987 22L7.75955 20.9322H11.8867L9.69987 22ZM7.75955 14.8949H11.8269V15.5657H7.75955V14.8949ZM11.8269 19.8887H7.75955V20.5595H11.8269V19.8887ZM9.83647 19.516C10.9835 19.516 11.9134 18.7151 11.9134 17.7272C11.9134 16.7393 10.9835 15.9384 9.83647 15.9384C8.68942 15.9384 7.75955 16.7393 7.75955 17.7272C7.75955 18.7151 8.68942 19.516 9.83647 19.516ZM7.50357 11.2162C7.50357 11.2162 7.57349 13.0835 9.64407 13.0835C11.7146 13.0835 12.0488 11.2162 12.0488 11.2162C12.0488 11.2162 11.2474 12.3601 9.7762 12.3601C8.30502 12.3601 7.50357 11.2162 7.50357 11.2162Z" fill="#F8D000"/>
<path d="M10.1534 15.9724L10.2462 15.6049C10.7102 16.0561 10.9204 16.3094 10.8211 16.7228C10.7102 17.1844 10.1274 17.6984 9.45019 18.1219C9.04005 18.3785 8.78879 19.0708 8.99233 19.291L8.79824 19.6049C8.34463 19.1142 8.70718 18.1885 9.33314 17.7969C9.90794 17.4374 10.3094 17.0604 10.3794 16.7637C10.425 16.5705 10.51 16.3192 10.1534 15.9724Z" fill="#C51918"/>
<path fill-rule="evenodd" clip-rule="evenodd" d="M10.3125 19C10.6232 19 10.875 18.7761 10.875 18.5C10.875 18.2239 10.6232 18 10.3125 18C10.0018 18 9.75 18.2239 9.75 18.5C9.75 18.7761 10.0018 19 10.3125 19Z" fill="#C51918"/>
<path fill-rule="evenodd" clip-rule="evenodd" d="M9.04785 17.6506C9.35851 17.6506 9.61035 17.4268 9.61035 17.1506C9.61035 16.8745 9.35851 16.6506 9.04785 16.6506C8.73719 16.6506 8.48535 16.8745 8.48535 17.1506C8.48535 17.4268 8.73719 17.6506 9.04785 17.6506Z" fill="#C51918"/>
</g>
</g>
<defs>
<filter id="filter0_dd_5_8118" x="0" y="0" width="42" height="30" filterUnits="userSpaceOnUse" color-interpolation-filters="sRGB">
<feFlood flood-opacity="0" result="BackgroundImageFix"/>
<feColorMatrix in="SourceAlpha" type="matrix" values="0 0 0 0 0 0 0 0 0 0 0 0 0 0 0 0 0 0 127 0" result="hardAlpha"/>
<feOffset dy="1"/>
<feGaussianBlur stdDeviation="1"/>
<feColorMatrix type="matrix" values="0 0 0 0 0.0627451 0 0 0 0 0.0941176 0 0 0 0 0.156863 0 0 0 0.06 0"/>
<feBlend mode="normal" in2="BackgroundImageFix" result="effect1_dropShadow_5_8118"/>
<feColorMatrix in="SourceAlpha" type="matrix" values="0 0 0 0 0 0 0 0 0 0 0 0 0 0 0 0 0 0 127 0" result="hardAlpha"/>
<feOffset dy="1"/>
<feGaussianBlur stdDeviation="1.5"/>
<feColorMatrix type="matrix" values="0 0 0 0 0.0627451 0 0 0 0 0.0941176 0 0 0 0 0.156863 0 0 0 0.1 0"/>
<feBlend mode="normal" in2="effect1_dropShadow_5_8118" result="effect2_dropShadow_5_8118"/>
<feBlend mode="normal" in="SourceGraphic" in2="effect2_dropShadow_5_8118" result="shape"/>
</filter>
</defs>
</svg>
