<svg width="42" height="30" viewBox="0 0 42 30" fill="none" xmlns="http://www.w3.org/2000/svg">
<g filter="url(#filter0_dd_5_9471)">
<mask id="mask0_5_9471" style="mask-type:alpha" maskUnits="userSpaceOnUse" x="3" y="2" width="36" height="24">
<rect x="3" y="2" width="36" height="24" fill="white"/>
</mask>
<g mask="url(#mask0_5_9471)">
<path fill-rule="evenodd" clip-rule="evenodd" d="M27.75 2H39V26H27.75V2Z" fill="#58A5FF"/>
<path fill-rule="evenodd" clip-rule="evenodd" d="M3 2H16.5V26H3V2Z" fill="#58A5FF"/>
<path fill-rule="evenodd" clip-rule="evenodd" d="M14.25 2H27.75V26H14.25V2Z" fill="white"/>
<path fill-rule="evenodd" clip-rule="evenodd" d="M16.2395 17.7185L16.8264 18.4015L19.492 15.1896V14.621L16.2395 17.7185Z" fill="#6C301F"/>
<path d="M18.0798 14.1357L18.2747 13.8971C20.7989 15.5842 22.5873 16.8793 23.5873 17.9585L22.9629 18.4157C22.0125 17.3899 20.5572 15.7914 18.0798 14.1357Z" fill="#979797"/>
<path d="M22.1487 12.7256L21.8583 12.4753L23.4499 11.0162L23.7986 11.3173L25.451 9.94958L25.7266 10.2127L23.7927 11.8134L23.4584 11.5248L22.1487 12.7256Z" fill="#979797"/>
<path fill-rule="evenodd" clip-rule="evenodd" d="M17.069 10.4454C16.984 10.1171 16.8882 9.71161 16.8882 9.71161C16.6751 10.1438 16.608 10.5369 16.6936 10.8885C16.6029 10.9993 16.5209 11.1031 16.4475 11.1999C16.2183 10.9308 15.9323 10.4275 15.9323 10.4275C15.9422 10.5741 15.9377 10.7236 15.9333 10.8688C15.923 11.2099 15.9134 11.5271 16.0936 11.7257L16.0915 11.7297C16.0555 11.7955 16.0215 11.8612 15.9893 11.9267C15.7409 11.7066 15.3288 11.3097 15.3288 11.3097C15.361 11.7857 15.5092 12.1607 15.7785 12.4284C15.7297 12.5679 15.6895 12.7066 15.6577 12.8445C15.4494 12.653 15.2486 12.4638 15.2486 12.4638C15.278 12.8981 15.3598 13.1851 15.5721 13.4262C15.5678 13.4947 15.5656 13.563 15.5655 13.631C15.3455 13.4293 15.1218 13.2186 15.1218 13.2186C15.1529 13.6769 15.3539 13.9785 15.6186 14.2296C15.6449 14.3747 15.6808 14.5183 15.7261 14.6602L15.7503 14.7351C15.4509 14.6065 15.1237 14.4604 15.1237 14.4604C15.3191 14.8609 15.6043 15.0815 15.9288 15.2359C15.9982 15.4153 16.0714 15.5888 16.1481 15.7558C15.7968 15.6709 15.2723 15.5314 15.2723 15.5314C15.5834 15.95 15.965 16.1164 16.375 16.2121C16.4588 16.3677 16.5458 16.5163 16.6357 16.6575C16.3029 16.5745 15.9123 16.4706 15.9123 16.4706C16.2144 16.8772 16.583 17.0458 16.9796 17.1428C17.2412 17.4734 17.5214 17.745 17.8136 17.9484C17.4916 18.0784 17.0861 18.234 17.0861 18.234C17.544 18.355 17.9099 18.3086 18.244 18.1939C18.2571 18.1998 18.2702 18.2055 18.2833 18.2111C18.4275 18.2725 18.5889 18.3304 18.7711 18.3868C18.5069 18.4913 18.2554 18.5878 18.2554 18.5878C18.7028 18.706 19.0623 18.6645 19.3901 18.5556L19.4256 18.5642C19.5864 18.6032 19.75 18.6405 19.9656 18.6879C19.823 18.6566 20.3493 18.7719 20.4562 18.7961C20.7984 18.8735 20.9933 18.9279 21.0868 18.9747C21.0955 18.9791 21.1019 18.9827 21.106 18.985L21.106 18.985C21.1101 18.9873 21.1117 18.9882 21.1109 18.9871L21.3727 18.8181C21.3423 18.781 21.3001 18.7514 21.2457 18.7241C21.1173 18.6598 20.909 18.6017 20.536 18.5174C20.4299 18.4934 19.9201 18.3816 20.0356 18.407C19.8261 18.3609 19.6667 18.3245 19.5106 18.2867C19.4641 18.2755 19.4187 18.2643 19.3743 18.2531C19.4116 17.9472 19.3682 17.6303 19.1336 17.2771C19.1336 17.2771 19.0316 17.8287 18.9623 18.1409C18.7553 18.0795 18.5771 18.0173 18.4231 17.9517C18.3711 17.9296 18.3192 17.9048 18.2675 17.8776C18.2469 17.5656 18.1437 17.2552 17.8388 16.9385C17.8388 16.9385 17.8433 17.2892 17.8416 17.5931C17.629 17.4204 17.4223 17.2058 17.2255 16.9537L17.3635 17.0187C17.3787 16.6296 17.3113 16.2461 16.9326 15.8527C16.9326 15.8527 16.9375 16.2321 16.9351 16.5436C16.8122 16.3527 16.6943 16.1465 16.5826 15.9263C16.6863 15.6238 16.7114 15.2977 16.5447 14.9027C16.5447 14.9027 16.4457 15.1536 16.3418 15.4067C16.3113 15.3347 16.2815 15.2616 16.2524 15.1873C16.4645 14.8708 16.6007 14.5202 16.4995 14.0376C16.4995 14.0376 16.2584 14.419 16.0745 14.6955C16.062 14.6578 16.0496 14.6199 16.0374 14.5817C15.9988 14.4606 15.9675 14.3382 15.9438 14.2145C16.2461 13.9867 16.4906 13.703 16.5773 13.2396C16.5773 13.2396 16.173 13.5484 15.8912 13.753C15.8873 13.6501 15.8886 13.5464 15.8951 13.442C16.2207 13.2663 16.5011 13.0265 16.6703 12.6005C16.6703 12.6005 16.2715 12.8106 15.9602 12.9672C15.9823 12.8625 16.0096 12.7571 16.0423 12.6511L16.0427 12.6614C16.4294 12.4785 16.7693 12.2348 16.9632 11.7466C16.9632 11.7466 16.5625 11.9577 16.251 12.1144C16.2913 12.0284 16.3352 11.942 16.3825 11.8553C16.4388 11.7523 16.5188 11.6293 16.6222 11.4867C16.9674 11.3894 17.2888 11.2209 17.5621 10.8667C17.5621 10.8667 17.286 10.9355 16.9997 11.0036C17.1658 10.8027 17.3605 10.5778 17.5837 10.3294L17.3309 10.1499C17.2389 10.2523 17.1516 10.3508 17.069 10.4454Z" fill="#5AB92D"/>
<path fill-rule="evenodd" clip-rule="evenodd" d="M25.088 10.4454C25.1729 10.1171 25.2688 9.71161 25.2688 9.71161C25.4819 10.1438 25.549 10.5369 25.4634 10.8885C25.554 10.9993 25.6361 11.1031 25.7095 11.1999C25.9387 10.9308 26.2247 10.4275 26.2247 10.4275C26.2147 10.5741 26.2193 10.7236 26.2237 10.8688C26.234 11.2099 26.2435 11.5271 26.0633 11.7257L26.0655 11.7297C26.1015 11.7955 26.1355 11.8612 26.1677 11.9267C26.4161 11.7066 26.8282 11.3097 26.8282 11.3097C26.796 11.7857 26.6478 12.1607 26.3785 12.4284C26.4272 12.5679 26.4675 12.7066 26.4993 12.8445C26.7076 12.653 26.9084 12.4638 26.9084 12.4638C26.879 12.8981 26.7972 13.1851 26.5849 13.4262C26.5892 13.4947 26.5914 13.563 26.5915 13.631C26.8115 13.4293 27.0352 13.2186 27.0352 13.2186C27.0041 13.6769 26.8031 13.9785 26.5383 14.2296C26.5121 14.3747 26.4762 14.5183 26.4308 14.6602L26.4066 14.7351C26.706 14.6065 27.0333 14.4604 27.0333 14.4604C26.8379 14.8609 26.5526 15.0815 26.2282 15.2359C26.1588 15.4153 26.0856 15.5888 26.0089 15.7558C26.3602 15.6709 26.8847 15.5314 26.8847 15.5314C26.5736 15.95 26.192 16.1164 25.782 16.2121C25.6982 16.3677 25.6112 16.5163 25.5213 16.6575C25.8541 16.5745 26.2447 16.4706 26.2447 16.4706C25.9426 16.8772 25.574 17.0458 25.1774 17.1428C24.9158 17.4734 24.6356 17.745 24.3434 17.9484C24.6654 18.0784 25.0709 18.234 25.0709 18.234C24.613 18.355 24.247 18.3086 23.913 18.1939C23.8999 18.1998 23.8868 18.2055 23.8737 18.2111C23.7295 18.2725 23.5681 18.3304 23.3859 18.3868C23.6501 18.4913 23.9016 18.5878 23.9016 18.5878C23.4542 18.706 23.0947 18.6645 22.7669 18.5556L22.7314 18.5642C22.5706 18.6032 22.407 18.6405 22.1914 18.6879C22.334 18.6566 21.8077 18.7719 21.7008 18.7961C21.3586 18.8735 21.1637 18.9279 21.0701 18.9747C21.0615 18.9791 21.0551 18.9827 21.051 18.985L21.051 18.985C21.0469 18.9873 21.0452 18.9882 21.0461 18.9871L20.7843 18.8181C20.8147 18.781 20.8568 18.7514 20.9113 18.7241C21.0397 18.6598 21.248 18.6017 21.621 18.5174C21.7271 18.4934 22.2369 18.3816 22.1214 18.407C22.3309 18.3609 22.4903 18.3245 22.6463 18.2867C22.6928 18.2755 22.7383 18.2643 22.7827 18.2531C22.7453 17.9472 22.7888 17.6303 23.0233 17.2771C23.0233 17.2771 23.1254 17.8287 23.1947 18.1409C23.4017 18.0795 23.5799 18.0173 23.7339 17.9517C23.7859 17.9296 23.8378 17.9048 23.8894 17.8776C23.9101 17.5656 24.0133 17.2552 24.3182 16.9385C24.3182 16.9385 24.3136 17.2892 24.3154 17.5931C24.528 17.4204 24.7347 17.2058 24.9315 16.9537L24.7934 17.0187C24.7783 16.6296 24.8457 16.2461 25.2244 15.8527C25.2244 15.8527 25.2195 16.2321 25.2218 16.5436C25.3448 16.3527 25.4627 16.1465 25.5744 15.9263C25.4706 15.6238 25.4456 15.2977 25.6122 14.9027C25.6122 14.9027 25.7113 15.1536 25.8152 15.4067C25.8456 15.3347 25.8755 15.2616 25.9046 15.1873C25.6925 14.8708 25.5563 14.5202 25.6575 14.0376C25.6575 14.0376 25.8986 14.419 26.0825 14.6955C26.095 14.6578 26.1074 14.6199 26.1196 14.5817C26.1582 14.4606 26.1895 14.3382 26.2132 14.2145C25.9109 13.9867 25.6664 13.703 25.5797 13.2396C25.5797 13.2396 25.984 13.5484 26.2658 13.753C26.2697 13.6501 26.2684 13.5464 26.2619 13.442C25.9363 13.2663 25.6559 13.0265 25.4867 12.6005C25.4867 12.6005 25.8855 12.8106 26.1968 12.9672C26.1747 12.8625 26.1473 12.7571 26.1147 12.6511L26.1143 12.6614C25.7276 12.4785 25.3877 12.2348 25.1938 11.7466C25.1938 11.7466 25.5945 11.9577 25.906 12.1144C25.8656 12.0284 25.8218 11.942 25.7744 11.8553C25.7181 11.7523 25.6382 11.6293 25.5348 11.4867C25.1895 11.3894 24.8682 11.2209 24.5949 10.8667C24.5949 10.8667 24.8709 10.9355 25.1572 11.0036C24.9912 10.8027 24.7965 10.5778 24.5733 10.3294L24.8261 10.1499C24.9181 10.2523 25.0054 10.3508 25.088 10.4454Z" fill="#5AB92D"/>
<path fill-rule="evenodd" clip-rule="evenodd" d="M18.0945 11.323L19.4525 14.5222H18.4543C18.4543 14.5222 18.0945 15.5318 18.7735 15.5318C19.4525 15.5318 22.9518 15.5318 22.9518 15.5318C22.9518 15.5318 23.4067 15.2787 23.1792 14.5222C22.9518 13.7657 21.8025 11.6775 21.8025 11.6775C21.8025 11.6775 22.2936 11.3309 22.2936 11.074C22.2936 10.8171 21.8025 10.7888 21.8025 10.7888H18.7025C18.3068 10.8458 18.0945 11.323 18.0945 11.323Z" fill="#EFE298"/>
<path d="M19.2495 12.5007L21.3588 12.3843L19.2495 12.5007Z" fill="#C5A042"/>
<path d="M19.2495 12.5007L21.3588 12.3843" stroke="#B47D00" stroke-width="0.5"/>
<path d="M19.7628 13.5211L21.8721 13.4046L19.7628 13.5211Z" fill="#C5A042"/>
<path d="M19.7628 13.5211L21.8721 13.4046" stroke="#B47D00" stroke-width="0.5"/>
<path d="M20.1637 14.5414L22.273 14.425L20.1637 14.5414Z" fill="#C5A042"/>
<path d="M20.1637 14.5414L22.273 14.425" stroke="#B47D00" stroke-width="0.5"/>
<path fill-rule="evenodd" clip-rule="evenodd" d="M20.8655 9.58765C20.8655 9.58765 20.5407 9.6463 20.5407 9.82871C20.5407 10.0111 20.4529 10.1667 20.4529 10.1667C20.4529 10.1667 20.552 10.9986 21.2927 11.1917C22.0333 11.3847 22.4675 11.4311 22.7792 11.8184C23.091 12.2056 24.0475 13.299 23.6639 14.2419C23.2803 15.1848 22.9792 15.666 22.9792 15.666C22.9792 15.666 24.3783 14.4946 24.3783 13.9392C24.3783 13.3838 24.1715 12.8457 23.5517 12.1405C22.9319 11.4353 22.6435 11.0231 22.1818 10.7053C21.72 10.3876 21.0584 10.0944 21.0584 10.0944C21.0584 10.0944 21.2938 9.87059 21.1761 9.76535C21.0584 9.66011 20.8655 9.58765 20.8655 9.58765Z" fill="#5AB92D"/>
</g>
</g>
<defs>
<filter id="filter0_dd_5_9471" x="0" y="0" width="42" height="30" filterUnits="userSpaceOnUse" color-interpolation-filters="sRGB">
<feFlood flood-opacity="0" result="BackgroundImageFix"/>
<feColorMatrix in="SourceAlpha" type="matrix" values="0 0 0 0 0 0 0 0 0 0 0 0 0 0 0 0 0 0 127 0" result="hardAlpha"/>
<feOffset dy="1"/>
<feGaussianBlur stdDeviation="1"/>
<feColorMatrix type="matrix" values="0 0 0 0 0.0627451 0 0 0 0 0.0941176 0 0 0 0 0.156863 0 0 0 0.06 0"/>
<feBlend mode="normal" in2="BackgroundImageFix" result="effect1_dropShadow_5_9471"/>
<feColorMatrix in="SourceAlpha" type="matrix" values="0 0 0 0 0 0 0 0 0 0 0 0 0 0 0 0 0 0 127 0" result="hardAlpha"/>
<feOffset dy="1"/>
<feGaussianBlur stdDeviation="1.5"/>
<feColorMatrix type="matrix" values="0 0 0 0 0.0627451 0 0 0 0 0.0941176 0 0 0 0 0.156863 0 0 0 0.1 0"/>
<feBlend mode="normal" in2="effect1_dropShadow_5_9471" result="effect2_dropShadow_5_9471"/>
<feBlend mode="normal" in="SourceGraphic" in2="effect2_dropShadow_5_9471" result="shape"/>
</filter>
</defs>
</svg>
