<svg width="42" height="30" viewBox="0 0 42 30" fill="none" xmlns="http://www.w3.org/2000/svg">
<g filter="url(#filter0_dd_5_11066)">
<mask id="mask0_5_11066" style="mask-type:alpha" maskUnits="userSpaceOnUse" x="3" y="2" width="36" height="24">
<rect x="3" y="2" width="36" height="24" fill="white"/>
</mask>
<g mask="url(#mask0_5_11066)">
<path fill-rule="evenodd" clip-rule="evenodd" d="M3 2V26H39V2H3Z" fill="#FECA00"/>
<mask id="mask1_5_11066" style="mask-type:alpha" maskUnits="userSpaceOnUse" x="3" y="2" width="36" height="24">
<path fill-rule="evenodd" clip-rule="evenodd" d="M3 2V26H39V2H3Z" fill="white"/>
</mask>
<g mask="url(#mask1_5_11066)">
<path fill-rule="evenodd" clip-rule="evenodd" d="M3 2V10H39V2H3Z" fill="#DB501C"/>
<path fill-rule="evenodd" clip-rule="evenodd" d="M3 18V26H39V18H3Z" fill="#5EAA22"/>
<path d="M17.0018 11.9591L17.0427 11.9238L25.1648 18.8686L25.1239 18.9038L17.0018 11.9591Z" fill="#864C26"/>
<path d="M25.749 18.4173L25.7139 18.4569L16.2649 12.2874L16.3 12.2478L25.749 18.4173Z" fill="#864C26"/>
<path d="M25.9481 17.8017L25.9196 17.845L15.4088 12.7595L15.4373 12.7161L25.9481 17.8017Z" fill="#A05A2C"/>
<path fill-rule="evenodd" clip-rule="evenodd" d="M16.052 11.1122L16.848 11.5803L16.8035 11.6073C16.8217 11.6166 16.8404 11.6265 16.8597 11.6371C16.8821 11.6495 16.8978 11.6643 16.907 11.6814C16.9232 11.6392 16.9228 11.5878 16.9056 11.5266L16.8637 11.3776L16.9581 11.5082C17.1081 11.7158 17.1304 11.8644 17.0138 11.9484C16.8998 12.0305 16.7205 12.0091 16.4782 11.8907L16.3798 11.8427L16.4921 11.8442C16.5843 11.8454 16.6634 11.8357 16.7296 11.8153L16.6837 11.8044C16.6448 11.7952 16.616 11.7709 16.5964 11.733L16.5184 11.7803L16.052 11.1122ZM15.0975 11.6413L15.9728 11.9794L15.9332 12.0137C15.9537 12.0203 15.9749 12.0274 15.9969 12.0352C16.0213 12.0439 16.0397 12.0562 16.0522 12.0716C16.0597 12.0275 16.0492 11.9771 16.0204 11.9196L15.9501 11.7793L16.0686 11.8934C16.2568 12.0747 16.3079 12.2175 16.2094 12.3183C16.1132 12.4167 15.9324 12.4233 15.6707 12.3442L15.5643 12.312L15.6752 12.2962C15.7666 12.2831 15.8428 12.2613 15.9041 12.2309L15.8562 12.2271C15.8154 12.224 15.7819 12.2039 15.7549 12.1685L15.6872 12.2272L15.0975 11.6413ZM15.1551 12.4531L14.25 12.1841L14.895 12.7221L14.9565 12.6585C14.987 12.6922 15.0226 12.7099 15.0639 12.7099H15.112C15.0539 12.745 14.9801 12.7727 14.8903 12.7928L14.7813 12.8171L14.8904 12.8409C15.1589 12.8995 15.3383 12.8789 15.4245 12.7734C15.5127 12.6654 15.4479 12.5271 15.2426 12.3611L15.1134 12.2566L15.1972 12.3909C15.2315 12.4459 15.2468 12.4952 15.2437 12.5396C15.2298 12.5252 15.2104 12.5145 15.1852 12.5078C15.1621 12.5016 15.1399 12.496 15.1185 12.491L15.1551 12.4531ZM15.0562 12.4776L15.0572 12.4766L14.4773 12.3043L14.8905 12.6489L14.9245 12.6138C14.9184 12.6033 14.9125 12.5921 14.907 12.58L14.9108 12.5787L14.8832 12.5523L14.9941 12.4669L15.0081 12.4691C15.0235 12.4715 15.0396 12.4743 15.0562 12.4776Z" fill="#E7E7E7"/>
<path fill-rule="evenodd" clip-rule="evenodd" d="M18.1553 18.2132L19.0943 16.7244L20.4116 17.0397L19.4636 18.3985H19.0943V18.5467L18.1553 18.2132Z" fill="#925229"/>
<path fill-rule="evenodd" clip-rule="evenodd" d="M17.7527 12.4886L17.1312 13.0628L16.905 16.857L19.1447 17.1472C19.1447 17.1472 18.1687 16.3855 18.0249 15.9155C17.881 15.4454 17.8351 13.6906 18.1073 13.4238L18.3198 13.5341L18.4909 13.0826" fill="#FFE000"/>
<path fill-rule="evenodd" clip-rule="evenodd" d="M15.5879 12.7474C15.5879 12.7474 15.3472 15.71 15.3472 16.2304C15.3472 16.7507 15.8441 17.9897 16.977 17.9897C18.1099 17.9897 19.6644 17.4353 19.6644 17.2092C19.6644 16.9831 19.2003 16.8212 19.2003 16.8212C19.2003 16.8212 17.1169 16.9478 17.1169 16.2304C17.1169 15.5129 17.2584 13.3892 17.3821 13.1388C17.5058 12.8884 17.9345 12.5108 17.9345 12.5108L17.1169 11.9707L16.977 12.5108L16.4528 12.3522L16.2928 13.1388L15.5879 12.7474Z" fill="#D52C1E"/>
<path fill-rule="evenodd" clip-rule="evenodd" d="M18.4985 13.0761L18.3479 13.4951L18.0436 13.381C18.0436 13.381 17.5887 15.2772 18.0436 16.0715C18.4985 16.8659 19.6442 16.9235 19.6442 16.9235L19.1602 13.4951L18.4985 13.0761Z" fill="#027934"/>
<path fill-rule="evenodd" clip-rule="evenodd" d="M18.4317 15.6382L17.3399 16.4057C17.3399 16.4057 17.0405 16.7872 17.3399 17.076C17.6393 17.3648 18.4695 17.6593 18.6654 17.3107C18.8613 16.962 19.4431 16.5537 19.4431 16.5537L18.4317 15.6382Z" fill="#E8A30C"/>
<path fill-rule="evenodd" clip-rule="evenodd" d="M19.2885 12.7425C19.5542 12.5372 19.6873 12.2868 19.5859 12.1831C19.4845 12.0794 19.187 12.1618 18.9213 12.367C18.6557 12.5723 18.5225 12.8228 18.6239 12.9264C18.7253 13.0301 19.0229 12.9478 19.2885 12.7425Z" fill="#E1E5E8"/>
<path fill-rule="evenodd" clip-rule="evenodd" d="M18.6188 11.3033C18.6188 11.3033 18.5118 11.2838 18.4634 11.2773C18.1181 11.2308 17.9454 11.2934 17.9454 11.4651C17.9454 11.7588 18.1656 12.0759 18.1656 12.2977C18.1656 12.5195 18.1762 12.8648 18.2821 12.6922C18.388 12.5195 18.9264 12.0007 18.9264 12.0007L18.6188 11.5506C18.6188 11.5506 19.3824 11.6269 19.0471 11.4651" fill="#D52C1E"/>
<path fill-rule="evenodd" clip-rule="evenodd" d="M20.9662 17.3782L20.3935 17.3731C19.9682 17.7468 19.9291 18.2497 20.2639 18.857C20.2639 18.857 20.3737 18.9982 20.4122 18.985C20.4661 18.9665 20.5409 18.762 20.5409 18.762C20.5154 18.169 20.9407 17.7762 20.9662 17.3782Z" fill="#D52C1E"/>
<path fill-rule="evenodd" clip-rule="evenodd" d="M20.2409 17.3936L20.4468 17.3085C20.6498 17.6833 20.5481 18.0714 20.1565 18.4569L19.9861 18.3248C20.1565 17.8827 20.1565 17.6995 20.2409 17.3936Z" fill="#FFE000"/>
<path d="M19.9778 17.3816L20.1927 17.3257C20.296 17.6396 20.2444 17.9634 20.0415 18.292L19.8452 18.1963C20.0207 17.9122 20.0636 17.6424 19.9778 17.3816Z" fill="#027934"/>
<path d="M24.9982 11.9591L24.9573 11.9238L16.8352 18.8686L16.8761 18.9038L24.9982 11.9591Z" fill="#864C26"/>
<path d="M16.251 18.4173L16.2861 18.4569L25.7351 12.2874L25.7 12.2478L16.251 18.4173Z" fill="#864C26"/>
<path d="M16.0519 17.8017L16.0804 17.845L26.5912 12.7595L26.5627 12.7161L16.0519 17.8017Z" fill="#A05A2C"/>
<path fill-rule="evenodd" clip-rule="evenodd" d="M25.948 11.1122L25.152 11.5803L25.1965 11.6073C25.1783 11.6166 25.1596 11.6265 25.1403 11.6371C25.1179 11.6495 25.1022 11.6643 25.093 11.6814C25.0768 11.6392 25.0772 11.5878 25.0944 11.5266L25.1363 11.3776L25.0419 11.5082C24.8919 11.7158 24.8696 11.8644 24.9862 11.9484C25.1002 12.0305 25.2795 12.0091 25.5218 11.8907L25.6202 11.8427L25.5079 11.8442C25.4157 11.8454 25.3366 11.8357 25.2704 11.8153L25.3163 11.8044C25.3552 11.7952 25.384 11.7709 25.4036 11.733L25.4816 11.7803L25.948 11.1122ZM26.9025 11.6413L26.0272 11.9794L26.0668 12.0137C26.0463 12.0203 26.0251 12.0274 26.0031 12.0352C25.9787 12.0439 25.9603 12.0562 25.9478 12.0716C25.9403 12.0275 25.9508 11.9771 25.9796 11.9196L26.0499 11.7793L25.9314 11.8934C25.7432 12.0747 25.6921 12.2175 25.7906 12.3183C25.8868 12.4167 26.0676 12.4233 26.3293 12.3442L26.4357 12.312L26.3248 12.2962C26.2334 12.2831 26.1572 12.2613 26.0959 12.2309L26.1438 12.2271C26.1846 12.224 26.2181 12.2039 26.2451 12.1685L26.3128 12.2272L26.9025 11.6413ZM26.8449 12.4531L27.75 12.1841L27.105 12.7221L27.0435 12.6585C27.013 12.6922 26.9774 12.7099 26.9361 12.7099H26.888C26.9461 12.745 27.0199 12.7727 27.1097 12.7928L27.2187 12.8171L27.1096 12.8409C26.8411 12.8995 26.6617 12.8789 26.5755 12.7734C26.4873 12.6654 26.5521 12.5271 26.7574 12.3611L26.8866 12.2566L26.8028 12.3909C26.7685 12.4459 26.7532 12.4952 26.7563 12.5396C26.7702 12.5252 26.7896 12.5145 26.8148 12.5078C26.8379 12.5016 26.8601 12.496 26.8815 12.491L26.8449 12.4531ZM26.9438 12.4776L26.9428 12.4766L27.5227 12.3043L27.1095 12.6489L27.0755 12.6138C27.0816 12.6033 27.0875 12.5921 27.093 12.58L27.0892 12.5787L27.1168 12.5523L27.0059 12.4669L26.9919 12.4691C26.9765 12.4715 26.9604 12.4743 26.9438 12.4776Z" fill="#E7E7E7"/>
<path fill-rule="evenodd" clip-rule="evenodd" d="M23.8447 18.2132L22.9057 16.7244L21.5884 17.0397L22.5364 18.3985H22.9057V18.5467L23.8447 18.2132Z" fill="#925229"/>
<path fill-rule="evenodd" clip-rule="evenodd" d="M24.2473 12.4886L24.8688 13.0628L25.095 16.857L22.8553 17.1472C22.8553 17.1472 23.8313 16.3855 23.9751 15.9155C24.119 15.4454 24.1649 13.6906 23.8927 13.4238L23.6802 13.5341L23.5091 13.0826" fill="#FFE000"/>
<path fill-rule="evenodd" clip-rule="evenodd" d="M26.4121 12.7474C26.4121 12.7474 26.6528 15.71 26.6528 16.2304C26.6528 16.7507 26.1559 17.9897 25.023 17.9897C23.8901 17.9897 22.3356 17.4353 22.3356 17.2092C22.3356 16.9832 22.7997 16.8212 22.7997 16.8212C22.7997 16.8212 24.8831 16.9478 24.8831 16.2304C24.8831 15.5129 24.7416 13.3892 24.6179 13.1388C24.4942 12.8884 24.0655 12.5108 24.0655 12.5108L24.8831 11.9707L25.023 12.5108L25.5472 12.3522L25.7072 13.1388L26.4121 12.7474Z" fill="#D52C1E"/>
<path fill-rule="evenodd" clip-rule="evenodd" d="M23.5015 13.0762L23.6521 13.4952L23.9564 13.3811C23.9564 13.3811 24.4113 15.2773 23.9564 16.0716C23.5015 16.8659 22.3558 16.9236 22.3558 16.9236L22.8398 13.4952L23.5015 13.0762Z" fill="#027934"/>
<path fill-rule="evenodd" clip-rule="evenodd" d="M23.5683 15.6382L24.6601 16.4057C24.6601 16.4057 24.9595 16.7872 24.6601 17.076C24.3607 17.3648 23.5305 17.6593 23.3346 17.3107C23.1387 16.962 22.5569 16.5537 22.5569 16.5537L23.5683 15.6382Z" fill="#E8A30C"/>
<path fill-rule="evenodd" clip-rule="evenodd" d="M22.7115 12.7425C22.4458 12.5372 22.3127 12.2868 22.4141 12.1831C22.5155 12.0794 22.813 12.1618 23.0787 12.367C23.3443 12.5723 23.4775 12.8228 23.3761 12.9264C23.2747 13.0301 22.9771 12.9478 22.7115 12.7425Z" fill="#E1E5E8"/>
<path fill-rule="evenodd" clip-rule="evenodd" d="M21.0338 17.3782L21.6065 17.3731C22.0318 17.7468 22.0709 18.2497 21.7361 18.857C21.7361 18.857 21.6263 18.9982 21.5878 18.985C21.5339 18.9665 21.4591 18.762 21.4591 18.762C21.4846 18.169 21.0593 17.7762 21.0338 17.3782Z" fill="#D52C1E"/>
<path fill-rule="evenodd" clip-rule="evenodd" d="M21.7591 17.3936L21.5532 17.3085C21.3502 17.6833 21.4519 18.0714 21.8435 18.4569L22.0139 18.3248C21.8435 17.8827 21.8435 17.6995 21.7591 17.3936Z" fill="#FFE000"/>
<path d="M22.0222 17.3816L21.8073 17.3257C21.704 17.6396 21.7556 17.9634 21.9585 18.292L22.1548 18.1963C21.9793 17.9122 21.9364 17.6424 22.0222 17.3816Z" fill="#027934"/>
<path fill-rule="evenodd" clip-rule="evenodd" d="M18.2478 14.8209C18.2478 16.2601 19.4433 17.4577 20.971 17.4577C22.4986 17.4577 23.6942 16.2601 23.6942 14.8209C23.6942 13.3817 22.4986 12.1841 20.971 12.1841C19.4433 12.1841 18.2478 13.3817 18.2478 14.8209ZM23.0568 14.8209C23.0568 15.9749 22.1229 16.9104 20.971 16.9104C19.819 16.9104 18.8851 15.9749 18.8851 14.8209C18.8851 13.6668 19.819 12.7313 20.971 12.7313C22.1229 12.7313 23.0568 13.6668 23.0568 14.8209Z" fill="#00A6DE"/>
<path fill-rule="evenodd" clip-rule="evenodd" d="M20.971 16.9104C22.1229 16.9104 23.0568 15.9749 23.0568 14.8209C23.0568 13.6668 22.1229 12.7313 20.971 12.7313C19.819 12.7313 18.8851 13.6668 18.8851 14.8209C18.8851 15.9749 19.819 16.9104 20.971 16.9104Z" fill="#FFC036"/>
<mask id="mask2_5_11066" style="mask-type:alpha" maskUnits="userSpaceOnUse" x="18" y="12" width="6" height="5">
<path fill-rule="evenodd" clip-rule="evenodd" d="M20.971 16.9104C22.1229 16.9104 23.0568 15.9749 23.0568 14.8209C23.0568 13.6668 22.1229 12.7313 20.971 12.7313C19.819 12.7313 18.8851 13.6668 18.8851 14.8209C18.8851 15.9749 19.819 16.9104 20.971 16.9104Z" fill="white"/>
</mask>
<g mask="url(#mask2_5_11066)">
<path fill-rule="evenodd" clip-rule="evenodd" d="M20.971 14.4477L20.7003 14.9439L20.707 14.396L20.2124 14.7422L20.4954 14.251L19.8748 14.3786L20.3779 14.0416L19.7543 13.9253L20.3779 13.8091L19.8748 13.472L20.4954 13.5996L20.2124 13.1085L20.707 13.4547L20.7003 12.9067L20.971 13.4029L21.2418 12.9067L21.235 13.4547L21.7296 13.1085L21.4467 13.5996L22.0673 13.472L21.5641 13.8091L22.1877 13.9253L21.5641 14.0416L22.0673 14.3786L21.4467 14.251L21.7296 14.7422L21.235 14.396L21.2418 14.9439L20.971 14.4477Z" fill="#D52C1E"/>
<path fill-rule="evenodd" clip-rule="evenodd" d="M18.7962 14.9411C18.7962 14.9411 20.4274 13.9201 20.8281 13.9201C21.2288 13.9201 22.9383 14.9466 23.288 15.0863C23.6377 15.2259 23.288 17.9642 23.288 17.9642H18.661L18.7962 14.9411Z" fill="#027934"/>
</g>
<path fill-rule="evenodd" clip-rule="evenodd" d="M18.7842 13.7258L18.8848 13.7753C19.4344 12.9508 20.1337 12.5419 20.9867 12.5419C21.9417 12.5891 22.657 13.0525 23.1344 13.9384L23.2396 13.8966C22.745 12.9789 21.9934 12.492 20.99 12.4424C20.0886 12.4424 19.3531 12.8724 18.7842 13.7258ZM18.3792 15.3159L18.5665 15.204L18.7538 15.3159L18.6877 15.1284L18.8696 15.01L18.6414 15.006L18.5665 14.8209L18.4916 15.006L18.2634 15.01L18.4453 15.1284L18.3792 15.3159ZM18.7983 15.9503L18.611 16.0622L18.6771 15.8747L18.4952 15.7563L18.7234 15.7523L18.7983 15.5672L18.8732 15.7523L19.1014 15.7563L18.9195 15.8747L18.9856 16.0622L18.7983 15.9503ZM19.0745 16.6592L19.2618 16.5473L19.4491 16.6592L19.383 16.4716L19.5649 16.3533L19.3367 16.3493L19.2618 16.1642L19.1869 16.3493L18.9587 16.3533L19.1406 16.4716L19.0745 16.6592ZM19.9571 17.0448L19.7698 17.1567L19.8359 16.9692L19.654 16.8508L19.8822 16.8468L19.9571 16.6617L20.032 16.8468L20.2602 16.8508L20.0783 16.9692L20.1444 17.1567L19.9571 17.0448ZM20.7548 17.4055L20.9422 17.2935L21.1295 17.4055L21.0634 17.2179L21.2452 17.0995L21.0171 17.0955L20.9422 16.9105L20.8672 17.0955L20.6391 17.0995L20.8209 17.2179L20.7548 17.4055ZM23.3756 15.204L23.5629 15.3159L23.4969 15.1284L23.6787 15.01L23.4506 15.006L23.3756 14.8209L23.3007 15.006L23.0726 15.01L23.2544 15.1284L23.1883 15.3159L23.3756 15.204ZM23.3311 16.0622L23.1438 15.9503L22.9565 16.0622L23.0226 15.8747L22.8407 15.7563L23.0689 15.7523L23.1438 15.5672L23.2187 15.7523L23.4469 15.7563L23.2651 15.8747L23.3311 16.0622ZM22.6803 16.5473L22.8676 16.6592L22.8016 16.4716L22.9834 16.3533L22.7553 16.3493L22.6803 16.1642L22.6054 16.3493L22.3773 16.3533L22.5591 16.4716L22.493 16.6592L22.6803 16.5473ZM22.1723 17.1567L21.985 17.0448L21.7977 17.1567L21.8638 16.9692L21.682 16.8508L21.9101 16.8468L21.985 16.6617L22.06 16.8468L22.2881 16.8508L22.1063 16.9692L22.1723 17.1567Z" fill="#FFC036"/>
<path d="M19.5187 9.00702L19.7423 9.15164C19.1692 9.60873 19.0615 10.1184 19.1712 10.5563C19.2856 11.0125 19.7938 11.4992 20.7177 11.9989L20.378 12.462C19.323 11.8913 18.7154 11.3633 18.5578 10.7345C18.3956 10.0874 18.7937 9.58523 19.5187 9.00702Z" fill="#036A2D"/>
<path d="M22.5599 9.00702L22.3363 9.15164C22.9094 9.60873 23.0171 10.1184 22.9074 10.5563C22.7931 11.0125 22.2849 11.4992 21.3609 11.9989L21.7006 12.462C22.7556 11.8913 23.3632 11.3633 23.5208 10.7345C23.683 10.0874 23.2849 9.58523 22.5599 9.00702Z" fill="#036A2D"/>
<path fill-rule="evenodd" clip-rule="evenodd" d="M17.372 10.8615C17.372 10.8615 18.3501 10.2604 18.8142 10.2604C19.2783 10.2604 19.8978 10.1227 19.9949 10.439C20.092 10.7552 20.2756 10.6636 20.635 10.6636C20.9945 10.6636 21.7009 10.6636 21.7009 10.6636C21.7009 10.6636 21.4899 10.2604 21.8809 10.2604C22.2718 10.2604 23.9047 10.4658 24.3976 10.6636C24.8905 10.8615 24.9152 10.9785 24.9152 10.9785C24.9152 10.9785 24.4591 10.7446 23.9545 10.8615C23.4499 10.9785 22.5347 11.4936 22.1178 11.4936C21.7009 11.4936 21.3672 11.8917 21.3672 11.8917C21.3672 11.8917 21.3947 11.6876 21.0149 11.7897C20.635 11.8917 20.6439 12.3724 20.3194 12.2841C19.9949 12.1959 20.4129 11.4936 20.3194 11.4936C20.2259 11.4936 19.5633 11.2627 19.5633 11.2627C19.5633 11.2627 18.9204 10.7446 17.9657 10.8615C17.011 10.9785 17.372 10.8615 17.372 10.8615Z" fill="#452C24"/>
<path fill-rule="evenodd" clip-rule="evenodd" d="M20.8552 11.2886C21.0472 11.2886 21.2028 11.1661 21.2028 11.015C21.2028 10.8638 21.0472 10.7413 20.8552 10.7413C20.6632 10.7413 20.5076 10.8638 20.5076 11.015C20.5076 11.1661 20.6632 11.2886 20.8552 11.2886Z" fill="#E7E7E7"/>
<path fill-rule="evenodd" clip-rule="evenodd" d="M20.1042 11.0072C20.1042 11.0072 20.2166 10.8182 20.4395 10.8182C20.6623 10.8182 21.08 10.8182 21.08 10.9127C21.08 11.0072 21.1136 11.1306 20.7765 11.1306C20.4395 11.1306 20.6554 11.0072 20.4395 11.0072C20.2235 11.0072 20.1042 11.0072 20.1042 11.0072Z" fill="#E8A30C"/>
<path fill-rule="evenodd" clip-rule="evenodd" d="M24.0783 12.2834C24.2079 12.1628 24.2802 11.8704 24.2802 11.8704C24.2802 11.8704 23.7018 11.9527 23.5671 11.8704C23.4325 11.7881 23.3626 11.5469 23.3626 11.5469C23.3626 11.5469 22.8415 11.7586 23.0402 11.7586C23.239 11.7586 23.3626 11.9152 23.3626 11.9152L23.767 12.0476C23.767 12.0476 23.4985 12.2834 23.6328 12.2834C23.767 12.2834 23.9488 12.404 24.0783 12.2834Z" fill="#E1E5E8"/>
<path d="M23.0595 12.3838L22.9867 12.3065L23.4948 11.9529L23.5677 12.0303L23.0595 12.3838Z" fill="#925229"/>
</g>
</g>
</g>
<defs>
<filter id="filter0_dd_5_11066" x="0" y="0" width="42" height="30" filterUnits="userSpaceOnUse" color-interpolation-filters="sRGB">
<feFlood flood-opacity="0" result="BackgroundImageFix"/>
<feColorMatrix in="SourceAlpha" type="matrix" values="0 0 0 0 0 0 0 0 0 0 0 0 0 0 0 0 0 0 127 0" result="hardAlpha"/>
<feOffset dy="1"/>
<feGaussianBlur stdDeviation="1"/>
<feColorMatrix type="matrix" values="0 0 0 0 0.0627451 0 0 0 0 0.0941176 0 0 0 0 0.156863 0 0 0 0.06 0"/>
<feBlend mode="normal" in2="BackgroundImageFix" result="effect1_dropShadow_5_11066"/>
<feColorMatrix in="SourceAlpha" type="matrix" values="0 0 0 0 0 0 0 0 0 0 0 0 0 0 0 0 0 0 127 0" result="hardAlpha"/>
<feOffset dy="1"/>
<feGaussianBlur stdDeviation="1.5"/>
<feColorMatrix type="matrix" values="0 0 0 0 0.0627451 0 0 0 0 0.0941176 0 0 0 0 0.156863 0 0 0 0.1 0"/>
<feBlend mode="normal" in2="effect1_dropShadow_5_11066" result="effect2_dropShadow_5_11066"/>
<feBlend mode="normal" in="SourceGraphic" in2="effect2_dropShadow_5_11066" result="shape"/>
</filter>
</defs>
</svg>
