<svg width="42" height="30" viewBox="0 0 42 30" fill="none" xmlns="http://www.w3.org/2000/svg">
<g filter="url(#filter0_dd_5_7813)">
<mask id="mask0_5_7813" style="mask-type:alpha" maskUnits="userSpaceOnUse" x="3" y="2" width="36" height="24">
<rect x="3" y="2" width="36" height="24" fill="white"/>
</mask>
<g mask="url(#mask0_5_7813)">
<path fill-rule="evenodd" clip-rule="evenodd" d="M27.75 2H39V26H27.75V2Z" fill="#409100"/>
<path fill-rule="evenodd" clip-rule="evenodd" d="M3 2H14.25V26H3V2Z" fill="#409100"/>
<path fill-rule="evenodd" clip-rule="evenodd" d="M14.25 2H27.75V26H14.25V2Z" fill="white"/>
<path fill-rule="evenodd" clip-rule="evenodd" d="M17.2823 20.7705C15.5322 21.0236 14.9804 20.2643 14.9804 20.2643L15.2008 20.1034C15.3488 19.9953 15.8474 20.0324 16.3317 20.0684C16.5685 20.0861 16.8018 20.1034 16.9891 20.1034C17.2622 20.1034 17.5765 20.0668 17.904 20.0286C18.2601 19.9871 18.6317 19.9438 18.9828 19.9438C19.6568 19.9438 16.9891 19.1604 16.4189 19.6409C15.8488 20.1214 14.25 19.4182 14.25 19.0172C14.25 18.7436 14.8386 18.8434 15.3755 18.9344C15.6254 18.9768 15.8642 19.0172 16.0271 19.0172C16.54 19.0172 15.5143 18.128 14.9804 18.128C14.4465 18.128 15.5143 17.9214 16.0271 17.9214C16.3191 17.9214 16.5905 17.9884 16.8242 18.0461C17.0009 18.0897 17.156 18.128 17.2823 18.128C17.5755 18.128 15.8098 17.4533 15.5143 17.4533H16.9891C17.4952 17.4533 17.6181 17.5168 17.7346 17.5768C17.8395 17.631 17.9392 17.6824 18.3088 17.6824C19.0889 17.6824 18.6617 17.3031 18.6617 17.3031C18.6617 17.3031 16.0271 17.06 15.5143 16.7242C15.1675 16.4971 16.0981 16.5771 16.9776 16.6527L16.9777 16.6527C17.3989 16.6889 17.8084 16.7242 18.0603 16.7242C18.8383 16.7242 16.4189 16.2305 16.0271 16.2305H17.8101C18.2004 16.2305 18.6289 16.3421 19.0785 16.4591L19.0785 16.4591C19.5746 16.5883 20.0964 16.7242 20.6209 16.7242C21.1739 16.7242 20.094 16.4309 18.9076 16.1089L18.9076 16.1088C17.9489 15.8486 16.9208 15.5694 16.6286 15.4109C16.3264 15.2468 16.5563 15.3104 16.9751 15.4261C17.4619 15.5606 18.2039 15.7656 18.6617 15.7656C19.5134 15.7656 17.5287 15.023 16.9891 15.023C16.4494 15.023 15.9328 14.8071 16.4189 14.6075C16.7174 14.485 17.4949 14.6695 18.172 14.8303C18.5977 14.9313 18.9837 15.023 19.1862 15.023C19.4316 15.023 19.6131 15.1079 19.8062 15.1983C20.0258 15.3011 20.2603 15.4109 20.6209 15.4109C21.2987 15.4109 19.1862 14.6075 18.3088 14.6075C17.4314 14.6075 17.2823 14.2291 17.8101 14.2291C18.3379 14.2291 16.6286 13.5845 16.6286 13.5845C16.6286 13.5845 16.3809 13.1274 16.9891 13.1274H17.8101C18.0915 13.1274 17.5287 12.3345 16.9891 12.3345C16.4494 12.3345 16.92 12.0949 17.8101 12.0949C18.3513 12.0949 18.6679 12.261 19.0489 12.4608C19.2945 12.5895 19.5668 12.7323 19.9431 12.8537C20.9035 13.1634 20.1791 12.3345 19.9431 12.3345C19.7072 12.3345 17.2823 11.6588 17.2823 11.6588C17.2823 11.6588 17.5287 11.4099 17.2823 11.071C17.0963 10.8153 17.8702 10.9455 18.3414 11.0248C18.4947 11.0506 18.6159 11.071 18.6617 11.071C18.7733 11.071 19.0936 11.1418 19.487 11.2287L19.487 11.2287C19.7525 11.2874 20.0513 11.3534 20.3416 11.4099C21.0621 11.5503 17.8942 10.3759 17.5287 10.3759C17.1632 10.3759 18.3088 10.1829 18.9828 10.1829C19.3142 10.1829 19.474 10.2295 19.6365 10.277C19.8045 10.326 19.9754 10.3759 20.3416 10.3759C21.0621 10.3759 18.9828 9.68942 18.3088 9.68942C17.6348 9.68942 18.0333 9.09835 18.3088 9.09835C18.4161 9.09835 18.6875 9.13006 19.0191 9.16879L19.0191 9.16879C19.5392 9.22954 20.207 9.30756 20.6209 9.30756C20.9361 9.30756 20.6481 9.22907 20.2292 9.11491L20.2292 9.11491C19.7471 8.98352 19.0916 8.80486 18.9828 8.64425C18.8627 8.46698 19.1071 8.4991 19.5333 8.55511L19.5333 8.55511C19.6104 8.56523 19.6933 8.57614 19.7811 8.58672C20.0717 8.72208 20.3145 8.80951 20.35 8.70628C20.3602 8.67658 20.3831 8.65536 20.4121 8.64009C20.4807 8.64276 20.5504 8.64425 20.6209 8.64425C21.0227 8.64425 20.837 8.58981 20.4503 8.5247L20.4157 8.5153C19.829 8.35586 18.5593 8.01499 19.0343 8.22534C19.1273 8.26653 19.2318 8.31737 19.3403 8.37105C19.0202 8.33333 18.7511 8.3072 18.6617 8.3072C18.3406 8.3072 18.0187 8.08668 18.6617 8.08668H19.9431C19.5446 8.08668 18.9828 8.08668 18.9828 7.8084C18.9828 7.61901 19.4276 7.68742 19.8374 7.75044C20.0298 7.78001 20.2144 7.8084 20.3416 7.8084C20.7401 7.8084 20.8393 7.8084 20.6209 7.64286C20.4136 7.48567 19.6986 7.48644 19.2546 7.48692L19.1862 7.48697C18.7512 7.48697 20.1084 7.28494 20.6209 7.28494C20.7071 7.28494 20.7451 7.28494 20.7452 7.2835C20.7452 7.28235 20.7216 7.28031 20.6792 7.27664C20.4562 7.25737 19.7153 7.19333 19.1862 6.98057C18.7128 6.79023 19.1275 6.83794 19.6704 6.90042C19.9957 6.93784 20.367 6.98057 20.6209 6.98057C21.2987 6.98057 20.3416 6.57539 19.6211 6.57539C19.0428 6.57539 19.3184 6.43497 19.676 6.25276C19.7639 6.20796 19.8568 6.16064 19.9431 6.11225C20.2031 5.96659 20.3934 6.21508 20.5051 6.36088C20.5814 6.4605 20.6209 6.51218 20.6209 6.35743C20.6209 6.20639 20.5771 6.11054 20.5415 6.06017C20.5605 6.07436 20.5865 6.09182 20.6209 6.11225C20.9003 6.2779 20.6209 5.67768 20.6209 5.67768C20.6209 5.67768 20.3416 5.51192 20.6209 5.51192C20.9003 5.51192 20.5311 5.22697 20.3416 5.22697C20.1522 5.22697 20.8393 4.95435 20.8393 4.95435L20.9907 3.80005C20.9907 3.80005 21.3652 5.05783 21.3652 5.22697V6.11225C21.3652 6.323 21.1976 6.47005 21.0854 6.56844C20.9448 6.69182 20.8914 6.73867 21.3652 6.73867C22.2168 6.73867 22.1805 6.98057 21.6622 6.98057C21.1438 6.98057 21.811 7.28494 22.7418 7.28494C23.6726 7.28494 21.9613 7.64286 21.3652 7.64286C20.7691 7.64286 21.9613 7.8084 22.7418 7.8084C23.2688 7.8084 22.7282 7.97033 22.2294 8.11974C21.9895 8.19159 21.7593 8.26055 21.6622 8.3072C21.5074 8.38153 21.8889 8.37894 22.2931 8.35913C22.0807 8.41477 21.8697 8.47179 21.7096 8.5153C21.5159 8.56795 21.4501 8.58583 21.4512 8.59304C21.4518 8.59674 21.4701 8.59763 21.4978 8.59897C21.5793 8.60291 21.7424 8.61079 21.7753 8.70628C21.8243 8.84879 22.2683 8.62795 22.6879 8.41927C22.7551 8.38585 22.8217 8.35273 22.8859 8.32147C22.9962 8.31317 23.0671 8.3072 23.0671 8.3072C23.0671 8.3072 23.4528 8.70282 23.4528 8.94441C23.4528 9.08532 22.9454 9.12684 22.4042 9.17113L22.3497 9.1756C22.3769 9.14381 22.2618 9.16045 22.0926 9.19762C21.812 9.2233 21.547 9.25508 21.3652 9.30756C21.1916 9.3577 21.2209 9.37863 21.362 9.38311L21.3237 9.39351L21.3237 9.39351C21.191 9.42955 21.1453 9.44197 21.1462 9.4491C21.1466 9.45285 21.1599 9.45514 21.1801 9.45862C21.2389 9.46875 21.3565 9.489 21.3894 9.58449C21.4384 9.72699 21.7349 9.54624 22.0151 9.37545L22.0415 9.35932C22.1293 9.35429 22.219 9.34889 22.3077 9.34355L22.3079 9.34354L22.308 9.34354L22.3081 9.34353C22.613 9.3252 22.9063 9.30756 23.0671 9.30756C23.5695 9.30756 22.5647 9.52285 22.1805 9.52285C22.0171 9.52285 22.2231 9.55576 22.5372 9.60596C22.9614 9.67373 23.5828 9.77301 23.7584 9.86535C23.9682 9.9757 23.3521 9.93451 22.8038 9.89786L22.8038 9.89785C22.5536 9.88113 22.3175 9.86535 22.1805 9.86535C21.7434 9.86535 21.6622 10.1829 21.9613 10.1829H23.0671C23.4854 10.1829 23.9208 10.7516 23.7584 10.7516C23.7092 10.7516 23.6038 10.781 23.4568 10.8218C23.1187 10.9158 22.5607 11.071 21.9613 11.071C21.1013 11.071 23.0671 11.0718 23.4528 11.071C23.8386 11.0702 24.939 11.0718 24.939 11.4099C24.939 11.6202 24.7307 11.6664 24.4577 11.727C24.2919 11.7638 24.1022 11.8058 23.9208 11.8932C23.441 12.1244 25.3558 12.3345 25.3558 12.3345C25.3558 12.3345 24.5979 12.544 24.2291 12.544C23.8603 12.544 24.4006 12.8537 25.3558 12.8537C26.0948 12.8537 25.8778 13.2106 25.7418 13.4345C25.7019 13.5 25.6691 13.5541 25.6691 13.5845C25.6691 13.6434 25.5292 13.6942 25.3269 13.7677C25.0668 13.8622 24.7034 13.9942 24.4006 14.2291C24.0523 14.4994 24.4755 14.4199 24.9537 14.3302L24.9537 14.3302C25.2146 14.2812 25.4918 14.2291 25.6691 14.2291C26.1711 14.2291 26.3849 14.2477 26.2215 14.4642C26.058 14.6806 24.5979 15.023 24.2291 15.023H26.2215C26.7739 15.023 26.0667 15.4109 25.3558 15.4109C24.879 15.4109 24.6122 15.5704 24.4364 15.6755C24.35 15.7271 24.2856 15.7656 24.2291 15.7656H25.6691C25.7424 15.7656 25.8231 15.6614 25.897 15.5659C25.9619 15.4819 26.0217 15.4046 26.0667 15.4109C26.7181 15.5018 26.4259 16.2305 26.0667 16.2305C25.6546 16.2305 24.4006 16.4762 24.5979 16.7242C24.6934 16.8442 24.8426 16.7899 25.0844 16.702C25.3423 16.6083 25.7055 16.4762 26.2215 16.4762C27.2213 16.4762 26.3176 16.7242 26.0667 16.7242C25.8158 16.7242 24.7544 16.9043 24.4006 17.06C24.1645 17.1639 24.9861 17.1291 25.8033 17.0944C26.2103 17.0772 26.6161 17.06 26.8897 17.06C27.7127 17.06 24.939 17.6824 23.9208 17.6824C22.9026 17.6824 24.5979 17.9214 24.939 17.9214C25.0699 17.9214 25.3237 17.9518 25.6367 17.9893L25.6367 17.9893H25.6367C26.1396 18.0495 26.7951 18.128 27.338 18.128C28.2188 18.128 26.4573 18.6437 25.6691 18.6437C25.6086 18.6437 25.549 18.6435 25.4906 18.6433H25.4903H25.49H25.4898H25.4896H25.4893H25.4891H25.4889C24.786 18.6407 24.2577 18.6388 24.5979 19.0172C24.7871 19.2277 25.4168 19.1704 26.0739 19.1106C26.6977 19.0538 27.3462 18.9948 27.6665 19.1604C28.2417 19.4579 25.6963 19.4322 24.5981 19.4211H24.5981H24.5981C24.4411 19.4195 24.3136 19.4182 24.2291 19.4182C23.5538 19.4182 24.9044 19.6409 26.0667 19.6409L26.2134 19.6408C27.252 19.6402 27.4982 19.6401 27.4982 19.9438C27.4982 20.2107 25.2357 20.1417 24.2915 20.1129C24.1123 20.1074 23.9806 20.1034 23.9208 20.1034C23.7399 20.1034 23.6351 20.2006 23.5267 20.3011C23.4104 20.4089 23.29 20.5205 23.0671 20.5205C22.8836 20.5205 22.7974 20.4161 22.7188 20.321C22.613 20.1928 22.5209 20.0813 22.2234 20.2643C21.705 20.5832 22.7418 23.8 22.7418 23.8H19.9431V20.7705C19.9431 20.7705 19.0324 20.5174 17.2823 20.7705ZM20.4975 6.01651C20.4937 6.01724 20.5045 6.03251 20.5415 6.06017C20.52 6.02962 20.5014 6.01579 20.4975 6.01651ZM19.5238 18.0237C19.0816 17.8757 20.2022 17.8681 20.7206 17.8681C20.8888 17.8681 20.9478 17.8681 20.9508 17.8811C20.9524 17.8882 20.9377 17.899 20.9149 17.9157C20.8502 17.9632 20.7206 18.0582 20.7206 18.2483C20.7206 18.5321 20.3004 18.3497 19.9034 18.1773L19.9034 18.1773L19.9034 18.1773C19.7684 18.1187 19.636 18.0613 19.5238 18.0237ZM20.44 16.8657C19.9216 16.8657 18.801 16.8733 19.2433 17.0213C19.3555 17.0588 19.4878 17.1163 19.6229 17.1749L19.6229 17.1749L19.6229 17.1749C20.0199 17.3472 20.44 17.5296 20.44 17.2459C20.44 17.0558 20.5696 16.9607 20.6344 16.9132C20.6571 16.8965 20.6719 16.8857 20.6703 16.8787C20.6672 16.8657 20.6082 16.8657 20.44 16.8657ZM19.5053 16.1956C19.1442 16.1179 20.0591 16.1139 20.4823 16.1139C20.6217 16.1139 20.6693 16.1139 20.6704 16.121C20.6709 16.1247 20.659 16.1303 20.641 16.1388C20.5881 16.1638 20.4823 16.2137 20.4823 16.3136C20.4823 16.4626 20.1393 16.3668 19.8152 16.2763C19.7049 16.2455 19.5969 16.2153 19.5053 16.1956ZM20.4157 13.0262C19.829 12.8668 18.5593 12.5259 19.0343 12.7363C19.1548 12.7896 19.2947 12.8592 19.4374 12.9302C19.857 13.1389 20.301 13.3597 20.35 13.2172C20.3829 13.1217 20.546 13.1138 20.6275 13.1099C20.6552 13.1086 20.6735 13.1077 20.6741 13.104C20.6752 13.0968 20.6095 13.0789 20.4157 13.0262ZM19.0343 11.7338C18.5593 11.5235 19.829 11.8643 20.4157 12.0238C20.6095 12.0764 20.6752 12.0943 20.6741 12.1015C20.6735 12.1052 20.6552 12.1061 20.6275 12.1075C20.546 12.1114 20.3829 12.1193 20.35 12.2148C20.301 12.3573 19.857 12.1364 19.4374 11.9278L19.4374 11.9277L19.4374 11.9277L19.4374 11.9277C19.2947 11.8568 19.1548 11.7872 19.0343 11.7338ZM20.4157 10.7708C19.829 10.6113 18.5593 10.2705 19.0343 10.4808C19.1548 10.5342 19.2947 10.6038 19.4374 10.6747C19.857 10.8834 20.301 11.1042 20.35 10.9617C20.3829 10.8663 20.546 10.8584 20.6275 10.8544C20.6552 10.8531 20.6735 10.8522 20.6741 10.8485C20.6752 10.8413 20.6095 10.8234 20.4157 10.7708ZM21.6853 17.6175C22.2037 17.6175 23.3243 17.6251 22.8821 17.7731C22.7698 17.8107 22.6375 17.8681 22.5024 17.9267C22.1054 18.0991 21.6853 18.2814 21.6853 17.9977C21.6853 17.8076 21.5557 17.7126 21.4909 17.665C21.4682 17.6484 21.4534 17.6375 21.4551 17.6305C21.4581 17.6175 21.5171 17.6175 21.6853 17.6175ZM22.8821 17.0213C23.3243 16.8733 22.2037 16.8657 21.6853 16.8657C21.5171 16.8657 21.4581 16.8657 21.4551 16.8787C21.4534 16.8857 21.4682 16.8965 21.4909 16.9132C21.5557 16.9607 21.6853 17.0558 21.6853 17.2459C21.6853 17.5296 22.1054 17.3472 22.5024 17.1749C22.6375 17.1163 22.7698 17.0588 22.8821 17.0213ZM21.643 15.6127C21.9957 15.6127 23.3446 15.3353 23.5756 15.2878L23.5756 15.2878L23.5757 15.2877C23.6218 15.2783 23.6233 15.278 23.5631 15.2909C23.444 15.3166 23.1943 15.4039 22.9132 15.5021L22.9132 15.5021L22.9131 15.5021C22.3427 15.7016 21.643 15.9462 21.643 15.8124C21.643 15.7125 21.5372 15.6626 21.4843 15.6376C21.4662 15.6291 21.4544 15.6235 21.4549 15.6198C21.456 15.6127 21.5036 15.6127 21.643 15.6127ZM23.091 12.235C23.566 12.0247 22.2963 12.3656 21.7096 12.525C21.5159 12.5777 21.4501 12.5955 21.4512 12.6027C21.4518 12.6065 21.4701 12.6073 21.4978 12.6087C21.5793 12.6126 21.7424 12.6205 21.7753 12.716C21.8243 12.8585 22.2683 12.6377 22.6879 12.429C22.8306 12.358 22.9705 12.2884 23.091 12.235ZM21.7096 13.5274C22.2963 13.368 23.566 13.0271 23.091 13.2375C22.9705 13.2908 22.8306 13.3604 22.6879 13.4314C22.2683 13.6401 21.8243 13.8609 21.7753 13.7184C21.7424 13.6229 21.5793 13.615 21.4978 13.6111C21.4701 13.6097 21.4518 13.6089 21.4512 13.6052C21.4501 13.5979 21.5159 13.5801 21.7096 13.5274ZM23.091 11.2326C23.566 11.0223 22.2963 11.3631 21.7096 11.5226C21.5159 11.5752 21.4501 11.5931 21.4512 11.6003C21.4518 11.604 21.4701 11.6049 21.4978 11.6062C21.5793 11.6102 21.7424 11.6181 21.7753 11.7135C21.8243 11.856 22.2683 11.6352 22.6879 11.4265C22.8306 11.3556 22.9705 11.286 23.091 11.2326ZM21.3237 10.6466C21.7284 10.5366 22.6046 10.3026 22.2849 10.4708C22.2038 10.5135 22.1104 10.5704 22.0151 10.6285L22.0151 10.6285L22.0151 10.6285C21.7349 10.7993 21.4384 10.98 21.3894 10.8375C21.3565 10.742 21.2389 10.7218 21.1801 10.7117C21.1599 10.7082 21.1466 10.7059 21.1462 10.7022C21.1453 10.695 21.191 10.6826 21.3237 10.6466L21.3237 10.6466ZM21.5819 14.4605C21.1171 14.4605 21.5819 14.134 21.5819 14.134H21.8212C21.9033 14.134 21.9767 14.104 22.073 14.0645C22.2573 13.9889 22.5257 13.8789 23.1007 13.8789C23.9764 13.8789 22.0466 14.4605 21.5819 14.4605Z" fill="#409100"/>
</g>
</g>
<defs>
<filter id="filter0_dd_5_7813" x="0" y="0" width="42" height="30" filterUnits="userSpaceOnUse" color-interpolation-filters="sRGB">
<feFlood flood-opacity="0" result="BackgroundImageFix"/>
<feColorMatrix in="SourceAlpha" type="matrix" values="0 0 0 0 0 0 0 0 0 0 0 0 0 0 0 0 0 0 127 0" result="hardAlpha"/>
<feOffset dy="1"/>
<feGaussianBlur stdDeviation="1"/>
<feColorMatrix type="matrix" values="0 0 0 0 0.0627451 0 0 0 0 0.0941176 0 0 0 0 0.156863 0 0 0 0.06 0"/>
<feBlend mode="normal" in2="BackgroundImageFix" result="effect1_dropShadow_5_7813"/>
<feColorMatrix in="SourceAlpha" type="matrix" values="0 0 0 0 0 0 0 0 0 0 0 0 0 0 0 0 0 0 127 0" result="hardAlpha"/>
<feOffset dy="1"/>
<feGaussianBlur stdDeviation="1.5"/>
<feColorMatrix type="matrix" values="0 0 0 0 0.0627451 0 0 0 0 0.0941176 0 0 0 0 0.156863 0 0 0 0.1 0"/>
<feBlend mode="normal" in2="effect1_dropShadow_5_7813" result="effect2_dropShadow_5_7813"/>
<feBlend mode="normal" in="SourceGraphic" in2="effect2_dropShadow_5_7813" result="shape"/>
</filter>
</defs>
</svg>
