<svg width="42" height="30" viewBox="0 0 42 30" fill="none" xmlns="http://www.w3.org/2000/svg">
<g filter="url(#filter0_dd_5_7655)">
<mask id="mask0_5_7655" style="mask-type:alpha" maskUnits="userSpaceOnUse" x="3" y="2" width="36" height="24">
<rect x="3" y="2" width="36" height="24" fill="white"/>
</mask>
<g mask="url(#mask0_5_7655)">
<path fill-rule="evenodd" clip-rule="evenodd" d="M3 2V26H39V2H3Z" fill="#F7FCFF"/>
<mask id="mask1_5_7655" style="mask-type:alpha" maskUnits="userSpaceOnUse" x="3" y="2" width="36" height="24">
<path fill-rule="evenodd" clip-rule="evenodd" d="M3 2V26H39V2H3Z" fill="white"/>
</mask>
<g mask="url(#mask1_5_7655)">
<path fill-rule="evenodd" clip-rule="evenodd" d="M21 2V14H39V2H21Z" fill="#E31D1C"/>
<path fill-rule="evenodd" clip-rule="evenodd" d="M28.8984 21.1497L26.3082 22.5744L27.3138 20.1827L25.1121 18.372H27.7826L28.8984 15.7849L29.7499 18.372H32.4246L30.497 20.1827L31.4407 22.5744L28.8984 21.1497Z" fill="#E31D1C"/>
<path fill-rule="evenodd" clip-rule="evenodd" d="M13.1484 10.3648L10.5582 11.7895L11.5638 9.39778L9.36206 7.5871H12.0326L13.1484 5L13.9999 7.5871H16.6746L14.747 9.39778L15.6907 11.7895L13.1484 10.3648Z" fill="#2E42A5"/>
<path fill-rule="evenodd" clip-rule="evenodd" d="M3 14V26H21V14H3Z" fill="#2E42A5"/>
</g>
</g>
</g>
<defs>
<filter id="filter0_dd_5_7655" x="0" y="0" width="42" height="30" filterUnits="userSpaceOnUse" color-interpolation-filters="sRGB">
<feFlood flood-opacity="0" result="BackgroundImageFix"/>
<feColorMatrix in="SourceAlpha" type="matrix" values="0 0 0 0 0 0 0 0 0 0 0 0 0 0 0 0 0 0 127 0" result="hardAlpha"/>
<feOffset dy="1"/>
<feGaussianBlur stdDeviation="1"/>
<feColorMatrix type="matrix" values="0 0 0 0 0.0627451 0 0 0 0 0.0941176 0 0 0 0 0.156863 0 0 0 0.06 0"/>
<feBlend mode="normal" in2="BackgroundImageFix" result="effect1_dropShadow_5_7655"/>
<feColorMatrix in="SourceAlpha" type="matrix" values="0 0 0 0 0 0 0 0 0 0 0 0 0 0 0 0 0 0 127 0" result="hardAlpha"/>
<feOffset dy="1"/>
<feGaussianBlur stdDeviation="1.5"/>
<feColorMatrix type="matrix" values="0 0 0 0 0.0627451 0 0 0 0 0.0941176 0 0 0 0 0.156863 0 0 0 0.1 0"/>
<feBlend mode="normal" in2="effect1_dropShadow_5_7655" result="effect2_dropShadow_5_7655"/>
<feBlend mode="normal" in="SourceGraphic" in2="effect2_dropShadow_5_7655" result="shape"/>
</filter>
</defs>
</svg>
