<svg width="42" height="30" viewBox="0 0 42 30" fill="none" xmlns="http://www.w3.org/2000/svg">
<g filter="url(#filter0_dd_5_9384)">
<mask id="mask0_5_9384" style="mask-type:alpha" maskUnits="userSpaceOnUse" x="3" y="2" width="36" height="24">
<rect x="3" y="2" width="36" height="24" fill="white"/>
</mask>
<g mask="url(#mask0_5_9384)">
<path fill-rule="evenodd" clip-rule="evenodd" d="M3 2V26H39V2H3Z" fill="#2E42A5"/>
<mask id="mask1_5_9384" style="mask-type:alpha" maskUnits="userSpaceOnUse" x="3" y="2" width="36" height="24">
<path fill-rule="evenodd" clip-rule="evenodd" d="M3 2V26H39V2H3Z" fill="white"/>
</mask>
<g mask="url(#mask1_5_9384)">
<rect x="3" y="2" width="20.25" height="14" fill="#2B409A"/>
<mask id="mask2_5_9384" style="mask-type:alpha" maskUnits="userSpaceOnUse" x="3" y="2" width="21" height="14">
<rect x="3" y="2" width="20.25" height="14" fill="white"/>
</mask>
<g mask="url(#mask2_5_9384)">
<path d="M0.745117 14.9998L5.20119 16.737L23.351 3.88872L25.7015 1.30719L20.9364 0.726566L13.5335 6.26326L7.57493 9.99369L0.745117 14.9998Z" fill="#F7FCFF"/>
<path d="M1.35498 16.2169L3.62514 17.225L24.8573 1.06732H21.6697L1.35498 16.2169Z" fill="#F50100"/>
<path d="M25.5049 14.9998L21.0488 16.737L2.89897 3.88872L0.548492 1.30719L5.31362 0.726566L12.7165 6.26326L18.6751 9.99369L25.5049 14.9998Z" fill="#F7FCFF"/>
<path d="M25.353 15.8733L23.0829 16.8815L14.042 9.96351L11.3616 9.19059L0.322517 1.31605H3.51009L14.5429 9.00368L17.4735 9.9305L25.353 15.8733Z" fill="#F50100"/>
<mask id="path-11-outside-1_5_9384" maskUnits="userSpaceOnUse" x="1" y="0" width="24" height="18" fill="black">
<rect fill="white" x="1" width="24" height="18"/>
<path fill-rule="evenodd" clip-rule="evenodd" d="M14.2326 2H11.9826V8H3V10H11.9826V16H14.2326V10H23.25V8H14.2326V2Z"/>
</mask>
<path fill-rule="evenodd" clip-rule="evenodd" d="M14.2326 2H11.9826V8H3V10H11.9826V16H14.2326V10H23.25V8H14.2326V2Z" fill="#F50100"/>
<path d="M11.9826 2V0.5H10.4826V2H11.9826ZM14.2326 2H15.7326V0.5H14.2326V2ZM11.9826 8V9.5H13.4826V8H11.9826ZM3 8V6.5H1.5V8H3ZM3 10H1.5V11.5H3V10ZM11.9826 10H13.4826V8.5H11.9826V10ZM11.9826 16H10.4826V17.5H11.9826V16ZM14.2326 16V17.5H15.7326V16H14.2326ZM14.2326 10V8.5H12.7326V10H14.2326ZM23.25 10V11.5H24.75V10H23.25ZM23.25 8H24.75V6.5H23.25V8ZM14.2326 8H12.7326V9.5H14.2326V8ZM11.9826 3.5H14.2326V0.5H11.9826V3.5ZM13.4826 8V2H10.4826V8H13.4826ZM3 9.5H11.9826V6.5H3V9.5ZM4.5 10V8H1.5V10H4.5ZM11.9826 8.5H3V11.5H11.9826V8.5ZM13.4826 16V10H10.4826V16H13.4826ZM14.2326 14.5H11.9826V17.5H14.2326V14.5ZM12.7326 10V16H15.7326V10H12.7326ZM23.25 8.5H14.2326V11.5H23.25V8.5ZM21.75 8V10H24.75V8H21.75ZM14.2326 9.5H23.25V6.5H14.2326V9.5ZM12.7326 2V8H15.7326V2H12.7326Z" fill="#F7FCFF" mask="url(#path-11-outside-1_5_9384)"/>
</g>
</g>
<path d="M13.75 22.5L12.4483 23.7029L12.5773 21.9352L10.8252 21.6676L12.2876 20.6662L11.4045 19.1295L13.0992 19.6485L13.75 18L14.4008 19.6485L16.0955 19.1295L15.2124 20.6662L16.6748 21.6676L14.9227 21.9352L15.0517 23.7029L13.75 22.5Z" fill="#F7FCFF"/>
<path d="M26.75 15L25.8822 15.8019L25.9682 14.6235L24.8001 14.445L25.7751 13.7775L25.1863 12.753L26.3161 13.099L26.75 12L27.1839 13.099L28.3137 12.753L27.7249 13.7775L28.6999 14.445L27.5318 14.6235L27.6178 15.8019L26.75 15Z" fill="#F7FCFF"/>
<path d="M28.75 7L27.8822 7.80194L27.9682 6.62349L26.8001 6.44504L27.7751 5.77748L27.1863 4.75302L28.3161 5.09903L28.75 4L29.1839 5.09903L30.3137 4.75302L29.7249 5.77748L30.6999 6.44504L29.5318 6.62349L29.6178 7.80194L28.75 7Z" fill="#F7FCFF"/>
<path d="M33.75 11L32.8822 11.8019L32.9682 10.6235L31.8001 10.445L32.7751 9.77748L32.1863 8.75302L33.3161 9.09903L33.75 8L34.1839 9.09903L35.3137 8.75302L34.7249 9.77748L35.6999 10.445L34.5318 10.6235L34.6178 11.8019L33.75 11Z" fill="#F7FCFF"/>
<path d="M29.75 24L28.8822 24.8019L28.9682 23.6235L27.8001 23.445L28.7751 22.7775L28.1863 21.753L29.3161 22.099L29.75 21L30.1839 22.099L31.3137 21.753L30.7249 22.7775L31.6999 23.445L30.5318 23.6235L30.6178 24.8019L29.75 24Z" fill="#F7FCFF"/>
<path d="M33.25 16.25L32.3683 16.7135L32.5367 15.7318L31.8234 15.0365L32.8092 14.8932L33.25 14L33.6908 14.8932L34.6766 15.0365L33.9633 15.7318L34.1317 16.7135L33.25 16.25Z" fill="#F7FCFF"/>
</g>
</g>
<defs>
<filter id="filter0_dd_5_9384" x="0" y="0" width="42" height="30" filterUnits="userSpaceOnUse" color-interpolation-filters="sRGB">
<feFlood flood-opacity="0" result="BackgroundImageFix"/>
<feColorMatrix in="SourceAlpha" type="matrix" values="0 0 0 0 0 0 0 0 0 0 0 0 0 0 0 0 0 0 127 0" result="hardAlpha"/>
<feOffset dy="1"/>
<feGaussianBlur stdDeviation="1"/>
<feColorMatrix type="matrix" values="0 0 0 0 0.0627451 0 0 0 0 0.0941176 0 0 0 0 0.156863 0 0 0 0.06 0"/>
<feBlend mode="normal" in2="BackgroundImageFix" result="effect1_dropShadow_5_9384"/>
<feColorMatrix in="SourceAlpha" type="matrix" values="0 0 0 0 0 0 0 0 0 0 0 0 0 0 0 0 0 0 127 0" result="hardAlpha"/>
<feOffset dy="1"/>
<feGaussianBlur stdDeviation="1.5"/>
<feColorMatrix type="matrix" values="0 0 0 0 0.0627451 0 0 0 0 0.0941176 0 0 0 0 0.156863 0 0 0 0.1 0"/>
<feBlend mode="normal" in2="effect1_dropShadow_5_9384" result="effect2_dropShadow_5_9384"/>
<feBlend mode="normal" in="SourceGraphic" in2="effect2_dropShadow_5_9384" result="shape"/>
</filter>
</defs>
</svg>
