<svg width="42" height="30" viewBox="0 0 42 30" fill="none" xmlns="http://www.w3.org/2000/svg">
<g filter="url(#filter0_dd_5_7665)">
<mask id="mask0_5_7665" style="mask-type:alpha" maskUnits="userSpaceOnUse" x="3" y="2" width="36" height="24">
<rect x="3" y="2" width="36" height="24" fill="white"/>
</mask>
<g mask="url(#mask0_5_7665)">
<path fill-rule="evenodd" clip-rule="evenodd" d="M3 2V26H39V2H3Z" fill="#F50101"/>
<mask id="mask1_5_7665" style="mask-type:alpha" maskUnits="userSpaceOnUse" x="3" y="2" width="36" height="24">
<path fill-rule="evenodd" clip-rule="evenodd" d="M3 2V26H39V2H3Z" fill="white"/>
</mask>
<g mask="url(#mask1_5_7665)">
<path fill-rule="evenodd" clip-rule="evenodd" d="M3 2V10H39V2H3Z" fill="#F7FCFF"/>
<path fill-rule="evenodd" clip-rule="evenodd" d="M3 18V26H39V18H3Z" fill="#5EAA22"/>
<rect x="3" y="2" width="13.5" height="24" fill="#F50101"/>
<path fill-rule="evenodd" clip-rule="evenodd" d="M15.1208 3.99698C15.1308 3.90802 15.0193 3.87098 14.9701 3.94574C14.5807 4.53702 13.5497 6.02582 11.8279 7.98617V7.06851C11.6672 6.9133 11.155 6.49572 11.155 6.49572V5.5794L12.0816 4.83401L10.8089 4.00006L9.46754 4.83401L10.4814 5.5794V6.49572C10.4814 6.93512 9.86675 7.06851 9.86675 7.06851L9.7542 7.87687C8.15145 6.0269 7.16593 4.59372 6.76898 3.98551C6.71856 3.90827 6.60309 3.94858 6.61809 4.03959C6.73644 4.75742 7.10475 6.41966 8.15452 8.19653H7.87792V8.7939H8.17657C8.27791 9.00159 8.51062 9.14796 8.78276 9.15221C8.97287 9.41293 9.17904 9.67294 9.40261 9.9297C8.88807 9.88447 5.48935 9.62731 5.48935 10.7265C5.48935 11.3826 6.31609 11.7298 7.35293 11.9093C6.31017 12.7487 5.32586 13.5385 4.87175 13.9027C4.80171 13.9589 4.85058 14.0658 4.93828 14.0466C5.73882 13.8711 7.87213 13.3214 9.90247 12.0902L9.96541 12.0903C10.5344 12.0903 10.9301 11.8709 11.2051 11.574C13.2681 13.0707 15.603 13.7588 16.6057 14.003C16.7009 14.0262 16.7476 13.9007 16.6642 13.8492C15.8437 13.3428 13.9967 12.1262 12.1081 10.3596L12.1577 10.308C12.5433 9.90359 12.8792 9.48758 13.172 9.07045C13.2945 9.00678 13.3921 8.90991 13.4487 8.7939H13.7474V8.19653H13.7253L13.7478 8.15676C13.7476 8.15915 13.7475 8.16157 13.7475 8.16401V9.4901C13.7475 9.53812 13.7864 9.57705 13.8344 9.57705H16.2285C16.2765 9.57705 16.3154 9.53812 16.3154 9.4901V8.16401C16.3154 8.11598 16.2765 8.07705 16.2285 8.07705H13.8344C13.8152 8.07705 13.7973 8.08333 13.7829 8.09396C14.7676 6.31993 15.0448 4.67679 15.1208 3.99698ZM5.30987 8.16401C5.30987 8.11598 5.3488 8.07705 5.39682 8.07705H7.79084C7.83887 8.07705 7.8778 8.11598 7.8778 8.16401V9.4901C7.8778 9.53812 7.83887 9.57705 7.79084 9.57705H5.39682C5.3488 9.57705 5.30987 9.53812 5.30987 9.4901V8.16401ZM9.34527 8.56092C9.34527 8.82816 9.0989 9.04479 8.795 9.04479C8.49109 9.04479 8.24473 8.82816 8.24473 8.56092C8.24473 8.29369 8.49109 8.07705 8.795 8.07705C9.0989 8.07705 9.34527 8.29369 9.34527 8.56092ZM12.28 8.56092C12.28 8.82816 12.5264 9.04479 12.8303 9.04479C13.1342 9.04479 13.3806 8.82816 13.3806 8.56092C13.3806 8.29369 13.1342 8.07705 12.8303 8.07705C12.5264 8.07705 12.28 8.29369 12.28 8.56092Z" fill="#F7FCFF"/>
</g>
</g>
</g>
<defs>
<filter id="filter0_dd_5_7665" x="0" y="0" width="42" height="30" filterUnits="userSpaceOnUse" color-interpolation-filters="sRGB">
<feFlood flood-opacity="0" result="BackgroundImageFix"/>
<feColorMatrix in="SourceAlpha" type="matrix" values="0 0 0 0 0 0 0 0 0 0 0 0 0 0 0 0 0 0 127 0" result="hardAlpha"/>
<feOffset dy="1"/>
<feGaussianBlur stdDeviation="1"/>
<feColorMatrix type="matrix" values="0 0 0 0 0.0627451 0 0 0 0 0.0941176 0 0 0 0 0.156863 0 0 0 0.06 0"/>
<feBlend mode="normal" in2="BackgroundImageFix" result="effect1_dropShadow_5_7665"/>
<feColorMatrix in="SourceAlpha" type="matrix" values="0 0 0 0 0 0 0 0 0 0 0 0 0 0 0 0 0 0 127 0" result="hardAlpha"/>
<feOffset dy="1"/>
<feGaussianBlur stdDeviation="1.5"/>
<feColorMatrix type="matrix" values="0 0 0 0 0.0627451 0 0 0 0 0.0941176 0 0 0 0 0.156863 0 0 0 0.1 0"/>
<feBlend mode="normal" in2="effect1_dropShadow_5_7665" result="effect2_dropShadow_5_7665"/>
<feBlend mode="normal" in="SourceGraphic" in2="effect2_dropShadow_5_7665" result="shape"/>
</filter>
</defs>
</svg>
