<svg width="42" height="30" viewBox="0 0 42 30" fill="none" xmlns="http://www.w3.org/2000/svg">
<g filter="url(#filter0_dd_5_5998)">
<mask id="mask0_5_5998" style="mask-type:alpha" maskUnits="userSpaceOnUse" x="3" y="2" width="36" height="24">
<rect x="3" y="2" width="36" height="24" fill="white"/>
</mask>
<g mask="url(#mask0_5_5998)">
<path fill-rule="evenodd" clip-rule="evenodd" d="M3 2V26H39V2H3Z" fill="#FECA00"/>
<mask id="mask1_5_5998" style="mask-type:alpha" maskUnits="userSpaceOnUse" x="3" y="2" width="36" height="24">
<path fill-rule="evenodd" clip-rule="evenodd" d="M3 2V26H39V2H3Z" fill="white"/>
</mask>
<g mask="url(#mask1_5_5998)">
<rect x="3" y="2" width="36" height="4" fill="#272727"/>
<rect x="3" y="10" width="36" height="4" fill="#D74800"/>
<rect x="3" y="14" width="36" height="4" fill="#272727"/>
<rect x="3" y="22" width="36" height="4" fill="#D74800"/>
<path fill-rule="evenodd" clip-rule="evenodd" d="M21 20C24.7279 20 27.75 17.3137 27.75 14C27.75 10.6863 24.7279 8 21 8C17.2721 8 14.25 10.6863 14.25 14C14.25 17.3137 17.2721 20 21 20Z" fill="#F7FCFF"/>
<path fill-rule="evenodd" clip-rule="evenodd" d="M18.3895 10.3286L17.1993 10.6758L18.3895 10.7664C18.3895 10.7664 18.582 11.1847 18.3895 11.5113C18.3407 11.5942 18.2147 11.7004 18.0538 11.836C17.5811 12.2345 16.8074 12.8867 16.8074 13.9462C16.8074 15.3663 19.8905 16.0102 19.8905 16.0102V16.6849C19.8905 16.6849 20.2484 16.8824 18.2067 16.8824C16.4362 16.8824 16.5469 17.4799 16.6075 17.8069C16.6168 17.857 16.6249 17.9008 16.6249 17.935C16.6249 18.1933 17.4759 17.6768 17.8743 17.1626C18.084 16.892 18.9621 16.9063 19.8634 16.9805C19.9345 16.9864 20.5916 18.2237 20.0212 18.8629C19.7815 19.1314 18.9539 19.1664 18.4368 19.1883C18.1731 19.1994 17.9902 19.2071 18.0072 19.2407C18.0199 19.2658 18.1758 19.2576 18.4025 19.2455C18.6854 19.2305 19.0784 19.2097 19.4407 19.2407C19.4957 19.2454 19.2825 19.4099 19.0669 19.5762C18.8449 19.7475 18.6204 19.9207 18.6836 19.9234C18.7547 19.9263 19.1705 19.7216 19.5482 19.5356C19.8607 19.3817 20.1472 19.2407 20.1909 19.2407C20.4759 19.2407 20.7333 19.2719 20.959 19.2994C21.3364 19.3452 21.6253 19.3803 21.8072 19.2407C21.8632 19.1977 21.5385 19.1285 21.2073 19.058C20.8662 18.9854 20.5183 18.9113 20.5731 18.8629C20.8867 18.5863 20.7557 18.0064 20.6525 17.5498C20.6062 17.3449 20.5655 17.1648 20.5731 17.048C20.5999 16.6332 21.0935 16.8508 21.4814 17.0218C21.6513 17.0967 21.8009 17.1626 21.8822 17.1626C22.6168 17.1626 21.7046 16.3367 21.204 15.8834C21.1601 15.8437 21.1194 15.8068 21.0832 15.7736C20.8286 15.5399 21.0072 15.5713 21.4109 15.6423C21.7189 15.6964 22.1581 15.7736 22.6357 15.7736C23.7393 15.7736 24.5448 15.4549 24.265 14.592C24.0804 14.0227 23.0696 13.829 22.0136 13.6266C21.469 13.5222 20.9123 13.4155 20.4507 13.2538C19.3151 12.8559 19.373 12.2758 19.422 11.7853C19.4315 11.6899 19.4407 11.5979 19.4407 11.5113C19.4407 10.9793 20.4507 10.3286 20.4507 10.3286C20.4507 10.3286 19.9898 9.64209 19.2254 9.64209C18.4609 9.64209 18.3895 10.3286 18.3895 10.3286ZM20.4688 16.5765V16.0747C20.4688 16.0747 20.9408 16.0609 21.1064 16.4139C21.2719 16.7668 20.4688 16.5765 20.4688 16.5765Z" fill="#272727"/>
<path fill-rule="evenodd" clip-rule="evenodd" d="M17.7115 8.71128L18.8518 9.91322L19.4423 9.78976L19.1591 8.57642L17.7115 8.71128Z" fill="#D74800"/>
<path fill-rule="evenodd" clip-rule="evenodd" d="M19.1919 8.42064L19.2654 10.2277L20.2391 10.0147L20.6537 8.83122L19.1919 8.42064Z" fill="#FFD018"/>
<path fill-rule="evenodd" clip-rule="evenodd" d="M18.2741 11.4389C18.4891 11.4389 18.6635 11.2878 18.6635 11.1014C18.6635 10.915 18.4891 10.7639 18.2741 10.7639C18.059 10.7639 17.8846 10.915 17.8846 11.1014C17.8846 11.2878 18.059 11.4389 18.2741 11.4389Z" fill="#D74800"/>
<path fill-rule="evenodd" clip-rule="evenodd" d="M20.7485 8.75926L19.6149 9.96614L19.8542 10.4616L21.1493 10.003L20.7485 8.75926Z" fill="#D74800"/>
<path fill-rule="evenodd" clip-rule="evenodd" d="M23.3835 17.8931C23.3835 17.8931 25.3775 17.1013 25.3775 15.994C25.3775 14.8867 22.1397 13.6805 22.1397 13.6805C22.1397 13.6805 20.2352 14.068 21.0936 14.5865C21.9521 15.105 23.1022 15.3042 23.1022 15.994C23.1022 16.6838 23.4173 17.3415 22.7785 17.3415C22.1397 17.3415 23.3835 17.8931 23.3835 17.8931Z" fill="#D74800"/>
<path fill-rule="evenodd" clip-rule="evenodd" d="M20.5068 13.4781C20.5068 13.4781 19.8015 13.5883 19.835 13.6901C19.9276 13.9716 20.8919 14.3382 21.3121 14.592C22.1706 15.1105 22.9845 15.0523 23.59 14.7148C24.1954 14.3774 20.5068 13.4781 20.5068 13.4781Z" fill="#FFFDFF"/>
</g>
</g>
</g>
<defs>
<filter id="filter0_dd_5_5998" x="0" y="0" width="42" height="30" filterUnits="userSpaceOnUse" color-interpolation-filters="sRGB">
<feFlood flood-opacity="0" result="BackgroundImageFix"/>
<feColorMatrix in="SourceAlpha" type="matrix" values="0 0 0 0 0 0 0 0 0 0 0 0 0 0 0 0 0 0 127 0" result="hardAlpha"/>
<feOffset dy="1"/>
<feGaussianBlur stdDeviation="1"/>
<feColorMatrix type="matrix" values="0 0 0 0 0.0627451 0 0 0 0 0.0941176 0 0 0 0 0.156863 0 0 0 0.06 0"/>
<feBlend mode="normal" in2="BackgroundImageFix" result="effect1_dropShadow_5_5998"/>
<feColorMatrix in="SourceAlpha" type="matrix" values="0 0 0 0 0 0 0 0 0 0 0 0 0 0 0 0 0 0 127 0" result="hardAlpha"/>
<feOffset dy="1"/>
<feGaussianBlur stdDeviation="1.5"/>
<feColorMatrix type="matrix" values="0 0 0 0 0.0627451 0 0 0 0 0.0941176 0 0 0 0 0.156863 0 0 0 0.1 0"/>
<feBlend mode="normal" in2="effect1_dropShadow_5_5998" result="effect2_dropShadow_5_5998"/>
<feBlend mode="normal" in="SourceGraphic" in2="effect2_dropShadow_5_5998" result="shape"/>
</filter>
</defs>
</svg>
