<svg width="42" height="30" viewBox="0 0 42 30" fill="none" xmlns="http://www.w3.org/2000/svg">
<g filter="url(#filter0_dd_5_10715)">
<mask id="mask0_5_10715" style="mask-type:alpha" maskUnits="userSpaceOnUse" x="3" y="2" width="36" height="24">
<rect x="3" y="2" width="36" height="24" fill="white"/>
</mask>
<g mask="url(#mask0_5_10715)">
<path fill-rule="evenodd" clip-rule="evenodd" d="M3 2V26H39V2H3Z" fill="#0168B4"/>
<mask id="mask1_5_10715" style="mask-type:alpha" maskUnits="userSpaceOnUse" x="3" y="2" width="36" height="24">
<path fill-rule="evenodd" clip-rule="evenodd" d="M3 2V26H39V2H3Z" fill="white"/>
</mask>
<g mask="url(#mask1_5_10715)">
<path fill-rule="evenodd" clip-rule="evenodd" d="M3 2V5H39V2H3Z" fill="#E93C43"/>
<path fill-rule="evenodd" clip-rule="evenodd" d="M3 23V26H39V23H3Z" fill="#E93C43"/>
<path d="M21 20C17.2721 20 14.25 17.3137 14.25 14C14.25 10.6863 17.2721 8 21 8C24.7279 8 27.75 10.6863 27.75 14C27.75 17.3137 24.7279 20 21 20Z" fill="#F7FCFF"/>
<path d="M21 22C16.0294 22 12 18.4183 12 14C12 9.58172 16.0294 6 21 6C25.9706 6 30 9.58172 30 14C30 18.4183 25.9706 22 21 22Z" fill="white"/>
<path fill-rule="evenodd" clip-rule="evenodd" d="M21 21C25.3492 21 28.875 17.866 28.875 14C28.875 10.134 25.3492 7 21 7C16.6508 7 13.125 10.134 13.125 14C13.125 17.866 16.6508 21 21 21Z" stroke="#9C4C17" stroke-width="0.5"/>
<path fill-rule="evenodd" clip-rule="evenodd" d="M20.5194 6.08282L20.3448 6.41772C20.6329 6.5568 20.7422 6.87158 20.7422 7.06228C20.7422 7.251 20.6296 7.39496 20.3448 7.52716L20.5194 7.87333C20.6388 7.81793 20.7568 7.77133 20.8684 7.72726C21.2685 7.56927 21.586 7.4439 21.586 7.06228C21.586 6.59597 21.105 6.36457 20.5857 6.11474L20.5194 6.08282ZM23.0399 6.29267L22.7682 6.5718C23.0021 6.77609 23.0095 7.10546 22.9504 7.28876C22.8919 7.47018 22.7389 7.58095 22.4242 7.63826L22.4847 8.01381C22.6166 7.98979 22.7445 7.97391 22.8654 7.9589C23.299 7.90506 23.6431 7.86233 23.7615 7.49549C23.9061 7.04725 23.5155 6.70697 23.0938 6.33959L23.0399 6.29267ZM25.0592 7.32237L25.4108 7.12605L25.4468 7.18491C25.7293 7.64583 25.9909 8.07276 25.7052 8.46383C25.4713 8.78389 25.1282 8.73532 24.6959 8.67412C24.5753 8.65706 24.4478 8.63901 24.3137 8.6277L24.3794 8.25282C24.6992 8.27981 24.8819 8.21363 24.9975 8.05535C25.1144 7.89542 25.2156 7.57851 25.0592 7.32237ZM27.4031 8.5151L27.0042 8.61766C27.0752 8.9022 26.8796 9.18204 26.7177 9.30715C26.5575 9.43096 26.3613 9.44982 26.0623 9.34552L25.8829 9.68978C26.0083 9.7335 26.1252 9.78209 26.2359 9.82804C26.6325 9.9928 26.9473 10.1235 27.2713 9.87318C27.6672 9.56726 27.5481 9.09277 27.4195 8.58051L27.4031 8.5151ZM28.4602 10.3462L28.8755 10.3453L28.8709 10.4122C28.8357 10.9361 28.803 11.4214 28.3276 11.6185C27.9385 11.7798 27.6765 11.577 27.3463 11.3214L27.3463 11.3214C27.2542 11.2501 27.1568 11.1748 27.0499 11.102L27.329 10.8151C27.5842 10.9886 27.7786 11.0185 27.971 10.9388C28.1654 10.8582 28.4402 10.6371 28.4602 10.3462ZM29.72 12.4835L29.3226 12.3764C29.2077 12.6494 28.8723 12.7894 28.6598 12.8159C28.4496 12.8422 28.2735 12.763 28.0866 12.5308L27.7253 12.7327C27.8036 12.83 27.8719 12.9274 27.9366 13.0195C28.1683 13.3497 28.3521 13.6117 28.7773 13.5586C29.2967 13.4937 29.4876 13.0381 29.6936 12.5463L29.72 12.4835ZM29.4954 14.531L29.8441 14.7314L29.7994 14.7853C29.4488 15.2076 29.124 15.5988 28.6045 15.5339C28.1794 15.4808 28.0839 15.1838 27.9636 14.8097C27.93 14.7053 27.8945 14.5949 27.8494 14.4822L28.2594 14.3766C28.367 14.6457 28.5117 14.7649 28.722 14.7912C28.9344 14.8177 29.3003 14.7653 29.4954 14.531ZM29.2525 16.936L28.9848 16.6538C28.7212 16.8272 28.3541 16.7822 28.1597 16.7016C27.9672 16.6218 27.8681 16.4702 27.8536 16.1849L27.4269 16.1793C27.4329 16.2989 27.4306 16.4136 27.4283 16.5222V16.5222V16.5222V16.5222C27.4203 16.9113 27.414 17.22 27.8031 17.3813C28.2785 17.5784 28.7177 17.2887 29.1919 16.9759L29.2525 16.936ZM27.8185 18.5496L27.9882 18.8865L27.9177 18.91C27.3649 19.0945 26.8528 19.2653 26.4569 18.9594C26.1329 18.7091 26.2347 18.4138 26.3631 18.0417C26.3989 17.938 26.4367 17.8282 26.468 17.7118L26.8765 17.8218C26.8019 18.0995 26.8502 18.2696 27.0105 18.3934C27.1724 18.5185 27.5113 18.6517 27.8185 18.5496ZM26.1588 20.4421L26.1001 20.0767C25.7732 20.0995 25.4887 19.8884 25.3719 19.7285C25.2562 19.5702 25.2625 19.395 25.4203 19.1462L25.0618 18.9404C24.9956 19.0447 24.9252 19.1409 24.8586 19.2319C24.6199 19.5581 24.4304 19.8169 24.6642 20.137C24.9499 20.5281 25.4951 20.4893 26.0837 20.4474L26.1588 20.4421ZM23.9613 21.1241L23.8973 21.4888L23.8237 21.4743C23.2471 21.3614 22.713 21.2568 22.5684 20.8086C22.45 20.4417 22.7164 20.2434 23.052 19.9935C23.1456 19.9238 23.2446 19.8501 23.3421 19.7676L23.6173 20.0576C23.3846 20.2545 23.3209 20.4204 23.3794 20.6019C23.4386 20.7852 23.6412 21.061 23.9613 21.1241ZM21.4113 21.9171L21.586 21.5822C21.2978 21.4431 21.1885 21.1284 21.1885 20.9377C21.1885 20.7489 21.3012 20.605 21.586 20.4728L21.4113 20.1266C21.2921 20.182 21.1741 20.2286 21.0625 20.2726L21.0624 20.2727L21.0624 20.2727C20.6623 20.4307 20.3448 20.556 20.3448 20.9377C20.3448 21.404 20.8258 21.6354 21.3451 21.8852L21.4113 21.9171ZM19.1627 21.4281L18.891 21.7073L18.8372 21.6604C18.4155 21.293 18.0249 20.9527 18.1695 20.5044C18.2878 20.1376 18.6319 20.0949 19.0655 20.041L19.0655 20.041C19.1864 20.026 19.3143 20.0101 19.4462 19.9861L19.5067 20.3617C19.192 20.419 19.0391 20.5298 18.9805 20.7112C18.9214 20.8945 18.9289 21.2239 19.1627 21.4281ZM16.5201 20.8739L16.8718 20.6776C16.7153 20.4214 16.8165 20.1045 16.9334 19.9446C17.049 19.7863 17.2317 19.7201 17.5516 19.7471L17.6172 19.3722C17.4832 19.3609 17.3556 19.3429 17.2351 19.3258C16.8027 19.2646 16.4596 19.2161 16.2258 19.5361C15.94 19.9272 16.2017 20.3541 16.4841 20.815L16.5201 20.8739ZM14.9267 19.3823L14.5278 19.4848L14.5114 19.4194C14.3828 18.9072 14.2637 18.4327 14.6597 18.1268C14.9837 17.8764 15.2984 18.0071 15.6951 18.1719C15.8057 18.2178 15.9227 18.2664 16.048 18.3102L15.8687 18.6544C15.5696 18.5501 15.3734 18.569 15.2132 18.6928C15.0513 18.8179 14.8557 19.0977 14.9267 19.3823ZM13.0553 17.6546L13.4706 17.6538C13.4906 17.3629 13.7654 17.1418 13.9598 17.0612C14.1522 16.9814 14.3466 17.0113 14.6018 17.1849L14.8809 16.8979C14.774 16.8252 14.6766 16.7498 14.5845 16.6785C14.2543 16.423 13.9923 16.2202 13.6032 16.3814C13.1278 16.5785 13.0951 17.0638 13.0599 17.5877L13.0553 17.6546ZM12.6083 15.6236L12.2109 15.5164L12.2373 15.4537C12.4433 14.9618 12.6342 14.5062 13.1537 14.4413C13.5788 14.3882 13.7627 14.6502 13.9944 14.9804C14.059 15.0725 14.1273 15.1699 14.2057 15.2673L13.8443 15.4692C13.6574 15.2369 13.4813 15.1577 13.2711 15.184C13.0587 15.2106 12.7232 15.3506 12.6083 15.6236ZM12.0868 13.2686L12.4356 13.4689C12.6306 13.2346 12.9965 13.1822 13.209 13.2088C13.4192 13.235 13.5639 13.3543 13.6715 13.6233L14.0815 13.5178C14.0364 13.405 14.0009 13.2946 13.9673 13.1903C13.847 12.8161 13.7515 12.5192 13.3264 12.4661C12.8069 12.4012 12.4822 12.7924 12.1316 13.2147L12.0868 13.2686ZM12.9461 11.3461L12.6785 11.0639L12.739 11.024C13.2132 10.7112 13.6524 10.4215 14.1279 10.6186C14.517 10.7799 14.5106 11.0887 14.5026 11.4778C14.5004 11.5863 14.498 11.701 14.5041 11.8206L14.0773 11.815C14.0629 11.5297 13.9637 11.3781 13.7713 11.2983C13.5768 11.2178 13.2097 11.1728 12.9461 11.3461ZM13.9426 9.11344L14.1123 9.4503C14.4195 9.34825 14.7584 9.48144 14.9203 9.60654C15.0806 9.73036 15.1289 9.90039 15.0543 10.1782L15.4628 10.2881C15.494 10.1717 15.5319 10.062 15.5677 9.9582C15.696 9.58613 15.7979 9.29088 15.4739 9.04051C15.078 8.73459 14.5659 8.90545 14.0131 9.08992L13.9426 9.11344ZM15.8308 7.92326L15.7721 7.55785L15.8472 7.55253C16.4358 7.51066 16.981 7.47187 17.2667 7.86294C17.5005 8.183 17.3111 8.44186 17.0723 8.76806L17.0723 8.76807C17.0057 8.85905 16.9353 8.95526 16.8692 9.0595L16.5106 8.85372C16.6684 8.60498 16.6747 8.4297 16.5591 8.27142C16.4422 8.11149 16.1577 7.90041 15.8308 7.92326ZM18.0336 6.51123L17.9696 6.87593C18.2897 6.93903 18.4924 7.21484 18.5515 7.39815C18.61 7.57956 18.5464 7.74555 18.3136 7.9424L18.5888 8.23237C18.6864 8.14988 18.7854 8.07617 18.879 8.00647C19.2146 7.75657 19.4809 7.55826 19.3626 7.19142C19.218 6.74318 18.6839 6.63859 18.1072 6.52567C18.0828 6.52088 18.0582 6.51608 18.0336 6.51123Z" fill="#5B8C39"/>
<path fill-rule="evenodd" clip-rule="evenodd" d="M16.8136 15.9869C16.8136 15.9869 15.5763 15.9628 15.5763 16.4682C15.5763 16.9735 15.5763 17.5332 16.1949 17.2533C16.8136 16.9735 17.5699 16.8629 17.97 17.0581C18.3701 17.2533 19.3023 17.65 20.6163 17.65C21.9303 17.65 21.8427 17.2533 23.0529 17.2533C24.2631 17.2533 26.4238 17.1677 25.9234 16.8179C25.423 16.4682 24.8341 16.2468 24.3844 16.2468C23.9348 16.2468 23.59 16.2468 22.6447 15.8349C21.6993 15.4231 20.6439 15.3858 19.5803 15.5186C18.5168 15.6514 18.3765 15.9869 17.7476 15.9869C17.1186 15.9869 16.8136 15.9869 16.8136 15.9869Z" fill="#247805"/>
<path d="M21.1126 17.65C21.1758 17.8919 21.1759 17.8919 21.176 17.8918L21.1763 17.8918L21.177 17.8916L21.1789 17.8911L21.1853 17.8893L21.2075 17.8831C21.2264 17.8776 21.2531 17.8696 21.2867 17.8589C21.3538 17.8375 21.4483 17.805 21.5611 17.7602C21.7861 17.6707 22.0879 17.5304 22.3915 17.3271C22.9958 16.9223 23.6422 16.2412 23.6422 15.1918V15.1838V15.1759V15.1679V15.16V15.152V15.1441V15.1362V15.1282V15.1203V15.1124V15.1045V15.0966V15.0887V15.0808V15.0729V15.065V15.0572V15.0493V15.0414V15.0336V15.0257V15.0179V15.01V15.0022V14.9944V14.9866V14.9787V14.9709V14.9631V14.9553V14.9475V14.9398V14.932V14.9242V14.9165V14.9087V14.9009V14.8932V14.8855V14.8777V14.87V14.8623V14.8546V14.8469V14.8392V14.8315V14.8238V14.8161V14.8085V14.8008V14.7932V14.7855V14.7779V14.7703V14.7626V14.755V14.7474V14.7398V14.7322V14.7246V14.7171V14.7095V14.7019V14.6944V14.6868V14.6793V14.6718V14.6642V14.6567V14.6492V14.6417V14.6342V14.6267V14.6193V14.6118V14.6043V14.5969V14.5894V14.582V14.5746V14.5672V14.5598V14.5524V14.545V14.5376V14.5302V14.5228V14.5155V14.5081V14.5008V14.4935V14.4862V14.4788V14.4715V14.4642V14.457V14.4497V14.4424V14.4352V14.4279V14.4207V14.4134V14.4062V14.399V14.3918V14.3846V14.3774V14.3703V14.3631V14.3559V14.3488V14.3417V14.3345V14.3274V14.3203V14.3132V14.3061V14.2991V14.292V14.2849V14.2779V14.2709V14.2638V14.2568V14.2498V14.2428V14.2358V14.2289V14.2219V14.2149V14.208V14.2011V14.1941V14.1872V14.1803V14.1734V14.1666V14.1597V14.1528V14.146V14.1392V14.1323V14.1255V14.1187V14.1119V14.1051V14.0984V14.0916V14.0849V14.0781V14.0714V14.0647V14.058V14.0513V14.0446V14.0379V14.0313V14.0246V14.018V14.0114V14.0048V13.9982V13.9916V13.985V13.9785V13.9719V13.9654V13.9588V13.9523V13.9458V13.9393V13.9329V13.9264V13.9199V13.9135V13.9071V13.9006V13.8942V13.8878V13.8815V13.8751V13.8687V13.8624V13.8561V13.8497V13.8434V13.8372V13.8309V13.8246V13.8184V13.8121V13.8059V13.7997V13.7935V13.7873V13.7811V13.7749V13.7688V13.7627V13.7565V13.7504V13.7443V13.7382V13.7322V13.7261V13.7201V13.714V13.708V13.702V13.696V13.6901V13.6841V13.6782V13.6722V13.6663V13.6604V13.6545V13.6486V13.6428V13.6369V13.6311V13.6253V13.6194V13.6137V13.6079V13.6021V13.5964V13.5906V13.5849V13.5792V13.5735V13.5678V13.5622V13.5565V13.5509V13.5453V13.5397V13.5341V13.5285V13.5229V13.5174V13.5119V13.5063V13.5008V13.4954V13.4899V13.4844V13.479V13.4736V13.4682V13.4628V13.4574V13.452V13.4467V13.4414V13.436V13.4307V13.4255V13.4202V13.4149V13.4097V13.4045V13.3993V13.3941V13.3889V13.3837V13.3786V13.3735V13.3684V13.3633V13.3582V13.3531V13.3481V13.343V13.338V13.333V13.3281V13.3231V13.3181V13.3132V13.3083V13.3034V13.2985V13.2936V13.2888V13.284V13.2792V13.2744V13.2696V13.2648V13.2601V13.2553V13.2506V13.2459V13.2412V13.2366V13.2319V13.2273V13.2227V13.2181V13.2135V13.209V13.2044V13.1999V13.1954V13.1909V13.1864V13.182V13.1775V13.1731V13.1687V13.1643V13.16V13.1556V13.1513V13.147V13.1427V13.1384V13.1342V13.1299V13.1257V13.1215V13.1173V13.1132V13.109V13.1049V13.1008V13.0967V13.0926V13.0885V13.0845V13.0805V13.0765V13.0725V13.0685V13.0646V13.0607V13.0568V13.0529V13.049V13.0452V13.0413V13.0375V13.0337V13.03V13.0262V13.0225V13.0188V13.0151V13.0114V13.0077V13.0041V13.0005V12.9969V12.9933V12.9897V12.9862V12.9827V12.9792V12.9757V12.9722V12.9688V12.9654V12.962V12.9586V12.9552V12.9519V12.9485V12.9452V12.942V12.9387V12.9355V12.9322V12.929V12.9259V12.9227V12.9196V12.9164V12.9133V12.9103V12.9072V12.9042V12.9011V12.8982V12.8952V12.8922V12.8893V12.8864V12.8835V12.8806V12.8778V12.8749V12.8721V12.8693V12.8666V12.8638V12.8611V12.8584V12.8557V12.8531V12.8504V12.8478V12.8452V12.8426V12.8401V12.8376V12.8351V12.8326V12.8301V12.8277V12.8252V12.8228V12.8205V12.8181V12.8158V12.8135V12.8112V12.8089V12.8066V12.8044V12.8022V12.8V12.7979V12.7958V12.7936V12.7915V12.7895V12.7874V12.7854V12.7834V12.7814V12.7795V12.7775V12.7756V12.7738V12.7719V12.77V12.7682V12.7664V12.7647V12.7629V12.7612V12.7595V12.7578V12.7561V12.7545V12.7529V12.7513V12.7498V12.7482V12.7467V12.7452V12.7437V12.7423V12.7409V12.7395V12.7381V12.7367V12.7354V12.7341V12.7328V12.7316V12.7303V12.7291V12.7279V12.7268V12.7256V12.7245V12.7234V12.7224V12.7213V12.7203V12.7193V12.7184V12.7174V12.7165V12.7156V12.7147V12.7139V12.7131V12.7123V12.7115V12.7107V12.71V12.7093V12.7087V12.708V12.7074V12.7068V12.7062V12.7057V12.7051V12.7046V12.7042V12.7037V12.7033V12.7029V12.7025V12.7022V12.7019V12.7016V12.7013V12.7011V12.7008V12.7006V12.7005V12.7003V12.7002V12.7001V12.7001V12.7L23.3922 12.7H23.6422V12.45H23.3922H18.833H18.583V12.7H18.833L18.583 12.7V12.7001V12.7002V12.7003V12.7004V12.7006V12.7008V12.701V12.7013V12.7015V12.7019V12.7022V12.7026V12.703V12.7034V12.7039V12.7044V12.7049V12.7055V12.7061V12.7067V12.7074V12.708V12.7087V12.7095V12.7102V12.711V12.7118V12.7127V12.7136V12.7145V12.7154V12.7164V12.7174V12.7184V12.7195V12.7205V12.7216V12.7228V12.7239V12.7251V12.7263V12.7276V12.7289V12.7302V12.7315V12.7329V12.7343V12.7357V12.7371V12.7386V12.7401V12.7416V12.7431V12.7447V12.7463V12.748V12.7496V12.7513V12.753V12.7548V12.7565V12.7583V12.7601V12.762V12.7638V12.7657V12.7677V12.7696V12.7716V12.7736V12.7756V12.7777V12.7797V12.7819V12.784V12.7861V12.7883V12.7905V12.7928V12.795V12.7973V12.7996V12.8019V12.8043V12.8067V12.8091V12.8115V12.814V12.8165V12.819V12.8215V12.8241V12.8266V12.8292V12.8319V12.8345V12.8372V12.8399V12.8426V12.8454V12.8481V12.8509V12.8538V12.8566V12.8595V12.8624V12.8653V12.8682V12.8712V12.8742V12.8772V12.8802V12.8832V12.8863V12.8894V12.8925V12.8957V12.8989V12.902V12.9053V12.9085V12.9118V12.915V12.9183V12.9217V12.925V12.9284V12.9318V12.9352V12.9386V12.9421V12.9455V12.949V12.9526V12.9561V12.9597V12.9632V12.9669V12.9705V12.9741V12.9778V12.9815V12.9852V12.9889V12.9927V12.9965V13.0003V13.0041V13.0079V13.0118V13.0156V13.0195V13.0234V13.0274V13.0313V13.0353V13.0393V13.0433V13.0474V13.0514V13.0555V13.0596V13.0637V13.0678V13.072V13.0762V13.0804V13.0846V13.0888V13.0931V13.0973V13.1016V13.1059V13.1102V13.1146V13.119V13.1233V13.1277V13.1322V13.1366V13.141V13.1455V13.15V13.1545V13.159V13.1636V13.1682V13.1727V13.1773V13.182V13.1866V13.1912V13.1959V13.2006V13.2053V13.21V13.2148V13.2195V13.2243V13.2291V13.2339V13.2387V13.2435V13.2484V13.2533V13.2582V13.2631V13.268V13.2729V13.2779V13.2829V13.2878V13.2929V13.2979V13.3029V13.308V13.313V13.3181V13.3232V13.3283V13.3335V13.3386V13.3438V13.3489V13.3541V13.3593V13.3646V13.3698V13.375V13.3803V13.3856V13.3909V13.3962V13.4015V13.4069V13.4122V13.4176V13.423V13.4284V13.4338V13.4392V13.4446V13.4501V13.4556V13.4611V13.4665V13.4721V13.4776V13.4831V13.4887V13.4942V13.4998V13.5054V13.511V13.5166V13.5222V13.5279V13.5335V13.5392V13.5449V13.5506V13.5563V13.562V13.5678V13.5735V13.5793V13.585V13.5908V13.5966V13.6024V13.6082V13.6141V13.6199V13.6257V13.6316V13.6375V13.6434V13.6493V13.6552V13.6611V13.667V13.673V13.679V13.6849V13.6909V13.6969V13.7029V13.7089V13.7149V13.721V13.727V13.7331V13.7391V13.7452V13.7513V13.7574V13.7635V13.7696V13.7757V13.7819V13.788V13.7942V13.8004V13.8065V13.8127V13.8189V13.8251V13.8313V13.8376V13.8438V13.85V13.8563V13.8626V13.8688V13.8751V13.8814V13.8877V13.894V13.9003V13.9066V13.913V13.9193V13.9257V13.932V13.9384V13.9448V13.9511V13.9575V13.9639V13.9703V13.9768V13.9832V13.9896V13.996V14.0025V14.0089V14.0154V14.0219V14.0284V14.0348V14.0413V14.0478V14.0543V14.0608V14.0674V14.0739V14.0804V14.087V14.0935V14.1001V14.1066V14.1132V14.1197V14.1263V14.1329V14.1395V14.1461V14.1527V14.1593V14.1659V14.1725V14.1792V14.1858V14.1924V14.1991V14.2057V14.2124V14.219V14.2257V14.2324V14.239V14.2457V14.2524V14.2591V14.2658V14.2725V14.2792V14.2859V14.2926V14.2993V14.3061V14.3128V14.3195V14.3262V14.333V14.3397V14.3465V14.3532V14.36V14.3667V14.3735V14.3803V14.387V14.3938V14.4006V14.4074V14.4142V14.4209V14.4277V14.4345V14.4413V14.4481V14.4549V14.4617V14.4685V14.4753V14.4822V14.489V14.4958V14.5026V14.5094V14.5163V14.5231V14.5299V14.5368V14.5436V14.5504V14.5573V14.5641V14.5709V14.5778V14.5846V14.5915V14.5983V14.6052V14.612V14.6189V14.6257V14.6326V14.6394V14.6463V14.6531V14.66V14.6669V14.6737V14.6806V14.6874V14.6943V14.7012V14.708V14.7149V14.7218V14.7286V14.7561V14.8109V14.8384V14.8521V14.8658V14.9205V14.9342V14.9479V14.9752V15.0297V15.0839V15.111V15.138V15.1918C18.583 16.2151 19.2314 16.8956 19.832 17.3051C20.1347 17.5116 20.4357 17.657 20.6601 17.7507C20.7726 17.7978 20.8669 17.8322 20.9337 17.855C20.9672 17.8665 20.9938 17.8751 21.0126 17.8809L21.0346 17.8877L21.0409 17.8895L21.0429 17.8901L21.0435 17.8903L21.0438 17.8903C21.0439 17.8904 21.044 17.8904 21.1126 17.65ZM21.1126 17.65L21.1758 17.8919L21.1097 17.9092L21.044 17.8904L21.1126 17.65Z" fill="white" stroke="#565656" stroke-width="0.5"/>
<mask id="mask2_5_10715" style="mask-type:alpha" maskUnits="userSpaceOnUse" x="18" y="12" width="6" height="7">
<path d="M21.1126 17.65C21.1758 17.8919 21.1759 17.8919 21.176 17.8918L21.1763 17.8918L21.177 17.8916L21.1789 17.8911L21.1853 17.8893L21.2075 17.8831C21.2264 17.8776 21.2531 17.8696 21.2867 17.8589C21.3538 17.8375 21.4483 17.805 21.5611 17.7602C21.7861 17.6707 22.0879 17.5304 22.3915 17.3271C22.9958 16.9223 23.6422 16.2412 23.6422 15.1918V15.1838V15.1759V15.1679V15.16V15.152V15.1441V15.1362V15.1282V15.1203V15.1124V15.1045V15.0966V15.0887V15.0808V15.0729V15.065V15.0572V15.0493V15.0414V15.0336V15.0257V15.0179V15.01V15.0022V14.9944V14.9866V14.9787V14.9709V14.9631V14.9553V14.9475V14.9398V14.932V14.9242V14.9165V14.9087V14.9009V14.8932V14.8855V14.8777V14.87V14.8623V14.8546V14.8469V14.8392V14.8315V14.8238V14.8161V14.8085V14.8008V14.7932V14.7855V14.7779V14.7703V14.7626V14.755V14.7474V14.7398V14.7322V14.7246V14.7171V14.7095V14.7019V14.6944V14.6868V14.6793V14.6718V14.6642V14.6567V14.6492V14.6417V14.6342V14.6267V14.6193V14.6118V14.6043V14.5969V14.5894V14.582V14.5746V14.5672V14.5598V14.5524V14.545V14.5376V14.5302V14.5228V14.5155V14.5081V14.5008V14.4935V14.4862V14.4788V14.4715V14.4642V14.457V14.4497V14.4424V14.4352V14.4279V14.4207V14.4134V14.4062V14.399V14.3918V14.3846V14.3774V14.3703V14.3631V14.3559V14.3488V14.3417V14.3345V14.3274V14.3203V14.3132V14.3061V14.2991V14.292V14.2849V14.2779V14.2709V14.2638V14.2568V14.2498V14.2428V14.2358V14.2289V14.2219V14.2149V14.208V14.2011V14.1941V14.1872V14.1803V14.1734V14.1666V14.1597V14.1528V14.146V14.1392V14.1323V14.1255V14.1187V14.1119V14.1051V14.0984V14.0916V14.0849V14.0781V14.0714V14.0647V14.058V14.0513V14.0446V14.0379V14.0313V14.0246V14.018V14.0114V14.0048V13.9982V13.9916V13.985V13.9785V13.9719V13.9654V13.9588V13.9523V13.9458V13.9393V13.9329V13.9264V13.9199V13.9135V13.9071V13.9006V13.8942V13.8878V13.8815V13.8751V13.8687V13.8624V13.8561V13.8497V13.8434V13.8372V13.8309V13.8246V13.8184V13.8121V13.8059V13.7997V13.7935V13.7873V13.7811V13.7749V13.7688V13.7627V13.7565V13.7504V13.7443V13.7382V13.7322V13.7261V13.7201V13.714V13.708V13.702V13.696V13.6901V13.6841V13.6782V13.6722V13.6663V13.6604V13.6545V13.6486V13.6428V13.6369V13.6311V13.6253V13.6194V13.6137V13.6079V13.6021V13.5964V13.5906V13.5849V13.5792V13.5735V13.5678V13.5622V13.5565V13.5509V13.5453V13.5397V13.5341V13.5285V13.5229V13.5174V13.5119V13.5063V13.5008V13.4954V13.4899V13.4844V13.479V13.4736V13.4682V13.4628V13.4574V13.452V13.4467V13.4414V13.436V13.4307V13.4255V13.4202V13.4149V13.4097V13.4045V13.3993V13.3941V13.3889V13.3837V13.3786V13.3735V13.3684V13.3633V13.3582V13.3531V13.3481V13.343V13.338V13.333V13.3281V13.3231V13.3181V13.3132V13.3083V13.3034V13.2985V13.2936V13.2888V13.284V13.2792V13.2744V13.2696V13.2648V13.2601V13.2553V13.2506V13.2459V13.2412V13.2366V13.2319V13.2273V13.2227V13.2181V13.2135V13.209V13.2044V13.1999V13.1954V13.1909V13.1864V13.182V13.1775V13.1731V13.1687V13.1643V13.16V13.1556V13.1513V13.147V13.1427V13.1384V13.1342V13.1299V13.1257V13.1215V13.1173V13.1132V13.109V13.1049V13.1008V13.0967V13.0926V13.0885V13.0845V13.0805V13.0765V13.0725V13.0685V13.0646V13.0607V13.0568V13.0529V13.049V13.0452V13.0413V13.0375V13.0337V13.03V13.0262V13.0225V13.0188V13.0151V13.0114V13.0077V13.0041V13.0005V12.9969V12.9933V12.9897V12.9862V12.9827V12.9792V12.9757V12.9722V12.9688V12.9654V12.962V12.9586V12.9552V12.9519V12.9485V12.9452V12.942V12.9387V12.9355V12.9322V12.929V12.9259V12.9227V12.9196V12.9164V12.9133V12.9103V12.9072V12.9042V12.9011V12.8982V12.8952V12.8922V12.8893V12.8864V12.8835V12.8806V12.8778V12.8749V12.8721V12.8693V12.8666V12.8638V12.8611V12.8584V12.8557V12.8531V12.8504V12.8478V12.8452V12.8426V12.8401V12.8376V12.8351V12.8326V12.8301V12.8277V12.8252V12.8228V12.8205V12.8181V12.8158V12.8135V12.8112V12.8089V12.8066V12.8044V12.8022V12.8V12.7979V12.7958V12.7936V12.7915V12.7895V12.7874V12.7854V12.7834V12.7814V12.7795V12.7775V12.7756V12.7738V12.7719V12.77V12.7682V12.7664V12.7647V12.7629V12.7612V12.7595V12.7578V12.7561V12.7545V12.7529V12.7513V12.7498V12.7482V12.7467V12.7452V12.7437V12.7423V12.7409V12.7395V12.7381V12.7367V12.7354V12.7341V12.7328V12.7316V12.7303V12.7291V12.7279V12.7268V12.7256V12.7245V12.7234V12.7224V12.7213V12.7203V12.7193V12.7184V12.7174V12.7165V12.7156V12.7147V12.7139V12.7131V12.7123V12.7115V12.7107V12.71V12.7093V12.7087V12.708V12.7074V12.7068V12.7062V12.7057V12.7051V12.7046V12.7042V12.7037V12.7033V12.7029V12.7025V12.7022V12.7019V12.7016V12.7013V12.7011V12.7008V12.7006V12.7005V12.7003V12.7002V12.7001V12.7001V12.7L23.3922 12.7H23.6422V12.45H23.3922H18.833H18.583V12.7H18.833L18.583 12.7V12.7001V12.7002V12.7003V12.7004V12.7006V12.7008V12.701V12.7013V12.7015V12.7019V12.7022V12.7026V12.703V12.7034V12.7039V12.7044V12.7049V12.7055V12.7061V12.7067V12.7074V12.708V12.7087V12.7095V12.7102V12.711V12.7118V12.7127V12.7136V12.7145V12.7154V12.7164V12.7174V12.7184V12.7195V12.7205V12.7216V12.7228V12.7239V12.7251V12.7263V12.7276V12.7289V12.7302V12.7315V12.7329V12.7343V12.7357V12.7371V12.7386V12.7401V12.7416V12.7431V12.7447V12.7463V12.748V12.7496V12.7513V12.753V12.7548V12.7565V12.7583V12.7601V12.762V12.7638V12.7657V12.7677V12.7696V12.7716V12.7736V12.7756V12.7777V12.7797V12.7819V12.784V12.7861V12.7883V12.7905V12.7928V12.795V12.7973V12.7996V12.8019V12.8043V12.8067V12.8091V12.8115V12.814V12.8165V12.819V12.8215V12.8241V12.8266V12.8292V12.8319V12.8345V12.8372V12.8399V12.8426V12.8454V12.8481V12.8509V12.8538V12.8566V12.8595V12.8624V12.8653V12.8682V12.8712V12.8742V12.8772V12.8802V12.8832V12.8863V12.8894V12.8925V12.8957V12.8989V12.902V12.9053V12.9085V12.9118V12.915V12.9183V12.9217V12.925V12.9284V12.9318V12.9352V12.9386V12.9421V12.9455V12.949V12.9526V12.9561V12.9597V12.9632V12.9669V12.9705V12.9741V12.9778V12.9815V12.9852V12.9889V12.9927V12.9965V13.0003V13.0041V13.0079V13.0118V13.0156V13.0195V13.0234V13.0274V13.0313V13.0353V13.0393V13.0433V13.0474V13.0514V13.0555V13.0596V13.0637V13.0678V13.072V13.0762V13.0804V13.0846V13.0888V13.0931V13.0973V13.1016V13.1059V13.1102V13.1146V13.119V13.1233V13.1277V13.1322V13.1366V13.141V13.1455V13.15V13.1545V13.159V13.1636V13.1682V13.1727V13.1773V13.182V13.1866V13.1912V13.1959V13.2006V13.2053V13.21V13.2148V13.2195V13.2243V13.2291V13.2339V13.2387V13.2435V13.2484V13.2533V13.2582V13.2631V13.268V13.2729V13.2779V13.2829V13.2878V13.2929V13.2979V13.3029V13.308V13.313V13.3181V13.3232V13.3283V13.3335V13.3386V13.3438V13.3489V13.3541V13.3593V13.3646V13.3698V13.375V13.3803V13.3856V13.3909V13.3962V13.4015V13.4069V13.4122V13.4176V13.423V13.4284V13.4338V13.4392V13.4446V13.4501V13.4556V13.4611V13.4665V13.4721V13.4776V13.4831V13.4887V13.4942V13.4998V13.5054V13.511V13.5166V13.5222V13.5279V13.5335V13.5392V13.5449V13.5506V13.5563V13.562V13.5678V13.5735V13.5793V13.585V13.5908V13.5966V13.6024V13.6082V13.6141V13.6199V13.6257V13.6316V13.6375V13.6434V13.6493V13.6552V13.6611V13.667V13.673V13.679V13.6849V13.6909V13.6969V13.7029V13.7089V13.7149V13.721V13.727V13.7331V13.7391V13.7452V13.7513V13.7574V13.7635V13.7696V13.7757V13.7819V13.788V13.7942V13.8004V13.8065V13.8127V13.8189V13.8251V13.8313V13.8376V13.8438V13.85V13.8563V13.8626V13.8688V13.8751V13.8814V13.8877V13.894V13.9003V13.9066V13.913V13.9193V13.9257V13.932V13.9384V13.9448V13.9511V13.9575V13.9639V13.9703V13.9768V13.9832V13.9896V13.996V14.0025V14.0089V14.0154V14.0219V14.0284V14.0348V14.0413V14.0478V14.0543V14.0608V14.0674V14.0739V14.0804V14.087V14.0935V14.1001V14.1066V14.1132V14.1197V14.1263V14.1329V14.1395V14.1461V14.1527V14.1593V14.1659V14.1725V14.1792V14.1858V14.1924V14.1991V14.2057V14.2124V14.219V14.2257V14.2324V14.239V14.2457V14.2524V14.2591V14.2658V14.2725V14.2792V14.2859V14.2926V14.2993V14.3061V14.3128V14.3195V14.3262V14.333V14.3397V14.3465V14.3532V14.36V14.3667V14.3735V14.3803V14.387V14.3938V14.4006V14.4074V14.4142V14.4209V14.4277V14.4345V14.4413V14.4481V14.4549V14.4617V14.4685V14.4753V14.4822V14.489V14.4958V14.5026V14.5094V14.5163V14.5231V14.5299V14.5368V14.5436V14.5504V14.5573V14.5641V14.5709V14.5778V14.5846V14.5915V14.5983V14.6052V14.612V14.6189V14.6257V14.6326V14.6394V14.6463V14.6531V14.66V14.6669V14.6737V14.6806V14.6874V14.6943V14.7012V14.708V14.7149V14.7218V14.7286V14.7561V14.8109V14.8384V14.8521V14.8658V14.9205V14.9342V14.9479V14.9752V15.0297V15.0839V15.111V15.138V15.1918C18.583 16.2151 19.2314 16.8956 19.832 17.3051C20.1347 17.5116 20.4357 17.657 20.6601 17.7507C20.7726 17.7978 20.8669 17.8322 20.9337 17.855C20.9672 17.8665 20.9938 17.8751 21.0126 17.8809L21.0346 17.8877L21.0409 17.8895L21.0429 17.8901L21.0435 17.8903L21.0438 17.8903C21.0439 17.8904 21.044 17.8904 21.1126 17.65ZM21.1126 17.65L21.1758 17.8919L21.1097 17.9092L21.044 17.8904L21.1126 17.65Z" fill="white" stroke="white" stroke-width="0.5"/>
</mask>
<g mask="url(#mask2_5_10715)">
<path opacity="0.4" fill-rule="evenodd" clip-rule="evenodd" d="M18.9714 15.9089L21.1465 14.4847L23.4334 16.0704V18.3272H18.9714V15.9089Z" fill="#84CEFF"/>
<path fill-rule="evenodd" clip-rule="evenodd" d="M19.0402 16.4125H23.0813V16.9125H19.0402V16.4125Z" fill="#006AC9"/>
<path fill-rule="evenodd" clip-rule="evenodd" d="M19.2474 16.9075H22.9777V17.1726H19.2474V16.9075Z" fill="#59C800"/>
<path fill-rule="evenodd" clip-rule="evenodd" d="M19.2474 17.2375H22.9777V17.7375H19.2474V17.2375Z" fill="#FFD800"/>
<path fill-rule="evenodd" clip-rule="evenodd" d="M24.0673 16.5107L21.1533 14.5326L21.1533 11.8624H24.0673V16.5107Z" fill="#F7D85D"/>
<path fill-rule="evenodd" clip-rule="evenodd" d="M20.4907 15.4225C20.4907 15.4225 20.5828 15.8474 20.6533 15.8474C20.7237 15.8474 20.8511 15.4225 20.8511 15.4225C20.8511 15.4225 20.8662 15.8474 20.9371 15.8474C21.008 15.8474 20.9992 15.4913 21.1124 15.4225C21.1534 15.3976 21.2052 15.8452 21.2682 15.8474C21.3211 15.8492 21.4504 15.4225 21.4504 15.4225C21.4504 15.4225 21.4895 15.8474 21.5507 15.8474C21.6118 15.8474 21.7341 15.4225 21.7341 15.4225V16.495H20.4907V15.4225Z" fill="#F5F6F6"/>
<path fill-rule="evenodd" clip-rule="evenodd" d="M21.1126 16.84C21.7421 16.84 22.2524 16.7443 22.2524 16.6263C22.2524 16.5082 21.7421 16.4125 21.1126 16.4125C20.4831 16.4125 19.9728 16.5082 19.9728 16.6263C19.9728 16.7443 20.4831 16.84 21.1126 16.84Z" fill="#892E2E"/>
<path d="M19.0756 13.1042L19.3099 12.9415L20.8858 14.381L20.6515 14.5436L19.0756 13.1042Z" fill="#A46031"/>
<path d="M19.329 14.7674L19.0801 14.6191L20.6126 12.988L20.8615 13.1363L19.329 14.7674Z" fill="#892E2E"/>
<path d="M21.4589 13.3182L21.6932 13.189L23.2691 14.332L23.0348 14.4611L21.4589 13.3182Z" fill="#A46031"/>
<path d="M21.7885 14.486L21.4969 14.3099L22.9959 13.2355L23.3155 13.4695L21.7885 14.486Z" fill="#F5F6F6"/>
</g>
<path fill-rule="evenodd" clip-rule="evenodd" d="M19.3879 18.5347L20.1197 18.7385V19.2999H19.3879V18.5347Z" fill="#6699FF"/>
<path fill-rule="evenodd" clip-rule="evenodd" d="M18.8652 17.3869L19.2769 17.5907V18.1521H18.8652V17.3869Z" fill="#6699FF"/>
<path fill-rule="evenodd" clip-rule="evenodd" d="M22.7328 18.5347L22.0011 18.7385V19.2999H22.7328V18.5347Z" fill="#6699FF"/>
<path fill-rule="evenodd" clip-rule="evenodd" d="M23.2555 17.3869L22.8438 17.5907V18.1521H23.2555V17.3869Z" fill="#6699FF"/>
<path d="M18.4664 18.5761C18.3324 18.5761 18.2209 18.5789 18.0935 18.5843C17.7845 18.5975 17.7651 18.5972 17.6798 18.566C17.6286 18.5473 17.5774 18.5171 17.5039 18.4634C17.3294 18.336 17.1413 18.0435 16.9373 17.5846L16.9379 17.5653C17.1898 17.0812 17.7078 17.0212 18.4782 17.3801C18.6812 17.4746 19.2729 17.7605 19.268 17.7582C19.5372 17.8862 19.7259 17.9682 19.9114 18.0346C20.2959 18.1722 20.6585 18.2347 21.1235 18.2347C21.4028 18.2347 21.7263 18.1642 22.1037 18.031C22.3217 17.954 22.5486 17.86 22.8253 17.7351C22.8617 17.7187 23.4408 17.451 23.584 17.3897C23.8346 17.2825 23.9999 17.2306 24.1138 17.2306C24.1448 17.2306 24.1688 17.2305 24.229 17.2302C24.3331 17.2296 24.3825 17.2296 24.4426 17.2302C24.998 17.2362 25.2721 17.3185 25.2721 17.5756C25.2721 17.8185 25.0943 18.1482 24.74 18.5668L24.7227 18.5759C24.0217 18.6599 23.6151 18.6599 23.49 18.5711C23.4559 18.5469 23.3624 18.5579 23.1906 18.6068C23.1128 18.629 22.696 18.7615 22.5672 18.7994C22.0311 18.9574 21.5716 19.0423 21.1037 19.0423C20.3911 19.0423 19.6112 18.7966 18.7638 18.3058C18.9174 18.4793 18.8202 18.5761 18.4664 18.5761Z" fill="white"/>
<path fill-rule="evenodd" clip-rule="evenodd" d="M18.0935 18.5843C18.2209 18.5789 18.3324 18.5761 18.4664 18.5761C18.8202 18.5761 18.9174 18.4793 18.7638 18.3058C19.6112 18.7966 20.3911 19.0423 21.1037 19.0423C21.5716 19.0423 22.0311 18.9574 22.5672 18.7994C22.6327 18.7801 22.7726 18.7364 22.9046 18.6952C23.0322 18.6553 23.1523 18.6177 23.1906 18.6068C23.3624 18.5579 23.4559 18.5469 23.49 18.5711C23.6151 18.6599 24.0217 18.6599 24.7227 18.5759L24.74 18.5668C25.0943 18.1482 25.2721 17.8185 25.2721 17.5756C25.2721 17.3185 24.998 17.2362 24.4426 17.2302C24.3825 17.2296 24.3331 17.2296 24.229 17.2302C24.1688 17.2305 24.1448 17.2306 24.1138 17.2306C23.9999 17.2306 23.8346 17.2825 23.584 17.3897C23.4708 17.4382 23.0851 17.6156 22.9106 17.6959C22.8643 17.7172 22.8329 17.7317 22.8253 17.7351C22.5486 17.86 22.3217 17.954 22.1037 18.031C21.7263 18.1642 21.4028 18.2347 21.1235 18.2347C20.6585 18.2347 20.2959 18.1722 19.9114 18.0346C19.7259 17.9682 19.5372 17.8862 19.268 17.7582C19.2729 17.7605 18.6812 17.4746 18.4782 17.3801C17.7078 17.0212 17.1898 17.0812 16.9379 17.5653L16.9373 17.5846C17.1413 18.0435 17.3294 18.336 17.5039 18.4634C17.5774 18.5171 17.6286 18.5473 17.6798 18.566C17.7651 18.5972 17.7845 18.5975 18.0935 18.5843ZM17.6991 18.5216C17.6536 18.5049 17.6063 18.477 17.5364 18.4259C17.3721 18.3061 17.1892 18.0225 16.99 17.5764C17.2286 17.13 17.7123 17.077 18.4545 17.4227C18.657 17.517 19.2485 17.8028 19.2439 17.8006C19.5146 17.9294 19.7047 18.012 19.8923 18.0791C20.2829 18.2189 20.652 18.2825 21.1235 18.2825C21.4103 18.2825 21.7396 18.2107 22.1224 18.0756C22.3422 17.998 22.5704 17.9034 22.8484 17.778C22.8562 17.7744 22.8882 17.7597 22.9351 17.7381C23.1103 17.6575 23.4938 17.4811 23.6061 17.433C23.8497 17.3288 24.0101 17.2784 24.1137 17.2784C24.1449 17.2784 24.169 17.2783 24.2292 17.278C24.333 17.2774 24.3822 17.2774 24.4419 17.278C24.968 17.2837 25.2198 17.3593 25.2198 17.5756C25.2198 17.8037 25.0486 18.1225 24.7052 18.5297C24.0285 18.6103 23.6299 18.6099 23.522 18.5333C23.4677 18.4947 23.3661 18.5067 23.175 18.5612C23.136 18.5723 23.0145 18.6102 22.8861 18.6504C22.7546 18.6914 22.6158 18.7348 22.5511 18.7539C22.0197 18.9105 21.5652 18.9944 21.1037 18.9944C20.3163 18.9944 19.4421 18.6887 18.4813 18.0764L18.4509 18.1153C18.8896 18.4082 18.8896 18.5282 18.4663 18.5282C18.3315 18.5282 18.2192 18.531 18.091 18.5365C17.7929 18.5492 17.774 18.5489 17.6991 18.5216Z" fill="#666666"/>
<path d="M17.6569 17.8085L17.5813 17.7424C17.7518 17.5793 17.9776 17.5381 18.2495 17.618C18.3553 17.6491 19.0444 18.0032 19.2285 18.0863C19.9011 18.3898 20.5414 18.5593 21.2215 18.5593C22.1992 18.5593 23.1436 18.2849 24.0521 17.7378C24.3954 17.4904 24.6102 17.4904 24.6102 17.7754H24.5057C24.5057 17.6054 24.4048 17.6054 24.1132 17.8154C23.1844 18.3748 22.2202 18.655 21.2215 18.655C20.5231 18.655 19.8681 18.4815 19.1823 18.1721C18.9894 18.085 18.3116 17.7367 18.2176 17.7091C17.9819 17.6399 17.7981 17.6733 17.6569 17.8085Z" fill="#565757"/>
<path fill-rule="evenodd" clip-rule="evenodd" d="M21.5517 8.9436L21.3481 8.9445C21.353 9.68703 21.166 10.1561 20.8017 10.3575C20.773 10.3734 20.737 10.3924 20.6976 10.4127C20.6631 10.3302 20.6184 10.2306 20.5612 10.1059L20.5431 10.0664C20.3268 9.59343 20.2786 9.37528 20.3896 9.317L20.2795 9.17737C20.0347 9.30589 20.0875 9.54518 20.3524 10.1244L20.3706 10.1641C20.4363 10.3075 20.4848 10.4164 20.5197 10.5028L20.4978 10.5138C20.4868 10.5193 20.4761 10.5246 20.4656 10.5299C20.3598 10.4821 20.2374 10.4581 20.0979 10.4581C19.4502 10.4581 19.0016 10.3073 18.7408 10.0089L18.5751 10.1053C18.8783 10.4523 19.3896 10.6241 20.0979 10.6241C20.1557 10.6241 20.2099 10.6303 20.2605 10.6427C20.1574 10.7208 20.1436 10.8027 20.1436 11.0843C20.1436 11.2605 20.1864 11.4943 20.2719 11.7866C20.2061 11.7117 20.1448 11.6763 20.0825 11.6763V11.8424C20.0735 11.8424 20.0676 11.8412 20.0652 11.8407L20.0643 11.8405C20.0704 11.8446 20.079 11.852 20.0893 11.8627C20.1178 11.8922 20.1525 11.9397 20.1921 12.0044C20.2749 12.1393 20.3765 12.3444 20.4963 12.6187L20.559 12.6005L20.5639 12.6128L20.5975 12.6039V12.6089H20.6619L20.6629 12.6549L20.8663 12.6512C20.8659 12.6336 20.8655 12.6163 20.8653 12.5991L20.9034 12.6029C20.9447 12.3317 20.9688 12.0855 20.9754 11.8648C21.0467 11.6892 21.1522 11.5622 21.2901 11.4831C21.6375 11.2839 21.8414 11.0924 21.8971 10.9024L21.6992 10.8638C21.6574 11.006 21.4837 11.1692 21.1731 11.3472C21.0963 11.3912 21.0285 11.4455 20.9693 11.5099C20.9497 11.237 20.894 11.0163 20.8011 10.8489V10.8C20.8011 10.7326 20.7899 10.6668 20.7602 10.5768C20.818 10.5473 20.8731 10.5186 20.9159 10.495C21.3499 10.255 21.5569 9.73589 21.5517 8.9436ZM20.4521 10.7319C20.5076 10.7731 20.5561 10.8263 20.5975 10.8916V12.139C20.4305 11.6687 20.3472 11.3163 20.3472 11.0843C20.3472 10.8243 20.3555 10.7914 20.4233 10.7476C20.4275 10.7448 20.4376 10.7394 20.4521 10.7319ZM20.0622 11.8393L20.0632 11.8398L20.0644 11.8408L20.0622 11.8393Z" fill="#984800"/>
<path fill-rule="evenodd" clip-rule="evenodd" d="M22.1061 9.0853C21.9522 9.12546 21.7548 9.1354 21.5451 9.10588C21.3133 9.07324 21.1124 8.99881 20.9785 8.90612C20.9867 8.92919 20.9907 8.95284 20.9903 8.9769C20.9858 9.20611 20.5721 9.38557 20.0663 9.37772C19.5606 9.36987 19.1542 9.17769 19.1587 8.94848C19.1632 8.71926 19.5769 8.53981 20.0826 8.54766C20.3868 8.55238 20.6551 8.62378 20.8196 8.72982C20.8052 8.69465 20.8004 8.65899 20.8067 8.62369C20.843 8.4199 21.2325 8.30539 21.6766 8.36791C22.1207 8.43043 22.4513 8.64632 22.415 8.8501C22.4084 8.88709 22.3902 8.92114 22.3621 8.95172C22.5808 8.89575 22.882 8.90895 23.1895 9.00307C23.7209 9.16572 24.07 9.50844 23.9693 9.76855C23.8685 10.0287 23.356 10.1077 22.8246 9.94502C22.7606 9.92545 22.6993 9.90327 22.6411 9.87894C22.4978 10.0767 22.0955 10.1812 21.65 10.1185C21.1226 10.0443 20.7343 9.76382 20.7828 9.4921C20.8312 9.22039 21.2979 9.06031 21.8253 9.13456C21.9017 9.14532 21.9753 9.16041 22.0449 9.17918C22.0584 9.14464 22.0791 9.1133 22.1061 9.0853ZM19.0574 8.98399C19.1699 9.16445 18.9424 9.46782 18.5491 9.66159C18.1558 9.85536 17.7458 9.86615 17.6333 9.68569C17.5207 9.50524 17.7483 9.20187 18.1416 9.0081C18.5348 8.81433 18.9449 8.80354 19.0574 8.98399ZM20.2874 10.1181C20.2824 10.3702 19.7773 10.5669 19.1591 10.5573C18.541 10.5477 18.0439 10.3355 18.0488 10.0834C18.0538 9.83123 18.5589 9.63461 19.1771 9.6442C19.7952 9.65379 20.2923 9.86596 20.2874 10.1181ZM19.5751 11.8818C20.133 11.8209 20.5598 11.5871 20.5283 11.3595C20.4969 11.132 20.0192 10.9969 19.4613 11.0578C18.9035 11.1187 18.4767 11.3525 18.5081 11.58C18.5396 11.8076 19.0173 11.9427 19.5751 11.8818ZM21.6328 12.1855C22.1257 12.2866 22.577 12.1694 22.6408 11.9237C22.7046 11.678 22.3568 11.3968 21.8639 11.2957C21.3711 11.1945 20.9198 11.3117 20.8559 11.5575C20.7921 11.8032 21.1399 12.0843 21.6328 12.1855ZM22.0677 11.2527C22.8125 11.3814 23.4602 11.2851 23.5143 11.0375C23.5684 10.79 23.0085 10.485 22.2637 10.3563C21.5189 10.2276 20.8712 10.324 20.817 10.5715C20.7629 10.819 21.3228 11.124 22.0677 11.2527Z" fill="#247805"/>
<path fill-rule="evenodd" clip-rule="evenodd" d="M16.7758 12.9392C16.7758 12.9392 16.4238 15.9094 16.4238 16.3119C16.4238 16.7145 17.0716 16.3119 17.0716 16.3119C17.0716 16.3119 17.1667 14.8935 17.3873 14.3666C17.608 13.8397 17.7121 14.4186 17.7121 14.7262C17.7121 15.0339 17.7121 16.473 17.7121 16.473C17.7121 16.473 18.5182 16.5706 18.5182 16.3119C18.5182 16.0533 18.1828 12.9392 18.1828 12.9392H16.9635H16.7758Z" fill="white"/>
<path fill-rule="evenodd" clip-rule="evenodd" d="M16.731 12.8974L16.7265 12.9351C16.4915 14.9177 16.3743 16.0414 16.3743 16.3119C16.3743 16.6303 16.6427 16.6303 17.101 16.3455L17.1198 16.3339L17.1211 16.3142C17.1842 15.3724 17.289 14.727 17.4341 14.3805C17.5215 14.1717 17.5469 14.1624 17.5862 14.2484C17.6322 14.349 17.6625 14.5542 17.6625 14.7262V16.5092L17.705 16.5143C18.2705 16.5828 18.5678 16.5233 18.5678 16.3119C18.5678 16.201 18.5096 15.5892 18.4108 14.6305L18.3999 14.5249C18.3632 14.1701 18.3239 13.7961 18.2846 13.4261L18.2466 13.0698L18.2359 12.9705L18.2322 12.9354L18.2281 12.8974H16.731ZM17.0234 16.2899C16.6318 16.5301 16.4734 16.5268 16.4734 16.3119C16.4734 16.0474 16.5893 14.9352 16.8206 12.981H18.1375L18.1478 13.0773L18.1858 13.4336C18.2251 13.8035 18.2644 14.1775 18.3011 14.5322L18.312 14.6377C18.4101 15.5894 18.4686 16.2049 18.4686 16.3119C18.4686 16.4415 18.2419 16.4905 17.7616 16.4366V14.7262C17.7616 14.5449 17.7299 14.3306 17.6787 14.2184C17.594 14.0331 17.4526 14.0852 17.3406 14.3527C17.1925 14.7063 17.0872 15.3512 17.0234 16.2899Z" fill="#979797"/>
<path fill-rule="evenodd" clip-rule="evenodd" d="M15.6075 11.9176C15.6075 11.9176 15.884 12.8021 16.0064 12.8021C16.1287 12.8021 16.8715 12.2594 16.8715 12.2594V12.9961H18.2556V12.6698L18.4331 12.9961L18.6751 12.8955L19.0938 12.4568H18.6751C18.6751 12.4568 18.5535 11.7524 18.5535 11.641C18.5535 11.5296 18.5584 11.3093 18.2556 11.2295C17.9527 11.1497 17.8041 11.0085 17.8041 11.0085C17.8041 11.0085 18.4563 10.1783 17.9597 10.1783C17.4631 10.1783 17.2383 10.2847 17.2383 10.2847C17.2383 10.2847 17.2383 10.7777 17.2383 10.8931C17.2383 11.0085 16.5259 10.8718 16.5259 11.2295C16.5259 11.5872 16.1936 11.9176 16.1936 11.9176L16.1091 11.6781L15.6075 11.9176Z" fill="#FF863B"/>
<path fill-rule="evenodd" clip-rule="evenodd" d="M17.7002 10.3829C17.9738 10.3829 18.1957 10.286 18.1957 10.1664C18.1957 10.0469 17.9738 9.94998 17.7002 9.94998C17.4265 9.94998 17.2046 10.0469 17.2046 10.1664C17.2046 10.286 17.4265 10.3829 17.7002 10.3829Z" fill="black"/>
<path d="M15.203 12.2599L14.9794 12.0947C15.4103 11.68 15.8898 11.3783 16.4174 11.191C16.9169 11.0137 17.5698 10.7306 18.3747 10.3421L18.5225 10.5596C17.708 10.9527 17.0452 11.2401 16.5328 11.422C16.0484 11.594 15.6053 11.8728 15.203 12.2599Z" fill="#740000"/>
<path fill-rule="evenodd" clip-rule="evenodd" d="M18.3651 10.4331L18.5529 11.2173L19.3869 10.8252L18.7301 10.1764L18.3651 10.4331Z" fill="#F9FCFF" stroke="#6C6C6C" stroke-width="0.5"/>
<path fill-rule="evenodd" clip-rule="evenodd" d="M25.3417 13.3069C25.3417 13.3069 25.6908 16.4069 25.6908 16.827C25.6908 17.2471 25.0483 16.827 25.0483 16.827C25.0483 16.827 24.9539 15.3466 24.7351 14.7967C24.5162 14.2467 24.413 14.8509 24.413 15.172C24.413 15.4931 24.413 16.9951 24.413 16.9951C24.413 16.9951 23.6133 17.097 23.6133 16.827C23.6133 16.5571 23.946 13.3069 23.946 13.3069H25.1555H25.3417Z" fill="white"/>
<path fill-rule="evenodd" clip-rule="evenodd" d="M25.3861 13.2634L25.3905 13.3026C25.6235 15.3719 25.7399 16.5447 25.7399 16.827C25.7399 17.1594 25.4737 17.1594 25.019 16.8621L25.0004 16.85L24.9991 16.8295C24.9364 15.8465 24.8325 15.1728 24.6886 14.8112C24.6019 14.5933 24.5768 14.5836 24.5377 14.6734C24.4921 14.7784 24.462 14.9926 24.462 15.172V17.0329L24.4199 17.0383C23.859 17.1097 23.5641 17.0477 23.5641 16.827C23.5641 16.7113 23.6218 16.0727 23.7198 15.0721L23.7306 14.962C23.767 14.5917 23.806 14.2013 23.845 13.8151L23.8827 13.4432L23.8933 13.3396L23.897 13.303L23.9011 13.2634H25.3861ZM25.096 16.804C25.4844 17.0548 25.6416 17.0513 25.6416 16.8271C25.6416 16.551 25.5266 15.3902 25.2971 13.3506H23.9909L23.9806 13.4511L23.943 13.8229C23.904 14.209 23.865 14.5994 23.8286 14.9696L23.8178 15.0797C23.7205 16.0729 23.6624 16.7154 23.6624 16.8271C23.6624 16.9624 23.8874 17.0135 24.3638 16.9572V15.1721C24.3638 14.9828 24.3952 14.7591 24.446 14.6421C24.53 14.4487 24.6703 14.5031 24.7814 14.7822C24.9282 15.1513 25.0327 15.8244 25.096 16.804Z" fill="#979797"/>
<path fill-rule="evenodd" clip-rule="evenodd" d="M26.5248 12.178C26.5248 12.178 26.2506 13.1011 26.1292 13.1011C26.0078 13.1011 25.271 12.5346 25.271 12.5346V13.3036H23.8982V12.963L23.7221 13.3036L23.482 13.1986L23.0667 12.7408H23.482C23.482 12.7408 23.6026 12.0056 23.6026 11.8893C23.6026 11.773 23.5978 11.543 23.8982 11.4598C24.1986 11.3765 24.346 11.2291 24.346 11.2291C24.346 11.2291 23.6991 10.3626 24.1917 10.3626C24.6842 10.3626 24.9072 10.4737 24.9072 10.4737C24.9072 10.4737 24.9072 10.9882 24.9072 11.1087C24.9072 11.2291 25.6139 11.0865 25.6139 11.4598C25.6139 11.8331 25.9434 12.178 25.9434 12.178L26.0273 11.928L26.5248 12.178Z" fill="#824028"/>
<path fill-rule="evenodd" clip-rule="evenodd" d="M24.449 10.5762C24.1775 10.5762 23.9574 10.475 23.9574 10.3502C23.9574 10.2255 24.1775 10.1243 24.449 10.1243C24.7205 10.1243 24.9406 10.2255 24.9406 10.3502C24.9406 10.475 24.7205 10.5762 24.449 10.5762Z" fill="black"/>
<path d="M27.2159 12.3456L24.2091 10.9525C24.2091 10.9525 24.1534 10.4846 23.5727 10.3437C22.992 10.2028 22.5289 9.98474 22.5289 9.98474L22.2645 10.3437C22.2645 10.3437 21.7935 10.2332 23.5727 10.9525C25.3519 11.6719 23.5057 10.5626 24.0115 10.9525L27.2159 12.3456Z" fill="#BA611F"/>
</g>
</g>
</g>
<defs>
<filter id="filter0_dd_5_10715" x="0" y="0" width="42" height="30" filterUnits="userSpaceOnUse" color-interpolation-filters="sRGB">
<feFlood flood-opacity="0" result="BackgroundImageFix"/>
<feColorMatrix in="SourceAlpha" type="matrix" values="0 0 0 0 0 0 0 0 0 0 0 0 0 0 0 0 0 0 127 0" result="hardAlpha"/>
<feOffset dy="1"/>
<feGaussianBlur stdDeviation="1"/>
<feColorMatrix type="matrix" values="0 0 0 0 0.0627451 0 0 0 0 0.0941176 0 0 0 0 0.156863 0 0 0 0.06 0"/>
<feBlend mode="normal" in2="BackgroundImageFix" result="effect1_dropShadow_5_10715"/>
<feColorMatrix in="SourceAlpha" type="matrix" values="0 0 0 0 0 0 0 0 0 0 0 0 0 0 0 0 0 0 127 0" result="hardAlpha"/>
<feOffset dy="1"/>
<feGaussianBlur stdDeviation="1.5"/>
<feColorMatrix type="matrix" values="0 0 0 0 0.0627451 0 0 0 0 0.0941176 0 0 0 0 0.156863 0 0 0 0.1 0"/>
<feBlend mode="normal" in2="effect1_dropShadow_5_10715" result="effect2_dropShadow_5_10715"/>
<feBlend mode="normal" in="SourceGraphic" in2="effect2_dropShadow_5_10715" result="shape"/>
</filter>
</defs>
</svg>
