<svg width="42" height="30" viewBox="0 0 42 30" fill="none" xmlns="http://www.w3.org/2000/svg">
<g filter="url(#filter0_dd_5_7870)">
<mask id="mask0_5_7870" style="mask-type:alpha" maskUnits="userSpaceOnUse" x="3" y="2" width="36" height="24">
<rect x="3" y="2" width="36" height="24" fill="white"/>
</mask>
<g mask="url(#mask0_5_7870)">
<path fill-rule="evenodd" clip-rule="evenodd" d="M3 2V26H39V2H3Z" fill="#F7FCFF"/>
<mask id="mask1_5_7870" style="mask-type:alpha" maskUnits="userSpaceOnUse" x="3" y="2" width="36" height="24">
<path fill-rule="evenodd" clip-rule="evenodd" d="M3 2V26H39V2H3Z" fill="white"/>
</mask>
<g mask="url(#mask1_5_7870)">
<path fill-rule="evenodd" clip-rule="evenodd" d="M3 2V10H39V2H3Z" fill="#FECA00"/>
<path fill-rule="evenodd" clip-rule="evenodd" d="M3 18V26H39V18H3Z" fill="#009933"/>
<path d="M3 9H2V10V18V19H3H39H40V18V10V9H39H3Z" fill="#272727" stroke="white" stroke-width="2"/>
</g>
<path fill-rule="evenodd" clip-rule="evenodd" d="M3 2V26L23.25 14L3 2Z" fill="#F50100"/>
<mask id="mask2_5_7870" style="mask-type:alpha" maskUnits="userSpaceOnUse" x="3" y="2" width="21" height="24">
<path fill-rule="evenodd" clip-rule="evenodd" d="M3 2V26L23.25 14L3 2Z" fill="white"/>
</mask>
<g mask="url(#mask2_5_7870)">
<path fill-rule="evenodd" clip-rule="evenodd" d="M12.0774 16.3532L7.82609 19.4037L9.77614 15.3271L6.42542 12.4588H10.3805L12.0034 9L13.7271 12.4588H17.6754L14.1477 15.3271L15.9132 19.4037L12.0774 16.3532Z" fill="#FECA00"/>
<path fill-rule="evenodd" clip-rule="evenodd" d="M9.92536 13.9842L9.20435 16.1246C9.20435 16.1246 11.6384 16.1032 11.9308 16.3218C12.8117 15.8336 14.6251 16.1246 14.6251 16.1246L13.6606 13.8339C13.6606 13.8339 12.4376 13.3413 11.9308 13.6114C10.6885 13.3619 9.92536 13.9842 9.92536 13.9842Z" fill="#F7FCFF"/>
<path d="M16.0093 17.2162C16.1962 17.4368 16.1465 17.7503 15.8983 17.9164C15.6501 18.0825 15.2975 18.0383 15.1106 17.8177L10.408 12.2665C10.2211 12.0459 10.2708 11.7324 10.519 11.5663C10.7671 11.4002 11.1198 11.4444 11.3067 11.665L16.0093 17.2162Z" fill="black"/>
<path d="M10.8458 11.8397L10.3958 11.3597" stroke="black" stroke-linecap="round" stroke-linejoin="round"/>
<path fill-rule="evenodd" clip-rule="evenodd" d="M9.30525 11.3625L7.94568 13.2979L8.62547 14.3446L10.1804 12.2903L10.4601 11.6551L10.1804 11.3625H9.30525Z" fill="black"/>
<path fill-rule="evenodd" clip-rule="evenodd" d="M7.54382 17.1085L8.19927 17.9303L13.2568 12.6112L13.4666 12.8196L14.6325 11.8447L16.4957 10.043L14.6325 11.3966L14.0299 11.248L13.4666 12.0346H12.9016L8.77047 16.1223L7.54382 17.1085Z" fill="black"/>
</g>
</g>
</g>
<defs>
<filter id="filter0_dd_5_7870" x="0" y="0" width="42" height="30" filterUnits="userSpaceOnUse" color-interpolation-filters="sRGB">
<feFlood flood-opacity="0" result="BackgroundImageFix"/>
<feColorMatrix in="SourceAlpha" type="matrix" values="0 0 0 0 0 0 0 0 0 0 0 0 0 0 0 0 0 0 127 0" result="hardAlpha"/>
<feOffset dy="1"/>
<feGaussianBlur stdDeviation="1"/>
<feColorMatrix type="matrix" values="0 0 0 0 0.0627451 0 0 0 0 0.0941176 0 0 0 0 0.156863 0 0 0 0.06 0"/>
<feBlend mode="normal" in2="BackgroundImageFix" result="effect1_dropShadow_5_7870"/>
<feColorMatrix in="SourceAlpha" type="matrix" values="0 0 0 0 0 0 0 0 0 0 0 0 0 0 0 0 0 0 127 0" result="hardAlpha"/>
<feOffset dy="1"/>
<feGaussianBlur stdDeviation="1.5"/>
<feColorMatrix type="matrix" values="0 0 0 0 0.0627451 0 0 0 0 0.0941176 0 0 0 0 0.156863 0 0 0 0.1 0"/>
<feBlend mode="normal" in2="effect1_dropShadow_5_7870" result="effect2_dropShadow_5_7870"/>
<feBlend mode="normal" in="SourceGraphic" in2="effect2_dropShadow_5_7870" result="shape"/>
</filter>
</defs>
</svg>
