<svg width="42" height="30" viewBox="0 0 42 30" fill="none" xmlns="http://www.w3.org/2000/svg">
<g filter="url(#filter0_dd_5_8414)">
<mask id="mask0_5_8414" style="mask-type:alpha" maskUnits="userSpaceOnUse" x="3" y="2" width="36" height="24">
<rect x="3" y="2" width="36" height="24" fill="white"/>
</mask>
<g mask="url(#mask0_5_8414)">
<path fill-rule="evenodd" clip-rule="evenodd" d="M39 2H3V8H39V2ZM39 20H3V26H39V20Z" fill="#F50101"/>
<path fill-rule="evenodd" clip-rule="evenodd" d="M3 8H39V20H3V8Z" fill="#F7FCFF"/>
<path fill-rule="evenodd" clip-rule="evenodd" d="M27.2043 14.5132C27.2882 15.3806 23.6872 14.1534 23.6872 14.5007C23.6872 14.8479 27.5447 15.4577 27.5383 16.2351C27.5318 17.0125 22.9643 16.0133 23.9886 16.3629C25.0128 16.7125 27.212 17.5494 26.962 18.0709C26.4282 19.1844 22.8827 17.2983 22.5878 17.6702C22.1119 18.2699 25.2042 19.6688 25.178 19.8025C25.1276 20.0589 23.066 19.3996 22.5878 19.9319C22.2007 19.8349 22.0217 19.3715 21.9015 19.31L21.1406 10.5866C21.1406 10.5866 21.8238 18.8 20.9509 19.0362C20.078 19.2725 17.6531 19.9907 17.5825 19.632C17.5563 19.4983 20.5022 18.2699 20.0263 17.6702C19.6758 17.2282 16.1206 18.7955 15.8938 17.8879C14.8834 17.2405 19.1661 16.6802 19.1661 16.0181C19.1661 15.3559 15.2482 16.8018 15.7169 15.8801C16.1856 14.9583 19.3222 14.6283 19.3807 14.5007C19.4877 14.2672 15.8938 14.8641 15.8938 14.5007C15.8938 13.813 18.045 13.6777 19.3807 13.0588C19.4597 12.3526 16.1404 13.754 15.8938 13.1879C15.6472 12.6218 20.1363 11.1552 20.0263 11.0409C19.8526 10.8605 16.2347 11.6746 16.8314 11.2471C17.9893 10.4173 20.2496 9.28891 20.7697 8.98793C20.7697 8.98793 20.8323 8.87436 20.8993 8.9129C20.9664 8.87436 21.0401 8.83215 21.0401 8.83215C21.0401 8.83215 21.0401 9.54218 21.029 8.98793C21.0179 8.43367 26.3273 10.8589 26.3876 11.4737C26.4578 12.192 23.107 10.9323 23.1858 11.6385C23.8669 12.0136 25.8043 12.7396 26.6047 13.0588C26.9678 13.2036 23.9297 12.7523 23.9939 12.9739C24.1574 13.5385 27.1168 13.6086 27.2043 14.5132Z" fill="#52AB0B"/>
</g>
</g>
<defs>
<filter id="filter0_dd_5_8414" x="0" y="0" width="42" height="30" filterUnits="userSpaceOnUse" color-interpolation-filters="sRGB">
<feFlood flood-opacity="0" result="BackgroundImageFix"/>
<feColorMatrix in="SourceAlpha" type="matrix" values="0 0 0 0 0 0 0 0 0 0 0 0 0 0 0 0 0 0 127 0" result="hardAlpha"/>
<feOffset dy="1"/>
<feGaussianBlur stdDeviation="1"/>
<feColorMatrix type="matrix" values="0 0 0 0 0.0627451 0 0 0 0 0.0941176 0 0 0 0 0.156863 0 0 0 0.06 0"/>
<feBlend mode="normal" in2="BackgroundImageFix" result="effect1_dropShadow_5_8414"/>
<feColorMatrix in="SourceAlpha" type="matrix" values="0 0 0 0 0 0 0 0 0 0 0 0 0 0 0 0 0 0 127 0" result="hardAlpha"/>
<feOffset dy="1"/>
<feGaussianBlur stdDeviation="1.5"/>
<feColorMatrix type="matrix" values="0 0 0 0 0.0627451 0 0 0 0 0.0941176 0 0 0 0 0.156863 0 0 0 0.1 0"/>
<feBlend mode="normal" in2="effect1_dropShadow_5_8414" result="effect2_dropShadow_5_8414"/>
<feBlend mode="normal" in="SourceGraphic" in2="effect2_dropShadow_5_8414" result="shape"/>
</filter>
</defs>
</svg>
