<svg width="42" height="30" viewBox="0 0 42 30" fill="none" xmlns="http://www.w3.org/2000/svg">
<g filter="url(#filter0_dd_5_9534)">
<mask id="mask0_5_9534" style="mask-type:alpha" maskUnits="userSpaceOnUse" x="3" y="2" width="36" height="24">
<rect x="3" y="2" width="36" height="24" fill="white"/>
</mask>
<g mask="url(#mask0_5_9534)">
<path fill-rule="evenodd" clip-rule="evenodd" d="M3 2.09998H39V26.1H3V2.09998Z" fill="#2B409A"/>
</g>
<rect x="3" y="2" width="20.25" height="14" fill="#2B409A"/>
<mask id="mask1_5_9534" style="mask-type:alpha" maskUnits="userSpaceOnUse" x="3" y="2" width="21" height="14">
<rect x="3" y="2" width="20.25" height="14" fill="white"/>
</mask>
<g mask="url(#mask1_5_9534)">
<path d="M0.745239 14.9998L5.20131 16.737L23.3512 3.88872L25.7016 1.30719L20.9365 0.726566L13.5336 6.26326L7.57505 9.99369L0.745239 14.9998Z" fill="#F7FCFF"/>
<path d="M1.35522 16.2169L3.62539 17.225L24.8575 1.06732H21.67L1.35522 16.2169Z" fill="#F50100"/>
<path d="M25.5048 14.9998L21.0487 16.737L2.89885 3.88872L0.54837 1.30719L5.3135 0.726566L12.7164 6.26326L18.6749 9.99369L25.5048 14.9998Z" fill="#F7FCFF"/>
<path d="M25.3528 15.8733L23.0826 16.8815L14.0418 9.96351L11.3613 9.19059L0.322273 1.31605H3.50984L14.5427 9.00368L17.4733 9.9305L25.3528 15.8733Z" fill="#F50100"/>
<mask id="path-10-outside-1_5_9534" maskUnits="userSpaceOnUse" x="1" y="0" width="24" height="18" fill="black">
<rect fill="white" x="1" width="24" height="18"/>
<path fill-rule="evenodd" clip-rule="evenodd" d="M14.2326 2H11.9826V8H3V10H11.9826V16H14.2326V10H23.25V8H14.2326V2Z"/>
</mask>
<path fill-rule="evenodd" clip-rule="evenodd" d="M14.2326 2H11.9826V8H3V10H11.9826V16H14.2326V10H23.25V8H14.2326V2Z" fill="#F50100"/>
<path d="M11.9826 2V0.5H10.4826V2H11.9826ZM14.2326 2H15.7326V0.5H14.2326V2ZM11.9826 8V9.5H13.4826V8H11.9826ZM3 8V6.5H1.5V8H3ZM3 10H1.5V11.5H3V10ZM11.9826 10H13.4826V8.5H11.9826V10ZM11.9826 16H10.4826V17.5H11.9826V16ZM14.2326 16V17.5H15.7326V16H14.2326ZM14.2326 10V8.5H12.7326V10H14.2326ZM23.25 10V11.5H24.75V10H23.25ZM23.25 8H24.75V6.5H23.25V8ZM14.2326 8H12.7326V9.5H14.2326V8ZM11.9826 3.5H14.2326V0.5H11.9826V3.5ZM13.4826 8V2H10.4826V8H13.4826ZM3 9.5H11.9826V6.5H3V9.5ZM4.5 10V8H1.5V10H4.5ZM11.9826 8.5H3V11.5H11.9826V8.5ZM13.4826 16V10H10.4826V16H13.4826ZM14.2326 14.5H11.9826V17.5H14.2326V14.5ZM12.7326 10V16H15.7326V10H12.7326ZM23.25 8.5H14.2326V11.5H23.25V8.5ZM21.75 8V10H24.75V8H21.75ZM14.2326 9.5H23.25V6.5H14.2326V9.5ZM12.7326 2V8H15.7326V2H12.7326Z" fill="#F7FCFF" mask="url(#path-10-outside-1_5_9534)"/>
</g>
<path d="M30.3578 20.5514C30.2886 20.5514 30.0378 20.4313 30.0378 20.4313C30.0378 20.4313 29.8561 20.687 29.7609 20.7017C29.6657 20.7168 29.1726 20.5442 29.1726 20.5442C29.1726 20.5442 28.8267 20.7844 28.7488 20.7693C28.6709 20.7546 27.8751 20.6043 27.8751 20.6043L27.4426 20.3637C27.4426 20.3637 27.2004 20.7093 27.1917 20.7017C27.1831 20.6942 26.4651 20.5741 26.4651 20.5741C26.4651 20.5741 26.6814 20.3112 26.6814 20.3037C26.6814 20.2961 26.5776 20.2659 26.5776 20.2659L26.4219 20.3788L25.7817 20.4313L25.9375 20.0405L26.1883 19.71L29.2592 17.1176L30.773 19.5446L30.5482 20.2735C30.5482 20.2735 30.4269 20.5514 30.3578 20.5514Z" fill="#6A4C2D"/>
<path d="M27.4243 20.0609C27.5312 20.1758 28.9403 21.4561 29.1687 22.0618C29.3971 22.6675 27.3158 21.8938 27.3158 21.8938C27.3158 21.8938 29.9366 20.3807 31.2458 20.3807C32.5549 20.3807 35.128 21.8938 35.128 21.8938C35.128 21.8938 33.4014 22.9747 33.4191 22.2932C33.4368 21.6116 34.2296 20.2691 35.1757 20.0609" stroke="#FFBB00" stroke-width="0.5" stroke-linecap="round" stroke-linejoin="round"/>
<path d="M36.2346 20.16L35.8042 20.0175L35.423 19.5689L33.8448 19.4657L32.4059 19.1167L31.7992 19.4764L32.1259 19.8556L32.9242 20.1167L36.2346 20.16Z" fill="#F7FCFF"/>
<path d="M29.9313 11.8661C29.9459 11.8989 30.2677 11.8408 30.3361 12.0121C30.6825 11.5575 31.089 11.9911 31.089 11.9911L31.4311 11.631L31.8173 11.9562L32.1717 11.9316L32.542 12.7042L29.6198 12.6555C29.6198 12.6555 29.9166 11.8333 29.9313 11.8661Z" fill="#656263"/>
<path d="M32.9604 15.1539C32.9369 14.9093 32.6929 14.8807 32.5568 14.8888C32.4204 14.897 32.2984 14.9989 32.2984 14.9989L31.8477 14.7502C31.8477 14.7502 32.0732 13.5145 32.3125 13.4371C32.5398 13.2947 32.58 13.233 32.58 13.2007C32.58 13.168 32.4957 13.0356 32.4957 13.0356L31.026 12.8846L29.6364 13.0274C29.6364 13.0274 29.5285 13.2208 29.5426 13.278C29.5567 13.3349 29.5614 13.3962 29.8101 13.5635C30.0856 13.7475 30.2749 14.8033 30.2749 14.8033C30.2749 14.8033 29.8854 14.9703 29.8619 14.9498C29.8384 14.9297 29.7211 14.9093 29.6599 14.9174C29.5991 14.9256 29.3971 15.0152 29.3971 15.2476C29.3971 15.4803 29.5991 15.6149 29.5991 15.6149C29.5991 15.6149 30.9276 16.4803 31.1248 16.7982C31.3174 16.4149 32.58 15.5495 32.7302 15.484C32.7914 15.4517 32.984 15.3985 32.9604 15.1539Z" fill="#656263"/>
<path d="M34.2863 14.0015C34.3967 13.9377 35.1319 13.9056 35.3085 14.0015C35.4848 14.0974 35.5511 14.57 35.5511 14.57C35.5511 14.57 35.6615 14.736 35.6687 14.8574C35.6759 14.9788 35.6908 15.0618 35.6908 15.0618C35.6908 15.0618 36.279 15.7262 36.2862 16.3264C36.3525 16.7352 36.3377 17.8272 36.1541 18.2423C36.1465 18.7598 35.8968 19.0981 35.8968 19.0981C35.8968 19.0981 35.9554 19.1874 35.9482 19.2833C35.9406 19.3792 35.8819 19.4685 35.8819 19.4685L35.3306 19.6792L34.7203 19.5899L34.0289 17.7951L34.1907 14.7615L34.2349 14.6084L34.1614 14.1996C34.1614 14.1996 34.1763 14.0654 34.2863 14.0015Z" fill="black"/>
<path d="M30.2948 15.5941C30.2948 15.5941 31.0387 15.5941 31.1191 15.8038C31.2599 15.5243 31.9031 15.5419 31.9031 15.5419C32.2919 15.5303 32.6806 15.5187 33.0691 15.507C33.0759 16.322 33.0824 17.137 33.0893 17.952C32.8616 18.9007 32.0707 19.5704 31.1994 19.8556C30.1605 19.5644 29.5039 18.8019 29.2896 17.9344C29.2491 17.1603 29.2089 16.3859 29.1687 15.6117C29.5441 15.6058 29.9195 15.6001 30.2948 15.5941Z" fill="#F7FCFF"/>
<path d="M29.5697 15.6026L31.2098 19.399L32.6914 15.5199C32.2317 15.5457 31.2457 15.457 31.1233 15.8211C30.9336 15.4954 29.8962 15.6268 29.5697 15.6026V15.6026Z" fill="#006B00"/>
<path fill-rule="evenodd" clip-rule="evenodd" d="M31.4709 16.1979C31.4709 16.1979 31.6201 16.5439 31.4709 16.7151C31.3218 16.8863 31.4833 17.0266 31.5732 17.0266C31.6632 17.0266 31.9721 17.2985 31.7215 17.2985C31.4709 17.2985 31.3294 17.2139 31.3294 17.4529C31.3294 17.6919 31.6756 18.7681 31.5732 19.0261C31.4709 19.2842 31.4964 19.4817 31.6432 19.4161C31.79 19.3505 31.8818 19.1819 31.8016 18.8572C31.7215 18.5326 31.6432 18.6092 31.6432 18.3286C31.6432 18.048 31.7215 17.7357 31.7215 17.7357C31.7215 17.7357 31.8532 17.8235 31.7595 18.1438C31.6658 18.4641 31.8755 18.906 31.8755 19.0261C31.8755 19.1463 31.8818 19.477 31.8016 19.5098C31.7215 19.5426 31.6479 19.7423 31.5732 19.5901C31.4985 19.4379 31.4517 19.1869 31.356 19.3596C31.2603 19.5323 31.2787 19.9294 31.1792 19.9485C31.0796 19.9677 30.9309 20.1559 30.9309 20.0803C30.9309 20.0048 30.7907 19.8683 30.8334 19.7412C30.8761 19.614 30.9135 19.5991 30.9481 19.721C30.9827 19.8429 31.1282 19.8417 31.1282 19.7412C31.1282 19.6406 31.0772 19.6897 31.1282 19.4608C31.1792 19.2318 31.2358 18.9289 31.1282 18.9471C31.0206 18.9653 30.8554 19.1143 30.8334 18.8394C30.8113 18.5644 30.7229 18.4357 30.7941 18.3821C30.8653 18.3286 30.9602 18.1373 30.9906 18.2877C31.021 18.4382 30.8872 18.5819 30.909 18.6361C30.9309 18.6903 30.9431 18.8131 31.0356 18.7102C31.1282 18.6074 31.1827 18.4378 31.252 18.595C31.3213 18.7522 31.3227 18.6282 31.1792 18.3286C31.0356 18.0291 30.9136 17.8624 30.9309 17.5995C30.9481 17.3365 30.9249 17.238 30.9481 17.1535C30.9714 17.0689 30.6911 16.6573 30.7622 16.5387C30.8334 16.4202 30.8607 16.0375 30.9481 16.1064C31.0356 16.1753 31.0807 16.2678 31.0356 16.3708C30.9906 16.4738 30.9455 16.5762 30.9906 16.6456C31.0356 16.7151 31.1902 16.9157 31.2211 16.8653C31.252 16.8148 31.356 16.8636 31.356 16.5779C31.356 16.2922 31.2401 16.1917 31.3131 16.1239C31.3862 16.0561 31.4709 16.1979 31.4709 16.1979Z" fill="#FFD100"/>
<path d="M32.7009 15.5205L32.922 15.5158L32.5271 15.9504L33.001 16.4308L32.0688 17.4508L32.9485 18.3702C32.8518 18.5762 32.7396 18.7636 32.5901 18.933L32.0848 18.4479L33.001 17.4555L32.248 16.7144L32.7009 15.5205Z" fill="#1E5AA6"/>
<path d="M29.304 15.612L29.7463 16.028L29.2779 16.5358L30.252 17.4555L29.4463 18.3932C29.5429 18.5991 29.6815 18.8277 29.8307 18.9969L30.31 18.4708L29.3254 17.5194L30.0468 16.7235L29.5411 15.6073L29.304 15.612Z" fill="#1E5AA6"/>
<path d="M30.6366 18.0775L30.2891 18.4799L31.5317 19.7289C31.7511 19.6327 31.9234 19.5229 32.1113 19.3905L31.4633 18.7409L31.7269 18.0684L32.1058 18.4479L30.9211 19.7609C30.7227 19.6877 30.5034 19.5732 30.305 19.4314L30.9316 18.7409L30.6366 18.0775Z" fill="#1E5AA6"/>
<path d="M34.9336 14.8511C34.9336 14.9149 35.0119 18.6832 35.0977 18.6472C35.311 18.5576 35.36 18.7532 35.36 18.7532C35.36 18.7532 35.4335 19.3729 35.2496 19.4559C34.9188 19.609 34.7741 19.6428 34.7741 19.6428L34.4558 19.4367C34.4558 19.4367 34.1322 19.0343 34.0587 18.8554C33.9852 18.6768 33.8969 17.8784 33.9262 17.7058C33.9556 17.5335 33.9776 16.5242 33.9632 16.4732C33.9483 16.422 33.8897 15.579 33.9262 15.4513C33.9632 15.3237 34.1908 14.7615 34.1836 14.7615C34.1836 14.7615 34.9336 14.7873 34.9336 14.8511Z" fill="url(#paint0_linear_5_9534)"/>
<path d="M34.1984 14.2059C34.3526 14.2059 34.4702 14.321 34.5072 14.4232C34.5144 14.4679 34.4923 14.4999 34.4996 14.5829C34.5072 14.6659 33.3821 14.6018 33.3749 14.5955C33.3749 14.5955 33.8969 14.155 34.1984 14.2059Z" fill="#FF7000"/>
<path d="M35.4336 19.6666C35.4336 19.6666 35.7865 19.5962 35.8821 19.4877C35.9411 19.4494 36.2499 19.8902 35.4336 19.6666Z" fill="white" stroke="black" stroke-width="0.5" stroke-linejoin="round"/>
<path d="M34.8476 14.4603C34.8476 14.488 34.8224 14.5103 34.7914 14.5103C34.7603 14.5103 34.7351 14.488 34.7351 14.4603C34.7351 14.4327 34.7603 14.4103 34.7914 14.4103C34.8224 14.4103 34.8476 14.4327 34.8476 14.4603Z" fill="black"/>
<path d="M32.0483 13.9088C32.0483 13.9088 32.634 14.4593 33.013 14.4533C33.0817 14.615 32.8407 14.7653 32.7444 14.837C32.5514 14.7832 32.377 14.8467 31.9292 14.3681C31.9571 14.0628 32.0552 13.9207 32.0483 13.9088Z" fill="#F7FCFF"/>
<path d="M34.3769 11.138C34.432 11.4911 34.3736 11.5731 34.3478 11.7214C34.3219 11.8696 35.3652 11.9244 35.6338 11.631C35.6063 11.7628 35.2931 12.2989 33.8738 12.2929C34.4113 12.7359 33.7019 13.089 33.3985 12.9812C33.9567 12.6102 33.2403 12.3888 32.8407 12.6281C32.9164 12.4246 33.4745 11.4015 34.3769 11.138Z" fill="#F7FCFF"/>
<path fill-rule="evenodd" clip-rule="evenodd" d="M33.4316 13.6166C33.3251 13.2277 33.2737 12.781 33.5089 12.6102C33.1987 12.4247 32.8613 12.6161 32.8613 12.6161C32.859 12.6208 32.8527 12.6286 32.8437 12.6397C32.7716 12.7283 32.5305 13.0244 32.8613 13.5563C31.9795 13.3529 32.3485 14.0644 32.4136 14.1182C32.448 14.0043 32.9164 13.8968 33.0336 14.4773C33.073 14.5949 32.8355 14.7645 32.7593 14.8189C32.7424 14.831 32.7334 14.8374 32.7372 14.8363C32.7372 14.8363 33.4834 14.971 33.5799 14.0946C33.7079 14.0269 34.3266 13.6601 34.3077 12.9035C33.7392 12.9139 33.4878 13.4706 33.4316 13.6166Z" fill="#0000FF"/>
<path d="M30.0986 14.0644C30.0986 14.0644 29.527 14.4952 29.2031 14.3574C28.962 14.4832 28.6796 14.2619 28.6796 14.2619C28.6796 14.2619 29.0101 15.3209 30.1953 14.5549C30.1746 14.3216 30.1124 14.0823 30.0986 14.0644Z" fill="#F7FCFF"/>
<path d="M29.1961 14.3396C29.2442 14.1182 29.444 14.0103 29.6026 14.2198C29.8162 14.2559 30.0297 13.4959 29.2717 13.6214C29.4853 12.6281 28.8448 12.2571 28.8448 12.2571C28.8448 12.2571 28.6175 13.3582 28.7208 13.5617C28.8241 13.7651 28.5692 13.1846 27.7494 13.023C27.7356 13.855 28.6657 14.244 28.6657 14.244C28.6657 14.244 28.9275 14.4534 29.1961 14.3396Z" fill="#0000FF"/>
<path d="M28.4211 13.1388C28.18 13.2045 27.5936 12.8903 27.9656 12.4831C26.7463 12.4592 26.0824 11.5435 26.4888 11.7181C26.8952 11.8927 27.1856 11.5207 27.4887 11.7181C27.1167 11.4191 27.6185 11.1798 27.6185 11.1798C27.6185 11.1798 28.6588 11.4493 28.8448 12.2511C28.7828 12.4067 28.7552 12.6818 28.7415 12.6699C28.7415 12.6639 28.0973 12.6599 28.4211 13.1388Z" fill="#F7FCFF"/>
<path d="M30.3679 9.43122C30.3733 9.40377 31.1527 9.16583 31.2051 8.77249C31.2576 8.37915 31.1946 8.64439 31.1946 8.64439C31.1946 8.64439 31.4107 8.46602 31.3318 8.36993C31.2526 8.27388 31.279 8.49347 31.1527 8.48888C31.0263 8.48429 31.0947 8.25101 31.0947 8.25101C31.0947 8.25101 31.0842 8.22356 31.0473 8.20984C30.9945 8.21441 30.8736 8.11377 30.8736 8.11377C30.8736 8.11377 30.7947 8.02229 30.7259 8.31047C30.7628 8.61697 30.9894 8.55748 30.9894 8.75879C30.9894 8.96006 30.7892 9.11557 30.7313 9.12016C30.6734 9.12472 30.6944 8.95091 30.6944 8.95091C30.6944 8.95091 30.6629 8.86856 30.6419 8.86856C30.6209 8.86856 30.7577 8.85026 30.7367 8.62154C30.6893 8.34707 30.6524 8.68559 30.5681 8.67185C30.4837 8.65814 30.5471 8.42027 30.5785 8.39282C30.61 8.36537 30.5416 8.25102 30.3574 8.54378C30.3415 8.68559 30.3205 8.50718 30.2835 8.51633C30.2205 8.63069 30.231 8.71304 30.3205 8.81825C30.4522 8.92346 30.5366 9.02866 30.5311 9.08356C30.5261 9.13846 30.4573 9.26197 30.3628 9.26197C30.268 9.26197 30.3679 9.11101 30.3628 9.06067C30.3574 9.01036 30.1996 8.8274 30.1996 8.8274C30.1996 8.8274 30.0888 8.67185 30.0993 8.66729C30.1098 8.6627 29.8466 8.89142 30.0044 9.01036C29.8835 8.99666 29.873 9.03781 29.873 9.03781C29.873 9.09271 30.0363 9.11557 30.0573 9.21163C30.0783 9.30772 29.8886 9.36259 29.8886 9.36259C29.8886 9.36259 29.9679 9.45865 30.1887 9.27112C30.1941 9.39004 30.1047 9.47239 30.1047 9.47239C30.1782 9.50135 30.2361 9.4983 30.2466 9.57304C30.2466 9.57303 30.3628 9.45864 30.3679 9.43122Z" fill="#CDAD56"/>
<path d="M29.5242 9.57301C29.5242 9.57301 29.4257 9.44608 29.4214 9.42108C29.4167 9.39611 28.937 9.45265 28.7101 8.94446C28.5625 8.70304 28.7101 8.84457 28.7101 8.84457L28.7191 8.72801C28.7191 8.72801 28.562 8.56111 28.6291 8.4737C28.6962 8.38629 28.6685 8.58608 28.7548 8.58649C28.8621 8.58233 28.804 8.37003 28.804 8.37003C28.804 8.37003 28.8129 8.34507 28.8443 8.33258C28.8889 8.33673 28.9073 8.46197 28.9475 8.4703C28.9877 8.47864 29.071 8.32293 29.097 8.29091C29.1339 8.28633 29.1325 8.16192 29.1908 8.42414C29.1596 8.70304 28.8936 8.64893 28.8936 8.83209C28.8936 9.01521 29.0634 9.15674 29.1126 9.16092C29.1618 9.16507 29.1441 9.00691 29.1441 9.00691C29.1441 9.00691 29.1709 8.93198 29.1886 8.93198C29.2067 8.93198 29.0322 8.96107 29.0503 8.75294C29.0905 8.55809 29.1796 8.76549 29.2512 8.75298C29.3229 8.74049 29.2429 8.54693 29.2635 8.51737C29.2682 8.48782 29.3736 8.36088 29.4145 8.64101C29.4279 8.77005 29.509 8.52995 29.5401 8.53828C29.594 8.64233 29.5166 8.78131 29.4405 8.87705C29.3287 8.97276 29.278 9.07766 29.2827 9.12762C29.2871 9.17755 29.3135 9.23962 29.3942 9.23962C29.4746 9.23962 29.4214 9.15259 29.4257 9.1068C29.43 9.06102 29.5643 8.9128 29.5643 8.9128C29.5908 8.87623 29.5687 8.80788 29.5966 8.77628C29.6404 8.77668 29.6585 8.72386 29.703 8.86954C29.7479 9.01521 29.8014 8.77379 29.8014 8.77379C29.8014 8.77379 29.8641 8.9528 29.7298 9.06102C29.8326 9.04854 29.8416 9.08599 29.8416 9.08599C29.8416 9.13595 29.7928 9.15674 29.7747 9.24415C29.7566 9.33156 29.8282 9.38152 29.8282 9.38152C29.8282 9.38152 29.7613 9.46893 29.5734 9.29826C29.5687 9.40649 29.6451 9.48142 29.6451 9.48142C29.5821 9.5078 29.5332 9.505 29.5242 9.57301Z" fill="#CDAD56"/>
<path d="M30.76 9.47449C30.6448 9.77342 30.2296 9.66 30.2296 9.66C30.2296 9.66 30.2434 9.80961 30.2021 9.88139C30.2361 9.90367 30.4816 10.0715 30.7393 10.1148C31.11 10.1771 31.8691 10.0067 32.1239 10.2584C32.3787 10.5101 32.3653 10.7132 32.3653 10.7132C32.3653 10.7132 32.0337 10.7469 32.1259 10.8507C32.1857 10.918 32.3507 10.9681 32.3653 11.0378C32.4119 11.2595 32.2098 11.6585 32.2824 11.8083C32.1677 11.8175 32.1587 11.9219 32.1587 11.9219C32.1521 12.0404 31.8209 11.97 31.8209 11.97C31.8209 11.97 32.0276 11.509 32.0414 11.4015C32.0551 11.2936 31.8966 11.1021 31.7728 11.1021C31.6486 11.1021 31.5592 11.4433 31.5592 11.4433C31.5592 11.4433 31.4973 11.7005 31.5179 11.7244C31.5386 11.7483 31.435 11.6408 31.435 11.6408C31.435 11.6408 31.4025 11.7452 31.3492 11.8083C31.2893 11.8793 31.2077 11.9099 31.2077 11.9099C31.2077 11.9099 31.1458 11.7543 31.1665 11.6945C31.1871 11.6348 31.5042 11.4015 31.4767 11.2339C31.4644 11.1599 31.4535 11.0308 31.3492 10.988C31.2173 10.9338 30.9753 10.9733 30.8291 10.9466C30.7487 11.0682 30.7118 11.7363 30.7668 11.7785C30.8222 11.8203 30.6293 11.9099 30.6293 11.9099L30.402 11.9159C30.3983 11.8253 30.5359 11.5779 30.5359 11.3685C30.5359 11.159 30.5533 10.9346 30.5533 10.9346C30.5533 10.9346 30.4005 10.9688 30.3191 11.1021C30.2508 11.2139 30.2509 11.4253 30.2572 11.4552C30.2709 11.521 30.3397 11.7065 30.3191 11.7606C30.2984 11.8143 29.9404 11.886 29.9404 11.886L29.9263 11.7124C29.9263 11.7124 30.078 11.6288 30.078 11.4194C30.078 11.21 30.0917 10.9106 30.0849 10.8927C30.0807 10.882 29.9608 10.4237 29.803 10.1148C29.6977 9.90878 29.5353 9.81439 29.527 9.79763C29.5064 9.75575 29.5064 9.70786 29.5064 9.70786C29.5064 9.70786 29.2787 9.85149 29.0101 9.54631C29.2563 9.36384 29.5202 9.49842 29.5202 9.49842C29.5202 9.49842 29.5889 9.33086 29.9057 9.34284C30.2228 9.35482 30.2847 9.5104 30.2709 9.49244C30.2709 9.49244 30.5051 9.3129 30.76 9.47449Z" fill="#923F00"/>
<path d="M32.0041 12.5878C32.0095 12.5878 32.589 12.6029 32.5948 12.8721C32.6006 13.1409 32.4171 13.0714 32.4113 13.0714C32.4055 13.0714 31.9867 13.0265 31.9867 13.0265L32.0041 12.5878Z" fill="#0000FF"/>
<path d="M31.4415 12.513C31.4415 12.513 32.1644 12.5083 32.1242 12.7822C32.084 13.0563 31.9005 13.0016 31.9005 13.0016L31.5505 12.9765L31.4415 12.513Z" fill="#F7FCFF"/>
<path d="M31.0344 12.4832L31.4532 12.513C31.4532 12.513 31.7055 12.5429 31.6942 12.7523C31.6827 12.9617 31.4358 12.9667 31.4358 12.9667L31.0286 12.9466L31.0344 12.4832Z" fill="#0000FF"/>
<path d="M30.0533 12.5878C30.0475 12.5878 29.4679 12.6029 29.4622 12.8721C29.4567 13.1409 29.6402 13.0714 29.646 13.0714C29.6518 13.0714 30.0706 13.0265 30.0706 13.0265L30.0533 12.5878Z" fill="#F7FCFF"/>
<path d="M30.6155 12.513C30.6155 12.513 29.8926 12.5083 29.9328 12.7822C29.9729 13.0563 30.1565 13.0016 30.1565 13.0016L30.5065 12.9765L30.6155 12.513Z" fill="#0000FF"/>
<path d="M31.0231 12.4832L30.6043 12.513C30.6043 12.513 30.3516 12.5429 30.3632 12.7523C30.3748 12.9617 30.6213 12.9667 30.6213 12.9667L31.0285 12.9466L31.0231 12.4832Z" fill="#F7FCFF"/>
<path d="M32.5728 15.1646C32.6836 15.1967 32.5992 15.4951 32.5464 15.5228L32.1446 15.5089C32.1446 15.5089 32.4457 15.1234 32.5728 15.1646Z" fill="#5E0043"/>
<path d="M30.0801 15.5778C29.9853 15.463 29.8477 15.1464 29.721 15.2335C29.6099 15.2655 29.6946 15.5639 29.7474 15.5916L30.0801 15.5778Z" fill="#5E0043"/>
<path d="M29.5813 13.3635L31.0306 14.1873L32.3359 13.4248C32.3359 13.4248 32.6081 13.2943 32.5846 13.2006C32.5614 13.1066 32.4673 13.1434 32.4203 13.1598C32.3736 13.1761 31.0542 13.9877 31.0542 13.9877L29.6504 13.2167C29.6504 13.2167 29.5472 13.1884 29.5284 13.2453C29.5096 13.3025 29.5671 13.3349 29.5813 13.3635Z" fill="#B4B6B9"/>
<path d="M34.4402 19.4273C34.4402 19.4273 33.8067 19.5973 33.9832 19.6021C34.1138 19.6057 34.7432 19.6021 34.7432 19.6021L34.4402 19.4273Z" fill="#FF7000"/>
<path d="M34.6969 19.6135L34.1344 19.6276C34.1344 19.6276 33.9929 19.7392 33.9838 19.766C33.9751 19.793 34.0768 19.8006 34.0768 19.8006C34.0768 19.8006 34.6571 19.9317 35.0962 19.8468C35.3177 19.7795 35.3564 19.6987 35.2011 19.6496C35.0462 19.6006 34.7013 19.6154 34.6969 19.6135Z" fill="#FF7000"/>
<path d="M28.1895 14.9898C28.1895 14.9898 28.1162 15.1898 28.1895 15.2898C28.2627 15.3898 28.7232 16.1988 28.7232 16.1988C28.7232 16.1988 29.0372 15.8623 29.1523 15.8532C29.2675 15.8444 29.215 16.7261 29.215 16.7261C29.215 16.7261 29.0267 16.8805 28.9116 16.8714C28.7964 16.8622 29.194 17.2169 29.1835 17.5169C29.173 17.8168 28.6604 19.3076 28.472 19.3346C28.2837 19.362 28.1211 19.0539 28.1211 18.7877C28.1211 18.5214 28.3151 18.0986 28.3046 17.9804C28.2942 17.8621 27.3686 19.2473 27.3126 19.4636C27.3019 19.5046 27.3628 19.6528 27.3628 19.6528C27.3628 19.6528 27.0001 19.6792 27.0803 20.0892C26.0129 19.7619 25.4897 19.1985 25.5002 18.6259C25.5042 18.4064 25.2687 17.89 25.5002 17.3199C25.8728 16.4021 26.7808 15.3545 26.7873 15.2536C26.7978 15.0898 26.871 15.0172 26.8815 14.9263C26.8919 14.8354 26.8501 14.3716 26.9547 14.2899C27.0594 14.2081 27.6035 14.0082 27.7395 14.0173C27.8756 14.0264 27.9907 14.1081 27.9907 14.1081C27.9907 14.1081 28.5035 14.1081 28.5348 14.2808C28.5662 14.4537 28.4302 14.5172 28.4302 14.5172C28.4302 14.5172 28.5035 14.7628 28.1895 14.9898Z" fill="#8A9396"/>
<path d="M28.4947 20.1455C28.6676 20.2518 29.0669 20.3147 29.0669 20.3147C29.0669 20.3147 28.086 20.5496 27.0894 20.0936C26.9982 19.7386 27.3032 19.6594 27.3786 19.6566C27.5547 19.6157 28.3218 20.0389 28.4947 20.1455Z" fill="#2B2B2B"/>
<path d="M29.6954 20.1079C30.7687 20.6122 30.8836 20.2727 31.6231 19.7934C31.6744 19.7601 31.9184 20.5632 32.9547 20.1079C34.4212 19.4636 31.6976 18.3898 31.3126 18.413C30.9277 18.4369 28.6221 19.6036 29.6954 20.1079Z" fill="#00713D"/>
</g>
<defs>
<filter id="filter0_dd_5_9534" x="0" y="0" width="42" height="30" filterUnits="userSpaceOnUse" color-interpolation-filters="sRGB">
<feFlood flood-opacity="0" result="BackgroundImageFix"/>
<feColorMatrix in="SourceAlpha" type="matrix" values="0 0 0 0 0 0 0 0 0 0 0 0 0 0 0 0 0 0 127 0" result="hardAlpha"/>
<feOffset dy="1"/>
<feGaussianBlur stdDeviation="1"/>
<feColorMatrix type="matrix" values="0 0 0 0 0.0627451 0 0 0 0 0.0941176 0 0 0 0 0.156863 0 0 0 0.06 0"/>
<feBlend mode="normal" in2="BackgroundImageFix" result="effect1_dropShadow_5_9534"/>
<feColorMatrix in="SourceAlpha" type="matrix" values="0 0 0 0 0 0 0 0 0 0 0 0 0 0 0 0 0 0 127 0" result="hardAlpha"/>
<feOffset dy="1"/>
<feGaussianBlur stdDeviation="1.5"/>
<feColorMatrix type="matrix" values="0 0 0 0 0.0627451 0 0 0 0 0.0941176 0 0 0 0 0.156863 0 0 0 0.1 0"/>
<feBlend mode="normal" in2="effect1_dropShadow_5_9534" result="effect2_dropShadow_5_9534"/>
<feBlend mode="normal" in="SourceGraphic" in2="effect2_dropShadow_5_9534" result="shape"/>
</filter>
<linearGradient id="paint0_linear_5_9534" x1="34.8098" y1="17.6071" x2="35.6452" y2="17.5968" gradientUnits="userSpaceOnUse">
<stop stop-color="#D5DFFF"/>
<stop offset="1" stop-color="white"/>
</linearGradient>
</defs>
</svg>
