<svg width="42" height="30" viewBox="0 0 42 30" fill="none" xmlns="http://www.w3.org/2000/svg">
<g filter="url(#filter0_dd_5_11582)">
<mask id="mask0_5_11582" style="mask-type:alpha" maskUnits="userSpaceOnUse" x="3" y="2" width="36" height="24">
<rect x="3" y="2" width="36" height="24" fill="white"/>
</mask>
<g mask="url(#mask0_5_11582)">
<path fill-rule="evenodd" clip-rule="evenodd" d="M27.75 2H39V26H27.75V2Z" fill="#67BD38"/>
<path fill-rule="evenodd" clip-rule="evenodd" d="M14.25 2H27.75V26H14.25V2Z" fill="#D51700"/>
<path fill-rule="evenodd" clip-rule="evenodd" d="M3 2H14.25V26H3V2Z" fill="#272727"/>
<path fill-rule="evenodd" clip-rule="evenodd" d="M17.0486 9.97687L17.4378 10.194C16.7892 11.1645 16.3534 12.0538 16.1281 12.8622C16.2234 12.9404 16.2832 13.0089 16.3442 13.1028C16.5202 13.3738 16.6682 13.6368 16.7882 13.892L16.2708 14.0878C16.1896 13.9151 16.094 13.7374 15.9838 13.5549C15.931 13.9493 15.9347 14.3219 15.9943 14.6728C16.0889 14.6814 16.1683 14.6991 16.2602 14.7288C16.591 14.8358 16.8946 14.9528 17.171 15.0797L16.9163 15.5253C16.6806 15.4171 16.4218 15.316 16.1397 15.2223L16.1453 15.2374C16.3858 15.8833 16.7538 16.4776 17.2503 17.0205C17.3279 17.0056 17.4002 17 17.4847 17C17.8367 17 18.167 17.0176 18.4756 17.0528L18.4077 17.549C18.1976 17.525 17.9754 17.5098 17.7411 17.5034C18.1874 17.9003 18.7112 18.2663 19.3131 18.6016L19.0756 18.9574C18.3292 18.5416 17.694 18.078 17.1707 17.5669C17.1025 17.5906 17.0194 17.6219 16.9137 17.663L16.8739 17.6783C17.3307 18.104 17.8708 18.4956 18.4946 18.853L18.2522 19.206C17.5313 18.7929 16.9143 18.334 16.4017 17.8296C16.157 17.8854 15.9507 17.8842 15.7093 17.8213L15.8596 17.3405C15.8958 17.35 15.9313 17.357 15.967 17.3615C15.491 16.7985 15.1324 16.1845 14.8919 15.5199C14.8494 15.4026 14.8131 15.2831 14.7828 15.1614C14.5963 15.1298 14.4391 15.0676 14.2759 14.9609L14.602 14.5547C14.6302 14.5732 14.6586 14.5894 14.6878 14.6036C14.6294 13.9912 14.7099 13.33 14.9282 12.6202C14.7915 12.4803 14.7079 12.3354 14.6563 12.1468L15.1342 12.0371C15.3917 11.3888 15.756 10.7028 16.2262 9.97913L16.6183 10.1918C16.1057 10.9809 15.7258 11.7181 15.4776 12.4034C15.5472 12.4595 15.6323 12.5196 15.7365 12.5883C15.9857 11.7823 16.4237 10.9117 17.0486 9.97687ZM15.5978 13.1185C15.5473 13.0836 15.4866 13.0431 15.4128 12.9948C15.3773 12.9715 15.3434 12.9489 15.3109 12.9268C15.1372 13.5626 15.0859 14.1502 15.1562 14.6895C15.2399 14.6901 15.3348 14.6869 15.4443 14.6808L15.5335 14.6759C15.4592 14.1893 15.4808 13.6702 15.5978 13.1185ZM15.4685 15.1782C15.5353 15.1745 15.5937 15.1715 15.6453 15.1694C15.6659 15.2374 15.6887 15.3048 15.7135 15.3715C15.9548 16.0197 16.3148 16.6183 16.7926 17.167L16.6995 17.2029C16.6197 17.2339 16.5478 17.2604 16.4821 17.2824C15.9593 16.7081 15.5739 16.0772 15.325 15.3892C15.3009 15.3226 15.279 15.2552 15.2593 15.187C15.325 15.1854 15.3945 15.1824 15.4685 15.1782Z" fill="#F7FCFF"/>
<path fill-rule="evenodd" clip-rule="evenodd" d="M24.9363 9.97687L24.547 10.194C25.1957 11.1645 25.6314 12.0538 25.8568 12.8622C25.7614 12.9404 25.7017 13.0089 25.6407 13.1028C25.4647 13.3738 25.3166 13.6368 25.1967 13.892L25.714 14.0878C25.7952 13.915 25.8909 13.7374 26.0011 13.5549C26.0538 13.9493 26.0502 14.3219 25.9906 14.6728C25.896 14.6814 25.8166 14.6991 25.7247 14.7288C25.3939 14.8358 25.0903 14.9528 24.8139 15.0797L25.0686 15.5253C25.3043 15.4171 25.5631 15.316 25.8451 15.2223L25.8396 15.2374C25.5991 15.8833 25.2311 16.4776 24.7346 17.0205C24.657 17.0056 24.5847 17 24.5002 17C24.1482 17 23.8179 17.0176 23.5093 17.0528L23.5772 17.549C23.7873 17.525 24.0094 17.5098 24.2437 17.5034C23.7975 17.9003 23.2737 18.2663 22.6718 18.6016L22.9092 18.9574C23.6556 18.5416 24.2909 18.078 24.8142 17.5668C24.8824 17.5906 24.9655 17.6219 25.0712 17.663L25.1109 17.6783C24.6541 18.104 24.1141 18.4956 23.4903 18.853L23.7327 19.206C24.4535 18.7929 25.0706 18.334 25.5832 17.8296C25.8279 17.8854 26.0342 17.8842 26.2755 17.8213L26.1253 17.3405C26.089 17.35 26.0535 17.357 26.0179 17.3615C26.4938 16.7985 26.8524 16.1845 27.0929 15.5199C27.1354 15.4026 27.1718 15.283 27.2021 15.1614C27.3885 15.1298 27.5458 15.0676 27.709 14.9609L27.3828 14.5547C27.3547 14.5731 27.3263 14.5894 27.2971 14.6036C27.3555 13.9912 27.275 13.33 27.0567 12.6202C27.1934 12.4803 27.277 12.3354 27.3285 12.1468L26.8507 12.0371C26.5931 11.3888 26.2289 10.7028 25.7587 9.97913L25.3665 10.1918C25.8792 10.9809 26.2591 11.7181 26.5073 12.4034C26.4377 12.4595 26.3526 12.5196 26.2484 12.5883C25.9991 11.7823 25.5611 10.9117 24.9363 9.97687ZM26.387 13.1185C26.4376 13.0835 26.4983 13.0431 26.5721 12.9948C26.6075 12.9715 26.6415 12.9489 26.674 12.9268C26.8477 13.5626 26.8989 14.1502 26.8287 14.6895C26.745 14.6901 26.6501 14.6869 26.5406 14.6808L26.4513 14.6759C26.5257 14.1893 26.504 13.6702 26.387 13.1185ZM26.5163 15.1782C26.4495 15.1745 26.3912 15.1715 26.3396 15.1694C26.3189 15.2374 26.2962 15.3048 26.2713 15.3715C26.03 16.0197 25.6701 16.6183 25.1923 17.167L25.2853 17.2029C25.3652 17.2339 25.437 17.2603 25.5028 17.2824C26.0256 16.7081 26.4109 16.0772 26.6599 15.3892C26.684 15.3226 26.7059 15.2552 26.7256 15.187C26.6599 15.1854 26.5904 15.1824 26.5163 15.1782Z" fill="#F7FCFF"/>
<path fill-rule="evenodd" clip-rule="evenodd" d="M19.0347 18.2641L17.7788 19.3687C17.7788 19.3687 18.8618 19.9582 20.9029 19.9582C22.944 19.9582 24.1325 19.3687 24.1325 19.3687L23.1778 18.2641C23.1778 18.2641 21.877 18.7122 20.9556 18.7122C20.0343 18.7122 19.0347 18.2641 19.0347 18.2641Z" fill="#F7FCFF"/>
<path d="M19.0608 18.969C19.0608 18.969 20.124 19.192 20.9391 19.192C21.7542 19.192 22.8175 18.969 22.8175 18.969" stroke="#C00001" stroke-width="0.5"/>
<path fill-rule="evenodd" clip-rule="evenodd" d="M22.0032 11.4584C22.0032 11.8937 21.5579 12.2469 21.0071 12.25H22.0115L22.3642 12.4527H22.541V10.868H23.0883V12.4527H23.2803V12.723H23.0883V15.5965C23.0883 15.7652 23.2912 16.0551 23.7156 16.4321L24.1989 16.8614H17.4744L18.5917 16.3849C18.8019 16.2952 18.9519 16.0371 19.0168 15.5806V12.723H18.537V12.4527H19.0168V10.868H19.5641V12.4527H19.6221L19.9196 12.25H20.9925C20.4417 12.2469 19.9964 11.8937 19.9964 11.4584C19.9964 11.0211 20.4456 10.6667 20.9998 10.6667C21.5539 10.6667 22.0032 11.0211 22.0032 11.4584ZM19.5641 12.723H22.541V15.5965C22.541 15.8282 22.6643 16.0797 22.905 16.3614H19.3384C19.4485 16.1643 19.5222 15.9186 19.5641 15.612V12.723ZM21.091 14H19.9052V16.0833H22.2768L21.091 14Z" fill="#F7FCFF"/>
<path fill-rule="evenodd" clip-rule="evenodd" d="M22.3157 8.15619L22.3178 8.15922L22.3173 8.15807L22.3157 8.15619ZM24.0495 8.69781L24.0506 8.70711L24.0499 8.70034L24.0495 8.69781ZM24.3863 8.73472L24.388 8.73016L24.3872 8.73241L24.3863 8.73472ZM23.023 9.34838L23.0293 9.34833L23.0263 9.34868L23.023 9.34838Z" fill="#F7FCFF"/>
<path fill-rule="evenodd" clip-rule="evenodd" d="M17.6167 12.6681L17.3925 12.8115L17.6237 13.1131C17.4257 13.1762 17.1074 13.3362 17.1074 13.712C17.1074 14.2575 16.8918 14.7044 16.8918 14.7044L17.5356 15.0719C17.5356 15.0719 17.6027 14.4357 17.778 14.0738C17.8658 13.8924 18.0026 13.802 18.1171 13.7569L19.1178 15.0625L19.3419 14.9191L17.6167 12.6681Z" fill="#F7FCFF"/>
<path fill-rule="evenodd" clip-rule="evenodd" d="M24.455 12.6681L24.6792 12.8115L24.4481 13.113C24.6461 13.1762 24.9644 13.3361 24.9644 13.712C24.9644 14.2575 25.1799 14.7044 25.1799 14.7044L24.5362 15.0719C24.5362 15.0719 24.469 14.4357 24.2938 14.0738C24.206 13.8924 24.0692 13.802 23.9546 13.7569L22.954 15.0625L22.7298 14.9191L24.455 12.6681Z" fill="#F7FCFF"/>
</g>
</g>
<defs>
<filter id="filter0_dd_5_11582" x="0" y="0" width="42" height="30" filterUnits="userSpaceOnUse" color-interpolation-filters="sRGB">
<feFlood flood-opacity="0" result="BackgroundImageFix"/>
<feColorMatrix in="SourceAlpha" type="matrix" values="0 0 0 0 0 0 0 0 0 0 0 0 0 0 0 0 0 0 127 0" result="hardAlpha"/>
<feOffset dy="1"/>
<feGaussianBlur stdDeviation="1"/>
<feColorMatrix type="matrix" values="0 0 0 0 0.0627451 0 0 0 0 0.0941176 0 0 0 0 0.156863 0 0 0 0.06 0"/>
<feBlend mode="normal" in2="BackgroundImageFix" result="effect1_dropShadow_5_11582"/>
<feColorMatrix in="SourceAlpha" type="matrix" values="0 0 0 0 0 0 0 0 0 0 0 0 0 0 0 0 0 0 127 0" result="hardAlpha"/>
<feOffset dy="1"/>
<feGaussianBlur stdDeviation="1.5"/>
<feColorMatrix type="matrix" values="0 0 0 0 0.0627451 0 0 0 0 0.0941176 0 0 0 0 0.156863 0 0 0 0.1 0"/>
<feBlend mode="normal" in2="effect1_dropShadow_5_11582" result="effect2_dropShadow_5_11582"/>
<feBlend mode="normal" in="SourceGraphic" in2="effect2_dropShadow_5_11582" result="shape"/>
</filter>
</defs>
</svg>
