<svg width="42" height="30" viewBox="0 0 42 30" fill="none" xmlns="http://www.w3.org/2000/svg">
<g filter="url(#filter0_dd_5_6622)">
<mask id="mask0_5_6622" style="mask-type:alpha" maskUnits="userSpaceOnUse" x="3" y="2" width="36" height="24">
<rect x="3" y="2" width="36" height="24" fill="white"/>
</mask>
<g mask="url(#mask0_5_6622)">
<path fill-rule="evenodd" clip-rule="evenodd" d="M3 2V26H39V2H3Z" fill="#FBCD17"/>
<path fill-rule="evenodd" clip-rule="evenodd" d="M3 2V10H39V2H3Z" fill="#73BE4A"/>
<path fill-rule="evenodd" clip-rule="evenodd" d="M3 18V26H39V18H3Z" fill="#73BE4A"/>
<path fill-rule="evenodd" clip-rule="evenodd" d="M3 2V26L14.25 14L3 2Z" fill="#C51918"/>
<path fill-rule="evenodd" clip-rule="evenodd" d="M22.127 15.8707L20.0225 17L20.5025 14.7962L18.75 13.1469L21.123 13.0578L22.127 11L23.131 13.0578H25.5L23.7515 14.7962L24.2779 17L22.127 15.8707Z" fill="#272727"/>
<path fill-rule="evenodd" clip-rule="evenodd" d="M31.127 15.8707L29.0225 17L29.5025 14.7962L27.75 13.1469L30.123 13.0578L31.127 11L32.131 13.0578H34.5L32.7515 14.7962L33.2779 17L31.127 15.8707Z" fill="#272727"/>
</g>
</g>
<defs>
<filter id="filter0_dd_5_6622" x="0" y="0" width="42" height="30" filterUnits="userSpaceOnUse" color-interpolation-filters="sRGB">
<feFlood flood-opacity="0" result="BackgroundImageFix"/>
<feColorMatrix in="SourceAlpha" type="matrix" values="0 0 0 0 0 0 0 0 0 0 0 0 0 0 0 0 0 0 127 0" result="hardAlpha"/>
<feOffset dy="1"/>
<feGaussianBlur stdDeviation="1"/>
<feColorMatrix type="matrix" values="0 0 0 0 0.0627451 0 0 0 0 0.0941176 0 0 0 0 0.156863 0 0 0 0.06 0"/>
<feBlend mode="normal" in2="BackgroundImageFix" result="effect1_dropShadow_5_6622"/>
<feColorMatrix in="SourceAlpha" type="matrix" values="0 0 0 0 0 0 0 0 0 0 0 0 0 0 0 0 0 0 127 0" result="hardAlpha"/>
<feOffset dy="1"/>
<feGaussianBlur stdDeviation="1.5"/>
<feColorMatrix type="matrix" values="0 0 0 0 0.0627451 0 0 0 0 0.0941176 0 0 0 0 0.156863 0 0 0 0.1 0"/>
<feBlend mode="normal" in2="effect1_dropShadow_5_6622" result="effect2_dropShadow_5_6622"/>
<feBlend mode="normal" in="SourceGraphic" in2="effect2_dropShadow_5_6622" result="shape"/>
</filter>
</defs>
</svg>
