<svg width="42" height="30" viewBox="0 0 42 30" fill="none" xmlns="http://www.w3.org/2000/svg">
<g filter="url(#filter0_dd_5_10815)">
<mask id="mask0_5_10815" style="mask-type:alpha" maskUnits="userSpaceOnUse" x="3" y="2" width="36" height="24">
<rect x="3" y="2" width="36" height="24" fill="white"/>
</mask>
<g mask="url(#mask0_5_10815)">
<path fill-rule="evenodd" clip-rule="evenodd" d="M3 2H39V26H3V2Z" fill="#73BE4A"/>
<path fill-rule="evenodd" clip-rule="evenodd" d="M3 2V18H39V2H3Z" fill="#AF0100"/>
<rect x="3" y="2" width="6.75" height="24" fill="#F7FCFF"/>
<path fill-rule="evenodd" clip-rule="evenodd" d="M3.49976 4.23605L5.13396 2.05682L6.72609 4.23599L5.13391 6.31536L3.49976 4.23605ZM5.12792 5.42533L6.04387 4.22912L5.12788 2.9754L4.18776 4.22906L5.12792 5.42533ZM5.25 4.06451H4.96875V4.58064H5.25V4.06451Z" fill="#B20000"/>
<path fill-rule="evenodd" clip-rule="evenodd" d="M4.27921 6.18585L3.49976 7.17654L4.27919 8.1218L5.03859 7.17651L4.27921 6.18585ZM4.64376 7.19334L4.29256 7.61712L3.93713 7.16806L4.29162 6.703L4.64376 7.19334Z" fill="#B20000"/>
<path fill-rule="evenodd" clip-rule="evenodd" d="M5.96671 6.18585L5.18726 7.17654L5.96669 8.1218L6.72609 7.17651L5.96671 6.18585ZM6.33126 7.19334L5.98006 7.61712L5.62463 7.16806L5.97912 6.703L6.33126 7.19334Z" fill="#B20000"/>
<path fill-rule="evenodd" clip-rule="evenodd" d="M7.09171 6.18585L6.31226 7.17654L7.09169 8.1218L7.85109 7.17651L7.09171 6.18585ZM7.45626 7.19334L7.10506 7.61712L6.74963 7.16806L7.10412 6.703L7.45626 7.19334Z" fill="#B20000"/>
<path fill-rule="evenodd" clip-rule="evenodd" d="M8.77921 6.18585L7.99976 7.17654L8.77919 8.1218L9.53859 7.17651L8.77921 6.18585ZM9.14376 7.19334L8.79256 7.61712L8.43713 7.16806L8.79162 6.703L9.14376 7.19334Z" fill="#B20000"/>
<path fill-rule="evenodd" clip-rule="evenodd" d="M6.31226 4.23605L7.94646 2.05682L9.53859 4.23599L7.94641 6.31536L6.31226 4.23605ZM7.94042 5.42533L8.85637 4.22912L7.94038 2.9754L7.00026 4.22906L7.94042 5.42533ZM8.0625 4.06451H7.78125V4.58064H8.0625V4.06451Z" fill="#B20000"/>
<path d="M4.86318 14.4061L3.04163 11.6871L3.52083 11.4168L4.84134 13.3879L6.45259 10.7559L8.10387 13.3942L9.27059 11.6729L9.74825 11.9454L8.08464 14.3998L6.45801 11.801L4.86318 14.4061Z" fill="#B20000"/>
<path fill-rule="evenodd" clip-rule="evenodd" d="M3.84375 2.51611H4.14617V3.03224H3.84375V2.51611Z" fill="#B20000"/>
<path fill-rule="evenodd" clip-rule="evenodd" d="M6.375 2H6.67742V2.51613H6.375V2Z" fill="#B20000"/>
<path fill-rule="evenodd" clip-rule="evenodd" d="M8.90625 2.51611H9.20867V3.03224H8.90625V2.51611Z" fill="#B20000"/>
<path fill-rule="evenodd" clip-rule="evenodd" d="M3.84375 5.61292H4.125V6.12904H3.84375V5.61292ZM6.375 5.61292H6.65625V6.12904H6.375V5.61292ZM9.1875 5.61292H8.90625V6.12904H9.1875V5.61292Z" fill="#B20000"/>
<path fill-rule="evenodd" clip-rule="evenodd" d="M3.84375 8.19354H4.125V8.70967H3.84375V8.19354ZM6.375 8.19354H6.65625V8.70967H6.375V8.19354ZM9.1875 8.19354H8.90625V8.70967H9.1875V8.19354Z" fill="#B20000"/>
<path fill-rule="evenodd" clip-rule="evenodd" d="M5.48419 10.9548L4.73697 11.923L3.55835 10.0361L5.11058 7.88025L6.4455 9.75949L7.78043 7.88025L9.33266 10.0361L8.15404 11.923L7.40682 10.9548L7.99676 9.86449L7.78043 9.4215L6.52009 11.2387V11.4538L6.4455 11.3462L6.37092 11.4538V11.2387L5.11058 9.4215L4.89425 9.86449L5.48419 10.9548Z" fill="#B20000"/>
<path fill-rule="evenodd" clip-rule="evenodd" d="M6.375 12.5806H6.65625V13.0968H6.375V12.5806ZM6.375 15.1613H6.65625V15.6774H6.375V15.1613ZM6.375 13.3548H6.09375V13.8709H6.375V13.3548ZM6.65625 13.3548H6.9375V13.8709H6.65625V13.3548ZM6.65625 13.871H6.375V14.129H6.09375V14.6452H6.375V14.3871H6.65625V14.6452H6.9375V14.129H6.65625V13.871ZM5.53125 13.871H5.8125V14.3871H5.53125V13.871ZM7.5 13.871H7.21875V14.3871H7.5V13.871ZM3.5625 13.8709H3.84375V14.3871H3.5625V13.8709ZM9.46875 13.871H9.1875V14.3871H9.46875V13.871Z" fill="#B20000"/>
<path fill-rule="evenodd" clip-rule="evenodd" d="M3.49976 23.7639L5.13396 25.9432L6.72609 23.764L5.13391 21.6846L3.49976 23.7639ZM5.12792 22.5747L6.04387 23.7709L5.12788 25.0246L4.18776 23.7709L5.12792 22.5747ZM5.25 23.9355H4.96875V23.4194H5.25V23.9355Z" fill="#B20000"/>
<path fill-rule="evenodd" clip-rule="evenodd" d="M4.27921 21.8141L3.49976 20.8235L4.27919 19.8782L5.03859 20.8235L4.27921 21.8141ZM4.64376 20.8067L4.29256 20.3829L3.93713 20.8319L4.29162 21.297L4.64376 20.8067Z" fill="#B20000"/>
<path fill-rule="evenodd" clip-rule="evenodd" d="M5.96671 21.8141L5.18726 20.8235L5.96669 19.8782L6.72609 20.8235L5.96671 21.8141ZM6.33126 20.8067L5.98006 20.3829L5.62463 20.8319L5.97912 21.297L6.33126 20.8067Z" fill="#B20000"/>
<path fill-rule="evenodd" clip-rule="evenodd" d="M7.09171 21.8141L6.31226 20.8235L7.09169 19.8782L7.85109 20.8235L7.09171 21.8141ZM7.45626 20.8067L7.10506 20.3829L6.74963 20.8319L7.10412 21.297L7.45626 20.8067Z" fill="#B20000"/>
<path fill-rule="evenodd" clip-rule="evenodd" d="M8.77921 21.8141L7.99976 20.8235L8.77919 19.8782L9.53859 20.8235L8.77921 21.8141ZM9.14376 20.8067L8.79256 20.3829L8.43713 20.8319L8.79162 21.297L9.14376 20.8067Z" fill="#B20000"/>
<path fill-rule="evenodd" clip-rule="evenodd" d="M6.31226 23.7639L7.94646 25.9432L9.53859 23.764L7.94641 21.6846L6.31226 23.7639ZM7.94042 22.5747L8.85637 23.7709L7.94038 25.0246L7.00026 23.7709L7.94042 22.5747ZM8.0625 23.9355H7.78125V23.4194H8.0625V23.9355Z" fill="#B20000"/>
<path d="M4.86318 13.5939L3.04163 16.3129L3.52083 16.5832L4.84134 14.6121L6.45259 17.2441L8.10387 14.6058L9.27059 16.3271L9.74825 16.0546L8.08464 13.6002L6.45801 16.199L4.86318 13.5939Z" fill="#B20000"/>
<path fill-rule="evenodd" clip-rule="evenodd" d="M3.84375 25.4839H4.14617V24.9678H3.84375V25.4839Z" fill="#B20000"/>
<path fill-rule="evenodd" clip-rule="evenodd" d="M6.375 26H6.67742V25.4839H6.375V26Z" fill="#B20000"/>
<path fill-rule="evenodd" clip-rule="evenodd" d="M8.90625 25.4839H9.20867V24.9678H8.90625V25.4839Z" fill="#B20000"/>
<path fill-rule="evenodd" clip-rule="evenodd" d="M3.84375 22.3871H4.125V21.871H3.84375V22.3871ZM6.375 22.3871H6.65625V21.871H6.375V22.3871ZM9.1875 22.3871H8.90625V21.871H9.1875V22.3871Z" fill="#B20000"/>
<path fill-rule="evenodd" clip-rule="evenodd" d="M3.84375 19.8065H4.125V19.2903H3.84375V19.8065ZM6.375 19.8065H6.65625V19.2903H6.375V19.8065ZM9.1875 19.8065H8.90625V19.2903H9.1875V19.8065Z" fill="#B20000"/>
<path fill-rule="evenodd" clip-rule="evenodd" d="M5.48419 17.1928L4.73697 16.2246L3.55835 18.1115L5.11058 20.2673L6.4455 18.3881L7.78043 20.2673L9.33266 18.1115L8.15404 16.2246L7.40682 17.1928L7.99676 18.2831L7.78043 18.7261L6.52009 16.9089V16.6938L6.4455 16.8014L6.37092 16.6938V16.9089L5.11058 18.7261L4.89425 18.2831L5.48419 17.1928Z" fill="#B20000"/>
</g>
</g>
<defs>
<filter id="filter0_dd_5_10815" x="0" y="0" width="42" height="30" filterUnits="userSpaceOnUse" color-interpolation-filters="sRGB">
<feFlood flood-opacity="0" result="BackgroundImageFix"/>
<feColorMatrix in="SourceAlpha" type="matrix" values="0 0 0 0 0 0 0 0 0 0 0 0 0 0 0 0 0 0 127 0" result="hardAlpha"/>
<feOffset dy="1"/>
<feGaussianBlur stdDeviation="1"/>
<feColorMatrix type="matrix" values="0 0 0 0 0.0627451 0 0 0 0 0.0941176 0 0 0 0 0.156863 0 0 0 0.06 0"/>
<feBlend mode="normal" in2="BackgroundImageFix" result="effect1_dropShadow_5_10815"/>
<feColorMatrix in="SourceAlpha" type="matrix" values="0 0 0 0 0 0 0 0 0 0 0 0 0 0 0 0 0 0 127 0" result="hardAlpha"/>
<feOffset dy="1"/>
<feGaussianBlur stdDeviation="1.5"/>
<feColorMatrix type="matrix" values="0 0 0 0 0.0627451 0 0 0 0 0.0941176 0 0 0 0 0.156863 0 0 0 0.1 0"/>
<feBlend mode="normal" in2="effect1_dropShadow_5_10815" result="effect2_dropShadow_5_10815"/>
<feBlend mode="normal" in="SourceGraphic" in2="effect2_dropShadow_5_10815" result="shape"/>
</filter>
</defs>
</svg>
