<svg width="42" height="30" viewBox="0 0 42 30" fill="none" xmlns="http://www.w3.org/2000/svg">
<g filter="url(#filter0_dd_5_8562)">
<mask id="mask0_5_8562" style="mask-type:alpha" maskUnits="userSpaceOnUse" x="3" y="2" width="36" height="24">
<rect x="3" y="2" width="36" height="24" fill="white"/>
</mask>
<g mask="url(#mask0_5_8562)">
</g>
<path fill-rule="evenodd" clip-rule="evenodd" d="M3 2V26H39V2H3Z" fill="#2E42A5"/>
<mask id="mask1_5_8562" style="mask-type:alpha" maskUnits="userSpaceOnUse" x="3" y="2" width="36" height="24">
<path fill-rule="evenodd" clip-rule="evenodd" d="M3 2V26H39V2H3Z" fill="white"/>
</mask>
<g mask="url(#mask1_5_8562)">
<rect x="3" y="2" width="20.25" height="14" fill="#2B409A"/>
<mask id="mask2_5_8562" style="mask-type:alpha" maskUnits="userSpaceOnUse" x="3" y="2" width="21" height="14">
<rect x="3" y="2" width="20.25" height="14" fill="white"/>
</mask>
<g mask="url(#mask2_5_8562)">
<path d="M0.745117 14.9998L5.20119 16.737L23.351 3.88872L25.7015 1.30719L20.9364 0.726566L13.5335 6.26326L7.57493 9.99369L0.745117 14.9998Z" fill="#F7FCFF"/>
<path d="M1.35522 16.2169L3.62539 17.225L24.8575 1.06732H21.67L1.35522 16.2169Z" fill="#F50100"/>
<path d="M25.5049 14.9998L21.0488 16.737L2.89897 3.88872L0.548492 1.30719L5.31362 0.726566L12.7165 6.26326L18.6751 9.99369L25.5049 14.9998Z" fill="#F7FCFF"/>
<path d="M25.3528 15.8733L23.0826 16.8815L14.0418 9.96351L11.3613 9.19059L0.322277 1.31605H3.50985L14.5427 9.00368L17.4733 9.9305L25.3528 15.8733Z" fill="#F50100"/>
<mask id="path-11-outside-1_5_8562" maskUnits="userSpaceOnUse" x="1" y="0" width="24" height="18" fill="black">
<rect fill="white" x="1" width="24" height="18"/>
<path fill-rule="evenodd" clip-rule="evenodd" d="M14.2326 2H11.9826V8H3V10H11.9826V16H14.2326V10H23.25V8H14.2326V2Z"/>
</mask>
<path fill-rule="evenodd" clip-rule="evenodd" d="M14.2326 2H11.9826V8H3V10H11.9826V16H14.2326V10H23.25V8H14.2326V2Z" fill="#F50100"/>
<path d="M11.9826 2V0.5H10.4826V2H11.9826ZM14.2326 2H15.7326V0.5H14.2326V2ZM11.9826 8V9.5H13.4826V8H11.9826ZM3 8V6.5H1.5V8H3ZM3 10H1.5V11.5H3V10ZM11.9826 10H13.4826V8.5H11.9826V10ZM11.9826 16H10.4826V17.5H11.9826V16ZM14.2326 16V17.5H15.7326V16H14.2326ZM14.2326 10V8.5H12.7326V10H14.2326ZM23.25 10V11.5H24.75V10H23.25ZM23.25 8H24.75V6.5H23.25V8ZM14.2326 8H12.7326V9.5H14.2326V8ZM11.9826 3.5H14.2326V0.5H11.9826V3.5ZM13.4826 8V2H10.4826V8H13.4826ZM3 9.5H11.9826V6.5H3V9.5ZM4.5 10V8H1.5V10H4.5ZM11.9826 8.5H3V11.5H11.9826V8.5ZM13.4826 16V10H10.4826V16H13.4826ZM14.2326 14.5H11.9826V17.5H14.2326V14.5ZM12.7326 10V16H15.7326V10H12.7326ZM23.25 8.5H14.2326V11.5H23.25V8.5ZM21.75 8V10H24.75V8H21.75ZM14.2326 9.5H23.25V6.5H14.2326V9.5ZM12.7326 2V8H15.7326V2H12.7326Z" fill="#F7FCFF" mask="url(#path-11-outside-1_5_8562)"/>
</g>
<path d="M26.0576 16.722V13.05H33.8597V13.0504V13.0567V13.0631V13.0695V13.0759V13.0824V13.0888V13.0953V13.1018V13.1083V13.1148V13.1213V13.1278V13.1344V13.141V13.1475V13.1541V13.1607V13.1674V13.174V13.1807V13.1873V13.194V13.2007V13.2074V13.2142V13.2209V13.2277V13.2344V13.2412V13.248V13.2548V13.2616V13.2685V13.2753V13.2822V13.2891V13.296V13.3029V13.3098V13.3167V13.3236V13.3306V13.3376V13.3446V13.3515V13.3586V13.3656V13.3726V13.3796V13.3867V13.3938V13.4008V13.4079V13.415V13.4222V13.4293V13.4364V13.4436V13.4507V13.4579V13.4651V13.4723V13.4795V13.4867V13.494V13.5012V13.5084V13.5157V13.523V13.5303V13.5376V13.5449V13.5522V13.5595V13.5669V13.5742V13.5816V13.5889V13.5963V13.6037V13.6111V13.6185V13.6259V13.6334V13.6408V13.6483V13.6557V13.6632V13.6707V13.6781V13.6856V13.6931V13.7007V13.7082V13.7157V13.7233V13.7308V13.7384V13.7459V13.7535V13.7611V13.7687V13.7763V13.7839V13.7915V13.7992V13.8068V13.8144V13.8221V13.8297V13.8374V13.8451V13.8528V13.8605V13.8682V13.8759V13.8836V13.8913V13.899V13.9068V13.9145V13.9222V13.93V13.9378V13.9455V13.9533V13.9611V13.9689V13.9767V13.9845V13.9923V14.0001V14.0079V14.0158V14.0236V14.0314V14.0393V14.0471V14.055V14.0629V14.0707V14.0786V14.0865V14.0944V14.1023V14.1101V14.1181V14.126V14.1339V14.1418V14.1497V14.1576V14.1656V14.1735V14.1814V14.1894V14.1973V14.2053V14.2133V14.2212V14.2292V14.2372V14.2451V14.2531V14.2611V14.2691V14.2771V14.2851V14.2931V14.3011V14.3091V14.3171V14.3251V14.3331V14.3411V14.3492V14.3572V14.3652V14.3733V14.3813V14.3893V14.3974V14.4054V14.4135V14.4215V14.4296V14.4376V14.4457V14.4537V14.4618V14.4698V14.4779V14.486V14.494V14.5021V14.5102V14.5183V14.5263V14.5344V14.5425V14.5506V14.5586V14.5667V14.5748V14.5829V14.591V14.5991V14.6071V14.6152V14.6233V14.6314V14.6395V14.6476V14.6557V14.6638V14.6718V14.6799V14.688V14.6961V14.7042V14.7123V14.7204V14.7285V14.7366V14.7447V14.7527V14.7608V14.7689V14.777V14.7851V14.7932V14.8013V14.8093V14.8174V14.8255V14.8336V14.8417V14.8497V14.8578V14.8659V14.874V14.882V14.8901V14.8982V14.9062V14.9143V14.9224V14.9304V14.9385V14.9465V14.9546V14.9627V14.9707V14.9787V14.9868V14.9948V15.0029V15.0109V15.0189V15.027V15.035V15.043V15.051V15.0591V15.0671V15.0751V15.0831V15.0911V15.0991V15.1071V15.1151V15.1231V15.1311V15.139V15.147V15.155V15.163V15.1709V15.1789V15.1868V15.1948V15.2027V15.2107V15.2186V15.2266V15.2345V15.2424V15.2503V15.2583V15.2662V15.2741V15.282V15.2899V15.2977V15.3056V15.3135V15.3214V15.3292V15.3371V15.345V15.3528V15.3606V15.3685V15.3763V15.3841V15.392V15.3998V15.4076V15.4154V15.4232V15.4309V15.4387V15.4465V15.4543V15.462V15.4698V15.4775V15.4853V15.493V15.5007V15.5084V15.5161V15.5238V15.5315V15.5392V15.5469V15.5546V15.5622V15.5699V15.5775V15.5852V15.5928V15.6004V15.608V15.6156V15.6232V15.6308V15.6384V15.646V15.6535V15.6611V15.6686V15.6762V15.6837V15.6912V15.6987V15.7062V15.7137V15.7212V15.7287V15.7361V15.7436V15.751V15.7585V15.7659V15.7733V15.7807V15.7881V15.7955V15.8028V15.8102V15.8176V15.8249V15.8322V15.8396V15.8469V15.8542V15.8615V15.8687V15.876V15.8833V15.8905V15.8977V15.905V15.9122V15.9194V15.9266V15.9337V15.9409V15.9481V15.9552V15.9623V15.9695V15.9766V15.9837V15.9908V15.9978V16.0049V16.0119V16.019V16.026V16.033V16.04V16.047V16.054V16.0609V16.0679V16.0748V16.0817V16.0886V16.0955V16.1024V16.1093V16.1161V16.123V16.1298V16.1366V16.1434V16.1502V16.157V16.1637V16.1705V16.1772V16.1839V16.1906V16.1973V16.204V16.2107V16.2173V16.2239V16.2306V16.2372V16.2438V16.2503V16.2569V16.2634V16.27V16.2765V16.283V16.2895V16.2959V16.3024V16.3088V16.3152V16.3216V16.328V16.3344V16.3408V16.3471V16.3534V16.3598V16.3661V16.3723V16.3786V16.3848V16.3911V16.3973V16.4035V16.4097V16.4158V16.422V16.4281V16.4342V16.4403V16.4464V16.4525V16.4585V16.4645V16.4705V16.4765V16.4825V16.4885V16.4944V16.5003V16.5062V16.5121V16.518V16.5239V16.5297V16.5355V16.5413V16.5471V16.5528V16.5586V16.5643V16.57V16.5757V16.5814V16.587V16.5926V16.5983V16.6039V16.6094V16.615V16.6205V16.626V16.6315V16.637V16.6425V16.6479V16.6533V16.6587V16.6641V16.6695V16.6748V16.6801V16.6854V16.6907V16.696V16.7012V16.7064V16.7116V16.7168V16.722C33.8597 19.0739 32.9507 20.6314 32.0248 21.6012C31.5615 22.0864 31.0936 22.4248 30.7327 22.6417C30.5522 22.7502 30.3987 22.8281 30.2862 22.8788C30.2299 22.9041 30.1842 22.9225 30.1507 22.9344C30.1339 22.9404 30.1207 22.9445 30.111 22.9472C30.1052 22.9488 30.1017 22.9495 30.1001 22.9498C30.0985 22.9495 30.0949 22.9487 30.0886 22.9471C30.0785 22.9444 30.0645 22.9402 30.0469 22.9341C30.0116 22.9222 29.963 22.9037 29.9031 22.8783C29.7833 22.8275 29.619 22.7495 29.4254 22.641C29.0382 22.4239 28.5347 22.0853 28.0356 21.5999C27.0382 20.6297 26.0576 19.0726 26.0576 16.722Z" fill="white"/>
<path d="M26.0576 16.722V13.05H33.8597V13.0504V13.0567V13.0631V13.0695V13.0759V13.0824V13.0888V13.0953V13.1018V13.1083V13.1148V13.1213V13.1278V13.1344V13.141V13.1475V13.1541V13.1607V13.1674V13.174V13.1807V13.1873V13.194V13.2007V13.2074V13.2142V13.2209V13.2277V13.2344V13.2412V13.248V13.2548V13.2616V13.2685V13.2753V13.2822V13.2891V13.296V13.3029V13.3098V13.3167V13.3236V13.3306V13.3376V13.3446V13.3515V13.3586V13.3656V13.3726V13.3796V13.3867V13.3938V13.4008V13.4079V13.415V13.4222V13.4293V13.4364V13.4436V13.4507V13.4579V13.4651V13.4723V13.4795V13.4867V13.494V13.5012V13.5084V13.5157V13.523V13.5303V13.5376V13.5449V13.5522V13.5595V13.5669V13.5742V13.5816V13.5889V13.5963V13.6037V13.6111V13.6185V13.6259V13.6334V13.6408V13.6483V13.6557V13.6632V13.6707V13.6781V13.6856V13.6931V13.7007V13.7082V13.7157V13.7233V13.7308V13.7384V13.7459V13.7535V13.7611V13.7687V13.7763V13.7839V13.7915V13.7992V13.8068V13.8144V13.8221V13.8297V13.8374V13.8451V13.8528V13.8605V13.8682V13.8759V13.8836V13.8913V13.899V13.9068V13.9145V13.9222V13.93V13.9378V13.9455V13.9533V13.9611V13.9689V13.9767V13.9845V13.9923V14.0001V14.0079V14.0158V14.0236V14.0314V14.0393V14.0471V14.055V14.0629V14.0707V14.0786V14.0865V14.0944V14.1023V14.1101V14.1181V14.126V14.1339V14.1418V14.1497V14.1576V14.1656V14.1735V14.1814V14.1894V14.1973V14.2053V14.2133V14.2212V14.2292V14.2372V14.2451V14.2531V14.2611V14.2691V14.2771V14.2851V14.2931V14.3011V14.3091V14.3171V14.3251V14.3331V14.3411V14.3492V14.3572V14.3652V14.3733V14.3813V14.3893V14.3974V14.4054V14.4135V14.4215V14.4296V14.4376V14.4457V14.4537V14.4618V14.4698V14.4779V14.486V14.494V14.5021V14.5102V14.5183V14.5263V14.5344V14.5425V14.5506V14.5586V14.5667V14.5748V14.5829V14.591V14.5991V14.6071V14.6152V14.6233V14.6314V14.6395V14.6476V14.6557V14.6638V14.6718V14.6799V14.688V14.6961V14.7042V14.7123V14.7204V14.7285V14.7366V14.7447V14.7527V14.7608V14.7689V14.777V14.7851V14.7932V14.8013V14.8093V14.8174V14.8255V14.8336V14.8417V14.8497V14.8578V14.8659V14.874V14.882V14.8901V14.8982V14.9062V14.9143V14.9224V14.9304V14.9385V14.9465V14.9546V14.9627V14.9707V14.9787V14.9868V14.9948V15.0029V15.0109V15.0189V15.027V15.035V15.043V15.051V15.0591V15.0671V15.0751V15.0831V15.0911V15.0991V15.1071V15.1151V15.1231V15.1311V15.139V15.147V15.155V15.163V15.1709V15.1789V15.1868V15.1948V15.2027V15.2107V15.2186V15.2266V15.2345V15.2424V15.2503V15.2583V15.2662V15.2741V15.282V15.2899V15.2977V15.3056V15.3135V15.3214V15.3292V15.3371V15.345V15.3528V15.3606V15.3685V15.3763V15.3841V15.392V15.3998V15.4076V15.4154V15.4232V15.4309V15.4387V15.4465V15.4543V15.462V15.4698V15.4775V15.4853V15.493V15.5007V15.5084V15.5161V15.5238V15.5315V15.5392V15.5469V15.5546V15.5622V15.5699V15.5775V15.5852V15.5928V15.6004V15.608V15.6156V15.6232V15.6308V15.6384V15.646V15.6535V15.6611V15.6686V15.6762V15.6837V15.6912V15.6987V15.7062V15.7137V15.7212V15.7287V15.7361V15.7436V15.751V15.7585V15.7659V15.7733V15.7807V15.7881V15.7955V15.8028V15.8102V15.8176V15.8249V15.8322V15.8396V15.8469V15.8542V15.8615V15.8687V15.876V15.8833V15.8905V15.8977V15.905V15.9122V15.9194V15.9266V15.9337V15.9409V15.9481V15.9552V15.9623V15.9695V15.9766V15.9837V15.9908V15.9978V16.0049V16.0119V16.019V16.026V16.033V16.04V16.047V16.054V16.0609V16.0679V16.0748V16.0817V16.0886V16.0955V16.1024V16.1093V16.1161V16.123V16.1298V16.1366V16.1434V16.1502V16.157V16.1637V16.1705V16.1772V16.1839V16.1906V16.1973V16.204V16.2107V16.2173V16.2239V16.2306V16.2372V16.2438V16.2503V16.2569V16.2634V16.27V16.2765V16.283V16.2895V16.2959V16.3024V16.3088V16.3152V16.3216V16.328V16.3344V16.3408V16.3471V16.3534V16.3598V16.3661V16.3723V16.3786V16.3848V16.3911V16.3973V16.4035V16.4097V16.4158V16.422V16.4281V16.4342V16.4403V16.4464V16.4525V16.4585V16.4645V16.4705V16.4765V16.4825V16.4885V16.4944V16.5003V16.5062V16.5121V16.518V16.5239V16.5297V16.5355V16.5413V16.5471V16.5528V16.5586V16.5643V16.57V16.5757V16.5814V16.587V16.5926V16.5983V16.6039V16.6094V16.615V16.6205V16.626V16.6315V16.637V16.6425V16.6479V16.6533V16.6587V16.6641V16.6695V16.6748V16.6801V16.6854V16.6907V16.696V16.7012V16.7064V16.7116V16.7168V16.722C33.8597 19.0739 32.9507 20.6314 32.0248 21.6012C31.5615 22.0864 31.0936 22.4248 30.7327 22.6417C30.5522 22.7502 30.3987 22.8281 30.2862 22.8788C30.2299 22.9041 30.1842 22.9225 30.1507 22.9344C30.1339 22.9404 30.1207 22.9445 30.111 22.9472C30.1052 22.9488 30.1017 22.9495 30.1001 22.9498C30.0985 22.9495 30.0949 22.9487 30.0886 22.9471C30.0785 22.9444 30.0645 22.9402 30.0469 22.9341C30.0116 22.9222 29.963 22.9037 29.9031 22.8783C29.7833 22.8275 29.619 22.7495 29.4254 22.641C29.0382 22.4239 28.5347 22.0853 28.0356 21.5999C27.0382 20.6297 26.0576 19.0726 26.0576 16.722Z" stroke="#0B50A0" stroke-width="0.1"/>
<path d="M26.0576 16.722V13.05H33.8597V13.0504V13.0567V13.0631V13.0695V13.0759V13.0824V13.0888V13.0953V13.1018V13.1083V13.1148V13.1213V13.1278V13.1344V13.141V13.1475V13.1541V13.1607V13.1674V13.174V13.1807V13.1873V13.194V13.2007V13.2074V13.2142V13.2209V13.2277V13.2344V13.2412V13.248V13.2548V13.2616V13.2685V13.2753V13.2822V13.2891V13.296V13.3029V13.3098V13.3167V13.3236V13.3306V13.3376V13.3446V13.3515V13.3586V13.3656V13.3726V13.3796V13.3867V13.3938V13.4008V13.4079V13.415V13.4222V13.4293V13.4364V13.4436V13.4507V13.4579V13.4651V13.4723V13.4795V13.4867V13.494V13.5012V13.5084V13.5157V13.523V13.5303V13.5376V13.5449V13.5522V13.5595V13.5669V13.5742V13.5816V13.5889V13.5963V13.6037V13.6111V13.6185V13.6259V13.6334V13.6408V13.6483V13.6557V13.6632V13.6707V13.6781V13.6856V13.6931V13.7007V13.7082V13.7157V13.7233V13.7308V13.7384V13.7459V13.7535V13.7611V13.7687V13.7763V13.7839V13.7915V13.7992V13.8068V13.8144V13.8221V13.8297V13.8374V13.8451V13.8528V13.8605V13.8682V13.8759V13.8836V13.8913V13.899V13.9068V13.9145V13.9222V13.93V13.9378V13.9455V13.9533V13.9611V13.9689V13.9767V13.9845V13.9923V14.0001V14.0079V14.0158V14.0236V14.0314V14.0393V14.0471V14.055V14.0629V14.0707V14.0786V14.0865V14.0944V14.1023V14.1101V14.1181V14.126V14.1339V14.1418V14.1497V14.1576V14.1656V14.1735V14.1814V14.1894V14.1973V14.2053V14.2133V14.2212V14.2292V14.2372V14.2451V14.2531V14.2611V14.2691V14.2771V14.2851V14.2931V14.3011V14.3091V14.3171V14.3251V14.3331V14.3411V14.3492V14.3572V14.3652V14.3733V14.3813V14.3893V14.3974V14.4054V14.4135V14.4215V14.4296V14.4376V14.4457V14.4537V14.4618V14.4698V14.4779V14.486V14.494V14.5021V14.5102V14.5183V14.5263V14.5344V14.5425V14.5506V14.5586V14.5667V14.5748V14.5829V14.591V14.5991V14.6071V14.6152V14.6233V14.6314V14.6395V14.6476V14.6557V14.6638V14.6718V14.6799V14.688V14.6961V14.7042V14.7123V14.7204V14.7285V14.7366V14.7447V14.7527V14.7608V14.7689V14.777V14.7851V14.7932V14.8013V14.8093V14.8174V14.8255V14.8336V14.8417V14.8497V14.8578V14.8659V14.874V14.882V14.8901V14.8982V14.9062V14.9143V14.9224V14.9304V14.9385V14.9465V14.9546V14.9627V14.9707V14.9787V14.9868V14.9948V15.0029V15.0109V15.0189V15.027V15.035V15.043V15.051V15.0591V15.0671V15.0751V15.0831V15.0911V15.0991V15.1071V15.1151V15.1231V15.1311V15.139V15.147V15.155V15.163V15.1709V15.1789V15.1868V15.1948V15.2027V15.2107V15.2186V15.2266V15.2345V15.2424V15.2503V15.2583V15.2662V15.2741V15.282V15.2899V15.2977V15.3056V15.3135V15.3214V15.3292V15.3371V15.345V15.3528V15.3606V15.3685V15.3763V15.3841V15.392V15.3998V15.4076V15.4154V15.4232V15.4309V15.4387V15.4465V15.4543V15.462V15.4698V15.4775V15.4853V15.493V15.5007V15.5084V15.5161V15.5238V15.5315V15.5392V15.5469V15.5546V15.5622V15.5699V15.5775V15.5852V15.5928V15.6004V15.608V15.6156V15.6232V15.6308V15.6384V15.646V15.6535V15.6611V15.6686V15.6762V15.6837V15.6912V15.6987V15.7062V15.7137V15.7212V15.7287V15.7361V15.7436V15.751V15.7585V15.7659V15.7733V15.7807V15.7881V15.7955V15.8028V15.8102V15.8176V15.8249V15.8322V15.8396V15.8469V15.8542V15.8615V15.8687V15.876V15.8833V15.8905V15.8977V15.905V15.9122V15.9194V15.9266V15.9337V15.9409V15.9481V15.9552V15.9623V15.9695V15.9766V15.9837V15.9908V15.9978V16.0049V16.0119V16.019V16.026V16.033V16.04V16.047V16.054V16.0609V16.0679V16.0748V16.0817V16.0886V16.0955V16.1024V16.1093V16.1161V16.123V16.1298V16.1366V16.1434V16.1502V16.157V16.1637V16.1705V16.1772V16.1839V16.1906V16.1973V16.204V16.2107V16.2173V16.2239V16.2306V16.2372V16.2438V16.2503V16.2569V16.2634V16.27V16.2765V16.283V16.2895V16.2959V16.3024V16.3088V16.3152V16.3216V16.328V16.3344V16.3408V16.3471V16.3534V16.3598V16.3661V16.3723V16.3786V16.3848V16.3911V16.3973V16.4035V16.4097V16.4158V16.422V16.4281V16.4342V16.4403V16.4464V16.4525V16.4585V16.4645V16.4705V16.4765V16.4825V16.4885V16.4944V16.5003V16.5062V16.5121V16.518V16.5239V16.5297V16.5355V16.5413V16.5471V16.5528V16.5586V16.5643V16.57V16.5757V16.5814V16.587V16.5926V16.5983V16.6039V16.6094V16.615V16.6205V16.626V16.6315V16.637V16.6425V16.6479V16.6533V16.6587V16.6641V16.6695V16.6748V16.6801V16.6854V16.6907V16.696V16.7012V16.7064V16.7116V16.7168V16.722C33.8597 19.0739 32.9507 20.6314 32.0248 21.6012C31.5615 22.0864 31.0936 22.4248 30.7327 22.6417C30.5522 22.7502 30.3987 22.8281 30.2862 22.8788C30.2299 22.9041 30.1842 22.9225 30.1507 22.9344C30.1339 22.9404 30.1207 22.9445 30.111 22.9472C30.1052 22.9488 30.1017 22.9495 30.1001 22.9498C30.0985 22.9495 30.0949 22.9487 30.0886 22.9471C30.0785 22.9444 30.0645 22.9402 30.0469 22.9341C30.0116 22.9222 29.963 22.9037 29.9031 22.8783C29.7833 22.8275 29.619 22.7495 29.4254 22.641C29.0382 22.4239 28.5347 22.0853 28.0356 21.5999C27.0382 20.6297 26.0576 19.0726 26.0576 16.722Z" stroke="#F7FCFF" stroke-width="0.1"/>
<mask id="mask3_5_8562" style="mask-type:alpha" maskUnits="userSpaceOnUse" x="26" y="13" width="8" height="10">
<path d="M26.0576 16.722V13.05H33.8597V13.0504V13.0567V13.0631V13.0695V13.0759V13.0824V13.0888V13.0953V13.1018V13.1083V13.1148V13.1213V13.1278V13.1344V13.141V13.1475V13.1541V13.1607V13.1674V13.174V13.1807V13.1873V13.194V13.2007V13.2074V13.2142V13.2209V13.2277V13.2344V13.2412V13.248V13.2548V13.2616V13.2685V13.2753V13.2822V13.2891V13.296V13.3029V13.3098V13.3167V13.3236V13.3306V13.3376V13.3446V13.3515V13.3586V13.3656V13.3726V13.3796V13.3867V13.3938V13.4008V13.4079V13.415V13.4222V13.4293V13.4364V13.4436V13.4507V13.4579V13.4651V13.4723V13.4795V13.4867V13.494V13.5012V13.5084V13.5157V13.523V13.5303V13.5376V13.5449V13.5522V13.5595V13.5669V13.5742V13.5816V13.5889V13.5963V13.6037V13.6111V13.6185V13.6259V13.6334V13.6408V13.6483V13.6557V13.6632V13.6707V13.6781V13.6856V13.6931V13.7007V13.7082V13.7157V13.7233V13.7308V13.7384V13.7459V13.7535V13.7611V13.7687V13.7763V13.7839V13.7915V13.7992V13.8068V13.8144V13.8221V13.8297V13.8374V13.8451V13.8528V13.8605V13.8682V13.8759V13.8836V13.8913V13.899V13.9068V13.9145V13.9222V13.93V13.9378V13.9455V13.9533V13.9611V13.9689V13.9767V13.9845V13.9923V14.0001V14.0079V14.0158V14.0236V14.0314V14.0393V14.0471V14.055V14.0629V14.0707V14.0786V14.0865V14.0944V14.1023V14.1101V14.1181V14.126V14.1339V14.1418V14.1497V14.1576V14.1656V14.1735V14.1814V14.1894V14.1973V14.2053V14.2133V14.2212V14.2292V14.2372V14.2451V14.2531V14.2611V14.2691V14.2771V14.2851V14.2931V14.3011V14.3091V14.3171V14.3251V14.3331V14.3411V14.3492V14.3572V14.3652V14.3733V14.3813V14.3893V14.3974V14.4054V14.4135V14.4215V14.4296V14.4376V14.4457V14.4537V14.4618V14.4698V14.4779V14.486V14.494V14.5021V14.5102V14.5183V14.5263V14.5344V14.5425V14.5506V14.5586V14.5667V14.5748V14.5829V14.591V14.5991V14.6071V14.6152V14.6233V14.6314V14.6395V14.6476V14.6557V14.6638V14.6718V14.6799V14.688V14.6961V14.7042V14.7123V14.7204V14.7285V14.7366V14.7447V14.7527V14.7608V14.7689V14.777V14.7851V14.7932V14.8013V14.8093V14.8174V14.8255V14.8336V14.8417V14.8497V14.8578V14.8659V14.874V14.882V14.8901V14.8982V14.9062V14.9143V14.9224V14.9304V14.9385V14.9465V14.9546V14.9627V14.9707V14.9787V14.9868V14.9948V15.0029V15.0109V15.0189V15.027V15.035V15.043V15.051V15.0591V15.0671V15.0751V15.0831V15.0911V15.0991V15.1071V15.1151V15.1231V15.1311V15.139V15.147V15.155V15.163V15.1709V15.1789V15.1868V15.1948V15.2027V15.2107V15.2186V15.2266V15.2345V15.2424V15.2503V15.2583V15.2662V15.2741V15.282V15.2899V15.2977V15.3056V15.3135V15.3214V15.3292V15.3371V15.345V15.3528V15.3606V15.3685V15.3763V15.3841V15.392V15.3998V15.4076V15.4154V15.4232V15.4309V15.4387V15.4465V15.4543V15.462V15.4698V15.4775V15.4853V15.493V15.5007V15.5084V15.5161V15.5238V15.5315V15.5392V15.5469V15.5546V15.5622V15.5699V15.5775V15.5852V15.5928V15.6004V15.608V15.6156V15.6232V15.6308V15.6384V15.646V15.6535V15.6611V15.6686V15.6762V15.6837V15.6912V15.6987V15.7062V15.7137V15.7212V15.7287V15.7361V15.7436V15.751V15.7585V15.7659V15.7733V15.7807V15.7881V15.7955V15.8028V15.8102V15.8176V15.8249V15.8322V15.8396V15.8469V15.8542V15.8615V15.8687V15.876V15.8833V15.8905V15.8977V15.905V15.9122V15.9194V15.9266V15.9337V15.9409V15.9481V15.9552V15.9623V15.9695V15.9766V15.9837V15.9908V15.9978V16.0049V16.0119V16.019V16.026V16.033V16.04V16.047V16.054V16.0609V16.0679V16.0748V16.0817V16.0886V16.0955V16.1024V16.1093V16.1161V16.123V16.1298V16.1366V16.1434V16.1502V16.157V16.1637V16.1705V16.1772V16.1839V16.1906V16.1973V16.204V16.2107V16.2173V16.2239V16.2306V16.2372V16.2438V16.2503V16.2569V16.2634V16.27V16.2765V16.283V16.2895V16.2959V16.3024V16.3088V16.3152V16.3216V16.328V16.3344V16.3408V16.3471V16.3534V16.3598V16.3661V16.3723V16.3786V16.3848V16.3911V16.3973V16.4035V16.4097V16.4158V16.422V16.4281V16.4342V16.4403V16.4464V16.4525V16.4585V16.4645V16.4705V16.4765V16.4825V16.4885V16.4944V16.5003V16.5062V16.5121V16.518V16.5239V16.5297V16.5355V16.5413V16.5471V16.5528V16.5586V16.5643V16.57V16.5757V16.5814V16.587V16.5926V16.5983V16.6039V16.6094V16.615V16.6205V16.626V16.6315V16.637V16.6425V16.6479V16.6533V16.6587V16.6641V16.6695V16.6748V16.6801V16.6854V16.6907V16.696V16.7012V16.7064V16.7116V16.7168V16.722C33.8597 19.0739 32.9507 20.6314 32.0248 21.6012C31.5615 22.0864 31.0936 22.4248 30.7327 22.6417C30.5522 22.7502 30.3987 22.8281 30.2862 22.8788C30.2299 22.9041 30.1842 22.9225 30.1507 22.9344C30.1339 22.9404 30.1207 22.9445 30.111 22.9472C30.1052 22.9488 30.1017 22.9495 30.1001 22.9498C30.0985 22.9495 30.0949 22.9487 30.0886 22.9471C30.0785 22.9444 30.0645 22.9402 30.0469 22.9341C30.0116 22.9222 29.963 22.9037 29.9031 22.8783C29.7833 22.8275 29.619 22.7495 29.4254 22.641C29.0382 22.4239 28.5347 22.0853 28.0356 21.5999C27.0382 20.6297 26.0576 19.0726 26.0576 16.722Z" fill="white"/>
<path d="M26.0576 16.722V13.05H33.8597V13.0504V13.0567V13.0631V13.0695V13.0759V13.0824V13.0888V13.0953V13.1018V13.1083V13.1148V13.1213V13.1278V13.1344V13.141V13.1475V13.1541V13.1607V13.1674V13.174V13.1807V13.1873V13.194V13.2007V13.2074V13.2142V13.2209V13.2277V13.2344V13.2412V13.248V13.2548V13.2616V13.2685V13.2753V13.2822V13.2891V13.296V13.3029V13.3098V13.3167V13.3236V13.3306V13.3376V13.3446V13.3515V13.3586V13.3656V13.3726V13.3796V13.3867V13.3938V13.4008V13.4079V13.415V13.4222V13.4293V13.4364V13.4436V13.4507V13.4579V13.4651V13.4723V13.4795V13.4867V13.494V13.5012V13.5084V13.5157V13.523V13.5303V13.5376V13.5449V13.5522V13.5595V13.5669V13.5742V13.5816V13.5889V13.5963V13.6037V13.6111V13.6185V13.6259V13.6334V13.6408V13.6483V13.6557V13.6632V13.6707V13.6781V13.6856V13.6931V13.7007V13.7082V13.7157V13.7233V13.7308V13.7384V13.7459V13.7535V13.7611V13.7687V13.7763V13.7839V13.7915V13.7992V13.8068V13.8144V13.8221V13.8297V13.8374V13.8451V13.8528V13.8605V13.8682V13.8759V13.8836V13.8913V13.899V13.9068V13.9145V13.9222V13.93V13.9378V13.9455V13.9533V13.9611V13.9689V13.9767V13.9845V13.9923V14.0001V14.0079V14.0158V14.0236V14.0314V14.0393V14.0471V14.055V14.0629V14.0707V14.0786V14.0865V14.0944V14.1023V14.1101V14.1181V14.126V14.1339V14.1418V14.1497V14.1576V14.1656V14.1735V14.1814V14.1894V14.1973V14.2053V14.2133V14.2212V14.2292V14.2372V14.2451V14.2531V14.2611V14.2691V14.2771V14.2851V14.2931V14.3011V14.3091V14.3171V14.3251V14.3331V14.3411V14.3492V14.3572V14.3652V14.3733V14.3813V14.3893V14.3974V14.4054V14.4135V14.4215V14.4296V14.4376V14.4457V14.4537V14.4618V14.4698V14.4779V14.486V14.494V14.5021V14.5102V14.5183V14.5263V14.5344V14.5425V14.5506V14.5586V14.5667V14.5748V14.5829V14.591V14.5991V14.6071V14.6152V14.6233V14.6314V14.6395V14.6476V14.6557V14.6638V14.6718V14.6799V14.688V14.6961V14.7042V14.7123V14.7204V14.7285V14.7366V14.7447V14.7527V14.7608V14.7689V14.777V14.7851V14.7932V14.8013V14.8093V14.8174V14.8255V14.8336V14.8417V14.8497V14.8578V14.8659V14.874V14.882V14.8901V14.8982V14.9062V14.9143V14.9224V14.9304V14.9385V14.9465V14.9546V14.9627V14.9707V14.9787V14.9868V14.9948V15.0029V15.0109V15.0189V15.027V15.035V15.043V15.051V15.0591V15.0671V15.0751V15.0831V15.0911V15.0991V15.1071V15.1151V15.1231V15.1311V15.139V15.147V15.155V15.163V15.1709V15.1789V15.1868V15.1948V15.2027V15.2107V15.2186V15.2266V15.2345V15.2424V15.2503V15.2583V15.2662V15.2741V15.282V15.2899V15.2977V15.3056V15.3135V15.3214V15.3292V15.3371V15.345V15.3528V15.3606V15.3685V15.3763V15.3841V15.392V15.3998V15.4076V15.4154V15.4232V15.4309V15.4387V15.4465V15.4543V15.462V15.4698V15.4775V15.4853V15.493V15.5007V15.5084V15.5161V15.5238V15.5315V15.5392V15.5469V15.5546V15.5622V15.5699V15.5775V15.5852V15.5928V15.6004V15.608V15.6156V15.6232V15.6308V15.6384V15.646V15.6535V15.6611V15.6686V15.6762V15.6837V15.6912V15.6987V15.7062V15.7137V15.7212V15.7287V15.7361V15.7436V15.751V15.7585V15.7659V15.7733V15.7807V15.7881V15.7955V15.8028V15.8102V15.8176V15.8249V15.8322V15.8396V15.8469V15.8542V15.8615V15.8687V15.876V15.8833V15.8905V15.8977V15.905V15.9122V15.9194V15.9266V15.9337V15.9409V15.9481V15.9552V15.9623V15.9695V15.9766V15.9837V15.9908V15.9978V16.0049V16.0119V16.019V16.026V16.033V16.04V16.047V16.054V16.0609V16.0679V16.0748V16.0817V16.0886V16.0955V16.1024V16.1093V16.1161V16.123V16.1298V16.1366V16.1434V16.1502V16.157V16.1637V16.1705V16.1772V16.1839V16.1906V16.1973V16.204V16.2107V16.2173V16.2239V16.2306V16.2372V16.2438V16.2503V16.2569V16.2634V16.27V16.2765V16.283V16.2895V16.2959V16.3024V16.3088V16.3152V16.3216V16.328V16.3344V16.3408V16.3471V16.3534V16.3598V16.3661V16.3723V16.3786V16.3848V16.3911V16.3973V16.4035V16.4097V16.4158V16.422V16.4281V16.4342V16.4403V16.4464V16.4525V16.4585V16.4645V16.4705V16.4765V16.4825V16.4885V16.4944V16.5003V16.5062V16.5121V16.518V16.5239V16.5297V16.5355V16.5413V16.5471V16.5528V16.5586V16.5643V16.57V16.5757V16.5814V16.587V16.5926V16.5983V16.6039V16.6094V16.615V16.6205V16.626V16.6315V16.637V16.6425V16.6479V16.6533V16.6587V16.6641V16.6695V16.6748V16.6801V16.6854V16.6907V16.696V16.7012V16.7064V16.7116V16.7168V16.722C33.8597 19.0739 32.9507 20.6314 32.0248 21.6012C31.5615 22.0864 31.0936 22.4248 30.7327 22.6417C30.5522 22.7502 30.3987 22.8281 30.2862 22.8788C30.2299 22.9041 30.1842 22.9225 30.1507 22.9344C30.1339 22.9404 30.1207 22.9445 30.111 22.9472C30.1052 22.9488 30.1017 22.9495 30.1001 22.9498C30.0985 22.9495 30.0949 22.9487 30.0886 22.9471C30.0785 22.9444 30.0645 22.9402 30.0469 22.9341C30.0116 22.9222 29.963 22.9037 29.9031 22.8783C29.7833 22.8275 29.619 22.7495 29.4254 22.641C29.0382 22.4239 28.5347 22.0853 28.0356 21.5999C27.0382 20.6297 26.0576 19.0726 26.0576 16.722Z" stroke="white" stroke-width="0.1"/>
</mask>
<g mask="url(#mask3_5_8562)">
<rect x="25.5" y="12.5" width="9" height="3.4" fill="#F50100"/>
<path d="M29.512 16.6C29.8 16.6 30.376 16.2865 30.52 16.2142C31.048 15.9007 31.432 16.1901 31.744 16.3347C32.08 16.4794 32.704 16.6482 33.088 16.3347C33.472 16.0213 33.688 16.0454 33.952 16.0454C34 15.6837 34 15.322 34 14.9121V14.6228C33.664 14.5504 33.496 14.6469 33.136 14.9603C32.776 15.2738 32.368 15.2015 31.84 15.0086C31.336 14.7916 30.832 14.4058 30.328 15.0086C30.184 15.1774 29.848 15.4185 29.512 15.4185C29.152 15.4185 28.84 15.1774 28.696 15.0086C28.168 14.4058 27.688 14.7916 27.184 15.0086C26.656 15.2015 26.224 15.2738 25.864 14.9603C25.528 14.6469 25.36 14.5504 25 14.6228V14.9121C25 15.322 25.024 15.6837 25.072 16.0454C25.336 16.0454 25.528 16.0213 25.912 16.3347C26.296 16.6482 26.944 16.4794 27.256 16.3347C27.592 16.1901 27.976 15.9007 28.504 16.2142C28.648 16.2865 29.2 16.6 29.512 16.6H29.512Z" fill="#F50100"/>
<path fill-rule="evenodd" clip-rule="evenodd" d="M27.0837 14.0489C27.0837 14.0489 27.3006 14.0589 27.5574 14.3241C27.8143 14.5893 28.7595 14.4205 28.7595 14.2605C28.7595 14.1006 28.1859 14.005 28.4063 13.7315C28.6267 13.458 29 13.4575 29.3 13.6C29.386 13.6 29.3765 14.5356 29.5728 14.4842C30.1947 14.3216 31.1978 13.9993 31.492 14.1376C31.879 14.3195 32.1753 14.2743 32.0769 14.0132C31.9785 13.7522 31.7256 13.5891 31.2386 13.7315C30.7516 13.874 30.8665 14.0132 30.4457 14.0132C30.0248 14.0132 29.3026 14.2409 29.6234 13.7315C29.9107 13.2751 30.2535 13.2661 30.3843 13.458C30.4513 13.5562 29.9053 13.773 29.9053 13.874C29.9053 14.0132 31.3117 13.6002 31.492 13.6002C31.6722 13.6002 32.1683 13.5891 32.2175 13.7315C32.2666 13.874 32.5662 14.0048 32.3379 14.1376C32.1095 14.2704 31.733 14.3536 31.9921 14.5238C32.2511 14.694 32.9076 14.7713 32.9363 14.9484C32.965 15.1254 33.2473 15.3897 33.134 15.3897C33.0207 15.3897 32.8159 15.639 32.6252 15.5631C32.4345 15.4872 32.4121 15.4205 32.5949 15.3591C32.7778 15.2976 32.776 15.039 32.6252 15.039C32.4744 15.039 32.4873 15.0194 32.1439 14.9288C31.8005 14.8382 31.346 14.7375 31.3734 14.9288C31.4007 15.1201 31.6332 15.5307 31.2207 15.5699C30.8082 15.609 30.6152 15.7662 30.5349 15.6396C30.4546 15.5131 30.1676 15.3444 30.3933 15.2904C30.6189 15.2363 30.8346 15.4742 30.9158 15.4353C30.9971 15.3965 31.1724 15.2579 31.0181 15.0933C30.8638 14.9288 30.5641 14.9232 30.8 14.8C31.0358 14.6768 30.895 14.583 30.4457 14.8382C29.9963 15.0933 29.7464 15.3102 29.3519 15.2795C28.9575 15.2489 28.7805 15.3892 28.6537 15.3478C28.5269 15.3065 27.9094 15.8048 27.7316 15.6783C27.5538 15.5519 26.9797 15.5033 27.0831 15.3478C27.1864 15.1923 27.3251 15.1122 27.4797 15.1923C27.6342 15.2724 27.7877 15.3524 27.892 15.2724C27.9962 15.1923 28.3263 14.8186 28.2506 14.7636C28.175 14.7087 27.9083 14.6147 27.4797 14.6147C27.0511 14.6147 27.0412 14.3299 26.9394 14.2C26.8377 14.0702 27.0837 14.0489 27.0837 14.0489Z" fill="#FFD100"/>
<path d="M29.512 19C29.8 19 30.376 18.6865 30.52 18.6142C31.048 18.3007 31.432 18.5901 31.744 18.7348C32.08 18.8794 32.704 19.0482 33.088 18.7348C33.472 18.4213 33.688 18.4454 33.952 18.4454C34 18.0837 34 17.7221 34 17.3121V17.0228C33.664 16.9505 33.496 17.0469 33.136 17.3604C32.776 17.6738 32.368 17.6015 31.84 17.4086C31.336 17.1916 30.832 16.8058 30.328 17.4086C30.184 17.5774 29.848 17.8185 29.512 17.8185C29.152 17.8185 28.84 17.5774 28.696 17.4086C28.168 16.8058 27.688 17.1916 27.184 17.4086C26.656 17.6015 26.224 17.6738 25.864 17.3604C25.528 17.0469 25.36 16.9505 25 17.0228V17.3121C25 17.7221 25.024 18.0837 25.072 18.4454C25.336 18.4454 25.528 18.4213 25.912 18.7348C26.296 19.0482 26.944 18.8794 27.256 18.7348C27.592 18.5901 27.976 18.3007 28.504 18.6142C28.648 18.6865 29.2 19 29.512 19H29.512Z" fill="#0B50A0"/>
<path d="M29.512 21.3C29.8 21.3 30.376 20.9865 30.52 20.9142C31.048 20.6007 31.432 20.8901 31.744 21.0348C32.08 21.1794 32.704 21.3482 33.088 21.0348C33.472 20.7213 33.688 20.7454 33.952 20.7454C34 20.3837 34 20.022 34 19.6121V19.3228C33.664 19.2504 33.496 19.3469 33.136 19.6604C32.776 19.9738 32.368 19.9015 31.84 19.7086C31.336 19.4916 30.832 19.1058 30.328 19.7086C30.184 19.8774 29.848 20.1185 29.512 20.1185C29.152 20.1185 28.84 19.8774 28.696 19.7086C28.168 19.1058 27.688 19.4916 27.184 19.7086C26.656 19.9015 26.224 19.9738 25.864 19.6604C25.528 19.3469 25.36 19.2504 25 19.3228V19.6121C25 20.022 25.024 20.3837 25.072 20.7454C25.336 20.7454 25.528 20.7213 25.912 21.0348C26.296 21.3482 26.944 21.1794 27.256 21.0348C27.592 20.8901 27.976 20.6007 28.504 20.9142C28.648 20.9865 29.2 21.3 29.512 21.3H29.512Z" fill="#0B50A0"/>
<path d="M29.512 23.6C29.8 23.6 30.376 23.2865 30.52 23.2142C31.048 22.9007 31.432 23.1901 31.744 23.3347C32.08 23.4794 32.704 23.6482 33.088 23.3347C33.472 23.0213 33.688 23.0454 33.952 23.0454C34 22.6837 34 22.322 34 21.9121V21.6228C33.664 21.5504 33.496 21.6469 33.136 21.9603C32.776 22.2738 32.368 22.2015 31.84 22.0086C31.336 21.7916 30.832 21.4058 30.328 22.0086C30.184 22.1774 29.848 22.4185 29.512 22.4185C29.152 22.4185 28.84 22.1774 28.696 22.0086C28.168 21.4058 27.688 21.7916 27.184 22.0086C26.656 22.2015 26.224 22.2738 25.864 21.9603C25.528 21.6469 25.36 21.5504 25 21.6228V21.9121C25 22.322 25.024 22.6837 25.072 23.0454C25.336 23.0454 25.528 23.0213 25.912 23.3347C26.296 23.6482 26.944 23.4794 27.256 23.3347C27.592 23.1901 27.976 22.9007 28.504 23.2142C28.648 23.2865 29.2 23.6 29.512 23.6H29.512Z" fill="#0B50A0"/>
<path d="M30.0824 20.5445L30.0329 20.5184L29.9847 20.5469L29.568 20.7939L29.6905 20.2771L29.704 20.2203L29.6611 20.1806L29.2556 19.8059H29.7749H29.8446L29.8687 19.7404L30.0421 19.2694L30.2476 19.7455L30.2737 19.8059H30.3395H30.7676L30.4084 20.1853L30.3671 20.2289L30.3862 20.2858L30.5565 20.795L30.0824 20.5445Z" fill="#059334" stroke="#FFD100" stroke-width="0.2"/>
<path d="M28.0824 18.5445L28.0329 18.5184L27.9847 18.5469L27.568 18.7939L27.6905 18.2771L27.704 18.2203L27.6611 18.1806L27.2556 17.8059H27.7749H27.8446L27.8687 17.7404L28.0421 17.2694L28.2476 17.7455L28.2737 17.8059H28.3395H28.7676L28.4084 18.1853L28.3671 18.2289L28.3862 18.2858L28.5565 18.795L28.0824 18.5445Z" fill="#059334" stroke="#FFD100" stroke-width="0.2"/>
<path d="M32.0824 18.5445L32.0329 18.5184L31.9847 18.5469L31.568 18.7939L31.6905 18.2771L31.704 18.2203L31.6611 18.1806L31.2556 17.8059H31.7749H31.8446L31.8687 17.7404L32.0421 17.2694L32.2476 17.7455L32.2737 17.8059H32.3395H32.7676L32.4084 18.1853L32.3671 18.2289L32.3862 18.2858L32.5565 18.795L32.0824 18.5445Z" fill="#059334" stroke="#FFD100" stroke-width="0.2"/>
</g>
<path d="M25.337 22.6344C25.4288 22.831 26.0872 23.089 26.8528 22.7573C27.3733 22.5238 27.7102 22.192 28.0317 21.6022C28.1236 21.4547 28.1695 21.2704 27.9551 21.1598C27.7867 21.0615 27.5111 20.9509 27.3886 20.8526C27.3274 20.8035 27.2661 20.7666 27.2202 20.7297C27.2508 20.7543 27.2815 20.7789 27.3121 20.8158C27.6183 21.1107 27.2968 21.5408 26.9599 21.7988C26.7149 21.9831 26.2709 22.4378 25.6279 22.0077C25.4901 21.9094 25.1685 22.3149 25.337 22.6344L25.337 22.6344Z" fill="#FFD100"/>
<path d="M34.646 22.6344C34.5388 22.831 33.8804 23.089 33.1302 22.7573C32.6096 22.5238 32.2728 22.192 31.9359 21.6022C31.8594 21.4547 31.8134 21.2704 32.0278 21.1598C32.1962 21.0615 32.4718 20.9509 32.5943 20.8526C32.6555 20.8035 32.7015 20.7666 32.7627 20.7297C32.7321 20.7543 32.7015 20.7789 32.6709 20.8158C32.3646 21.1107 32.6862 21.5408 33.0077 21.7988C33.2527 21.9831 33.712 22.4378 34.3551 22.0077C34.4929 21.9094 34.7991 22.3149 34.646 22.6344L34.646 22.6344Z" fill="#FFD100"/>
<path d="M29.9916 23.6912C31.2164 23.6912 33.0997 23.2488 34.1102 21.7005C34.2786 21.4425 34.1102 21.3073 33.9112 21.2213C33.6968 21.1476 33.4365 20.9755 33.2987 20.8649C33.5437 21.0615 33.4978 21.1967 33.3294 21.4179C32.5485 22.4624 31.4767 22.9908 29.9916 22.9908C28.5064 22.9908 27.4346 22.4624 26.6538 21.4179C26.4853 21.1967 26.4394 21.0615 26.6691 20.8649C26.5466 20.9755 26.271 21.1476 26.0566 21.2213C25.8576 21.3073 25.6892 21.4425 25.8576 21.7005C26.8681 23.2488 28.7667 23.6912 29.9916 23.6912H29.9916Z" fill="#FFD100"/>
<path d="M27.1589 21.6145C27.1282 21.4916 26.9292 21.5408 26.868 21.6882C26.7914 21.6022 26.7148 21.5162 26.6536 21.4179C26.4699 21.1967 26.4392 21.0492 26.6995 20.8403C26.822 20.742 27.067 20.6314 27.2354 20.7543C27.5876 20.9878 27.4038 21.3687 27.1589 21.6145L27.1589 21.6145Z" fill="#F50100"/>
<path d="M32.8086 21.6145C32.8393 21.4916 33.0536 21.5408 33.1149 21.6882C33.1914 21.6022 33.268 21.5162 33.3292 21.4179C33.513 21.1967 33.5436 21.0492 33.268 20.8403C33.1608 20.742 32.9158 20.6314 32.7321 20.7543C32.3953 20.9878 32.5637 21.3687 32.8086 21.6145L32.8086 21.6145Z" fill="#F50100"/>
<path d="M28.424 11.3644C28.3037 11.2001 27.9771 11.1271 27.8396 11.2731C27.7881 11.3096 27.7193 11.3096 27.6678 11.3279C27.5818 11.3279 27.4721 11.3739 27.5065 11.5564C27.599 11.5564 27.599 11.6017 27.6506 11.6017C27.6849 11.5834 27.7743 11.9183 27.9462 11.9C28.1353 11.9 28.3037 11.985 28.3381 12.0215C28.3897 12.0763 28.4584 12.2223 28.3725 12.2953C28.2521 12.4048 28.1662 12.6604 28.3725 12.8612C28.5959 13.0437 29.1631 13.3175 29.7991 12.7882C30.4179 12.2771 31.3804 12.5691 31.4491 12.7517C31.5351 12.9342 31.5695 13.0437 31.5866 13.135C31.6038 13.208 32.0679 13.3175 32.1367 13.3723C32.2226 13.427 32.3429 13.4088 32.3086 13.2445C32.2398 12.7334 31.9476 12.6604 31.9132 12.4231C32.0851 12.4414 32.2054 12.4414 32.2742 12.3683C32.3257 12.2953 32.3945 12.1676 32.4632 12.131C32.5148 12.0945 32.5148 12.058 32.4461 12.0763C32.3601 12.0945 32.3086 12.131 32.1539 12.1128C31.7879 12.0706 31.8784 10.6859 30.6682 10.4166C29.9203 10.2501 28.9877 11.3915 28.7319 11.5045C28.7264 11.507 28.7211 11.509 28.7162 11.5104C28.5959 11.5104 28.4928 11.4557 28.424 11.3644Z" fill="#059334"/>
</g>
</g>
<defs>
<filter id="filter0_dd_5_8562" x="0" y="0" width="42" height="30" filterUnits="userSpaceOnUse" color-interpolation-filters="sRGB">
<feFlood flood-opacity="0" result="BackgroundImageFix"/>
<feColorMatrix in="SourceAlpha" type="matrix" values="0 0 0 0 0 0 0 0 0 0 0 0 0 0 0 0 0 0 127 0" result="hardAlpha"/>
<feOffset dy="1"/>
<feGaussianBlur stdDeviation="1"/>
<feColorMatrix type="matrix" values="0 0 0 0 0.0627451 0 0 0 0 0.0941176 0 0 0 0 0.156863 0 0 0 0.06 0"/>
<feBlend mode="normal" in2="BackgroundImageFix" result="effect1_dropShadow_5_8562"/>
<feColorMatrix in="SourceAlpha" type="matrix" values="0 0 0 0 0 0 0 0 0 0 0 0 0 0 0 0 0 0 127 0" result="hardAlpha"/>
<feOffset dy="1"/>
<feGaussianBlur stdDeviation="1.5"/>
<feColorMatrix type="matrix" values="0 0 0 0 0.0627451 0 0 0 0 0.0941176 0 0 0 0 0.156863 0 0 0 0.1 0"/>
<feBlend mode="normal" in2="effect1_dropShadow_5_8562" result="effect2_dropShadow_5_8562"/>
<feBlend mode="normal" in="SourceGraphic" in2="effect2_dropShadow_5_8562" result="shape"/>
</filter>
</defs>
</svg>
