<svg width="42" height="30" viewBox="0 0 42 30" fill="none" xmlns="http://www.w3.org/2000/svg">
<g filter="url(#filter0_dd_5_7856)">
<mask id="mask0_5_7856" style="mask-type:alpha" maskUnits="userSpaceOnUse" x="3" y="2" width="36" height="24">
<rect x="3" y="2" width="36" height="24" fill="white"/>
</mask>
<g mask="url(#mask0_5_7856)">
<path fill-rule="evenodd" clip-rule="evenodd" d="M3 2V26H39V2H3Z" fill="#009933"/>
<mask id="mask1_5_7856" style="mask-type:alpha" maskUnits="userSpaceOnUse" x="3" y="2" width="36" height="24">
<path fill-rule="evenodd" clip-rule="evenodd" d="M3 2V26H39V2H3Z" fill="white"/>
</mask>
<g mask="url(#mask1_5_7856)">
<path fill-rule="evenodd" clip-rule="evenodd" d="M3 2V26L39 2H3Z" fill="#3195F9"/>
<path d="M1.99633 29.1379L2.51778 29.9776L3.36354 29.4659L42.5494 5.75658L43.3532 5.27024L42.9179 4.43768L40.2833 -0.601503L39.7948 -1.53591L38.8875 -0.998608L-0.88763 22.5579L-1.7663 23.0783L-1.2276 23.9458L1.99633 29.1379Z" fill="#E31D1C" stroke="#F7FCFF" stroke-width="2"/>
<path fill-rule="evenodd" clip-rule="evenodd" d="M10.0084 11.2447L8.55255 12.8592L8.1999 10.814L6.03093 11.5651L6.87598 9.63714L4.57507 9.32368L6.39139 8.02958L4.57507 6.73549L6.87598 6.42202L6.03093 4.49405L8.1999 5.2452L8.55255 3.19995L10.0084 4.81446L11.4643 3.19995L11.8169 5.2452L13.9859 4.49405L13.1408 6.42202L15.4417 6.73549L13.6254 8.02958L15.4417 9.32368L13.1408 9.63714L13.9859 11.5651L11.8169 10.814L11.4643 12.8592L10.0084 11.2447ZM10.0084 10.5296C11.5617 10.5296 12.8209 9.41029 12.8209 8.02958C12.8209 6.64887 11.5617 5.52958 10.0084 5.52958C8.45511 5.52958 7.19591 6.64887 7.19591 8.02958C7.19591 9.41029 8.45511 10.5296 10.0084 10.5296ZM12.2583 8.02959C12.2583 9.13416 11.251 10.0296 10.0083 10.0296C8.76568 10.0296 7.75832 9.13416 7.75832 8.02959C7.75832 6.92502 8.76568 6.02959 10.0083 6.02959C11.251 6.02959 12.2583 6.92502 12.2583 8.02959Z" fill="#FECA00"/>
</g>
</g>
</g>
<defs>
<filter id="filter0_dd_5_7856" x="0" y="0" width="42" height="30" filterUnits="userSpaceOnUse" color-interpolation-filters="sRGB">
<feFlood flood-opacity="0" result="BackgroundImageFix"/>
<feColorMatrix in="SourceAlpha" type="matrix" values="0 0 0 0 0 0 0 0 0 0 0 0 0 0 0 0 0 0 127 0" result="hardAlpha"/>
<feOffset dy="1"/>
<feGaussianBlur stdDeviation="1"/>
<feColorMatrix type="matrix" values="0 0 0 0 0.0627451 0 0 0 0 0.0941176 0 0 0 0 0.156863 0 0 0 0.06 0"/>
<feBlend mode="normal" in2="BackgroundImageFix" result="effect1_dropShadow_5_7856"/>
<feColorMatrix in="SourceAlpha" type="matrix" values="0 0 0 0 0 0 0 0 0 0 0 0 0 0 0 0 0 0 127 0" result="hardAlpha"/>
<feOffset dy="1"/>
<feGaussianBlur stdDeviation="1.5"/>
<feColorMatrix type="matrix" values="0 0 0 0 0.0627451 0 0 0 0 0.0941176 0 0 0 0 0.156863 0 0 0 0.1 0"/>
<feBlend mode="normal" in2="effect1_dropShadow_5_7856" result="effect2_dropShadow_5_7856"/>
<feBlend mode="normal" in="SourceGraphic" in2="effect2_dropShadow_5_7856" result="shape"/>
</filter>
</defs>
</svg>
