<svg width="42" height="30" viewBox="0 0 42 30" fill="none" xmlns="http://www.w3.org/2000/svg">
<g filter="url(#filter0_dd_5_5776)">
<mask id="mask0_5_5776" style="mask-type:alpha" maskUnits="userSpaceOnUse" x="3" y="2" width="36" height="24">
<rect x="3" y="2" width="36" height="24" fill="white"/>
</mask>
<g mask="url(#mask0_5_5776)">
<path fill-rule="evenodd" clip-rule="evenodd" d="M3 2H39V26H3V2Z" fill="#F7FCFF"/>
<path fill-rule="evenodd" clip-rule="evenodd" d="M3 2H18.75V26H3V2Z" fill="#FFDC17"/>
<path d="M28.6293 14.7511L28.241 14.7736C28.3338 15.9594 28.6203 16.8753 29.1067 17.5217C29.891 18.5642 30.9261 19.3702 31.6187 19.3702C31.7761 19.3702 31.8127 19.4221 31.7608 19.5503C31.687 19.7326 31.4537 19.9119 31.1535 19.9807C30.6542 20.0951 29.5188 20.1544 27.7664 20.1544V20.4893C29.5538 20.4893 30.7099 20.429 31.2537 20.3043C31.676 20.2075 32.0111 19.95 32.1283 19.6604C32.2638 19.3256 32.0593 19.0353 31.6187 19.0353C31.1043 19.0353 30.15 18.2922 29.4334 17.3397C28.988 16.7478 28.718 15.8848 28.6293 14.7511Z" fill="#AF0100"/>
<path d="M26.7904 14.7511L27.1787 14.7736C27.0859 15.9594 26.7993 16.8753 26.313 17.5217C25.5286 18.5642 24.4936 19.3702 23.8009 19.3702C23.6436 19.3702 23.607 19.4221 23.6589 19.5503C23.7327 19.7326 23.966 19.9119 24.2662 19.9807C24.7654 20.0951 25.9009 20.1544 27.6533 20.1544V20.4893C25.8658 20.4893 24.7098 20.429 24.166 20.3043C23.7437 20.2075 23.4085 19.95 23.2914 19.6604C23.1559 19.3256 23.3604 19.0353 23.8009 19.0353C24.3153 19.0353 25.2696 18.2922 25.9863 17.3397C26.4317 16.7478 26.7017 15.8848 26.7904 14.7511Z" fill="#AF0100"/>
<path fill-rule="evenodd" clip-rule="evenodd" d="M34.5752 8.7981L24.2911 15.9241C23.931 15.8198 23.5379 15.7628 23.1285 15.7628C21.4599 15.7628 20.0636 16.7101 20.0636 17.9395C20.0636 19.1689 21.4599 20.1162 23.1285 20.1162C23.3198 20.1162 23.5076 20.1038 23.6901 20.0799C23.5213 19.9627 23.3952 19.8162 23.3322 19.6605C23.2563 19.4731 23.287 19.2996 23.4059 19.1832C23.3154 19.1912 23.2228 19.1953 23.1284 19.1953C22.0026 19.1953 21.1338 18.6059 21.1338 17.9395C21.1338 17.2732 22.0026 16.6837 23.1284 16.6837C24.2541 16.6837 25.1229 17.2732 25.1229 17.9395C25.1229 18.1435 25.0416 18.3402 24.8963 18.5151C24.9237 18.4933 24.9512 18.471 24.9788 18.4482C25.3353 18.1532 24.5343 19.3702 23.8417 19.3702C23.6844 19.3702 23.6478 19.4221 23.6997 19.5503C23.7688 19.7211 23.9779 19.8892 24.2507 19.9664C25.3789 19.6528 26.1933 18.8784 26.1933 17.9395C26.1933 17.5554 26.057 17.1989 25.8187 16.8901L31.3457 12.7205L31.7156 13.0603L31.9819 12.8456L32.9052 13.4538L32.5192 13.7184L33.3071 14.5697L34.8969 13.4804L34.9237 13.468L34.9191 13.4651L35.0176 13.3976L34.2296 12.5463L33.8486 12.8073L32.8163 12.1729L32.9373 12.0754L32.6052 11.7703L33.1045 11.3936L33.3696 11.6371L33.6543 11.4076L34.5493 12.0373L34.1732 12.2951L34.9611 13.1465L36.3225 12.2136L36.4789 12.1374L36.4562 12.122L36.6716 11.9744L35.8836 11.123L35.4385 11.428L34.4582 10.7594L34.5913 10.6521L34.364 10.4434L35.3816 9.6758L34.5752 8.7981Z" fill="#F4B300"/>
<path fill-rule="evenodd" clip-rule="evenodd" d="M20.6473 16.7255C20.9429 16.7255 21.1825 16.5569 21.1825 16.3488C21.1825 16.1407 20.9429 15.972 20.6473 15.972C20.3518 15.972 20.1122 16.1407 20.1122 16.3488C20.1122 16.5569 20.3518 16.7255 20.6473 16.7255ZM20.8419 20.1581C21.1374 20.1581 21.377 19.9894 21.377 19.7813C21.377 19.5733 21.1374 19.4046 20.8419 19.4046C20.5464 19.4046 20.3068 19.5733 20.3068 19.7813C20.3068 19.9894 20.5464 20.1581 20.8419 20.1581ZM26.1445 19.7813C26.1445 19.9894 25.905 20.1581 25.6094 20.1581C25.3139 20.1581 25.0743 19.9894 25.0743 19.7813C25.0743 19.5733 25.3139 19.4046 25.6094 19.4046C25.905 19.4046 26.1445 19.5733 26.1445 19.7813Z" fill="#BFBFBF"/>
<path fill-rule="evenodd" clip-rule="evenodd" d="M29.3067 17.9395C29.3067 17.3869 29.5888 16.8913 30.0509 16.5131L24.1452 12.4478L24.0779 12.4938L24.25 12.6326L23.7844 13.0603L23.5392 12.8626L22.6351 13.4815L22.9808 13.7184L22.1929 14.5697L20.6201 13.492L20.5763 13.468L20.5809 13.4651L20.4824 13.3976L21.2704 12.5463L21.6514 12.8073L22.6837 12.1729L22.5627 12.0754L23.0089 11.6656L22.489 11.3077L22.1304 11.637L21.8564 11.4161L20.9728 12.0524L21.3268 12.2951L20.5389 13.1465L19.2205 12.243L19.0211 12.1374L19.0438 12.1219L18.8284 11.9744L19.6164 11.123L20.0614 11.4279L21.0418 10.7594L20.9087 10.6521L21.1777 10.405L20.1183 9.67579L20.7869 8.95667L31.0039 15.9898C31.4176 15.844 31.8829 15.7627 32.3715 15.7627C34.0401 15.7627 35.4364 16.7101 35.4364 17.9395C35.4364 19.1689 34.0401 20.1162 32.3715 20.1162C32.1802 20.1162 31.9924 20.1038 31.8099 20.0798C31.9787 19.9627 32.1048 19.8162 32.1678 19.6604C32.2437 19.473 32.213 19.2996 32.0941 19.1832C32.1846 19.1912 32.2772 19.1953 32.3716 19.1953C33.4974 19.1953 34.3662 18.6059 34.3662 17.9395C34.3662 17.2732 33.4974 16.6837 32.3716 16.6837C31.2459 16.6837 30.3771 17.2732 30.3771 17.9395C30.3771 18.1434 30.4584 18.3401 30.6036 18.5149C30.5762 18.4932 30.5487 18.471 30.5212 18.4481C30.1647 18.1532 30.9657 19.3701 31.6583 19.3701C31.8156 19.3701 31.8522 19.4221 31.8003 19.5503C31.7312 19.721 31.5221 19.8892 31.2492 19.9663C30.1211 19.6528 29.3067 18.8784 29.3067 17.9395Z" fill="#BFBFBF"/>
<path fill-rule="evenodd" clip-rule="evenodd" d="M34.8527 16.7255C34.5571 16.7255 34.3175 16.5569 34.3175 16.3488C34.3175 16.1407 34.5571 15.972 34.8527 15.972C35.1482 15.972 35.3878 16.1407 35.3878 16.3488C35.3878 16.5569 35.1482 16.7255 34.8527 16.7255ZM34.6581 20.1581C34.3626 20.1581 34.123 19.9894 34.123 19.7813C34.123 19.5733 34.3626 19.4046 34.6581 19.4046C34.9536 19.4046 35.1932 19.5733 35.1932 19.7813C35.1932 19.9894 34.9536 20.1581 34.6581 20.1581ZM29.3555 19.7813C29.3555 19.9894 29.595 20.1581 29.8906 20.1581C30.1861 20.1581 30.4257 19.9894 30.4257 19.7813C30.4257 19.5733 30.1861 19.4046 29.8906 19.4046C29.595 19.4046 29.3555 19.5733 29.3555 19.7813Z" fill="#F4B300"/>
<path fill-rule="evenodd" clip-rule="evenodd" d="M27.4418 13.7953C27.3701 13.7953 27.3121 13.8534 27.3121 13.925V14.4651H26.7567C26.6873 14.4651 26.6311 14.5213 26.6311 14.5906C26.6311 14.66 26.6873 14.7162 26.7567 14.7162H27.3121V21.8702C27.3121 21.9419 27.3701 21.9999 27.4418 21.9999H27.7661C27.8378 21.9999 27.8958 21.9419 27.8958 21.8702V14.7162H28.7434C28.8127 14.7162 28.8689 14.66 28.8689 14.5906C28.8689 14.5213 28.8127 14.4651 28.7434 14.4651H27.8958V13.925C27.8958 13.8534 27.8378 13.7953 27.7661 13.7953H27.4418Z" fill="#AF0100"/>
<path fill-rule="evenodd" clip-rule="evenodd" d="M21.8489 9.59357L22.087 9.73883C22.642 9.06519 23.1414 8.92988 23.6494 9.28343C24.5265 9.89381 24.6024 11.383 23.6645 11.8816C22.5459 12.4763 21.9789 13.636 22.4749 14.2672C22.9326 14.8496 24.036 14.6292 25.1254 13.8976C25.3188 13.7678 25.5032 13.6291 25.6764 13.4835L25.4463 13.3255C25.2885 13.4567 25.1211 13.5819 24.9458 13.6996C23.9742 14.3521 23.0406 14.5386 22.7167 14.1265C22.3301 13.6345 22.8243 12.6235 23.8179 12.0953C24.9419 11.4978 24.8552 9.79957 23.833 9.08814C23.1737 8.62927 22.4909 8.81424 21.8489 9.59357ZM26.1328 12.6449L26.3702 12.7913C26.7834 12.2957 27.0656 11.759 27.1593 11.2304L26.8707 11.1926C26.7845 11.6794 26.5206 12.1797 26.1328 12.6449Z" fill="#979797"/>
<path fill-rule="evenodd" clip-rule="evenodd" d="M33.6781 9.59357L33.44 9.73883C32.885 9.06519 32.3855 8.92988 31.8775 9.28343C31.0005 9.89381 30.9245 11.383 31.8625 11.8816C32.9811 12.4763 33.5481 13.636 33.0521 14.2672C32.5944 14.8496 31.4909 14.6292 30.4016 13.8976C30.2082 13.7678 30.0238 13.6291 29.8505 13.4834L30.0806 13.3255C30.2385 13.4567 30.4058 13.5819 30.5811 13.6996C31.5528 14.3521 32.4864 14.5386 32.8103 14.1265C33.1969 13.6345 32.7027 12.6235 31.7091 12.0953C30.5851 11.4978 30.6718 9.79957 31.694 9.08814C32.3533 8.62927 33.036 8.81424 33.6781 9.59357ZM29.3942 12.6448L29.1567 12.7912C28.7436 12.2957 28.4614 11.759 28.3677 11.2304L28.6562 11.1926C28.7425 11.6794 29.0064 12.1797 29.3942 12.6448Z" fill="#979797"/>
<path fill-rule="evenodd" clip-rule="evenodd" d="M27.604 22.0165C27.9265 22.0165 28.1878 21.9003 28.1878 21.757C28.1878 21.6137 27.9265 21.4976 27.604 21.4976C27.2816 21.4976 27.0203 21.6137 27.0203 21.757C27.0203 21.9003 27.2816 22.0165 27.604 22.0165Z" fill="#AF0100"/>
<path fill-rule="evenodd" clip-rule="evenodd" d="M27.5067 11.2193C28.6352 11.2193 29.55 11.0838 29.55 10.9166C29.55 10.7494 28.6352 10.6139 27.5067 10.6139C26.3783 10.6139 25.4635 10.7494 25.4635 10.9166C25.4635 11.0838 26.3783 11.2193 27.5067 11.2193Z" fill="#AF0100"/>
<path fill-rule="evenodd" clip-rule="evenodd" d="M27.6218 4.03833H27.3299V4.33746H27.0535V4.58863H27.3299V5.32161H27.6218V4.58863H27.9587V4.33746H27.6218V4.03833ZM25.4269 7.65668L25.2966 7.46159C25.368 7.43499 25.4408 7.40989 25.5152 7.38628L25.1354 6.64602L25.4024 6.54459L25.7934 7.30667C25.8763 7.28543 25.9608 7.26589 26.0471 7.24803C25.987 7.18765 25.95 7.10502 25.95 7.0139C25.95 6.82895 26.1025 6.67902 26.2906 6.67902C26.4786 6.67902 26.6311 6.82895 26.6311 7.0139C26.6311 7.06611 26.619 7.11553 26.5973 7.15957C26.8285 7.13232 27.0699 7.11545 27.3217 7.10892V6.82511H26.9561V6.62311H27.3217V6.38251H27.7077V6.62311H28.1532V6.82511H27.7077V7.10694C27.9945 7.11137 28.2633 7.12911 28.5139 7.16025C28.492 7.11603 28.4798 7.06638 28.4798 7.0139C28.4798 6.82895 28.6322 6.67902 28.8203 6.67902C29.0084 6.67902 29.1608 6.82895 29.1608 7.0139C29.1608 7.10864 29.1208 7.19419 29.0565 7.25511C29.1654 7.28033 29.2699 7.30876 29.37 7.34041L29.6495 6.79578L29.9165 6.89721L29.6393 7.4375C29.6612 7.44647 29.6829 7.45563 29.7044 7.46497L29.5573 7.6533L29.5338 7.64318L29.4889 7.73061L29.2219 7.62917L29.2655 7.54414C28.8397 7.40828 28.3206 7.3349 27.7077 7.32501V7.41463H27.3217V7.32708C26.5941 7.3468 25.9629 7.45692 25.4269 7.65668ZM25.2966 7.88017L25.3647 7.98215L25.1354 8.06928L25.5151 8.8095C25.4408 8.83311 25.368 8.85821 25.2966 8.88481L25.4269 9.07989C25.9629 8.88014 26.5941 8.77002 27.3217 8.7503V8.83791H27.7077V8.74823C28.3206 8.75811 28.8397 8.8315 29.2655 8.96736L29.2219 9.05239L29.4889 9.15382L29.5338 9.0664L29.5573 9.07652L29.7044 8.88818C29.6829 8.87884 29.6612 8.86969 29.6393 8.86072L29.9165 8.32043L29.6495 8.21899L29.37 8.76363C29.2699 8.73198 29.1654 8.70355 29.0566 8.67834C29.1209 8.61742 29.1608 8.53189 29.1608 8.43718C29.1608 8.25223 29.0084 8.10229 28.8203 8.10229C28.6322 8.10229 28.4798 8.25223 28.4798 8.43718C28.4798 8.48963 28.492 8.53927 28.5139 8.58346C28.2633 8.55232 27.9945 8.53458 27.7077 8.53016V8.24833H28.1532V8.04633H27.7077V7.80579H27.3217V8.04633H26.9561V8.24833H27.3217V8.53214C27.0699 8.53867 26.8285 8.55554 26.5973 8.58279C26.619 8.53876 26.6311 8.48936 26.6311 8.43718C26.6311 8.25223 26.4786 8.10229 26.2906 8.10229C26.1025 8.10229 25.95 8.25223 25.95 8.43718C25.95 8.52828 25.987 8.61088 26.047 8.67125C25.9608 8.68911 25.8763 8.70866 25.7934 8.72989L25.4526 8.06577C26.0418 7.85056 26.7448 7.74244 27.563 7.74244C28.3907 7.74244 29.055 7.85305 29.5573 8.07188L29.7044 7.88354C29.153 7.64333 28.4387 7.52441 27.563 7.52441C26.6898 7.52441 25.9339 7.64265 25.2966 7.88017ZM25.2966 9.30345L25.3647 9.40541L25.1354 9.49254L25.5152 10.2328C25.4408 10.2564 25.368 10.2815 25.2966 10.3081L25.4269 10.5032C25.9629 10.3034 26.5941 10.1933 27.3217 10.1736V10.2611H27.7077V10.1715C28.3206 10.1814 28.8397 10.2548 29.2655 10.3906L29.2219 10.4757L29.4889 10.5771L29.5338 10.4897L29.5573 10.4998L29.7044 10.3115C29.6829 10.3021 29.6612 10.293 29.6393 10.284L29.9165 9.74371L29.6495 9.64227L29.37 10.1869C29.2699 10.1553 29.1654 10.1268 29.0565 10.1016C29.1208 10.0407 29.1608 9.95513 29.1608 9.8604C29.1608 9.67545 29.0084 9.52551 28.8203 9.52551C28.6322 9.52551 28.4798 9.67545 28.4798 9.8604C28.4798 9.91287 28.492 9.96253 28.5139 10.0067C28.2633 9.9756 27.9945 9.95786 27.7077 9.95344V9.67161H28.1532V9.4696H27.7077V9.229H27.3217V9.4696H26.9561V9.67161H27.3217V9.95542C27.0699 9.96195 26.8285 9.97882 26.5973 10.0061C26.619 9.96202 26.6311 9.91261 26.6311 9.8604C26.6311 9.67545 26.4786 9.52551 26.2906 9.52551C26.1025 9.52551 25.95 9.67545 25.95 9.8604C25.95 9.95152 25.987 10.0341 26.0471 10.0945C25.9608 10.1124 25.8763 10.1319 25.7934 10.1532L25.4527 9.48905C26.0418 9.27383 26.7448 9.16572 27.563 9.16572C28.3907 9.16572 29.055 9.27632 29.5573 9.49516L29.7044 9.30682C29.153 9.06661 28.4387 8.94769 27.563 8.94769C26.6898 8.94769 25.9339 9.06592 25.2966 9.30345ZM25.2966 10.7267L25.4269 10.9218C26.0213 10.7002 26.7328 10.5889 27.563 10.5889C28.3907 10.5889 29.055 10.6995 29.5573 10.9184L29.7044 10.73C29.153 10.4898 28.4387 10.3709 27.563 10.3709C26.6898 10.3709 25.9339 10.4891 25.2966 10.7267Z" fill="#F4B300"/>
</g>
</g>
<defs>
<filter id="filter0_dd_5_5776" x="0" y="0" width="42" height="30" filterUnits="userSpaceOnUse" color-interpolation-filters="sRGB">
<feFlood flood-opacity="0" result="BackgroundImageFix"/>
<feColorMatrix in="SourceAlpha" type="matrix" values="0 0 0 0 0 0 0 0 0 0 0 0 0 0 0 0 0 0 127 0" result="hardAlpha"/>
<feOffset dy="1"/>
<feGaussianBlur stdDeviation="1"/>
<feColorMatrix type="matrix" values="0 0 0 0 0.0627451 0 0 0 0 0.0941176 0 0 0 0 0.156863 0 0 0 0.06 0"/>
<feBlend mode="normal" in2="BackgroundImageFix" result="effect1_dropShadow_5_5776"/>
<feColorMatrix in="SourceAlpha" type="matrix" values="0 0 0 0 0 0 0 0 0 0 0 0 0 0 0 0 0 0 127 0" result="hardAlpha"/>
<feOffset dy="1"/>
<feGaussianBlur stdDeviation="1.5"/>
<feColorMatrix type="matrix" values="0 0 0 0 0.0627451 0 0 0 0 0.0941176 0 0 0 0 0.156863 0 0 0 0.1 0"/>
<feBlend mode="normal" in2="effect1_dropShadow_5_5776" result="effect2_dropShadow_5_5776"/>
<feBlend mode="normal" in="SourceGraphic" in2="effect2_dropShadow_5_5776" result="shape"/>
</filter>
</defs>
</svg>
