<svg width="42" height="30" viewBox="0 0 42 30" fill="none" xmlns="http://www.w3.org/2000/svg">
<g filter="url(#filter0_dd_5_5643)">
<mask id="mask0_5_5643" style="mask-type:alpha" maskUnits="userSpaceOnUse" x="3" y="2" width="36" height="24">
<rect x="3" y="2" width="36" height="24" fill="white"/>
</mask>
<g mask="url(#mask0_5_5643)">
<path fill-rule="evenodd" clip-rule="evenodd" d="M3 2V26H39V2H3Z" fill="#2E42A5"/>
<mask id="mask1_5_5643" style="mask-type:alpha" maskUnits="userSpaceOnUse" x="3" y="2" width="36" height="24">
<path fill-rule="evenodd" clip-rule="evenodd" d="M3 2V26H39V2H3Z" fill="white"/>
</mask>
<g mask="url(#mask1_5_5643)">
<rect x="3" y="2" width="20.25" height="14" fill="#2B409A"/>
<mask id="mask2_5_5643" style="mask-type:alpha" maskUnits="userSpaceOnUse" x="3" y="2" width="21" height="14">
<rect x="3" y="2" width="20.25" height="14" fill="white"/>
</mask>
<g mask="url(#mask2_5_5643)">
<path d="M0.745239 14.9997L5.20131 16.7369L23.3512 3.88866L25.7016 1.30713L20.9365 0.726505L13.5336 6.2632L7.57505 9.99363L0.745239 14.9997Z" fill="#F7FCFF"/>
<path d="M1.35522 16.217L3.62539 17.2251L24.8575 1.06738H21.67L1.35522 16.217Z" fill="#F50100"/>
<path d="M25.5048 14.9997L21.0487 16.7369L2.89885 3.88866L0.54837 1.30713L5.3135 0.726505L12.7164 6.2632L18.6749 9.99363L25.5048 14.9997Z" fill="#F7FCFF"/>
<path d="M25.3528 15.8733L23.0826 16.8815L14.0418 9.96351L11.3613 9.19059L0.322273 1.31605H3.50984L14.5427 9.00368L17.4733 9.9305L25.3528 15.8733Z" fill="#F50100"/>
<mask id="path-11-outside-1_5_5643" maskUnits="userSpaceOnUse" x="1" y="0" width="24" height="18" fill="black">
<rect fill="white" x="1" width="24" height="18"/>
<path fill-rule="evenodd" clip-rule="evenodd" d="M14.2326 2H11.9826V8H3V10H11.9826V16H14.2326V10H23.25V8H14.2326V2Z"/>
</mask>
<path fill-rule="evenodd" clip-rule="evenodd" d="M14.2326 2H11.9826V8H3V10H11.9826V16H14.2326V10H23.25V8H14.2326V2Z" fill="#F50100"/>
<path d="M11.9826 2V0.5H10.4826V2H11.9826ZM14.2326 2H15.7326V0.5H14.2326V2ZM11.9826 8V9.5H13.4826V8H11.9826ZM3 8V6.5H1.5V8H3ZM3 10H1.5V11.5H3V10ZM11.9826 10H13.4826V8.5H11.9826V10ZM11.9826 16H10.4826V17.5H11.9826V16ZM14.2326 16V17.5H15.7326V16H14.2326ZM14.2326 10V8.5H12.7326V10H14.2326ZM23.25 10V11.5H24.75V10H23.25ZM23.25 8H24.75V6.5H23.25V8ZM14.2326 8H12.7326V9.5H14.2326V8ZM11.9826 3.5H14.2326V0.5H11.9826V3.5ZM13.4826 8V2H10.4826V8H13.4826ZM3 9.5H11.9826V6.5H3V9.5ZM4.5 10V8H1.5V10H4.5ZM11.9826 8.5H3V11.5H11.9826V8.5ZM13.4826 16V10H10.4826V16H13.4826ZM14.2326 14.5H11.9826V17.5H14.2326V14.5ZM12.7326 10V16H15.7326V10H12.7326ZM23.25 8.5H14.2326V11.5H23.25V8.5ZM21.75 8V10H24.75V8H21.75ZM14.2326 9.5H23.25V6.5H14.2326V9.5ZM12.7326 2V8H15.7326V2H12.7326Z" fill="#F7FCFF" mask="url(#path-11-outside-1_5_5643)"/>
</g>
<path fill-rule="evenodd" clip-rule="evenodd" d="M25.7776 12.0327V18.5619C25.7776 18.5619 25.6687 23.964 31.2698 23.964C36.8709 23.964 36.8709 18.5619 36.8709 18.5619V12.0327H25.7776Z" fill="#3B7E05" stroke="#F7FCFF" stroke-width="0.5"/>
<path fill-rule="evenodd" clip-rule="evenodd" d="M25.7666 21.8887L26.6589 21.0924C28.0534 22.6233 29.5202 23.3684 31.0798 23.3684C32.6393 23.3684 34.1049 22.6234 35.4972 21.0927L36.0051 21.5453L36.0266 21.5169C36.3371 21.7506 36.5418 21.9692 36.6401 22.2225C36.8002 22.635 36.6292 23.0314 36.254 23.2411C36.1609 23.2931 36.087 23.3306 36.0213 23.3578C35.869 23.4208 35.7469 23.4482 35.5657 23.4028C35.3812 23.3565 35.2261 23.2303 35.1459 23.0566C33.8803 24.0516 32.5221 24.5576 31.0798 24.5576C29.6499 24.5576 28.3021 24.0602 27.0446 23.0821C26.9606 23.2529 26.8038 23.3755 26.6196 23.4186C26.4375 23.4612 26.3159 23.4319 26.1649 23.3666C26.0997 23.3383 26.0266 23.2997 25.9346 23.2463C25.5635 23.0308 25.4003 22.6318 25.5685 22.2219C25.6142 22.1103 25.6877 22.0069 25.7827 21.9063C25.7773 21.9005 25.772 21.8946 25.7666 21.8887Z" fill="#FFD018"/>
<path d="M26.6589 21.0924L26.8438 20.9241L26.6771 20.7411L26.4925 20.9059L26.6589 21.0924ZM25.7666 21.8887L25.6002 21.7022L25.4117 21.8704L25.5818 22.0571L25.7666 21.8887ZM35.4972 21.0927L35.6635 20.9061L35.4788 20.7414L35.3123 20.9245L35.4972 21.0927ZM36.0051 21.5453L35.8387 21.7319L36.0406 21.9118L36.2041 21.6965L36.0051 21.5453ZM36.0266 21.5169L36.1769 21.3172L35.978 21.1675L35.8275 21.3657L36.0266 21.5169ZM36.6401 22.2225L36.8732 22.132V22.132L36.6401 22.2225ZM36.254 23.2411L36.132 23.0229L36.254 23.2411ZM36.0213 23.3578L36.1169 23.5888L36.1169 23.5888L36.0213 23.3578ZM35.5657 23.4028L35.5049 23.6453L35.5657 23.4028ZM35.1459 23.0566L35.3728 22.9518L35.2401 22.6645L34.9913 22.8601L35.1459 23.0566ZM27.0446 23.0821L27.1981 22.8848L26.9558 22.6963L26.8203 22.9718L27.0446 23.0821ZM26.6196 23.4186L26.6765 23.662H26.6765L26.6196 23.4186ZM26.1649 23.3666L26.2642 23.1371H26.2642L26.1649 23.3666ZM25.9346 23.2463L25.809 23.4625L25.809 23.4625L25.9346 23.2463ZM25.5685 22.2219L25.3372 22.127H25.3372L25.5685 22.2219ZM25.7827 21.9063L25.9644 22.078L26.124 21.9091L25.9672 21.7376L25.7827 21.9063ZM26.4925 20.9059L25.6002 21.7022L25.9331 22.0752L26.8254 21.2789L26.4925 20.9059ZM31.0798 23.1184C29.6103 23.1184 28.2061 22.4196 26.8438 20.9241L26.4741 21.2608C27.9008 22.827 29.4301 23.6184 31.0798 23.6184V23.1184ZM35.3123 20.9245C33.9522 22.4198 32.5492 23.1184 31.0798 23.1184V23.6184C32.7295 23.6184 34.2576 22.8271 35.6821 21.2609L35.3123 20.9245ZM36.1714 21.3586L35.6635 20.9061L35.3309 21.2794L35.8387 21.7319L36.1714 21.3586ZM35.8275 21.3657L35.806 21.3941L36.2041 21.6965L36.2257 21.6681L35.8275 21.3657ZM36.8732 22.132C36.7497 21.8139 36.5006 21.5607 36.1769 21.3172L35.8763 21.7167C36.1736 21.9405 36.3339 22.1245 36.407 22.3129L36.8732 22.132ZM36.3759 23.4593C36.8483 23.1953 37.083 22.6727 36.8732 22.132L36.407 22.3129C36.5174 22.5973 36.41 22.8675 36.132 23.0229L36.3759 23.4593ZM36.1169 23.5888C36.1957 23.5562 36.2792 23.5134 36.3759 23.4593L36.132 23.0229C36.0426 23.0728 35.9784 23.105 35.9257 23.1268L36.1169 23.5888ZM35.5049 23.6453C35.7543 23.7078 35.933 23.6649 36.1169 23.5888L35.9257 23.1268C35.805 23.1767 35.7396 23.1886 35.6265 23.1603L35.5049 23.6453ZM34.9189 23.1615C35.0315 23.4051 35.2485 23.581 35.5049 23.6453L35.6265 23.1603C35.5139 23.132 35.4207 23.0554 35.3728 22.9518L34.9189 23.1615ZM31.0798 24.8076C32.5854 24.8076 33.9969 24.278 35.3004 23.2532L34.9913 22.8601C33.7638 23.8252 32.4588 24.3076 31.0798 24.3076V24.8076ZM26.8911 23.2795C28.1865 24.2871 29.5872 24.8076 31.0798 24.8076V24.3076C29.7126 24.3076 28.4176 23.8334 27.1981 22.8848L26.8911 23.2795ZM26.6765 23.662C26.9324 23.6022 27.1513 23.4317 27.2689 23.1925L26.8203 22.9718C26.7699 23.0742 26.6753 23.1488 26.5626 23.1752L26.6765 23.662ZM26.0656 23.596C26.2482 23.675 26.4261 23.7206 26.6765 23.662L26.5626 23.1752C26.4488 23.2018 26.3837 23.1888 26.2642 23.1371L26.0656 23.596ZM25.809 23.4625C25.9047 23.518 25.9874 23.5621 26.0656 23.596L26.2642 23.1371C26.2121 23.1145 26.1486 23.0815 26.0601 23.0301L25.809 23.4625ZM25.3372 22.127C25.117 22.6639 25.341 23.1906 25.809 23.4625L26.0601 23.0301C25.7861 22.8709 25.6837 22.5998 25.7998 22.3167L25.3372 22.127ZM25.601 21.7346C25.492 21.85 25.398 21.9788 25.3372 22.127L25.7998 22.3167C25.8305 22.2419 25.8834 22.1638 25.9644 22.078L25.601 21.7346ZM25.5818 22.0571C25.5873 22.0631 25.5927 22.0691 25.5982 22.075L25.9672 21.7376C25.9619 21.7319 25.9567 21.7261 25.9514 21.7204L25.5818 22.0571Z" fill="white"/>
<path fill-rule="evenodd" clip-rule="evenodd" d="M27.7003 13.4603L27.8255 13.5011C27.9277 13.2932 27.9446 13.1347 27.8255 13.033L27.8221 13.0284C27.7943 12.9898 27.745 12.9213 27.8255 12.7749L27.7681 12.6703C27.6516 12.8822 27.599 13.0351 27.6901 13.1382L27.6948 13.1435L27.7003 13.1479C27.753 13.1901 27.7752 13.3081 27.7003 13.4603ZM27.7003 14.9738L27.8255 15.0146C27.9277 14.8066 27.9446 14.6482 27.8255 14.5465L27.8221 14.5418C27.7943 14.5033 27.745 14.4348 27.8255 14.2884L27.7681 14.1838C27.6516 14.3957 27.599 14.5486 27.6901 14.6517L27.6948 14.657L27.7003 14.6614C27.753 14.7036 27.7752 14.8216 27.7003 14.9738ZM27.8255 16.3659L27.7003 16.3252C27.7752 16.1729 27.753 16.055 27.7003 16.0128L27.6948 16.0084L27.6901 16.0031C27.599 15.9 27.6516 15.7471 27.7681 15.5352L27.8255 15.6398C27.745 15.7862 27.7943 15.8547 27.8221 15.8932L27.8255 15.8979C27.9446 15.9996 27.9277 16.158 27.8255 16.3659ZM28.5741 17.9468L28.6993 17.9876C28.8016 17.7797 28.8185 17.6213 28.6993 17.5196L28.6959 17.5149C28.6681 17.4763 28.6188 17.4078 28.6993 17.2614L28.6419 17.1568C28.5254 17.3687 28.4728 17.5216 28.564 17.6247L28.5686 17.63L28.5741 17.6344C28.6269 17.6766 28.649 17.7946 28.5741 17.9468ZM27.6616 19.2849L27.5364 19.2441C27.6113 19.0919 27.5892 18.9739 27.5364 18.9317L27.5309 18.9273L27.5263 18.922C27.4352 18.8189 27.4877 18.666 27.6042 18.4541L27.6616 18.5587C27.5811 18.7051 27.6304 18.7736 27.6582 18.8121L27.6616 18.8168C27.7808 18.9185 27.7639 19.0769 27.6616 19.2849ZM27.5364 20.7576L27.6616 20.7984C27.7639 20.5905 27.7808 20.432 27.6616 20.3303L27.6582 20.3257C27.6304 20.2871 27.5811 20.2186 27.6616 20.0722L27.6042 19.9676C27.4877 20.1795 27.4352 20.3324 27.5263 20.4355L27.5309 20.4408L27.5364 20.4452C27.5892 20.4874 27.6113 20.6054 27.5364 20.7576ZM33.0681 20.7984L32.943 20.7576C33.0178 20.6054 32.9957 20.4874 32.943 20.4452L32.9375 20.4408L32.9328 20.4355C32.8417 20.3324 32.8942 20.1795 33.0107 19.9676L33.0681 20.0722C32.9876 20.2186 33.037 20.2871 33.0648 20.3257L33.0681 20.3303C33.1873 20.432 33.1704 20.5905 33.0681 20.7984ZM32.943 19.2981L33.0681 19.3389C33.1704 19.131 33.1873 18.9726 33.0681 18.8709L33.0648 18.8662C33.037 18.8276 32.9876 18.7591 33.0681 18.6127L33.0107 18.5081C32.8942 18.72 32.8417 18.873 32.9328 18.9761L32.9375 18.9813L32.943 18.9857C32.9957 19.0279 33.0178 19.1459 32.943 19.2981ZM33.0681 17.8794L32.943 17.8387C33.0178 17.6864 32.9957 17.5685 32.943 17.5262L32.9375 17.5218L32.9328 17.5166C32.8417 17.4135 32.8942 17.2606 33.0107 17.0486L33.0681 17.1533C32.9876 17.2996 33.037 17.3681 33.0648 17.4067L33.0681 17.4114C33.1873 17.5131 33.1704 17.6715 33.0681 17.8794ZM32.8884 16.4333L33.0136 16.474C33.1159 16.2661 33.1328 16.1077 33.0136 16.006L33.0102 16.0013C32.9825 15.9627 32.9331 15.8943 33.0136 15.7479L32.9562 15.6432C32.8397 15.8552 32.7872 16.0081 32.8783 16.1112L32.883 16.1165L32.8884 16.1208C32.9412 16.1631 32.9633 16.281 32.8884 16.4333ZM33.0136 14.9606L32.8884 14.9198C32.9633 14.7676 32.9412 14.6496 32.8884 14.6074L32.883 14.603L32.8783 14.5977C32.7872 14.4946 32.8397 14.3417 32.9562 14.1298L33.0136 14.2344C32.9331 14.3808 32.9825 14.4493 33.0102 14.4878L33.0136 14.4925C33.1328 14.5942 33.1159 14.7526 33.0136 14.9606ZM32.8884 13.5144L33.0136 13.5552C33.1159 13.3472 33.1328 13.1888 33.0136 13.0871C33.0125 13.0856 33.0114 13.084 33.0102 13.0824C32.9825 13.0439 32.9331 12.9754 33.0136 12.829L32.9562 12.7244C32.8397 12.9363 32.7872 13.0892 32.8783 13.1923L32.883 13.1976L32.8884 13.202C32.9412 13.2442 32.9633 13.3622 32.8884 13.5144Z" fill="#F50100"/>
<path fill-rule="evenodd" clip-rule="evenodd" d="M28.6051 12.8148C28.6142 12.7992 28.6193 12.7813 28.6193 12.7622C28.6193 12.7025 28.569 12.6541 28.5068 12.6541C28.4447 12.6541 28.3943 12.7025 28.3943 12.7622C28.3943 12.7879 28.4037 12.8115 28.4193 12.8301L27.9936 13.416L28.038 13.4476L28.4634 12.8619C28.4768 12.8673 28.4915 12.8703 28.5068 12.8703C28.5287 12.8703 28.5491 12.8643 28.5664 12.8539L29.0141 13.4479L29.0579 13.4156L28.6051 12.8148ZM28.5898 13.3217C28.6082 13.3024 28.6193 13.2768 28.6193 13.2487C28.6193 13.189 28.569 13.1406 28.5068 13.1406C28.4447 13.1406 28.3943 13.189 28.3943 13.2487C28.3943 13.2851 28.4131 13.3173 28.4418 13.3369L28.3351 13.4509H27.6124C27.6124 13.4509 27.6916 13.6119 27.938 13.6544C28.0132 13.718 28.2057 13.8363 28.2057 13.8363L28.096 13.9549H28.8751V13.8363C29.065 13.8351 29.1363 13.7018 29.1617 13.6543C29.1722 13.6346 29.1749 13.6296 29.1749 13.6544C29.1749 13.7395 29.3135 13.6544 29.3135 13.6544C29.3135 13.6544 29.5435 13.4509 29.5435 13.2569C29.5435 13.0629 29.0625 13.4509 29.0625 13.4509H28.7361L28.5898 13.3217ZM27.6124 14.9644H28.3351L28.4418 14.8504C28.4131 14.8308 28.3943 14.7986 28.3943 14.7622C28.3943 14.7025 28.4447 14.6541 28.5068 14.6541C28.569 14.6541 28.6193 14.7025 28.6193 14.7622C28.6193 14.7903 28.6082 14.8159 28.5898 14.8352L28.7361 14.9644H29.0625C29.0625 14.9644 29.5435 14.5764 29.5435 14.7704C29.5435 14.9644 29.3135 15.1679 29.3135 15.1679C29.3135 15.1679 29.1749 15.253 29.1749 15.1679C29.1749 15.1431 29.1722 15.1481 29.1617 15.1678C29.1363 15.2153 29.065 15.3486 28.8751 15.3498V15.4684H28.096L28.2057 15.3498C28.2057 15.3498 28.0132 15.2315 27.938 15.1679C27.6916 15.1254 27.6124 14.9644 27.6124 14.9644ZM28.6051 14.3283C28.6142 14.3128 28.6193 14.2948 28.6193 14.2756C28.6193 14.2159 28.569 14.1675 28.5068 14.1675C28.4447 14.1675 28.3943 14.2159 28.3943 14.2756C28.3943 14.3014 28.4037 14.325 28.4193 14.3436L27.9936 14.9296L28.038 14.9611L28.4635 14.3754C28.4768 14.3808 28.4915 14.3838 28.5068 14.3838C28.5287 14.3838 28.5491 14.3778 28.5664 14.3674L29.0141 14.9615L29.0579 14.9292L28.6051 14.3283ZM27.6124 16.3158H28.3351L28.4418 16.2017C28.4131 16.1821 28.3943 16.1499 28.3943 16.1135C28.3943 16.0538 28.4447 16.0054 28.5068 16.0054C28.569 16.0054 28.6193 16.0538 28.6193 16.1135C28.6193 16.1417 28.6082 16.1673 28.5898 16.1865L28.7361 16.3158H29.0625C29.0625 16.3158 29.5435 15.9278 29.5435 16.1218C29.5435 16.3158 29.3135 16.5193 29.3135 16.5193C29.3135 16.5193 29.1749 16.6044 29.1749 16.5193C29.1749 16.4945 29.1722 16.4995 29.1617 16.5191C29.1363 16.5667 29.065 16.6999 28.8751 16.7012V16.8197H28.096L28.2057 16.7012C28.2057 16.7012 28.0132 16.5829 27.938 16.5193C27.6916 16.4768 27.6124 16.3158 27.6124 16.3158ZM28.6051 15.6797C28.6142 15.6641 28.6193 15.6461 28.6193 15.627C28.6193 15.5673 28.569 15.5189 28.5068 15.5189C28.4447 15.5189 28.3943 15.5673 28.3943 15.627C28.3943 15.6528 28.4037 15.6764 28.4193 15.6949L27.9936 16.2809L28.038 16.3124L28.4634 15.7268C28.4768 15.7322 28.4915 15.7351 28.5068 15.7351C28.5287 15.7351 28.5491 15.7291 28.5664 15.7188L29.0141 16.3128L29.0579 16.2805L28.6051 15.6797ZM28.4862 17.9373H29.209L29.3156 17.8233C29.2869 17.8037 29.2682 17.7715 29.2682 17.7351C29.2682 17.6754 29.3185 17.627 29.3807 17.627C29.4428 17.627 29.4932 17.6754 29.4932 17.7351C29.4932 17.7633 29.482 17.7889 29.4636 17.8081L29.6099 17.9373H29.9363C29.9363 17.9373 30.4173 17.5494 30.4173 17.7434C30.4173 17.9373 30.1873 18.1409 30.1873 18.1409C30.1873 18.1409 30.0487 18.2259 30.0487 18.1409C30.0487 18.1161 30.046 18.1211 30.0355 18.1407C30.0101 18.1883 29.9388 18.3215 29.7489 18.3228V18.4413H28.9698L29.0796 18.3228C29.0796 18.3228 28.8871 18.2045 28.8119 18.1409C28.5654 18.0984 28.4862 17.9373 28.4862 17.9373ZM29.4789 17.3013C29.488 17.2858 29.4932 17.2678 29.4932 17.2487C29.4932 17.189 29.4428 17.1406 29.3807 17.1406C29.3185 17.1406 29.2682 17.189 29.2682 17.2487C29.2682 17.2744 29.2775 17.298 29.2931 17.3166L28.8674 17.9025L28.9118 17.9341L29.3373 17.3484C29.3506 17.3538 29.3653 17.3568 29.3807 17.3568C29.4026 17.3568 29.423 17.3508 29.4402 17.3404L29.8879 17.9345L29.9317 17.9021L29.4789 17.3013ZM27.4486 19.2347H28.1713L28.278 19.1206C28.2493 19.1011 28.2305 19.0688 28.2305 19.0324C28.2305 18.9727 28.2809 18.9243 28.343 18.9243C28.4051 18.9243 28.4555 18.9727 28.4555 19.0324C28.4555 19.0606 28.4443 19.0862 28.426 19.1054L28.5723 19.2347H28.8987C28.8987 19.2347 29.3797 18.8467 29.3797 19.0407C29.3797 19.2347 29.1497 19.4382 29.1497 19.4382C29.1497 19.4382 29.0111 19.5233 29.0111 19.4382C29.0111 19.4134 29.0084 19.4184 28.9979 19.438C28.9725 19.4856 28.9012 19.6188 28.7113 19.6201V19.7386H27.9322L28.042 19.6201C28.042 19.6201 27.8494 19.5018 27.7743 19.4382C27.5278 19.3957 27.4486 19.2347 27.4486 19.2347ZM28.4413 18.5986C28.4503 18.5831 28.4555 18.5651 28.4555 18.546C28.4555 18.4863 28.4051 18.4379 28.343 18.4379C28.2809 18.4379 28.2305 18.4863 28.2305 18.546C28.2305 18.5717 28.2399 18.5953 28.2555 18.6139L27.8298 19.1998L27.8741 19.2314L28.2996 18.6457C28.313 18.6511 28.3276 18.6541 28.343 18.6541C28.3649 18.6541 28.3853 18.6481 28.4026 18.6377L28.8503 19.2318L28.8941 19.1994L28.4413 18.5986ZM27.4486 20.7482H28.1713L28.278 20.6342C28.2492 20.6146 28.2305 20.5824 28.2305 20.546C28.2305 20.4863 28.2809 20.4379 28.343 20.4379C28.4051 20.4379 28.4555 20.4863 28.4555 20.546C28.4555 20.5741 28.4443 20.5997 28.426 20.6189L28.5723 20.7482H28.8987C28.8987 20.7482 29.3797 20.3602 29.3797 20.5542C29.3797 20.7482 29.1497 20.9517 29.1497 20.9517C29.1497 20.9517 29.0111 21.0368 29.0111 20.9517C29.0111 20.9269 29.0084 20.9319 28.9979 20.9515C28.9725 20.9991 28.9012 21.1324 28.7113 21.1336V21.2522H27.9322L28.042 21.1336C28.042 21.1336 27.8494 21.0153 27.7743 20.9517C27.5278 20.9092 27.4486 20.7482 27.4486 20.7482ZM28.4413 20.1121C28.4503 20.0965 28.4555 20.0786 28.4555 20.0595C28.4555 19.9998 28.4051 19.9514 28.343 19.9514C28.2809 19.9514 28.2305 19.9998 28.2305 20.0595C28.2305 20.0852 28.2399 20.1088 28.2555 20.1274L27.8298 20.7133L27.8741 20.7449L28.2996 20.1592C28.313 20.1646 28.3276 20.1676 28.343 20.1676C28.3649 20.1676 28.3853 20.1616 28.4026 20.1512L28.8503 20.7452L28.8941 20.7129L28.4413 20.1121ZM32.8551 20.7482H33.5778L33.6844 20.6342C33.6557 20.6146 33.637 20.5824 33.637 20.546C33.637 20.4863 33.6874 20.4379 33.7495 20.4379C33.8117 20.4379 33.862 20.4863 33.862 20.546C33.862 20.5741 33.8508 20.5997 33.8325 20.619L33.9787 20.7482H34.3052C34.3052 20.7482 34.7862 20.3602 34.7862 20.5542C34.7862 20.7482 34.5562 20.9517 34.5562 20.9517C34.5562 20.9517 34.4176 21.0368 34.4176 20.9517C34.4176 20.9269 34.4149 20.9319 34.4044 20.9516C34.3789 20.9991 34.3077 21.1324 34.1178 21.1336V21.2522H33.3386L33.4484 21.1336C33.4484 21.1336 33.2559 21.0153 33.1807 20.9517C32.9342 20.9092 32.8551 20.7482 32.8551 20.7482ZM33.8479 20.112C33.8569 20.0965 33.862 20.0785 33.862 20.0595C33.862 19.9998 33.8117 19.9514 33.7495 19.9514C33.6874 19.9514 33.637 19.9998 33.637 20.0595C33.637 20.0852 33.6464 20.1089 33.6621 20.1275L33.2364 20.7133L33.2808 20.7449L33.7062 20.1593C33.7195 20.1646 33.7342 20.1676 33.7495 20.1676C33.7714 20.1676 33.7919 20.1615 33.8092 20.1511L34.2569 20.7452L34.3007 20.7129L33.8479 20.112ZM32.8551 19.2887H33.5778L33.6844 19.1747C33.6557 19.1551 33.637 19.1229 33.637 19.0865C33.637 19.0268 33.6874 18.9784 33.7495 18.9784C33.8117 18.9784 33.862 19.0268 33.862 19.0865C33.862 19.1146 33.8508 19.1403 33.8325 19.1595L33.9787 19.2887H34.3052C34.3052 19.2887 34.7862 18.9008 34.7862 19.0947C34.7862 19.2887 34.5562 19.4923 34.5562 19.4923C34.5562 19.4923 34.4176 19.5773 34.4176 19.4923C34.4176 19.4674 34.4149 19.4725 34.4044 19.4921C34.3789 19.5397 34.3077 19.6729 34.1178 19.6742V19.7927H33.3386L33.4484 19.6742C33.4484 19.6742 33.2559 19.5558 33.1807 19.4923C32.9342 19.4497 32.8551 19.2887 32.8551 19.2887ZM33.8479 18.6526C33.8569 18.637 33.862 18.6191 33.862 18.6C33.862 18.5403 33.8117 18.4919 33.7495 18.4919C33.6874 18.4919 33.637 18.5403 33.637 18.6C33.637 18.6258 33.6464 18.6494 33.6621 18.668L33.2364 19.2538L33.2808 19.2854L33.7062 18.6998C33.7195 18.7051 33.7342 18.7081 33.7495 18.7081C33.7714 18.7081 33.7919 18.7021 33.8092 18.6917L34.2569 19.2858L34.3007 19.2534L33.8479 18.6526ZM32.8551 17.8293H33.5778L33.6844 17.7152C33.6557 17.6956 33.637 17.6634 33.637 17.627C33.637 17.5673 33.6874 17.5189 33.7495 17.5189C33.8117 17.5189 33.862 17.5673 33.862 17.627C33.862 17.6552 33.8508 17.6808 33.8325 17.7L33.9787 17.8293H34.3052C34.3052 17.8293 34.7862 17.4413 34.7862 17.6353C34.7862 17.8293 34.5562 18.0328 34.5562 18.0328C34.5562 18.0328 34.4176 18.1178 34.4176 18.0328C34.4176 18.008 34.4149 18.013 34.4044 18.0326C34.3789 18.0802 34.3077 18.2134 34.1178 18.2147V18.3332H33.3386L33.4484 18.2147C33.4484 18.2147 33.2559 18.0964 33.1807 18.0328C32.9342 17.9903 32.8551 17.8293 32.8551 17.8293ZM33.8478 17.1931C33.8569 17.1775 33.862 17.1596 33.862 17.1405C33.862 17.0808 33.8117 17.0324 33.7495 17.0324C33.6874 17.0324 33.637 17.0808 33.637 17.1405C33.637 17.1663 33.6464 17.19 33.6621 17.2085L33.2364 17.7944L33.2808 17.826L33.7063 17.2403C33.7196 17.2457 33.7342 17.2486 33.7495 17.2486C33.7714 17.2486 33.7919 17.2426 33.8092 17.2322L34.2569 17.8264L34.3007 17.794L33.8478 17.1931ZM32.8006 16.4239H33.5233L33.6299 16.3098C33.6012 16.2902 33.5825 16.258 33.5825 16.2216C33.5825 16.1619 33.6329 16.1135 33.695 16.1135C33.7571 16.1135 33.8075 16.1619 33.8075 16.2216C33.8075 16.2498 33.7963 16.2754 33.778 16.2946L33.9242 16.4239H34.2506C34.2506 16.4239 34.7317 16.0359 34.7317 16.2299C34.7317 16.4239 34.5017 16.6274 34.5017 16.6274C34.5017 16.6274 34.3631 16.7124 34.3631 16.6274C34.3631 16.6026 34.3604 16.6076 34.3499 16.6272C34.3244 16.6748 34.2531 16.808 34.0633 16.8093V16.9278H33.2841L33.3939 16.8093C33.3939 16.8093 33.2014 16.691 33.1262 16.6274C32.8797 16.5849 32.8006 16.4239 32.8006 16.4239ZM33.7933 15.7878C33.8023 15.7722 33.8075 15.7542 33.8075 15.7351C33.8075 15.6754 33.7571 15.627 33.695 15.627C33.6329 15.627 33.5825 15.6754 33.5825 15.7351C33.5825 15.7608 33.5919 15.7845 33.6075 15.803L33.1818 16.389L33.2261 16.4205L33.6516 15.8349C33.6649 15.8403 33.6796 15.8432 33.695 15.8432C33.7169 15.8432 33.7373 15.8372 33.7546 15.8268L34.2023 16.4209L34.246 16.3886L33.7933 15.7878ZM32.8006 14.9104H33.5233L33.63 14.7963C33.6012 14.7767 33.5825 14.7445 33.5825 14.7081C33.5825 14.6484 33.6329 14.6 33.695 14.6C33.7571 14.6 33.8075 14.6484 33.8075 14.7081C33.8075 14.7362 33.7963 14.7619 33.7779 14.7811L33.9242 14.9104H34.2506C34.2506 14.9104 34.7317 14.5224 34.7317 14.7164C34.7317 14.9104 34.5017 15.1139 34.5017 15.1139C34.5017 15.1139 34.3631 15.199 34.3631 15.1139C34.3631 15.0891 34.3604 15.0941 34.3499 15.1137C34.3244 15.1613 34.2531 15.2945 34.0633 15.2958V15.4144H33.2841L33.3939 15.2958C33.3939 15.2958 33.2014 15.1775 33.1262 15.1139C32.8797 15.0714 32.8006 14.9104 32.8006 14.9104ZM33.7933 14.2743C33.8023 14.2587 33.8075 14.2408 33.8075 14.2216C33.8075 14.1619 33.7571 14.1135 33.695 14.1135C33.6329 14.1135 33.5825 14.1619 33.5825 14.2216C33.5825 14.2474 33.5919 14.271 33.6075 14.2895L33.1818 14.8755L33.2261 14.907L33.6516 14.3214C33.6649 14.3268 33.6796 14.3297 33.695 14.3297C33.7169 14.3297 33.7373 14.3237 33.7546 14.3134L34.2023 14.9074L34.246 14.8751L33.7933 14.2743Z" fill="#FFD018"/>
<path fill-rule="evenodd" clip-rule="evenodd" d="M30.7197 14.5857L30.3413 15.6792C30.3413 15.6792 29.7073 16.4082 29.5904 16.7654C29.4735 17.1227 29.4094 17.3601 29.4414 17.3601C29.4735 17.3601 29.7325 17.2583 29.7325 17.0119C29.7325 16.7654 30.7197 15.9729 30.7197 15.9729L31.0143 14.5857H30.7197Z" fill="#FFC6B5"/>
<path fill-rule="evenodd" clip-rule="evenodd" d="M33.7933 12.8689C33.8023 12.8533 33.8075 12.8354 33.8075 12.8162C33.8075 12.7565 33.7571 12.7081 33.695 12.7081C33.6329 12.7081 33.5825 12.7565 33.5825 12.8162C33.5825 12.842 33.5919 12.8656 33.6075 12.8842L33.1818 13.4701L33.2261 13.5016L33.6516 12.916C33.665 12.9214 33.6796 12.9243 33.695 12.9243C33.7169 12.9243 33.7373 12.9183 33.7546 12.908L34.2023 13.502L34.246 13.4697L33.7933 12.8689ZM33.778 13.3758C33.7963 13.3565 33.8075 13.3309 33.8075 13.3027C33.8075 13.243 33.7571 13.1946 33.695 13.1946C33.6329 13.1946 33.5825 13.243 33.5825 13.3027C33.5825 13.3391 33.6012 13.3713 33.6299 13.3909L33.5233 13.505H32.8005C32.8005 13.505 32.8797 13.666 33.1262 13.7085C33.2014 13.7721 33.3939 13.8904 33.3939 13.8904L33.2841 14.0089H34.0633V13.8904C34.2531 13.8891 34.3244 13.7559 34.3499 13.7083C34.3604 13.6887 34.363 13.6837 34.363 13.7085C34.363 13.7935 34.5016 13.7085 34.5016 13.7085C34.5016 13.7085 34.7316 13.505 34.7316 13.311C34.7316 13.117 34.2506 13.505 34.2506 13.505H33.9242L33.778 13.3758Z" fill="#FFD018"/>
<path fill-rule="evenodd" clip-rule="evenodd" d="M31.6426 14.1481C31.6532 14.1681 31.6612 14.183 31.6612 14.2041C31.6612 14.2672 31.3605 14.3598 31.1437 14.3598C30.9268 14.3598 31.0118 14.2041 31.1437 14.1178C31.2755 14.0315 31.133 13.8829 31.0118 13.8829C30.8968 13.8829 30.8972 13.7384 30.8975 13.6223C30.8975 13.6162 30.8975 13.6101 30.8975 13.6041V13.1517C30.8975 12.9701 30.9529 12.9914 31.0586 13.032C31.1208 13.0559 31.2005 13.0865 31.2966 13.0865C31.458 13.0865 31.467 13.1196 31.4912 13.2091C31.5059 13.2635 31.5263 13.3387 31.5899 13.44C31.6912 13.6013 31.6706 13.6384 31.6381 13.6969C31.6166 13.7355 31.5899 13.7835 31.5899 13.8829C31.5899 14.0491 31.6215 14.1085 31.6426 14.1481ZM31.9104 15.3087L31.9743 14.6937C31.9743 14.6937 31.9104 14.4688 32.0599 14.4688C32.2094 14.4688 32.4416 15.5443 32.5255 15.9755C32.5791 16.2513 32.5298 16.3025 32.3875 16.4503C32.3073 16.5336 32.1975 16.6476 32.0599 16.8499C31.8311 17.1862 31.8459 17.3831 31.8572 17.5331C31.8647 17.6332 31.8707 17.7125 31.8015 17.7985C31.6406 17.9984 31.5746 17.8092 31.5103 17.6247C31.5055 17.611 31.5007 17.5973 31.4959 17.5838C31.4345 17.4111 31.7148 16.8878 31.9052 16.5324C31.9301 16.4859 31.9534 16.4422 31.9743 16.4027C32.1547 16.0604 32.1377 15.941 32.0599 15.7976C31.9822 15.6543 31.9104 15.3087 31.9104 15.3087Z" fill="#FFC6B5"/>
<path fill-rule="evenodd" clip-rule="evenodd" d="M32.2718 21.3696C32.2718 21.5259 32.1374 21.6527 31.9715 21.6527C31.8056 21.6527 31.6711 21.5259 31.6711 21.3696C31.6711 21.2132 31.8056 21.0864 31.9715 21.0864C32.1374 21.0864 32.2718 21.2132 32.2718 21.3696ZM30.6744 21.4482C30.5397 21.5487 30.3754 21.572 30.3076 21.5001C30.2397 21.4282 30.2939 21.2884 30.4287 21.1879C30.5635 21.0874 30.7277 21.0642 30.7956 21.1361C30.8634 21.208 30.8092 21.3477 30.6744 21.4482Z" fill="#FFD018"/>
<path fill-rule="evenodd" clip-rule="evenodd" d="M31.07 12.7847C31.07 12.7847 30.7576 12.841 30.8617 12.9801C30.9658 13.1191 30.726 13.0831 31.07 13.1011C31.4139 13.1191 31.508 13.2304 31.461 13.3126C31.4139 13.3948 31.3769 13.599 31.461 13.722C31.545 13.845 31.5717 14.0591 31.7201 13.952C31.8686 13.845 32.1538 13.698 32.0664 13.5053C31.979 13.3126 32.1016 13.0885 31.9109 12.9801C31.7201 12.8717 31.6775 12.938 31.5684 12.7847C31.4592 12.6314 31.2984 12.5892 31.1842 12.6869C31.07 12.7847 31.07 12.7847 31.07 12.7847Z" fill="#A95601"/>
<path fill-rule="evenodd" clip-rule="evenodd" d="M31.008 14.1775C31.008 14.1775 30.3802 14.8494 30.483 15.0861C30.5858 15.3229 30.7394 15.3353 30.6626 15.6719C30.5858 16.0085 30.7093 16.5289 30.483 17.1909C30.2566 17.8529 30.1079 19.4061 30.1823 19.4061C30.2566 19.4061 30.3599 20.2641 30.2711 20.649C30.1823 21.0339 29.5626 21.3559 30.1823 21.3559C30.8019 21.3559 30.8754 21.4322 31.123 21.3559C31.3707 21.2796 31.722 21.5755 31.722 21.3559C31.722 21.1364 31.7485 21.0914 31.9373 21.0914C32.126 21.0914 32.1165 21.0914 32.2836 21.0914C32.4507 21.0914 32.6698 21.2297 32.6698 20.9017C32.6698 20.5737 32.7105 19.8689 32.4971 19.3216C32.2836 18.7743 32.3561 19.1238 32.1467 18.392C32.0226 17.9585 31.9268 17.7864 31.8514 17.635C31.7995 17.5308 31.6513 17.7137 31.6161 17.5505C31.6042 17.4952 31.7056 17.1706 31.7066 17.1289C31.7133 16.8691 31.9373 16.8249 31.9373 16.3779C31.9373 15.8592 31.7974 15.2894 31.9373 15.0043C32.0771 14.7192 32.4205 14.8906 32.2836 14.6133C32.1467 14.3361 32.1021 14.1775 31.8445 14.1775C31.5868 14.1775 31.008 14.1775 31.008 14.1775Z" fill="#F7FCFF"/>
<path d="M26.6101 22.1454L26.7152 22.0211C28.2183 23.2655 29.6078 23.8856 30.8832 23.8856C32.1598 23.8856 33.7141 23.2274 35.5431 21.9075L35.6396 22.0385C33.7852 23.3768 32.2007 24.0478 30.8832 24.0478C29.5643 24.0478 28.1402 23.4122 26.6101 22.1454Z" fill="#272727"/>
</g>
</g>
</g>
<defs>
<filter id="filter0_dd_5_5643" x="0" y="0" width="42" height="30" filterUnits="userSpaceOnUse" color-interpolation-filters="sRGB">
<feFlood flood-opacity="0" result="BackgroundImageFix"/>
<feColorMatrix in="SourceAlpha" type="matrix" values="0 0 0 0 0 0 0 0 0 0 0 0 0 0 0 0 0 0 127 0" result="hardAlpha"/>
<feOffset dy="1"/>
<feGaussianBlur stdDeviation="1"/>
<feColorMatrix type="matrix" values="0 0 0 0 0.0627451 0 0 0 0 0.0941176 0 0 0 0 0.156863 0 0 0 0.06 0"/>
<feBlend mode="normal" in2="BackgroundImageFix" result="effect1_dropShadow_5_5643"/>
<feColorMatrix in="SourceAlpha" type="matrix" values="0 0 0 0 0 0 0 0 0 0 0 0 0 0 0 0 0 0 127 0" result="hardAlpha"/>
<feOffset dy="1"/>
<feGaussianBlur stdDeviation="1.5"/>
<feColorMatrix type="matrix" values="0 0 0 0 0.0627451 0 0 0 0 0.0941176 0 0 0 0 0.156863 0 0 0 0.1 0"/>
<feBlend mode="normal" in2="effect1_dropShadow_5_5643" result="effect2_dropShadow_5_5643"/>
<feBlend mode="normal" in="SourceGraphic" in2="effect2_dropShadow_5_5643" result="shape"/>
</filter>
</defs>
</svg>
