<svg width="42" height="30" viewBox="0 0 42 30" fill="none" xmlns="http://www.w3.org/2000/svg">
<g filter="url(#filter0_dd_5_10213)">
<mask id="mask0_5_10213" style="mask-type:alpha" maskUnits="userSpaceOnUse" x="3" y="2" width="36" height="24">
<rect x="3" y="2" width="36" height="24" fill="white"/>
</mask>
<g mask="url(#mask0_5_10213)">
<path fill-rule="evenodd" clip-rule="evenodd" d="M3 2V26H39V2H3Z" fill="#F7FCFF"/>
<mask id="mask1_5_10213" style="mask-type:alpha" maskUnits="userSpaceOnUse" x="3" y="2" width="36" height="24">
<path fill-rule="evenodd" clip-rule="evenodd" d="M3 2V26H39V2H3Z" fill="white"/>
</mask>
<g mask="url(#mask1_5_10213)">
<path fill-rule="evenodd" clip-rule="evenodd" d="M3 2V10H39V2H3Z" fill="#BF2714"/>
<path fill-rule="evenodd" clip-rule="evenodd" d="M3 18V26H39V18H3Z" fill="#272727"/>
<path d="M16.7928 12.2202L17.9167 12.266L17.6346 17.7358L16.5107 17.69L16.7928 12.2202Z" fill="#C09302"/>
<path d="M17.9669 12.5598L19.0901 12.6162L18.808 17.0515L17.6848 16.9951L17.9669 12.5598Z" fill="#C09302"/>
<path d="M19.142 12.8919L20.2632 12.9737L19.9811 16.0297L18.8599 15.9479L19.142 12.8919Z" fill="#C09302"/>
<path d="M25.207 12.2202L24.0832 12.266L24.3653 17.7358L25.4891 17.69L25.207 12.2202Z" fill="#C09302"/>
<path d="M24.0328 12.5598L22.9096 12.6162L23.1917 17.0515L24.3149 16.9951L24.0328 12.5598Z" fill="#C09302"/>
<path d="M22.8579 12.8919L21.7367 12.9737L22.0188 16.0297L23.14 15.9479L22.8579 12.8919Z" fill="#C09302"/>
<path d="M20.9699 17.3267L19.8733 17.1034L20.3374 15.3027L21.434 15.526L20.9699 17.3267Z" fill="#C09302"/>
<path d="M21.8094 17.3267L22.906 17.1034L22.4419 15.3027L21.3453 15.526L21.8094 17.3267Z" fill="#C09302"/>
<path d="M21.5312 17.3102H20.4062V15.5423H21.5312V17.3102Z" fill="#C09302"/>
<path d="M19.464 12.9133L20.5887 12.9378L20.523 15.3187L19.3983 15.2942L19.464 12.9133Z" fill="#C09302"/>
<path d="M21.4206 12.9133L22.5452 12.9378L22.4795 15.3187L21.3549 15.2942L21.4206 12.9133Z" fill="#C09302"/>
<path d="M18.0051 17.9228L18.2973 16.9572C19.491 17.2425 20.4075 17.3836 21.0325 17.3836C21.6575 17.3836 22.5741 17.2425 23.7677 16.9572L24.0599 17.9228C22.7792 18.229 21.7749 18.3836 21.0325 18.3836C20.2901 18.3836 19.2858 18.229 18.0051 17.9228Z" fill="#C09302"/>
<path d="M16.8174 12.2227C16.7424 11.5621 17.1774 11.1149 17.9146 11.172C18.157 11.1907 18.4292 11.2545 18.7918 11.3638C18.8978 11.3961 18.8978 11.3961 19.0007 11.4285C19.4992 11.5861 19.6346 11.6266 19.6626 11.632C19.5522 11.6097 19.8775 11.087 19.9521 10.9988C19.961 11.0548 19.9235 11.0468 19.8336 11.0308L18.8188 10.8503L19.5412 10.1916C19.7937 9.96129 20.1299 9.84711 20.5136 9.84711C20.5534 9.84711 20.5905 9.84547 20.7124 9.8388C20.8026 9.83393 20.8026 9.83393 20.904 9.8302C21.6059 9.80998 22.1093 9.98642 22.1093 10.6281C22.1093 10.8576 22.1419 11.2268 22.1958 11.5068C22.2139 11.601 22.2489 11.6892 22.1457 11.7279C22.15 11.6945 22.3958 11.6083 22.7781 11.4662L22.824 11.4491C23.9349 11.037 24.0647 10.9987 24.4228 11.1922C24.6614 11.3211 24.8886 11.553 25.1432 11.8987L24.202 12.4464C24.0377 12.2234 23.907 12.0881 23.8447 12.0503C23.9862 12.1377 23.5096 12.2784 23.2574 12.3719L23.2122 12.3887C22.3473 12.7102 22.2333 12.7486 21.986 12.7486C21.313 12.7486 21.0714 12.1358 21.0052 11.2583C20.7976 11.8659 20.1781 12.6326 19.6676 12.6326C19.4441 12.6326 19.5516 12.664 18.6237 12.3707C18.5265 12.3401 18.5265 12.3401 18.4304 12.3108C18.1493 12.226 17.9465 12.1785 17.8186 12.1683C17.8238 12.163 17.8427 12.1449 17.8638 12.1289L16.8174 12.2227Z" fill="#C09302"/>
</g>
</g>
</g>
<defs>
<filter id="filter0_dd_5_10213" x="0" y="0" width="42" height="30" filterUnits="userSpaceOnUse" color-interpolation-filters="sRGB">
<feFlood flood-opacity="0" result="BackgroundImageFix"/>
<feColorMatrix in="SourceAlpha" type="matrix" values="0 0 0 0 0 0 0 0 0 0 0 0 0 0 0 0 0 0 127 0" result="hardAlpha"/>
<feOffset dy="1"/>
<feGaussianBlur stdDeviation="1"/>
<feColorMatrix type="matrix" values="0 0 0 0 0.0627451 0 0 0 0 0.0941176 0 0 0 0 0.156863 0 0 0 0.06 0"/>
<feBlend mode="normal" in2="BackgroundImageFix" result="effect1_dropShadow_5_10213"/>
<feColorMatrix in="SourceAlpha" type="matrix" values="0 0 0 0 0 0 0 0 0 0 0 0 0 0 0 0 0 0 127 0" result="hardAlpha"/>
<feOffset dy="1"/>
<feGaussianBlur stdDeviation="1.5"/>
<feColorMatrix type="matrix" values="0 0 0 0 0.0627451 0 0 0 0 0.0941176 0 0 0 0 0.156863 0 0 0 0.1 0"/>
<feBlend mode="normal" in2="effect1_dropShadow_5_10213" result="effect2_dropShadow_5_10213"/>
<feBlend mode="normal" in="SourceGraphic" in2="effect2_dropShadow_5_10213" result="shape"/>
</filter>
</defs>
</svg>
