<svg width="42" height="30" viewBox="0 0 42 30" fill="none" xmlns="http://www.w3.org/2000/svg">
<g filter="url(#filter0_dd_5_9201)">
<mask id="mask0_5_9201" style="mask-type:alpha" maskUnits="userSpaceOnUse" x="3" y="2" width="36" height="24">
<rect x="3" y="2" width="36" height="24" fill="white"/>
</mask>
<g mask="url(#mask0_5_9201)">
<path fill-rule="evenodd" clip-rule="evenodd" d="M3 2V26H39V2H3Z" fill="#F7FCFF"/>
<mask id="mask1_5_9201" style="mask-type:alpha" maskUnits="userSpaceOnUse" x="3" y="2" width="36" height="24">
<path fill-rule="evenodd" clip-rule="evenodd" d="M3 2V26H39V2H3Z" fill="white"/>
</mask>
<g mask="url(#mask1_5_9201)">
<path fill-rule="evenodd" clip-rule="evenodd" d="M3 2V10H39V2H3Z" fill="#FF8C1A"/>
<path fill-rule="evenodd" clip-rule="evenodd" d="M3 18V26H39V18H3Z" fill="#5EAA22"/>
<path fill-rule="evenodd" clip-rule="evenodd" d="M16.5 14C16.5 16.2091 18.5147 18 21 18C23.4853 18 25.5 16.2091 25.5 14C25.5 11.7909 23.4853 10 21 10C18.5147 10 16.5 11.7909 16.5 14ZM24.375 14C24.375 15.6569 22.864 17 21 17C19.136 17 17.625 15.6569 17.625 14C17.625 12.3431 19.136 11 21 11C22.864 11 24.375 12.3431 24.375 14Z" fill="#3D58DB"/>
<path fill-rule="evenodd" clip-rule="evenodd" d="M20.9938 14.8607L20.3516 17.9813L20.7245 14.8263L19.1193 17.6596L20.477 14.7258L18.0388 17.0424L20.2714 14.5675L17.1977 16.1796L20.1243 14.364L16.6642 15.1411L20.0477 14.132L16.4814 14.011L20.0477 13.8901L16.6642 12.881L20.1243 13.6581L17.1977 11.8425L20.2714 13.4546L18.0388 10.9797L20.477 13.2963L19.1193 10.3625L20.7245 13.1958L20.3516 10.0408L20.9938 13.1614L21.636 10.0408L21.2631 13.1958L22.8683 10.3625L21.5106 13.2963L23.9488 10.9797L21.7162 13.4546L24.7899 11.8425L21.8633 13.6581L25.3235 12.881L21.94 13.8901L25.5062 14.011L21.94 14.132L25.3235 15.1411L21.8633 14.364L24.7899 16.1796L21.7162 14.5675L23.9488 17.0424L21.5106 14.7258L22.8683 17.6596L21.2631 14.8263L21.636 17.9813L20.9938 14.8607Z" fill="#3D58DB"/>
</g>
</g>
</g>
<defs>
<filter id="filter0_dd_5_9201" x="0" y="0" width="42" height="30" filterUnits="userSpaceOnUse" color-interpolation-filters="sRGB">
<feFlood flood-opacity="0" result="BackgroundImageFix"/>
<feColorMatrix in="SourceAlpha" type="matrix" values="0 0 0 0 0 0 0 0 0 0 0 0 0 0 0 0 0 0 127 0" result="hardAlpha"/>
<feOffset dy="1"/>
<feGaussianBlur stdDeviation="1"/>
<feColorMatrix type="matrix" values="0 0 0 0 0.0627451 0 0 0 0 0.0941176 0 0 0 0 0.156863 0 0 0 0.06 0"/>
<feBlend mode="normal" in2="BackgroundImageFix" result="effect1_dropShadow_5_9201"/>
<feColorMatrix in="SourceAlpha" type="matrix" values="0 0 0 0 0 0 0 0 0 0 0 0 0 0 0 0 0 0 127 0" result="hardAlpha"/>
<feOffset dy="1"/>
<feGaussianBlur stdDeviation="1.5"/>
<feColorMatrix type="matrix" values="0 0 0 0 0.0627451 0 0 0 0 0.0941176 0 0 0 0 0.156863 0 0 0 0.1 0"/>
<feBlend mode="normal" in2="effect1_dropShadow_5_9201" result="effect2_dropShadow_5_9201"/>
<feBlend mode="normal" in="SourceGraphic" in2="effect2_dropShadow_5_9201" result="shape"/>
</filter>
</defs>
</svg>
