<svg width="42" height="30" viewBox="0 0 42 30" fill="none" xmlns="http://www.w3.org/2000/svg">
<g filter="url(#filter0_dd_5_6390)">
<mask id="mask0_5_6390" style="mask-type:alpha" maskUnits="userSpaceOnUse" x="3" y="2" width="36" height="24">
<rect x="3" y="2" width="36" height="24" fill="white"/>
</mask>
<g mask="url(#mask0_5_6390)">
<path fill-rule="evenodd" clip-rule="evenodd" d="M3 2V26H39V2H3Z" fill="#2E42A5"/>
<mask id="mask1_5_6390" style="mask-type:alpha" maskUnits="userSpaceOnUse" x="3" y="2" width="36" height="24">
<path fill-rule="evenodd" clip-rule="evenodd" d="M3 2V26H39V2H3Z" fill="white"/>
</mask>
<g mask="url(#mask1_5_6390)">
<path fill-rule="evenodd" clip-rule="evenodd" d="M6.70629 12.0634L5.71004 12.6114L6.09681 11.6915L5.25 10.995H6.27712L6.70629 10L7.03379 10.995H8.0625L7.32113 11.6915L7.68411 12.6114L6.70629 12.0634Z" fill="#F7FCFF"/>
<path fill-rule="evenodd" clip-rule="evenodd" d="M11.2063 8.06339L10.21 8.61135L10.5968 7.69146L9.75 6.99504H10.7771L11.2063 6L11.5338 6.99504H12.5625L11.8211 7.69146L12.1841 8.61135L11.2063 8.06339Z" fill="#F7FCFF"/>
<path fill-rule="evenodd" clip-rule="evenodd" d="M15.7063 12.0634L14.71 12.6114L15.0968 11.6915L14.25 10.995H15.2771L15.7063 10L16.0338 10.995H17.0625L16.3211 11.6915L16.6841 12.6114L15.7063 12.0634Z" fill="#F7FCFF"/>
<path fill-rule="evenodd" clip-rule="evenodd" d="M11.2063 16.0634L10.21 16.6114L10.5968 15.6915L9.75 14.995H10.7771L11.2063 14L11.5338 14.995H12.5625L11.8211 15.6915L12.1841 16.6114L11.2063 16.0634Z" fill="#F7FCFF"/>
<path fill-rule="evenodd" clip-rule="evenodd" d="M30.9472 7.46313C26.3533 9.4803 11.2588 18.5452 11.2588 18.5452H36.4039C36.1527 18.4953 35.9184 18.4539 35.6975 18.4148C33.8517 18.0881 32.9405 17.9268 30.9472 14.3971C28.7153 10.445 30.9472 7.46313 30.9472 7.46313ZM10.4427 19.9652L10.0989 20.7251L10.4427 21.5601L36.0406 22.0001L36.7501 20.8403L36.0406 20.0053L10.4427 19.9652Z" fill="#FECA00"/>
</g>
</g>
</g>
<defs>
<filter id="filter0_dd_5_6390" x="0" y="0" width="42" height="30" filterUnits="userSpaceOnUse" color-interpolation-filters="sRGB">
<feFlood flood-opacity="0" result="BackgroundImageFix"/>
<feColorMatrix in="SourceAlpha" type="matrix" values="0 0 0 0 0 0 0 0 0 0 0 0 0 0 0 0 0 0 127 0" result="hardAlpha"/>
<feOffset dy="1"/>
<feGaussianBlur stdDeviation="1"/>
<feColorMatrix type="matrix" values="0 0 0 0 0.0627451 0 0 0 0 0.0941176 0 0 0 0 0.156863 0 0 0 0.06 0"/>
<feBlend mode="normal" in2="BackgroundImageFix" result="effect1_dropShadow_5_6390"/>
<feColorMatrix in="SourceAlpha" type="matrix" values="0 0 0 0 0 0 0 0 0 0 0 0 0 0 0 0 0 0 127 0" result="hardAlpha"/>
<feOffset dy="1"/>
<feGaussianBlur stdDeviation="1.5"/>
<feColorMatrix type="matrix" values="0 0 0 0 0.0627451 0 0 0 0 0.0941176 0 0 0 0 0.156863 0 0 0 0.1 0"/>
<feBlend mode="normal" in2="effect1_dropShadow_5_6390" result="effect2_dropShadow_5_6390"/>
<feBlend mode="normal" in="SourceGraphic" in2="effect2_dropShadow_5_6390" result="shape"/>
</filter>
</defs>
</svg>
