<svg width="42" height="30" viewBox="0 0 42 30" fill="none" xmlns="http://www.w3.org/2000/svg">
<g filter="url(#filter0_dd_5_7903)">
<mask id="mask0_5_7903" style="mask-type:alpha" maskUnits="userSpaceOnUse" x="3" y="2" width="36" height="24">
<rect x="3" y="2" width="36" height="24" fill="white"/>
</mask>
<g mask="url(#mask0_5_7903)">
<path fill-rule="evenodd" clip-rule="evenodd" d="M27.75 2H39V26H27.75V2Z" fill="#D9071E"/>
<path fill-rule="evenodd" clip-rule="evenodd" d="M3 2H16.5V26H3V2Z" fill="#006923"/>
<path fill-rule="evenodd" clip-rule="evenodd" d="M14.25 2H27.75V26H14.25V2Z" fill="white"/>
<path fill-rule="evenodd" clip-rule="evenodd" d="M17.6875 10.3417C17.5679 10.7969 17.6458 10.9043 18.2239 10.9043C18.2539 10.9043 18.3016 10.9798 18.3534 11.0618C18.4103 11.1518 18.4721 11.2498 18.5214 11.265C18.5003 11.2898 18.2805 11.6429 18.2794 12.265C18.2792 12.3931 18.3462 12.6041 18.4106 12.8069C18.4807 13.0274 18.5476 13.238 18.5214 13.3213C18.4787 13.4568 18.2876 13.3091 18.1395 13.1947C18.0548 13.1293 17.9842 13.0747 17.9635 13.0902C17.8577 13.1693 17.8032 12.5431 17.7702 12.1648C17.7555 11.9963 17.7451 11.877 17.7364 11.891C17.6994 11.8186 17.6844 11.7297 17.6695 11.6419C17.6371 11.4509 17.6056 11.265 17.352 11.265H16.6995V11.6921C16.6995 11.6921 17.077 11.6921 17.077 12.4866C17.0833 12.6054 17.2595 13.6502 17.6875 13.6556C17.4367 13.6606 17.4386 13.7051 17.4397 13.7312L17.4398 13.7358C17.4398 14.375 18.0407 14.4441 18.6024 14.2637C18.94 14.1552 19.2983 13.9435 19.5667 13.6826C19.9454 13.3143 19.9922 12.8375 19.4949 12.5761C19.3179 12.483 19.1258 12.4471 18.8571 12.4338C18.9103 12.2936 18.86 12.1685 18.8208 12.0708C18.788 11.9892 18.7629 11.9267 18.8125 11.891C19.3757 11.4849 19.4259 11.1107 19.0161 10.775C18.9629 10.7315 18.9115 10.6725 18.8585 10.6117L18.8585 10.6117C18.7587 10.4971 18.6535 10.3764 18.5214 10.3417C18.5824 10.2322 18.6647 10.0995 18.768 9.94665L17.8035 9.43188C17.6286 9.69075 17.6578 9.89322 17.6833 10.0697C17.6973 10.1665 17.7102 10.2555 17.6875 10.3417ZM17.6985 13.6554L17.6875 13.6556L17.6985 13.6554ZM17.6985 13.6554C17.7105 13.6552 17.7232 13.6551 17.7363 13.6551L17.7192 13.655L17.6985 13.6554ZM18.7363 13.0079L18.7188 13.0245L18.7307 13.015C18.7325 13.0121 18.7344 13.0097 18.7363 13.0079ZM18.226 13.3213C18.2257 13.3214 18.2264 13.3212 18.2276 13.321L18.2278 13.321L18.2386 13.3191C18.2342 13.3197 18.2301 13.3205 18.2278 13.321L18.226 13.3213Z" fill="#A8AC71"/>
<path fill-rule="evenodd" clip-rule="evenodd" d="M19.182 9.91333C19.182 9.91333 18.4094 10.446 18.5539 11.0139C18.6984 11.5817 20.2211 11.0139 20.037 10.4636C19.8529 9.91333 19.182 9.91333 19.182 9.91333Z" fill="#FCCA3D"/>
<path fill-rule="evenodd" clip-rule="evenodd" d="M24.6748 14.4029C24.6748 14.4029 25.7154 11.6615 24.0612 10.2425C22.407 8.82347 20.4955 8.91843 20.4955 8.91843C20.4955 8.91843 19.9451 9.28197 20.4955 9.55923C21.046 9.83649 20.8154 10.1023 20.8154 10.1023C20.8154 10.1023 19.8935 9.27029 19.2815 9.7564C18.6696 10.2425 19.8528 10.1685 19.7276 10.5345C19.6023 10.9006 19.0716 12.5256 19.8471 13.3461C20.6225 14.1665 19.1139 13.9885 19.4207 13.9885C19.7276 13.9885 20.8154 14.1794 20.8154 13.9885C20.8154 13.7975 21.1936 14.7309 21.5172 14.7309C21.8409 14.7309 22.0907 14.4029 22.0907 14.4029C22.0907 14.4029 22.5444 14.7309 22.8208 14.7309C23.0972 14.7309 24.0612 14.5163 24.0612 14.5163L22.2393 13.1517C22.2393 13.1517 22.3491 12.5499 22.0907 12.4196C21.8322 12.2893 24.1627 13.574 24.3452 13.9885C24.5277 14.4029 24.6748 14.4029 24.6748 14.4029Z" fill="#8F4620"/>
<path d="M15.4497 13.7266C15.4497 13.7266 15.6186 13.248 15.7995 13.2148C15.9562 13.186 16.2856 13.4441 16.2856 13.4441C16.8709 16.334 18.2861 17.4627 20.6342 17.4627C23.01 17.4627 24.4499 16.605 25.2902 13.9398C25.2902 13.9398 25.7369 13.5343 25.8945 13.5794C26.0661 13.6284 26.2811 14.1649 26.2811 14.1649C25.3171 17.2225 23.4958 18.5839 20.6342 18.5839C17.745 18.5839 16.1217 17.0448 15.4497 13.7266Z" fill="#9FAB2F"/>
<path fill-rule="evenodd" clip-rule="evenodd" d="M18.001 15.6565C18.001 15.6565 21.3809 16.2938 22.715 16.2938C24.049 16.2938 21.5444 17.2616 20.5672 17.2616C20.1397 17.2616 19.6244 17.0313 19.0214 16.5706C18.9133 16.488 19.018 16.3032 18.6887 16.3007C18.2296 16.2972 17.6593 16.2015 17.7138 16.1431C17.7657 16.0876 18.4337 16.0709 18.3693 16.0102C18.2631 15.9102 18.001 15.6565 18.001 15.6565Z" fill="#2FC2DC"/>
<rect x="19.5" y="16.1" width="2.25" height="1.07143" rx="0.166667" fill="#F9AA51"/>
<path d="M16.6974 14.1359C16.6974 14.1359 16.6974 13.7609 16.9831 13.5616C17.3107 13.3332 17.6183 13.5616 17.6183 13.5616C18.817 15.0802 20.6094 15.5798 23.1164 15.0584C23.1164 15.0584 23.866 15.2761 23.9036 15.4192C23.9514 15.6007 23.3727 16.0321 23.3727 16.0321C20.4421 16.6416 18.1767 16.0102 16.6974 14.1359Z" fill="#259485"/>
<path fill-rule="evenodd" clip-rule="evenodd" d="M21.6651 14.3502C21.6651 14.3502 20.2998 14.9891 20.7549 14.9891C21.21 14.9891 22.9912 15.3085 22.6446 14.9891C22.298 14.6697 21.6651 14.3502 21.6651 14.3502Z" fill="#FCCA3D"/>
<path fill-rule="evenodd" clip-rule="evenodd" d="M20.0508 13.5882C20.0508 13.5882 19.7914 12.9221 19.2515 12.9221C18.7116 12.9221 18.864 13.4685 18.6044 13.4685C18.3448 13.4685 18.8463 13.853 19.0698 13.853C19.2934 13.853 20.0508 13.5882 20.0508 13.5882Z" fill="#FCCA3D"/>
</g>
</g>
<defs>
<filter id="filter0_dd_5_7903" x="0" y="0" width="42" height="30" filterUnits="userSpaceOnUse" color-interpolation-filters="sRGB">
<feFlood flood-opacity="0" result="BackgroundImageFix"/>
<feColorMatrix in="SourceAlpha" type="matrix" values="0 0 0 0 0 0 0 0 0 0 0 0 0 0 0 0 0 0 127 0" result="hardAlpha"/>
<feOffset dy="1"/>
<feGaussianBlur stdDeviation="1"/>
<feColorMatrix type="matrix" values="0 0 0 0 0.0627451 0 0 0 0 0.0941176 0 0 0 0 0.156863 0 0 0 0.06 0"/>
<feBlend mode="normal" in2="BackgroundImageFix" result="effect1_dropShadow_5_7903"/>
<feColorMatrix in="SourceAlpha" type="matrix" values="0 0 0 0 0 0 0 0 0 0 0 0 0 0 0 0 0 0 127 0" result="hardAlpha"/>
<feOffset dy="1"/>
<feGaussianBlur stdDeviation="1.5"/>
<feColorMatrix type="matrix" values="0 0 0 0 0.0627451 0 0 0 0 0.0941176 0 0 0 0 0.156863 0 0 0 0.1 0"/>
<feBlend mode="normal" in2="effect1_dropShadow_5_7903" result="effect2_dropShadow_5_7903"/>
<feBlend mode="normal" in="SourceGraphic" in2="effect2_dropShadow_5_7903" result="shape"/>
</filter>
</defs>
</svg>
