<svg width="42" height="30" viewBox="0 0 42 30" fill="none" xmlns="http://www.w3.org/2000/svg">
<g filter="url(#filter0_dd_5_6403)">
<mask id="mask0_5_6403" style="mask-type:alpha" maskUnits="userSpaceOnUse" x="3" y="2" width="36" height="24">
<rect x="3" y="2" width="36" height="24" fill="white"/>
</mask>
<g mask="url(#mask0_5_6403)">
<path fill-rule="evenodd" clip-rule="evenodd" d="M3 2H39V26H3V2Z" fill="#F7FCFF"/>
<path fill-rule="evenodd" clip-rule="evenodd" d="M3 2V10H39V2H3Z" fill="#C51918"/>
<path fill-rule="evenodd" clip-rule="evenodd" d="M3 18V26H39V18H3Z" fill="#409100"/>
<path fill-rule="evenodd" clip-rule="evenodd" d="M21.0227 10.6297L20.3576 11.0475L20.5922 10.3475L19.9465 9.90564L20.7566 9.89074L21.0227 9.19995L21.2887 9.89074L22.0988 9.90564L21.4531 10.3475L21.6878 11.0475L21.0227 10.6297ZM18.2133 11.2425L17.5482 11.6603L17.7829 10.9603L17.1372 10.5184L17.9473 10.5035L18.2133 9.81274L18.4794 10.5035L19.2895 10.5184L18.6438 10.9603L18.8784 11.6603L18.2133 11.2425ZM15.3633 13.4985L16.0284 13.0808L16.6935 13.4985L16.4589 12.7985L17.1045 12.3567L16.2945 12.3418L16.0284 11.651L15.7624 12.3418L14.9523 12.3567L15.598 12.7985L15.3633 13.4985ZM15.3261 15.4638L14.661 15.8815L14.8957 15.1815L14.25 14.7397L15.0601 14.7248L15.3261 14.034L15.5922 14.7248L16.4022 14.7397L15.7566 15.1815L15.9912 15.8815L15.3261 15.4638ZM25.976 15.8815L26.6411 15.4638L27.3062 15.8815L27.0715 15.1815L27.7172 14.7397L26.9071 14.7248L26.6411 14.034L26.375 14.7248L25.565 14.7397L26.2106 15.1815L25.976 15.8815ZM25.7828 13.0808L25.1177 13.4985L25.3523 12.7985L24.7066 12.3567L25.5167 12.3418L25.7828 11.651L26.0488 12.3418L26.8589 12.3567L26.2132 12.7985L26.4479 13.4985L25.7828 13.0808ZM22.9655 11.6603L23.6306 11.2425L24.2956 11.6603L24.061 10.9603L24.7067 10.5184L23.8966 10.5035L23.6306 9.81274L23.3645 10.5035L22.5544 10.5184L23.2001 10.9603L22.9655 11.6603ZM17.2508 18.7545L17.0434 18.0982C18.1909 17.8221 19.5084 17.6849 20.996 17.6849C22.4836 17.6849 23.8011 17.8221 24.9486 18.0982L24.7412 18.7545C23.6656 18.4958 22.4171 18.3657 20.996 18.3657C19.5749 18.3657 18.3264 18.4958 17.2508 18.7545ZM18.6719 17.7019C18.2141 17.7711 17.8396 17.3777 17.8396 17.3777L18.2939 17.2108C18.2795 16.9309 18.4694 16.7574 18.4694 16.7574C18.6231 16.8203 18.8327 17.164 18.8327 17.164H19.2445C19.2445 17.164 19.1298 17.6328 18.6719 17.7019ZM24.0826 17.4458C24.0826 17.4458 23.7081 17.8392 23.2503 17.77C22.7924 17.7009 22.6777 17.2321 22.6777 17.2321H23.0895C23.0895 17.2321 23.2991 16.8884 23.4528 16.8255C23.4528 16.8255 23.6427 16.999 23.6283 17.279L24.0826 17.4458ZM20.9385 17.5773C20.4743 17.5891 20.1651 17.1532 20.1651 17.1532L20.6411 17.0442C20.6707 16.7653 20.8859 16.6169 20.8859 16.6169C21.0282 16.6982 21.182 17.0645 21.182 17.0645L21.5898 17.1154C21.5898 17.1154 21.4028 17.5655 20.9385 17.5773Z" fill="#FFBB00"/>
<path fill-rule="evenodd" clip-rule="evenodd" d="M20.9533 15.6986C20.9533 15.6986 20.4257 16.7719 19.5947 16.8549C18.7637 16.9379 18.3417 16.2445 18.3417 16.2445C18.3417 16.2445 18.2872 16.9656 17.3004 17.2436C16.3135 17.5215 15.7938 16.411 15.7938 16.411C15.7938 16.411 16.3076 16.8195 17.1045 16.6415C17.9014 16.4635 18.2159 15.806 18.2159 15.806C18.2159 15.806 18.8057 16.4914 19.5947 16.1487C20.3838 15.806 20.8203 15.3872 20.8203 14.9853V13.7835C20.8203 13.7835 20.6168 13.4719 20.2636 13.4719C19.9104 13.4719 19.8119 13.6928 19.8119 13.6928C19.8119 13.6928 19.6741 12.4425 20.9442 12.3652L20.9441 12.3622C20.956 12.3625 20.9677 12.3629 20.9792 12.3634C20.9908 12.3629 21.0025 12.3625 21.0144 12.3622L21.0143 12.3652C22.2844 12.4425 22.1466 13.6928 22.1466 13.6928C22.1466 13.6928 22.048 13.4719 21.6949 13.4719C21.3417 13.4719 21.1382 13.7835 21.1382 13.7835V14.9853C21.1382 15.3872 21.5747 15.806 22.3638 16.1487C23.1528 16.4914 23.7426 15.806 23.7426 15.806C23.7426 15.806 24.0571 16.4635 24.854 16.6415C25.6509 16.8195 26.1647 16.411 26.1647 16.411C26.1647 16.411 25.645 17.5215 24.6581 17.2436C23.6712 16.9656 23.6168 16.2445 23.6168 16.2445C23.6168 16.2445 23.1948 16.9379 22.3638 16.8549C21.5328 16.7719 21.0052 15.6986 21.0052 15.6986L20.9792 14.2813L20.9533 15.6986ZM20.9416 12.7018C20.3557 12.7018 20.237 13.1428 20.237 13.1428C20.7529 13.1428 20.9416 13.3426 20.9416 13.3426C20.9416 13.3426 21.3236 13.1428 21.7082 13.1428C21.7082 13.1428 21.5275 12.7018 20.9416 12.7018Z" fill="#FFBB00"/>
</g>
</g>
<defs>
<filter id="filter0_dd_5_6403" x="0" y="0" width="42" height="30" filterUnits="userSpaceOnUse" color-interpolation-filters="sRGB">
<feFlood flood-opacity="0" result="BackgroundImageFix"/>
<feColorMatrix in="SourceAlpha" type="matrix" values="0 0 0 0 0 0 0 0 0 0 0 0 0 0 0 0 0 0 127 0" result="hardAlpha"/>
<feOffset dy="1"/>
<feGaussianBlur stdDeviation="1"/>
<feColorMatrix type="matrix" values="0 0 0 0 0.0627451 0 0 0 0 0.0941176 0 0 0 0 0.156863 0 0 0 0.06 0"/>
<feBlend mode="normal" in2="BackgroundImageFix" result="effect1_dropShadow_5_6403"/>
<feColorMatrix in="SourceAlpha" type="matrix" values="0 0 0 0 0 0 0 0 0 0 0 0 0 0 0 0 0 0 127 0" result="hardAlpha"/>
<feOffset dy="1"/>
<feGaussianBlur stdDeviation="1.5"/>
<feColorMatrix type="matrix" values="0 0 0 0 0.0627451 0 0 0 0 0.0941176 0 0 0 0 0.156863 0 0 0 0.1 0"/>
<feBlend mode="normal" in2="effect1_dropShadow_5_6403" result="effect2_dropShadow_5_6403"/>
<feBlend mode="normal" in="SourceGraphic" in2="effect2_dropShadow_5_6403" result="shape"/>
</filter>
</defs>
</svg>
