<svg width="42" height="30" viewBox="0 0 42 30" fill="none" xmlns="http://www.w3.org/2000/svg">
<g filter="url(#filter0_dd_5_11042)">
<mask id="mask0_5_11042" style="mask-type:alpha" maskUnits="userSpaceOnUse" x="3" y="2" width="36" height="24">
<rect x="3" y="2" width="36" height="24" fill="white"/>
</mask>
<g mask="url(#mask0_5_11042)">
<path fill-rule="evenodd" clip-rule="evenodd" d="M3 2H39V26H3V2Z" fill="white"/>
<path fill-rule="evenodd" clip-rule="evenodd" d="M3 13.664V2H21L3 13.664Z" fill="#F00000"/>
<path fill-rule="evenodd" clip-rule="evenodd" d="M39 13.664V2H21L39 13.664Z" fill="#F00000"/>
<path fill-rule="evenodd" clip-rule="evenodd" d="M3 13.664V26H21L3 13.664Z" fill="#00268D"/>
<path fill-rule="evenodd" clip-rule="evenodd" d="M39 13.664V26.336L21 26L39 13.664Z" fill="#00268D"/>
<path fill-rule="evenodd" clip-rule="evenodd" d="M20.6782 16.2563L16.7211 18.7633L18.1732 14.622L14.25 12.087H19.1376L20.6782 8L22.3112 12.087H27.0657L23.1767 14.622L24.655 18.7633L20.6782 16.2563Z" fill="#FEDA00"/>
</g>
</g>
<defs>
<filter id="filter0_dd_5_11042" x="0" y="0" width="42" height="30" filterUnits="userSpaceOnUse" color-interpolation-filters="sRGB">
<feFlood flood-opacity="0" result="BackgroundImageFix"/>
<feColorMatrix in="SourceAlpha" type="matrix" values="0 0 0 0 0 0 0 0 0 0 0 0 0 0 0 0 0 0 127 0" result="hardAlpha"/>
<feOffset dy="1"/>
<feGaussianBlur stdDeviation="1"/>
<feColorMatrix type="matrix" values="0 0 0 0 0.0627451 0 0 0 0 0.0941176 0 0 0 0 0.156863 0 0 0 0.06 0"/>
<feBlend mode="normal" in2="BackgroundImageFix" result="effect1_dropShadow_5_11042"/>
<feColorMatrix in="SourceAlpha" type="matrix" values="0 0 0 0 0 0 0 0 0 0 0 0 0 0 0 0 0 0 127 0" result="hardAlpha"/>
<feOffset dy="1"/>
<feGaussianBlur stdDeviation="1.5"/>
<feColorMatrix type="matrix" values="0 0 0 0 0.0627451 0 0 0 0 0.0941176 0 0 0 0 0.156863 0 0 0 0.1 0"/>
<feBlend mode="normal" in2="effect1_dropShadow_5_11042" result="effect2_dropShadow_5_11042"/>
<feBlend mode="normal" in="SourceGraphic" in2="effect2_dropShadow_5_11042" result="shape"/>
</filter>
</defs>
</svg>
