<svg width="42" height="30" viewBox="0 0 42 30" fill="none" xmlns="http://www.w3.org/2000/svg">
<g filter="url(#filter0_dd_5_11010)">
<mask id="mask0_5_11010" style="mask-type:alpha" maskUnits="userSpaceOnUse" x="3" y="2" width="36" height="24">
<rect x="3" y="2" width="36" height="24" fill="white"/>
</mask>
<g mask="url(#mask0_5_11010)">
<path fill-rule="evenodd" clip-rule="evenodd" d="M3 2V26H39V2H3Z" fill="#009933"/>
<mask id="mask1_5_11010" style="mask-type:alpha" maskUnits="userSpaceOnUse" x="3" y="2" width="36" height="24">
<path fill-rule="evenodd" clip-rule="evenodd" d="M3 2V26H39V2H3Z" fill="white"/>
</mask>
<g mask="url(#mask1_5_11010)">
<g filter="url(#filter1_d_5_11010)">
<path fill-rule="evenodd" clip-rule="evenodd" d="M20.9176 5.70404L34.6447 14.2075L20.7309 22.1713L7.28504 14.0427L20.9176 5.70404Z" fill="#FFD221"/>
<path fill-rule="evenodd" clip-rule="evenodd" d="M20.9176 5.70404L34.6447 14.2075L20.7309 22.1713L7.28504 14.0427L20.9176 5.70404Z" fill="url(#paint0_linear_5_11010)"/>
</g>
<path fill-rule="evenodd" clip-rule="evenodd" d="M21 19.2C24.1066 19.2 26.625 16.9614 26.625 14.2C26.625 11.4386 24.1066 9.20001 21 9.20001C17.8934 9.20001 15.375 11.4386 15.375 14.2C15.375 16.9614 17.8934 19.2 21 19.2Z" fill="#2E42A5"/>
<mask id="mask2_5_11010" style="mask-type:alpha" maskUnits="userSpaceOnUse" x="15" y="9" width="12" height="11">
<path fill-rule="evenodd" clip-rule="evenodd" d="M21 19.2C24.1066 19.2 26.625 16.9614 26.625 14.2C26.625 11.4386 24.1066 9.20001 21 9.20001C17.8934 9.20001 15.375 11.4386 15.375 14.2C15.375 16.9614 17.8934 19.2 21 19.2Z" fill="white"/>
</mask>
<g mask="url(#mask2_5_11010)">
<path fill-rule="evenodd" clip-rule="evenodd" d="M19.1775 16.57L18.9262 16.6874L18.9742 16.4387L18.7709 16.2626L19.0519 16.2263L19.1775 16L19.3031 16.2263L19.5841 16.2626L19.3808 16.4387L19.4288 16.6874L19.1775 16.57Z" fill="#F7FCFF"/>
<path fill-rule="evenodd" clip-rule="evenodd" d="M21.4275 16.57L21.1762 16.6874L21.2242 16.4387L21.0209 16.2626L21.3019 16.2263L21.4275 16L21.5531 16.2263L21.8341 16.2626L21.6308 16.4387L21.6788 16.6874L21.4275 16.57Z" fill="#F7FCFF"/>
<path fill-rule="evenodd" clip-rule="evenodd" d="M21.4275 17.77L21.1762 17.8874L21.2242 17.6387L21.0209 17.4626L21.3019 17.4263L21.4275 17.2L21.5531 17.4263L21.8341 17.4626L21.6308 17.6387L21.6788 17.8874L21.4275 17.77Z" fill="#F7FCFF"/>
<path fill-rule="evenodd" clip-rule="evenodd" d="M20.3025 13.57L20.0512 13.6874L20.0992 13.4387L19.8959 13.2626L20.1769 13.2263L20.3025 13L20.4281 13.2263L20.7091 13.2626L20.5058 13.4387L20.5538 13.6874L20.3025 13.57Z" fill="#F7FCFF"/>
<path fill-rule="evenodd" clip-rule="evenodd" d="M20.3025 15.57L20.0512 15.6874L20.0992 15.4387L19.8959 15.2626L20.1769 15.2263L20.3025 15L20.4281 15.2263L20.7091 15.2626L20.5058 15.4387L20.5538 15.6874L20.3025 15.57Z" fill="#F7FCFF"/>
<path fill-rule="evenodd" clip-rule="evenodd" d="M18.7275 14.57L18.4763 14.6874L18.5243 14.4387L18.321 14.2626L18.6019 14.2263L18.7275 14L18.8532 14.2263L19.1341 14.2626L18.9308 14.4387L18.9788 14.6874L18.7275 14.57Z" fill="#F7FCFF"/>
<path fill-rule="evenodd" clip-rule="evenodd" d="M17.1524 15.37L16.9011 15.4874L16.9491 15.2387L16.7458 15.0626L17.0267 15.0263L17.1524 14.8L17.278 15.0263L17.5589 15.0626L17.3556 15.2387L17.4036 15.4874L17.1524 15.37Z" fill="#F7FCFF"/>
<path fill-rule="evenodd" clip-rule="evenodd" d="M22.3276 11.97L22.0764 12.0875L22.1244 11.8387L21.9211 11.6626L22.202 11.6263L22.3276 11.4L22.4533 11.6263L22.7342 11.6626L22.5309 11.8387L22.5789 12.0875L22.3276 11.97Z" fill="#F7FCFF"/>
<path d="M14.1655 12.9971L14.3347 11.0028C19.7324 11.3646 23.9927 12.9422 27.0619 15.7484L25.4486 17.1425C22.7884 14.7103 19.0453 13.3242 14.1655 12.9971Z" fill="#F7FCFF"/>
<path d="M16.8257 12.6028L16.8836 12.1055C20.3632 12.4259 23.3478 13.6105 25.8282 15.657L25.4456 16.0234C23.0553 14.0515 20.185 12.9121 16.8257 12.6028Z" fill="#009933"/>
</g>
</g>
</g>
</g>
<defs>
<filter id="filter0_dd_5_11010" x="0" y="0" width="42" height="30" filterUnits="userSpaceOnUse" color-interpolation-filters="sRGB">
<feFlood flood-opacity="0" result="BackgroundImageFix"/>
<feColorMatrix in="SourceAlpha" type="matrix" values="0 0 0 0 0 0 0 0 0 0 0 0 0 0 0 0 0 0 127 0" result="hardAlpha"/>
<feOffset dy="1"/>
<feGaussianBlur stdDeviation="1"/>
<feColorMatrix type="matrix" values="0 0 0 0 0.0627451 0 0 0 0 0.0941176 0 0 0 0 0.156863 0 0 0 0.06 0"/>
<feBlend mode="normal" in2="BackgroundImageFix" result="effect1_dropShadow_5_11010"/>
<feColorMatrix in="SourceAlpha" type="matrix" values="0 0 0 0 0 0 0 0 0 0 0 0 0 0 0 0 0 0 127 0" result="hardAlpha"/>
<feOffset dy="1"/>
<feGaussianBlur stdDeviation="1.5"/>
<feColorMatrix type="matrix" values="0 0 0 0 0.0627451 0 0 0 0 0.0941176 0 0 0 0 0.156863 0 0 0 0.1 0"/>
<feBlend mode="normal" in2="effect1_dropShadow_5_11010" result="effect2_dropShadow_5_11010"/>
<feBlend mode="normal" in="SourceGraphic" in2="effect2_dropShadow_5_11010" result="shape"/>
</filter>
<filter id="filter1_d_5_11010" x="7.28516" y="5.70404" width="27.3596" height="16.4672" filterUnits="userSpaceOnUse" color-interpolation-filters="sRGB">
<feFlood flood-opacity="0" result="BackgroundImageFix"/>
<feColorMatrix in="SourceAlpha" type="matrix" values="0 0 0 0 0 0 0 0 0 0 0 0 0 0 0 0 0 0 127 0" result="hardAlpha"/>
<feOffset/>
<feColorMatrix type="matrix" values="0 0 0 0 0.0313726 0 0 0 0 0.368627 0 0 0 0 0 0 0 0 0.28 0"/>
<feBlend mode="normal" in2="BackgroundImageFix" result="effect1_dropShadow_5_11010"/>
<feBlend mode="normal" in="SourceGraphic" in2="effect1_dropShadow_5_11010" result="shape"/>
</filter>
<linearGradient id="paint0_linear_5_11010" x1="39" y1="26" x2="39" y2="2" gradientUnits="userSpaceOnUse">
<stop stop-color="#FFC600"/>
<stop offset="1" stop-color="#FFDE42"/>
</linearGradient>
</defs>
</svg>
