<svg width="42" height="30" viewBox="0 0 42 30" fill="none" xmlns="http://www.w3.org/2000/svg">
<g filter="url(#filter0_dd_5_10248)">
<mask id="mask0_5_10248" style="mask-type:alpha" maskUnits="userSpaceOnUse" x="3" y="2" width="36" height="24">
<rect x="3" y="2" width="36" height="24" fill="white"/>
</mask>
<g mask="url(#mask0_5_10248)">
<path fill-rule="evenodd" clip-rule="evenodd" d="M3 2V26H39V2H3Z" fill="#2E42A5"/>
<mask id="mask1_5_10248" style="mask-type:alpha" maskUnits="userSpaceOnUse" x="3" y="2" width="36" height="24">
<path fill-rule="evenodd" clip-rule="evenodd" d="M3 2V26H39V2H3Z" fill="white"/>
</mask>
<g mask="url(#mask1_5_10248)">
<path fill-rule="evenodd" clip-rule="evenodd" d="M3 2V14H39V2H3Z" fill="#FECA00"/>
<path fill-rule="evenodd" clip-rule="evenodd" d="M3 20V26H39V20H3Z" fill="#E31D1C"/>
<path fill-rule="evenodd" clip-rule="evenodd" d="M13.9316 7.71424C13.9316 7.71424 18.6074 5.83662 19.0324 6.04993C19.4574 6.26323 19.5599 6.87121 19.9268 6.87121C20.2938 6.87121 21.0323 6.67909 21.3408 6.67909C21.6492 6.67909 21.954 6.87121 21.954 6.87121H23.271V6.22022L29.2427 7.71424C29.2427 7.71424 25.7597 8.11872 25.4972 8.11872C25.2347 8.11872 25.4972 8.45234 25.4972 8.45234C25.4972 8.45234 25.0005 8.11872 24.2442 8.11872C23.4878 8.11872 21.954 8.81329 21.954 8.81329L22.5115 9.87944L21.954 10.1929L21.3408 9.87944C21.3408 9.87944 21.3805 9.00268 21.1164 9.00268C20.8522 9.00268 20.6597 9.56593 20.6597 9.87944C20.6597 10.1929 19.9268 10.1929 19.9268 10.1929L20.2542 9.60604C20.2542 9.60604 20.5795 8.633 19.9268 8.633C19.2742 8.633 16.2989 8.11872 16.2989 8.11872L15.5381 8.45234L15.8101 7.71424H13.9316Z" fill="#7B2900"/>
<path fill-rule="evenodd" clip-rule="evenodd" d="M15.9391 17.7742C15.2093 16.3163 15.9391 13.0865 15.9391 13.0865L17.3574 13.7475C17.1891 14.5013 17.1628 15.9258 17.6935 17.0907C18.2242 18.2557 20.2304 19.1732 20.2304 19.1732C20.2304 19.1732 21.2425 19.3738 19.7047 19.5183C18.167 19.6628 16.6689 19.232 15.9391 17.7742ZM19.5751 23.5167C19.1182 23.5167 20.4889 20.8078 20.4889 20.8078L20.9119 20.0551C20.9119 20.0551 20.9637 23.2439 20.674 23.5167C20.4883 23.6916 20.2768 23.6422 20.0286 23.5843C19.8896 23.5518 19.7391 23.5167 19.5751 23.5167Z" fill="#E31D1C"/>
<path fill-rule="evenodd" clip-rule="evenodd" d="M14.6179 17.2981C14.0065 15.1211 14.9603 12.1649 14.9603 12.1649L15.9203 12.7746C15.7793 13.9002 15.7793 16.8111 16.5913 18.0724C17.4033 19.3336 20.9644 19.8634 20.9644 19.8634C20.9644 19.8634 20.2618 20.3251 18.9735 20.5409C17.6852 20.7568 15.2293 19.4751 14.6179 17.2981ZM18.7004 23.2171L19.2652 21.4248L20.0613 20.5589H20.6337C20.6337 20.5589 19.8279 23.6396 19.2652 23.6396C18.8997 23.6396 19.0091 23.4613 19.1306 23.2632C19.1962 23.1564 19.2652 23.0439 19.2652 22.9504C19.2652 22.6837 18.7004 23.2171 18.7004 23.2171Z" fill="#2E42A5"/>
<path fill-rule="evenodd" clip-rule="evenodd" d="M13.6851 17.671C13.3816 15.7972 13.9885 11.3199 13.9885 11.3199L14.9484 11.9296C14.5145 13.0141 14.6489 16.126 14.9484 17.671C15.2479 19.2161 18.0822 20.1475 18.0822 20.1475C18.0822 20.1475 17.3796 20.6091 16.0913 20.825C14.803 21.0408 13.9885 19.5449 13.6851 17.671ZM18.3973 21.4155C17.8507 21.4155 18.6356 20.7189 18.6356 20.7189H19.9441C19.9441 20.7189 19.4965 21.7028 18.9439 21.7028C18.6668 21.7028 18.6676 21.6306 18.6683 21.5586C18.6691 21.487 18.6698 21.4155 18.3973 21.4155Z" fill="#FECA00"/>
<path fill-rule="evenodd" clip-rule="evenodd" d="M25.911 17.7742C26.6408 16.3163 25.911 13.0865 25.911 13.0865L24.4927 13.7475C24.661 14.5013 24.6873 15.9258 24.1566 17.0907C23.6259 18.2557 21.6197 19.1732 21.6197 19.1732C21.6197 19.1732 20.6076 19.3738 22.1454 19.5183C23.6831 19.6628 25.1812 19.232 25.911 17.7742ZM22.275 23.5167C22.7319 23.5167 21.3612 20.8078 21.3612 20.8078L20.9382 20.0551C20.9382 20.0551 20.8864 23.2439 21.1761 23.5167C21.3618 23.6916 21.5733 23.6422 21.8215 23.5843C21.9605 23.5518 22.111 23.5167 22.275 23.5167Z" fill="#E31D1C"/>
<path fill-rule="evenodd" clip-rule="evenodd" d="M27.2323 17.2981C27.8437 15.1211 26.8899 12.1649 26.8899 12.1649L25.9299 12.7746C26.0709 13.9002 26.0709 16.8111 25.2589 18.0724C24.4469 19.3336 20.8858 19.8634 20.8858 19.8634C20.8858 19.8634 21.5884 20.3251 22.8767 20.5409C24.165 20.7568 26.6209 19.4751 27.2323 17.2981ZM23.1498 23.2171L22.585 21.4248L21.7889 20.5589H21.2165C21.2165 20.5589 22.0224 23.6396 22.585 23.6396C22.9505 23.6396 22.8411 23.4613 22.7196 23.2632C22.6541 23.1564 22.585 23.0439 22.585 22.9504C22.585 22.6837 23.1498 23.2171 23.1498 23.2171Z" fill="#2E42A5"/>
<path fill-rule="evenodd" clip-rule="evenodd" d="M28.1649 17.671C28.4683 15.7972 27.8615 11.3199 27.8615 11.3199L26.9016 11.9296C27.3354 13.0141 27.2011 16.126 26.9016 17.671C26.602 19.2161 23.7677 20.1475 23.7677 20.1475C23.7677 20.1475 24.4703 20.6091 25.7586 20.825C27.047 21.0408 27.8615 19.5449 28.1649 17.671ZM23.4527 21.4155C23.9993 21.4155 23.2144 20.7189 23.2144 20.7189H21.9059C21.9059 20.7189 22.3535 21.7028 22.9061 21.7028C23.1832 21.7028 23.1824 21.6306 23.1817 21.5586C23.1809 21.487 23.1802 21.4155 23.4527 21.4155Z" fill="#FECA00"/>
<path d="M14.478 12.446L14.581 11.8936L16.3821 11.9973L15.016 10.7394L15.4762 10.3502L17.3239 12.0515L15.7443 9.41148L16.2903 9.12279L17.7285 11.0032L17.0425 9.04867L17.6323 8.84015L19.8437 12.7602L18.9954 12.7114L19.0785 12.9482L19.8007 13.1184L19.6361 13.6618L19.3013 13.5829L19.6141 14.4742L19.0707 13.7637L20.0168 15.3442L17.6922 13.2036L14.478 12.446Z" fill="#6FAE21"/>
<path d="M27.6667 12.446L27.5637 11.8936L25.7627 11.9973L27.1288 10.7394L26.6685 10.3502L24.8209 12.0515L26.4005 9.41148L25.8544 9.12279L24.4163 11.0032L25.1023 9.04867L24.5124 8.84015L22.3011 12.7602L23.1494 12.7114L23.0663 12.9482L22.3441 13.1184L22.5086 13.6618L22.8435 13.5829L22.5307 14.4742L23.0741 13.7637L22.1279 15.3442L24.4526 13.2036L27.6667 12.446Z" fill="#6FAE21"/>
<path d="M15.4499 23.3113L14.9861 22.9254L28.7003 10.0906L29.1641 10.4765L15.4499 23.3113Z" fill="#171401"/>
<path fill-rule="evenodd" clip-rule="evenodd" d="M28.3519 10.1894L29.0551 10.7788L29.4514 9.80441L28.3519 10.1894Z" fill="#CECECC"/>
<path fill-rule="evenodd" clip-rule="evenodd" d="M15.7982 23.3086L14.9906 22.8366L14.729 23.8041L15.7982 23.3086Z" fill="#CECECC"/>
<path d="M14.4302 21.3988L13.9663 21.0129L27.6805 8.1781L28.1443 8.56397L14.4302 21.3988Z" fill="#171401"/>
<path fill-rule="evenodd" clip-rule="evenodd" d="M27.3322 8.27689L28.0353 8.86633L28.4316 7.89191L27.3322 8.27689Z" fill="#CECECC"/>
<path fill-rule="evenodd" clip-rule="evenodd" d="M14.7785 21.3961L13.9708 20.9241L13.7092 21.8916L14.7785 21.3961Z" fill="#CECECC"/>
<path d="M26.9099 23.3113L27.3738 22.9254L13.6596 10.0906L13.1958 10.4765L26.9099 23.3113Z" fill="#171401"/>
<path fill-rule="evenodd" clip-rule="evenodd" d="M14.0078 10.1894L13.3047 10.7788L12.9083 9.80441L14.0078 10.1894Z" fill="#CECECC"/>
<path fill-rule="evenodd" clip-rule="evenodd" d="M26.5615 23.3086L27.3691 22.8366L27.6308 23.8041L26.5615 23.3086Z" fill="#CECECC"/>
<path d="M28.185 21.8488L28.6488 21.4629L14.9346 8.62811L14.4708 9.01398L28.185 21.8488Z" fill="#171401"/>
<path fill-rule="evenodd" clip-rule="evenodd" d="M15.283 8.72691L14.5798 9.31634L14.1835 8.34192L15.283 8.72691Z" fill="#CECECC"/>
<path fill-rule="evenodd" clip-rule="evenodd" d="M27.8365 21.8461L28.6442 21.3741L28.9058 22.3416L27.8365 21.8461Z" fill="#CECECC"/>
<rect x="18.375" y="18.375" width="5.1" height="2.25" fill="#B74E01"/>
<path d="M20.9412 19.2868C21.924 19.2868 22.7894 18.724 23.3991 17.8633C24.0092 17.0019 24.3787 15.8251 24.3787 14.5368C24.3787 13.2485 24.0092 12.0716 23.3991 11.2103C22.7894 10.3496 21.924 9.78677 20.9412 9.78677C19.9583 9.78677 19.0929 10.3496 18.4833 11.2103C17.8731 12.0716 17.5037 13.2485 17.5037 14.5368C17.5037 15.8251 17.8731 17.0019 18.4833 17.8633C19.0929 18.724 19.9583 19.2868 20.9412 19.2868Z" fill="#7DB8FF" stroke="#FECA00" stroke-width="0.5"/>
<mask id="mask2_5_10248" style="mask-type:alpha" maskUnits="userSpaceOnUse" x="17" y="9" width="8" height="11">
<path d="M20.9412 19.2868C21.924 19.2868 22.7894 18.724 23.3991 17.8633C24.0092 17.0019 24.3787 15.8251 24.3787 14.5368C24.3787 13.2485 24.0092 12.0716 23.3991 11.2103C22.7894 10.3496 21.924 9.78677 20.9412 9.78677C19.9583 9.78677 19.0929 10.3496 18.4833 11.2103C17.8731 12.0716 17.5037 13.2485 17.5037 14.5368C17.5037 15.8251 17.8731 17.0019 18.4833 17.8633C19.0929 18.724 19.9583 19.2868 20.9412 19.2868Z" fill="white" stroke="white" stroke-width="0.5"/>
</mask>
<g mask="url(#mask2_5_10248)">
<path fill-rule="evenodd" clip-rule="evenodd" d="M17.4893 14.6099H19.3032C19.3032 14.6099 20.55 14.8554 19.9266 15.0486C19.3032 15.2418 19.3032 15.3057 19.3032 15.5812C19.3032 15.8568 19.3032 16.8651 19.3032 17.0805C19.3032 17.2958 19.7467 17.7568 18.8119 17.7568C17.877 17.7568 17.0717 14.3408 17.0717 14.3408L17.4893 14.6099Z" fill="#6FAE21"/>
<path fill-rule="evenodd" clip-rule="evenodd" d="M24.5764 14.7955C24.5764 14.7955 22.8915 15.0913 21.7372 14.9927C20.583 14.8941 20.0764 14.7955 20.0764 14.7955C20.0764 14.7955 20.8809 15.1674 21.1669 15.4792C21.4528 15.7909 22.0382 16.3299 22.635 16.3299C23.2317 16.3299 24.1465 16.833 24.1465 16.833L24.5764 14.7955Z" fill="#6FAE21"/>
<path fill-rule="evenodd" clip-rule="evenodd" d="M17.9835 12.1356C17.9835 12.1356 19.3724 12.3742 19.707 12.7315C20.0415 13.0888 19.2651 13.446 21.2889 13.0888C23.3128 12.7315 24.9193 12.1083 24.9193 13.0888C24.9193 14.0693 24.7425 14.9725 23.8716 14.9725C23.0007 14.9725 22.6532 14.9725 19.9972 14.9725C17.3411 14.9725 15.8932 15.6946 16.0792 14.5327C16.2652 13.3708 17.9835 12.1356 17.9835 12.1356Z" fill="#F7FCFF"/>
</g>
</g>
</g>
</g>
<defs>
<filter id="filter0_dd_5_10248" x="0" y="0" width="42" height="30" filterUnits="userSpaceOnUse" color-interpolation-filters="sRGB">
<feFlood flood-opacity="0" result="BackgroundImageFix"/>
<feColorMatrix in="SourceAlpha" type="matrix" values="0 0 0 0 0 0 0 0 0 0 0 0 0 0 0 0 0 0 127 0" result="hardAlpha"/>
<feOffset dy="1"/>
<feGaussianBlur stdDeviation="1"/>
<feColorMatrix type="matrix" values="0 0 0 0 0.0627451 0 0 0 0 0.0941176 0 0 0 0 0.156863 0 0 0 0.06 0"/>
<feBlend mode="normal" in2="BackgroundImageFix" result="effect1_dropShadow_5_10248"/>
<feColorMatrix in="SourceAlpha" type="matrix" values="0 0 0 0 0 0 0 0 0 0 0 0 0 0 0 0 0 0 127 0" result="hardAlpha"/>
<feOffset dy="1"/>
<feGaussianBlur stdDeviation="1.5"/>
<feColorMatrix type="matrix" values="0 0 0 0 0.0627451 0 0 0 0 0.0941176 0 0 0 0 0.156863 0 0 0 0.1 0"/>
<feBlend mode="normal" in2="effect1_dropShadow_5_10248" result="effect2_dropShadow_5_10248"/>
<feBlend mode="normal" in="SourceGraphic" in2="effect2_dropShadow_5_10248" result="shape"/>
</filter>
</defs>
</svg>
