<svg width="42" height="30" viewBox="0 0 42 30" fill="none" xmlns="http://www.w3.org/2000/svg">
<g filter="url(#filter0_dd_5_9717)">
<mask id="mask0_5_9717" style="mask-type:alpha" maskUnits="userSpaceOnUse" x="3" y="2" width="36" height="24">
<rect x="3" y="2" width="36" height="24" fill="white"/>
</mask>
<g mask="url(#mask0_5_9717)">
<rect x="3" y="2" width="36" height="24" fill="#F7FCFF"/>
<path fill-rule="evenodd" clip-rule="evenodd" d="M3 18H39V26H3V18Z" fill="#C51918"/>
<path fill-rule="evenodd" clip-rule="evenodd" d="M22.5625 7H18.3125V11.6154H17.25V8.84616H13V11.6154H10.875V12.5385H11.9375V17.1538H28.9375V12.5385L30 12.5385V11.6154H27.875V8.84616H23.625V11.6154H22.5625V7ZM30 17.1538H10.875V18.0769H30V17.1538Z" fill="#DB000B"/>
<path d="M14.0625 10.692C14.0625 10.1824 14.4756 9.76929 14.9852 9.76929C15.4948 9.76929 15.9079 10.1824 15.9079 10.692V11.8001H14.0625V10.692Z" fill="#272727"/>
<path d="M24.6875 10.692C24.6875 10.1824 25.1006 9.76929 25.6102 9.76929C26.1198 9.76929 26.5329 10.1824 26.5329 10.692V11.8001H24.6875V10.692Z" fill="#272727"/>
<path fill-rule="evenodd" clip-rule="evenodd" d="M13.7633 15.6065C13.7633 14.9317 14.3104 14.3846 14.9852 14.3846C15.66 14.3846 16.2071 14.9317 16.2071 15.6065V17.3385H13.7633V15.6065Z" fill="#272727"/>
<path d="M24.3883 15.6065C24.3883 14.9317 24.9354 14.3846 25.6102 14.3846C26.285 14.3846 26.8321 14.9317 26.8321 15.6065V17.3385H24.3883V15.6065Z" fill="#272727"/>
<path fill-rule="evenodd" clip-rule="evenodd" d="M18.6313 15.8136C18.6313 14.9488 19.3324 14.2478 20.1971 14.2478C21.0619 14.2478 21.7629 14.9488 21.7629 15.8136V18.3093H18.6313V15.8136Z" fill="#272727"/>
<path d="M19.375 9.76889C19.375 9.2593 19.7881 8.84619 20.2977 8.84619C20.8073 8.84619 21.2204 9.2593 21.2204 9.76889V11.8H19.375V9.76889Z" fill="#272727"/>
<rect x="10.875" y="10.6923" width="1.0625" height="0.923077" fill="#DE1A23"/>
<path fill-rule="evenodd" clip-rule="evenodd" d="M12.5625 8H13.6875V9H12.5625V8ZM16.8579 8H17.9829V9H16.8579V8ZM16.2188 8H14.5312V9H16.2188V8Z" fill="#DE1A23"/>
<path fill-rule="evenodd" clip-rule="evenodd" d="M23.3521 8H24.4771V9H23.3521V8ZM27.5455 8H28.6705V9H27.5455V8ZM26.8548 8H25.1673V9H26.8548V8Z" fill="#DE1A23"/>
<path fill-rule="evenodd" clip-rule="evenodd" d="M18.5248 6.02283H17.3998V7.02283H18.5248V6.02283ZM20.2123 6.02283H19.0873V7.02283H20.2123V6.02283ZM20.7748 6.02283H21.8998V7.02283H20.7748V6.02283ZM23.5873 6.02283H22.4623V7.02283H23.5873V6.02283Z" fill="#DE1A23"/>
<rect x="28.8743" y="10.7748" width="1.125" height="0.838696" fill="#DE1A23"/>
<path fill-rule="evenodd" clip-rule="evenodd" d="M20.3694 20.4533L23.4212 18.6794L20.1652 17.3259L16.9091 18.9895L20.3694 20.4533ZM19.1779 18.8418L20.1763 18.247L21.2311 18.7577L20.2826 19.3091L19.1779 18.8418Z" fill="#E8AA00"/>
<path fill-rule="evenodd" clip-rule="evenodd" d="M18.16 23.0068H19.8179V24.1138V23.7401H18.7876V24.1138H18.16V23.0068Z" fill="#E8AA00"/>
<path fill-rule="evenodd" clip-rule="evenodd" d="M19.6676 20.1138H21.0747V24.1138H19.6676V20.1138Z" fill="#E8AA00"/>
</g>
</g>
<defs>
<filter id="filter0_dd_5_9717" x="0" y="0" width="42" height="30" filterUnits="userSpaceOnUse" color-interpolation-filters="sRGB">
<feFlood flood-opacity="0" result="BackgroundImageFix"/>
<feColorMatrix in="SourceAlpha" type="matrix" values="0 0 0 0 0 0 0 0 0 0 0 0 0 0 0 0 0 0 127 0" result="hardAlpha"/>
<feOffset dy="1"/>
<feGaussianBlur stdDeviation="1"/>
<feColorMatrix type="matrix" values="0 0 0 0 0.0627451 0 0 0 0 0.0941176 0 0 0 0 0.156863 0 0 0 0.06 0"/>
<feBlend mode="normal" in2="BackgroundImageFix" result="effect1_dropShadow_5_9717"/>
<feColorMatrix in="SourceAlpha" type="matrix" values="0 0 0 0 0 0 0 0 0 0 0 0 0 0 0 0 0 0 127 0" result="hardAlpha"/>
<feOffset dy="1"/>
<feGaussianBlur stdDeviation="1.5"/>
<feColorMatrix type="matrix" values="0 0 0 0 0.0627451 0 0 0 0 0.0941176 0 0 0 0 0.156863 0 0 0 0.1 0"/>
<feBlend mode="normal" in2="effect1_dropShadow_5_9717" result="effect2_dropShadow_5_9717"/>
<feBlend mode="normal" in="SourceGraphic" in2="effect2_dropShadow_5_9717" result="shape"/>
</filter>
</defs>
</svg>
