<svg width="42" height="30" viewBox="0 0 42 30" fill="none" xmlns="http://www.w3.org/2000/svg">
<g filter="url(#filter0_dd_5_9643)">
<path d="M3 2V9H38.9992V2L3 2Z" fill="#002488"/>
<path d="M3.00073 9V26H39V9L3.00073 9Z" fill="#DA121A"/>
<path d="M8.6563 2.78952C8.22634 3.41978 8.17505 3.92393 8.46849 4.79447C8.60978 5.20072 8.76498 5.80738 8.83019 6.13625C8.91713 6.60054 8.90803 6.64468 8.92024 6.74563C9.02892 6.74563 9.27591 6.746 9.39011 6.74539C9.40654 6.58465 9.41981 6.39911 9.45837 6.14398C9.50332 5.84651 9.63665 5.22436 9.78006 4.79223C10.0666 3.9287 10.0474 3.3989 9.60184 2.79919C9.43881 2.57672 9.22145 2.39294 9.12363 2.39294C9.02582 2.39294 8.80454 2.5628 8.6563 2.78952Z" fill="#FCDD09"/>
<path d="M9.59326 6.33319C9.55633 6.49949 9.54733 6.5582 9.52881 6.74563C9.66054 6.7461 9.71232 6.7469 9.84074 6.74622C9.86885 6.62013 9.88909 6.55356 9.95105 6.37459C10.1967 5.68241 10.9201 5.40462 10.8874 6.05269C10.8766 6.23163 10.7917 6.33154 10.6973 6.42747C10.814 6.40156 11.062 6.29857 11.2631 6.197C12.3825 5.5973 11.9417 4.12783 10.7679 4.57277C10.1593 4.80492 9.79322 5.44756 9.59326 6.33319Z" fill="#FCDD09"/>
<path d="M8.28101 6.98966C8.7722 6.9919 9.62112 6.99591 10.0289 6.99368C10.0293 6.88617 10.0309 6.94103 10.0319 6.85416C9.73168 6.85159 8.58221 6.85583 8.28333 6.85583C8.28402 6.91203 8.28265 6.93925 8.28101 6.98966L8.28101 6.98966Z" fill="#FCDD09"/>
<path d="M7.97168 7.78025C7.97168 7.78025 8.21636 7.80473 8.44455 7.78992C8.67273 7.77511 8.79934 7.74976 8.9342 7.69146C8.89759 7.93346 8.89548 8.16715 8.89548 8.16715C8.92867 8.47858 8.96622 8.55829 9.04211 8.70986C9.14506 8.8363 9.20494 8.83699 9.28062 8.70348C9.36243 8.55399 9.41628 8.40024 9.43336 8.1657C9.42742 7.98991 9.41638 7.90936 9.3696 7.69448C9.52749 7.75528 9.62721 7.77104 9.86276 7.78992C10.1038 7.80923 10.3253 7.79976 10.3253 7.79976C10.3253 7.79976 9.99975 7.65434 9.85645 7.47599C9.71499 7.29994 9.74516 7.32987 9.6423 7.10307C9.51731 7.0978 8.88362 7.10299 8.68256 7.10299C8.57243 7.30975 8.56136 7.35293 8.42534 7.48341C8.24828 7.65326 7.97168 7.78025 7.97168 7.78025Z" fill="#FCDD09"/>
<path d="M7.5307 4.57247C8.13932 4.80461 8.50538 5.44726 8.70534 6.33289C8.74226 6.49919 8.75127 6.55789 8.76979 6.74532C8.63805 6.7458 8.58627 6.7466 8.45786 6.74591C8.42975 6.61982 8.40951 6.55326 8.34755 6.37429C8.10194 5.68211 7.37854 5.40431 7.41115 6.05238C7.42202 6.23132 7.50687 6.33124 7.60133 6.42717C7.48457 6.40126 7.2366 6.29826 7.03554 6.1967C5.9161 5.597 6.35693 4.12753 7.5307 4.57247V4.57247Z" fill="#FCDD09"/>
<path d="M19.9061 2.78952C19.4761 3.41978 19.4248 3.92393 19.7182 4.79447C19.8595 5.20072 20.0147 5.80738 20.0799 6.13625C20.1669 6.60054 20.1578 6.64468 20.17 6.74563C20.2787 6.74563 20.5257 6.746 20.6399 6.74539C20.6563 6.58465 20.6696 6.39911 20.7081 6.14398C20.7531 5.84651 20.8864 5.22436 21.0298 4.79223C21.3164 3.9287 21.2972 3.3989 20.8516 2.79919C20.6886 2.57672 20.4712 2.39294 20.3734 2.39294C20.2756 2.39294 20.0543 2.5628 19.9061 2.78952Z" fill="#FCDD09"/>
<path d="M22.0177 4.57277C21.409 4.80492 21.043 5.44756 20.843 6.33319C20.8061 6.49949 20.7971 6.5582 20.7786 6.74563C20.9103 6.7461 20.9621 6.7469 21.0905 6.74622C21.1186 6.62013 21.1388 6.55356 21.2008 6.37459C21.4464 5.68241 22.1698 5.40462 22.1372 6.05269C22.1263 6.23163 22.0415 6.33154 21.947 6.42747C22.0638 6.40156 22.3118 6.29857 22.5128 6.197C23.6322 5.5973 23.1914 4.12783 22.0177 4.57277V4.57277Z" fill="#FCDD09"/>
<path d="M19.5308 6.98966C20.022 6.9919 20.8709 6.99591 21.2786 6.99368C21.2791 6.88617 21.2806 6.94103 21.2816 6.85416C20.9814 6.85159 19.832 6.85583 19.5331 6.85583C19.5338 6.91203 19.5324 6.93925 19.5308 6.98966L19.5308 6.98966Z" fill="#FCDD09"/>
<path d="M19.6751 7.48341C19.498 7.65326 19.2214 7.78025 19.2214 7.78025C19.2214 7.78025 19.4661 7.80473 19.6943 7.78992C19.9225 7.77511 20.0491 7.74976 20.184 7.69146C20.1473 7.93346 20.1452 8.16715 20.1452 8.16715C20.1784 8.47858 20.216 8.55829 20.2919 8.70986C20.3948 8.8363 20.4547 8.83699 20.5304 8.70348C20.6122 8.55399 20.666 8.40024 20.6831 8.1657C20.6772 7.98991 20.6661 7.90936 20.6194 7.69448C20.7772 7.75528 20.877 7.77104 21.1125 7.78992C21.3535 7.80923 21.5751 7.79976 21.5751 7.79976C21.5751 7.79976 21.2495 7.65434 21.1062 7.47599C20.9647 7.29994 20.9949 7.32987 20.8921 7.10307C20.7671 7.0978 20.1334 7.10299 19.9323 7.10299C19.8222 7.30975 19.8111 7.35293 19.6751 7.48341V7.48341Z" fill="#FCDD09"/>
<path d="M18.7805 4.57247C19.3891 4.80461 19.7551 5.44726 19.9551 6.33289C19.992 6.49919 20.001 6.55789 20.0195 6.74532C19.8878 6.7458 19.836 6.7466 19.7076 6.74591C19.6795 6.61982 19.6593 6.55326 19.5973 6.37429C19.3517 5.68211 18.6283 5.40431 18.6609 6.05238C18.6718 6.23132 18.7566 6.33124 18.8511 6.42717C18.7343 6.40126 18.4864 6.29826 18.2853 6.1967C17.1659 5.597 17.6067 4.12753 18.7805 4.57247V4.57247Z" fill="#FCDD09"/>
<path d="M31.1558 2.78952C30.7259 3.41978 30.6746 3.92393 30.968 4.79447C31.1093 5.20072 31.2645 5.80738 31.3297 6.13625C31.4166 6.60054 31.4075 6.64468 31.4198 6.74563C31.5284 6.74563 31.7754 6.746 31.8896 6.74539C31.906 6.58465 31.9193 6.39911 31.9579 6.14398C32.0028 5.84651 32.1362 5.22436 32.2796 4.79223C32.5661 3.9287 32.5469 3.3989 32.1013 2.79919C31.9383 2.57672 31.721 2.39294 31.6231 2.39294C31.5253 2.39294 31.3041 2.5628 31.1558 2.78952Z" fill="#FCDD09"/>
<path d="M33.2674 4.57277C32.6588 4.80492 32.2927 5.44756 32.0928 6.33319C32.0558 6.49949 32.0468 6.5582 32.0283 6.74563C32.1601 6.7461 32.2118 6.7469 32.3402 6.74622C32.3684 6.62013 32.3886 6.55356 32.4506 6.37459C32.6962 5.68241 33.4196 5.40462 33.387 6.05269C33.3761 6.23163 33.2912 6.33154 33.1968 6.42747C33.3135 6.40156 33.5615 6.29857 33.7626 6.197C34.882 5.5973 34.4412 4.12783 33.2674 4.57277V4.57277Z" fill="#FCDD09"/>
<path d="M30.7805 6.98966C31.2717 6.9919 32.1206 6.99591 32.5284 6.99368C32.5288 6.88617 32.5304 6.94103 32.5314 6.85416C32.2312 6.85159 31.0817 6.85583 30.7828 6.85583C30.7835 6.91203 30.7822 6.93925 30.7805 6.98966L30.7805 6.98966Z" fill="#FCDD09"/>
<path d="M30.9249 7.48341C30.7478 7.65326 30.4712 7.78025 30.4712 7.78025C30.4712 7.78025 30.7159 7.80473 30.9441 7.78992C31.1722 7.77511 31.2989 7.74976 31.4337 7.69146C31.3971 7.93346 31.395 8.16715 31.395 8.16715C31.4282 8.47858 31.4657 8.55829 31.5416 8.70986C31.6446 8.8363 31.7044 8.83699 31.7801 8.70348C31.8619 8.55399 31.9158 8.40024 31.9329 8.1657C31.9269 7.98991 31.9159 7.90936 31.8691 7.69448C32.027 7.75528 32.1267 7.77104 32.3623 7.78992C32.6033 7.80923 32.8249 7.79976 32.8249 7.79976C32.8249 7.79976 32.4993 7.65434 32.356 7.47599C32.2145 7.29994 32.2447 7.32987 32.1418 7.10307C32.0168 7.0978 31.3831 7.10299 31.1821 7.10299C31.0719 7.30975 31.0609 7.35293 30.9249 7.48341V7.48341Z" fill="#FCDD09"/>
<path d="M30.0302 4.57247C30.6388 4.80461 31.0049 5.44726 31.2048 6.33289C31.2418 6.49919 31.2508 6.55789 31.2693 6.74532C31.1376 6.7458 31.0858 6.7466 30.9574 6.74591C30.9293 6.61982 30.909 6.55326 30.8471 6.37429C30.6015 5.68211 29.8781 5.40431 29.9107 6.05238C29.9215 6.23132 30.0064 6.33124 30.1008 6.42717C29.9841 6.40126 29.7361 6.29826 29.535 6.1967C28.4156 5.597 28.8564 4.12753 30.0302 4.57247V4.57247Z" fill="#FCDD09"/>
<path d="M15.7107 15.1284C15.9467 15.2263 16.248 15.3035 16.4 15.308C16.5795 15.3134 16.5319 15.2741 16.1967 15.1581C15.9344 15.067 15.6206 14.9138 15.4813 14.8187C15.2316 14.6372 15.2316 14.6372 15.2578 14.7969C15.2728 14.8882 15.461 15.0301 15.7107 15.1284Z" fill="#008000"/>
<path d="M14.2429 13.2412C14.395 13.7829 15.0254 14.7792 15.2427 14.8179C15.4384 14.8469 15.4384 14.8372 15.2753 14.6728C15.0036 14.3923 14.4168 13.367 14.4168 13.1735C14.4168 13.0671 14.3624 12.9897 14.2972 12.9897C14.2211 12.9897 14.1994 13.0865 14.2429 13.2412Z" fill="#008000"/>
<path d="M7.71026 12.562C7.70648 12.5811 7.91049 12.7211 8.16612 12.8791C8.42176 13.0371 8.71959 13.2606 8.81845 13.3743C8.98784 13.5777 9.9474 14.0819 10.0374 14.0174C10.1256 13.9625 8.88954 13.0712 8.36695 12.8124C7.74487 12.4987 7.72347 12.4953 7.71026 12.562Z" fill="#008000"/>
<path d="M8.0603 13.3062C8.0603 13.3256 8.28854 13.4319 8.57111 13.548C8.85369 13.6641 9.1906 13.8382 9.31015 13.9349C9.51665 14.109 10.56 14.4572 10.6361 14.3799C10.7122 14.3122 9.32102 13.6254 8.75587 13.4513C8.08204 13.2385 8.0603 13.2385 8.0603 13.3062Z" fill="#008000"/>
<path d="M13.4417 13.3835C13.4417 13.4899 13.8655 14.2251 14.1155 14.5346C14.2568 14.7087 14.4198 14.8054 14.6046 14.8054C14.8763 14.8054 14.8763 14.8054 14.4633 14.3895C14.2242 14.167 13.909 13.8285 13.746 13.6447C13.5829 13.4609 13.4417 13.3448 13.4417 13.3835H13.4417Z" fill="#008000"/>
<path d="M11.692 16.3613C10.9747 16.6128 10.8225 16.6998 10.8225 16.8353C10.8225 16.8933 10.8986 16.8836 11.0181 16.7966C11.116 16.7095 11.4746 16.5934 11.8007 16.5257C12.1267 16.458 12.518 16.342 12.6701 16.2742L12.9418 16.1485H12.6158C12.4419 16.1582 12.018 16.2549 11.692 16.3613Z" fill="#008000"/>
<path d="M10.2699 14.8455C10.0851 14.9712 10.096 14.9809 10.4981 14.9228C10.7372 14.8938 11.085 14.8358 11.2589 14.7971C11.5414 14.7294 11.5197 14.7197 11.0306 14.71C10.7046 14.7004 10.4003 14.7584 10.2699 14.8455Z" fill="#008000"/>
<path d="M7.56973 13.8285C9.363 14.1187 12.9604 15.1923 12.743 15.3761C12.6887 15.4245 11.6779 15.202 11.5366 15.115C11.4823 15.0666 10.9498 15.0859 10.3629 15.1536C9.26518 15.26 9.08042 15.3471 9.10216 15.7437C9.11303 15.9371 9.11303 15.9371 9.16737 15.7437C9.26518 15.3858 9.42821 15.3084 10.0477 15.3084C10.7215 15.3084 12.5691 15.5502 13.3843 15.7437C14.4711 16.0145 14.5037 16.0145 14.145 15.8404C13.6777 15.6083 12.9713 15.1827 12.8408 15.0569C12.6017 14.8151 8.2653 13.7511 7.63494 13.7705C7.3415 13.7898 7.33063 13.7898 7.56973 13.8285Z" fill="#008000"/>
<path d="M8.39424 14.3439C8.26382 14.4309 8.12254 14.6341 8.08993 14.7985C8.02472 15.079 8.02472 15.079 8.19861 14.8952C8.65508 14.3826 8.68769 14.3632 9.25284 14.3535C9.7093 14.3439 9.77451 14.3245 9.55715 14.2665C9.10068 14.1408 8.64421 14.1698 8.39424 14.3439Z" fill="#008000"/>
<path d="M13.934 14.9408C14.0209 15.0763 14.8686 15.4535 14.9338 15.3955C14.9664 15.3664 14.8686 15.2891 14.7382 15.2214C14.5969 15.1536 14.4122 15.0472 14.3361 14.9699C14.1622 14.8248 13.8361 14.7958 13.934 14.9408Z" fill="#008000"/>
<path d="M13.9991 15.8598C14.0861 15.9952 14.9338 16.3724 14.999 16.3144C15.0316 16.2854 14.9338 16.208 14.8034 16.1403C14.6621 16.0726 14.4773 15.9662 14.4013 15.8888C14.2274 15.7437 13.9013 15.7147 13.9991 15.8598Z" fill="#008000"/>
<path d="M12.7843 14.7081C12.7999 14.6947 13.0444 14.7669 13.3346 14.8671C13.6247 14.9674 13.9994 15.0622 14.1607 15.0715C14.4448 15.0828 15.451 15.5088 15.4413 15.6113C15.4395 15.707 13.918 15.2935 13.3847 15.0526C12.7446 14.769 12.7295 14.7551 12.7843 14.7081Z" fill="#008000"/>
<path d="M14.5845 15.415C14.3818 15.4847 14.1779 15.6108 14.1145 15.7011C14.0397 15.8077 14.103 15.8087 14.3645 15.6918C14.5696 15.6006 14.8656 15.5257 15.0281 15.5134C15.3322 15.5 15.3322 15.5 15.1387 15.3924C15.028 15.3309 14.793 15.337 14.5845 15.415Z" fill="#008000"/>
<path d="M9.49818 12.1551C9.83509 12.7258 11.2045 14.0413 11.9653 14.5443C12.1718 14.6797 12.5413 14.8151 12.7695 14.8441L13.1934 14.9022L12.8782 14.5926C12.3674 14.0993 11.5849 13.1514 11.3349 12.7355C11.0632 12.2809 11.0306 12.3969 11.2588 12.9773C11.3458 13.2094 11.6936 13.6737 12.0305 14.0026C12.3674 14.3411 12.5848 14.6217 12.5304 14.6217C12.3891 14.6217 11.4762 13.6641 10.8241 12.8322C10.1177 11.923 10.0851 11.894 10.2807 12.3969C10.3785 12.6388 10.5959 12.9966 10.7806 13.1901C10.9545 13.3932 11.0632 13.5577 11.0089 13.5577C10.9002 13.5577 10.422 13.074 9.82422 12.3776C9.6612 12.1745 9.43297 11.9133 9.33515 11.7972C9.22647 11.6715 9.30255 11.8359 9.49818 12.1551Z" fill="#008000"/>
<path d="M10.1345 15.8984C9.66721 15.9951 9.41724 16.1402 9.41724 16.3143C9.41724 16.382 9.46071 16.3724 9.51505 16.295C9.602 16.1692 10.4932 15.9371 10.5801 16.0145C10.6019 16.0338 10.5693 16.1789 10.5041 16.324C10.4389 16.4691 10.4171 16.6142 10.4497 16.6432C10.4823 16.6819 10.5367 16.6045 10.5693 16.4981C10.6997 16.0822 11.1018 15.9564 12.0691 16.0338C12.5582 16.0725 13.1016 16.1209 13.2755 16.1306C13.4602 16.1402 13.7102 16.1983 13.8406 16.266C14.1232 16.4014 15.2209 16.4111 15.1231 16.2756C15.0905 16.2273 14.884 16.1596 14.6557 16.1306C14.4384 16.1015 13.9819 16.0048 13.645 15.9274C12.9712 15.7727 10.8192 15.7533 10.1345 15.8984Z" fill="#008000"/>
<path d="M14.1035 17.015C13.2844 16.8849 12.8948 17.0011 12.5635 17.4556L12.2808 17.8459L12.6443 17.5391C13.1383 17.1123 13.4972 17.0711 14.3851 17.3007C14.8004 17.41 15.1526 17.4814 15.1648 17.4654C15.2317 17.3772 14.5312 17.0734 14.1035 17.015Z" fill="#008000"/>
<path d="M14.3266 17.2181C13.5659 17.5179 13.3159 17.8081 13.3268 18.3498L13.3376 18.814L13.4463 18.3788C13.5876 17.7791 13.8593 17.5663 14.7396 17.3148C15.1526 17.1987 15.4895 17.0826 15.4895 17.0633C15.4895 16.9569 14.7179 17.0536 14.3266 17.2181Z" fill="#008000"/>
<path d="M14.1823 18.0485C14.0519 18.2032 13.9541 18.4063 13.9541 18.5127C13.9541 18.6385 14.0084 18.6095 14.1606 18.387C14.2801 18.2129 14.4866 18.0098 14.6171 17.9227C14.867 17.7679 14.867 17.7679 14.6388 17.7679C14.5084 17.7679 14.3128 17.884 14.1823 18.0485Z" fill="#008000"/>
<path d="M25.9326 19.6248C26.2855 19.7609 28.1165 20.1719 29.412 20.5095C30.7076 20.8472 32.2223 21.2359 32.5576 21.2778C33.0368 20.3482 32.1647 22.087 32.6624 21.0331C32.0154 20.8865 29.465 20.3525 28.4415 20.0907C27.5592 19.8709 26.3076 19.5279 25.987 19.4651C25.6664 19.4023 25.662 19.5201 25.9326 19.6248Z" fill="#008000"/>
<path d="M26.1566 19.3834C26.5147 19.5085 28.3607 19.8623 29.6687 20.1596C30.9766 20.4568 32.5057 20.7982 32.8424 20.8296C33.2849 19.8857 32.4815 21.6505 32.9376 20.5819C32.2852 20.4555 29.7154 20.001 28.6823 19.7712C27.7919 19.5788 26.5276 19.275 26.2047 19.2221C25.8819 19.1693 25.8821 19.2872 26.1566 19.3834Z" fill="#008000"/>
<path d="M25.6496 19.8001C25.9941 19.9525 27.7984 20.4482 29.0723 20.8457C30.3462 21.2433 31.836 21.702 32.1683 21.7594C32.7016 20.8534 31.7284 22.5492 32.2874 21.52C31.6499 21.3435 29.1344 20.6914 28.1277 20.3823C27.2596 20.1216 26.0298 19.7208 25.7133 19.6432C25.3969 19.5655 25.3856 19.683 25.6496 19.8001Z" fill="#008000"/>
<path d="M25.4297 19.9982C25.7647 20.1664 27.5375 20.7455 28.7862 21.2018C30.035 21.6581 31.4958 22.1856 31.8243 22.2585C32.4101 21.3785 31.3385 23.0267 31.9573 22.0249C31.331 21.8189 28.8574 21.0505 27.8702 20.695C27.0186 20.3943 25.814 19.9367 25.5026 19.8444C25.1912 19.7521 25.1729 19.8689 25.4297 19.9982Z" fill="#008000"/>
<path d="M25.2228 20.2477C25.551 20.4262 27.2999 21.06 28.53 21.5548C29.7602 22.0497 31.1994 22.6222 31.5248 22.7052C32.1448 21.844 31.0092 23.4579 31.6669 22.4759C31.0491 22.2506 28.6071 21.4059 27.6345 21.0199C26.7951 20.6929 25.6093 20.1982 25.3016 20.0963C24.994 19.9944 24.9712 20.1105 25.2228 20.2477Z" fill="#008000"/>
<path d="M21.5569 22.755C22.0615 23.0679 22.339 23.5027 22.3115 23.9514L22.2929 24.3221L22.4585 23.9574C22.6398 23.5758 22.6148 22.998 22.4008 22.5701L22.2759 22.3205L22.6724 22.4742C23.2391 22.6869 23.6122 23.0608 23.6901 23.505L23.7585 23.8709L23.8353 23.4835C23.9234 23.0766 23.7641 22.5163 23.4546 22.1373L23.2742 21.9162L23.698 21.9931C24.302 22.0963 24.7542 22.3931 24.9343 22.8131L25.0866 23.1585L25.0712 22.7653C25.0624 22.351 24.7755 21.8323 24.3844 21.5189L24.1563 21.336L24.5888 21.3329C25.2036 21.3221 25.7154 21.5286 25.9896 21.9063L26.2192 22.2158L26.1123 21.8341C26.0069 21.4307 25.6052 20.9764 25.1494 20.7421L24.8835 20.6054L25.3059 20.5224C25.9047 20.3979 26.4536 20.5054 26.81 20.824L27.1069 21.0843L26.9131 20.7307C26.7158 20.3555 26.2167 19.9854 25.7161 19.8406L25.4241 19.7563L25.8178 19.5969C26.3745 19.3644 26.9364 19.3679 27.3595 19.6135L27.7108 19.8132L27.4387 19.5031C27.158 19.1726 26.5834 18.903 26.0599 18.8541L25.7546 18.8256L26.1025 18.5968C26.5927 18.2664 27.1432 18.1657 27.6144 18.3278L28.0047 18.4581L27.6661 18.2052C27.3143 17.9339 26.6893 17.7764 26.1658 17.8255L25.8605 17.854L26.1473 17.5658C26.5496 17.1519 27.0646 16.9516 27.5633 17.023L27.9755 17.0782L27.5852 16.8935C27.1777 16.6933 26.5296 16.6549 26.029 16.7996L25.737 16.884L25.9501 16.5491C26.2469 16.0698 26.7039 15.7787 27.2084 15.7561L27.6244 15.7339L27.1995 15.6255C26.7542 15.505 26.1112 15.5875 25.6554 15.8216L25.3895 15.9582L25.5198 15.5911C25.6982 15.0674 26.0771 14.6981 26.5654 14.5827L26.9672 14.4839L26.5262 14.4565C26.0624 14.421 25.4528 14.6206 25.0617 14.934L24.8335 15.1169L24.8753 14.7338C24.9274 14.1883 25.2117 13.7571 25.6623 13.5537L26.0323 13.3829L25.5945 13.4376C25.1326 13.4887 24.583 13.7967 24.2736 14.1757L24.0931 14.3968L24.0445 14.0143C23.9681 13.4713 24.1454 12.9967 24.5386 12.7145L24.8605 12.4789L24.4451 12.6134C24.0053 12.7489 23.5396 13.1519 23.3255 13.5798L23.2007 13.8296L23.0637 13.4644C22.862 12.9474 22.9247 12.4503 23.2434 12.1016L23.5033 11.8116L23.1284 12.0199C22.7298 12.2338 22.3684 12.7142 22.259 13.1724L22.1952 13.4397L21.9759 13.108C21.6578 12.6394 21.603 12.1418 21.8333 11.7416L22.0197 11.4098L21.7017 11.683C21.3618 11.9661 21.1205 12.5029 21.1205 12.9713V13.2445L20.8285 12.9605C20.4081 12.5613 20.2382 12.0845 20.3699 11.6505L20.4746 11.2914L20.2274 11.6176C19.961 11.9572 19.8505 12.5269 19.9599 12.9852L20.0237 13.2525L19.6717 13.0287C19.1671 12.7159 18.8896 12.281 18.9171 11.8321L18.9357 11.4615L18.77 11.8263C18.5889 12.2079 18.6138 12.7855 18.8278 13.2135L18.9527 13.4632L18.5561 13.3095C17.9895 13.0969 17.6163 12.7229 17.5384 12.2788L17.4701 11.9128L17.3933 12.3002C17.3053 12.7069 17.4645 13.2675 17.774 13.6464L17.9544 13.8674L17.5306 13.7905C16.9267 13.6873 16.4744 13.3906 16.2944 12.9705L16.142 12.6252L16.1574 13.0184C16.1663 13.4326 16.4531 13.9513 16.8442 14.2647L17.0724 14.4476L16.6398 14.4507C16.025 14.4615 15.5133 14.2549 15.239 13.8774L15.0094 13.5678L15.1163 13.9495C15.2217 14.353 15.6234 14.8074 16.0792 15.0416L16.3451 15.1782L15.9228 15.2613C15.3239 15.3856 14.7751 15.2783 14.4187 14.9598L14.1217 14.6994L14.3154 15.053C14.5128 15.4282 15.0119 15.7982 15.5125 15.943L15.8045 16.0274L15.4108 16.1868C14.8541 16.4194 14.2921 16.4158 13.8691 16.1702L13.5178 15.9705L13.7898 16.2804C14.0706 16.6109 14.6452 16.8805 15.1687 16.9295L15.474 16.9581L15.1261 17.1868C14.6359 17.5173 14.0854 17.6178 13.6142 17.4558L13.2239 17.3256L13.5624 17.5784C13.9142 17.8498 14.5393 18.0072 15.0628 17.9582L15.3681 17.9297L15.0813 18.2178C14.679 18.6318 14.164 18.8319 13.6652 18.7607L13.2531 18.7054L13.6434 18.8902C14.0509 19.0905 14.699 19.1288 15.1996 18.984L15.4917 18.8996L15.2784 19.2346C14.9816 19.7139 14.5247 20.0051 14.0202 20.0276L13.6041 20.0497L14.029 20.1582C14.4744 20.2787 15.1173 20.1962 15.5732 19.9621L15.8391 19.8254L15.7088 20.1924C15.5304 20.7163 15.1515 21.0856 14.6633 21.201L14.2614 21.2998L14.7024 21.3272C15.1662 21.3626 15.7758 21.163 16.1669 20.8495L16.3951 20.6667L16.3534 21.05C16.3013 21.5952 16.0169 22.0266 15.5663 22.2298L15.1963 22.4008L15.6341 22.3461C16.096 22.295 16.6457 21.9868 16.955 21.6079L17.1355 21.3869L17.1842 21.7694C17.2606 22.3124 17.0833 22.7869 16.69 23.0691L16.368 23.3048L16.7834 23.1703C17.2233 23.0349 17.689 22.6317 17.9031 22.2038L18.0279 21.9542L18.1649 22.3192C18.3665 22.8364 18.3039 23.3333 17.9851 23.6821L17.7252 23.9722L18.1001 23.7637C18.4987 23.5498 18.8601 23.0694 18.9696 22.6112L19.0334 22.344L19.2527 22.6758C19.5707 23.1442 19.6255 23.642 19.3953 24.0421L19.2088 24.3739L19.5269 24.1006C19.8668 23.8177 20.108 23.2809 20.108 22.8124V22.5391L20.4001 22.8231C20.8205 23.2225 20.9904 23.6992 20.8587 24.1332L20.7539 24.4923L21.0011 24.1661C21.2675 23.8263 21.378 23.2568 21.2686 22.7985L21.2048 22.5313L21.5569 22.755Z" fill="#FCDD09"/>
</g>
<defs>
<filter id="filter0_dd_5_9643" x="0" y="0" width="42" height="30" filterUnits="userSpaceOnUse" color-interpolation-filters="sRGB">
<feFlood flood-opacity="0" result="BackgroundImageFix"/>
<feColorMatrix in="SourceAlpha" type="matrix" values="0 0 0 0 0 0 0 0 0 0 0 0 0 0 0 0 0 0 127 0" result="hardAlpha"/>
<feOffset dy="1"/>
<feGaussianBlur stdDeviation="1"/>
<feColorMatrix type="matrix" values="0 0 0 0 0.0627451 0 0 0 0 0.0941176 0 0 0 0 0.156863 0 0 0 0.06 0"/>
<feBlend mode="normal" in2="BackgroundImageFix" result="effect1_dropShadow_5_9643"/>
<feColorMatrix in="SourceAlpha" type="matrix" values="0 0 0 0 0 0 0 0 0 0 0 0 0 0 0 0 0 0 127 0" result="hardAlpha"/>
<feOffset dy="1"/>
<feGaussianBlur stdDeviation="1.5"/>
<feColorMatrix type="matrix" values="0 0 0 0 0.0627451 0 0 0 0 0.0941176 0 0 0 0 0.156863 0 0 0 0.1 0"/>
<feBlend mode="normal" in2="effect1_dropShadow_5_9643" result="effect2_dropShadow_5_9643"/>
<feBlend mode="normal" in="SourceGraphic" in2="effect2_dropShadow_5_9643" result="shape"/>
</filter>
</defs>
</svg>
