<svg width="42" height="30" viewBox="0 0 42 30" fill="none" xmlns="http://www.w3.org/2000/svg">
<g filter="url(#filter0_dd_5_8194)">
<mask id="mask0_5_8194" style="mask-type:alpha" maskUnits="userSpaceOnUse" x="3" y="2" width="36" height="24">
<rect x="3" y="2" width="36" height="24" fill="white"/>
</mask>
<g mask="url(#mask0_5_8194)">
<path fill-rule="evenodd" clip-rule="evenodd" d="M3 2H39V26H3V2Z" fill="#E8AA00"/>
<path fill-rule="evenodd" clip-rule="evenodd" d="M7.5 6H34.5V22H7.5V6Z" fill="#C51918"/>
<mask id="mask1_5_8194" style="mask-type:alpha" maskUnits="userSpaceOnUse" x="7" y="6" width="28" height="16">
<path fill-rule="evenodd" clip-rule="evenodd" d="M7.5 6H34.5V22H7.5V6Z" fill="white"/>
</mask>
<g mask="url(#mask1_5_8194)">
<path fill-rule="evenodd" clip-rule="evenodd" d="M25.7596 17.7513C26.2184 17.7513 26.5904 17.4125 26.5904 16.9945C26.5904 16.5766 26.2184 16.2378 25.7596 16.2378C25.3008 16.2378 24.9288 16.5766 24.9288 16.9945C24.9288 17.4125 25.3008 17.7513 25.7596 17.7513Z" fill="#1E5E91"/>
<path fill-rule="evenodd" clip-rule="evenodd" d="M14.956 14.3318C12.7766 12.0804 15.9001 8.17322 15.9001 8.17322C15.9001 8.17322 16.3671 10.5068 18.0955 12.077C18.0955 12.1885 17.9323 12.353 17.767 12.5196C17.6516 12.6359 17.5352 12.7532 17.4728 12.8542C17.3208 13.0997 17.8425 13.2396 18.0955 13.2396C18.2091 13.2396 18.2718 13.386 18.3284 13.5181C18.398 13.6804 18.4583 13.8211 18.5922 13.6428C18.835 13.3194 18.3493 12.6087 18.3493 12.6087L19.1183 11.8877L19.3783 11.4216H19.1183V10.9417L18.9361 11.0748C18.9361 11.0748 18.7361 10.6457 18.3493 10.6457C17.9624 10.6457 17.8425 10.4495 17.8425 10.4495H18.3493C18.603 10.4495 18.3087 10.1506 18.0955 9.99494C17.9999 9.92515 17.8549 9.94921 17.7241 9.97093C17.5629 9.99767 17.4232 10.0209 17.4232 9.86114C17.4232 9.68607 17.5765 9.66287 17.7537 9.63607C17.8695 9.61855 17.9955 9.5995 18.0955 9.5355C18.2609 9.42964 18.4838 9.46219 18.7251 9.49742C18.853 9.51608 18.9859 9.5355 19.1183 9.5355H19.7449C19.9711 9.5355 19.3783 9.86114 19.3783 9.86114L19.7449 10.1506L20.2899 10.6457L20.0173 10.7895L20.5798 11.2743C20.5798 11.2743 20.3888 11.5502 20.5798 11.5502C20.6584 11.5502 20.7102 11.6075 20.7439 11.6749C20.7776 11.6075 20.8293 11.5502 20.908 11.5502C21.0989 11.5502 20.908 11.2743 20.908 11.2743L21.4704 10.7895L21.1979 10.6457L21.7429 10.1506L22.1094 9.86114C22.1094 9.86114 21.5166 9.5355 21.7429 9.5355H22.3695C22.5018 9.5355 22.6348 9.51608 22.7626 9.49742C23.0039 9.46219 23.2269 9.42964 23.3923 9.5355C23.4923 9.5995 23.6182 9.61855 23.734 9.63607C23.9112 9.66287 24.0646 9.68607 24.0646 9.86114C24.0646 10.0209 23.9248 9.99767 23.7637 9.97093C23.6328 9.94921 23.4878 9.92515 23.3923 9.99494C23.179 10.1506 22.8847 10.4495 23.1385 10.4495H23.6453C23.6453 10.4495 23.5253 10.6457 23.1385 10.6457C22.7516 10.6457 22.5517 11.0748 22.5517 11.0748L22.3695 10.9417V11.4216H22.1094L22.3695 11.8877L23.1385 12.6087C23.1385 12.6087 22.6527 13.3194 22.8956 13.6428C23.0295 13.8211 23.0898 13.6804 23.1593 13.5181C23.216 13.386 23.2787 13.2396 23.3923 13.2396C23.6453 13.2396 24.167 13.0997 24.015 12.8542C23.9525 12.7532 23.8361 12.6359 23.7207 12.5196C23.5555 12.353 23.3923 12.1885 23.3923 12.077C25.1207 10.5068 25.5876 8.17322 25.5876 8.17322C25.5876 8.17322 28.7112 12.0804 26.5318 14.3318C24.3524 16.5833 22.7516 15.9044 22.7516 15.9044L23.6453 16.6167L23.3923 16.8113H24.1368L23.863 16.974L24.0646 17.0525L24.2779 17.1355C24.2779 17.1355 23.7028 17.5115 24.2779 17.5115C24.3687 17.5115 24.465 17.5091 24.564 17.5067C24.6725 17.504 24.7843 17.5012 24.8961 17.5014C24.9263 17.5015 24.8589 17.3541 24.7922 17.208C24.7263 17.0638 24.661 16.9208 24.6904 16.922C24.7526 16.9243 24.8747 17.0554 24.9973 17.1869C25.095 17.2918 25.193 17.3969 25.2611 17.4374C25.3049 17.4634 25.4761 17.4106 25.6348 17.3616C25.7689 17.3202 25.8941 17.2815 25.9257 17.2957C26.0594 17.3557 26.0252 17.4771 25.9927 17.5927C25.9843 17.6225 25.976 17.6518 25.9708 17.6796C25.966 17.7049 26.1373 17.6061 26.3175 17.5022C26.5067 17.3931 26.7057 17.2784 26.7208 17.2957C26.724 17.2993 26.7275 17.303 26.7311 17.3069C26.7954 17.3757 26.899 17.4865 26.134 18.0106C26.134 18.1114 26.138 18.1936 26.1413 18.2604C26.1518 18.4749 26.1546 18.5304 25.9911 18.5304C25.9183 18.5304 25.8164 18.5625 25.6984 18.5997C25.3959 18.695 24.9872 18.8237 24.6904 18.5304C24.2779 18.1227 23.6453 17.5115 23.6453 17.5115V17.8119L22.8956 17.1355L22.7516 17.5115L21.7429 16.4816L21.4704 16.6167C21.4704 16.6167 22.3989 18.8944 22.8956 18.9102C23.1424 18.9181 22.7676 19.131 22.2712 19.413C21.7686 19.6985 21.1413 20.0548 20.908 20.341C20.8386 20.4262 20.7849 20.2964 20.7439 20.0142C20.7028 20.2964 20.6492 20.4262 20.5798 20.341C20.3464 20.0548 19.7191 19.6985 19.2166 19.413C18.7201 19.131 18.3454 18.9181 18.5922 18.9102C19.0888 18.8944 20.0173 16.6167 20.0173 16.6167L19.7449 16.4816L18.7361 17.5115L18.5922 17.1355L17.8425 17.8119V17.5115C17.8425 17.5115 17.2098 18.1227 16.7973 18.5304C16.5006 18.8237 16.0919 18.695 15.7893 18.5997C15.6713 18.5625 15.5695 18.5304 15.4966 18.5304C15.2371 18.5304 15.1503 18.2076 15.4966 17.8119C15.7884 17.4786 16.3958 17.4936 16.9238 17.5067C17.0228 17.5091 17.119 17.5115 17.2098 17.5115C17.785 17.5115 17.2098 17.1355 17.2098 17.1355L17.4232 17.0525L17.6247 16.974L17.351 16.8113H18.0955L17.8425 16.6167L18.7361 15.9044C18.7361 15.9044 17.1354 16.5833 14.956 14.3318Z" fill="#F6C540"/>
<path fill-rule="evenodd" clip-rule="evenodd" d="M16.9871 19.0303L16.0026 17.4961C16.0026 17.4961 14.7154 14.858 14.7154 14.5377C14.7154 14.2174 14.1973 13.2689 14.1973 13.5443C14.1973 13.8196 14.1973 14.5377 14.1973 14.5377L16.369 18.8867V19.2294H16.6615L16.9871 19.0303Z" fill="#F6C540"/>
<path d="M24.8721 16.9649L25.0219 16.523L26.851 17.0128L26.7012 17.4548L24.8721 16.9649Z" fill="#F6C540"/>
<path d="M25.8463 16.1603L26.3409 16.3043L25.8576 17.6823L25.363 17.5384L25.8463 16.1603Z" fill="#F6C540"/>
<path fill-rule="evenodd" clip-rule="evenodd" d="M26.307 15.7111L26.2007 15.6895L26.1575 15.8415L25.9621 15.7989L25.9381 15.8917L26.1313 15.9338L26.082 16.1071L26.1883 16.1286L26.2371 15.9569L26.4294 15.9989L26.4534 15.9061L26.2633 15.8646L26.307 15.7111Z" fill="#F6C540"/>
<path fill-rule="evenodd" clip-rule="evenodd" d="M20.6562 7.22241L20.7097 7.38822H20.872L20.9255 7.22241C21.0607 7.25857 21.1833 7.29972 21.2932 7.34566L21.297 7.30936C22.1653 7.37986 22.6159 7.70294 22.5676 8.27097C22.5276 8.74119 22.2598 8.98752 21.8133 8.9812V9.33242C21.8133 9.33242 21.0864 9.58046 20.7229 9.58046C20.3595 9.58046 19.6326 9.33242 19.6326 9.33242V8.97525C19.265 8.93481 19.0455 8.69311 19.0096 8.27097C18.9613 7.70294 19.4119 7.37986 20.2802 7.30936L20.2842 7.34748C20.3952 7.30081 20.5193 7.25905 20.6562 7.22241ZM19.7369 8.66667C19.688 8.67886 19.6536 8.68784 19.6396 8.69154C19.4402 8.65829 19.343 8.5167 19.3203 8.25075C19.2975 7.98183 19.4396 7.79475 19.7748 7.68685C19.5461 7.94696 19.5293 8.27784 19.7369 8.66667ZM20.0465 8.595C20.2297 8.55588 20.4416 8.51698 20.6114 8.50362V7.53297C19.9142 7.7505 19.7467 8.08326 20.0465 8.595ZM20.923 8.51236C21.1567 8.53961 21.4405 8.60201 21.6238 8.6459L21.5318 8.60078C21.843 8.07435 21.6625 7.73659 20.923 7.51863V8.51236ZM21.8087 7.68891C22.042 7.95594 22.0526 8.29729 21.827 8.69918C22.1017 8.70285 22.2304 8.56193 22.2568 8.25075C22.2796 7.98353 22.1394 7.79711 21.8087 7.68891Z" fill="#F6C540"/>
<path fill-rule="evenodd" clip-rule="evenodd" d="M20.7231 7.51914C20.9238 7.51914 21.0865 7.37449 21.0865 7.19606C21.0865 7.01763 20.9238 6.87299 20.7231 6.87299C20.5223 6.87299 20.3596 7.01763 20.3596 7.19606C20.3596 7.37449 20.5223 7.51914 20.7231 7.51914Z" fill="#3D58DB"/>
<path fill-rule="evenodd" clip-rule="evenodd" d="M20.7737 6.49821L20.6647 6.50017L20.6642 6.65697L20.463 6.65761L20.4649 6.75279L20.6638 6.75216L20.6632 6.93087L20.7722 6.92891L20.7728 6.75182L20.9708 6.75119L20.9688 6.65601L20.7732 6.65663L20.7737 6.49821Z" fill="#F6C540"/>
<path fill-rule="evenodd" clip-rule="evenodd" d="M18.6981 12.3595C18.6981 12.3595 19.978 12.1448 20.6711 12.1448C21.2934 12.1448 22.6442 12.3595 22.6442 12.3595C22.6442 13.7195 23.0748 14.5522 22.6442 15.4811C22.2136 16.41 21.1614 15.9635 20.6852 16.8524C20.0765 16.0092 19.2546 16.4734 18.6981 15.2727C18.1416 14.0721 19.0364 13.5191 18.6981 12.3595Z" fill="#1E5E91"/>
<mask id="mask2_5_8194" style="mask-type:alpha" maskUnits="userSpaceOnUse" x="18" y="12" width="5" height="5">
<path fill-rule="evenodd" clip-rule="evenodd" d="M18.6981 12.3595C18.6981 12.3595 19.978 12.1448 20.6711 12.1448C21.2934 12.1448 22.6442 12.3595 22.6442 12.3595C22.6442 13.7195 23.0748 14.5522 22.6442 15.4811C22.2136 16.41 21.1614 15.9635 20.6852 16.8524C20.0765 16.0092 19.2546 16.4734 18.6981 15.2727C18.1416 14.0721 19.0364 13.5191 18.6981 12.3595Z" fill="white"/>
</mask>
<g mask="url(#mask2_5_8194)">
<rect x="18.6981" y="15.1973" width="3.94615" height="1.7027" fill="#5EAA22"/>
<path fill-rule="evenodd" clip-rule="evenodd" d="M19.8649 13.0297C19.7141 12.7449 20.6573 12.7117 20.6573 12.7117C20.6573 12.7117 20.8607 13.0297 20.6573 13.4822C20.5094 13.8113 20.7561 13.7819 21.0964 13.7415C21.2241 13.7263 21.3649 13.7095 21.503 13.7095C21.7201 13.7095 21.8316 13.695 21.9256 13.7291C22.0508 13.7746 22.1446 13.9065 22.4152 14.2743C22.5411 14.4455 22.5355 14.5582 22.4595 14.6256C22.4661 14.7997 22.2528 14.9441 21.8589 15.0364L21.8071 14.8532C22.0155 14.8044 22.1431 14.7576 22.2024 14.706C21.9054 14.722 21.503 14.5916 21.503 14.4239C21.503 14.3435 21.4029 14.2946 21.248 14.2664V14.3066C21.2507 14.3066 21.2715 14.2885 21.2755 14.277L21.2759 14.2798C21.2771 14.2877 21.2799 14.3025 21.2853 14.3235C21.2884 14.3357 21.2998 14.3762 21.3064 14.3995L21.3064 14.3996L21.3064 14.3996L21.3064 14.3997L21.3064 14.3998L21.3109 14.4158C21.3381 14.515 21.3519 14.5929 21.3519 14.6784C21.3519 14.9171 21.1231 15.0575 20.7093 15.1115L20.6798 14.9242C21.0039 14.8819 21.1442 14.7959 21.1442 14.6784C21.1442 14.6112 21.1328 14.5471 21.1094 14.4616L21.1062 14.45L21.1062 14.4499L21.1061 14.4499L21.1061 14.4499L21.1061 14.4498C21.0999 14.4277 21.0868 14.3813 21.083 14.3665C21.0734 14.3288 21.0685 14.3006 21.0685 14.2736C21.0685 14.2634 21.0693 14.2536 21.0708 14.2442C20.8064 14.2226 20.4637 14.2347 20.1715 14.2495C20.1137 14.6967 19.8536 14.9829 19.3978 15.0907L19.3456 14.9076C19.7026 14.8231 19.9056 14.6127 19.9607 14.2607C19.8238 14.2683 19.7102 14.2743 19.6389 14.2743C19.433 14.2743 19.4523 14.1359 19.5519 13.9524C19.1659 13.9269 19.0694 13.5479 19.2187 12.8811L19.4222 12.9189C19.2905 13.507 19.3641 13.7645 19.5945 13.7645V13.8787C19.6519 13.7847 19.7237 13.6829 19.7935 13.584C19.8178 13.5496 19.8418 13.5155 19.8649 13.4822C19.9829 13.3124 20.022 13.2676 20.0139 13.2344C20.0052 13.199 19.9428 13.1768 19.8649 13.0297ZM21.277 14.2759L21.277 14.2736C21.277 14.2749 21.2768 14.2763 21.2765 14.2777L21.277 14.2759ZM22.1275 12.9856C21.5577 12.9052 21.238 12.983 21.238 13.2664C21.238 13.5362 21.5413 13.6531 22.0961 13.6513C22.1177 13.6576 22.1367 13.6638 22.1529 13.6698C22.1322 13.6785 22.1068 13.6877 22.0771 13.6972L22.1461 13.8757C22.4958 13.7636 22.4958 13.5641 22.1418 13.4661L22.1266 13.4619L22.1107 13.4621C21.6496 13.4655 21.4457 13.3886 21.4457 13.2664C21.4457 13.1553 21.6392 13.1082 22.0957 13.1726L22.1275 12.9856Z" fill="#F6C540"/>
</g>
</g>
</g>
</g>
<defs>
<filter id="filter0_dd_5_8194" x="0" y="0" width="42" height="30" filterUnits="userSpaceOnUse" color-interpolation-filters="sRGB">
<feFlood flood-opacity="0" result="BackgroundImageFix"/>
<feColorMatrix in="SourceAlpha" type="matrix" values="0 0 0 0 0 0 0 0 0 0 0 0 0 0 0 0 0 0 127 0" result="hardAlpha"/>
<feOffset dy="1"/>
<feGaussianBlur stdDeviation="1"/>
<feColorMatrix type="matrix" values="0 0 0 0 0.0627451 0 0 0 0 0.0941176 0 0 0 0 0.156863 0 0 0 0.06 0"/>
<feBlend mode="normal" in2="BackgroundImageFix" result="effect1_dropShadow_5_8194"/>
<feColorMatrix in="SourceAlpha" type="matrix" values="0 0 0 0 0 0 0 0 0 0 0 0 0 0 0 0 0 0 127 0" result="hardAlpha"/>
<feOffset dy="1"/>
<feGaussianBlur stdDeviation="1.5"/>
<feColorMatrix type="matrix" values="0 0 0 0 0.0627451 0 0 0 0 0.0941176 0 0 0 0 0.156863 0 0 0 0.1 0"/>
<feBlend mode="normal" in2="effect1_dropShadow_5_8194" result="effect2_dropShadow_5_8194"/>
<feBlend mode="normal" in="SourceGraphic" in2="effect2_dropShadow_5_8194" result="shape"/>
</filter>
</defs>
</svg>
