<svg width="42" height="30" viewBox="0 0 42 30" fill="none" xmlns="http://www.w3.org/2000/svg">
<g filter="url(#filter0_dd_5_8024)">
<rect x="3" y="2" width="36" height="24" fill="#21428E"/>
<path fill-rule="evenodd" clip-rule="evenodd" d="M18.75 2H23.25V12H39V16H23.25V26H18.75V16H3V12H18.75V2Z" fill="#F7FCFF"/>
<path fill-rule="evenodd" clip-rule="evenodd" d="M8.43281 3.34879C8.43281 3.38761 8.46303 3.41196 8.48645 3.43083C8.52584 3.46257 8.54599 3.4788 8.3707 3.52234C8.10672 3.59176 7.39243 3.68433 6.89553 3.67276C6.80052 3.67276 6.63344 3.6477 6.48515 3.62546L6.48515 3.62545L6.48515 3.62545C6.36686 3.60771 6.26053 3.59176 6.2123 3.59176C6.14729 3.59782 6.29489 3.65457 6.41478 3.70066C6.52401 3.74266 6.61024 3.77581 6.4918 3.75375C6.15019 3.68433 5.94832 3.66119 6.2123 3.78846C6.41416 3.88102 6.86448 3.88102 7.50113 3.82317C7.63152 3.81103 7.8731 3.77658 8.10693 3.74323C8.31864 3.71304 8.52399 3.68375 8.63468 3.67276C8.72382 3.66612 8.76178 3.6976 8.79558 3.72563C8.82066 3.74643 8.84344 3.76532 8.88312 3.76532C9.72164 3.80003 11.2123 3.77689 11.8645 3.70747C12.408 3.64962 12.6099 3.67276 12.7651 3.8116C13.0757 4.07772 12.7496 4.30913 11.8645 4.44797C10.7775 4.62153 10.3272 4.77194 9.90798 5.10749C8.89865 5.91741 10.0788 6.83147 12.2838 6.95875C13.5726 7.03974 14.4111 7.22487 14.2092 7.37528C14.1316 7.43313 13.2776 7.5257 12.2993 7.58355C10.172 7.71082 9.22474 7.93066 8.41728 8.50918C7.96697 8.83315 7.81169 9.02985 7.81169 9.29597C7.81169 9.43293 7.81169 9.51923 7.77002 9.57361C7.69906 9.66622 7.50724 9.66622 6.98871 9.66622H6.9887C6.55392 9.66622 5.94832 9.61994 5.66882 9.55051C5.23403 9.46952 5.17192 9.46952 5.3272 9.60837C5.63776 9.88606 6.52286 10.129 7.25268 10.129C7.81169 10.129 8.12225 10.21 8.61915 10.4761C9.61294 11.02 10.7465 11.2282 12.6254 11.2167C15.0943 11.2051 16.5074 10.7191 16.5074 9.89763C16.5074 9.2844 15.5757 8.92571 13.6347 8.79844C12.6564 8.72902 10.731 8.84472 9.89245 9.02985C9.73717 9.06456 9.90798 8.98357 10.2806 8.84472C10.731 8.68274 11.4763 8.56703 12.4856 8.49761C14.7217 8.35876 15.731 7.98851 15.731 7.29429C15.731 6.62321 14.7372 6.24138 12.6099 6.09097C10.5136 5.95212 10.3583 5.67443 12.1285 5.26947C13.3863 4.99178 14.0229 4.57525 14.0229 4.0083C14.0229 3.14052 13.3863 2.85126 11.2589 2.77027C9.97009 2.72399 9.65953 2.74713 9.10052 2.94382C8.72784 3.0711 8.43281 3.25622 8.43281 3.34879ZM10.2761 3.25803C10.2036 3.36387 10.0101 3.46971 9.88923 3.46971C9.74413 3.46971 9.71995 3.36387 9.7925 3.25803C9.86504 3.13103 10.0585 3.04636 10.1794 3.04636C10.3245 3.04636 10.3487 3.13103 10.2761 3.25803ZM11.8125 10.3574C12.8396 10.424 14.5261 10.224 14.7867 9.99739C14.8787 9.91739 14.2455 9.71078 13.9542 9.61745C12.9113 9.37481 10.8466 9.46407 9.81943 9.81073C9.45148 9.94406 10.678 10.264 11.8125 10.3574Z" fill="white"/>
<path fill-rule="evenodd" clip-rule="evenodd" d="M8.43281 17.3488C8.43281 17.3876 8.46303 17.412 8.48645 17.4308C8.52584 17.4626 8.54599 17.4788 8.3707 17.5223C8.10672 17.5918 7.39243 17.6843 6.89553 17.6728C6.80052 17.6728 6.63344 17.6477 6.48515 17.6255L6.48515 17.6255L6.48515 17.6255C6.36686 17.6077 6.26053 17.5918 6.2123 17.5918C6.14729 17.5978 6.29489 17.6546 6.41478 17.7007C6.52401 17.7427 6.61024 17.7758 6.4918 17.7537C6.15019 17.6843 5.94832 17.6612 6.2123 17.7885C6.41416 17.881 6.86448 17.881 7.50113 17.8232C7.63152 17.811 7.8731 17.7766 8.10693 17.7432C8.31864 17.713 8.52399 17.6838 8.63468 17.6728C8.72382 17.6661 8.76178 17.6976 8.79558 17.7256C8.82066 17.7464 8.84344 17.7653 8.88312 17.7653C9.72164 17.8 11.2123 17.7769 11.8645 17.7075C12.408 17.6496 12.6099 17.6728 12.7651 17.8116C13.0757 18.0777 12.7496 18.3091 11.8645 18.448C10.7775 18.6215 10.3272 18.7719 9.90798 19.1075C8.89865 19.9174 10.0788 20.8315 12.2838 20.9587C13.5726 21.0397 14.4111 21.2249 14.2092 21.3753C14.1316 21.4331 13.2776 21.5257 12.2993 21.5835C10.172 21.7108 9.22474 21.9307 8.41728 22.5092C7.96697 22.8332 7.81169 23.0298 7.81169 23.296C7.81169 23.4329 7.81169 23.5192 7.77002 23.5736C7.69906 23.6662 7.50724 23.6662 6.98871 23.6662H6.9887C6.55392 23.6662 5.94832 23.6199 5.66882 23.5505C5.23403 23.4695 5.17192 23.4695 5.3272 23.6084C5.63776 23.8861 6.52286 24.129 7.25268 24.129C7.81169 24.129 8.12225 24.21 8.61915 24.4761C9.61294 25.02 10.7465 25.2282 12.6254 25.2167C15.0943 25.2051 16.5074 24.7191 16.5074 23.8976C16.5074 23.2844 15.5757 22.9257 13.6347 22.7984C12.6564 22.729 10.731 22.8447 9.89245 23.0298C9.73717 23.0646 9.90798 22.9836 10.2806 22.8447C10.731 22.6827 11.4763 22.567 12.4856 22.4976C14.7217 22.3588 15.731 21.9885 15.731 21.2943C15.731 20.6232 14.7372 20.2414 12.6099 20.091C10.5136 19.9521 10.3583 19.6744 12.1285 19.2695C13.3863 18.9918 14.0229 18.5752 14.0229 18.0083C14.0229 17.1405 13.3863 16.8513 11.2589 16.7703C9.97009 16.724 9.65953 16.7471 9.10052 16.9438C8.72784 17.0711 8.43281 17.2562 8.43281 17.3488ZM10.2761 17.258C10.2036 17.3639 10.0101 17.4697 9.88923 17.4697C9.74413 17.4697 9.71995 17.3639 9.7925 17.258C9.86504 17.131 10.0585 17.0464 10.1794 17.0464C10.3245 17.0464 10.3487 17.131 10.2761 17.258ZM11.8125 24.3574C12.8396 24.424 14.5261 24.224 14.7867 23.9974C14.8787 23.9174 14.2455 23.7108 13.9542 23.6174C12.9113 23.3748 10.8466 23.4641 9.81943 23.8107C9.45148 23.9441 10.678 24.264 11.8125 24.3574Z" fill="white"/>
<path fill-rule="evenodd" clip-rule="evenodd" d="M28.6754 3.34879C28.6754 3.38761 28.7056 3.41196 28.729 3.43083C28.7684 3.46257 28.7885 3.4788 28.6133 3.52234C28.3493 3.59176 27.635 3.68433 27.1381 3.67276C27.0431 3.67276 26.876 3.6477 26.7277 3.62546L26.7277 3.62545L26.7277 3.62545C26.6094 3.60771 26.5031 3.59176 26.4549 3.59176C26.3898 3.59782 26.5374 3.65457 26.6573 3.70066C26.7666 3.74266 26.8528 3.77581 26.7344 3.75375C26.3927 3.68433 26.1909 3.66119 26.4549 3.78846C26.6567 3.88102 27.107 3.88102 27.7437 3.82317C27.8741 3.81103 28.1157 3.77658 28.3495 3.74323C28.5612 3.71304 28.7665 3.68375 28.8772 3.67276C28.9664 3.66612 29.0043 3.6976 29.0381 3.72563C29.0632 3.74643 29.086 3.76532 29.1257 3.76532C29.9642 3.80003 31.4549 3.77689 32.1071 3.70747C32.6505 3.64962 32.8524 3.67276 33.0077 3.8116C33.3183 4.07772 32.9922 4.30913 32.1071 4.44797C31.0201 4.62153 30.5698 4.77194 30.1505 5.10749C29.1412 5.91741 30.3213 6.83147 32.5263 6.95875C33.8152 7.03974 34.6537 7.22487 34.4518 7.37528C34.3742 7.43313 33.5201 7.5257 32.5419 7.58355C30.4145 7.71082 29.4673 7.93066 28.6598 8.50918C28.2095 8.83315 28.0542 9.02985 28.0542 9.29597C28.0542 9.43293 28.0542 9.51923 28.0126 9.57361C27.9416 9.66622 27.7498 9.66622 27.2313 9.66622H27.2313C26.7965 9.66622 26.1909 9.61994 25.9114 9.55051C25.4766 9.46952 25.4145 9.46952 25.5698 9.60837C25.8803 9.88606 26.7654 10.129 27.4952 10.129C28.0542 10.129 28.3648 10.21 28.8617 10.4761C29.8555 11.02 30.989 11.2282 32.8679 11.2167C35.3369 11.2051 36.75 10.7191 36.75 9.89763C36.75 9.2844 35.8183 8.92571 33.8773 8.79844C32.899 8.72902 30.9735 8.84472 30.135 9.02985C29.9797 9.06456 30.1505 8.98357 30.5232 8.84472C30.9735 8.68274 31.7189 8.56703 32.7282 8.49761C34.9642 8.35876 35.9736 7.98851 35.9736 7.29429C35.9736 6.62321 34.9798 6.24138 32.8524 6.09097C30.7561 5.95212 30.6008 5.67443 32.371 5.26947C33.6288 4.99178 34.2655 4.57525 34.2655 4.0083C34.2655 3.14052 33.6288 2.85126 31.5015 2.77027C30.2126 2.72399 29.9021 2.74713 29.3431 2.94382C28.9704 3.0711 28.6754 3.25622 28.6754 3.34879ZM30.5187 3.25803C30.4462 3.36387 30.2527 3.46971 30.1318 3.46971C29.9867 3.46971 29.9625 3.36387 30.0351 3.25803C30.1076 3.13103 30.3011 3.04636 30.422 3.04636C30.5671 3.04636 30.5913 3.13103 30.5187 3.25803ZM32.055 10.3574C33.0822 10.424 34.7686 10.224 35.0293 9.99739C35.1213 9.91739 34.4881 9.71078 34.1968 9.61745C33.1539 9.37481 31.0892 9.46407 30.062 9.81073C29.6941 9.94406 30.9206 10.264 32.055 10.3574Z" fill="white"/>
<path fill-rule="evenodd" clip-rule="evenodd" d="M28.6754 17.3488C28.6754 17.3876 28.7056 17.412 28.729 17.4308C28.7684 17.4626 28.7885 17.4788 28.6133 17.5223C28.3493 17.5918 27.635 17.6843 27.1381 17.6728C27.0431 17.6728 26.876 17.6477 26.7277 17.6255L26.7277 17.6255L26.7277 17.6255C26.6094 17.6077 26.5031 17.5918 26.4549 17.5918C26.3898 17.5978 26.5374 17.6546 26.6573 17.7007C26.7666 17.7427 26.8528 17.7758 26.7344 17.7537C26.3927 17.6843 26.1909 17.6612 26.4549 17.7885C26.6567 17.881 27.107 17.881 27.7437 17.8232C27.8741 17.811 28.1157 17.7766 28.3495 17.7432C28.5612 17.713 28.7665 17.6838 28.8772 17.6728C28.9664 17.6661 29.0043 17.6976 29.0381 17.7256C29.0632 17.7464 29.086 17.7653 29.1257 17.7653C29.9642 17.8 31.4549 17.7769 32.1071 17.7075C32.6505 17.6496 32.8524 17.6728 33.0077 17.8116C33.3183 18.0777 32.9922 18.3091 32.1071 18.448C31.0201 18.6215 30.5698 18.7719 30.1505 19.1075C29.1412 19.9174 30.3213 20.8315 32.5263 20.9587C33.8152 21.0397 34.6537 21.2249 34.4518 21.3753C34.3742 21.4331 33.5201 21.5257 32.5419 21.5835C30.4145 21.7108 29.4673 21.9307 28.6598 22.5092C28.2095 22.8332 28.0542 23.0298 28.0542 23.296C28.0542 23.4329 28.0542 23.5192 28.0126 23.5736C27.9416 23.6662 27.7498 23.6662 27.2313 23.6662H27.2313C26.7965 23.6662 26.1909 23.6199 25.9114 23.5505C25.4766 23.4695 25.4145 23.4695 25.5698 23.6084C25.8803 23.8861 26.7654 24.129 27.4952 24.129C28.0542 24.129 28.3648 24.21 28.8617 24.4761C29.8555 25.02 30.989 25.2282 32.8679 25.2167C35.3369 25.2051 36.75 24.7191 36.75 23.8976C36.75 23.2844 35.8183 22.9257 33.8773 22.7984C32.899 22.729 30.9735 22.8447 30.135 23.0298C29.9797 23.0646 30.1505 22.9836 30.5232 22.8447C30.9735 22.6827 31.7189 22.567 32.7282 22.4976C34.9642 22.3588 35.9736 21.9885 35.9736 21.2943C35.9736 20.6232 34.9798 20.2414 32.8524 20.091C30.7561 19.9521 30.6008 19.6744 32.371 19.2695C33.6288 18.9918 34.2655 18.5752 34.2655 18.0083C34.2655 17.1405 33.6288 16.8513 31.5015 16.7703C30.2126 16.724 29.9021 16.7471 29.3431 16.9438C28.9704 17.0711 28.6754 17.2562 28.6754 17.3488ZM30.5187 17.258C30.4462 17.3639 30.2527 17.4697 30.1318 17.4697C29.9867 17.4697 29.9625 17.3639 30.0351 17.258C30.1076 17.131 30.3011 17.0464 30.422 17.0464C30.5671 17.0464 30.5913 17.131 30.5187 17.258ZM32.055 24.3574C33.0822 24.424 34.7686 24.224 35.0293 23.9974C35.1213 23.9174 34.4881 23.7108 34.1968 23.6174C33.1539 23.3748 31.0892 23.4641 30.062 23.8107C29.6941 23.9441 30.9206 24.264 32.055 24.3574Z" fill="white"/>
</g>
<defs>
<filter id="filter0_dd_5_8024" x="0" y="0" width="42" height="30" filterUnits="userSpaceOnUse" color-interpolation-filters="sRGB">
<feFlood flood-opacity="0" result="BackgroundImageFix"/>
<feColorMatrix in="SourceAlpha" type="matrix" values="0 0 0 0 0 0 0 0 0 0 0 0 0 0 0 0 0 0 127 0" result="hardAlpha"/>
<feOffset dy="1"/>
<feGaussianBlur stdDeviation="1"/>
<feColorMatrix type="matrix" values="0 0 0 0 0.0627451 0 0 0 0 0.0941176 0 0 0 0 0.156863 0 0 0 0.06 0"/>
<feBlend mode="normal" in2="BackgroundImageFix" result="effect1_dropShadow_5_8024"/>
<feColorMatrix in="SourceAlpha" type="matrix" values="0 0 0 0 0 0 0 0 0 0 0 0 0 0 0 0 0 0 127 0" result="hardAlpha"/>
<feOffset dy="1"/>
<feGaussianBlur stdDeviation="1.5"/>
<feColorMatrix type="matrix" values="0 0 0 0 0.0627451 0 0 0 0 0.0941176 0 0 0 0 0.156863 0 0 0 0.1 0"/>
<feBlend mode="normal" in2="effect1_dropShadow_5_8024" result="effect2_dropShadow_5_8024"/>
<feBlend mode="normal" in="SourceGraphic" in2="effect2_dropShadow_5_8024" result="shape"/>
</filter>
</defs>
</svg>
