<svg width="42" height="30" viewBox="0 0 42 30" fill="none" xmlns="http://www.w3.org/2000/svg">
<g filter="url(#filter0_dd_5_11176)">
<mask id="mask0_5_11176" style="mask-type:alpha" maskUnits="userSpaceOnUse" x="3" y="2" width="36" height="24">
<rect x="3" y="2" width="36" height="24" fill="white"/>
</mask>
<g mask="url(#mask0_5_11176)">
<path fill-rule="evenodd" clip-rule="evenodd" d="M3 2V26H39V2H3Z" fill="#FFD221"/>
<mask id="mask1_5_11176" style="mask-type:alpha" maskUnits="userSpaceOnUse" x="3" y="2" width="36" height="24">
<path fill-rule="evenodd" clip-rule="evenodd" d="M3 2V26H39V2H3Z" fill="white"/>
</mask>
<g mask="url(#mask1_5_11176)">
<path d="M-0.450439 12.6152L1.80855 8.03613L40.9885 23.3081L38.7296 27.8872L-0.450439 12.6152Z" fill="#313131"/>
<path d="M-0.394409 7.5695L1.86363 2.99005L42.9921 19.0135L40.734 23.5929L-0.394409 7.5695Z" fill="#FAF9F9"/>
<path fill-rule="evenodd" clip-rule="evenodd" d="M11.2472 14.3973C9.65132 12.6565 9.91812 11.4791 9.91812 11.4791C9.91812 11.4791 11.5514 11.5322 11.5331 12.4683C11.5331 12.8639 12.119 13.2383 12.6236 13.5609C13.0056 13.805 13.341 14.0194 13.341 14.1908C13.341 14.5887 13.6781 18.6006 13.6781 18.6006C13.6781 18.6006 13.4427 18.9658 12.315 18.9658C11.1874 18.9658 11.2472 18.3885 11.2472 18.3885C11.9309 17.6433 11.2472 14.3973 11.2472 14.3973ZM30.7533 14.3973C32.3492 12.6565 32.0824 11.4791 32.0824 11.4791C32.0824 11.4791 30.4492 11.5322 30.4674 12.4683C30.4674 12.8639 29.8816 13.2383 29.3769 13.5609C28.995 13.805 28.6595 14.0194 28.6595 14.1908C28.6595 14.5887 28.3225 18.6006 28.3225 18.6006C28.3225 18.6006 28.5579 18.9658 29.6855 18.9658C30.8132 18.9658 30.7533 18.3885 30.7533 18.3885C30.0697 17.6433 30.7533 14.3973 30.7533 14.3973Z" fill="#CF1225"/>
<path fill-rule="evenodd" clip-rule="evenodd" d="M21.0673 4.87476L22.335 5.67911L21.5043 5.87639L22.335 6.5146L21.3007 6.28171V6.92648H22.335L22.6808 8.43788L22.2806 8.18554L21.8804 8.43788L21.4802 8.18554L21.0799 8.43788L20.6676 8.18554L20.2554 8.43788L19.8431 8.18554L19.4309 8.43788L19.9501 6.92648H20.9071V4.87476H21.0673ZM26.7208 9.9514C26.7208 9.9514 26.3344 10.255 25.5058 9.9514C25.2289 9.84997 24.9255 9.67264 24.6089 9.48764C23.9778 9.11883 23.2945 8.71953 22.6659 8.83027C21.7219 8.99655 21.3024 9.39703 21.3024 9.39703V8.47467H21.1879H21.0107H20.8962V9.39703C20.8962 9.39703 20.4767 8.99655 19.5327 8.83027C18.904 8.71953 18.2208 9.11883 17.5897 9.48764C17.2731 9.67264 16.9696 9.84997 16.6928 9.9514C15.8641 10.255 15.4778 9.9514 15.4778 9.9514C15.4778 9.9514 15.4778 10.2084 16.0938 10.6043C16.3611 10.776 16.6667 10.7636 16.9271 10.6946C16.7342 10.8239 16.6408 10.9758 16.9481 11.0976C17.585 11.3499 18.6319 10.6859 18.7466 10.611C18.6188 10.6955 17.3535 11.5414 17.9334 11.5414C18.5439 11.5414 19.5327 10.8304 19.5327 10.8304C19.5327 10.8304 18.3328 11.8537 18.9783 12.0131C19.3892 12.1146 19.8798 11.5824 20.1104 11.2671C20.1178 11.3341 20.1871 11.3751 20.2626 11.4198C20.3593 11.477 20.4662 11.5403 20.4662 11.672C20.4662 11.8409 20.5133 11.8699 20.5546 11.8953C20.5869 11.9151 20.6156 11.9328 20.6156 12.0131V12.2464L20.4662 12.4423C20.4662 12.4423 20.4662 12.7471 20.6156 12.9893C20.7288 13.1728 20.6705 13.3271 20.5706 13.5915C20.5387 13.6762 20.5024 13.7722 20.4662 13.884C20.3167 14.3451 20.6156 15.1326 20.6156 15.1326H20.4662C20.4662 15.1326 20.6156 15.2296 20.6156 15.6179C20.6156 15.9341 20.5165 16.1137 20.3294 16.4528C20.2867 16.5302 20.2394 16.6159 20.1877 16.7134C19.9093 17.2382 20.4662 17.9055 20.4662 17.9055C20.4662 17.9055 19.5327 17.5414 19.7198 17.9055C19.8635 18.1852 20.6524 18.4573 21.0107 18.5685V18.621C21.0107 18.621 21.0435 18.612 21.0993 18.5954C21.1551 18.612 21.1879 18.621 21.1879 18.621V18.5685C21.5461 18.4573 22.335 18.1852 22.4788 17.9055C22.6659 17.5414 21.7324 17.9055 21.7324 17.9055C21.7324 17.9055 22.2893 17.2382 22.0108 16.7134C21.9591 16.6159 21.9118 16.5302 21.8692 16.4528C21.682 16.1137 21.583 15.9341 21.583 15.6179C21.583 15.2296 21.7324 15.1326 21.7324 15.1326H21.583C21.583 15.1326 21.8818 14.3451 21.7324 13.884C21.6962 13.7722 21.6599 13.6762 21.6279 13.5915L21.6279 13.5915C21.528 13.3271 21.4698 13.1728 21.583 12.9893C21.7324 12.7471 21.7324 12.4423 21.7324 12.4423L21.583 12.2464V12.0131C21.583 11.9328 21.6117 11.9151 21.6439 11.8953C21.6853 11.8699 21.7324 11.8409 21.7324 11.672C21.7324 11.5403 21.8393 11.477 21.936 11.4198C22.0115 11.3751 22.0807 11.3341 22.0882 11.2671C22.3187 11.5824 22.8093 12.1146 23.2202 12.0131C23.8657 11.8537 22.6659 10.8304 22.6659 10.8304C22.6659 10.8304 23.6547 11.5414 24.2651 11.5414C24.8451 11.5414 23.5798 10.6955 23.4519 10.611C23.5667 10.6859 24.6135 11.3499 25.2504 11.0976C25.5578 10.9758 25.4643 10.8239 25.2715 10.6946C25.5319 10.7636 25.8375 10.776 26.1047 10.6043C26.7208 10.2084 26.7208 9.9514 26.7208 9.9514ZM24.669 10.4178C24.669 10.4178 24.9317 10.6045 25.2715 10.6946C25.0411 10.5401 24.669 10.4178 24.669 10.4178ZM22.0108 11.0976C21.9096 10.9777 21.9565 11.087 22.0882 11.2671C22.0929 11.224 22.0721 11.1701 22.0108 11.0976ZM20.1877 11.0976C20.2889 10.9777 20.2421 11.087 20.1104 11.2671C20.1056 11.224 20.1265 11.1701 20.1877 11.0976ZM18.7569 10.6043C18.7569 10.6043 18.7534 10.6066 18.7466 10.611C18.7534 10.6066 18.7569 10.6043 18.7569 10.6043ZM17.5296 10.4178C17.5296 10.4178 17.2668 10.6045 16.9271 10.6946C17.1574 10.5401 17.5296 10.4178 17.5296 10.4178Z" fill="#CF1225"/>
<path fill-rule="evenodd" clip-rule="evenodd" d="M15.6329 11.5781C15.6329 11.5781 14.2901 13.2017 14.4395 14.9365C14.589 16.6713 16.1813 20.7074 20.9052 20.7074C20.9458 20.7074 20.9862 20.7065 21.0264 20.7065C26.0319 20.7065 27.4527 16.2562 27.4527 14.6559C27.4527 13.0417 26.3202 11.5781 26.3202 11.5781C26.3202 11.5781 26.4525 13.7441 26.3202 14.6559C25.9211 17.4064 23.9717 18.6768 20.9928 18.6768C17.9955 18.6768 16.1407 17.3584 15.6329 14.6559C15.4687 13.7821 15.6329 11.5781 15.6329 11.5781Z" fill="#CF1225"/>
<path fill-rule="evenodd" clip-rule="evenodd" d="M13.1987 21.7512C13.1987 21.7512 13.4425 21.1307 13.7421 21.1307C14.0417 21.1307 13.1688 20.5923 13.7421 20.4399C14.3154 20.2876 15.1976 21.0469 15.1976 20.2876C15.1976 19.5283 14.4515 19.114 14.9997 19.114C15.5479 19.114 16.1198 18.9686 16.1198 18.9686C16.1198 18.9686 18.4521 21.1307 20.787 21.1307C23.122 21.1307 25.9299 19.114 25.9299 19.114C25.9299 19.114 26.9648 18.88 26.9648 19.2449C26.9648 19.6097 26.7378 20.1605 26.7378 20.1605C26.7378 20.1605 27.4629 20.0334 27.8318 20.1605C28.2008 20.2876 27.8318 20.8956 27.8318 20.8956V21.1307C27.8318 21.1307 28.7917 20.9429 28.7917 21.2791C28.7917 21.6153 28.3284 21.4233 27.3894 21.5193C26.4504 21.6153 26.094 22.2678 25.5041 22.2678C24.9142 22.2678 24.7871 21.7512 24.7871 21.7512C24.7871 21.7512 22.9591 22.632 20.787 22.632C18.6149 22.632 17.3028 21.7512 17.3028 21.7512C17.3028 21.7512 17.5077 22.6554 16.8137 22.4616C16.1198 22.2678 15.4098 21.0389 14.576 21.2791C13.7421 21.5193 13.1987 21.7512 13.1987 21.7512Z" fill="#CF1225"/>
<path fill-rule="evenodd" clip-rule="evenodd" d="M16.5695 18.1648C16.6105 18.1308 16.6518 18.093 16.7059 18.0408C16.8591 17.893 16.9006 17.8538 16.9319 17.8359C16.9382 17.8612 16.9425 17.9025 16.9425 17.9592C16.9425 18.3357 16.9576 18.62 16.9988 18.8177C17.0282 18.9585 17.069 19.0497 17.1411 19.0932C17.2464 19.1566 17.3526 19.1014 17.4511 18.9698C17.6764 18.6687 18.1005 18.6315 18.1005 18.7464C18.1005 18.7762 18.0873 18.8084 18.0049 18.9878C17.9907 19.0187 17.9795 19.0438 17.9691 19.0681C17.9112 19.2035 17.8854 19.3014 17.898 19.3865C17.9167 19.5136 18.0221 19.5852 18.1927 19.5852C18.3825 19.5852 18.5072 19.476 18.645 19.261C18.6585 19.24 18.6947 19.1813 18.71 19.1566L18.7101 19.1565L18.7168 19.1456C18.7421 19.1053 18.7606 19.0782 18.7776 19.0572C18.8278 18.9949 18.8388 18.9997 18.9501 19.2336C18.9795 19.2953 19.0397 19.4252 19.0918 19.5376C19.133 19.6265 19.1692 19.7045 19.1811 19.7294C19.2542 19.8822 19.3055 19.9723 19.3595 20.0353C19.4835 20.1801 19.6314 20.1789 19.8082 20.0445C19.8432 20.0179 19.8823 19.9917 19.9275 19.964C19.951 19.9496 20.0071 19.9176 20.0606 19.887L20.0607 19.8869L20.0607 19.8869C20.1115 19.8579 20.1601 19.8301 20.1765 19.8199C20.2791 19.7562 20.33 19.7061 20.329 19.6321C20.3277 19.5386 20.2399 19.4799 20.0648 19.422C20.0301 19.4105 20.0032 19.3997 19.9837 19.3918L19.9836 19.3917L19.9836 19.3917C19.9693 19.3859 19.959 19.3818 19.9525 19.3802C19.9568 19.3795 19.9632 19.3766 19.9732 19.3721L19.982 19.3682C20.0918 19.3197 20.3136 19.2842 20.5115 19.2842L20.5126 19.2842C20.5223 19.2842 20.5279 19.2842 20.5311 19.287C20.5355 19.2909 20.5353 19.3001 20.5347 19.322V19.322L20.5347 19.3246C20.5333 19.3776 20.5204 19.4289 20.4716 19.5918C20.4646 19.6151 20.4596 19.632 20.4547 19.6489C20.3993 19.8402 20.384 19.9559 20.4221 20.0557C20.4779 20.2019 20.6365 20.2527 20.8828 20.2093C21.2162 20.1507 21.3785 20.033 21.4209 19.8527C21.4315 19.8075 21.4336 19.7729 21.4337 19.7024C21.4339 19.5862 21.4346 19.5852 21.5463 19.5852C21.7051 19.5852 21.7681 19.6353 21.835 19.7743C21.8408 19.7865 21.8467 19.7992 21.8587 19.8251C21.9364 19.9916 22.0085 20.064 22.1711 20.064C22.2797 20.064 22.3552 20.0235 22.3418 19.9299C22.3384 19.9061 22.3294 19.8851 22.3131 19.8557L22.3 19.833L22.3 19.833L22.3 19.833C22.2913 19.8179 22.2809 19.8 22.2767 19.7924C22.1759 19.609 22.2159 19.4689 22.5628 19.2715C22.6619 19.2151 22.8151 19.1197 22.9478 19.037C23.0433 18.9775 23.1282 18.9246 23.1747 18.8977C23.1783 18.9228 23.1811 18.9572 23.1836 19.0073C23.1845 19.0269 23.187 19.0878 23.189 19.1375L23.1891 19.1385L23.1891 19.1391L23.1918 19.2035C23.2065 19.5383 23.2849 19.8448 23.3991 19.9692C23.5927 20.1799 23.7796 19.9852 23.9067 19.5215C24.0284 19.0779 24.2019 18.6596 24.3711 18.4057C24.454 18.2813 24.5317 18.2033 24.5909 18.1796C24.6301 18.1639 24.6577 18.1751 24.6984 18.2407C24.8512 18.4874 25.0863 18.7163 25.2852 18.7844C25.5803 18.8854 25.7554 18.6726 25.7554 18.1993C25.7554 17.8025 25.8279 17.4861 25.9478 17.242C25.989 17.158 26.0328 17.0893 26.0761 17.0347C26.101 17.0034 26.1192 16.9845 26.1278 16.977L26.0004 16.8554C25.9419 16.9063 25.8597 17.0099 25.7795 17.1732C25.6488 17.4392 25.5709 17.7791 25.5709 18.1993C25.5709 18.5735 25.4881 18.6742 25.35 18.6269C25.2 18.5755 24.9925 18.3735 24.8589 18.1579C24.775 18.0225 24.6506 17.9719 24.5167 18.0256C24.4143 18.0666 24.3144 18.1669 24.2135 18.3184C24.0334 18.5887 23.8536 19.022 23.7278 19.4807C23.6731 19.6801 23.6163 19.807 23.5405 19.8611C23.46 19.7735 23.3893 19.4969 23.376 19.1967L23.3735 19.1341C23.3714 19.0838 23.3688 19.0203 23.3678 18.9997C23.3647 18.9368 23.3611 18.8953 23.3553 18.8616C23.3366 18.7538 23.2752 18.6903 23.1649 18.716C23.1216 18.726 22.9135 18.8546 22.7264 18.9703L22.7264 18.9703L22.7263 18.9703C22.6221 19.0347 22.5243 19.0951 22.4652 19.1288C22.0361 19.373 21.969 19.608 22.1119 19.8679L22.1233 19.888C22.089 19.8739 22.0652 19.838 22.0284 19.7593C22.0167 19.7339 22.0102 19.72 22.0038 19.7067C21.9105 19.5127 21.7903 19.417 21.5463 19.417C21.3116 19.417 21.2496 19.5046 21.2493 19.7022C21.2492 19.7611 21.2476 19.7874 21.2405 19.8174C21.2155 19.9241 21.1146 19.9972 20.8479 20.0441C20.6813 20.0735 20.6162 20.0526 20.5962 20.0004C20.5748 19.9442 20.5873 19.8499 20.633 19.6918L20.6495 19.6362C20.7035 19.4558 20.7172 19.4016 20.719 19.3284C20.7222 19.2016 20.6524 19.116 20.5115 19.116C20.288 19.116 20.04 19.1557 19.9016 19.2168C19.6745 19.3171 19.7195 19.4868 20.0019 19.5802C20.0574 19.5985 20.0941 19.6142 20.1163 19.6237L20.1163 19.6237C20.1322 19.6305 20.1407 19.6341 20.1435 19.6334C20.1414 19.6338 20.1363 19.6375 20.1276 19.6438C20.116 19.6521 20.0982 19.6651 20.0727 19.6808C20.0593 19.6892 20.0167 19.7135 19.9696 19.7405C19.9138 19.7723 19.8518 19.8078 19.8247 19.8243C19.7746 19.855 19.7305 19.8846 19.6901 19.9153C19.587 19.9937 19.5581 19.994 19.5048 19.9317C19.4633 19.8833 19.4172 19.8023 19.3501 19.6621C19.3386 19.6381 19.3034 19.5622 19.263 19.4748L19.2628 19.4745L19.2627 19.4743L19.2627 19.4742L19.2624 19.4737C19.2101 19.3609 19.1492 19.2294 19.1193 19.1666C18.9608 18.8335 18.7895 18.7587 18.6291 18.9574C18.6069 18.9849 18.5852 19.0167 18.5568 19.0621L18.5483 19.0757L18.5483 19.0757C18.5322 19.1017 18.4981 19.1568 18.4858 19.1761C18.3789 19.3429 18.2942 19.417 18.1927 19.417C18.1089 19.417 18.0863 19.4016 18.0808 19.3642C18.0737 19.316 18.0939 19.2391 18.1409 19.1293C18.1506 19.1064 18.1613 19.0826 18.175 19.0528C18.2777 18.8293 18.2849 18.8116 18.2849 18.7464C18.2849 18.4053 17.6056 18.4649 17.2988 18.8749C17.2727 18.9098 17.2504 18.9326 17.234 18.9439C17.2183 18.9223 17.1969 18.8673 17.18 18.7862C17.1416 18.6023 17.1269 18.3253 17.1269 17.9592C17.1269 17.7273 17.0485 17.6046 16.88 17.6714C16.8037 17.7017 16.8009 17.7043 16.5719 17.9252C16.5207 17.9746 16.4824 18.0097 16.4455 18.0403C16.3978 18.0798 16.3565 18.1079 16.3209 18.1245C16.2686 18.1491 16.2485 18.1338 16.2202 18.0255C16.1909 17.9131 16.1813 17.7545 16.1814 17.4903L16.1817 17.3796L16.1821 17.2655C16.1821 17.078 16.1256 16.973 15.9879 16.973C15.9408 16.973 15.8934 16.9872 15.8335 17.0143C15.8125 17.0238 15.7906 17.0346 15.7611 17.0497L15.7499 17.0555L15.6871 17.0878C15.5601 17.1522 15.4758 17.1814 15.3965 17.1814C15.3817 17.1814 15.3731 17.1835 15.3692 17.1844L15.3692 17.1844C15.3676 17.1848 15.3668 17.185 15.3667 17.1848C15.3665 17.1846 15.3671 17.1839 15.3684 17.1826C15.3718 17.179 15.38 17.1703 15.3907 17.1515C15.4431 17.06 15.5839 16.9124 15.8105 16.7145L15.6829 16.593C15.4426 16.803 15.2916 16.9612 15.2272 17.0737C15.1382 17.2292 15.2072 17.3496 15.3965 17.3496C15.5162 17.3496 15.624 17.3123 15.7767 17.2348C15.9535 17.1451 15.9622 17.1412 15.9879 17.1412C15.988 17.1412 15.9977 17.1592 15.9977 17.2655L15.9973 17.3789L15.9969 17.4902C15.9968 17.7679 16.0069 17.9348 16.0408 18.0645C16.0929 18.2641 16.2205 18.3608 16.4053 18.2741C16.4574 18.2497 16.5108 18.2134 16.5695 18.1648ZM16.9514 17.8257C16.9528 17.8259 16.9537 17.8258 16.9541 17.8257L16.9514 17.8257ZM19.947 19.3722C19.9437 19.3702 19.9421 19.3691 19.942 19.3689C19.9439 19.3758 19.9456 19.38 19.9485 19.3818L19.947 19.3722ZM23.2109 18.879L23.2088 18.8793L23.2102 18.8792L23.2109 18.879Z" fill="#F6E017"/>
<path fill-rule="evenodd" clip-rule="evenodd" d="M18.5617 21.7502C18.4799 21.9464 18.3508 22.0114 18.205 21.9133C18.1607 21.8835 18.1176 21.8411 18.0576 21.7725L18.0442 21.7568L18.0442 21.7568L18.0441 21.7568L18.0441 21.7567C18.012 21.7193 17.9327 21.6265 17.9034 21.5942C17.7778 21.4553 17.6696 21.3683 17.5521 21.3237L17.5414 21.3197L17.5414 21.3197L17.5413 21.3197C17.3979 21.2653 17.3672 21.2537 17.3369 21.2409L17.3041 21.2268C17.1317 21.152 17.0333 21.0745 16.9386 20.9295C16.8645 20.8161 16.7928 20.6626 16.6713 20.3657L16.844 20.3068C16.9617 20.5944 17.0305 20.7416 17.097 20.8434C17.1721 20.9583 17.2425 21.0137 17.3833 21.0748L17.4127 21.0875C17.4415 21.0997 17.4708 21.1108 17.6128 21.1646L17.6128 21.1646L17.6228 21.1684C17.7744 21.2258 17.9026 21.3289 18.0457 21.4872C18.0777 21.5226 18.1631 21.6224 18.1921 21.6563L18.2018 21.6676C18.2522 21.7252 18.2869 21.7594 18.3145 21.7779C18.3294 21.788 18.3303 21.7887 18.3283 21.7898C18.3412 21.7828 18.3639 21.7513 18.3893 21.6904C18.4459 21.5548 18.3962 21.4497 18.2587 21.3403C18.2536 21.3363 18.2396 21.3262 18.2211 21.3131L18.2211 21.3131C18.1684 21.2756 18.0801 21.2126 18.0637 21.191C18.0113 21.1217 18.0562 21.0514 18.1372 21.0323C18.1736 21.0237 18.2275 21.0205 18.3135 21.0205C18.6113 21.0205 18.6932 21.176 18.7484 21.5736L18.7493 21.5802C18.7928 21.8936 18.8369 21.9796 18.9874 21.9796C19.1571 21.9796 19.2605 21.9196 19.441 21.7482L19.4806 21.7106C19.7106 21.493 19.8717 21.4198 20.1423 21.4864C20.3585 21.5396 20.4508 21.6341 20.4726 21.7806C20.475 21.7969 20.4762 21.8087 20.4785 21.8365C20.4891 21.96 20.5136 21.9796 20.7826 21.9796C20.9865 21.9796 21.1764 21.9893 21.424 22.0088L21.454 22.0112L21.454 22.0112L21.4542 22.0112L21.4545 22.0112C21.5128 22.0159 21.6355 22.0258 21.6725 22.0285C21.7531 22.0344 21.8103 22.0373 21.8555 22.0373C21.8877 22.0373 21.9125 22.0357 21.9295 22.0332C21.9365 21.985 21.9684 21.9511 22.0976 21.821C22.1126 21.8059 22.1241 21.7942 22.1348 21.7829C22.1952 21.7196 22.2219 21.6772 22.2202 21.6704C22.2199 21.6691 22.1658 21.6517 22.0199 21.6517C21.8859 21.6517 21.8188 21.6369 21.8067 21.5529C21.7966 21.4826 21.8423 21.4486 21.9436 21.4007C22.0596 21.3458 22.2711 21.2745 22.5248 21.2027C22.7691 21.1336 23.0269 21.0714 23.223 21.0348C23.3291 21.0151 23.4154 21.0031 23.4783 20.9999C23.5982 20.9938 23.6695 21.0087 23.6695 21.1046C23.6695 21.1446 23.7961 21.2821 23.9223 21.3445C24.073 21.419 24.1801 21.3907 24.2539 21.2158C24.3618 20.9605 24.5865 20.6847 24.8056 20.5268C24.9231 20.442 25.0313 20.3964 25.1248 20.4039C25.2512 20.4141 25.3171 20.5104 25.3171 20.656H25.1327C25.1327 20.5878 25.1224 20.5726 25.1087 20.5715C25.0739 20.5687 25.0038 20.5983 24.9199 20.6588C24.7266 20.7981 24.5219 21.0493 24.426 21.2763C24.3098 21.5515 24.078 21.6128 23.8344 21.4924C23.6851 21.4186 23.5424 21.2784 23.4987 21.1674C23.4363 21.1705 23.3579 21.1814 23.26 21.1997C23.0703 21.235 22.8183 21.2958 22.5795 21.3634C22.4214 21.4081 22.2804 21.4526 22.1726 21.4918C22.3042 21.5086 22.3804 21.5521 22.4003 21.6339C22.4201 21.7157 22.3753 21.787 22.274 21.8933C22.2623 21.9056 22.25 21.9181 22.2343 21.9339C22.1451 22.0238 22.1121 22.0622 22.1121 22.0637C22.1121 22.1749 22.0171 22.2055 21.8555 22.2055C21.8043 22.2055 21.7429 22.2025 21.6577 22.1962C21.6196 22.1934 21.4938 22.1833 21.4365 22.1786L21.4082 22.1764C21.1654 22.1573 20.9803 22.1479 20.7826 22.1479C20.4194 22.1479 20.3129 22.0627 20.2947 21.8496C20.2926 21.825 20.2916 21.8152 20.2898 21.8031C20.2781 21.7242 20.2393 21.6845 20.0943 21.6488C19.9051 21.6023 19.8016 21.6493 19.6134 21.8274L19.574 21.8648C19.3616 22.0665 19.2215 22.1479 18.9874 22.1479C18.7226 22.1479 18.6358 22.0219 18.5808 21.6963C18.5757 21.714 18.5693 21.732 18.5617 21.7502ZM18.5771 21.6013L18.576 21.5948C18.5585 21.4915 18.5405 21.4124 18.5175 21.3527C18.6087 21.4551 18.6405 21.5681 18.5948 21.6963C18.5886 21.6664 18.5827 21.6347 18.5771 21.6013ZM21.9509 21.4791L21.9553 21.4803L21.9531 21.4796L21.9509 21.4791ZM21.9473 22.0295L21.9426 22.0308L21.9457 22.0302L21.9473 22.0295Z" fill="#F6E017"/>
</g>
</g>
</g>
<defs>
<filter id="filter0_dd_5_11176" x="0" y="0" width="42" height="30" filterUnits="userSpaceOnUse" color-interpolation-filters="sRGB">
<feFlood flood-opacity="0" result="BackgroundImageFix"/>
<feColorMatrix in="SourceAlpha" type="matrix" values="0 0 0 0 0 0 0 0 0 0 0 0 0 0 0 0 0 0 127 0" result="hardAlpha"/>
<feOffset dy="1"/>
<feGaussianBlur stdDeviation="1"/>
<feColorMatrix type="matrix" values="0 0 0 0 0.0627451 0 0 0 0 0.0941176 0 0 0 0 0.156863 0 0 0 0.06 0"/>
<feBlend mode="normal" in2="BackgroundImageFix" result="effect1_dropShadow_5_11176"/>
<feColorMatrix in="SourceAlpha" type="matrix" values="0 0 0 0 0 0 0 0 0 0 0 0 0 0 0 0 0 0 127 0" result="hardAlpha"/>
<feOffset dy="1"/>
<feGaussianBlur stdDeviation="1.5"/>
<feColorMatrix type="matrix" values="0 0 0 0 0.0627451 0 0 0 0 0.0941176 0 0 0 0 0.156863 0 0 0 0.1 0"/>
<feBlend mode="normal" in2="effect1_dropShadow_5_11176" result="effect2_dropShadow_5_11176"/>
<feBlend mode="normal" in="SourceGraphic" in2="effect2_dropShadow_5_11176" result="shape"/>
</filter>
</defs>
</svg>
