<svg width="42" height="30" viewBox="0 0 42 30" fill="none" xmlns="http://www.w3.org/2000/svg">
<g filter="url(#filter0_dd_5_9214)">
<mask id="mask0_5_9214" style="mask-type:alpha" maskUnits="userSpaceOnUse" x="3" y="2" width="36" height="24">
<rect x="3" y="2" width="36" height="24" fill="white"/>
</mask>
<g mask="url(#mask0_5_9214)">
<path fill-rule="evenodd" clip-rule="evenodd" d="M3 2V26H39V2H3Z" fill="#E31D1C"/>
<mask id="mask1_5_9214" style="mask-type:alpha" maskUnits="userSpaceOnUse" x="3" y="2" width="36" height="24">
<path fill-rule="evenodd" clip-rule="evenodd" d="M3 2V26H39V2H3Z" fill="white"/>
</mask>
<g mask="url(#mask1_5_9214)">
<path fill-rule="evenodd" clip-rule="evenodd" d="M9.85322 6.11834C9.84536 6.02872 9.95085 5.98345 10.0152 6.04637C10.4987 6.5194 11.8684 7.78781 12.6546 7.78781C13.621 7.78781 17.4163 4.94517 18.5381 5.40824C19.6599 5.87131 21.9312 10.7129 21.9312 10.7129L20.4511 12.3632L18.5381 11.4356L18.1765 7.78781C18.1765 7.78781 14.4944 9.47129 12.6546 8.86022L11.6204 9.63269C11.6204 9.63269 10.6245 7.87969 10.2323 7.34351C9.96651 6.98017 9.88084 6.43321 9.85322 6.11834Z" fill="#F7FCFF"/>
<path fill-rule="evenodd" clip-rule="evenodd" d="M12.2946 10.1244L11.6648 10.4636L11.7851 9.74523L11.2756 9.23648L11.9797 9.13168L12.2946 8.47809L12.6095 9.13168L13.3136 9.23648L12.8041 9.74523L12.9243 10.4636L12.2946 10.1244Z" fill="#FECA00"/>
<path fill-rule="evenodd" clip-rule="evenodd" d="M17.6392 5.83737C17.6392 5.61201 17.8219 5.42932 18.0472 5.42932C18.2726 5.42932 18.4553 5.61201 18.4553 5.83737V7.46029C18.4553 7.68565 18.2726 7.86835 18.0472 7.86835C17.8219 7.86835 17.6392 7.68565 17.6392 7.46029L17.6392 5.83737Z" fill="#FECA00"/>
<path fill-rule="evenodd" clip-rule="evenodd" d="M31.3856 7.1093C31.4717 7.14901 31.4449 7.26326 31.3473 7.27916C30.6158 7.39829 28.7289 7.75681 28.3183 8.34097C27.8062 9.06945 28.507 13.4368 27.4708 14.037C26.4345 14.6373 20.6117 13.7837 20.6117 13.7837L19.8216 11.7935L21.7204 10.843L25.3921 12.5035C25.3921 12.5035 25.7372 8.83569 27.2952 7.77268L27.1062 6.58374C27.1062 6.58374 29.3064 6.76192 30.0258 6.75041C30.5082 6.74268 31.0687 6.96318 31.3856 7.1093Z" fill="#F7FCFF"/>
<path fill-rule="evenodd" clip-rule="evenodd" d="M26.2797 6.83142L26.2899 6.17695L26.9115 6.64829L27.6669 6.53382L27.3937 7.12013L27.8504 7.70384L27.06 7.59486L26.5869 8.07009L26.3715 7.41643L25.6224 7.12642L26.2797 6.83142Z" fill="#FECA00"/>
<path fill-rule="evenodd" clip-rule="evenodd" d="M27.6721 13.215C27.8639 13.3208 27.9221 13.5497 27.8036 13.7328C27.6763 13.9295 27.3972 13.9948 27.1955 13.8751L25.4183 12.82C25.271 12.7325 25.2131 12.5621 25.278 12.4071C25.3677 12.1929 25.648 12.0992 25.856 12.2138L27.6721 13.215Z" fill="#FECA00"/>
<path fill-rule="evenodd" clip-rule="evenodd" d="M19.7094 22.99C19.6279 23.0363 19.5296 22.957 19.563 22.8736C19.8132 22.2491 20.4053 20.6209 20.042 20.0135C19.5883 19.2551 14.9828 17.6109 14.9162 16.5131C14.8495 15.4152 18.5925 11.3597 18.5925 11.3597L20.9266 11.7465L20.9032 13.6834L17.4496 15.6797C17.4496 15.6797 20.8505 17.7793 21.1072 19.5101L22.36 19.9591C22.36 19.9591 21.0863 21.5637 20.7378 22.1233C20.5045 22.498 20.0103 22.8189 19.7094 22.99Z" fill="#F7FCFF"/>
<path fill-rule="evenodd" clip-rule="evenodd" d="M22.532 19.199L23.1645 19.534L22.3945 19.7769L22.1284 20.4156L21.6937 19.9122L20.8967 19.9719L21.398 19.4179L21.1716 18.8161L21.9161 18.9771L22.5732 18.5455L22.532 19.199Z" fill="#FECA00"/>
<path fill-rule="evenodd" clip-rule="evenodd" d="M15.472 16.9637C15.2331 17.0448 14.9595 16.9122 14.8855 16.6796C14.8226 16.4819 14.9278 16.28 15.1302 16.2098L17.06 15.5404C17.2561 15.4724 17.4846 15.5461 17.6032 15.7155C17.7573 15.9358 17.6632 16.2203 17.4075 16.3071L15.472 16.9637Z" fill="#FECA00"/>
<path d="M18.3704 11.765C18.2304 11.7215 18.1556 11.5829 18.2034 11.4554C18.2511 11.3279 18.4755 11.1149 18.6155 11.1584L20.5682 11.765C20.669 11.7962 20.7398 11.8789 20.7487 11.9755L20.9233 13.8793C20.9356 14.0136 20.7156 14.1222 20.5682 14.1334C20.4208 14.1446 20.2913 14.0449 20.279 13.9106L20.1173 12.2734L18.3704 11.765Z" fill="#FECA00"/>
<path d="M21.7656 10.7675C21.8823 10.6848 22.0908 10.7807 22.1816 10.887C22.2725 10.9933 22.2516 11.1465 22.1349 11.2293L20.7822 12.4617C20.6654 12.5445 20.4029 12.383 20.312 12.2767C20.2212 12.1705 20.1953 11.8809 20.312 11.7982L21.7656 10.7675Z" fill="#FECA00"/>
</g>
</g>
</g>
<defs>
<filter id="filter0_dd_5_9214" x="0" y="0" width="42" height="30" filterUnits="userSpaceOnUse" color-interpolation-filters="sRGB">
<feFlood flood-opacity="0" result="BackgroundImageFix"/>
<feColorMatrix in="SourceAlpha" type="matrix" values="0 0 0 0 0 0 0 0 0 0 0 0 0 0 0 0 0 0 127 0" result="hardAlpha"/>
<feOffset dy="1"/>
<feGaussianBlur stdDeviation="1"/>
<feColorMatrix type="matrix" values="0 0 0 0 0.0627451 0 0 0 0 0.0941176 0 0 0 0 0.156863 0 0 0 0.06 0"/>
<feBlend mode="normal" in2="BackgroundImageFix" result="effect1_dropShadow_5_9214"/>
<feColorMatrix in="SourceAlpha" type="matrix" values="0 0 0 0 0 0 0 0 0 0 0 0 0 0 0 0 0 0 127 0" result="hardAlpha"/>
<feOffset dy="1"/>
<feGaussianBlur stdDeviation="1.5"/>
<feColorMatrix type="matrix" values="0 0 0 0 0.0627451 0 0 0 0 0.0941176 0 0 0 0 0.156863 0 0 0 0.1 0"/>
<feBlend mode="normal" in2="effect1_dropShadow_5_9214" result="effect2_dropShadow_5_9214"/>
<feBlend mode="normal" in="SourceGraphic" in2="effect2_dropShadow_5_9214" result="shape"/>
</filter>
</defs>
</svg>
