<svg width="42" height="30" viewBox="0 0 42 30" fill="none" xmlns="http://www.w3.org/2000/svg">
<g filter="url(#filter0_dd_5_5764)">
<mask id="mask0_5_5764" style="mask-type:alpha" maskUnits="userSpaceOnUse" x="3" y="2" width="36" height="24">
<rect x="3" y="2" width="36" height="24" fill="white"/>
</mask>
<g mask="url(#mask0_5_5764)">
<path fill-rule="evenodd" clip-rule="evenodd" d="M12 2H30V26H12V2Z" fill="#FFDC17"/>
<path fill-rule="evenodd" clip-rule="evenodd" d="M30 2H39V26H30V2Z" fill="#5FBF2B"/>
<path fill-rule="evenodd" clip-rule="evenodd" d="M3 2H12V26H3V2Z" fill="#2E42A5"/>
<path fill-rule="evenodd" clip-rule="evenodd" d="M25.1922 7.59998L21.7721 12.0629L25.1922 16.3679L28.6123 12.0629L25.1922 7.59998ZM16.8119 7.67882L13.125 12.0629L16.5451 16.2892L19.9653 12.0629L16.8119 7.67882ZM17.4485 16.9888L21.1354 12.6047L24.2888 16.9888L21.1354 21.5011L17.4485 16.9888Z" fill="#5FBF2B"/>
</g>
</g>
<defs>
<filter id="filter0_dd_5_5764" x="0" y="0" width="42" height="30" filterUnits="userSpaceOnUse" color-interpolation-filters="sRGB">
<feFlood flood-opacity="0" result="BackgroundImageFix"/>
<feColorMatrix in="SourceAlpha" type="matrix" values="0 0 0 0 0 0 0 0 0 0 0 0 0 0 0 0 0 0 127 0" result="hardAlpha"/>
<feOffset dy="1"/>
<feGaussianBlur stdDeviation="1"/>
<feColorMatrix type="matrix" values="0 0 0 0 0.0627451 0 0 0 0 0.0941176 0 0 0 0 0.156863 0 0 0 0.06 0"/>
<feBlend mode="normal" in2="BackgroundImageFix" result="effect1_dropShadow_5_5764"/>
<feColorMatrix in="SourceAlpha" type="matrix" values="0 0 0 0 0 0 0 0 0 0 0 0 0 0 0 0 0 0 127 0" result="hardAlpha"/>
<feOffset dy="1"/>
<feGaussianBlur stdDeviation="1.5"/>
<feColorMatrix type="matrix" values="0 0 0 0 0.0627451 0 0 0 0 0.0941176 0 0 0 0 0.156863 0 0 0 0.1 0"/>
<feBlend mode="normal" in2="effect1_dropShadow_5_5764" result="effect2_dropShadow_5_5764"/>
<feBlend mode="normal" in="SourceGraphic" in2="effect2_dropShadow_5_5764" result="shape"/>
</filter>
</defs>
</svg>
