<svg width="42" height="30" viewBox="0 0 42 30" fill="none" xmlns="http://www.w3.org/2000/svg">
<g filter="url(#filter0_dd_5_6477)">
<mask id="mask0_5_6477" style="mask-type:alpha" maskUnits="userSpaceOnUse" x="3" y="2" width="36" height="24">
<rect x="3" y="2" width="36" height="24" fill="white"/>
</mask>
<g mask="url(#mask0_5_6477)">
<path fill-rule="evenodd" clip-rule="evenodd" d="M3 2V26H39V2H3Z" fill="#2E42A5"/>
<mask id="mask1_5_6477" style="mask-type:alpha" maskUnits="userSpaceOnUse" x="3" y="2" width="36" height="24">
<path fill-rule="evenodd" clip-rule="evenodd" d="M3 2V26H39V2H3Z" fill="white"/>
</mask>
<g mask="url(#mask1_5_6477)">
<path fill-rule="evenodd" clip-rule="evenodd" d="M26.6775 12.0327C26.6775 12.0327 27.6743 23.964 32.1697 23.964C36.6651 23.964 37.7708 12.0327 37.7708 12.0327H26.6775Z" fill="#FECA00" stroke="#F7FCFF" stroke-width="0.5"/>
<path fill-rule="evenodd" clip-rule="evenodd" d="M32.1501 12.6218L32.3148 12.4566L33.0955 12.8986C33.2085 12.7424 33.4099 12.6697 33.6918 12.6816L33.4071 12.2962L33.639 12.1864L34.1794 12.7647C34.1971 12.7695 34.2149 12.7744 34.2329 12.7796L34.0959 12.0281L34.3676 12L34.5451 12.9739C34.5495 12.9737 34.5538 12.9736 34.558 12.9736C34.6345 12.9736 34.7207 13.0064 34.8094 13.0585L35.0023 12L35.274 12.0281L35.1371 12.7796C35.155 12.7745 35.1728 12.7695 35.1905 12.7647L35.7309 12.1864L35.9628 12.2962L35.6781 12.6816C35.96 12.6697 36.1614 12.7424 36.2744 12.8986L37.0551 12.4566L37.2198 12.6218L36.3633 13.1069C36.375 13.1617 36.3809 13.2218 36.3809 13.2871V13.3996L37.563 13.1693L37.6502 13.3647L36.3809 13.7645V13.901L37.5843 13.8143L37.6205 14.0191L36.3809 14.1794V14.4152L37.6235 14.5977L37.5735 14.801L36.3809 14.6425V16.9406H36.198V14.6182L35.398 14.5119C35.3083 15.0742 35.2073 15.7822 35.2214 16.0382C35.2354 16.2911 35.4478 16.3994 35.597 16.4755C35.7129 16.5347 35.7906 16.5743 35.7068 16.6473C35.5154 16.8139 35.0368 16.9736 34.558 16.9736C34.0793 16.9736 33.6071 16.8139 33.5048 16.6473C33.4865 16.6175 33.4889 16.6199 33.5053 16.6366C33.5808 16.7136 33.9543 17.0944 33.9835 16.0382C33.9995 15.4586 33.9038 14.9354 33.7938 14.5356L33.1719 14.6182V16.9406H32.9891V14.6425L31.7964 14.801L31.7464 14.5977L32.9891 14.4152V14.1795L31.7494 14.0191L31.7856 13.8143L32.9891 13.901V13.7645L31.7197 13.3647L31.8069 13.1693L32.9891 13.3996V13.2871C32.9891 13.2218 32.995 13.1617 33.0067 13.1069L32.1501 12.6218ZM33.7147 14.2733C33.7183 14.2844 33.722 14.2957 33.7257 14.3071L33.1719 14.3884V14.2031L33.7147 14.2733ZM33.7262 13.5143C33.7178 13.5225 33.7097 13.5305 33.7017 13.5384L33.1719 13.4352V13.2871C33.1719 13.2575 33.1732 13.2294 33.1758 13.2027L33.7262 13.5143ZM34.0783 13.2048C34.0168 13.2519 33.9562 13.3026 33.8987 13.3535L33.2445 12.983C33.3363 12.8412 33.5173 12.7896 33.799 12.8267L34.0783 13.2048ZM35.2813 13.461L36.1254 12.983C36.0336 12.8412 35.8526 12.7896 35.571 12.8267L35.1793 13.3568C35.2151 13.3919 35.2493 13.427 35.2813 13.461ZM35.5661 13.5583L36.1942 13.2026C36.1967 13.2294 36.198 13.2575 36.198 13.2871V13.4352L35.5661 13.5583ZM35.8191 13.9414L36.198 13.8221V13.9141L35.8191 13.9414ZM35.5272 14.2899L36.198 14.2031V14.3884L35.5272 14.2899ZM33.1719 13.8221V13.9141L33.5508 13.9414L33.1719 13.8221Z" fill="#CF6900"/>
<path fill-rule="evenodd" clip-rule="evenodd" d="M30.9877 17.8428C30.9877 17.8428 29.5098 20.0429 29.5098 21.3764C29.5098 21.3764 30.5168 22.0864 32.249 22.0864C33.9811 22.0864 34.8724 21.3764 34.8724 21.3764C34.3847 19.7956 33.5546 17.8428 33.5546 17.8428H30.9877Z" fill="#00A727"/>
<path fill-rule="evenodd" clip-rule="evenodd" d="M31.0596 17.3723C31.0596 16.6907 31.6121 16.1382 32.2937 16.1382C32.9753 16.1382 33.5279 16.6907 33.5279 17.3723V17.9857H31.0596V17.3723Z" fill="#E31D1C"/>
<path fill-rule="evenodd" clip-rule="evenodd" d="M27.209 14.8335C27.209 14.8335 29.1596 15.1907 29.1596 15.7539C29.1596 16.3172 29.945 16.5203 30.138 16.368C30.3309 16.2157 31.6902 16.1092 31.6902 15.375C31.6902 14.6409 31.8036 14.441 31.4735 13.9748C31.1433 13.5086 30.4549 11.9326 30.2964 12.5641C30.138 13.1955 29.8995 13.6632 29.459 13.2868C29.0185 12.9105 28.4526 12.1136 28.2541 12.5641C28.0555 13.0145 28.8835 13.4666 28.2541 13.4666C27.6246 13.4666 28.0683 13.4961 28.0683 13.8775C28.0683 14.2588 28.1429 14.6183 27.6759 14.6183C27.209 14.6183 27.209 14.8335 27.209 14.8335Z" fill="#FF927F"/>
<rect x="3" y="2" width="20.25" height="14" fill="#2B409A"/>
<mask id="mask2_5_6477" style="mask-type:alpha" maskUnits="userSpaceOnUse" x="3" y="2" width="21" height="14">
<rect x="3" y="2" width="20.25" height="14" fill="white"/>
</mask>
<g mask="url(#mask2_5_6477)">
<path d="M0.745117 14.9997L5.20119 16.7369L23.351 3.88866L25.7015 1.30713L20.9364 0.726505L13.5335 6.2632L7.57493 9.99363L0.745117 14.9997Z" fill="#F7FCFF"/>
<path d="M1.35498 16.217L3.62514 17.2251L24.8573 1.06738H21.6697L1.35498 16.217Z" fill="#F50100"/>
<path d="M25.5049 14.9997L21.0488 16.7369L2.89897 3.88866L0.548492 1.30713L5.31362 0.726505L12.7165 6.2632L18.6751 9.99363L25.5049 14.9997Z" fill="#F7FCFF"/>
<path d="M25.353 15.8733L23.0829 16.8815L14.042 9.96351L11.3616 9.19059L0.322517 1.31605H3.51009L14.5429 9.00368L17.4735 9.9305L25.353 15.8733Z" fill="#F50100"/>
<mask id="path-16-outside-1_5_6477" maskUnits="userSpaceOnUse" x="1" y="0" width="24" height="18" fill="black">
<rect fill="white" x="1" width="24" height="18"/>
<path fill-rule="evenodd" clip-rule="evenodd" d="M14.2326 2H11.9826V8H3V10H11.9826V16H14.2326V10H23.25V8H14.2326V2Z"/>
</mask>
<path fill-rule="evenodd" clip-rule="evenodd" d="M14.2326 2H11.9826V8H3V10H11.9826V16H14.2326V10H23.25V8H14.2326V2Z" fill="#F50100"/>
<path d="M11.9826 2V0.5H10.4826V2H11.9826ZM14.2326 2H15.7326V0.5H14.2326V2ZM11.9826 8V9.5H13.4826V8H11.9826ZM3 8V6.5H1.5V8H3ZM3 10H1.5V11.5H3V10ZM11.9826 10H13.4826V8.5H11.9826V10ZM11.9826 16H10.4826V17.5H11.9826V16ZM14.2326 16V17.5H15.7326V16H14.2326ZM14.2326 10V8.5H12.7326V10H14.2326ZM23.25 10V11.5H24.75V10H23.25ZM23.25 8H24.75V6.5H23.25V8ZM14.2326 8H12.7326V9.5H14.2326V8ZM11.9826 3.5H14.2326V0.5H11.9826V3.5ZM13.4826 8V2H10.4826V8H13.4826ZM3 9.5H11.9826V6.5H3V9.5ZM4.5 10V8H1.5V10H4.5ZM11.9826 8.5H3V11.5H11.9826V8.5ZM13.4826 16V10H10.4826V16H13.4826ZM14.2326 14.5H11.9826V17.5H14.2326V14.5ZM12.7326 10V16H15.7326V10H12.7326ZM23.25 8.5H14.2326V11.5H23.25V8.5ZM21.75 8V10H24.75V8H21.75ZM14.2326 9.5H23.25V6.5H14.2326V9.5ZM12.7326 2V8H15.7326V2H12.7326Z" fill="#F7FCFF" mask="url(#path-16-outside-1_5_6477)"/>
</g>
</g>
</g>
</g>
<defs>
<filter id="filter0_dd_5_6477" x="0" y="0" width="42" height="30" filterUnits="userSpaceOnUse" color-interpolation-filters="sRGB">
<feFlood flood-opacity="0" result="BackgroundImageFix"/>
<feColorMatrix in="SourceAlpha" type="matrix" values="0 0 0 0 0 0 0 0 0 0 0 0 0 0 0 0 0 0 127 0" result="hardAlpha"/>
<feOffset dy="1"/>
<feGaussianBlur stdDeviation="1"/>
<feColorMatrix type="matrix" values="0 0 0 0 0.0627451 0 0 0 0 0.0941176 0 0 0 0 0.156863 0 0 0 0.06 0"/>
<feBlend mode="normal" in2="BackgroundImageFix" result="effect1_dropShadow_5_6477"/>
<feColorMatrix in="SourceAlpha" type="matrix" values="0 0 0 0 0 0 0 0 0 0 0 0 0 0 0 0 0 0 127 0" result="hardAlpha"/>
<feOffset dy="1"/>
<feGaussianBlur stdDeviation="1.5"/>
<feColorMatrix type="matrix" values="0 0 0 0 0.0627451 0 0 0 0 0.0941176 0 0 0 0 0.156863 0 0 0 0.1 0"/>
<feBlend mode="normal" in2="effect1_dropShadow_5_6477" result="effect2_dropShadow_5_6477"/>
<feBlend mode="normal" in="SourceGraphic" in2="effect2_dropShadow_5_6477" result="shape"/>
</filter>
</defs>
</svg>
