<svg width="42" height="30" viewBox="0 0 42 30" fill="none" xmlns="http://www.w3.org/2000/svg">
<g filter="url(#filter0_dd_5_8950)">
<mask id="mask0_5_8950" style="mask-type:alpha" maskUnits="userSpaceOnUse" x="3" y="2" width="36" height="24">
<rect x="3" y="2" width="36" height="24" fill="white"/>
</mask>
<g mask="url(#mask0_5_8950)">
<path fill-rule="evenodd" clip-rule="evenodd" d="M3 2V26H39V2H3Z" fill="#F7FCFF"/>
<mask id="mask1_5_8950" style="mask-type:alpha" maskUnits="userSpaceOnUse" x="3" y="2" width="36" height="24">
<path fill-rule="evenodd" clip-rule="evenodd" d="M3 2V26H39V2H3Z" fill="white"/>
</mask>
<g mask="url(#mask1_5_8950)">
<path fill-rule="evenodd" clip-rule="evenodd" d="M3 2V10H39V2H3Z" fill="#272727"/>
<path fill-rule="evenodd" clip-rule="evenodd" d="M3 18V26H39V18H3Z" fill="#009933"/>
</g>
<path fill-rule="evenodd" clip-rule="evenodd" d="M3 2V26L25.5 14L3 2Z" fill="#E31D1C"/>
<mask id="mask2_5_8950" style="mask-type:alpha" maskUnits="userSpaceOnUse" x="3" y="2" width="23" height="24">
<path fill-rule="evenodd" clip-rule="evenodd" d="M3 2V26L25.5 14L3 2Z" fill="white"/>
</mask>
<g mask="url(#mask2_5_8950)">
<path fill-rule="evenodd" clip-rule="evenodd" d="M13.127 15.8707L11.0225 17L11.5025 14.7962L9.75 13.1469L12.123 13.0578L13.127 11L14.131 13.0578H16.5L14.7515 14.7962L15.2779 17L13.127 15.8707Z" fill="#F7FCFF"/>
</g>
</g>
</g>
<defs>
<filter id="filter0_dd_5_8950" x="0" y="0" width="42" height="30" filterUnits="userSpaceOnUse" color-interpolation-filters="sRGB">
<feFlood flood-opacity="0" result="BackgroundImageFix"/>
<feColorMatrix in="SourceAlpha" type="matrix" values="0 0 0 0 0 0 0 0 0 0 0 0 0 0 0 0 0 0 127 0" result="hardAlpha"/>
<feOffset dy="1"/>
<feGaussianBlur stdDeviation="1"/>
<feColorMatrix type="matrix" values="0 0 0 0 0.0627451 0 0 0 0 0.0941176 0 0 0 0 0.156863 0 0 0 0.06 0"/>
<feBlend mode="normal" in2="BackgroundImageFix" result="effect1_dropShadow_5_8950"/>
<feColorMatrix in="SourceAlpha" type="matrix" values="0 0 0 0 0 0 0 0 0 0 0 0 0 0 0 0 0 0 127 0" result="hardAlpha"/>
<feOffset dy="1"/>
<feGaussianBlur stdDeviation="1.5"/>
<feColorMatrix type="matrix" values="0 0 0 0 0.0627451 0 0 0 0 0.0941176 0 0 0 0 0.156863 0 0 0 0.1 0"/>
<feBlend mode="normal" in2="effect1_dropShadow_5_8950" result="effect2_dropShadow_5_8950"/>
<feBlend mode="normal" in="SourceGraphic" in2="effect2_dropShadow_5_8950" result="shape"/>
</filter>
</defs>
</svg>
