<svg width="42" height="30" viewBox="0 0 42 30" fill="none" xmlns="http://www.w3.org/2000/svg">
<g filter="url(#filter0_dd_5_9924)">
<mask id="mask0_5_9924" style="mask-type:alpha" maskUnits="userSpaceOnUse" x="3" y="2" width="36" height="24">
<rect x="3" y="2" width="36" height="24" fill="white"/>
</mask>
<g mask="url(#mask0_5_9924)">
<path fill-rule="evenodd" clip-rule="evenodd" d="M3 2V26H39V2H3Z" fill="#63B3E1"/>
<mask id="mask1_5_9924" style="mask-type:alpha" maskUnits="userSpaceOnUse" x="3" y="2" width="36" height="24">
<path fill-rule="evenodd" clip-rule="evenodd" d="M3 2V26H39V2H3Z" fill="white"/>
</mask>
<g mask="url(#mask1_5_9924)">
<path fill-rule="evenodd" clip-rule="evenodd" d="M21.0001 9.29999L19.0163 10.227L19.3952 8.26351L17.7903 6.87294L20.0082 6.58646L21.0001 4.79999L21.992 6.58646L24.2099 6.87294L22.605 8.26351L22.9839 10.227L21.0001 9.29999Z" fill="#F7FCFF"/>
<path fill-rule="evenodd" clip-rule="evenodd" d="M21.0001 21.3L19.0163 22.227L19.3952 20.2635L17.7903 18.8729L20.0082 18.5865L21.0001 16.8L21.992 18.5865L24.2099 18.8729L22.605 20.2635L22.9839 22.227L21.0001 21.3Z" fill="#F7FCFF"/>
<path fill-rule="evenodd" clip-rule="evenodd" d="M14.0251 15.5L12.0414 16.4271L12.4202 14.4635L10.8153 13.0729L13.0333 12.7865L14.0251 11L15.017 12.7865L17.235 13.0729L15.6301 14.4635L16.0089 16.4271L14.0251 15.5Z" fill="#F7FCFF"/>
<path fill-rule="evenodd" clip-rule="evenodd" d="M27.7501 15.5L25.7663 16.4271L26.1452 14.4635L24.5403 13.0729L26.7582 12.7865L27.7501 11L28.742 12.7865L30.9599 13.0729L29.355 14.4635L29.7339 16.4271L27.7501 15.5Z" fill="#F7FCFF"/>
</g>
</g>
</g>
<defs>
<filter id="filter0_dd_5_9924" x="0" y="0" width="42" height="30" filterUnits="userSpaceOnUse" color-interpolation-filters="sRGB">
<feFlood flood-opacity="0" result="BackgroundImageFix"/>
<feColorMatrix in="SourceAlpha" type="matrix" values="0 0 0 0 0 0 0 0 0 0 0 0 0 0 0 0 0 0 127 0" result="hardAlpha"/>
<feOffset dy="1"/>
<feGaussianBlur stdDeviation="1"/>
<feColorMatrix type="matrix" values="0 0 0 0 0.0627451 0 0 0 0 0.0941176 0 0 0 0 0.156863 0 0 0 0.06 0"/>
<feBlend mode="normal" in2="BackgroundImageFix" result="effect1_dropShadow_5_9924"/>
<feColorMatrix in="SourceAlpha" type="matrix" values="0 0 0 0 0 0 0 0 0 0 0 0 0 0 0 0 0 0 127 0" result="hardAlpha"/>
<feOffset dy="1"/>
<feGaussianBlur stdDeviation="1.5"/>
<feColorMatrix type="matrix" values="0 0 0 0 0.0627451 0 0 0 0 0.0941176 0 0 0 0 0.156863 0 0 0 0.1 0"/>
<feBlend mode="normal" in2="effect1_dropShadow_5_9924" result="effect2_dropShadow_5_9924"/>
<feBlend mode="normal" in="SourceGraphic" in2="effect2_dropShadow_5_9924" result="shape"/>
</filter>
</defs>
</svg>
