<svg width="42" height="30" viewBox="0 0 42 30" fill="none" xmlns="http://www.w3.org/2000/svg">
<g filter="url(#filter0_dd_5_6800)">
<mask id="mask0_5_6800" style="mask-type:alpha" maskUnits="userSpaceOnUse" x="3" y="2" width="36" height="24">
<rect x="3" y="2" width="36" height="24" fill="white"/>
</mask>
<g mask="url(#mask0_5_6800)">
<path fill-rule="evenodd" clip-rule="evenodd" d="M3 2V26H39V2H3Z" fill="#2E42A5"/>
<mask id="mask1_5_6800" style="mask-type:alpha" maskUnits="userSpaceOnUse" x="3" y="2" width="36" height="24">
<path fill-rule="evenodd" clip-rule="evenodd" d="M3 2V26H39V2H3Z" fill="white"/>
</mask>
<g mask="url(#mask1_5_6800)">
<rect x="3" y="2" width="20.25" height="14" fill="#2B409A"/>
<mask id="mask2_5_6800" style="mask-type:alpha" maskUnits="userSpaceOnUse" x="3" y="2" width="21" height="14">
<rect x="3" y="2" width="20.25" height="14" fill="white"/>
</mask>
<g mask="url(#mask2_5_6800)">
<path d="M0.745239 14.9997L5.20131 16.7369L23.3512 3.88866L25.7016 1.30713L20.9365 0.726505L13.5336 6.2632L7.57505 9.99363L0.745239 14.9997Z" fill="#F7FCFF"/>
<path d="M1.35522 16.217L3.62539 17.2251L24.8575 1.06738H21.67L1.35522 16.217Z" fill="#F50100"/>
<path d="M25.5048 14.9997L21.0487 16.7369L2.89885 3.88866L0.54837 1.30713L5.3135 0.726505L12.7164 6.2632L18.6749 9.99363L25.5048 14.9997Z" fill="#F7FCFF"/>
<path d="M25.3528 15.8733L23.0826 16.8815L14.0418 9.96351L11.3613 9.19059L0.322273 1.31605H3.50984L14.5427 9.00368L17.4733 9.9305L25.3528 15.8733Z" fill="#F50100"/>
<mask id="path-11-outside-1_5_6800" maskUnits="userSpaceOnUse" x="1" y="0" width="24" height="18" fill="black">
<rect fill="white" x="1" width="24" height="18"/>
<path fill-rule="evenodd" clip-rule="evenodd" d="M14.2326 2H11.9826V8H3V10H11.9826V16H14.2326V10H23.25V8H14.2326V2Z"/>
</mask>
<path fill-rule="evenodd" clip-rule="evenodd" d="M14.2326 2H11.9826V8H3V10H11.9826V16H14.2326V10H23.25V8H14.2326V2Z" fill="#F50100"/>
<path d="M11.9826 2V0.5H10.4826V2H11.9826ZM14.2326 2H15.7326V0.5H14.2326V2ZM11.9826 8V9.5H13.4826V8H11.9826ZM3 8V6.5H1.5V8H3ZM3 10H1.5V11.5H3V10ZM11.9826 10H13.4826V8.5H11.9826V10ZM11.9826 16H10.4826V17.5H11.9826V16ZM14.2326 16V17.5H15.7326V16H14.2326ZM14.2326 10V8.5H12.7326V10H14.2326ZM23.25 10V11.5H24.75V10H23.25ZM23.25 8H24.75V6.5H23.25V8ZM14.2326 8H12.7326V9.5H14.2326V8ZM11.9826 3.5H14.2326V0.5H11.9826V3.5ZM13.4826 8V2H10.4826V8H13.4826ZM3 9.5H11.9826V6.5H3V9.5ZM4.5 10V8H1.5V10H4.5ZM11.9826 8.5H3V11.5H11.9826V8.5ZM13.4826 16V10H10.4826V16H13.4826ZM14.2326 14.5H11.9826V17.5H14.2326V14.5ZM12.7326 10V16H15.7326V10H12.7326ZM23.25 8.5H14.2326V11.5H23.25V8.5ZM21.75 8V10H24.75V8H21.75ZM14.2326 9.5H23.25V6.5H14.2326V9.5ZM12.7326 2V8H15.7326V2H12.7326Z" fill="#F7FCFF" mask="url(#path-11-outside-1_5_6800)"/>
</g>
<path d="M27.7927 11.7827H27.5427V12.0327C27.5427 12.4655 27.5404 12.8896 27.5383 13.3037C27.5331 14.2913 27.5282 15.2217 27.5545 16.0756C27.5917 17.288 27.6918 18.3706 27.9502 19.2746C28.2097 20.1823 28.6338 20.9272 29.3297 21.4412C30.0243 21.9542 30.9586 22.214 32.194 22.214C33.4406 22.214 34.4011 21.8911 35.1254 21.3049C35.8472 20.7207 36.3099 19.8949 36.5998 18.9326C37.176 17.0204 37.0908 14.4922 36.932 12.0167L36.917 11.7827H36.6825H27.7927Z" fill="#B7E1FF" stroke="#F7FCFF" stroke-width="0.5"/>
<mask id="mask3_5_6800" style="mask-type:alpha" maskUnits="userSpaceOnUse" x="27" y="11" width="11" height="12">
<path d="M27.7927 11.7827H27.5427V12.0327C27.5427 12.4655 27.5404 12.8896 27.5383 13.3037C27.5331 14.2913 27.5282 15.2217 27.5545 16.0756C27.5917 17.288 27.6918 18.3706 27.9502 19.2746C28.2097 20.1823 28.6338 20.9272 29.3297 21.4412C30.0243 21.9542 30.9586 22.214 32.194 22.214C33.4406 22.214 34.4011 21.8911 35.1254 21.3049C35.8472 20.7207 36.3099 19.8949 36.5998 18.9326C37.176 17.0204 37.0908 14.4922 36.932 12.0167L36.917 11.7827H36.6825H27.7927Z" fill="white" stroke="white" stroke-width="0.5"/>
</mask>
<g mask="url(#mask3_5_6800)">
<rect x="30" y="20" width="6.75" height="2" fill="#2E42A5"/>
<g filter="url(#filter1_d_5_6800)">
<rect x="25.5" y="10" width="13.5" height="6" fill="#FDFF00"/>
</g>
<path d="M32.4413 14.0046C32.4442 14.0061 32.447 14.0076 32.4499 14.0092C32.4487 14.0097 32.4476 14.0103 32.4464 14.0108L32.4413 14.0046ZM30.9361 15.4564C30.9361 15.4563 30.9361 15.4563 30.9361 15.4563L31.0603 15.5688L30.9361 15.4564ZM31.8044 14.1155C31.7782 14.088 31.7543 14.0663 31.7363 14.0504C31.6881 14.0079 31.6367 13.9693 31.5982 13.9405C31.5909 13.9351 31.5839 13.9299 31.5771 13.9248C31.5438 13.9 31.5162 13.8795 31.4878 13.8568C31.3633 13.7575 31.3185 13.6922 31.3113 13.5848C31.3047 13.4849 31.2993 13.3878 31.2942 13.2964C31.2849 13.1291 31.2767 12.981 31.2638 12.8702C31.2521 12.7696 31.2318 12.6341 31.17 12.5C31.1913 12.5 31.2152 12.5013 31.2419 12.5043C31.2531 12.5133 31.2863 12.5436 31.3394 12.628C31.3794 12.6915 31.4152 12.7601 31.4576 12.8414L31.46 12.8461C31.4619 12.8498 31.464 12.8537 31.4661 12.8578C31.5003 12.9236 31.5559 13.0306 31.6199 13.1131C31.6346 13.1321 31.6532 13.16 31.6873 13.2115C31.699 13.2291 31.7125 13.2494 31.7283 13.2731C31.7819 13.3535 31.8517 13.4557 31.9335 13.558C31.9846 13.6218 32.0491 13.6973 32.1272 13.7721L31.8044 14.1155ZM34.2494 14.167L34.2319 14.1431L34.2494 14.167Z" fill="#F7FCFF" stroke="#272727"/>
<path d="M30.9296 16.0441H31.1546V19.9993H30.9296V16.0441Z" fill="#FDFF00"/>
<path fill-rule="evenodd" clip-rule="evenodd" d="M30.1129 18.8126H32.1185C32.1185 18.8126 32.1379 19.3271 31.8334 19.2319C31.5289 19.1367 31.864 19.3271 31.4007 19.2319C30.9375 19.1367 30.5293 19.5306 30.4254 19.3336C30.3215 19.1367 29.9186 19.3896 30.0157 19.1011C30.1129 18.8126 30.1129 18.8126 30.1129 18.8126Z" fill="#F7FCFF"/>
<rect x="30.1499" y="18.7639" width="1.95" height="0.2" fill="#212123"/>
<path fill-rule="evenodd" clip-rule="evenodd" d="M30.3903 18.0654H31.9948C31.9948 18.0654 32.0103 18.477 31.7667 18.4008C31.5231 18.3247 31.7911 18.477 31.4205 18.4008C31.0499 18.3247 30.7234 18.6398 30.6403 18.4822C30.5572 18.3247 30.2348 18.527 30.3125 18.2962C30.3903 18.0654 30.3903 18.0654 30.3903 18.0654Z" fill="#F7FCFF"/>
<rect x="30.4199" y="18.0265" width="1.56" height="0.2" fill="#212123"/>
<path fill-rule="evenodd" clip-rule="evenodd" d="M30.0977 17.245H31.8359C31.8359 17.245 31.8527 17.6565 31.5888 17.5804C31.3249 17.5043 31.6153 17.6565 31.2138 17.5804C30.8123 17.5043 30.4585 17.8194 30.3685 17.6618C30.2785 17.5043 29.9293 17.7066 30.0135 17.4758C30.0977 17.245 30.0977 17.245 30.0977 17.245Z" fill="#F7FCFF"/>
<rect x="30.1299" y="17.2061" width="1.69" height="0.2" fill="#212123"/>
<path fill-rule="evenodd" clip-rule="evenodd" d="M30.2402 16.5563H31.8448C31.8448 16.5563 31.8602 17.0707 31.6167 16.9755C31.3731 16.8804 31.6411 17.0707 31.2705 16.9755C30.8999 16.8804 30.5733 17.2742 30.4902 17.0773C30.4071 16.8804 30.0848 17.1332 30.1625 16.8448C30.2402 16.5563 30.2402 16.5563 30.2402 16.5563Z" fill="#F7FCFF"/>
<rect x="30.27" y="16.5076" width="1.56" height="0.2" fill="#212123"/>
<path d="M33.0852 16.5441H33.3102V20.4993H33.0852V16.5441Z" fill="#FDFF00"/>
<path fill-rule="evenodd" clip-rule="evenodd" d="M32.3629 18.9757H34.3685C34.3685 18.9757 34.3879 19.3873 34.0834 19.3111C33.7789 19.235 34.114 19.3873 33.6507 19.3111C33.1875 19.235 32.7793 19.5501 32.6754 19.3925C32.5715 19.235 32.1686 19.4373 32.2657 19.2065C32.3629 18.9757 32.3629 18.9757 32.3629 18.9757Z" fill="#F7FCFF"/>
<rect x="32.3999" y="18.9368" width="1.95" height="0.2" fill="#212123"/>
<path fill-rule="evenodd" clip-rule="evenodd" d="M32.66 18.2303H34.2359C34.2359 18.2303 34.2511 18.539 34.0119 18.4819C33.7726 18.4248 34.0359 18.539 33.6719 18.4819C33.3079 18.4248 32.9872 18.6611 32.9056 18.543C32.824 18.4248 32.5073 18.5765 32.5837 18.4034C32.66 18.2303 32.66 18.2303 32.66 18.2303Z" fill="#F7FCFF"/>
<rect x="32.6892" y="18.2006" width="1.53214" height="0.2" fill="#212123"/>
<path fill-rule="evenodd" clip-rule="evenodd" d="M32.3466 17.4098H34.0657C34.0657 17.4098 34.0823 17.7185 33.8214 17.6613C33.5604 17.6042 33.8476 17.7185 33.4505 17.6613C33.0534 17.6042 32.7035 17.8406 32.6145 17.7224C32.5255 17.6042 32.1801 17.756 32.2633 17.5829C32.3466 17.4098 32.3466 17.4098 32.3466 17.4098Z" fill="#F7FCFF"/>
<rect x="32.3785" y="17.38" width="1.67143" height="0.2" fill="#212123"/>
<path fill-rule="evenodd" clip-rule="evenodd" d="M32.4994 16.7194H34.0752C34.0752 16.7194 34.0904 17.1309 33.8512 17.0548C33.612 16.9786 33.8752 17.1309 33.5112 17.0548C33.1473 16.9786 32.8265 17.2937 32.7449 17.1362C32.6633 16.9786 32.3467 17.1809 32.423 16.9501C32.4994 16.7194 32.4994 16.7194 32.4994 16.7194Z" fill="#F7FCFF"/>
<rect x="32.5286" y="16.6804" width="1.53214" height="0.2" fill="#212123"/>
<path d="M36.1768 16.0586H36.4018V21.3172H36.1768V16.0586Z" fill="#FDFF00"/>
<path fill-rule="evenodd" clip-rule="evenodd" d="M35.2573 19.2531H37.8099C37.8099 19.2531 37.8345 19.6646 37.447 19.5885C37.0595 19.5123 37.4859 19.6646 36.8963 19.5885C36.3067 19.5123 35.7872 19.8274 35.655 19.6699C35.5228 19.5123 35.0099 19.7146 35.1336 19.4838C35.2573 19.2531 35.2573 19.2531 35.2573 19.2531Z" fill="#F7FCFF"/>
<rect x="35.3046" y="19.2141" width="2.48182" height="0.2" fill="#212123"/>
<path fill-rule="evenodd" clip-rule="evenodd" d="M35.6357 18.2555H37.6414C37.6414 18.2555 37.6607 18.5642 37.3562 18.5071C37.0518 18.4499 37.3868 18.5642 36.9235 18.5071C36.4603 18.4499 36.0521 18.6863 35.9482 18.5681C35.8444 18.4499 35.4414 18.6017 35.5386 18.4286C35.6357 18.2555 35.6357 18.2555 35.6357 18.2555Z" fill="#F7FCFF"/>
<rect x="35.6729" y="18.231" width="1.95" height="0.2" fill="#212123"/>
<path fill-rule="evenodd" clip-rule="evenodd" d="M35.431 16.9349H37.4366C37.4366 16.9349 37.456 17.3465 37.1515 17.2703C36.8471 17.1942 37.1821 17.3465 36.7188 17.2703C36.2556 17.1942 35.8474 17.5093 35.7435 17.3518C35.6396 17.1942 35.2367 17.3965 35.3338 17.1657C35.431 16.9349 35.431 16.9349 35.431 16.9349Z" fill="#F7FCFF"/>
<rect x="35.4681" y="16.896" width="1.95" height="0.2" fill="#212123"/>
<path fill-rule="evenodd" clip-rule="evenodd" d="M30.2083 19.6868C30.2083 19.6868 31.2496 20.1898 32.8373 20.1031C34.425 20.0165 34.311 20.2889 34.7228 19.9013C35.1347 19.5138 35.1708 19.6002 35.6845 19.3968C36.1982 19.1933 36.2718 19.0014 36.5367 19.0014C36.8015 19.0014 39.6216 18.9008 39.6216 18.9008C39.6216 18.9008 39.3634 19.1067 39.3634 19.3968C39.3634 19.6868 39.5355 19.7165 39.3634 19.9796C39.1914 20.2426 38.9971 20.5943 38.7474 20.6964C38.4976 20.7984 35.1272 20.8629 34.2677 20.8629C33.4082 20.8629 31.6431 20.948 31.4399 20.8629C31.2368 20.7779 30.2083 19.6868 30.2083 19.6868Z" fill="#272727"/>
<path fill-rule="evenodd" clip-rule="evenodd" d="M27.8823 17.6864L28.8872 16.8636C28.8872 16.8636 28.9311 16.8636 29.1178 17.275C29.3046 17.6864 29.3134 18.2491 29.5077 18.1086C29.7019 17.968 30.0009 18.0978 30.1268 17.6864C30.2526 17.275 30.2447 16.7423 30.4048 17.0087C30.5649 17.275 30.4698 16.8857 30.7252 17.4971C30.9806 18.1086 31.0818 17.2344 31.2222 18.1086C31.3627 18.9827 31.4816 19.2844 31.4816 19.4877C31.4816 19.6911 32.7609 20.2969 32.2702 20.7142C31.7795 21.1315 31.9184 20.9348 31.4816 21.1972C31.0448 21.4596 30.5972 21.307 31.2222 21.5131C31.8473 21.7192 31.7578 22.0928 31.7578 22.3683C31.7578 22.6437 31.7193 22.7672 31.2222 22.7055C30.7252 22.6437 30.1207 22.8636 30 22.8636C29.8792 22.8636 28.422 22.5997 28.422 22.0564C28.422 21.5131 27.8823 17.6864 27.8823 17.6864Z" fill="#CE6201"/>
</g>
</g>
</g>
</g>
<defs>
<filter id="filter0_dd_5_6800" x="0" y="0" width="42" height="30" filterUnits="userSpaceOnUse" color-interpolation-filters="sRGB">
<feFlood flood-opacity="0" result="BackgroundImageFix"/>
<feColorMatrix in="SourceAlpha" type="matrix" values="0 0 0 0 0 0 0 0 0 0 0 0 0 0 0 0 0 0 127 0" result="hardAlpha"/>
<feOffset dy="1"/>
<feGaussianBlur stdDeviation="1"/>
<feColorMatrix type="matrix" values="0 0 0 0 0.0627451 0 0 0 0 0.0941176 0 0 0 0 0.156863 0 0 0 0.06 0"/>
<feBlend mode="normal" in2="BackgroundImageFix" result="effect1_dropShadow_5_6800"/>
<feColorMatrix in="SourceAlpha" type="matrix" values="0 0 0 0 0 0 0 0 0 0 0 0 0 0 0 0 0 0 127 0" result="hardAlpha"/>
<feOffset dy="1"/>
<feGaussianBlur stdDeviation="1.5"/>
<feColorMatrix type="matrix" values="0 0 0 0 0.0627451 0 0 0 0 0.0941176 0 0 0 0 0.156863 0 0 0 0.1 0"/>
<feBlend mode="normal" in2="effect1_dropShadow_5_6800" result="effect2_dropShadow_5_6800"/>
<feBlend mode="normal" in="SourceGraphic" in2="effect2_dropShadow_5_6800" result="shape"/>
</filter>
<filter id="filter1_d_5_6800" x="25.5" y="10" width="13.5" height="7" filterUnits="userSpaceOnUse" color-interpolation-filters="sRGB">
<feFlood flood-opacity="0" result="BackgroundImageFix"/>
<feColorMatrix in="SourceAlpha" type="matrix" values="0 0 0 0 0 0 0 0 0 0 0 0 0 0 0 0 0 0 127 0" result="hardAlpha"/>
<feOffset dy="1"/>
<feColorMatrix type="matrix" values="0 0 0 0 0 0 0 0 0 0 0 0 0 0 0 0 0 0 0.5 0"/>
<feBlend mode="normal" in2="BackgroundImageFix" result="effect1_dropShadow_5_6800"/>
<feBlend mode="normal" in="SourceGraphic" in2="effect1_dropShadow_5_6800" result="shape"/>
</filter>
</defs>
</svg>
