<svg width="42" height="30" viewBox="0 0 42 30" fill="none" xmlns="http://www.w3.org/2000/svg">
<g filter="url(#filter0_dd_5_8372)">
<mask id="mask0_5_8372" style="mask-type:alpha" maskUnits="userSpaceOnUse" x="3" y="2" width="36" height="24">
<rect x="3" y="2" width="36" height="24" fill="white"/>
</mask>
<g mask="url(#mask0_5_8372)">
<path fill-rule="evenodd" clip-rule="evenodd" d="M3 2H39V26H3V2Z" fill="#FECA00"/>
<rect x="5.25" y="4" width="6.75" height="20" fill="#1F8A6E"/>
<rect x="12" y="4" width="6.75" height="20" fill="#F56800"/>
<rect x="18.75" y="4" width="18" height="20" fill="#B01D00"/>
<rect x="16.5" y="4" width="2.25" height="20" fill="#E8AA00"/>
<path fill-rule="evenodd" clip-rule="evenodd" d="M22.2381 8.17346C22.2381 8.17346 20.8052 8.16976 20.8052 10.3876V13.6397C20.8052 13.6397 20.123 13.7478 20.123 14.1245C20.123 14.5011 20.2676 14.8307 20.5364 14.8307C20.8052 14.8307 21.0739 15.9356 20.8052 15.9356C20.5364 15.9356 20.2676 16.4097 20.5364 16.4097C20.6007 16.4097 20.6496 16.402 20.6868 16.3961C20.8052 16.3773 20.8052 16.3773 20.8052 16.7049C20.8052 17.1354 20.5364 17.3095 20.5364 17.3095C20.5364 17.3095 20.2833 17.2468 20.2833 17.5001C20.2833 17.7535 20.5364 17.8177 20.5364 17.8177C20.5364 17.8177 20.6813 17.8733 20.4022 17.9933C20.123 18.1133 20.123 18.1713 20.123 18.1713H20.8052L21.1468 18.7269L21.4728 18.1713H22.1461C22.1461 18.1713 21.807 17.9785 21.7673 17.9381C21.7275 17.8977 21.6795 17.8387 21.7673 17.7712C21.7929 17.7515 21.8304 17.7364 21.8707 17.7202L21.8707 17.7202C21.9685 17.681 22.0827 17.6351 22.0827 17.5001C22.0827 17.3095 21.6529 17.3095 21.6529 17.3095C21.6529 17.3095 21.3906 16.8887 21.4728 16.7049C21.4957 16.6535 21.5088 16.6078 21.52 16.5685C21.549 16.4675 21.5655 16.4097 21.7065 16.4097C21.9023 16.4097 22.0146 16.1901 21.7673 15.9356C21.7673 15.9356 22.0508 16.2065 21.9675 16.5581C21.8842 16.9096 22.0541 17.0688 22.1461 17.0688C22.2381 17.0688 22.3845 16.9479 22.3845 16.9479C22.3845 16.9479 23.1489 17.5554 23.4848 17.5554C23.8208 17.5554 24.3024 17.0688 24.3024 17.0688L24.9939 17.414C24.9939 17.414 25.5001 18.0443 25.4255 18.4776C25.3508 18.9109 25.0623 19.1523 24.7228 19.0853C24.3833 19.0183 23.831 19.1558 23.789 19.3427C23.7826 19.371 23.7732 19.4055 23.7628 19.4433C23.7046 19.6554 23.6176 19.973 23.8837 19.8946C24.1974 19.8023 24.2588 19.7315 24.2588 19.7315C24.2588 19.7315 24.2176 19.8946 24.4702 19.8946C24.7228 19.8946 24.7958 19.7315 24.7958 19.7315C24.7958 19.7315 25.0577 19.8946 25.2416 19.8946C25.4255 19.8946 25.6314 19.7689 25.6314 19.7689C25.6314 19.7689 25.767 19.9557 26.0668 19.8946C26.3667 19.8336 26.5933 19.138 26.3752 18.9822C26.3752 18.9822 27.0985 18.8889 27.2841 18.33C27.2841 18.33 26.5844 18.3208 26.6565 17.9381C26.7287 17.5554 27.0982 17.3095 27.0982 17.3095C27.0982 17.3095 28.1621 16.8517 28.6199 16.7049C29.0777 16.5581 29.8386 16.4097 30.0271 16.4097C30.1039 16.4097 30.1587 16.5689 30.2329 16.7847C30.3411 17.0992 30.4907 17.5339 30.8099 17.7712C31.348 18.1713 30.9811 19.0853 30.9811 19.0853C30.9811 19.0853 29.7836 19.1926 29.7836 19.4808C29.7836 19.7689 29.8029 19.8946 30.0271 19.8946C30.2514 19.8946 30.2469 19.7315 30.2469 19.7315C30.2469 19.7315 30.38 19.8946 30.5949 19.8946C30.8099 19.8946 30.9811 19.7315 30.9811 19.7315C30.9811 19.7315 31.0382 19.8946 31.3198 19.8946C31.6014 19.8946 31.5994 19.7315 31.5994 19.7315C31.5994 19.7315 31.6501 19.8946 31.8982 19.8946C32.1464 19.8946 32.6559 19.7315 32.6559 19.7315C32.6559 19.7315 32.7356 19.8946 32.9934 19.8946C33.2511 19.8946 33.2572 19.7315 33.2572 19.7315C33.2572 19.7315 33.3948 19.8946 33.6181 19.8946C33.8413 19.8946 33.9722 19.7315 33.9722 19.7315C33.9722 19.7315 34.2931 19.8946 34.5146 19.8946C34.736 19.8946 34.6564 19.6001 34.5146 19.3427C34.4787 19.2776 34.4371 19.222 34.3991 19.1712C34.287 19.0211 34.2062 18.9131 34.3962 18.7269C34.45 18.6741 34.5117 18.6208 34.5734 18.5674L34.5734 18.5674C34.8035 18.3685 35.0348 18.1685 34.8654 17.9933C34.8151 17.9413 34.7562 17.905 34.697 17.8684C34.503 17.7486 34.3055 17.6267 34.3962 16.9479C34.4505 16.5414 34.5537 16.211 34.6495 15.9041C34.7626 15.5421 34.8654 15.213 34.8654 14.8307C34.8654 14.1245 34.3962 13.3169 34.3962 13.3169C34.3962 13.3169 35.028 12.925 35.028 12.1277C35.028 11.3304 33.6181 11.2435 33.6181 11.2435C33.6181 11.2435 32.2177 11.5639 31.5994 11.4037C31.4598 11.3675 31.3431 11.3415 31.2459 11.3199L31.2459 11.3199C30.9125 11.2457 30.8099 11.2228 30.8099 11.0174C30.8099 10.7521 30.3598 11.2435 30.3598 11.2435C30.3598 11.2435 30.007 11.1176 30.2469 10.8572C30.4867 10.5968 30.5949 10.4947 30.5949 10.4947C30.5949 10.4947 30.3836 10.2805 30.0271 10.3876C29.6706 10.4947 29.607 10.6721 29.607 10.6721C29.607 10.6721 29.2006 10.3023 29.4538 10.0337C29.7071 9.76519 30.0271 10.0337 30.0271 10.0337C30.0271 10.0337 30.3912 10.2027 30.4205 9.98091C30.4499 9.75911 30.4205 9.58223 30.4205 9.58223C30.4205 9.58223 31.334 9.81512 31.0759 10.1774C30.8177 10.5396 30.9811 10.6721 30.9811 10.6721C30.9811 10.6721 31.6089 10.7065 31.7223 10.3215C31.7653 10.1759 31.7581 10.0347 31.7268 9.9237C31.9077 9.99944 32.1125 10.0892 32.0553 10.2381C31.9503 10.5116 31.7223 10.8572 31.7223 10.8572C31.7223 10.8572 32.3497 10.8246 32.5366 10.3876C32.7236 9.95055 32.6559 10.4947 32.6559 10.4947C32.6559 10.4947 32.8963 10.4871 33.2572 10.6721C33.6181 10.8572 33.2572 10.3876 33.2572 10.3876C33.2572 10.3876 34.0063 11.2132 34.7148 11.1153C35.4234 11.0174 35.3841 10.4947 35.3841 10.4947C35.3841 10.4947 35.2162 10.2381 34.8654 10.2381C34.5146 10.2381 34.7148 10.4947 34.7148 10.4947C34.7148 10.4947 35.0569 10.6678 34.5146 10.4947C34.3575 10.4445 34.1231 10.2826 33.8322 10.0817C33.1189 9.58891 32.0659 8.86159 30.9811 8.97298C29.4538 9.12978 28.921 9.73643 28.921 9.73643V9.2313C28.921 9.2313 28.6643 9.58223 28.4251 9.58223C28.1858 9.58223 27.5214 9.2313 27.5214 9.2313L27.0982 9.58223C27.0982 9.58223 26.9379 9.2313 26.6565 9.2313C26.3752 9.2313 26.3752 9.58223 26.3752 9.58223C26.3752 9.58223 26.0213 9.42753 25.6314 9.42753C25.4717 9.42753 25.3359 9.37568 25.2311 9.33571C25.0802 9.27812 24.9939 9.24517 24.9939 9.42753C24.9939 9.46454 24.9949 9.49986 24.9958 9.53347V9.53348C25.0026 9.78036 25.0069 9.93442 24.6027 9.98091C24.1436 10.0337 23.789 10.0337 23.789 10.0337C23.789 10.0337 23.5141 9.73643 23.3003 9.73643C23.0865 9.73643 22.8387 9.96713 22.8387 10.1774C22.8387 10.3876 23.1158 10.9871 23.3003 11.1153C23.3489 11.149 23.3399 11.1454 23.3002 11.1291C23.1893 11.0837 22.8387 10.9402 22.8387 11.2435C22.8387 11.4526 22.8975 11.5048 22.9403 11.543C22.9819 11.58 23.0086 11.6038 22.9526 11.7442C22.9293 11.8026 22.8972 11.8702 22.8638 11.9407C22.7342 12.2145 22.5834 12.5328 22.8387 12.5328C22.9766 12.5328 23.1071 12.5058 23.1999 12.4866L23.1999 12.4866C23.3234 12.4611 23.3804 12.4493 23.3003 12.5328C23.2684 12.5661 23.2254 12.6062 23.1821 12.6467L23.1821 12.6467C23.0348 12.784 22.8834 12.9254 23.1455 12.8181C23.2833 12.7617 23.3997 12.6799 23.4957 12.6125C23.636 12.5138 23.7327 12.4459 23.789 12.5328C23.8246 12.5878 23.796 12.6613 23.7716 12.7243C23.7309 12.8291 23.7015 12.9048 23.997 12.8181C24.1006 12.7877 24.1613 12.764 24.195 12.747C24.1964 12.764 24.2123 12.7878 24.2588 12.8181C24.3579 12.8828 24.3389 12.9441 24.3244 12.991C24.308 13.044 24.2973 13.0785 24.4702 13.0785C24.6356 13.0785 24.8691 12.9646 25.0075 12.897C25.1415 12.8316 25.1863 12.8097 24.9939 12.977C24.8726 13.0824 24.6972 13.1526 24.5025 13.2306C24.0691 13.4042 23.5402 13.6161 23.3003 14.3387C22.9764 15.3142 23.1216 15.5152 23.143 15.5382L22.1461 14.568C22.1461 14.568 22.3845 14.4024 22.3845 14.1245C22.3845 13.8466 21.7673 13.6397 21.7673 13.6397C21.7673 13.6397 21.7888 10.182 21.9675 9.42753C22.1461 8.67306 22.2381 8.17346 22.2381 8.17346ZM23.143 15.5382L23.1455 15.5406C23.1455 15.5406 23.1453 15.5404 23.1448 15.54C23.1443 15.5396 23.1438 15.539 23.143 15.5382ZM24.2261 12.7143C24.2149 12.7143 24.1933 12.7252 24.195 12.747C24.2383 12.7252 24.2374 12.7143 24.2261 12.7143ZM31.7268 9.9237L31.7135 9.91817C31.5676 9.85714 31.442 9.80464 31.4903 9.73643C31.5581 9.64055 31.6752 9.74125 31.7268 9.9237ZM32.3864 17.4056C32.3864 17.4056 31.914 17.8175 32.2139 17.908C32.3049 17.9355 32.4156 17.9508 32.5185 17.965C32.7548 17.9977 32.95 18.0247 32.7709 18.1802C32.5139 18.4034 32.2963 18.705 32.2963 18.9796C32.2963 19.2543 32.3037 19.4861 32.3864 19.3702C32.4318 19.3066 32.6184 19.24 32.8193 19.1682C32.9845 19.1092 33.1594 19.0467 33.2736 18.9796C33.4895 18.8528 33.4864 18.7156 33.4808 18.4691C33.4798 18.4265 33.4788 18.3806 33.4788 18.3309C33.4788 17.994 32.3864 17.4056 32.3864 17.4056ZM28.7209 11.8896C28.8311 11.8118 28.8381 10.8516 28.8381 10.8516C28.8381 10.8516 29.2244 10.9659 29.2244 11.1159C29.2244 11.2093 29.1952 11.2628 29.151 11.3434C29.1243 11.3922 29.0921 11.4511 29.0576 11.5348C28.9728 11.7411 29.2037 11.8703 29.4182 11.9904C29.4346 11.9995 29.4509 12.0086 29.4669 12.0177C29.6124 12.1001 29.6532 11.9213 29.6847 11.7832C29.7022 11.7067 29.7168 11.6427 29.7448 11.6427C29.8233 11.6427 30.4087 11.7607 30.8493 11.9597C31.2338 12.1334 31.611 12.0481 32.475 11.8529C32.6012 11.8243 32.7379 11.7935 32.8864 11.7607C34.0517 11.5037 34.2047 11.8896 34.3242 12.1934C34.4436 12.4971 33.539 12.9181 32.8864 12.9944C32.5997 13.0279 32.3513 13.0173 32.1228 13.0074C31.8313 12.9949 31.5721 12.9838 31.3069 13.0676C30.8911 13.199 29.5911 13.1859 29.0836 13.1808C29.0136 13.1801 28.9586 13.1795 28.9232 13.1795C28.6902 13.1795 28.6461 13.1142 28.5577 12.983C28.5352 12.9497 28.5099 12.9121 28.4778 12.8703C28.3198 12.6638 28.5116 12.5288 28.6359 12.5288C28.7603 12.5288 28.7209 12.2872 28.6359 12.1934C28.5509 12.0995 28.6108 11.9674 28.7209 11.8896Z" fill="#FECA00"/>
<path fill-rule="evenodd" clip-rule="evenodd" d="M18.9427 4.12233V4.48337C18.9427 4.52783 18.9211 4.58846 18.8969 4.65643C18.8202 4.87188 18.7173 5.16101 19.1924 5.24227C19.8174 5.34917 20.2778 5.5921 20.4177 5.82144C20.5074 5.96841 20.4822 5.72351 20.4525 5.43545L20.4525 5.43545C20.4358 5.27402 20.4177 5.09904 20.4177 4.97188C20.4177 4.61784 19.9716 3.92794 19.6554 4.12233C19.3393 4.31672 18.9427 4.12233 18.9427 4.12233ZM36.5651 23.5073V23.8683C36.5651 23.8683 36.1684 23.674 35.8523 23.8683C35.5361 24.0627 35.09 23.3728 35.09 23.0188C35.09 22.8917 35.0719 22.7167 35.0553 22.5553L35.0553 22.5553L35.0553 22.5552C35.0256 22.2672 35.0003 22.0223 35.09 22.1692C35.23 22.3986 35.6904 22.6415 36.3154 22.7484C36.7905 22.8297 36.6875 23.1188 36.6109 23.3342L36.6108 23.3343C36.5867 23.4022 36.5651 23.4629 36.5651 23.5073ZM18.9427 23.5073V23.8684C18.9427 23.8684 19.3393 23.674 19.6554 23.8684C19.9716 24.0627 20.4177 23.3728 20.4177 23.0188C20.4177 22.8916 20.4358 22.7167 20.4525 22.5552C20.4822 22.2672 20.5074 22.0223 20.4177 22.1692C20.2778 22.3986 19.8174 22.6415 19.1924 22.7484C18.7173 22.8297 18.8202 23.1188 18.8969 23.3342C18.9211 23.4022 18.9427 23.4629 18.9427 23.5073ZM36.5651 4.48337V4.12233C36.5651 4.12233 36.1684 4.31672 35.8523 4.12233C35.5361 3.92794 35.09 4.61784 35.09 4.97188C35.09 5.09904 35.0719 5.27402 35.0553 5.43545C35.0256 5.72351 35.0003 5.96841 35.09 5.82144C35.23 5.5921 35.6904 5.34917 36.3154 5.24227C36.7905 5.16101 36.6875 4.87188 36.6109 4.65643C36.5867 4.58846 36.5651 4.52783 36.5651 4.48337Z" fill="#FECA00"/>
</g>
</g>
<defs>
<filter id="filter0_dd_5_8372" x="0" y="0" width="42" height="30" filterUnits="userSpaceOnUse" color-interpolation-filters="sRGB">
<feFlood flood-opacity="0" result="BackgroundImageFix"/>
<feColorMatrix in="SourceAlpha" type="matrix" values="0 0 0 0 0 0 0 0 0 0 0 0 0 0 0 0 0 0 127 0" result="hardAlpha"/>
<feOffset dy="1"/>
<feGaussianBlur stdDeviation="1"/>
<feColorMatrix type="matrix" values="0 0 0 0 0.0627451 0 0 0 0 0.0941176 0 0 0 0 0.156863 0 0 0 0.06 0"/>
<feBlend mode="normal" in2="BackgroundImageFix" result="effect1_dropShadow_5_8372"/>
<feColorMatrix in="SourceAlpha" type="matrix" values="0 0 0 0 0 0 0 0 0 0 0 0 0 0 0 0 0 0 127 0" result="hardAlpha"/>
<feOffset dy="1"/>
<feGaussianBlur stdDeviation="1.5"/>
<feColorMatrix type="matrix" values="0 0 0 0 0.0627451 0 0 0 0 0.0941176 0 0 0 0 0.156863 0 0 0 0.1 0"/>
<feBlend mode="normal" in2="effect1_dropShadow_5_8372" result="effect2_dropShadow_5_8372"/>
<feBlend mode="normal" in="SourceGraphic" in2="effect2_dropShadow_5_8372" result="shape"/>
</filter>
</defs>
</svg>
