<svg width="42" height="30" viewBox="0 0 42 30" fill="none" xmlns="http://www.w3.org/2000/svg">
<g filter="url(#filter0_dd_5_6086)">
<mask id="mask0_5_6086" style="mask-type:alpha" maskUnits="userSpaceOnUse" x="3" y="2" width="36" height="24">
<rect x="3" y="2" width="36" height="24" fill="white"/>
</mask>
<g mask="url(#mask0_5_6086)">
<path fill-rule="evenodd" clip-rule="evenodd" d="M3 2V26H39V2H3Z" fill="#E31D1C"/>
<mask id="mask1_5_6086" style="mask-type:alpha" maskUnits="userSpaceOnUse" x="3" y="2" width="36" height="24">
<path fill-rule="evenodd" clip-rule="evenodd" d="M3 2V26H39V2H3Z" fill="white"/>
</mask>
<g mask="url(#mask1_5_6086)">
<path fill-rule="evenodd" clip-rule="evenodd" d="M21.0288 18.1135C18.6198 17.586 16.733 15.7937 16.7549 13.1663C16.7754 10.7069 18.4506 8.62807 21.0988 8.0653C23.747 7.50254 26.0784 8.69715 26.0784 8.69715C25.3466 7.16134 22.8038 6.08239 20.7192 6.08549C16.8389 6.09127 12.7024 8.88851 12.6667 13.1663C12.6297 17.6013 17.0963 20.1271 21.0246 20.1212C24.1737 20.1165 25.6675 18.2014 25.9769 17.3867C25.9769 17.3867 23.4377 18.641 21.0288 18.1135ZM26.5163 12.3266L24.1162 13.1102L26.8243 13.9594L26.7781 16.4968L28.5625 14.5932L31.5101 14.7836L29.1743 12.9988L30.7078 11.095L28.2109 11.842L26.4262 10.0784L26.5163 12.3266Z" fill="#F7FCFF"/>
</g>
</g>
</g>
<defs>
<filter id="filter0_dd_5_6086" x="0" y="0" width="42" height="30" filterUnits="userSpaceOnUse" color-interpolation-filters="sRGB">
<feFlood flood-opacity="0" result="BackgroundImageFix"/>
<feColorMatrix in="SourceAlpha" type="matrix" values="0 0 0 0 0 0 0 0 0 0 0 0 0 0 0 0 0 0 127 0" result="hardAlpha"/>
<feOffset dy="1"/>
<feGaussianBlur stdDeviation="1"/>
<feColorMatrix type="matrix" values="0 0 0 0 0.0627451 0 0 0 0 0.0941176 0 0 0 0 0.156863 0 0 0 0.06 0"/>
<feBlend mode="normal" in2="BackgroundImageFix" result="effect1_dropShadow_5_6086"/>
<feColorMatrix in="SourceAlpha" type="matrix" values="0 0 0 0 0 0 0 0 0 0 0 0 0 0 0 0 0 0 127 0" result="hardAlpha"/>
<feOffset dy="1"/>
<feGaussianBlur stdDeviation="1.5"/>
<feColorMatrix type="matrix" values="0 0 0 0 0.0627451 0 0 0 0 0.0941176 0 0 0 0 0.156863 0 0 0 0.1 0"/>
<feBlend mode="normal" in2="effect1_dropShadow_5_6086" result="effect2_dropShadow_5_6086"/>
<feBlend mode="normal" in="SourceGraphic" in2="effect2_dropShadow_5_6086" result="shape"/>
</filter>
</defs>
</svg>
