<svg width="42" height="30" viewBox="0 0 42 30" fill="none" xmlns="http://www.w3.org/2000/svg">
<g filter="url(#filter0_dd_5_11205)">
<mask id="mask0_5_11205" style="mask-type:alpha" maskUnits="userSpaceOnUse" x="3" y="2" width="36" height="24">
<rect x="3" y="2" width="36" height="24" fill="white"/>
</mask>
<g mask="url(#mask0_5_11205)">
<path fill-rule="evenodd" clip-rule="evenodd" d="M3 2V26H39V2H3Z" fill="#AF0100"/>
<mask id="mask1_5_11205" style="mask-type:alpha" maskUnits="userSpaceOnUse" x="3" y="2" width="36" height="24">
<path fill-rule="evenodd" clip-rule="evenodd" d="M3 2V26H39V2H3Z" fill="white"/>
</mask>
<g mask="url(#mask1_5_11205)">
<path fill-rule="evenodd" clip-rule="evenodd" d="M26.6584 13.0427L36.6583 13.0427V22.0326C36.6583 22.0326 36.3479 23.2702 34.4229 24.0874C32.498 24.9046 31.6584 24.9046 31.6584 24.9046C31.6584 24.9046 28.5922 24.2349 27.9583 23.6078C27.3243 22.9807 26.6584 22.7487 26.6584 21.6525C26.6584 20.5563 26.6584 13.0427 26.6584 13.0427Z" fill="white"/>
<mask id="mask2_5_11205" style="mask-type:alpha" maskUnits="userSpaceOnUse" x="26" y="13" width="11" height="12">
<path fill-rule="evenodd" clip-rule="evenodd" d="M26.6584 13.0427L36.6583 13.0427V22.0326C36.6583 22.0326 36.3479 23.2702 34.4229 24.0874C32.498 24.9046 31.6584 24.9046 31.6584 24.9046C31.6584 24.9046 28.5922 24.2349 27.9583 23.6078C27.3243 22.9807 26.6584 22.7487 26.6584 21.6525C26.6584 20.5563 26.6584 13.0427 26.6584 13.0427Z" fill="white"/>
</mask>
<g mask="url(#mask2_5_11205)">
<path fill-rule="evenodd" clip-rule="evenodd" d="M31.6374 13.57C31.6749 13.5218 31.6946 13.4758 31.6946 13.4758L31.6911 13.6261C31.7269 13.6557 31.7708 13.6778 31.8224 13.6778L32.0441 13.5611C32.0441 13.5611 31.9931 13.819 32.06 13.8117C32.06 13.8117 32.2667 13.6903 32.3487 13.7558C32.3487 13.7558 32.1081 14.0008 32.3978 14.0024C32.3978 14.0024 32.7619 13.9503 32.7304 14.1006C32.7304 14.1006 32.4575 14.546 32.5722 14.5743L33.0227 14.5625C33.0227 14.5625 32.7208 14.796 32.7289 14.8942L32.8792 14.9992C32.8792 14.9992 32.9636 14.8146 33.0346 14.9656C33.0346 14.9656 33.0438 15.2398 32.9966 15.2398L32.596 15.3538C32.596 15.3538 32.5702 15.4878 32.7133 15.4878C32.7133 15.4878 33.0448 15.3631 33.0542 15.4898C33.0542 15.4898 33.0105 15.6362 32.9913 15.7599C32.9913 15.7599 32.9702 16.2085 32.967 16.2471C32.967 16.2471 32.9932 16.2303 33.2454 16.4943C33.2454 16.4943 33.8815 16.8516 33.9981 16.7694C34.0303 16.7467 34.0513 16.7002 34.0751 16.6477C34.1374 16.5098 34.2188 16.33 34.5706 16.427L34.5738 16.4279C35.057 16.5612 35.1745 16.5936 35.0523 16.7694C34.9298 16.9456 34.4646 17.3653 34.4646 17.3653L34.0613 18.8034H34.9252C35.1858 18.8034 35.4253 18.8932 35.4712 19.0853C35.5171 19.2773 35.5291 19.6506 35.5291 19.6952C35.5291 19.7012 35.528 19.7095 35.5267 19.7193C35.5185 19.7816 35.5021 19.9054 35.7084 19.9054C35.7084 19.9054 36.1216 19.9528 36.036 19.9795C36.036 19.9795 35.7432 19.9293 35.7411 20.1584C35.7411 20.1584 35.6286 20.1879 35.6831 20.4708C35.6831 20.4708 35.9103 21.0905 35.7595 20.9628C35.7595 20.9628 35.4507 20.6406 35.4507 20.5033C35.4507 20.5033 35.2302 20.5806 35.237 20.7825C35.237 20.7825 35.0283 21.0307 35.0347 20.7881C35.0347 20.7881 35.3881 20.192 35.1906 20.327C35.1906 20.327 34.9347 20.8193 34.9011 20.7446L33.9516 20.5164L33.5899 21.9311C33.5899 21.9311 33.6862 22.1966 33.9516 22.1966C34.0478 22.1966 34.1332 22.1632 34.2112 22.1327C34.3482 22.0792 34.462 22.0347 34.5706 22.1966C34.7409 22.4506 34.8167 22.4743 34.9011 22.4743C34.9854 22.4743 35.0839 22.5717 35.0347 22.7207C34.9854 22.8697 34.7641 22.9818 34.6674 22.9818C34.6318 22.9818 34.6412 23.0087 34.6531 23.0427C34.6736 23.1011 34.7013 23.1805 34.5211 23.1805C34.3783 23.1805 34.3068 23.1653 34.2355 23.1501C34.1643 23.135 34.0933 23.1199 33.9516 23.1199C33.9184 23.1199 33.8854 23.1202 33.8531 23.1205C33.6093 23.123 33.4021 23.1251 33.4021 22.9818C33.4021 22.8428 33.2142 22.7197 33.0479 22.6107C33.02 22.5925 32.9927 22.5746 32.967 22.5571C32.7881 22.4354 32.3978 21.0592 32.3978 21.0592L31.6594 16.926L31.6374 15.9658L31.6153 16.926L30.877 21.0592C30.877 21.0592 30.4867 22.4354 30.3077 22.5571C30.2821 22.5746 30.2548 22.5925 30.2269 22.6107C30.0606 22.7197 29.8727 22.8428 29.8727 22.9818C29.8727 23.1251 29.6655 23.123 29.4217 23.1205C29.3893 23.1202 29.3564 23.1199 29.3232 23.1199C29.1815 23.1199 29.1104 23.135 29.0393 23.1501C28.968 23.1653 28.8965 23.1805 28.7537 23.1805C28.5734 23.1805 28.6012 23.1011 28.6217 23.0427C28.6336 23.0087 28.643 22.9818 28.6074 22.9818C28.5106 22.9818 28.2893 22.8697 28.2401 22.7207C28.1909 22.5717 28.2893 22.4743 28.3737 22.4743C28.4581 22.4743 28.5338 22.4506 28.7041 22.1966C28.8127 22.0347 28.9266 22.0792 29.0636 22.1327C29.1415 22.1632 29.227 22.1966 29.3232 22.1966C29.5885 22.1966 29.6849 21.9311 29.6849 21.9311L29.3232 20.5164L28.3737 20.7446C28.3401 20.8193 28.0841 20.327 28.0841 20.327C27.8866 20.192 28.2401 20.7881 28.2401 20.7881C28.2465 21.0307 28.0377 20.7825 28.0377 20.7825C28.0446 20.5806 27.8241 20.5033 27.8241 20.5033C27.8241 20.6406 27.5152 20.9628 27.5152 20.9628C27.3645 21.0905 27.5917 20.4708 27.5917 20.4708C27.6461 20.1879 27.5336 20.1584 27.5336 20.1584C27.5316 19.9293 27.2387 19.9795 27.2387 19.9795C27.1531 19.9528 27.5663 19.9054 27.5663 19.9054C27.7727 19.9054 27.7563 19.7816 27.7481 19.7193C27.7468 19.7095 27.7457 19.7012 27.7457 19.6952C27.7457 19.6506 27.7576 19.2773 27.8036 19.0853C27.8495 18.8932 28.0889 18.8034 28.3496 18.8034H29.2134L28.8101 17.3653C28.8101 17.3653 28.345 16.9456 28.2225 16.7694C28.1003 16.5936 28.2178 16.5612 28.701 16.4279L28.7041 16.427C29.0559 16.33 29.1373 16.5098 29.1997 16.6477C29.2235 16.7002 29.2445 16.7467 29.2767 16.7694C29.3933 16.8516 30.0294 16.4943 30.0294 16.4943C30.2815 16.2303 30.3077 16.2471 30.3077 16.2471C30.3046 16.2085 30.2835 15.7599 30.2835 15.7599C30.2643 15.6362 30.2205 15.4898 30.2205 15.4898C30.23 15.3631 30.5614 15.4878 30.5614 15.4878C30.7046 15.4878 30.6787 15.3538 30.6787 15.3538L30.2781 15.2398C30.2309 15.2398 30.2401 14.9656 30.2401 14.9656C30.3112 14.8146 30.3955 14.9992 30.3955 14.9992L30.5459 14.8942C30.554 14.796 30.252 14.5625 30.252 14.5625L30.7026 14.5743C30.8173 14.546 30.5444 14.1006 30.5444 14.1006C30.5129 13.9503 30.877 14.0024 30.877 14.0024C31.1667 14.0008 30.9261 13.7558 30.9261 13.7558C31.008 13.6903 31.2147 13.8117 31.2147 13.8117C31.2817 13.819 31.2307 13.5611 31.2307 13.5611L31.4524 13.6778C31.5039 13.6778 31.5479 13.6557 31.5836 13.6261L31.5802 13.4758C31.5802 13.4758 31.5998 13.5218 31.6374 13.57Z" fill="#CF142B"/>
<path fill-rule="evenodd" clip-rule="evenodd" d="M26.8752 22L26.5073 21.6786V25.3214H30.8634H32.394H36.75V21.6786L36.3821 22C36.4372 21.6158 36.3537 21.7393 36.2539 21.887C36.2067 21.9569 36.1559 22.0321 36.1144 22.0615C36.0753 22.0892 36.0664 21.9769 36.0577 21.8669C36.0499 21.7696 36.0424 21.674 36.0142 21.6786C36.0142 21.6786 35.9027 21.5206 35.8343 21.5804C35.8207 21.5923 35.8105 21.6803 35.7989 21.7798C35.7864 21.8873 35.7724 22.0083 35.7507 22.0615C35.7255 22.1235 35.6463 22 35.6463 22C35.6463 22 35.6503 21.5332 35.5698 21.4629C35.4894 21.3926 35.4814 22 35.4814 22C35.4814 22 35.3581 21.5501 35.2337 21.5804C35.2128 21.5855 35.2019 21.7031 35.1902 21.8297C35.1789 21.9528 35.1667 22.0843 35.1438 22.1289C35.0968 22.2204 34.9868 21.5804 34.9868 21.5804C34.9868 21.5804 34.9541 22.1046 34.8441 22.1289C34.8257 22.133 34.8087 22.0482 34.79 21.9547C34.7719 21.8648 34.7523 21.7669 34.7282 21.7314C34.6773 21.6565 34.4375 21.9495 34.4375 21.9495L34.2698 21.3447L33.8067 21.6786H32.394H30.8634H29.4506L28.9875 21.3447L28.8198 21.9495C28.8198 21.9495 28.58 21.6565 28.5291 21.7314C28.505 21.7669 28.4854 21.8648 28.4674 21.9547C28.4486 22.0482 28.4316 22.133 28.4132 22.1289C28.3033 22.1046 28.2706 21.5804 28.2706 21.5804C28.2706 21.5804 28.1605 22.2204 28.1135 22.1289C28.0906 22.0843 28.0785 21.9528 28.0671 21.8297C28.0554 21.7031 28.0445 21.5855 28.0236 21.5804C27.8992 21.5501 27.7759 22 27.7759 22C27.7759 22 27.7679 21.3926 27.6875 21.4629C27.6071 21.5332 27.6111 22 27.6111 22C27.6111 22 27.5318 22.1235 27.5066 22.0615C27.4849 22.0083 27.4709 21.8873 27.4584 21.7798C27.4469 21.6803 27.4367 21.5923 27.423 21.5804C27.3546 21.5206 27.2432 21.6786 27.2432 21.6786C27.215 21.674 27.2074 21.7696 27.1997 21.8669C27.1909 21.9769 27.182 22.0892 27.143 22.0615C27.1014 22.0321 27.0506 21.9569 27.0034 21.887C26.9036 21.7393 26.8201 21.6158 26.8752 22Z" fill="#5DC852"/>
<path fill-rule="evenodd" clip-rule="evenodd" d="M34.703 16.94C34.703 16.94 34.7512 17.0503 34.703 17.1591V16.94ZM31.6716 16.7626C31.7545 16.7737 31.829 16.7916 31.8926 16.8069C32.0408 16.8425 32.1301 16.864 32.1301 16.752C32.1301 16.6703 32.3734 16.776 32.7089 16.9216C33.146 17.1114 33.7396 17.3691 34.1555 17.3691C34.5179 17.3691 34.656 17.2648 34.703 17.1591V17.5843C34.703 17.6602 34.7217 17.7503 34.7394 17.835C34.7718 17.9904 34.8005 18.1278 34.703 18.1278C34.5521 18.1278 33.8766 18.5501 33.8766 19.0365C33.8766 19.5229 34.703 19.9225 34.703 19.9225C34.703 19.9225 34.1555 21.6349 33.6767 21.8965C33.3861 22.0553 33.2137 21.925 33.1232 21.8565C33.0645 21.8121 33.0402 21.7937 33.0402 21.8965C33.0402 22.1581 32.6251 22.5271 32.1301 22.6727C31.8101 22.7669 31.9039 22.8391 32.0102 22.921C32.0683 22.9657 32.1301 23.0134 32.1301 23.069C32.1301 23.1949 31.7396 23.0189 31.5829 22.9432C31.4263 23.0189 31.0357 23.1949 31.0357 23.069C31.0357 23.0134 31.0976 22.9657 31.1557 22.921C31.262 22.8391 31.3557 22.7669 31.0357 22.6727C30.5408 22.5271 30.1257 22.1581 30.1257 21.8965C30.1257 21.7937 30.1013 21.8121 30.0427 21.8565C29.9521 21.925 29.7798 22.0553 29.4892 21.8965C29.0103 21.6349 28.4629 19.9225 28.4629 19.9225C28.4629 19.9225 29.2893 19.5229 29.2893 19.0365C29.2893 18.5501 28.6137 18.1278 28.4629 18.1278C28.3653 18.1278 28.394 17.9904 28.4264 17.835C28.4441 17.7503 28.4629 17.6602 28.4629 17.5843V17.1591C28.5098 17.2648 28.648 17.3691 29.0103 17.3691C29.4262 17.3691 30.0199 17.1114 30.457 16.9216C30.7924 16.776 31.0357 16.6703 31.0357 16.752C31.0357 16.864 31.125 16.8425 31.2733 16.8069C31.3369 16.7916 31.4113 16.7737 31.4942 16.7626C31.5021 16.7556 31.5103 16.752 31.519 16.752C31.5407 16.752 31.562 16.7526 31.5829 16.7539C31.6038 16.7526 31.6251 16.752 31.6468 16.752C31.6555 16.752 31.6638 16.7556 31.6716 16.7626ZM28.4629 16.94C28.4629 16.94 28.4146 17.0503 28.4629 17.1591V16.94Z" fill="#4ABCE6"/>
<mask id="mask3_5_11205" style="mask-type:alpha" maskUnits="userSpaceOnUse" x="28" y="16" width="7" height="8">
<path fill-rule="evenodd" clip-rule="evenodd" d="M34.703 16.94C34.703 16.94 34.7512 17.0503 34.703 17.1591V16.94ZM31.6716 16.7626C31.7545 16.7737 31.829 16.7916 31.8926 16.8069C32.0408 16.8425 32.1301 16.864 32.1301 16.752C32.1301 16.6703 32.3734 16.776 32.7089 16.9216C33.146 17.1114 33.7396 17.3691 34.1555 17.3691C34.5179 17.3691 34.656 17.2648 34.703 17.1591V17.5843C34.703 17.6602 34.7217 17.7503 34.7394 17.835C34.7718 17.9904 34.8005 18.1278 34.703 18.1278C34.5521 18.1278 33.8766 18.5501 33.8766 19.0365C33.8766 19.5229 34.703 19.9225 34.703 19.9225C34.703 19.9225 34.1555 21.6349 33.6767 21.8965C33.3861 22.0553 33.2137 21.925 33.1232 21.8565C33.0645 21.8121 33.0402 21.7937 33.0402 21.8965C33.0402 22.1581 32.6251 22.5271 32.1301 22.6727C31.8101 22.7669 31.9039 22.8391 32.0102 22.921C32.0683 22.9657 32.1301 23.0134 32.1301 23.069C32.1301 23.1949 31.7396 23.0189 31.5829 22.9432C31.4263 23.0189 31.0357 23.1949 31.0357 23.069C31.0357 23.0134 31.0976 22.9657 31.1557 22.921C31.262 22.8391 31.3557 22.7669 31.0357 22.6727C30.5408 22.5271 30.1257 22.1581 30.1257 21.8965C30.1257 21.7937 30.1013 21.8121 30.0427 21.8565C29.9521 21.925 29.7798 22.0553 29.4892 21.8965C29.0103 21.6349 28.4629 19.9225 28.4629 19.9225C28.4629 19.9225 29.2893 19.5229 29.2893 19.0365C29.2893 18.5501 28.6137 18.1278 28.4629 18.1278C28.3653 18.1278 28.394 17.9904 28.4264 17.835C28.4441 17.7503 28.4629 17.6602 28.4629 17.5843V17.1591C28.5098 17.2648 28.648 17.3691 29.0103 17.3691C29.4262 17.3691 30.0199 17.1114 30.457 16.9216C30.7924 16.776 31.0357 16.6703 31.0357 16.752C31.0357 16.864 31.125 16.8425 31.2733 16.8069C31.3369 16.7916 31.4113 16.7737 31.4942 16.7626C31.5021 16.7556 31.5103 16.752 31.519 16.752C31.5407 16.752 31.562 16.7526 31.5829 16.7539C31.6038 16.7526 31.6251 16.752 31.6468 16.752C31.6555 16.752 31.6638 16.7556 31.6716 16.7626ZM28.4629 16.94C28.4629 16.94 28.4146 17.0503 28.4629 17.1591V16.94Z" fill="white"/>
</mask>
<g mask="url(#mask3_5_11205)">
<path fill-rule="evenodd" clip-rule="evenodd" d="M28.2733 18.8928C28.2733 18.8928 30.7332 18.6599 32.1777 18.6599C33.6221 18.6599 32.8454 18.7389 33.4006 18.7943C33.9557 18.8497 34.5131 18.8928 34.5131 18.8928V23.2857H28.2733V18.8928Z" fill="white"/>
<path fill-rule="evenodd" clip-rule="evenodd" d="M28.858 18.2727C28.858 18.2727 28.6571 17.9226 29.4726 17.7973C30.2881 17.6721 30.5405 17.6194 30.8496 17.946C31.1586 18.2727 31.7868 19.6792 31.3182 20.0571C30.8496 20.435 30.5231 20.8327 30.3377 20.6944C30.1523 20.5561 30.5488 20.0571 29.5683 20.0571C28.5878 20.0571 28.2528 20.0571 28.2528 20.0571L28.858 18.2727Z" fill="#FFDA3A"/>
<path fill-rule="evenodd" clip-rule="evenodd" d="M32.9895 18.6123L31.2313 19.0915C31.2313 19.0915 31.3907 20.1583 30.9372 20.1583C30.4837 20.1583 30.2905 17.8491 30.2905 17.8491H30.1031L30.7006 20.3886L30.2905 20.6245L31.5463 21.1207L33.6754 20.1583L32.9895 18.6123Z" fill="#B35A1F"/>
</g>
<path fill-rule="evenodd" clip-rule="evenodd" d="M30.457 16.9216C30.0199 17.1114 29.4262 17.3691 29.0103 17.3691C28.7196 17.3691 28.5371 17.3188 28.4629 17.2181V17.5843C28.4629 17.6602 28.4441 17.7503 28.4264 17.835C28.394 17.9904 28.3653 18.1278 28.4629 18.1278C28.6137 18.1278 29.2893 18.5501 29.2893 19.0365C29.2893 19.3608 29.0138 19.6561 28.4629 19.9225C28.8278 21.0641 29.1699 21.7221 29.4892 21.8965C29.7461 22.0369 29.9105 21.9513 30.0122 21.8791C30.0233 21.8712 30.0334 21.8635 30.0427 21.8565C30.1013 21.8121 30.1257 21.7937 30.1257 21.8965C30.1257 21.906 30.1262 21.9157 30.128 21.9313C30.162 22.1898 30.5623 22.5334 31.0357 22.6727C31.3557 22.7669 31.262 22.8391 31.1557 22.921C31.0976 22.9657 31.0357 23.0134 31.0357 23.069C31.0357 23.1684 31.2181 23.1267 31.5829 22.9441C31.9477 23.1267 32.1301 23.1684 32.1301 23.069C32.1301 23.0134 32.0683 22.9657 32.0101 22.921C31.9039 22.8391 31.8101 22.7669 32.1301 22.6727C32.6035 22.5334 33.0038 22.1898 33.0385 21.9254C33.0396 21.9157 33.0401 21.906 33.0401 21.8965C33.0401 21.7937 33.0645 21.8121 33.1259 21.8585C33.1357 21.8658 33.1464 21.8739 33.1581 21.8823C33.2553 21.9513 33.4198 22.0369 33.6767 21.8965C33.9959 21.7221 34.338 21.0641 34.7029 19.9225C34.152 19.6561 33.8766 19.3608 33.8766 19.0365C33.8766 18.5501 34.5521 18.1278 34.7029 18.1278C34.8005 18.1278 34.7718 17.9904 34.7394 17.835C34.7217 17.7503 34.7029 17.6602 34.7029 17.5843V17.2181C34.6287 17.3188 34.4462 17.3691 34.1555 17.3691C33.7396 17.3691 33.146 17.1114 32.7089 16.9216C32.3734 16.776 32.1301 16.6703 32.1301 16.752C32.1301 16.864 32.0408 16.8425 31.8925 16.8069C31.8301 16.7918 31.7573 16.7743 31.6762 16.7632C31.6669 16.7557 31.6571 16.752 31.6468 16.752C31.6251 16.752 31.6038 16.7526 31.5829 16.7539C31.562 16.7526 31.5407 16.752 31.519 16.752C31.5088 16.752 31.499 16.7557 31.4896 16.7632C31.4086 16.7743 31.3357 16.7918 31.2733 16.8069C31.125 16.8425 31.0357 16.864 31.0357 16.752C31.0357 16.6703 30.7924 16.776 30.457 16.9216ZM34.7028 16.9399C34.7537 17.0563 34.7537 17.1491 34.7028 17.2181V16.9399Z" fill="#FFD129"/>
<path fill-rule="evenodd" clip-rule="evenodd" d="M36.6583 13.0427H26.6584V21.6525C26.6584 22.4978 27.0544 22.8292 27.5264 23.2242C27.6664 23.3414 27.8132 23.4642 27.9583 23.6078C28.3809 24.0259 29.6143 24.4581 31.6584 24.9046C32.2181 24.9046 33.1396 24.6322 34.4229 24.0874C35.7062 23.5426 36.4513 22.8577 36.6583 22.0326V13.0427ZM27.5355 22.9395C27.0635 22.5338 26.894 22.2392 26.894 21.6525V13.257H36.4229V22.0078C36.2262 22.7493 35.5344 23.3792 34.3235 23.8932C33.0912 24.4163 32.2046 24.6811 31.6853 24.6901C29.7057 24.2562 28.5085 23.8355 28.1317 23.4627C28.1019 23.4333 28.0714 23.4039 28.0399 23.3745C27.9612 23.301 27.8812 23.2309 27.7776 23.1434C27.7831 23.1481 27.5871 22.9839 27.5355 22.9395Z" fill="black"/>
</g>
<rect x="3" y="2" width="20.25" height="14" fill="#2B409A"/>
<mask id="mask4_5_11205" style="mask-type:alpha" maskUnits="userSpaceOnUse" x="3" y="2" width="21" height="14">
<rect x="3" y="2" width="20.25" height="14" fill="white"/>
</mask>
<g mask="url(#mask4_5_11205)">
<path d="M0.745239 14.9998L5.20131 16.737L23.3512 3.88872L25.7016 1.30719L20.9365 0.726566L13.5336 6.26326L7.57505 9.99369L0.745239 14.9998Z" fill="#F7FCFF"/>
<path d="M1.35522 16.2169L3.62539 17.225L24.8575 1.06732H21.67L1.35522 16.2169Z" fill="#F50100"/>
<path d="M25.5048 14.9998L21.0487 16.737L2.89885 3.88872L0.54837 1.30719L5.3135 0.726566L12.7164 6.26326L18.6749 9.99369L25.5048 14.9998Z" fill="#F7FCFF"/>
<path d="M25.3528 15.8733L23.0826 16.8815L14.0418 9.96351L11.3613 9.19059L0.322273 1.31605H3.50984L14.5427 9.00368L17.4733 9.9305L25.3528 15.8733Z" fill="#F50100"/>
<mask id="path-22-outside-1_5_11205" maskUnits="userSpaceOnUse" x="1" y="0" width="24" height="18" fill="black">
<rect fill="white" x="1" width="24" height="18"/>
<path fill-rule="evenodd" clip-rule="evenodd" d="M14.2326 2H11.9826V8H3V10H11.9826V16H14.2326V10H23.25V8H14.2326V2Z"/>
</mask>
<path fill-rule="evenodd" clip-rule="evenodd" d="M14.2326 2H11.9826V8H3V10H11.9826V16H14.2326V10H23.25V8H14.2326V2Z" fill="#F50100"/>
<path d="M11.9826 2V0.5H10.4826V2H11.9826ZM14.2326 2H15.7326V0.5H14.2326V2ZM11.9826 8V9.5H13.4826V8H11.9826ZM3 8V6.5H1.5V8H3ZM3 10H1.5V11.5H3V10ZM11.9826 10H13.4826V8.5H11.9826V10ZM11.9826 16H10.4826V17.5H11.9826V16ZM14.2326 16V17.5H15.7326V16H14.2326ZM14.2326 10V8.5H12.7326V10H14.2326ZM23.25 10V11.5H24.75V10H23.25ZM23.25 8H24.75V6.5H23.25V8ZM14.2326 8H12.7326V9.5H14.2326V8ZM11.9826 3.5H14.2326V0.5H11.9826V3.5ZM13.4826 8V2H10.4826V8H13.4826ZM3 9.5H11.9826V6.5H3V9.5ZM4.5 10V8H1.5V10H4.5ZM11.9826 8.5H3V11.5H11.9826V8.5ZM13.4826 16V10H10.4826V16H13.4826ZM14.2326 14.5H11.9826V17.5H14.2326V14.5ZM12.7326 10V16H15.7326V10H12.7326ZM23.25 8.5H14.2326V11.5H23.25V8.5ZM21.75 8V10H24.75V8H21.75ZM14.2326 9.5H23.25V6.5H14.2326V9.5ZM12.7326 2V8H15.7326V2H12.7326Z" fill="#F7FCFF" mask="url(#path-22-outside-1_5_11205)"/>
</g>
</g>
</g>
</g>
<defs>
<filter id="filter0_dd_5_11205" x="0" y="0" width="42" height="30" filterUnits="userSpaceOnUse" color-interpolation-filters="sRGB">
<feFlood flood-opacity="0" result="BackgroundImageFix"/>
<feColorMatrix in="SourceAlpha" type="matrix" values="0 0 0 0 0 0 0 0 0 0 0 0 0 0 0 0 0 0 127 0" result="hardAlpha"/>
<feOffset dy="1"/>
<feGaussianBlur stdDeviation="1"/>
<feColorMatrix type="matrix" values="0 0 0 0 0.0627451 0 0 0 0 0.0941176 0 0 0 0 0.156863 0 0 0 0.06 0"/>
<feBlend mode="normal" in2="BackgroundImageFix" result="effect1_dropShadow_5_11205"/>
<feColorMatrix in="SourceAlpha" type="matrix" values="0 0 0 0 0 0 0 0 0 0 0 0 0 0 0 0 0 0 127 0" result="hardAlpha"/>
<feOffset dy="1"/>
<feGaussianBlur stdDeviation="1.5"/>
<feColorMatrix type="matrix" values="0 0 0 0 0.0627451 0 0 0 0 0.0941176 0 0 0 0 0.156863 0 0 0 0.1 0"/>
<feBlend mode="normal" in2="effect1_dropShadow_5_11205" result="effect2_dropShadow_5_11205"/>
<feBlend mode="normal" in="SourceGraphic" in2="effect2_dropShadow_5_11205" result="shape"/>
</filter>
</defs>
</svg>
