<svg width="42" height="30" viewBox="0 0 42 30" fill="none" xmlns="http://www.w3.org/2000/svg">
<g filter="url(#filter0_dd_5_8013)">
<mask id="mask0_5_8013" style="mask-type:alpha" maskUnits="userSpaceOnUse" x="3" y="2" width="36" height="24">
<rect x="3" y="2" width="36" height="24" fill="white"/>
</mask>
<g mask="url(#mask0_5_8013)">
<path fill-rule="evenodd" clip-rule="evenodd" d="M3 2V26H39V2H3Z" fill="#1C7B4D"/>
<mask id="mask1_5_8013" style="mask-type:alpha" maskUnits="userSpaceOnUse" x="3" y="2" width="36" height="24">
<path fill-rule="evenodd" clip-rule="evenodd" d="M3 2V26H39V2H3Z" fill="white"/>
</mask>
<g mask="url(#mask1_5_8013)">
<path fill-rule="evenodd" clip-rule="evenodd" d="M3 2V8H39V2H3Z" fill="#E31D1C"/>
<path fill-rule="evenodd" clip-rule="evenodd" d="M3 20V26H39V20H3Z" fill="#E31D1C"/>
<path fill-rule="evenodd" clip-rule="evenodd" d="M21.2723 16.3785C27.1057 16.4072 28.7486 12.0651 28.7486 12.0651C28.4182 15.7799 26.1067 18.2991 21.2723 18.2991C16.4378 18.2991 14.6626 15.0359 13.7959 11.7807C13.7959 11.7807 15.4388 16.3498 21.2723 16.3785Z" fill="#FECA00"/>
<path fill-rule="evenodd" clip-rule="evenodd" d="M22.8418 11.8137L23.2206 13.7772L21.2369 12.8501L19.2531 13.7772L19.6319 11.8137L18.027 10.2798L20.245 10.2798L21.2369 8.35013L22.2287 10.2798L24.4467 10.2798L22.8418 11.8137Z" fill="#FECA00"/>
</g>
</g>
</g>
<defs>
<filter id="filter0_dd_5_8013" x="0" y="0" width="42" height="30" filterUnits="userSpaceOnUse" color-interpolation-filters="sRGB">
<feFlood flood-opacity="0" result="BackgroundImageFix"/>
<feColorMatrix in="SourceAlpha" type="matrix" values="0 0 0 0 0 0 0 0 0 0 0 0 0 0 0 0 0 0 127 0" result="hardAlpha"/>
<feOffset dy="1"/>
<feGaussianBlur stdDeviation="1"/>
<feColorMatrix type="matrix" values="0 0 0 0 0.0627451 0 0 0 0 0.0941176 0 0 0 0 0.156863 0 0 0 0.06 0"/>
<feBlend mode="normal" in2="BackgroundImageFix" result="effect1_dropShadow_5_8013"/>
<feColorMatrix in="SourceAlpha" type="matrix" values="0 0 0 0 0 0 0 0 0 0 0 0 0 0 0 0 0 0 127 0" result="hardAlpha"/>
<feOffset dy="1"/>
<feGaussianBlur stdDeviation="1.5"/>
<feColorMatrix type="matrix" values="0 0 0 0 0.0627451 0 0 0 0 0.0941176 0 0 0 0 0.156863 0 0 0 0.1 0"/>
<feBlend mode="normal" in2="effect1_dropShadow_5_8013" result="effect2_dropShadow_5_8013"/>
<feBlend mode="normal" in="SourceGraphic" in2="effect2_dropShadow_5_8013" result="shape"/>
</filter>
</defs>
</svg>
