<svg width="42" height="30" viewBox="0 0 42 30" fill="none" xmlns="http://www.w3.org/2000/svg">
<g filter="url(#filter0_dd_5_6642)">
<mask id="mask0_5_6642" style="mask-type:alpha" maskUnits="userSpaceOnUse" x="3" y="2" width="36" height="24">
<rect x="3" y="2" width="36" height="24" fill="white"/>
</mask>
<g mask="url(#mask0_5_6642)">
<path fill-rule="evenodd" clip-rule="evenodd" d="M3 18H39V26H3V18Z" fill="#4E8B1D"/>
<path fill-rule="evenodd" clip-rule="evenodd" d="M3 2H39V8H3V2Z" fill="#4E8B1D"/>
<path d="M3 8.5H1.5V10V18V19.5H3H39H40.5V18V10V8.5H39H3Z" fill="#AF0100" stroke="white" stroke-width="3"/>
<path fill-rule="evenodd" clip-rule="evenodd" d="M21.0027 16.4942L18.1967 18L18.8367 15.0617L16.5 12.8626L19.664 12.7437L21.0027 10L22.3413 12.7437H25.5L23.1687 15.0617L23.8705 18L21.0027 16.4942Z" fill="#FECA00"/>
</g>
</g>
<defs>
<filter id="filter0_dd_5_6642" x="0" y="0" width="42" height="30" filterUnits="userSpaceOnUse" color-interpolation-filters="sRGB">
<feFlood flood-opacity="0" result="BackgroundImageFix"/>
<feColorMatrix in="SourceAlpha" type="matrix" values="0 0 0 0 0 0 0 0 0 0 0 0 0 0 0 0 0 0 127 0" result="hardAlpha"/>
<feOffset dy="1"/>
<feGaussianBlur stdDeviation="1"/>
<feColorMatrix type="matrix" values="0 0 0 0 0.0627451 0 0 0 0 0.0941176 0 0 0 0 0.156863 0 0 0 0.06 0"/>
<feBlend mode="normal" in2="BackgroundImageFix" result="effect1_dropShadow_5_6642"/>
<feColorMatrix in="SourceAlpha" type="matrix" values="0 0 0 0 0 0 0 0 0 0 0 0 0 0 0 0 0 0 127 0" result="hardAlpha"/>
<feOffset dy="1"/>
<feGaussianBlur stdDeviation="1.5"/>
<feColorMatrix type="matrix" values="0 0 0 0 0.0627451 0 0 0 0 0.0941176 0 0 0 0 0.156863 0 0 0 0.1 0"/>
<feBlend mode="normal" in2="effect1_dropShadow_5_6642" result="effect2_dropShadow_5_6642"/>
<feBlend mode="normal" in="SourceGraphic" in2="effect2_dropShadow_5_6642" result="shape"/>
</filter>
</defs>
</svg>
