<svg width="42" height="30" viewBox="0 0 42 30" fill="none" xmlns="http://www.w3.org/2000/svg">
<g filter="url(#filter0_dd_5_5486)">
<mask id="mask0_5_5486" style="mask-type:alpha" maskUnits="userSpaceOnUse" x="3" y="2" width="36" height="24">
<rect x="3" y="2" width="36" height="24" fill="white"/>
</mask>
<g mask="url(#mask0_5_5486)">
<path fill-rule="evenodd" clip-rule="evenodd" d="M3 2V26H39V2H3Z" fill="#F7FCFF"/>
<mask id="mask1_5_5486" style="mask-type:alpha" maskUnits="userSpaceOnUse" x="3" y="2" width="36" height="24">
<path fill-rule="evenodd" clip-rule="evenodd" d="M3 2V26H39V2H3Z" fill="white"/>
</mask>
<g mask="url(#mask1_5_5486)">
<path fill-rule="evenodd" clip-rule="evenodd" d="M3 4V24H39V4H3Z" fill="#FECA00"/>
<path d="M3 10.25H1.25V12V16V17.75H3H39H40.75V16V12V10.25H39H3Z" fill="#272727" stroke="#E31D1C" stroke-width="3.5"/>
<path fill-rule="evenodd" clip-rule="evenodd" d="M3 6V2H39V6H3ZM3 26V22H39V26H3Z" fill="#5EAA22"/>
</g>
<path d="M3.55166 1.16593L2 0.139642V2V26V27.8348L3.54196 26.8404L21.9147 14.9924L23.2014 14.1626L21.9244 13.3179L3.55166 1.16593Z" fill="#F7FCFF" stroke="#272727" stroke-width="2"/>
<mask id="mask2_5_5486" style="mask-type:alpha" maskUnits="userSpaceOnUse" x="1" y="-2" width="25" height="32">
<path d="M3.55166 1.16593L2 0.139642V2V26V27.8348L3.54196 26.8404L21.9147 14.9924L23.2014 14.1626L21.9244 13.3179L3.55166 1.16593Z" fill="white" stroke="white" stroke-width="2"/>
</mask>
<g mask="url(#mask2_5_5486)">
<path fill-rule="evenodd" clip-rule="evenodd" d="M11.4132 16.2783L7.16191 19.3287L9.11195 15.2521L5.76123 12.3839H9.71629L11.3392 8.92505L13.0629 12.3839H17.0112L13.4835 15.2521L15.249 19.3287L11.4132 16.2783Z" fill="#E31D1C"/>
<path fill-rule="evenodd" clip-rule="evenodd" d="M8.64481 10.4215C8.64481 10.4215 8.58309 10.2893 8.94739 10.1723C9.31169 10.0554 9.42281 9.80758 9.70839 9.98995C9.99397 10.1723 10.1726 9.80567 10.2546 10.3315C10.3365 10.8574 10.5623 11.6866 10.5623 11.6866L14.2609 14.1573H13.566C13.566 14.1573 12.4839 15.5705 12.6625 16.8104C12.6625 16.8104 11.916 16.7095 10.904 16.7095C9.89206 16.7095 9.22925 16.925 9.22925 16.925L8.64481 15.0014C8.64481 15.0014 8.85642 14.6782 8.94739 14.4177C9.03835 14.1573 9.41502 14.1092 9.41502 13.902C9.41502 13.6948 9.04349 13.5211 9.22925 12.9848C9.41502 12.4484 9.41502 10.8441 9.41502 10.8441C9.41502 10.8441 8.82791 10.6146 8.94739 10.6146C9.06686 10.6146 9.33921 10.4215 9.1433 10.4215C8.94739 10.4215 8.64481 10.4215 8.64481 10.4215Z" fill="#FECA00"/>
<path d="M10.5623 11.6866L10.4417 11.7195L10.454 11.7646L10.4929 11.7906L13.8487 14.0323H13.566H13.5042L13.4667 14.0813L13.566 14.1573L13.4667 14.0814L13.4666 14.0814L13.4664 14.0817L13.4656 14.0827L13.463 14.0862L13.4534 14.0991C13.4451 14.1103 13.4331 14.1267 13.418 14.1479C13.3878 14.1903 13.3453 14.2518 13.2949 14.3294C13.1942 14.4844 13.0618 14.7043 12.9349 14.964C12.7038 15.4374 12.4829 16.0597 12.5222 16.668C12.4365 16.6588 12.3181 16.6471 12.1728 16.6353C11.8571 16.6099 11.414 16.5845 10.904 16.5845C10.3892 16.5845 9.96289 16.6393 9.66447 16.6943C9.51523 16.7219 9.39784 16.7495 9.31726 16.7704C9.3159 16.7707 9.31455 16.7711 9.31322 16.7714L8.78107 15.0199C8.78253 15.0175 8.78404 15.0151 8.78559 15.0126C8.8075 14.9771 8.83764 14.9272 8.87072 14.8689C8.93605 14.7537 9.01615 14.6 9.0654 14.459C9.09471 14.375 9.17147 14.3195 9.28474 14.2439L9.28808 14.2416C9.3375 14.2086 9.39767 14.1685 9.44429 14.1206C9.49502 14.0685 9.54002 13.9971 9.54002 13.902C9.54002 13.8139 9.50066 13.739 9.46737 13.6829C9.45319 13.659 9.43995 13.6381 9.42725 13.6181C9.40517 13.5832 9.38472 13.5509 9.36379 13.51C9.30775 13.4003 9.2669 13.258 9.34737 13.0257C9.39857 12.8779 9.43456 12.6655 9.46082 12.4384C9.48738 12.2088 9.50497 11.955 9.51665 11.7195C9.52834 11.4838 9.53418 11.2651 9.5371 11.1054C9.53856 11.0255 9.53929 10.9603 9.53965 10.9151L9.53998 10.8627L9.54002 10.8489L9.54002 10.8453L9.54002 10.8444L9.54002 10.8442V10.8441L9.41502 10.8441H9.54002V10.7587L9.46053 10.7276L9.46053 10.7276L9.46052 10.7276L9.46045 10.7276L9.46017 10.7275L9.45898 10.727L9.45423 10.7252L9.43612 10.718L9.37204 10.6923C9.3292 10.675 9.27588 10.6531 9.22275 10.6304C9.2298 10.6252 9.23661 10.6199 9.24314 10.6145C9.26225 10.5987 9.2824 10.5796 9.29887 10.5576C9.31273 10.5392 9.33755 10.5011 9.33713 10.4506C9.33689 10.4221 9.32846 10.3925 9.30981 10.3665C9.29198 10.3416 9.26937 10.3263 9.24984 10.317C9.21371 10.2997 9.17435 10.2965 9.1433 10.2965H9.14215H9.141H9.13984H9.13869H9.13753H9.13637H9.1352H9.13404H9.13287H9.1317H9.13053H9.12935H9.12817H9.127H9.12581H9.12463H9.12344H9.12226H9.12107H9.11988H9.11868H9.11748H9.11629H9.11509H9.11388H9.11268H9.11147H9.11027H9.10906H9.10784H9.10663H9.10541H9.1042H9.10298H9.10176H9.10053H9.09931H9.09808H9.09685H9.09562H9.09439H9.09316H9.09192H9.09069H9.08945H9.08821H9.08697H9.08572H9.08448H9.08323H9.08198H9.08073H9.07948H9.07823H9.07698H9.07572H9.07446H9.07321H9.07195H9.07069H9.06942H9.06816H9.0669H9.06563H9.06436H9.06309H9.06182H9.06055H9.05928H9.05801H9.05673H9.05546H9.05418H9.0529H9.05162H9.05034H9.04906H9.04778H9.0465H9.04521H9.04393H9.04264H9.04135H9.04007H9.03878H9.03749H9.0362H9.03491H9.03361H9.03232H9.03103H9.02973H9.02844H9.02714H9.02584H9.02455H9.02325H9.02195H9.02065H9.01935H9.01805H9.01675H9.01544H9.01414H9.01284H9.01153H9.01023H9.00893H9.00762H9.00631H9.00501H9.0037H9.0024H9.00109H8.99978H8.99847H8.99716H8.99586H8.99455H8.99324H8.99193H8.99062H8.98931H8.988H8.98669H8.98538H8.98407H8.98276H8.98145H8.98014H8.97883H8.97752H8.9762H8.97489H8.97358H8.97227H8.97096H8.9698C8.97494 10.2948 8.9802 10.2931 8.98559 10.2913C9.08738 10.2587 9.17056 10.2171 9.24065 10.178C9.27122 10.161 9.29668 10.1461 9.31958 10.1327C9.35352 10.1128 9.38182 10.0962 9.4127 10.081C9.4589 10.0582 9.49051 10.0498 9.51893 10.0501C9.54612 10.0503 9.58402 10.0588 9.64112 10.0953C9.7975 10.1952 9.95475 10.1719 10.0291 10.1609C10.0434 10.1588 10.0546 10.1571 10.0622 10.1569C10.0686 10.1566 10.0727 10.1569 10.0749 10.1571C10.0752 10.1575 10.0755 10.1579 10.0758 10.1583C10.0879 10.174 10.111 10.2221 10.1311 10.3508C10.1729 10.6193 10.2509 10.9624 10.3177 11.2359C10.3513 11.3732 10.3823 11.494 10.4048 11.5804C10.4161 11.6237 10.4253 11.6583 10.4317 11.6822L10.4391 11.7098L10.441 11.7169L10.4416 11.7188L10.4417 11.7193L10.4417 11.7194L10.4417 11.7194L10.5623 11.6866Z" stroke="#0A0A0A" stroke-width="0.25"/>
</g>
</g>
</g>
<defs>
<filter id="filter0_dd_5_5486" x="0" y="0" width="42" height="30" filterUnits="userSpaceOnUse" color-interpolation-filters="sRGB">
<feFlood flood-opacity="0" result="BackgroundImageFix"/>
<feColorMatrix in="SourceAlpha" type="matrix" values="0 0 0 0 0 0 0 0 0 0 0 0 0 0 0 0 0 0 127 0" result="hardAlpha"/>
<feOffset dy="1"/>
<feGaussianBlur stdDeviation="1"/>
<feColorMatrix type="matrix" values="0 0 0 0 0.0627451 0 0 0 0 0.0941176 0 0 0 0 0.156863 0 0 0 0.06 0"/>
<feBlend mode="normal" in2="BackgroundImageFix" result="effect1_dropShadow_5_5486"/>
<feColorMatrix in="SourceAlpha" type="matrix" values="0 0 0 0 0 0 0 0 0 0 0 0 0 0 0 0 0 0 127 0" result="hardAlpha"/>
<feOffset dy="1"/>
<feGaussianBlur stdDeviation="1.5"/>
<feColorMatrix type="matrix" values="0 0 0 0 0.0627451 0 0 0 0 0.0941176 0 0 0 0 0.156863 0 0 0 0.1 0"/>
<feBlend mode="normal" in2="effect1_dropShadow_5_5486" result="effect2_dropShadow_5_5486"/>
<feBlend mode="normal" in="SourceGraphic" in2="effect2_dropShadow_5_5486" result="shape"/>
</filter>
</defs>
</svg>
