<svg width="42" height="30" viewBox="0 0 42 30" fill="none" xmlns="http://www.w3.org/2000/svg">
<g filter="url(#filter0_dd_5_8391)">
<mask id="mask0_5_8391" style="mask-type:alpha" maskUnits="userSpaceOnUse" x="3" y="2" width="36" height="24">
<rect x="3" y="2" width="36" height="24" fill="white"/>
</mask>
<g mask="url(#mask0_5_8391)">
<path fill-rule="evenodd" clip-rule="evenodd" d="M3 2V26H39V2H3Z" fill="#E31D1C"/>
<mask id="mask1_5_8391" style="mask-type:alpha" maskUnits="userSpaceOnUse" x="3" y="2" width="36" height="24">
<path fill-rule="evenodd" clip-rule="evenodd" d="M3 2V26H39V2H3Z" fill="white"/>
</mask>
<g mask="url(#mask1_5_8391)">
<path fill-rule="evenodd" clip-rule="evenodd" d="M3 2V14H39V2H3Z" fill="#2E42A5"/>
<path fill-rule="evenodd" clip-rule="evenodd" d="M8.39832 13.0532C8.39832 13.0532 9.75581 13.8043 12.9015 13.8043C16.0472 13.8043 17.7169 13.0532 17.7169 13.0532C17.7169 13.0532 15.25 11.7784 13.0442 11.7784C10.8384 11.7784 8.39832 13.0532 8.39832 13.0532Z" fill="black"/>
<path d="M8.47941 8.74222L8.27024 8.87915L8.34426 8.99222H8.47941H17.8453H18.0217L18.0809 8.82597L17.8453 8.74222C18.0809 8.82597 18.0809 8.82588 18.0809 8.82579L18.081 8.82556L18.0812 8.82497L18.0818 8.82322L18.0838 8.81753L18.0905 8.79756C18.0961 8.78054 18.104 8.75619 18.1133 8.72528C18.132 8.66351 18.157 8.57531 18.1828 8.46688C18.2341 8.25079 18.2899 7.9506 18.3054 7.6172C18.3359 6.96095 18.212 6.11119 17.507 5.56646C16.8024 5.02203 15.9119 5.10444 15.1266 5.2789C14.8593 5.33829 14.5879 5.41259 14.3321 5.48263C14.2105 5.51591 14.0924 5.54823 13.98 5.57753C13.6188 5.67166 13.3104 5.73626 13.0586 5.73626C12.8078 5.73626 12.5347 5.6764 12.2219 5.58885C12.1255 5.56188 12.024 5.53184 11.9188 5.50071C11.695 5.43446 11.4547 5.36332 11.2122 5.3066C10.4798 5.13527 9.64128 5.07125 8.7082 5.54098C8.22402 5.78473 7.94042 6.12731 7.80468 6.51237C7.67168 6.88966 7.68863 7.28441 7.759 7.62858C7.82962 7.97394 7.95749 8.28543 8.06553 8.50804C8.1199 8.62006 8.1701 8.71132 8.20708 8.77516C8.22559 8.80711 8.24085 8.83229 8.25173 8.84988L8.26466 8.87049L8.26842 8.87635L8.26958 8.87814L8.26997 8.87874L8.27012 8.87897C8.27018 8.87906 8.27024 8.87915 8.47941 8.74222Z" fill="#FFD83D" stroke="black" stroke-width="0.5"/>
<path d="M7.50305 9.12717L7.397 8.90077L7.18155 9.0017L7.27169 9.22188L8.56877 12.3902L8.65189 12.5933L8.86397 12.5372L8.86399 12.5372L8.86401 12.5372L8.86416 12.5372L8.8651 12.5369L8.86928 12.5359L8.88672 12.5314C8.90231 12.5274 8.92575 12.5215 8.95652 12.5139C9.01807 12.4987 9.10891 12.4769 9.2249 12.4507C9.45694 12.3982 9.78929 12.328 10.1889 12.2579C10.9894 12.1173 12.0534 11.9778 13.1184 11.9778C14.1832 11.9778 15.2273 12.1173 16.0076 12.2577C16.3971 12.3278 16.7194 12.3979 16.9439 12.4503C17.0561 12.4765 17.1438 12.4982 17.2031 12.5134C17.2328 12.5209 17.2553 12.5268 17.2703 12.5308L17.287 12.5353L17.291 12.5364L17.2918 12.5366L17.292 12.5366L17.292 12.5366L17.292 12.5366L17.5035 12.5946L17.5885 12.3925L18.9215 9.22412L19.0147 9.00268L18.7972 8.90077L18.6911 9.12717C18.7972 8.90077 18.7971 8.90073 18.797 8.90068L18.7967 8.90057L18.7961 8.90029L18.7944 8.8995L18.789 8.89701L18.77 8.88856C18.7537 8.88142 18.7302 8.87136 18.6995 8.85881C18.638 8.83369 18.5476 8.79858 18.4281 8.75683C18.189 8.67334 17.8335 8.56335 17.3601 8.45381C16.4133 8.2347 14.9958 8.01758 13.0971 8.01758C11.1983 8.01758 9.78091 8.2347 8.83407 8.45381C8.36071 8.56335 8.00517 8.67334 7.76608 8.75683C7.64654 8.79858 7.55613 8.83369 7.49467 8.85881C7.46394 8.87136 7.44045 8.88142 7.42418 8.88856L7.40518 8.89701L7.39974 8.8995L7.39803 8.90029L7.39743 8.90057L7.3972 8.90068C7.39709 8.90073 7.397 8.90077 7.50305 9.12717Z" fill="#FFD83D" stroke="black" stroke-width="0.5"/>
<path d="M12.9831 6.26509C13.5643 6.26509 13.9894 5.74784 13.9894 5.16981C13.9894 4.59177 13.5643 4.07452 12.9831 4.07452C12.4019 4.07452 11.9768 4.59177 11.9768 5.16981C11.9768 5.74784 12.4019 6.26509 12.9831 6.26509Z" fill="#FFD83D" stroke="black" stroke-width="0.5"/>
<mask id="path-10-outside-1_5_8391" maskUnits="userSpaceOnUse" x="11.1322" y="1" width="4" height="5" fill="black">
<rect fill="white" x="11.1322" y="1" width="4" height="5"/>
<path fill-rule="evenodd" clip-rule="evenodd" d="M13.2666 2H12.6994L12.7724 2.92272L12.1322 2.84528V3.47925L12.7823 3.39965L12.6994 4.85283H13.2666L13.1827 3.39721L13.8339 3.47925V2.84528L13.1945 2.92687L13.2666 2Z"/>
</mask>
<path fill-rule="evenodd" clip-rule="evenodd" d="M13.2666 2H12.6994L12.7724 2.92272L12.1322 2.84528V3.47925L12.7823 3.39965L12.6994 4.85283H13.2666L13.1827 3.39721L13.8339 3.47925V2.84528L13.1945 2.92687L13.2666 2Z" fill="#FFD83D"/>
<path d="M12.6994 2V1.5H12.1583L12.201 2.03944L12.6994 2ZM13.2666 2L13.7651 2.03882L13.8071 1.5H13.2666V2ZM12.7724 2.92272L12.7124 3.4191L13.3191 3.49248L13.2709 2.88328L12.7724 2.92272ZM12.1322 2.84528L12.1922 2.3489L11.6322 2.28116V2.84528H12.1322ZM12.1322 3.47925H11.6322V4.0442L12.193 3.97554L12.1322 3.47925ZM12.7823 3.39965L13.2815 3.42811L13.3155 2.83063L12.7215 2.90336L12.7823 3.39965ZM12.6994 4.85283L12.2002 4.82437L12.1701 5.35283H12.6994V4.85283ZM13.2666 4.85283V5.35283H13.7963L13.7658 4.82403L13.2666 4.85283ZM13.1827 3.39721L13.2452 2.90113L12.6489 2.82601L12.6835 3.426L13.1827 3.39721ZM13.8339 3.47925L13.7714 3.97532L14.3339 4.04619V3.47925H13.8339ZM13.8339 2.84528H14.3339V2.27743L13.7706 2.3493L13.8339 2.84528ZM13.1945 2.92687L12.696 2.88805L12.6483 3.50061L13.2578 3.42285L13.1945 2.92687ZM12.6994 2.5H13.2666V1.5H12.6994V2.5ZM13.2709 2.88328L13.1979 1.96056L12.201 2.03944L12.274 2.96216L13.2709 2.88328ZM12.0722 3.34167L12.7124 3.4191L12.8325 2.42634L12.1922 2.3489L12.0722 3.34167ZM12.6322 3.47925V2.84528H11.6322V3.47925H12.6322ZM12.7215 2.90336L12.0714 2.98295L12.193 3.97554L12.843 3.89595L12.7215 2.90336ZM13.1986 4.88129L13.2815 3.42811L12.2831 3.37119L12.2002 4.82437L13.1986 4.88129ZM13.2666 4.35283H12.6994V5.35283H13.2666V4.35283ZM12.6835 3.426L12.7675 4.88163L13.7658 4.82403L13.6818 3.36841L12.6835 3.426ZM13.8964 2.98317L13.2452 2.90113L13.1202 3.89328L13.7714 3.97532L13.8964 2.98317ZM13.3339 2.84528V3.47925H14.3339V2.84528H13.3339ZM13.2578 3.42285L13.8972 3.34126L13.7706 2.3493L13.1312 2.43089L13.2578 3.42285ZM12.7682 1.96118L12.696 2.88805L13.693 2.96568L13.7651 2.03882L12.7682 1.96118Z" fill="black" mask="url(#path-10-outside-1_5_8391)"/>
</g>
</g>
</g>
<defs>
<filter id="filter0_dd_5_8391" x="0" y="0" width="42" height="30" filterUnits="userSpaceOnUse" color-interpolation-filters="sRGB">
<feFlood flood-opacity="0" result="BackgroundImageFix"/>
<feColorMatrix in="SourceAlpha" type="matrix" values="0 0 0 0 0 0 0 0 0 0 0 0 0 0 0 0 0 0 127 0" result="hardAlpha"/>
<feOffset dy="1"/>
<feGaussianBlur stdDeviation="1"/>
<feColorMatrix type="matrix" values="0 0 0 0 0.0627451 0 0 0 0 0.0941176 0 0 0 0 0.156863 0 0 0 0.06 0"/>
<feBlend mode="normal" in2="BackgroundImageFix" result="effect1_dropShadow_5_8391"/>
<feColorMatrix in="SourceAlpha" type="matrix" values="0 0 0 0 0 0 0 0 0 0 0 0 0 0 0 0 0 0 127 0" result="hardAlpha"/>
<feOffset dy="1"/>
<feGaussianBlur stdDeviation="1.5"/>
<feColorMatrix type="matrix" values="0 0 0 0 0.0627451 0 0 0 0 0.0941176 0 0 0 0 0.156863 0 0 0 0.1 0"/>
<feBlend mode="normal" in2="effect1_dropShadow_5_8391" result="effect2_dropShadow_5_8391"/>
<feBlend mode="normal" in="SourceGraphic" in2="effect2_dropShadow_5_8391" result="shape"/>
</filter>
</defs>
</svg>
