<svg width="42" height="30" viewBox="0 0 42 30" fill="none" xmlns="http://www.w3.org/2000/svg">
<g filter="url(#filter0_dd_5_5881)">
<mask id="mask0_5_5881" style="mask-type:alpha" maskUnits="userSpaceOnUse" x="3" y="2" width="36" height="24">
<rect x="3" y="2" width="36" height="24" fill="white"/>
</mask>
<g mask="url(#mask0_5_5881)">
<path fill-rule="evenodd" clip-rule="evenodd" d="M3 2V26H39V2H3Z" fill="#F7FCFF"/>
<mask id="mask1_5_5881" style="mask-type:alpha" maskUnits="userSpaceOnUse" x="3" y="2" width="36" height="24">
<path fill-rule="evenodd" clip-rule="evenodd" d="M3 2V26H39V2H3Z" fill="white"/>
</mask>
<g mask="url(#mask1_5_5881)">
<rect x="3" y="4" width="36" height="3" fill="#2E42A5"/>
<rect x="3" y="10" width="36" height="3" fill="#2E42A5"/>
<rect x="3" y="16" width="36" height="3" fill="#2E42A5"/>
<rect x="3" y="21" width="36" height="3" fill="#2E42A5"/>
<rect x="3" y="2" width="15.75" height="14" fill="#F7FCFF"/>
<path fill-rule="evenodd" clip-rule="evenodd" d="M8.38026 4.58234C8.29781 4.57742 8.22583 4.63232 8.21949 4.70496C8.18864 5.0581 8.53835 5.37914 8.73195 5.55688L8.75104 5.57442C8.78162 5.60256 8.81294 5.63036 8.85218 5.66442C8.85216 5.6644 8.94374 5.74342 8.9688 5.76545C9.13693 5.91325 9.17337 6.05168 9.21429 6.20711L9.22442 6.24534C9.24211 6.31119 9.26031 6.3908 9.28029 6.47822L9.28029 6.47824L9.28029 6.47825C9.36885 6.86572 9.49246 7.40654 9.76245 7.58283C9.82858 7.62601 10.2919 7.36951 10.3415 7.31089C10.359 7.29021 10.4108 7.25598 10.4676 7.21845C10.5718 7.14958 10.6929 7.06957 10.6501 7.04163C10.3674 6.85702 10.1526 6.40963 9.87353 5.76545C9.72455 5.46214 9.33442 5.26934 9.01068 5.10935C8.73416 4.9727 8.50607 4.85997 8.51806 4.72277C8.5244 4.65013 8.46271 4.58726 8.38026 4.58234ZM12.9335 4.68179C12.8933 4.61765 12.8023 4.59389 12.7303 4.62872C12.3803 4.79806 12.2679 5.23361 12.2056 5.47474L12.1994 5.49853C12.1895 5.53665 12.1804 5.57514 12.1696 5.62294C12.1696 5.62292 12.1449 5.73422 12.1378 5.7649C12.0899 5.97074 11.9792 6.0733 11.8548 6.18846L11.8243 6.21683C11.7717 6.2659 11.7065 6.32283 11.6349 6.38534C11.3176 6.66239 10.8746 7.04909 10.8554 7.34638C10.8506 7.41919 11.345 7.62486 11.4273 7.62995C11.4564 7.63174 11.5169 7.65171 11.5832 7.6736C11.7049 7.71378 11.8464 7.76046 11.8494 7.71333C11.8696 7.40202 12.1748 6.99824 12.6306 6.43937C12.8356 6.16311 12.805 5.76727 12.7796 5.43879C12.758 5.15822 12.7401 4.92679 12.8761 4.861C12.9481 4.82617 12.9738 4.74593 12.9335 4.68179ZM15.843 7.03065C15.9224 7.04882 15.9707 7.12137 15.951 7.19268C15.9312 7.264 15.8508 7.30709 15.7714 7.28892C15.6215 7.25461 15.457 7.4347 15.2576 7.65303C15.0241 7.90864 14.7428 8.21667 14.3809 8.29443C13.6187 8.42684 13.0858 8.53716 12.8321 8.75259C12.7937 8.78521 12.7261 8.66534 12.6679 8.56216C12.6362 8.50592 12.6073 8.45465 12.5874 8.43573C12.5311 8.38208 12.3273 7.93199 12.3867 7.8816C12.6289 7.67587 13.2495 7.66158 13.6942 7.65134L13.6942 7.65134C13.7945 7.64903 13.8859 7.64692 13.9619 7.64287L14.006 7.64064C14.1853 7.63182 14.345 7.62395 14.538 7.50243C14.5667 7.48432 14.6702 7.41788 14.6702 7.4179C14.7147 7.38946 14.7509 7.36687 14.7874 7.34499L14.8102 7.33132C15.0407 7.19271 15.4571 6.94233 15.843 7.03065ZM5.61311 7.47398C5.5509 7.52232 5.54367 7.60638 5.59697 7.66173C5.85608 7.93083 6.35874 7.93804 6.63703 7.94203C6.64645 7.94216 6.6556 7.94229 6.66449 7.94243C6.70849 7.94311 6.75276 7.94308 6.8076 7.9425C6.80757 7.9425 6.93518 7.94082 6.97042 7.94064C7.20689 7.93947 7.34278 8.01445 7.49535 8.09864C7.50775 8.10548 7.52025 8.11238 7.53293 8.11931C7.59783 8.15476 7.67404 8.19962 7.75772 8.24889C8.12857 8.46721 8.64619 8.77193 8.97734 8.72689C9.05845 8.71585 9.18199 8.24329 9.17047 8.17063C9.1664 8.145 9.1758 8.08825 9.1861 8.02601C9.205 7.91182 9.22696 7.77915 9.17446 7.78629C8.82769 7.83346 8.31993 7.6521 7.61017 7.37198C7.26354 7.25116 6.83431 7.36004 6.47812 7.45039C6.17388 7.52756 5.92293 7.59122 5.82225 7.48667C5.76896 7.43131 5.67532 7.42563 5.61311 7.47398Z" fill="#FFC125"/>
<path d="M8.21949 4.70496L8.2942 4.71148V4.71148L8.21949 4.70496ZM8.73195 5.55688L8.7827 5.50165L8.78267 5.50163L8.73195 5.55688ZM8.75104 5.57442L8.80184 5.51924L8.80179 5.51919L8.75104 5.57442ZM8.85218 5.66442L8.80302 5.72106L8.90157 5.60798L8.85218 5.66442ZM8.9688 5.76545L9.01831 5.70912L8.9688 5.76545ZM9.21429 6.20711L9.14176 6.2262L9.14179 6.22633L9.21429 6.20711ZM9.22442 6.24534L9.15192 6.26455L9.15199 6.26479L9.22442 6.24534ZM9.28029 6.47822L9.35344 6.4617L9.3534 6.46151L9.28029 6.47822ZM9.28029 6.47824L9.20713 6.49476L9.20718 6.49495L9.28029 6.47824ZM9.28029 6.47825L9.35341 6.46154L9.35341 6.46154L9.28029 6.47825ZM9.76245 7.58283L9.80346 7.52003L9.76245 7.58283ZM10.3415 7.31089L10.3987 7.35936L10.3415 7.31089ZM10.4676 7.21845L10.4263 7.15588V7.15588L10.4676 7.21845ZM10.6501 7.04163L10.6091 7.10443V7.10443L10.6501 7.04163ZM9.87353 5.76545L9.94243 5.7356L9.94085 5.73238L9.87353 5.76545ZM9.01068 5.10935L8.97745 5.17659L9.01068 5.10935ZM8.51806 4.72277L8.59277 4.7293V4.7293L8.51806 4.72277ZM12.7303 4.62872L12.7629 4.69623V4.69623L12.7303 4.62872ZM12.9335 4.68179L12.87 4.72166L12.9335 4.68179ZM12.2056 5.47474L12.2782 5.49352L12.2782 5.49349L12.2056 5.47474ZM12.1994 5.49853L12.272 5.51738L12.2721 5.51731L12.1994 5.49853ZM12.1696 5.62294L12.0964 5.6066L12.2428 5.63942L12.1696 5.62294ZM12.1378 5.7649L12.2109 5.78189V5.78189L12.1378 5.7649ZM11.8548 6.18846L11.8038 6.13343L11.8038 6.13351L11.8548 6.18846ZM11.8243 6.21683L11.7732 6.16188L11.773 6.16203L11.8243 6.21683ZM11.6349 6.38534L11.5856 6.32884L11.6349 6.38534ZM10.8554 7.34638L10.9302 7.35124V7.35123L10.8554 7.34638ZM11.4273 7.62995L11.4227 7.70481L11.4273 7.62995ZM11.5832 7.6736L11.6067 7.60238H11.6067L11.5832 7.6736ZM11.8494 7.71333L11.9243 7.71818V7.71818L11.8494 7.71333ZM12.6306 6.43937L12.6887 6.48682L12.6908 6.48406L12.6306 6.43937ZM12.7796 5.43879L12.8544 5.43302L12.7796 5.43879ZM12.8761 4.861L12.9088 4.92851L12.8761 4.861ZM15.951 7.19268L15.8787 7.17265L15.8787 7.17265L15.951 7.19268ZM15.843 7.03065L15.8598 6.95755L15.843 7.03065ZM15.7714 7.28892L15.7882 7.21581L15.7714 7.28892ZM15.2576 7.65303L15.2022 7.60245V7.60245L15.2576 7.65303ZM14.3809 8.29443L14.3937 8.36838L14.3966 8.36775L14.3809 8.29443ZM12.8321 8.75259L12.8807 8.80976H12.8807L12.8321 8.75259ZM12.6679 8.56216L12.6026 8.59901L12.6026 8.59901L12.6679 8.56216ZM12.5874 8.43573L12.6391 8.38142V8.38142L12.5874 8.43573ZM12.3867 7.8816L12.3381 7.82444L12.3867 7.8816ZM13.6942 7.65134L13.6959 7.72632L13.6968 7.72629L13.6942 7.65134ZM13.6942 7.65134L13.6925 7.57635L13.6915 7.57638L13.6942 7.65134ZM13.9619 7.64287L13.9581 7.56797L13.9579 7.56798L13.9619 7.64287ZM14.006 7.64064L14.0023 7.56573L14.0022 7.56574L14.006 7.64064ZM14.538 7.50243L14.5779 7.5659L14.5779 7.5659L14.538 7.50243ZM14.6702 7.4179L14.6297 7.35473L14.7105 7.48112L14.6702 7.4179ZM14.7874 7.34499L14.826 7.40931L14.8261 7.40928L14.7874 7.34499ZM14.8102 7.33132L14.8488 7.39562L14.8488 7.3956L14.8102 7.33132ZM5.59697 7.66173L5.65099 7.60971H5.65099L5.59697 7.66173ZM5.61311 7.47398L5.65913 7.5332H5.65913L5.61311 7.47398ZM6.63703 7.94203L6.63596 8.01702H6.63596L6.63703 7.94203ZM6.66449 7.94243L6.66565 7.86744H6.66565L6.66449 7.94243ZM6.8076 7.9425L6.80839 8.0175L6.80699 7.8675L6.8076 7.9425ZM6.97042 7.94064L6.97079 8.01564H6.97079L6.97042 7.94064ZM7.49535 8.09864L7.45912 8.16431L7.45912 8.16431L7.49535 8.09864ZM7.53293 8.11931L7.56888 8.05349L7.56888 8.05349L7.53293 8.11931ZM7.75772 8.24889L7.79577 8.18425L7.75772 8.24889ZM8.97734 8.72689L8.98745 8.8012H8.98745L8.97734 8.72689ZM9.17047 8.17063L9.0964 8.18238V8.18238L9.17047 8.17063ZM9.1861 8.02601L9.1121 8.01376H9.1121L9.1861 8.02601ZM9.17446 7.78629L9.16435 7.71197L9.17446 7.78629ZM7.61017 7.37198L7.63772 7.30216L7.63485 7.30116L7.61017 7.37198ZM6.47812 7.45039L6.49656 7.52309L6.47812 7.45039ZM5.82225 7.48667L5.87628 7.43465L5.87628 7.43465L5.82225 7.48667ZM8.2942 4.71148C8.2963 4.68744 8.32522 4.65419 8.37579 4.6572L8.38473 4.50747C8.27041 4.50065 8.15536 4.57719 8.14477 4.69843L8.2942 4.71148ZM8.78267 5.50163C8.68531 5.41224 8.5548 5.29216 8.45198 5.15227C8.34856 5.01157 8.28111 4.8614 8.2942 4.71148L8.14477 4.69843C8.12702 4.90166 8.219 5.08857 8.33112 5.24111C8.44384 5.39447 8.58499 5.52377 8.68123 5.61213L8.78267 5.50163ZM8.80179 5.51919L8.7827 5.50165L8.68121 5.6121L8.7003 5.62965L8.80179 5.51919ZM8.90135 5.60778C8.86245 5.57402 8.8317 5.54673 8.80184 5.51924L8.70025 5.6296C8.73153 5.6584 8.76344 5.6867 8.80302 5.72106L8.90135 5.60778ZM9.01831 5.70912C9.0055 5.69786 8.97608 5.67237 8.95014 5.64994C8.93711 5.63867 8.92487 5.62809 8.91589 5.62034C8.9114 5.61646 8.90772 5.61328 8.90517 5.61108C8.90389 5.60997 8.90289 5.60911 8.90221 5.60853C8.90188 5.60824 8.90162 5.60801 8.90144 5.60786C8.90135 5.60779 8.90129 5.60773 8.90124 5.60769C8.90122 5.60767 8.9012 5.60766 8.90119 5.60765C8.90118 5.60764 8.90118 5.60763 8.90117 5.60763C8.90117 5.60763 8.90116 5.60762 8.90116 5.60762C8.90114 5.6076 8.79555 5.61525 8.80279 5.72086L8.90157 5.60798C8.90882 5.71359 8.80322 5.72124 8.80321 5.72122C8.80321 5.72122 8.8032 5.72122 8.8032 5.72122C8.8032 5.72121 8.8032 5.72122 8.80321 5.72122C8.80322 5.72123 8.80323 5.72124 8.80325 5.72126C8.80329 5.7213 8.80336 5.72135 8.80345 5.72143C8.80362 5.72158 8.80387 5.7218 8.80421 5.72209C8.80489 5.72267 8.80588 5.72353 8.80715 5.72463C8.8097 5.72682 8.81337 5.72999 8.81785 5.73386C8.82682 5.7416 8.83903 5.75216 8.85202 5.76339C8.87814 5.78598 8.90703 5.81101 8.91928 5.82178L9.01831 5.70912ZM9.28682 6.18802C9.24524 6.03006 9.20427 5.87258 9.01831 5.70912L8.91928 5.82178C9.0696 5.95391 9.10151 6.07329 9.14176 6.2262L9.28682 6.18802ZM9.29692 6.22612L9.28679 6.1879L9.14179 6.22633L9.15192 6.26455L9.29692 6.22612ZM9.3534 6.46151C9.33352 6.37454 9.31499 6.29339 9.29685 6.22588L9.15199 6.26479C9.16923 6.32899 9.18709 6.40707 9.20717 6.49493L9.3534 6.46151ZM9.35345 6.46172L9.35344 6.4617L9.20713 6.49474L9.20713 6.49476L9.35345 6.46172ZM9.35341 6.46154L9.35341 6.46153L9.20718 6.49495L9.20718 6.49497L9.35341 6.46154ZM9.80346 7.52003C9.69028 7.44613 9.59873 7.28757 9.52372 7.08382C9.44994 6.88344 9.39789 6.65616 9.35341 6.46154L9.20718 6.49496C9.25126 6.68782 9.30528 6.92468 9.38295 7.13565C9.45938 7.34325 9.56463 7.54324 9.72145 7.64563L9.80346 7.52003ZM10.2843 7.26241C10.2848 7.26185 10.2791 7.26754 10.2615 7.28015C10.2458 7.29135 10.225 7.30502 10.2001 7.32028C10.1505 7.35075 10.0877 7.38597 10.0242 7.41814C9.96043 7.45049 9.89802 7.47873 9.84888 7.49608C9.82402 7.50485 9.80522 7.50988 9.79266 7.51186C9.78638 7.51284 9.78396 7.51268 9.7844 7.51271C9.78476 7.51274 9.78673 7.51289 9.78978 7.51373C9.79284 7.51458 9.79781 7.51635 9.80346 7.52003L9.72145 7.64563C9.74047 7.65805 9.76044 7.66143 9.77422 7.66237C9.78873 7.66335 9.80309 7.66205 9.81591 7.66004C9.84153 7.65602 9.87016 7.64764 9.89881 7.63752C9.95668 7.61709 10.0256 7.58563 10.0921 7.55193C10.1589 7.51805 10.2253 7.48085 10.2787 7.44808C10.3053 7.43172 10.3293 7.41608 10.3487 7.4022C10.3661 7.38973 10.3859 7.37458 10.3987 7.35936L10.2843 7.26241ZM10.4263 7.15588C10.3982 7.17443 10.3698 7.19315 10.3463 7.20989C10.3249 7.22513 10.3 7.24387 10.2843 7.26241L10.3987 7.35936C10.3987 7.35938 10.4011 7.35676 10.4081 7.35108C10.4145 7.34583 10.4229 7.3395 10.4333 7.33208C10.4543 7.31716 10.4802 7.30001 10.509 7.28102L10.4263 7.15588ZM10.6091 7.10443C10.5995 7.09815 10.5868 7.08425 10.5843 7.0631C10.5823 7.04602 10.5885 7.03532 10.5887 7.03489C10.5889 7.03465 10.5837 7.04203 10.5655 7.05744C10.5317 7.08603 10.4797 7.12054 10.4263 7.15588L10.509 7.28102C10.5597 7.24749 10.6203 7.20757 10.6624 7.17195C10.6821 7.15525 10.7058 7.13309 10.7198 7.10783C10.727 7.0949 10.7364 7.07282 10.7333 7.04575C10.7297 7.01461 10.7114 6.9921 10.6911 6.97883L10.6091 7.10443ZM9.80471 5.79526C9.94414 6.11713 10.0691 6.39368 10.1954 6.61327C10.3212 6.83206 10.4528 7.00239 10.6091 7.10443L10.6911 6.97883C10.5646 6.89626 10.4474 6.7506 10.3254 6.53849C10.2039 6.32719 10.082 6.05795 9.94235 5.73564L9.80471 5.79526ZM8.97745 5.17659C9.14017 5.257 9.31392 5.34301 9.46557 5.44575C9.61757 5.54873 9.74005 5.66381 9.80621 5.79851L9.94085 5.73238C9.85803 5.56378 9.71095 5.43081 9.54971 5.32157C9.38811 5.21209 9.20494 5.12169 9.04391 5.04212L8.97745 5.17659ZM8.44334 4.71624C8.43829 4.77401 8.45947 4.82472 8.4911 4.86686C8.52203 4.90806 8.56544 4.94464 8.61347 4.97792C8.70912 5.04418 8.84103 5.10917 8.97745 5.17659L9.04391 5.04212C8.90381 4.97288 8.78342 4.91318 8.69889 4.85462C8.65683 4.82548 8.62818 4.79961 8.61107 4.77681C8.59466 4.75496 8.59182 4.74013 8.59277 4.7293L8.44334 4.71624ZM8.37579 4.6572C8.42551 4.66017 8.44524 4.69451 8.44334 4.71624L8.59277 4.7293C8.60356 4.60575 8.49991 4.51434 8.38473 4.50747L8.37579 4.6572ZM12.7629 4.69623C12.8035 4.67661 12.8518 4.69265 12.87 4.72166L12.9971 4.64192C12.9347 4.54265 12.801 4.51117 12.6976 4.56121L12.7629 4.69623ZM12.2782 5.49349C12.3095 5.37234 12.3515 5.21042 12.4272 5.0582C12.5028 4.90618 12.6085 4.77097 12.7629 4.69623L12.6976 4.56121C12.5021 4.65581 12.3766 4.82305 12.2929 4.99142C12.2093 5.15959 12.164 5.33601 12.133 5.456L12.2782 5.49349ZM12.2721 5.51731L12.2782 5.49352L12.133 5.45596L12.1268 5.47975L12.2721 5.51731ZM12.2428 5.63942C12.2534 5.59212 12.2624 5.55447 12.272 5.51738L12.1269 5.47968C12.1167 5.51884 12.1073 5.55817 12.0964 5.60647L12.2428 5.63942ZM12.2109 5.78189C12.2145 5.76614 12.2226 5.73026 12.2296 5.69874C12.2331 5.68288 12.2364 5.66799 12.2389 5.65707C12.2401 5.65161 12.2411 5.64713 12.2418 5.64403C12.2421 5.64247 12.2424 5.64126 12.2426 5.64044C12.2426 5.64003 12.2427 5.63971 12.2428 5.6395C12.2428 5.63939 12.2428 5.63931 12.2428 5.63926C12.2428 5.63923 12.2428 5.63921 12.2428 5.6392C12.2428 5.63919 12.2428 5.63919 12.2428 5.63918C12.2428 5.63918 12.2428 5.63918 12.2428 5.63917C12.2428 5.63917 12.1859 5.54973 12.0964 5.6066L12.2428 5.63929C12.1533 5.69616 12.0964 5.60672 12.0964 5.60672C12.0964 5.60672 12.0964 5.60672 12.0964 5.60672C12.0964 5.60672 12.0964 5.60672 12.0964 5.60673C12.0964 5.60674 12.0964 5.60676 12.0964 5.60679C12.0964 5.60684 12.0963 5.60692 12.0963 5.60702C12.0963 5.60723 12.0962 5.60755 12.0961 5.60796C12.0959 5.60877 12.0957 5.60998 12.0953 5.61153C12.0946 5.61462 12.0936 5.61908 12.0924 5.62453C12.09 5.63543 12.0867 5.65028 12.0832 5.66608C12.0761 5.69787 12.0682 5.73298 12.0648 5.74791L12.2109 5.78189ZM11.9058 6.24349C12.0305 6.12796 12.1574 6.01192 12.2109 5.78189L12.0648 5.74791C12.0225 5.92957 11.9278 6.01865 11.8038 6.13343L11.9058 6.24349ZM11.8753 6.27179L11.9058 6.24341L11.8038 6.13351L11.7732 6.16188L11.8753 6.27179ZM11.6842 6.44184C11.7555 6.3796 11.8218 6.32175 11.8755 6.27163L11.773 6.16203C11.7217 6.21004 11.6575 6.26606 11.5856 6.32884L11.6842 6.44184ZM10.9302 7.35123C10.9339 7.2935 10.959 7.22541 11.0051 7.14821C11.0508 7.07164 11.1143 6.99087 11.1889 6.90866C11.3383 6.744 11.5249 6.58095 11.6842 6.44184L11.5856 6.32884C11.4276 6.46678 11.2341 6.6356 11.0778 6.80788C10.9996 6.89414 10.929 6.98309 10.8763 7.07131C10.824 7.15888 10.7864 7.25062 10.7805 7.34152L10.9302 7.35123ZM11.4319 7.55509C11.4324 7.55512 11.43 7.55495 11.4235 7.5535C11.4174 7.55216 11.4096 7.55013 11.3999 7.5473C11.3806 7.54166 11.3562 7.53351 11.3283 7.52329C11.2724 7.50288 11.2049 7.47519 11.14 7.44539C11.0746 7.41541 11.0141 7.3843 10.9711 7.35724C10.9493 7.34349 10.9349 7.33255 10.9269 7.32496C10.9229 7.32114 10.9228 7.32023 10.924 7.32227C10.9249 7.32371 10.9313 7.33431 10.9302 7.35124L10.7805 7.34152C10.7788 7.36755 10.7885 7.38829 10.7962 7.40075C10.8042 7.4138 10.8142 7.42478 10.8235 7.43356C10.842 7.45118 10.866 7.46829 10.8912 7.48414C10.9422 7.51628 11.0095 7.55056 11.0774 7.58173C11.1458 7.61309 11.217 7.64232 11.2768 7.66418C11.3067 7.6751 11.3344 7.68441 11.3579 7.69128C11.3794 7.69757 11.4032 7.7036 11.4227 7.70481L11.4319 7.55509ZM11.6067 7.60238C11.5739 7.59155 11.5409 7.58066 11.5124 7.57228C11.486 7.56451 11.456 7.55658 11.4319 7.55509L11.4227 7.70481C11.4277 7.70511 11.4424 7.70806 11.4701 7.71619C11.4957 7.72373 11.5262 7.73376 11.5597 7.74483L11.6067 7.60238ZM11.7746 7.70847C11.7756 7.69225 11.7843 7.67597 11.7984 7.66586C11.809 7.65824 11.8175 7.65789 11.8159 7.65806C11.8126 7.65839 11.8006 7.65796 11.7764 7.65283C11.7303 7.64308 11.669 7.62293 11.6067 7.60238L11.5597 7.74483C11.6192 7.76445 11.6894 7.78773 11.7453 7.79957C11.772 7.80525 11.8035 7.81016 11.8314 7.80725C11.8454 7.80579 11.8664 7.80167 11.8858 7.78774C11.9087 7.77132 11.9224 7.74619 11.9243 7.71818L11.7746 7.70847ZM12.5724 6.39196C12.3447 6.67117 12.152 6.91479 12.0137 7.12842C11.8764 7.34048 11.786 7.53279 11.7746 7.70847L11.9243 7.71818C11.9331 7.58255 12.0053 7.41733 12.1396 7.20995C12.2728 7.00414 12.4606 6.76644 12.6887 6.48677L12.5724 6.39196ZM12.7049 5.44457C12.7176 5.60986 12.731 5.78484 12.7168 5.95232C12.7026 6.11937 12.6614 6.27195 12.5703 6.39467L12.6908 6.48406C12.8047 6.33053 12.8508 6.14706 12.8662 5.96501C12.8816 5.78338 12.867 5.59621 12.8544 5.43302L12.7049 5.44457ZM12.8434 4.79349C12.738 4.84451 12.7045 4.95534 12.6941 5.06211C12.6835 5.17122 12.6942 5.30664 12.7049 5.44457L12.8544 5.43302C12.8434 5.29038 12.8344 5.1698 12.8434 5.0766C12.8527 4.98106 12.8782 4.94328 12.9088 4.92851L12.8434 4.79349ZM12.87 4.72166C12.8841 4.74416 12.8794 4.7761 12.8434 4.79349L12.9088 4.92851C13.0168 4.87623 13.0635 4.74771 12.9971 4.64192L12.87 4.72166ZM16.0232 7.21272C16.0563 7.0934 15.9736 6.9836 15.8598 6.95755L15.8263 7.10376C15.8712 7.11404 15.8851 7.14933 15.8787 7.17265L16.0232 7.21272ZM15.7547 7.36203C15.8669 7.38771 15.9911 7.32861 16.0232 7.21272L15.8787 7.17265C15.8713 7.1994 15.8348 7.22647 15.7882 7.21581L15.7547 7.36203ZM15.313 7.70361C15.414 7.59295 15.5007 7.49833 15.58 7.43473C15.6615 7.36935 15.7155 7.35306 15.7547 7.36203L15.7882 7.21581C15.6774 7.19047 15.5742 7.24707 15.4861 7.31773C15.3958 7.39019 15.3006 7.49478 15.2022 7.60245L15.313 7.70361ZM14.3966 8.36775C14.5935 8.32545 14.7651 8.22131 14.9149 8.09843C15.0646 7.97576 15.1968 7.83078 15.313 7.70361L15.2022 7.60245C15.0849 7.7309 14.9597 7.86774 14.8198 7.98243C14.6802 8.0969 14.5301 8.18565 14.3651 8.2211L14.3966 8.36775ZM12.8807 8.80976C12.9944 8.71318 13.1776 8.63517 13.4356 8.56473C13.6919 8.49472 14.0124 8.43457 14.3937 8.36832L14.368 8.22053C13.9872 8.2867 13.6601 8.34791 13.396 8.42003C13.1336 8.4917 12.9235 8.57658 12.7836 8.69543L12.8807 8.80976ZM12.6026 8.59901C12.6309 8.64912 12.6649 8.7097 12.6974 8.75319C12.713 8.77405 12.7333 8.79811 12.7574 8.81389C12.77 8.82208 12.7885 8.83139 12.8117 8.83286C12.8374 8.83449 12.8616 8.82594 12.8807 8.80976L12.7836 8.69543C12.793 8.6874 12.8067 8.68224 12.8212 8.68316C12.8273 8.68355 12.832 8.68494 12.8348 8.68605C12.8377 8.68714 12.8392 8.68815 12.8395 8.68832C12.8397 8.68849 12.8376 8.68706 12.8331 8.68231C12.8288 8.67779 12.8236 8.67156 12.8175 8.66341C12.7921 8.62932 12.7632 8.57837 12.7332 8.52531L12.6026 8.59901ZM12.5357 8.49004C12.5355 8.48983 12.5361 8.49039 12.5375 8.49215C12.5389 8.49384 12.5408 8.4962 12.543 8.49934C12.5476 8.50569 12.553 8.51399 12.5594 8.52428C12.5721 8.54501 12.5865 8.57051 12.6026 8.59901L12.7332 8.52531C12.7176 8.49757 12.7017 8.46932 12.6871 8.44562C12.6737 8.42394 12.657 8.39844 12.6391 8.38142L12.5357 8.49004ZM12.3381 7.82444C12.3033 7.85404 12.3009 7.89794 12.3009 7.9177C12.301 7.94321 12.3057 7.97149 12.312 7.99886C12.3249 8.05441 12.3482 8.12114 12.3741 8.18547C12.4002 8.25027 12.4301 8.31528 12.4573 8.36801C12.4709 8.39434 12.4842 8.41833 12.4964 8.43803C12.5074 8.45582 12.521 8.47608 12.5357 8.49004L12.6391 8.38142C12.6397 8.38196 12.6347 8.37643 12.624 8.35914C12.6145 8.34376 12.6031 8.32339 12.5906 8.29919C12.5656 8.25087 12.5377 8.19014 12.5132 8.12942C12.4886 8.06822 12.4685 8.00963 12.4581 7.96493C12.4529 7.94219 12.451 7.92662 12.4509 7.91766C12.4509 7.90295 12.4552 7.92176 12.4352 7.93876L12.3381 7.82444ZM13.6924 7.57636C13.4709 7.58146 13.2006 7.58761 12.9551 7.61875C12.8321 7.63434 12.7134 7.65643 12.6086 7.68857C12.5046 7.72048 12.4096 7.76374 12.3381 7.82444L12.4352 7.93876C12.4849 7.8966 12.5583 7.86092 12.6526 7.83197C12.7462 7.80325 12.8558 7.78254 12.9739 7.76756C13.2104 7.73757 13.4728 7.73145 13.6959 7.72632L13.6924 7.57636ZM13.6915 7.57638L13.6915 7.57639L13.6968 7.72629L13.6969 7.72629L13.6915 7.57638ZM13.9579 7.56798C13.8833 7.57196 13.7931 7.57404 13.6925 7.57636L13.6959 7.72632C13.7959 7.72402 13.8885 7.72189 13.9659 7.71777L13.9579 7.56798ZM14.0022 7.56574L13.9581 7.56797L13.9657 7.71778L14.0098 7.71555L14.0022 7.56574ZM14.498 7.43897C14.3229 7.54926 14.1807 7.55695 14.0023 7.56573L14.0097 7.71555C14.19 7.70668 14.3672 7.69865 14.5779 7.5659L14.498 7.43897ZM14.7106 7.48107C14.607 7.45838 14.6296 7.3548 14.6296 7.3548C14.6296 7.3548 14.6296 7.35479 14.6296 7.3548C14.6296 7.3548 14.6296 7.3548 14.6296 7.3548C14.6296 7.35481 14.6296 7.35482 14.6296 7.35484C14.6295 7.35487 14.6294 7.35492 14.6293 7.35498C14.6291 7.3551 14.6288 7.35529 14.6285 7.35554C14.6277 7.35602 14.6266 7.35675 14.6251 7.35767C14.6223 7.35952 14.6181 7.36218 14.6131 7.36543C14.6029 7.37193 14.5891 7.38079 14.5744 7.39022C14.5448 7.40915 14.5121 7.43011 14.498 7.43897L14.5779 7.5659C14.5926 7.55665 14.626 7.53533 14.6553 7.51652C14.6701 7.50707 14.6839 7.49819 14.6941 7.49167C14.6991 7.48841 14.7033 7.48575 14.7062 7.48389C14.7076 7.48297 14.7088 7.48224 14.7095 7.48175C14.7099 7.48151 14.7102 7.48132 14.7104 7.48119C14.7105 7.48113 14.7106 7.48108 14.7106 7.48105C14.7106 7.48103 14.7107 7.48102 14.7107 7.48101C14.7107 7.48101 14.7107 7.481 14.7107 7.481C14.7107 7.481 14.7107 7.481 14.7107 7.481C14.7107 7.48099 14.7333 7.37741 14.6297 7.35473L14.7106 7.48107ZM14.7489 7.28067C14.7116 7.30302 14.6747 7.32601 14.6298 7.35468L14.7105 7.48112C14.7547 7.45292 14.7903 7.43072 14.826 7.40931L14.7489 7.28067ZM14.7716 7.26703L14.7488 7.2807L14.8261 7.40928L14.8488 7.39562L14.7716 7.26703ZM15.8598 6.95755C15.6463 6.9087 15.4295 6.95437 15.2417 7.02578C15.0534 7.09736 14.8864 7.19799 14.7715 7.26705L14.8488 7.3956C14.9645 7.32604 15.1209 7.23218 15.295 7.16599C15.4695 7.09964 15.6538 7.06428 15.8263 7.10376L15.8598 6.95755ZM5.65099 7.60971C5.63003 7.58795 5.63045 7.55548 5.65913 7.5332L5.56709 7.41475C5.47134 7.48915 5.45731 7.62482 5.54294 7.71375L5.65099 7.60971ZM6.63811 7.86704C6.49839 7.86503 6.30924 7.86217 6.12355 7.82757C5.9367 7.79274 5.76458 7.72767 5.65099 7.60971L5.54294 7.71375C5.68847 7.86489 5.89724 7.93797 6.09607 7.97503C6.29606 8.0123 6.49739 8.01503 6.63596 8.01702L6.63811 7.86704ZM6.66565 7.86744C6.65672 7.8673 6.64751 7.86717 6.63811 7.86704L6.63596 8.01702C6.64538 8.01716 6.65449 8.01729 6.66333 8.01742L6.66565 7.86744ZM6.8068 7.86751C6.75237 7.86808 6.7088 7.86811 6.66565 7.86744L6.66333 8.01742C6.70819 8.01812 6.75314 8.01808 6.80839 8.0175L6.8068 7.86751ZM6.97005 7.86564C6.9521 7.86573 6.91107 7.8662 6.87487 7.86664C6.85669 7.86687 6.83963 7.86708 6.82711 7.86724C6.82085 7.86732 6.81572 7.86739 6.81216 7.86744C6.81038 7.86746 6.80899 7.86748 6.80805 7.86749C6.80758 7.8675 6.80722 7.8675 6.80697 7.8675C6.80685 7.86751 6.80676 7.86751 6.8067 7.86751C6.80667 7.86751 6.80664 7.86751 6.80662 7.86751C6.80662 7.86751 6.80661 7.86751 6.8066 7.86751C6.8066 7.86751 6.80659 7.86751 6.80658 7.86751C6.80657 7.86751 6.7326 7.94333 6.8082 8.0175L6.80699 7.8675C6.88259 7.94168 6.80862 8.0175 6.80861 8.0175C6.80861 8.0175 6.8086 8.0175 6.8086 8.0175C6.8086 8.0175 6.8086 8.0175 6.80861 8.0175C6.80861 8.0175 6.80861 8.0175 6.80861 8.0175C6.80863 8.0175 6.80865 8.01749 6.80868 8.01749C6.80874 8.01749 6.80883 8.01749 6.80895 8.01749C6.80919 8.01749 6.80955 8.01748 6.81002 8.01748C6.81096 8.01746 6.81234 8.01745 6.81412 8.01742C6.81767 8.01738 6.82278 8.01731 6.82903 8.01723C6.84153 8.01707 6.85857 8.01685 6.8767 8.01663C6.91311 8.01619 6.95351 8.01573 6.97079 8.01564L6.97005 7.86564ZM7.53159 8.03298C7.37726 7.94782 7.22695 7.86437 6.97005 7.86564L6.97079 8.01564C7.18683 8.01457 7.30829 8.08108 7.45912 8.16431L7.53159 8.03298ZM7.56888 8.05349C7.55637 8.04665 7.544 8.03983 7.53159 8.03298L7.45912 8.16431C7.47149 8.17114 7.48413 8.17811 7.49697 8.18513L7.56888 8.05349ZM7.79577 8.18425C7.71242 8.13519 7.63507 8.08964 7.56888 8.05349L7.49697 8.18513C7.5606 8.21988 7.63566 8.26406 7.71967 8.31352L7.79577 8.18425ZM8.96724 8.65257C8.8244 8.672 8.62931 8.61562 8.41323 8.51827C8.20043 8.42239 7.98184 8.2938 7.79577 8.18425L7.71967 8.31352C7.90445 8.42229 8.13009 8.55522 8.35161 8.65503C8.56983 8.75335 8.79913 8.82682 8.98745 8.8012L8.96724 8.65257ZM9.0964 8.18238C9.09602 8.18004 9.09679 8.18602 9.09436 8.20583C9.09225 8.22307 9.08846 8.24542 9.08309 8.27156C9.07238 8.32373 9.0561 8.38763 9.03696 8.4498C9.01769 8.51243 8.99631 8.57071 8.97588 8.61278C8.96554 8.63411 8.95683 8.64833 8.95048 8.6564C8.94118 8.66821 8.94633 8.65541 8.96724 8.65257L8.98745 8.8012C9.02863 8.7956 9.05539 8.76563 9.06833 8.7492C9.08421 8.72902 9.09837 8.70395 9.11083 8.67828C9.13602 8.62638 9.16002 8.55991 9.18032 8.49393C9.20077 8.4275 9.21828 8.35894 9.23003 8.30173C9.23589 8.27318 9.24049 8.2466 9.24325 8.22404C9.2457 8.20407 9.2478 8.17938 9.24454 8.15888L9.0964 8.18238ZM9.1121 8.01376C9.10703 8.04443 9.10182 8.07581 9.09847 8.1028C9.09545 8.12705 9.09248 8.15766 9.0964 8.18238L9.24454 8.15888C9.24471 8.15991 9.24429 8.15747 9.24466 8.14953C9.24501 8.14226 9.24588 8.13289 9.24732 8.12129C9.25023 8.09794 9.25487 8.06983 9.26009 8.03826L9.1121 8.01376ZM9.18457 7.86061C9.17484 7.86193 9.16026 7.8603 9.1469 7.85066C9.13537 7.84233 9.13157 7.83287 9.13099 7.83134C9.13048 7.83002 9.13268 7.83698 9.13208 7.85857C9.13097 7.89886 9.12186 7.95483 9.1121 8.01376L9.26009 8.03826C9.26924 7.983 9.28056 7.91554 9.28202 7.86273C9.28272 7.83777 9.28174 7.80577 9.27118 7.77801C9.26557 7.76326 9.25502 7.74371 9.23472 7.72905C9.21259 7.71307 9.18721 7.70887 9.16435 7.71197L9.18457 7.86061ZM7.58263 7.44175C7.93732 7.58173 8.2448 7.69837 8.50772 7.77395C8.7695 7.8492 8.99537 7.88634 9.18457 7.86061L9.16435 7.71197C9.00678 7.73341 8.80539 7.70345 8.54916 7.62979C8.29405 7.55645 7.99277 7.44235 7.6377 7.30222L7.58263 7.44175ZM6.49656 7.52309C6.67544 7.47771 6.86712 7.4292 7.05666 7.40646C7.24628 7.38371 7.42737 7.38769 7.58548 7.4428L7.63485 7.30116C7.44634 7.23545 7.2395 7.23345 7.0388 7.25753C6.83803 7.28161 6.63699 7.33271 6.45968 7.37769L6.49656 7.52309ZM5.76823 7.53869C5.84559 7.61903 5.96783 7.62381 6.08206 7.61122C6.20174 7.59803 6.34624 7.56122 6.49656 7.52309L6.45968 7.37769C6.30576 7.41673 6.17266 7.45033 6.06563 7.46213C5.95316 7.47452 5.89959 7.45885 5.87628 7.43465L5.76823 7.53869ZM5.65913 7.5332C5.69226 7.50745 5.74258 7.51205 5.76823 7.53869L5.87628 7.43465C5.79534 7.35058 5.65838 7.34381 5.56709 7.41475L5.65913 7.5332Z" fill="#984111"/>
<path fill-rule="evenodd" clip-rule="evenodd" d="M8.34999 13.2454C8.26754 13.2503 8.19556 13.1954 8.18922 13.1228C8.15837 12.7697 8.50807 12.4486 8.70168 12.2709L8.72077 12.2533C8.75135 12.2252 8.78267 12.1974 8.82191 12.1633C8.82189 12.1634 8.91346 12.0843 8.93852 12.0623C9.10666 11.9145 9.1431 11.7761 9.18402 11.6206L9.19415 11.5824C9.21184 11.5166 9.23003 11.437 9.25001 11.3495L9.25002 11.3495L9.25002 11.3495C9.33858 10.962 9.46218 10.4212 9.73218 10.2449C9.7983 10.2017 10.2616 10.4583 10.3112 10.5169C10.3288 10.5376 10.3805 10.5718 10.4373 10.6093C10.5415 10.6782 10.6626 10.7582 10.6198 10.7861C10.3371 10.9707 10.1223 11.4181 9.84326 12.0623C9.69427 12.3656 9.30415 12.5584 8.98041 12.7184C8.70389 12.8551 8.4758 12.9678 8.48778 13.105C8.49413 13.1776 8.43243 13.2405 8.34999 13.2454ZM12.9033 13.146C12.863 13.2101 12.772 13.2339 12.7 13.199C12.35 13.0297 12.2376 12.5942 12.1753 12.353L12.1692 12.3292C12.1593 12.2911 12.1501 12.2526 12.1393 12.2048C12.1393 12.2048 12.1147 12.0935 12.1075 12.0629C12.0597 11.857 11.9489 11.7545 11.8245 11.6393L11.794 11.6109C11.7414 11.5618 11.6752 11.504 11.6023 11.4404L11.6022 11.4403L11.6022 11.4403C11.2798 11.159 10.8251 10.7622 10.8251 10.4814C10.8251 10.3538 11.3147 10.2029 11.397 10.1978C11.4261 10.196 11.4866 10.1761 11.5529 10.1542C11.6747 10.114 11.8161 10.0673 11.8191 10.1144C11.8393 10.4257 12.1445 10.8295 12.6003 11.3884C12.8053 11.6646 12.7747 12.0605 12.7494 12.389C12.7277 12.6695 12.7098 12.901 12.8458 12.9668C12.9178 13.0016 12.9435 13.0818 12.9033 13.146ZM15.8127 10.7971C15.8921 10.7789 15.9404 10.7064 15.9207 10.6351C15.9009 10.5638 15.8205 10.5207 15.7412 10.5388C15.5912 10.5732 15.4267 10.3931 15.2273 10.1747C14.9939 9.91911 14.7125 9.61108 14.3506 9.53333C13.5884 9.40092 13.0555 9.2906 12.8019 9.07516C12.7635 9.04255 12.6958 9.16242 12.6376 9.2656C12.6059 9.32183 12.577 9.37311 12.5571 9.39203C12.5008 9.44567 12.2971 9.89577 12.3564 9.94616C12.5986 10.1519 13.2192 10.1662 13.6639 10.1764L13.6639 10.1764C13.7642 10.1787 13.8556 10.1808 13.9316 10.1849L13.9758 10.1871C14.1551 10.1959 14.3148 10.2038 14.5077 10.3253C14.5365 10.3434 14.6399 10.4099 14.6399 10.4099C14.6844 10.4383 14.7207 10.4609 14.7572 10.4828L14.7799 10.4964C15.0104 10.6351 15.4269 10.8854 15.8127 10.7971ZM5.58283 10.3538C5.52062 10.3054 5.5134 10.2214 5.56669 10.166C5.8258 9.89693 6.32847 9.88972 6.60676 9.88573C6.61617 9.8856 6.62533 9.88546 6.63421 9.88533C6.67822 9.88465 6.72248 9.88468 6.77732 9.88526C6.77729 9.88526 6.90491 9.88694 6.94015 9.88712C7.17661 9.88829 7.3125 9.81331 7.46508 9.72911C7.47747 9.72228 7.48998 9.71538 7.50265 9.70845C7.56756 9.673 7.64377 9.62814 7.72745 9.57887C8.0983 9.36055 8.61591 9.05583 8.94707 9.10087C9.02818 9.11191 9.15172 9.58447 9.1402 9.65713C9.13613 9.68276 9.14552 9.73951 9.15582 9.80175C9.17473 9.91594 9.19668 10.0486 9.14419 10.0415C8.79742 9.9943 8.28965 10.1757 7.57989 10.4558C7.23327 10.5766 6.80404 10.4677 6.44785 10.3774C6.14361 10.3002 5.89265 10.2365 5.79198 10.3411C5.73868 10.3964 5.64505 10.4021 5.58283 10.3538Z" fill="#FFC125"/>
<path d="M8.18922 13.1228L8.26393 13.1163V13.1163L8.18922 13.1228ZM8.70168 12.2709L8.75242 12.3261L8.7524 12.3261L8.70168 12.2709ZM8.72077 12.2533L8.77156 12.3085L8.77151 12.3086L8.72077 12.2533ZM8.82191 12.1633L8.77275 12.1067L8.8713 12.2198L8.82191 12.1633ZM8.93852 12.0623L8.98804 12.1186L8.93852 12.0623ZM9.18402 11.6206L9.11149 11.6016L9.11152 11.6014L9.18402 11.6206ZM9.19415 11.5824L9.12165 11.5632L9.12172 11.563L9.19415 11.5824ZM9.25001 11.3495L9.32317 11.3661L9.32313 11.3663L9.25001 11.3495ZM9.25002 11.3495L9.17686 11.333L9.1769 11.3328L9.25002 11.3495ZM9.25002 11.3495L9.32314 11.3662L9.32313 11.3662L9.25002 11.3495ZM9.73218 10.2449L9.77318 10.3077L9.73218 10.2449ZM10.3112 10.5169L10.3685 10.4684L10.3112 10.5169ZM10.4373 10.6093L10.396 10.6719V10.6719L10.4373 10.6093ZM10.6198 10.7861L10.5788 10.7233V10.7233L10.6198 10.7861ZM9.84326 12.0623L9.91216 12.0922L9.91057 12.0954L9.84326 12.0623ZM8.98041 12.7184L8.94718 12.6512L8.98041 12.7184ZM8.48778 13.105L8.5625 13.0985V13.0985L8.48778 13.105ZM12.7 13.199L12.7327 13.1315V13.1315L12.7 13.199ZM12.9033 13.146L12.8397 13.1061L12.9033 13.146ZM12.1753 12.353L12.2479 12.3342L12.2479 12.3343L12.1753 12.353ZM12.1692 12.3292L12.2418 12.3104L12.2418 12.3104L12.1692 12.3292ZM12.1393 12.2048L12.0661 12.2212L12.2125 12.1883L12.1393 12.2048ZM12.1075 12.0629L12.1806 12.0459V12.0459L12.1075 12.0629ZM11.8245 11.6393L11.7736 11.6943L11.7735 11.6943L11.8245 11.6393ZM11.794 11.6109L11.7429 11.6659L11.7428 11.6657L11.794 11.6109ZM11.6023 11.4404L11.553 11.4969L11.553 11.4969L11.6023 11.4404ZM11.6022 11.4403L11.6502 11.3827L11.6515 11.3838L11.6022 11.4403ZM11.6022 11.4403L11.5542 11.498L11.5529 11.4969L11.6022 11.4403ZM11.397 10.1978L11.3924 10.123L11.397 10.1978ZM11.5529 10.1542L11.5764 10.2254H11.5764L11.5529 10.1542ZM11.8191 10.1144L11.894 10.1096V10.1096L11.8191 10.1144ZM12.6003 11.3884L12.6585 11.3409L12.6605 11.3437L12.6003 11.3884ZM12.7494 12.389L12.8242 12.3947L12.7494 12.389ZM12.8458 12.9668L12.8785 12.8992L12.8458 12.9668ZM15.9207 10.6351L15.8484 10.6551L15.8484 10.6551L15.9207 10.6351ZM15.8127 10.7971L15.8295 10.8702L15.8127 10.7971ZM15.7412 10.5388L15.7579 10.6119L15.7412 10.5388ZM15.2273 10.1747L15.1719 10.2253V10.2253L15.2273 10.1747ZM14.3506 9.53333L14.3634 9.45938L14.3664 9.46001L14.3506 9.53333ZM12.8019 9.07516L12.8504 9.018H12.8504L12.8019 9.07516ZM12.6376 9.2656L12.5723 9.22875L12.5723 9.22875L12.6376 9.2656ZM12.5571 9.39203L12.6089 9.44634V9.44634L12.5571 9.39203ZM12.3564 9.94616L12.3078 10.0033L12.3564 9.94616ZM13.6639 10.1764L13.6656 10.1014L13.6666 10.1015L13.6639 10.1764ZM13.6639 10.1764L13.6622 10.2514L13.6612 10.2514L13.6639 10.1764ZM13.9316 10.1849L13.9279 10.2598L13.9277 10.2598L13.9316 10.1849ZM13.9758 10.1871L13.9721 10.262L13.972 10.262L13.9758 10.1871ZM14.5077 10.3253L14.5477 10.2619L14.5477 10.2619L14.5077 10.3253ZM14.6399 10.4099L14.5995 10.473L14.6802 10.3466L14.6399 10.4099ZM14.7572 10.4828L14.7957 10.4184L14.7958 10.4185L14.7572 10.4828ZM14.7799 10.4964L14.8185 10.4321L14.8186 10.4322L14.7799 10.4964ZM5.56669 10.166L5.62072 10.218H5.62072L5.56669 10.166ZM5.58283 10.3538L5.62885 10.2946H5.62885L5.58283 10.3538ZM6.60676 9.88573L6.60568 9.81074H6.60568L6.60676 9.88573ZM6.63421 9.88533L6.63538 9.96032H6.63538L6.63421 9.88533ZM6.77732 9.88526L6.77812 9.81026L6.77672 9.96025L6.77732 9.88526ZM6.94015 9.88712L6.94052 9.81212H6.94052L6.94015 9.88712ZM7.46508 9.72911L7.42885 9.66345L7.42885 9.66345L7.46508 9.72911ZM7.50265 9.70845L7.53861 9.77427L7.53861 9.77427L7.50265 9.70845ZM7.72745 9.57887L7.7655 9.64351L7.72745 9.57887ZM8.94707 9.10087L8.95718 9.02656H8.95718L8.94707 9.10087ZM9.1402 9.65713L9.06612 9.64538V9.64538L9.1402 9.65713ZM9.15582 9.80175L9.08183 9.814H9.08183L9.15582 9.80175ZM9.14419 10.0415L9.13408 10.1158L9.14419 10.0415ZM7.57989 10.4558L7.60745 10.5256L7.60458 10.5266L7.57989 10.4558ZM6.44785 10.3774L6.46629 10.3047L6.44785 10.3774ZM5.79198 10.3411L5.84601 10.3931L5.84601 10.3931L5.79198 10.3411ZM8.26393 13.1163C8.26603 13.1403 8.29494 13.1736 8.34552 13.1706L8.35445 13.3203C8.24014 13.3271 8.12509 13.2506 8.1145 13.1293L8.26393 13.1163ZM8.7524 12.3261C8.65503 12.4155 8.52453 12.5356 8.42171 12.6755C8.31829 12.8162 8.25084 12.9664 8.26393 13.1163L8.1145 13.1293C8.09675 12.9261 8.18872 12.7392 8.30085 12.5866C8.41357 12.4333 8.55472 12.304 8.65096 12.2156L8.7524 12.3261ZM8.77151 12.3086L8.75242 12.3261L8.65093 12.2157L8.67003 12.1981L8.77151 12.3086ZM8.87107 12.22C8.83218 12.2537 8.80143 12.281 8.77156 12.3085L8.66998 12.1982C8.70126 12.1694 8.73317 12.1411 8.77275 12.1067L8.87107 12.22ZM8.98804 12.1186C8.97523 12.1299 8.9458 12.1554 8.91987 12.1778C8.90684 12.1891 8.8946 12.1997 8.88562 12.2074C8.88112 12.2113 8.87745 12.2145 8.87489 12.2167C8.87362 12.2178 8.87262 12.2186 8.87194 12.2192C8.8716 12.2195 8.87134 12.2197 8.87117 12.2199C8.87108 12.22 8.87101 12.22 8.87097 12.2201C8.87095 12.2201 8.87093 12.2201 8.87092 12.2201C8.87091 12.2201 8.8709 12.2201 8.8709 12.2201C8.87089 12.2201 8.87089 12.2201 8.87088 12.2201C8.87087 12.2202 8.76527 12.2125 8.77252 12.1069L8.8713 12.2198C8.87854 12.1142 8.77295 12.1065 8.77294 12.1065C8.77293 12.1065 8.77293 12.1065 8.77293 12.1065C8.77293 12.1065 8.77293 12.1065 8.77293 12.1065C8.77294 12.1065 8.77296 12.1065 8.77298 12.1065C8.77302 12.1065 8.77309 12.1064 8.77317 12.1063C8.77334 12.1062 8.7736 12.106 8.77394 12.1057C8.77461 12.1051 8.77561 12.1042 8.77688 12.1031C8.77943 12.1009 8.78309 12.0978 8.78758 12.0939C8.79654 12.0862 8.80876 12.0756 8.82175 12.0644C8.84786 12.0418 8.87676 12.0167 8.88901 12.006L8.98804 12.1186ZM9.25655 11.6397C9.21497 11.7977 9.17399 11.9552 8.98804 12.1186L8.88901 12.006C9.03933 11.8738 9.07124 11.7545 9.11149 11.6016L9.25655 11.6397ZM9.26664 11.6016L9.25651 11.6399L9.11152 11.6014L9.12165 11.5632L9.26664 11.6016ZM9.32313 11.3663C9.30325 11.4532 9.28472 11.5344 9.26658 11.6019L9.12172 11.563C9.13896 11.4988 9.15682 11.4207 9.1769 11.3328L9.32313 11.3663ZM9.32318 11.366L9.32317 11.3661L9.17685 11.333L9.17686 11.333L9.32318 11.366ZM9.32313 11.3662L9.32313 11.3662L9.1769 11.3328L9.17691 11.3328L9.32313 11.3662ZM9.77318 10.3077C9.66 10.3816 9.56845 10.5402 9.49344 10.7439C9.41967 10.9443 9.36762 11.1716 9.32314 11.3662L9.17691 11.3328C9.22098 11.1399 9.27501 10.9031 9.35268 10.6921C9.42911 10.4845 9.53436 10.2845 9.69117 10.1821L9.77318 10.3077ZM10.254 10.5653C10.2545 10.5659 10.2489 10.5602 10.2312 10.5476C10.2155 10.5364 10.1947 10.5227 10.1698 10.5075C10.1203 10.477 10.0574 10.4418 9.99397 10.4096C9.93016 10.3773 9.86775 10.349 9.8186 10.3317C9.79375 10.3229 9.77495 10.3179 9.76238 10.3159C9.75611 10.3149 9.75369 10.3151 9.75412 10.315C9.75449 10.315 9.75645 10.3149 9.75951 10.314C9.76257 10.3132 9.76754 10.3114 9.77318 10.3077L9.69117 10.1821C9.7102 10.1697 9.73017 10.1663 9.74394 10.1654C9.75846 10.1644 9.77282 10.1657 9.78564 10.1677C9.81126 10.1717 9.83989 10.1801 9.86854 10.1902C9.92641 10.2107 9.99532 10.2421 10.0618 10.2758C10.1286 10.3097 10.1951 10.3469 10.2484 10.3797C10.275 10.396 10.299 10.4117 10.3184 10.4256C10.3359 10.438 10.3556 10.4532 10.3685 10.4684L10.254 10.5653ZM10.396 10.6719C10.3679 10.6533 10.3396 10.6346 10.3161 10.6179C10.2947 10.6026 10.2697 10.5839 10.254 10.5653L10.3685 10.4684C10.3684 10.4684 10.3708 10.471 10.3778 10.4767C10.3842 10.4819 10.3926 10.4883 10.4031 10.4957C10.424 10.5106 10.45 10.5278 10.4787 10.5467L10.396 10.6719ZM10.5788 10.7233C10.5692 10.7296 10.5565 10.7435 10.554 10.7647C10.552 10.7817 10.5582 10.7924 10.5585 10.7929C10.5586 10.7931 10.5535 10.7857 10.5352 10.7703C10.5015 10.7417 10.4495 10.7072 10.396 10.6719L10.4787 10.5467C10.5294 10.5803 10.59 10.6202 10.6321 10.6558C10.6519 10.6725 10.6755 10.6947 10.6895 10.7199C10.6967 10.7329 10.7062 10.7549 10.703 10.782C10.6994 10.8131 10.6811 10.8357 10.6608 10.8489L10.5788 10.7233ZM9.77444 12.0325C9.91386 11.7106 10.0388 11.4341 10.1651 11.2145C10.291 10.9957 10.4225 10.8254 10.5788 10.7233L10.6608 10.8489C10.5344 10.9315 10.4172 11.0772 10.2952 11.2893C10.1736 11.5006 10.0517 11.7698 9.91208 12.0921L9.77444 12.0325ZM8.94718 12.6512C9.10989 12.5708 9.28365 12.4848 9.4353 12.382C9.5873 12.279 9.70977 12.1639 9.77594 12.0292L9.91057 12.0954C9.82775 12.264 9.68068 12.3969 9.51943 12.5062C9.35784 12.6157 9.17466 12.7061 9.01364 12.7856L8.94718 12.6512ZM8.41307 13.1115C8.40802 13.0537 8.4292 13.003 8.46083 12.9609C8.49176 12.9197 8.53517 12.8831 8.58319 12.8498C8.67884 12.7836 8.81076 12.7186 8.94718 12.6512L9.01364 12.7856C8.87354 12.8549 8.75315 12.9146 8.66862 12.9731C8.62655 13.0023 8.5979 13.0282 8.58079 13.0509C8.56439 13.0728 8.56155 13.0876 8.5625 13.0985L8.41307 13.1115ZM8.34552 13.1706C8.39524 13.1676 8.41496 13.1332 8.41307 13.1115L8.5625 13.0985C8.57329 13.222 8.46963 13.3134 8.35445 13.3203L8.34552 13.1706ZM12.7327 13.1315C12.7732 13.1512 12.8215 13.1351 12.8397 13.1061L12.9668 13.1858C12.9045 13.2851 12.7708 13.3166 12.6673 13.2666L12.7327 13.1315ZM12.2479 12.3343C12.2792 12.4554 12.3212 12.6173 12.3969 12.7696C12.4725 12.9216 12.5782 13.0568 12.7327 13.1315L12.6673 13.2666C12.4718 13.1719 12.3463 13.0047 12.2626 12.8363C12.179 12.6682 12.1337 12.4917 12.1027 12.3718L12.2479 12.3343ZM12.2418 12.3104L12.2479 12.3342L12.1027 12.3718L12.0966 12.348L12.2418 12.3104ZM12.2125 12.1883C12.2232 12.2356 12.2321 12.2733 12.2418 12.3104L12.0966 12.3481C12.0864 12.3089 12.0771 12.2696 12.0662 12.2213L12.2125 12.1883ZM12.1806 12.0459C12.1842 12.0616 12.1923 12.0975 12.1993 12.129C12.2029 12.1449 12.2062 12.1598 12.2086 12.1707C12.2098 12.1762 12.2108 12.1806 12.2115 12.1837C12.2118 12.1853 12.2121 12.1865 12.2123 12.1873C12.2124 12.1877 12.2124 12.188 12.2125 12.1883C12.2125 12.1884 12.2125 12.1884 12.2125 12.1885C12.2126 12.1885 12.2126 12.1885 12.2126 12.1886C12.2126 12.1886 12.2126 12.1886 12.2126 12.1886C12.2126 12.1886 12.2126 12.1886 12.2126 12.1886C12.2126 12.1886 12.1556 12.278 12.0661 12.2212L12.2125 12.1885C12.1231 12.1316 12.0661 12.221 12.0661 12.221C12.0661 12.221 12.0661 12.221 12.0661 12.221C12.0661 12.221 12.0661 12.221 12.0661 12.221C12.0661 12.221 12.0661 12.221 12.0661 12.221C12.0661 12.2209 12.0661 12.2208 12.0661 12.2207C12.066 12.2205 12.0659 12.2202 12.0658 12.2198C12.0657 12.219 12.0654 12.2178 12.0651 12.2162C12.0644 12.2131 12.0634 12.2087 12.0622 12.2032C12.0597 12.1923 12.0564 12.1775 12.0529 12.1617C12.0458 12.1299 12.038 12.0948 12.0345 12.0798L12.1806 12.0459ZM11.8755 11.5843C12.0003 11.6998 12.1271 11.8158 12.1806 12.0459L12.0345 12.0798C11.9922 11.8982 11.8975 11.8091 11.7736 11.6943L11.8755 11.5843ZM11.845 11.556L11.8756 11.5843L11.7735 11.6943L11.7429 11.6659L11.845 11.556ZM11.6516 11.3839C11.7242 11.4473 11.7914 11.5059 11.8452 11.5561L11.7428 11.6657C11.6913 11.6176 11.6262 11.5608 11.553 11.4969L11.6516 11.3839ZM11.6515 11.3838L11.6516 11.3839L11.553 11.4969L11.5529 11.4969L11.6515 11.3838ZM11.6502 11.3827L11.6502 11.3827L11.5542 11.498L11.5542 11.498L11.6502 11.3827ZM10.9001 10.4814C10.9001 10.5324 10.9212 10.5963 10.9658 10.6721C11.0099 10.747 11.073 10.8275 11.1482 10.9102C11.2988 11.0759 11.4896 11.2425 11.6515 11.3838L11.5529 11.4969C11.3924 11.3568 11.1946 11.1844 11.0372 11.0111C10.9584 10.9244 10.8878 10.8354 10.8365 10.7481C10.7858 10.6618 10.7501 10.5707 10.7501 10.4814H10.9001ZM11.4017 10.2727C11.3906 10.2733 11.3522 10.2812 11.294 10.2983C11.2387 10.3145 11.1722 10.337 11.1086 10.3631C11.0442 10.3894 10.986 10.4181 10.9451 10.4459C10.9246 10.4599 10.9114 10.4718 10.904 10.4806C10.8962 10.49 10.9001 10.4898 10.9001 10.4814H10.7501C10.7501 10.4411 10.7692 10.4082 10.7885 10.3849C10.8083 10.3611 10.834 10.3402 10.8606 10.322C10.9141 10.2855 10.9834 10.2522 11.0518 10.2242C11.1208 10.196 11.1922 10.1718 11.2518 10.1544C11.3086 10.1377 11.3623 10.1248 11.3924 10.123L11.4017 10.2727ZM11.5764 10.2254C11.5436 10.2362 11.5106 10.2471 11.4822 10.2555C11.4557 10.2632 11.4257 10.2712 11.4017 10.2727L11.3924 10.123C11.3974 10.1226 11.4122 10.1197 11.4398 10.1116C11.4655 10.104 11.4959 10.094 11.5294 10.0829L11.5764 10.2254ZM11.7443 10.1193C11.7454 10.1355 11.754 10.1518 11.7681 10.1619C11.7787 10.1695 11.7872 10.1699 11.7856 10.1697C11.7824 10.1694 11.7703 10.1698 11.7461 10.1749C11.7001 10.1847 11.6387 10.2048 11.5764 10.2254L11.5294 10.0829C11.5889 10.0633 11.6591 10.04 11.715 10.0282C11.7418 10.0225 11.7732 10.0176 11.8011 10.0205C11.8151 10.022 11.8361 10.0261 11.8555 10.04C11.8784 10.0564 11.8922 10.0816 11.894 10.1096L11.7443 10.1193ZM12.5422 11.4358C12.3145 11.1566 12.1217 10.913 11.9834 10.6993C11.8461 10.4873 11.7557 10.295 11.7443 10.1193L11.894 10.1096C11.9028 10.2452 11.975 10.4104 12.1093 10.6178C12.2426 10.8236 12.4303 11.0613 12.6584 11.341L12.5422 11.4358ZM12.6746 12.3832C12.6874 12.2179 12.7007 12.0429 12.6865 11.8754C12.6723 11.7084 12.6311 11.5558 12.5401 11.4331L12.6605 11.3437C12.7745 11.4972 12.8205 11.6807 12.836 11.8628C12.8514 12.0444 12.8368 12.2316 12.8242 12.3947L12.6746 12.3832ZM12.8131 13.0343C12.7077 12.9832 12.6742 12.8724 12.6638 12.7657C12.6532 12.6565 12.6639 12.5211 12.6746 12.3832L12.8242 12.3947C12.8131 12.5374 12.8041 12.658 12.8131 12.7512C12.8224 12.8467 12.848 12.8845 12.8785 12.8992L12.8131 13.0343ZM12.8397 13.1061C12.8539 13.0836 12.8491 13.0517 12.8131 13.0343L12.8785 12.8992C12.9865 12.9515 13.0332 13.0801 12.9668 13.1858L12.8397 13.1061ZM15.993 10.615C16.026 10.7344 15.9433 10.8442 15.8295 10.8702L15.796 10.724C15.8409 10.7137 15.8549 10.6784 15.8484 10.6551L15.993 10.615ZM15.7244 10.4657C15.8366 10.4401 15.9608 10.4992 15.993 10.615L15.8484 10.6551C15.841 10.6284 15.8045 10.6013 15.7579 10.6119L15.7244 10.4657ZM15.2827 10.1241C15.3838 10.2348 15.4705 10.3294 15.5497 10.393C15.6312 10.4584 15.6852 10.4747 15.7244 10.4657L15.7579 10.6119C15.6472 10.6373 15.544 10.5807 15.4559 10.51C15.3656 10.4376 15.2703 10.333 15.1719 10.2253L15.2827 10.1241ZM14.3664 9.46001C14.5632 9.50231 14.7348 9.60645 14.8847 9.72933C15.0343 9.852 15.1665 9.99698 15.2827 10.1241L15.1719 10.2253C15.0546 10.0969 14.9295 9.96002 14.7896 9.84533C14.6499 9.73086 14.4999 9.64211 14.3348 9.60666L14.3664 9.46001ZM12.8504 9.018C12.9641 9.11458 13.1473 9.19258 13.4053 9.26303C13.6616 9.33304 13.9821 9.39319 14.3634 9.45944L14.3378 9.60723C13.9569 9.54106 13.6299 9.47985 13.3658 9.40773C13.1033 9.33606 12.8932 9.25118 12.7533 9.13233L12.8504 9.018ZM12.5723 9.22875C12.6006 9.17864 12.6346 9.11806 12.6671 9.07457C12.6827 9.05371 12.703 9.02965 12.7272 9.01387C12.7397 9.00568 12.7583 8.99637 12.7814 8.9949C12.8072 8.99327 12.8314 9.00182 12.8504 9.018L12.7533 9.13233C12.7628 9.14036 12.7765 9.14552 12.7909 9.1446C12.7971 9.14421 12.8017 9.14282 12.8046 9.14171C12.8074 9.14061 12.809 9.13961 12.8092 9.13944C12.8095 9.13927 12.8073 9.1407 12.8028 9.14545C12.7986 9.14997 12.7934 9.1562 12.7873 9.16435C12.7618 9.19844 12.7329 9.24939 12.703 9.30245L12.5723 9.22875ZM12.5054 9.33772C12.5052 9.33793 12.5058 9.33737 12.5073 9.33561C12.5087 9.33391 12.5105 9.33156 12.5127 9.32842C12.5173 9.32207 12.5227 9.31377 12.5291 9.30348C12.5419 9.28275 12.5562 9.25724 12.5723 9.22875L12.703 9.30245C12.6873 9.33019 12.6714 9.35844 12.6568 9.38214C12.6435 9.40381 12.6267 9.42932 12.6089 9.44634L12.5054 9.33772ZM12.3078 10.0033C12.273 9.97372 12.2707 9.92982 12.2707 9.91006C12.2707 9.88455 12.2754 9.85627 12.2818 9.8289C12.2947 9.77335 12.3179 9.70661 12.3438 9.64229C12.3699 9.57749 12.3998 9.51248 12.427 9.45974C12.4406 9.43342 12.4539 9.40943 12.4661 9.38973C12.4771 9.37194 12.4908 9.35167 12.5054 9.33772L12.6089 9.44634C12.6094 9.4458 12.6044 9.45133 12.5937 9.46862C12.5842 9.484 12.5728 9.50437 12.5603 9.52857C12.5353 9.57689 12.5074 9.63762 12.483 9.69833C12.4583 9.75954 12.4382 9.81813 12.4279 9.86282C12.4226 9.88557 12.4207 9.90114 12.4207 9.9101C12.4207 9.92481 12.425 9.906 12.4049 9.88899L12.3078 10.0033ZM13.6622 10.2514C13.4406 10.2463 13.1703 10.2401 12.9248 10.209C12.8019 10.1934 12.6831 10.1713 12.5783 10.1392C12.4743 10.1073 12.3793 10.064 12.3078 10.0033L12.4049 9.88899C12.4546 9.93116 12.528 9.96684 12.6223 9.99579C12.716 10.0245 12.8256 10.0452 12.9437 10.0602C13.1802 10.0902 13.4425 10.0963 13.6656 10.1014L13.6622 10.2514ZM13.6612 10.2514L13.6612 10.2514L13.6666 10.1015L13.6666 10.1015L13.6612 10.2514ZM13.9277 10.2598C13.853 10.2558 13.7629 10.2537 13.6622 10.2514L13.6656 10.1014C13.7656 10.1037 13.8582 10.1059 13.9356 10.11L13.9277 10.2598ZM13.972 10.262L13.9279 10.2598L13.9354 10.11L13.9795 10.1122L13.972 10.262ZM14.4677 10.3888C14.2926 10.2785 14.1504 10.2708 13.9721 10.262L13.9794 10.1122C14.1597 10.1211 14.3369 10.1291 14.5477 10.2619L14.4677 10.3888ZM14.6803 10.3467C14.5768 10.3694 14.5993 10.473 14.5993 10.473C14.5993 10.473 14.5993 10.473 14.5993 10.473C14.5993 10.473 14.5993 10.473 14.5993 10.473C14.5993 10.4729 14.5993 10.4729 14.5993 10.4729C14.5992 10.4729 14.5992 10.4728 14.5991 10.4728C14.5989 10.4727 14.5986 10.4725 14.5982 10.4722C14.5974 10.4717 14.5963 10.471 14.5949 10.4701C14.592 10.4682 14.5878 10.4656 14.5828 10.4623C14.5726 10.4558 14.5588 10.447 14.5441 10.4375C14.5146 10.4186 14.4818 10.3977 14.4677 10.3888L14.5477 10.2619C14.5624 10.2711 14.5957 10.2924 14.6251 10.3112C14.6398 10.3207 14.6536 10.3296 14.6638 10.3361C14.6689 10.3393 14.673 10.342 14.6759 10.3439C14.6774 10.3448 14.6785 10.3455 14.6792 10.346C14.6796 10.3463 14.6799 10.3464 14.6801 10.3466C14.6802 10.3466 14.6803 10.3467 14.6803 10.3467C14.6804 10.3467 14.6804 10.3467 14.6804 10.3467C14.6804 10.3468 14.6804 10.3468 14.6804 10.3468C14.6804 10.3468 14.6804 10.3468 14.6804 10.3468C14.6804 10.3468 14.703 10.4503 14.5995 10.473L14.6803 10.3467ZM14.7186 10.5471C14.6813 10.5247 14.6444 10.5018 14.5995 10.4731L14.6802 10.3466C14.7244 10.3748 14.76 10.397 14.7957 10.4184L14.7186 10.5471ZM14.7413 10.5607L14.7185 10.5471L14.7958 10.4185L14.8185 10.4321L14.7413 10.5607ZM15.8295 10.8702C15.6161 10.9191 15.3992 10.8734 15.2114 10.802C15.0232 10.7304 14.8561 10.6298 14.7413 10.5607L14.8186 10.4322C14.9342 10.5017 15.0907 10.5956 15.2647 10.6618C15.4392 10.7281 15.6235 10.7635 15.796 10.724L15.8295 10.8702ZM5.62072 10.218C5.59976 10.2398 5.60017 10.2723 5.62885 10.2946L5.53681 10.413C5.44107 10.3386 5.42703 10.2029 5.51267 10.114L5.62072 10.218ZM6.60783 9.96072C6.46811 9.96273 6.27897 9.96559 6.09327 10.0002C5.90642 10.035 5.7343 10.1001 5.62072 10.218L5.51267 10.114C5.6582 9.96287 5.86696 9.88979 6.06579 9.85273C6.26578 9.81546 6.46711 9.81273 6.60568 9.81074L6.60783 9.96072ZM6.63538 9.96032C6.62644 9.96046 6.61724 9.96059 6.60783 9.96072L6.60568 9.81074C6.61511 9.8106 6.62422 9.81047 6.63305 9.81034L6.63538 9.96032ZM6.77653 9.96025C6.7221 9.95968 6.67852 9.95965 6.63538 9.96032L6.63305 9.81034C6.67792 9.80964 6.72287 9.80968 6.77812 9.81026L6.77653 9.96025ZM6.93978 9.96211C6.92182 9.96203 6.88079 9.96156 6.84459 9.96111C6.82642 9.96089 6.80935 9.96068 6.79683 9.96052C6.79057 9.96044 6.78545 9.96037 6.78189 9.96032C6.78011 9.9603 6.77872 9.96028 6.77778 9.96027C6.7773 9.96026 6.77694 9.96026 6.7767 9.96025C6.77658 9.96025 6.77649 9.96025 6.77642 9.96025C6.77639 9.96025 6.77637 9.96025 6.77635 9.96025C6.77634 9.96025 6.77633 9.96025 6.77633 9.96025C6.77632 9.96025 6.77632 9.96025 6.77631 9.96025C6.7763 9.96025 6.70233 9.88443 6.77793 9.81026L6.77672 9.96025C6.85232 9.88608 6.77835 9.81026 6.77834 9.81026C6.77833 9.81026 6.77833 9.81026 6.77833 9.81026C6.77833 9.81026 6.77833 9.81026 6.77833 9.81026C6.77833 9.81026 6.77834 9.81026 6.77834 9.81026C6.77835 9.81026 6.77838 9.81026 6.77841 9.81026C6.77847 9.81027 6.77856 9.81027 6.77868 9.81027C6.77892 9.81027 6.77927 9.81028 6.77974 9.81028C6.78068 9.81029 6.78207 9.81031 6.78384 9.81034C6.78739 9.81038 6.79251 9.81045 6.79876 9.81053C6.81126 9.81069 6.82829 9.8109 6.84642 9.81113C6.88284 9.81157 6.92323 9.81203 6.94052 9.81212L6.93978 9.96211ZM7.50131 9.79478C7.34699 9.87994 7.19668 9.96339 6.93978 9.96211L6.94052 9.81212C7.15655 9.81319 7.27802 9.74667 7.42885 9.66345L7.50131 9.79478ZM7.53861 9.77427C7.52609 9.78111 7.51373 9.78793 7.50131 9.79478L7.42885 9.66345C7.44122 9.65662 7.45386 9.64964 7.4667 9.64263L7.53861 9.77427ZM7.7655 9.64351C7.68215 9.69257 7.6048 9.73812 7.53861 9.77427L7.4667 9.64263C7.53032 9.60788 7.60539 9.5637 7.6894 9.51424L7.7655 9.64351ZM8.93696 9.17519C8.79412 9.15576 8.59904 9.21213 8.38295 9.30949C8.17016 9.40537 7.95157 9.53396 7.7655 9.64351L7.6894 9.51424C7.87417 9.40546 8.09982 9.27254 8.32133 9.17273C8.53956 9.07441 8.76886 9.00094 8.95718 9.02656L8.93696 9.17519ZM9.06612 9.64538C9.06575 9.64772 9.06651 9.64174 9.06409 9.62193C9.06198 9.60469 9.05819 9.58234 9.05282 9.5562C9.04211 9.50403 9.02583 9.44013 9.00669 9.37796C8.98741 9.31533 8.96603 9.25705 8.94561 9.21497C8.93526 9.19365 8.92655 9.17943 8.9202 9.17136C8.9109 9.15955 8.91606 9.17235 8.93696 9.17519L8.95718 9.02656C8.99836 9.03216 9.02512 9.06213 9.03805 9.07856C9.05394 9.09874 9.0681 9.12381 9.08056 9.14948C9.10575 9.20138 9.12974 9.26785 9.15005 9.33383C9.1705 9.40026 9.18801 9.46882 9.19976 9.52603C9.20562 9.55458 9.21022 9.58116 9.21298 9.60372C9.21542 9.62369 9.21752 9.64838 9.21427 9.66888L9.06612 9.64538ZM9.08183 9.814C9.07676 9.78333 9.07155 9.75195 9.06819 9.72496C9.06518 9.70071 9.0622 9.6701 9.06612 9.64538L9.21427 9.66888C9.21443 9.66784 9.21401 9.67029 9.21439 9.67823C9.21473 9.6855 9.21561 9.69487 9.21705 9.70646C9.21995 9.72982 9.22459 9.75793 9.22982 9.7895L9.08183 9.814ZM9.1543 9.96715C9.14457 9.96583 9.12998 9.96746 9.11663 9.9771C9.1051 9.98542 9.1013 9.99488 9.10071 9.99642C9.10021 9.99774 9.10241 9.99078 9.10181 9.96919C9.10069 9.9289 9.09159 9.87293 9.08183 9.814L9.22982 9.7895C9.23896 9.84476 9.25029 9.91222 9.25175 9.96503C9.25244 9.98998 9.25147 10.022 9.24091 10.0497C9.2353 10.0645 9.22475 10.084 9.20444 10.0987C9.18232 10.1147 9.15693 10.1189 9.13408 10.1158L9.1543 9.96715ZM7.55236 10.386C7.90704 10.246 8.21453 10.1294 8.47744 10.0538C8.73922 9.97856 8.9651 9.94142 9.1543 9.96715L9.13408 10.1158C8.97651 10.0944 8.77512 10.1243 8.51888 10.198C8.26378 10.2713 7.9625 10.3854 7.60743 10.5255L7.55236 10.386ZM6.46629 10.3047C6.64517 10.35 6.83684 10.3986 7.02639 10.4213C7.21601 10.444 7.39709 10.4401 7.55521 10.385L7.60458 10.5266C7.41607 10.5923 7.20922 10.5943 7.00852 10.5702C6.80775 10.5461 6.60671 10.495 6.42941 10.4501L6.46629 10.3047ZM5.73796 10.2891C5.81532 10.2087 5.93756 10.2039 6.05179 10.2165C6.17147 10.2297 6.31596 10.2665 6.46629 10.3047L6.42941 10.4501C6.27549 10.411 6.14239 10.3774 6.03536 10.3656C5.92289 10.3532 5.86932 10.3689 5.84601 10.3931L5.73796 10.2891ZM5.62885 10.2946C5.66198 10.3203 5.7123 10.3157 5.73796 10.2891L5.84601 10.3931C5.76507 10.4772 5.62811 10.4839 5.53681 10.413L5.62885 10.2946Z" fill="#984111"/>
<path fill-rule="evenodd" clip-rule="evenodd" d="M10.875 4.0592C10.7311 4.0592 10.6085 4.16392 10.5859 4.30613L10.125 7.2171H11.625L11.1641 4.30613C11.1416 4.16392 11.019 4.0592 10.875 4.0592ZM14.8055 5.50632C14.7041 5.4162 14.5435 5.40621 14.429 5.48288L11.763 7.26788L12.8237 8.21069L14.8318 5.84095C14.9181 5.73916 14.9068 5.59643 14.8055 5.50632ZM16.2129 8.75023C16.3389 8.76599 16.4334 8.87308 16.4334 9.00004C16.4334 9.127 16.3389 9.23409 16.2129 9.24985L12.8808 9.66671V8.33337L16.2129 8.75023ZM14.8054 12.4937C14.9068 12.4036 14.918 12.2608 14.8318 12.159L12.8236 9.78931L11.763 10.7321L14.4289 12.5171C14.5435 12.5938 14.704 12.5838 14.8054 12.4937ZM11.1642 13.6939C11.1417 13.8361 11.0191 13.9409 10.8751 13.9409C10.7311 13.9409 10.6085 13.8361 10.586 13.6939L10.1251 10.783H11.6251L11.1642 13.6939ZM6.94468 12.4937C7.04606 12.5838 7.20662 12.5938 7.32114 12.5171L9.9871 10.7321L8.92644 9.78931L6.91831 12.159C6.83205 12.2608 6.84329 12.4036 6.94468 12.4937ZM5.53715 9.24983C5.41118 9.23407 5.31665 9.12698 5.31665 9.00002C5.31665 8.87307 5.41118 8.76598 5.53715 8.75022L8.86928 8.33336V9.66669L5.53715 9.24983ZM6.94461 5.50632C6.84322 5.59643 6.83198 5.73916 6.91824 5.84095L8.92637 8.21069L9.98703 7.26788L7.32107 5.48288C7.20655 5.40621 7.04599 5.4162 6.94461 5.50632Z" fill="#FFC125"/>
<path d="M10.5859 4.30613L10.5119 4.2944V4.2944L10.5859 4.30613ZM10.125 7.2171L10.051 7.20537L10.0372 7.2921H10.125V7.2171ZM11.625 7.2171V7.2921H11.7129L11.6991 7.20537L11.625 7.2171ZM11.1641 4.30613L11.2382 4.2944V4.2944L11.1641 4.30613ZM14.429 5.48288L14.3873 5.42056V5.42056L14.429 5.48288ZM14.8055 5.50632L14.7556 5.56237V5.56237L14.8055 5.50632ZM11.763 7.26788L11.7213 7.20556L11.6407 7.25951L11.7132 7.32394L11.763 7.26788ZM12.8237 8.21069L12.7739 8.26675L12.8313 8.31777L12.8809 8.25918L12.8237 8.21069ZM14.8318 5.84095L14.889 5.88944V5.88944L14.8318 5.84095ZM16.2129 8.75023L16.2222 8.67581L16.2129 8.75023ZM16.2129 9.24985L16.2036 9.17543L16.2129 9.24985ZM12.8808 9.66671H12.8058V9.75167L12.8901 9.74113L12.8808 9.66671ZM12.8808 8.33337L12.8901 8.25895L12.8058 8.24841V8.33337H12.8808ZM14.8318 12.159L14.7745 12.2075L14.8318 12.159ZM14.8054 12.4937L14.7556 12.4376L14.8054 12.4937ZM12.8236 9.78931L12.8809 9.74082L12.8312 9.68223L12.7738 9.73325L12.8236 9.78931ZM11.763 10.7321L11.7131 10.6761L11.6407 10.7405L11.7212 10.7944L11.763 10.7321ZM14.4289 12.5171L14.3872 12.5794L14.4289 12.5171ZM11.1642 13.6939L11.2383 13.7057L11.1642 13.6939ZM10.586 13.6939L10.5119 13.7057L10.586 13.6939ZM10.1251 10.783V10.708H10.0373L10.051 10.7947L10.1251 10.783ZM11.6251 10.783L11.6992 10.7947L11.7129 10.708H11.6251V10.783ZM7.32114 12.5171L7.27941 12.4548L7.32114 12.5171ZM6.94468 12.4937L6.89485 12.5497H6.89485L6.94468 12.4937ZM9.9871 10.7321L10.0288 10.7944L10.1094 10.7405L10.0369 10.6761L9.9871 10.7321ZM8.92644 9.78931L8.97626 9.73325L8.91887 9.68223L8.86922 9.74082L8.92644 9.78931ZM6.91831 12.159L6.97553 12.2075H6.97553L6.91831 12.159ZM5.53715 9.24983L5.52784 9.32425H5.52784L5.53715 9.24983ZM5.53715 8.75022L5.54646 8.82464H5.54646L5.53715 8.75022ZM8.86928 8.33336H8.94428V8.24839L8.85997 8.25894L8.86928 8.33336ZM8.86928 9.66669L8.85997 9.74111L8.94428 9.75166V9.66669H8.86928ZM6.91824 5.84095L6.97546 5.79247L6.91824 5.84095ZM6.94461 5.50632L6.89478 5.45026H6.89478L6.94461 5.50632ZM8.92637 8.21069L8.86915 8.25918L8.9188 8.31777L8.97619 8.26675L8.92637 8.21069ZM9.98703 7.26788L10.0369 7.32394L10.1093 7.25951L10.0288 7.20556L9.98703 7.26788ZM7.32107 5.48288L7.27934 5.54521L7.32107 5.48288ZM10.66 4.31786C10.6768 4.21209 10.768 4.1342 10.875 4.1342V3.9842C10.6942 3.9842 10.5402 4.11575 10.5119 4.2944L10.66 4.31786ZM10.1991 7.22883L10.66 4.31786L10.5119 4.2944L10.051 7.20537L10.1991 7.22883ZM11.625 7.1421H10.125V7.2921H11.625V7.1421ZM11.0901 4.31786L11.551 7.22883L11.6991 7.20537L11.2382 4.2944L11.0901 4.31786ZM10.875 4.1342C10.9821 4.1342 11.0733 4.21209 11.0901 4.31786L11.2382 4.2944C11.2099 4.11575 11.0559 3.9842 10.875 3.9842V4.1342ZM14.4707 5.5452C14.5575 5.4871 14.6804 5.49546 14.7556 5.56237L14.8553 5.45026C14.7278 5.33693 14.5295 5.32532 14.3873 5.42056L14.4707 5.5452ZM11.8048 7.3302L14.4707 5.5452L14.3873 5.42056L11.7213 7.20556L11.8048 7.3302ZM12.8735 8.15463L11.8129 7.21183L11.7132 7.32394L12.7739 8.26675L12.8735 8.15463ZM14.7746 5.79246L12.7665 8.1622L12.8809 8.25918L14.889 5.88944L14.7746 5.79246ZM14.7556 5.56237C14.8274 5.62618 14.8338 5.72259 14.7746 5.79247L14.889 5.88944C15.0024 5.75572 14.9863 5.56669 14.8553 5.45026L14.7556 5.56237ZM16.5084 9.00004C16.5084 8.83526 16.3857 8.69627 16.2222 8.67581L16.2036 8.82465C16.292 8.83572 16.3584 8.91091 16.3584 9.00004H16.5084ZM16.2222 9.32427C16.3857 9.30381 16.5084 9.16482 16.5084 9.00004H16.3584C16.3584 9.08918 16.292 9.16436 16.2036 9.17543L16.2222 9.32427ZM12.8901 9.74113L16.2222 9.32427L16.2036 9.17543L12.8715 9.59229L12.8901 9.74113ZM12.8058 8.33337V9.66671H12.9558V8.33337H12.8058ZM16.2222 8.67581L12.8901 8.25895L12.8715 8.40779L16.2036 8.82465L16.2222 8.67581ZM14.7745 12.2075C14.8337 12.2774 14.8273 12.3738 14.7556 12.4376L14.8552 12.5497C14.9862 12.4333 15.0023 12.2443 14.889 12.1106L14.7745 12.2075ZM12.7664 9.8378L14.7745 12.2075L14.889 12.1106L12.8809 9.74082L12.7664 9.8378ZM11.8128 10.7882L12.8735 9.84536L12.7738 9.73325L11.7131 10.6761L11.8128 10.7882ZM14.4707 12.4548L11.8047 10.6698L11.7212 10.7944L14.3872 12.5794L14.4707 12.4548ZM14.7556 12.4376C14.6803 12.5045 14.5574 12.5129 14.4707 12.4548L14.3872 12.5794C14.5295 12.6747 14.7277 12.6631 14.8552 12.5497L14.7556 12.4376ZM10.8751 14.0159C11.056 14.0159 11.21 13.8843 11.2383 13.7057L11.0901 13.6822C11.0734 13.788 10.9822 13.8659 10.8751 13.8659V14.0159ZM10.5119 13.7057C10.5402 13.8843 10.6942 14.0159 10.8751 14.0159V13.8659C10.768 13.8659 10.6768 13.788 10.6601 13.6822L10.5119 13.7057ZM10.051 10.7947L10.5119 13.7057L10.6601 13.6822L10.1992 10.7712L10.051 10.7947ZM11.6251 10.708H10.1251V10.858H11.6251V10.708ZM11.2383 13.7057L11.6992 10.7947L11.551 10.7712L11.0901 13.6822L11.2383 13.7057ZM7.27941 12.4548C7.19263 12.5129 7.06977 12.5045 6.9945 12.4376L6.89485 12.5497C7.02234 12.6631 7.22061 12.6747 7.36287 12.5794L7.27941 12.4548ZM9.94537 10.6698L7.27941 12.4548L7.36287 12.5794L10.0288 10.7944L9.94537 10.6698ZM8.87661 9.84537L9.93727 10.7882L10.0369 10.6761L8.97626 9.73325L8.87661 9.84537ZM6.97553 12.2075L8.98365 9.8378L8.86922 9.74082L6.8611 12.1106L6.97553 12.2075ZM6.9945 12.4376C6.92272 12.3738 6.91632 12.2774 6.97553 12.2075L6.8611 12.1106C6.74778 12.2443 6.76387 12.4333 6.89485 12.5497L6.9945 12.4376ZM5.24165 9.00002C5.24165 9.1648 5.36434 9.3038 5.52784 9.32425L5.54646 9.17541C5.45802 9.16435 5.39165 9.08916 5.39165 9.00002H5.24165ZM5.52784 8.6758C5.36434 8.69625 5.24165 8.83525 5.24165 9.00002H5.39165C5.39165 8.91089 5.45802 8.8357 5.54646 8.82464L5.52784 8.6758ZM8.85997 8.25894L5.52784 8.6758L5.54646 8.82464L8.87859 8.40778L8.85997 8.25894ZM8.94428 9.66669V8.33336H8.79428V9.66669H8.94428ZM5.52784 9.32425L8.85997 9.74111L8.87859 9.59227L5.54646 9.17541L5.52784 9.32425ZM6.97546 5.79247C6.91625 5.7226 6.92265 5.62618 6.99443 5.56237L6.89478 5.45026C6.7638 5.56669 6.74771 5.75572 6.86103 5.88944L6.97546 5.79247ZM8.98358 8.1622L6.97546 5.79247L6.86103 5.88944L8.86915 8.25918L8.98358 8.1622ZM9.9372 7.21183L8.87654 8.15464L8.97619 8.26675L10.0369 7.32394L9.9372 7.21183ZM7.27934 5.54521L9.9453 7.3302L10.0288 7.20556L7.3628 5.42056L7.27934 5.54521ZM6.99443 5.56237C7.06971 5.49547 7.19256 5.4871 7.27934 5.54521L7.3628 5.42056C7.22054 5.32532 7.02227 5.33694 6.89478 5.45026L6.99443 5.56237Z" fill="#984111"/>
<path fill-rule="evenodd" clip-rule="evenodd" d="M10.875 10.8422C12.0762 10.8422 13.05 9.98796 13.05 8.93426C13.05 7.88056 12.0762 7.02637 10.875 7.02637C9.67373 7.02637 8.69995 7.88056 8.69995 8.93426C8.69995 9.98796 9.67373 10.8422 10.875 10.8422Z" fill="#FFC125" stroke="#984111" stroke-width="0.15"/>
<path d="M10.6651 8.43645C10.6427 8.4241 10.5475 8.3683 10.5242 8.35515C10.4419 8.30884 10.3762 8.27865 10.3152 8.26174C10.2818 8.25247 10.2513 8.24779 10.2237 8.24779C10.0914 8.24779 9.90435 8.32123 9.66783 8.47089L9.58008 8.36418C9.83986 8.1998 10.0527 8.11621 10.2237 8.11621C10.2678 8.11621 10.3132 8.12318 10.3605 8.13628C10.4367 8.15744 10.5127 8.19235 10.6052 8.24439C10.6304 8.25859 10.7247 8.31391 10.7449 8.32501C10.7776 8.34306 10.7988 8.35174 10.7986 8.35174C10.9777 8.35174 10.9885 8.9213 10.8619 9.09594C10.8276 9.14315 10.7856 9.1813 10.7305 9.21971C10.7094 9.23448 10.6429 9.27705 10.6331 9.28377C10.589 9.314 10.575 9.33161 10.575 9.35317C10.575 9.3569 10.6289 9.36877 10.7491 9.36376C10.7729 9.36277 10.7965 9.36136 10.8314 9.35901C10.9168 9.35325 10.9278 9.3526 10.9554 9.3526V9.48418C10.9336 9.48418 10.9222 9.48485 10.8429 9.4902C10.8067 9.49265 10.7818 9.49412 10.7562 9.49519C10.5449 9.50401 10.425 9.4776 10.425 9.35317C10.425 9.2817 10.4638 9.23277 10.5407 9.18007C10.5533 9.17147 10.6191 9.12934 10.6372 9.11671C10.6803 9.08669 10.7112 9.05863 10.7353 9.02531C10.7741 8.97182 10.7982 8.83264 10.7954 8.68509C10.7941 8.61735 10.7871 8.55517 10.7761 8.51156C10.7728 8.49847 10.7693 8.48769 10.766 8.47979C10.7375 8.47366 10.7069 8.45948 10.6651 8.43645Z" fill="#984111"/>
<path fill-rule="evenodd" clip-rule="evenodd" d="M11.2705 8.39029C11.2379 8.40924 11.2029 8.42957 11.1904 8.43645C11.1486 8.45948 11.1179 8.47366 11.0895 8.47979C11.0861 8.48769 11.0826 8.49847 11.0793 8.51156C11.0683 8.55517 11.0614 8.61735 11.0601 8.68509C11.0573 8.83264 11.0814 8.97182 11.1202 9.02531C11.1443 9.05863 11.1752 9.08669 11.2183 9.11671C11.2288 9.12406 11.2555 9.14141 11.2785 9.15632C11.2949 9.16702 11.3095 9.17648 11.3147 9.18007C11.3916 9.23277 11.4305 9.2817 11.4305 9.35317C11.4305 9.4776 11.3106 9.50401 11.0993 9.49519C11.0737 9.49412 11.0488 9.49265 11.0126 9.4902C10.9333 9.48485 10.9218 9.48418 10.9001 9.48418V9.3526C10.9277 9.3526 10.9387 9.35325 11.0241 9.35901C11.0589 9.36136 11.0826 9.36277 11.1064 9.36376C11.2266 9.36877 11.2805 9.3569 11.2805 9.35317C11.2805 9.33161 11.2665 9.314 11.2224 9.28377C11.2188 9.28128 11.2074 9.27389 11.1934 9.26481C11.1696 9.24935 11.1383 9.22901 11.1249 9.21971C11.0699 9.1813 11.0278 9.14315 10.9936 9.09594C10.8669 8.9213 10.8778 8.35174 11.0569 8.35174C11.0568 8.35174 11.0573 8.35155 11.0581 8.35117C11.0631 8.34897 11.0827 8.3404 11.1106 8.32501C11.1214 8.31909 11.1533 8.30057 11.1845 8.28242C11.2118 8.26657 11.2385 8.25101 11.2503 8.24439C11.3428 8.19235 11.4188 8.15744 11.495 8.13628C11.5422 8.12318 11.5877 8.11621 11.6318 8.11621C11.8028 8.11621 12.0156 8.1998 12.2754 8.36418L12.1876 8.47089C11.9511 8.32123 11.7641 8.24779 11.6318 8.24779C11.6042 8.24779 11.5737 8.25247 11.5402 8.26174C11.4793 8.27865 11.4136 8.30884 11.3313 8.35515C11.3209 8.36098 11.2965 8.37519 11.2705 8.39029ZM11.0942 8.47034L11.0924 8.47352L11.0935 8.47134L11.0942 8.47034Z" fill="#984111"/>
<path d="M10.5057 9.72132L10.4753 9.65277L10.5057 9.72132ZM11.2518 9.7222L11.2164 9.78836L11.2164 9.78836L11.2518 9.7222ZM11.3305 9.76422L11.3896 9.81039L11.4445 9.74009L11.3658 9.69806L11.3305 9.76422ZM11.2755 9.83453L11.3346 9.8807V9.8807L11.2755 9.83453ZM10.4821 9.84192L10.5361 9.78987L10.4821 9.84192ZM10.4078 9.76479L10.3774 9.69624L10.2795 9.7397L10.3538 9.81683L10.4078 9.76479ZM10.6797 9.8178L10.6597 9.74551L10.5122 9.78633L10.6348 9.87789L10.6797 9.8178ZM11.089 9.81637L11.1391 9.87222L11.2379 9.78362L11.111 9.74467L11.089 9.81637ZM10.4313 9.77402L10.3959 9.70786L10.3133 9.75196L10.3744 9.82293L10.4313 9.77402ZM11.3124 9.77391L11.374 9.81665L11.4177 9.75371L11.3538 9.71139L11.3124 9.77391ZM10.3473 9.64891L10.3835 9.71463L10.3473 9.64891ZM11.407 9.65683L11.3645 9.71861V9.71861L11.407 9.65683ZM11.4587 9.69239L11.4162 9.75417V9.75417L11.4587 9.69239ZM11.5198 9.73445L11.582 9.7763L11.6234 9.71474L11.5623 9.67268L11.5198 9.73445ZM11.4784 9.79601L11.5406 9.83786V9.83786L11.4784 9.79601ZM11.445 9.84563L11.3828 9.80378L11.3828 9.80378L11.445 9.84563ZM10.3054 9.85749L10.2479 9.90566H10.2479L10.3054 9.85749ZM10.2576 9.80042L10.315 9.75225L10.315 9.75225L10.2576 9.80042ZM10.199 9.7305L10.1628 9.66479L10.0829 9.70875L10.1415 9.77867L10.199 9.7305ZM10.2789 9.68654L10.2428 9.62083L10.2789 9.68654ZM10.8931 9.56416C10.7479 9.56416 10.6084 9.59367 10.4753 9.65277L10.5361 9.78987C10.6501 9.73927 10.7688 9.71416 10.8931 9.71416V9.56416ZM11.2871 9.65604C11.1693 9.59314 11.037 9.56416 10.8931 9.56416V9.71416C11.0165 9.71416 11.1238 9.73889 11.2164 9.78836L11.2871 9.65604ZM11.3658 9.69806L11.2871 9.65604L11.2164 9.78836L11.2951 9.83038L11.3658 9.69806ZM11.3346 9.8807L11.3896 9.81039L11.2714 9.71805L11.2164 9.78836L11.3346 9.8807ZM10.8931 10.1238C11.0702 10.1238 11.2171 10.0311 11.3346 9.8807L11.2164 9.78836C11.118 9.91435 11.0107 9.9738 10.8931 9.9738V10.1238ZM10.4281 9.89396C10.5646 10.0356 10.72 10.1238 10.8931 10.1238V9.9738C10.775 9.9738 10.656 9.91425 10.5361 9.78987L10.4281 9.89396ZM10.3538 9.81683L10.4281 9.89396L10.5361 9.78987L10.4618 9.71274L10.3538 9.81683ZM10.4753 9.65277L10.3774 9.69624L10.4382 9.83333L10.5361 9.78987L10.4753 9.65277ZM10.8931 9.8238C10.8467 9.8238 10.7911 9.80736 10.7246 9.7577L10.6348 9.87789C10.7215 9.94262 10.8079 9.9738 10.8931 9.9738V9.8238ZM11.0389 9.76053C10.9855 9.80845 10.9378 9.8238 10.8931 9.8238V9.9738C10.9791 9.9738 11.0615 9.94176 11.1391 9.87222L11.0389 9.76053ZM10.8931 9.86416C10.9592 9.86416 11.0167 9.87262 11.067 9.88807L11.111 9.74467C11.0445 9.72427 10.972 9.71416 10.8931 9.71416V9.86416ZM10.6997 9.89008C10.7621 9.87279 10.8264 9.86416 10.8931 9.86416V9.71416C10.8132 9.71416 10.7355 9.72453 10.6597 9.74551L10.6997 9.89008ZM10.893 9.95537C10.7654 9.95537 10.6305 9.89061 10.4881 9.7251L10.3744 9.82293C10.5344 10.0089 10.7073 10.1054 10.893 10.1054V9.95537ZM11.2508 9.73117C11.1391 9.8922 11.0194 9.95537 10.893 9.95537V10.1054C11.0814 10.1054 11.2426 10.0062 11.374 9.81665L11.2508 9.73117ZM10.893 9.73257C11.0447 9.73257 11.1693 9.76907 11.271 9.83643L11.3538 9.71139C11.2242 9.62549 11.0698 9.58257 10.893 9.58257V9.73257ZM10.4666 9.84017C10.6012 9.76827 10.7432 9.73257 10.893 9.73257V9.58257C10.7182 9.58257 10.552 9.62452 10.3959 9.70786L10.4666 9.84017ZM10.893 9.43257C10.6877 9.43257 10.4925 9.48343 10.3112 9.5832L10.3835 9.71463C10.5431 9.62681 10.7134 9.58257 10.893 9.58257V9.43257ZM11.4496 9.59506C11.2893 9.48475 11.1006 9.43257 10.893 9.43257V9.58257C11.0747 9.58257 11.2328 9.62793 11.3645 9.71861L11.4496 9.59506ZM11.5012 9.63062L11.4496 9.59506L11.3645 9.71861L11.4162 9.75417L11.5012 9.63062ZM11.5623 9.67268L11.5012 9.63062L11.4162 9.75417L11.4773 9.79623L11.5623 9.67268ZM11.5406 9.83786L11.582 9.7763L11.4575 9.69261L11.4162 9.75417L11.5406 9.83786ZM11.5073 9.88747L11.5406 9.83786L11.4162 9.75417L11.3828 9.80378L11.5073 9.88747ZM10.893 10.2554C11.1499 10.2554 11.3553 10.1135 11.5073 9.88747L11.3828 9.80378C11.2498 10.0016 11.0858 10.1054 10.893 10.1054V10.2554ZM10.2479 9.90566C10.428 10.1206 10.6431 10.2554 10.893 10.2554V10.1054C10.7028 10.1054 10.5261 10.0041 10.3629 9.80933L10.2479 9.90566ZM10.2001 9.84859L10.2479 9.90566L10.3629 9.80933L10.315 9.75225L10.2001 9.84859ZM10.1415 9.77867L10.2001 9.84859L10.315 9.75225L10.2565 9.68234L10.1415 9.77867ZM10.2428 9.62083L10.1628 9.66479L10.2351 9.79622L10.315 9.75225L10.2428 9.62083ZM10.3112 9.5832L10.2428 9.62083L10.315 9.75225L10.3835 9.71463L10.3112 9.5832Z" fill="#984111"/>
<path d="M9.83045 8.45156L9.85988 8.52054H9.85988L9.83045 8.45156ZM9.72625 8.5186L9.67299 8.4658L9.67299 8.4658L9.72625 8.5186ZM9.72625 8.74876L9.77952 8.69596L9.77952 8.69596L9.72625 8.74876ZM9.83045 8.8158L9.85988 8.74682L9.85988 8.74682L9.83045 8.8158ZM10.4196 8.8158L10.3902 8.74682L10.4196 8.8158ZM10.5238 8.74876L10.4706 8.69596L10.4706 8.69596L10.5238 8.74876ZM10.5238 8.5186L10.4706 8.5714L10.4706 8.5714L10.5238 8.5186ZM10.4196 8.45156L10.4491 8.38258V8.38258L10.4196 8.45156ZM9.8249 8.635L9.82427 8.56001H9.82427L9.8249 8.635ZM9.83278 8.64316L9.88605 8.59036L9.88605 8.59036L9.83278 8.64316ZM9.88932 8.67784L9.91875 8.60885L9.91875 8.60885L9.88932 8.67784ZM10.3608 8.67784L10.3313 8.60885L10.3313 8.60885L10.3608 8.67784ZM10.4173 8.64316L10.4706 8.69596V8.69596L10.4173 8.64316ZM10.4252 8.635L10.4259 8.56L10.4254 8.56L10.4252 8.635ZM10.4252 8.63236L10.4242 8.55737L10.4242 8.55737L10.4252 8.63236ZM10.4173 8.6242L10.4706 8.5714V8.5714L10.4173 8.6242ZM10.3608 8.58953L10.3902 8.52054L10.3608 8.58953ZM9.88932 8.58953L9.85988 8.52054L9.85988 8.52054L9.88932 8.58953ZM9.83278 8.6242L9.77952 8.5714L9.77952 8.5714L9.83278 8.6242ZM9.8249 8.63236L9.82428 8.70736L9.82461 8.70736L9.8249 8.63236ZM11.3305 8.45156L11.3011 8.38258V8.38258L11.3305 8.45156ZM11.2263 8.5186L11.173 8.4658L11.173 8.4658L11.2263 8.5186ZM11.2263 8.74876L11.173 8.80156L11.173 8.80156L11.2263 8.74876ZM11.3305 8.8158L11.3011 8.88479V8.88479L11.3305 8.8158ZM11.9197 8.8158L11.8903 8.74682L11.8903 8.74682L11.9197 8.8158ZM12.0239 8.74876L11.9706 8.69596L11.9706 8.69596L12.0239 8.74876ZM12.0239 8.5186L11.9706 8.5714L11.9706 8.5714L12.0239 8.5186ZM11.9197 8.45156L11.8903 8.52054V8.52054L11.9197 8.45156ZM11.3328 8.64316L11.2796 8.69596L11.2796 8.69596L11.3328 8.64316ZM11.3894 8.67784L11.4188 8.60885L11.4188 8.60885L11.3894 8.67784ZM11.8608 8.67784L11.8314 8.60885L11.8314 8.60885L11.8608 8.67784ZM11.9174 8.64316L11.9706 8.69596L11.9706 8.69596L11.9174 8.64316ZM11.9252 8.635L11.9259 8.56L11.9254 8.56L11.9252 8.635ZM11.9252 8.63236L11.9243 8.55737L11.9242 8.55737L11.9252 8.63236ZM11.9174 8.6242L11.9706 8.5714L11.9706 8.5714L11.9174 8.6242ZM11.8608 8.58953L11.8314 8.65851V8.65851L11.8608 8.58953ZM11.3894 8.58953L11.4188 8.65851V8.65851L11.3894 8.58953ZM11.3328 8.6242L11.2796 8.5714L11.2796 8.5714L11.3328 8.6242ZM11.3249 8.63236L11.3243 8.70736L11.3247 8.70736L11.3249 8.63236ZM9.85988 8.52054C9.92774 8.49159 10.0215 8.47368 10.125 8.47368V8.32368C10.0062 8.32368 9.89158 8.34394 9.80102 8.38258L9.85988 8.52054ZM9.77952 8.5714C9.79849 8.55226 9.82595 8.53502 9.85988 8.52054L9.80102 8.38258C9.75601 8.40178 9.70997 8.42849 9.67299 8.4658L9.77952 8.5714ZM9.75005 8.63368C9.75005 8.61171 9.76043 8.59065 9.77952 8.5714L9.67299 8.4658C9.63549 8.50362 9.60005 8.56051 9.60005 8.63368H9.75005ZM9.77952 8.69596C9.76043 8.67671 9.75005 8.65566 9.75005 8.63368H9.60005C9.60005 8.70685 9.63549 8.76374 9.67299 8.80156L9.77952 8.69596ZM9.85988 8.74682C9.82595 8.73234 9.79849 8.7151 9.77952 8.69596L9.67299 8.80156C9.70997 8.83887 9.75601 8.86558 9.80102 8.88479L9.85988 8.74682ZM10.125 8.79368C10.0215 8.79368 9.92774 8.77577 9.85988 8.74682L9.80102 8.88479C9.89158 8.92343 10.0062 8.94368 10.125 8.94368V8.79368ZM10.3902 8.74682C10.3224 8.77577 10.2286 8.79368 10.125 8.79368V8.94368C10.2439 8.94368 10.3585 8.92343 10.4491 8.88479L10.3902 8.74682ZM10.4706 8.69596C10.4516 8.7151 10.4241 8.73234 10.3902 8.74682L10.4491 8.88479C10.4941 8.86558 10.5401 8.83887 10.5771 8.80156L10.4706 8.69596ZM10.5 8.63368C10.5 8.65566 10.4897 8.67671 10.4706 8.69596L10.5771 8.80156C10.6146 8.76374 10.65 8.70685 10.65 8.63368H10.5ZM10.4706 8.5714C10.4897 8.59065 10.5 8.61171 10.5 8.63368H10.65C10.65 8.56051 10.6146 8.50362 10.5771 8.4658L10.4706 8.5714ZM10.3902 8.52054C10.4241 8.53502 10.4516 8.55226 10.4706 8.5714L10.5771 8.4658C10.5401 8.42849 10.4941 8.40178 10.4491 8.38258L10.3902 8.52054ZM10.125 8.47368C10.2286 8.47368 10.3224 8.49159 10.3902 8.52054L10.4491 8.38258C10.3585 8.34394 10.2439 8.32368 10.125 8.32368V8.47368ZM9.82552 8.71C9.85389 8.70977 9.8715 8.69409 9.87599 8.68991C9.88237 8.68397 9.88624 8.67826 9.88787 8.67575C9.89139 8.67031 9.89338 8.66564 9.89406 8.66401C9.89576 8.65997 9.89673 8.65665 9.89714 8.65519C9.89812 8.65169 9.89869 8.6487 9.89903 8.64658C9.89976 8.64205 9.90005 8.63772 9.90005 8.63368H9.75005C9.75005 8.63053 9.75027 8.62685 9.75093 8.62277C9.75124 8.62087 9.75177 8.61804 9.75272 8.61465C9.75311 8.61325 9.75407 8.60997 9.75575 8.60595C9.75643 8.60434 9.75842 8.59968 9.76194 8.59425C9.76356 8.59174 9.76742 8.58604 9.7738 8.5801C9.7783 8.57592 9.7959 8.56024 9.82427 8.56001L9.82552 8.71ZM9.75783 8.6011C9.75638 8.6041 9.75489 8.60764 9.75359 8.61165C9.753 8.61349 9.75213 8.6164 9.7514 8.62002C9.75112 8.6214 9.75036 8.62526 9.75004 8.63025C9.74994 8.63192 9.74948 8.63873 9.75091 8.64729C9.75151 8.6509 9.75347 8.66178 9.76065 8.6737C9.76879 8.68722 9.78978 8.7103 9.82552 8.71L9.82427 8.56001C9.86001 8.55971 9.881 8.58279 9.88914 8.59631C9.89632 8.60823 9.89828 8.6191 9.89888 8.6227C9.9003 8.63126 9.89985 8.63806 9.89974 8.63972C9.89943 8.64468 9.89868 8.6485 9.89841 8.64983C9.89769 8.65333 9.89687 8.65608 9.89635 8.6577C9.8952 8.66127 9.89395 8.66415 9.89293 8.66627L9.75783 8.6011ZM9.88605 8.59036C9.88551 8.58982 9.88918 8.59331 9.89293 8.6011L9.75783 8.66626C9.76316 8.67732 9.77076 8.68712 9.77952 8.69596L9.88605 8.59036ZM9.91875 8.60885C9.90774 8.60416 9.89972 8.59981 9.89419 8.59631C9.89144 8.59458 9.88942 8.59313 9.88803 8.59204C9.88663 8.59094 9.88603 8.59035 9.88605 8.59036L9.77952 8.69596C9.7985 8.7151 9.82595 8.73234 9.85988 8.74682L9.91875 8.60885ZM10.125 8.64368C10.0367 8.64368 9.96391 8.62812 9.91875 8.60885L9.85988 8.74682C9.92774 8.77577 10.0215 8.79368 10.125 8.79368V8.64368ZM10.3313 8.60885C10.2862 8.62812 10.2133 8.64368 10.125 8.64368V8.79368C10.2286 8.79368 10.3224 8.77577 10.3902 8.74682L10.3313 8.60885ZM10.3641 8.59036C10.3641 8.59035 10.3635 8.59094 10.3621 8.59204C10.3607 8.59313 10.3587 8.59458 10.3559 8.59631C10.3504 8.59981 10.3424 8.60416 10.3313 8.60885L10.3902 8.74682C10.4241 8.73234 10.4516 8.7151 10.4706 8.69596L10.3641 8.59036ZM10.3572 8.6011C10.3609 8.59331 10.3646 8.58982 10.3641 8.59036L10.4706 8.69596C10.4793 8.68712 10.4869 8.67732 10.4923 8.66627L10.3572 8.6011ZM10.4961 8.61054C10.495 8.60703 10.4936 8.60387 10.4923 8.6011L10.3572 8.66626C10.3562 8.6643 10.3551 8.66176 10.3541 8.65868L10.4961 8.61054ZM10.4245 8.71C10.4638 8.71037 10.4846 8.68296 10.4914 8.67033C10.4977 8.65849 10.4992 8.64795 10.4996 8.64471C10.5006 8.63667 10.5001 8.63031 10.4999 8.62873C10.4996 8.62401 10.4988 8.62037 10.4985 8.61896C10.4977 8.61538 10.4968 8.61248 10.4961 8.61054L10.3541 8.65868C10.3535 8.65701 10.3527 8.6543 10.3519 8.65085C10.3516 8.64951 10.3509 8.64591 10.3505 8.64122C10.3503 8.63966 10.3498 8.63332 10.3508 8.62528C10.3513 8.62205 10.3527 8.61151 10.359 8.59968C10.3658 8.58704 10.3866 8.55964 10.4259 8.56001L10.4245 8.71ZM10.4254 8.56L9.82521 8.55868L9.82488 8.70868L10.425 8.71L10.4254 8.56ZM10.35 8.63368C10.35 8.63739 10.3503 8.6413 10.3509 8.64534L10.4993 8.62389C10.4999 8.62749 10.5 8.63077 10.5 8.63368H10.35ZM10.4242 8.55737C10.396 8.55774 10.3785 8.57338 10.374 8.57754C10.3677 8.58346 10.3638 8.58914 10.3622 8.59165C10.3587 8.59708 10.3567 8.60174 10.356 8.60336C10.3543 8.6074 10.3534 8.61072 10.353 8.61218C10.352 8.61567 10.3514 8.61867 10.3511 8.62079C10.3503 8.62531 10.35 8.62965 10.35 8.63368H10.5C10.5 8.63683 10.4998 8.64051 10.4992 8.64459C10.4989 8.64649 10.4983 8.64932 10.4974 8.65271C10.497 8.65411 10.496 8.65739 10.4943 8.6614C10.4937 8.66301 10.4917 8.66766 10.4882 8.67308C10.4866 8.67558 10.4827 8.68126 10.4764 8.68718C10.4719 8.69134 10.4544 8.70698 10.4262 8.70735L10.4242 8.55737ZM10.4923 8.66626C10.4937 8.66327 10.4952 8.65972 10.4965 8.65571C10.4971 8.65387 10.498 8.65096 10.4987 8.64734C10.499 8.64596 10.4997 8.6421 10.5001 8.6371C10.5002 8.63543 10.5006 8.62859 10.4992 8.62001C10.4986 8.61639 10.4966 8.60547 10.4894 8.59351C10.4811 8.57988 10.46 8.55691 10.4242 8.55737L10.4262 8.70735C10.3904 8.70781 10.3693 8.68484 10.3611 8.67121C10.3538 8.65925 10.3518 8.64833 10.3512 8.64472C10.3498 8.63614 10.3503 8.62931 10.3504 8.62766C10.3507 8.62269 10.3514 8.61887 10.3517 8.61754C10.3524 8.61403 10.3532 8.61129 10.3537 8.60967C10.3549 8.6061 10.3561 8.60322 10.3572 8.6011L10.4923 8.66626ZM10.3641 8.67701C10.3646 8.67754 10.3609 8.67405 10.3572 8.66626L10.4923 8.6011C10.4869 8.59004 10.4793 8.58024 10.4706 8.5714L10.3641 8.67701ZM10.3313 8.65851C10.3424 8.66321 10.3504 8.66756 10.3559 8.67105C10.3587 8.67279 10.3607 8.67424 10.3621 8.67532C10.3635 8.67642 10.3641 8.67702 10.3641 8.67701L10.4706 8.5714C10.4516 8.55226 10.4241 8.53502 10.3902 8.52054L10.3313 8.65851ZM10.125 8.62368C10.2133 8.62368 10.2862 8.63924 10.3313 8.65851L10.3902 8.52054C10.3224 8.49159 10.2286 8.47368 10.125 8.47368V8.62368ZM9.91875 8.65851C9.96391 8.63924 10.0367 8.62368 10.125 8.62368V8.47368C10.0215 8.47368 9.92774 8.49159 9.85988 8.52054L9.91875 8.65851ZM9.88605 8.67701C9.88603 8.67702 9.88663 8.67642 9.88803 8.67532C9.88942 8.67424 9.89144 8.67279 9.89419 8.67105C9.89972 8.66756 9.90774 8.66321 9.91875 8.65851L9.85988 8.52054C9.82595 8.53502 9.7985 8.55226 9.77952 8.5714L9.88605 8.67701ZM9.89293 8.66627C9.88918 8.67405 9.88551 8.67754 9.88605 8.67701L9.77952 8.5714C9.77076 8.58024 9.76316 8.59004 9.75783 8.6011L9.89293 8.66627ZM9.75395 8.65681C9.75515 8.66033 9.75649 8.66349 9.75783 8.66627L9.89293 8.6011C9.89388 8.60307 9.89498 8.60561 9.89603 8.60869L9.75395 8.65681ZM9.82551 8.55736C9.78605 8.55704 9.76532 8.58462 9.75865 8.59719C9.75237 8.60901 9.75093 8.61953 9.75051 8.62275C9.74947 8.63077 9.75002 8.63711 9.75016 8.63868C9.75055 8.64339 9.75132 8.64702 9.75162 8.64842C9.7524 8.65199 9.7533 8.65488 9.75395 8.65681L9.89603 8.60869C9.89659 8.61036 9.89744 8.61306 9.89819 8.6165C9.89848 8.61783 9.89923 8.62142 9.89963 8.62609C9.89976 8.62765 9.90031 8.63397 9.89927 8.64198C9.89886 8.6452 9.89741 8.65571 9.89114 8.66753C9.88446 8.6801 9.86374 8.70768 9.82428 8.70736L9.82551 8.55736ZM9.82461 8.70736L10.4248 8.70961L10.4254 8.55961L9.82518 8.55736L9.82461 8.70736ZM9.90005 8.63368C9.90005 8.62998 9.8998 8.62606 9.89922 8.62201L9.75076 8.64349C9.75024 8.63988 9.75005 8.63658 9.75005 8.63368H9.90005ZM9.8999 8.62896L9.89984 8.62803L9.75014 8.63747L9.7502 8.6384L9.8999 8.62896ZM11.3599 8.52054C11.4278 8.49159 11.5215 8.47368 11.6251 8.47368V8.32368C11.5063 8.32368 11.3916 8.34394 11.3011 8.38258L11.3599 8.52054ZM11.2796 8.5714C11.2985 8.55226 11.326 8.53502 11.3599 8.52054L11.3011 8.38258C11.2561 8.40178 11.21 8.42849 11.173 8.4658L11.2796 8.5714ZM11.2501 8.63368C11.2501 8.61171 11.2605 8.59065 11.2796 8.5714L11.173 8.4658C11.1355 8.50362 11.1001 8.56051 11.1001 8.63368H11.2501ZM11.2796 8.69596C11.2605 8.67671 11.2501 8.65566 11.2501 8.63368H11.1001C11.1001 8.70685 11.1355 8.76374 11.173 8.80156L11.2796 8.69596ZM11.3599 8.74682C11.326 8.73234 11.2985 8.7151 11.2796 8.69596L11.173 8.80156C11.21 8.83887 11.2561 8.86558 11.3011 8.88479L11.3599 8.74682ZM11.6251 8.79368C11.5215 8.79368 11.4278 8.77577 11.3599 8.74682L11.3011 8.88479C11.3916 8.92343 11.5063 8.94368 11.6251 8.94368V8.79368ZM11.8903 8.74682C11.8224 8.77577 11.7287 8.79368 11.6251 8.79368V8.94368C11.7439 8.94368 11.8586 8.92343 11.9491 8.88479L11.8903 8.74682ZM11.9706 8.69596C11.9516 8.7151 11.9242 8.73234 11.8903 8.74682L11.9491 8.88479C11.9941 8.86558 12.0402 8.83887 12.0772 8.80156L11.9706 8.69596ZM12.0001 8.63368C12.0001 8.65566 11.9897 8.67671 11.9706 8.69596L12.0772 8.80156C12.1146 8.76374 12.1501 8.70685 12.1501 8.63368H12.0001ZM11.9706 8.5714C11.9897 8.59065 12.0001 8.61171 12.0001 8.63368H12.1501C12.1501 8.56051 12.1146 8.50362 12.0772 8.4658L11.9706 8.5714ZM11.8903 8.52054C11.9242 8.53502 11.9516 8.55226 11.9706 8.5714L12.0772 8.4658C12.0402 8.42849 11.9941 8.40178 11.9491 8.38258L11.8903 8.52054ZM11.6251 8.47368C11.7287 8.47368 11.8224 8.49159 11.8903 8.52054L11.9491 8.38258C11.8586 8.34394 11.7439 8.32368 11.6251 8.32368V8.47368ZM11.3256 8.71C11.354 8.70977 11.3716 8.69406 11.3761 8.68988C11.3824 8.68394 11.3863 8.67824 11.3879 8.67573C11.3914 8.67029 11.3934 8.66563 11.3941 8.664C11.3958 8.65996 11.3968 8.65664 11.3972 8.65519C11.3982 8.65169 11.3987 8.6487 11.3991 8.64658C11.3998 8.64205 11.4001 8.63772 11.4001 8.63368H11.2501C11.2501 8.63053 11.2503 8.62685 11.251 8.62277C11.2513 8.62087 11.2518 8.61804 11.2528 8.61465C11.2532 8.61325 11.2541 8.60998 11.2558 8.60596C11.2565 8.60435 11.2585 8.5997 11.262 8.59427C11.2636 8.59176 11.2675 8.58606 11.2738 8.58012C11.2783 8.57595 11.2959 8.56024 11.3243 8.56001L11.3256 8.71ZM11.2579 8.6011C11.2564 8.6041 11.2549 8.60764 11.2536 8.61165C11.253 8.61349 11.2522 8.6164 11.2514 8.62002C11.2512 8.6214 11.2504 8.62526 11.2501 8.63026C11.25 8.63193 11.2495 8.63875 11.251 8.64732C11.2516 8.65094 11.2535 8.66182 11.2607 8.67374C11.2689 8.68728 11.2899 8.7103 11.3256 8.71L11.3243 8.56001C11.36 8.55971 11.381 8.58273 11.3892 8.59626C11.3964 8.60818 11.3983 8.61906 11.3989 8.62267C11.4003 8.63123 11.3999 8.63805 11.3998 8.63971C11.3995 8.64468 11.3987 8.64849 11.3985 8.64982C11.3977 8.65333 11.3969 8.65608 11.3964 8.6577C11.3952 8.66127 11.394 8.66415 11.393 8.66626L11.2579 8.6011ZM11.3861 8.59036C11.3856 8.58982 11.3892 8.59331 11.393 8.6011L11.2579 8.66626C11.2632 8.67732 11.2708 8.68712 11.2796 8.69596L11.3861 8.59036ZM11.4188 8.60885C11.4078 8.60416 11.3998 8.59981 11.3942 8.59631C11.3915 8.59458 11.3895 8.59313 11.3881 8.59204C11.3867 8.59094 11.3861 8.59035 11.3861 8.59036L11.2796 8.69596C11.2985 8.7151 11.326 8.73234 11.3599 8.74682L11.4188 8.60885ZM11.6251 8.64368C11.5368 8.64368 11.464 8.62812 11.4188 8.60885L11.3599 8.74682C11.4278 8.77577 11.5215 8.79368 11.6251 8.79368V8.64368ZM11.8314 8.60885C11.7862 8.62812 11.7134 8.64368 11.6251 8.64368V8.79368C11.7287 8.79368 11.8224 8.77577 11.8903 8.74682L11.8314 8.60885ZM11.8641 8.59036C11.8641 8.59035 11.8635 8.59094 11.8621 8.59204C11.8607 8.59313 11.8587 8.59458 11.856 8.59631C11.8504 8.59981 11.8424 8.60416 11.8314 8.60885L11.8903 8.74682C11.9242 8.73234 11.9516 8.7151 11.9706 8.69596L11.8641 8.59036ZM11.8572 8.6011C11.861 8.59331 11.8646 8.58982 11.8641 8.59036L11.9706 8.69596C11.9794 8.68712 11.987 8.67732 11.9923 8.66627L11.8572 8.6011ZM11.9962 8.61047C11.9949 8.60681 11.9935 8.60366 11.9923 8.60112L11.8572 8.66625C11.8564 8.6645 11.8552 8.66196 11.8541 8.65874L11.9962 8.61047ZM11.9246 8.71C11.9641 8.71037 11.9848 8.68273 11.9914 8.67037C11.9977 8.65863 11.9992 8.64819 11.9996 8.64496C12.0007 8.63696 12.0001 8.63063 12 8.62903C11.9996 8.62427 11.9989 8.6206 11.9986 8.61915C11.9978 8.61548 11.9969 8.61249 11.9962 8.61047L11.8541 8.65874C11.8535 8.65698 11.8527 8.65419 11.8519 8.65066C11.8516 8.64927 11.8509 8.64565 11.8505 8.64093C11.8504 8.63935 11.8498 8.63303 11.8509 8.62503C11.8513 8.62181 11.8528 8.61137 11.8591 8.59963C11.8657 8.58728 11.8864 8.55964 11.9259 8.56001L11.9246 8.71ZM11.9254 8.56L11.3253 8.55868L11.3249 8.70868L11.9251 8.71L11.9254 8.56ZM11.8501 8.63368C11.8501 8.63738 11.8503 8.64125 11.8509 8.64523L11.9994 8.62398C11.9999 8.62753 12.0001 8.63078 12.0001 8.63368H11.8501ZM11.9242 8.55737C11.8959 8.55775 11.8785 8.57344 11.874 8.57758C11.8677 8.5835 11.8639 8.58918 11.8622 8.59168C11.8587 8.59709 11.8568 8.60175 11.8561 8.60337C11.8544 8.6074 11.8534 8.61071 11.853 8.61217C11.852 8.61566 11.8515 8.61865 11.8511 8.62078C11.8504 8.62531 11.8501 8.62964 11.8501 8.63368H12.0001C12.0001 8.63684 11.9999 8.64052 11.9992 8.64461C11.9989 8.64651 11.9984 8.64933 11.9974 8.65272C11.997 8.65412 11.9961 8.65739 11.9944 8.66139C11.9937 8.663 11.9917 8.66764 11.9882 8.67305C11.9866 8.67555 11.9828 8.68123 11.9765 8.68715C11.972 8.69128 11.9545 8.70697 11.9263 8.70735L11.9242 8.55737ZM11.9923 8.66627C11.9938 8.66327 11.9953 8.65972 11.9966 8.65571C11.9971 8.65387 11.998 8.65096 11.9987 8.64734C11.999 8.64595 11.9998 8.64209 12.0001 8.63709C12.0002 8.63542 12.0007 8.62859 11.9992 8.62C11.9986 8.61638 11.9966 8.60546 11.9894 8.5935C11.9811 8.57988 11.96 8.55691 11.9243 8.55737L11.9262 8.70735C11.8905 8.70781 11.8694 8.68484 11.8611 8.67122C11.8539 8.65926 11.8519 8.64834 11.8513 8.64473C11.8498 8.63615 11.8503 8.62932 11.8504 8.62767C11.8507 8.6227 11.8515 8.61888 11.8517 8.61755C11.8524 8.61404 11.8533 8.61129 11.8538 8.60967C11.8549 8.6061 11.8562 8.60321 11.8572 8.6011L11.9923 8.66627ZM11.8641 8.677C11.8646 8.67754 11.861 8.67405 11.8572 8.66627L11.9923 8.60109C11.987 8.59004 11.9794 8.58024 11.9706 8.5714L11.8641 8.677ZM11.8314 8.65851C11.8424 8.66321 11.8504 8.66756 11.856 8.67105C11.8587 8.67279 11.8607 8.67424 11.8621 8.67532C11.8635 8.67642 11.8641 8.67702 11.8641 8.67701L11.9706 8.5714C11.9516 8.55226 11.9242 8.53502 11.8903 8.52054L11.8314 8.65851ZM11.6251 8.62368C11.7134 8.62368 11.7862 8.63924 11.8314 8.65851L11.8903 8.52054C11.8224 8.49159 11.7287 8.47368 11.6251 8.47368V8.62368ZM11.4188 8.65851C11.464 8.63924 11.5368 8.62368 11.6251 8.62368V8.47368C11.5215 8.47368 11.4278 8.49159 11.3599 8.52054L11.4188 8.65851ZM11.3861 8.67701C11.3861 8.67702 11.3867 8.67642 11.3881 8.67532C11.3895 8.67424 11.3915 8.67279 11.3942 8.67105C11.3998 8.66756 11.4078 8.66321 11.4188 8.65851L11.3599 8.52054C11.326 8.53502 11.2985 8.55226 11.2796 8.5714L11.3861 8.67701ZM11.393 8.66626C11.3892 8.67405 11.3856 8.67754 11.3861 8.67701L11.2796 8.5714C11.2708 8.58024 11.2632 8.59004 11.2579 8.6011L11.393 8.66626ZM11.254 8.65688C11.2552 8.66047 11.2566 8.66362 11.2579 8.66626L11.393 8.60111C11.3939 8.60294 11.395 8.60548 11.3961 8.60863L11.254 8.65688ZM11.3256 8.55736C11.2859 8.55704 11.2652 8.5849 11.2587 8.59722C11.2525 8.60895 11.251 8.61938 11.2506 8.62259C11.2495 8.63057 11.2501 8.63687 11.2502 8.63846C11.2506 8.64319 11.2513 8.64684 11.2516 8.64828C11.2524 8.65191 11.2533 8.65487 11.254 8.65687L11.3961 8.60864C11.3966 8.61037 11.3975 8.61314 11.3983 8.61664C11.3986 8.61801 11.3993 8.62162 11.3997 8.62631C11.3998 8.62788 11.4003 8.63417 11.3993 8.64214C11.3989 8.64535 11.3974 8.65577 11.3912 8.6675C11.3847 8.67982 11.364 8.70768 11.3243 8.70736L11.3256 8.55736ZM11.3247 8.70736L11.9249 8.70961L11.9254 8.55961L11.3252 8.55736L11.3247 8.70736ZM11.4001 8.63368C11.4001 8.63 11.3999 8.62612 11.3993 8.6221L11.2508 8.64341C11.2503 8.63983 11.2501 8.63657 11.2501 8.63368H11.4001ZM11.3999 8.62899L11.3999 8.62806L11.2502 8.63745L11.2502 8.63837L11.3999 8.62899Z" fill="#984111"/>
</g>
</g>
</g>
<defs>
<filter id="filter0_dd_5_5881" x="0" y="0" width="42" height="30" filterUnits="userSpaceOnUse" color-interpolation-filters="sRGB">
<feFlood flood-opacity="0" result="BackgroundImageFix"/>
<feColorMatrix in="SourceAlpha" type="matrix" values="0 0 0 0 0 0 0 0 0 0 0 0 0 0 0 0 0 0 127 0" result="hardAlpha"/>
<feOffset dy="1"/>
<feGaussianBlur stdDeviation="1"/>
<feColorMatrix type="matrix" values="0 0 0 0 0.0627451 0 0 0 0 0.0941176 0 0 0 0 0.156863 0 0 0 0.06 0"/>
<feBlend mode="normal" in2="BackgroundImageFix" result="effect1_dropShadow_5_5881"/>
<feColorMatrix in="SourceAlpha" type="matrix" values="0 0 0 0 0 0 0 0 0 0 0 0 0 0 0 0 0 0 127 0" result="hardAlpha"/>
<feOffset dy="1"/>
<feGaussianBlur stdDeviation="1.5"/>
<feColorMatrix type="matrix" values="0 0 0 0 0.0627451 0 0 0 0 0.0941176 0 0 0 0 0.156863 0 0 0 0.1 0"/>
<feBlend mode="normal" in2="effect1_dropShadow_5_5881" result="effect2_dropShadow_5_5881"/>
<feBlend mode="normal" in="SourceGraphic" in2="effect2_dropShadow_5_5881" result="shape"/>
</filter>
</defs>
</svg>
