<svg width="42" height="30" viewBox="0 0 42 30" fill="none" xmlns="http://www.w3.org/2000/svg">
<g filter="url(#filter0_dd_5_9969)">
<mask id="mask0_5_9969" style="mask-type:alpha" maskUnits="userSpaceOnUse" x="3" y="2" width="36" height="24">
<rect x="3" y="2" width="36" height="24" fill="white"/>
</mask>
<g mask="url(#mask0_5_9969)">
<path fill-rule="evenodd" clip-rule="evenodd" d="M3 2V26H39V2H3Z" fill="#67BFE5"/>
<mask id="mask1_5_9969" style="mask-type:alpha" maskUnits="userSpaceOnUse" x="3" y="2" width="36" height="24">
<path fill-rule="evenodd" clip-rule="evenodd" d="M3 2V26H39V2H3Z" fill="white"/>
</mask>
<g mask="url(#mask1_5_9969)">
<path fill-rule="evenodd" clip-rule="evenodd" d="M25.5 12H36.3621V20.3333C36.3621 20.3333 35.4512 24 30.931 24C26.4109 24 25.5 20.3333 25.5 20.3333V12Z" fill="#F7FCFF"/>
<mask id="mask2_5_9969" style="mask-type:alpha" maskUnits="userSpaceOnUse" x="25" y="12" width="12" height="12">
<path fill-rule="evenodd" clip-rule="evenodd" d="M25.5 12H36.3621V20.3333C36.3621 20.3333 35.4512 24 30.931 24C26.4109 24 25.5 20.3333 25.5 20.3333V12Z" fill="white"/>
</mask>
<g mask="url(#mask2_5_9969)">
<rect x="25.5" y="12" width="10.8621" height="3" fill="#C3352C"/>
<rect x="30.1553" y="14.6667" width="1.55172" height="9.33333" fill="#C3352C"/>
<rect x="25.5" y="18.3333" width="10.8621" height="1.33333" fill="#C3352C"/>
<path fill-rule="evenodd" clip-rule="evenodd" d="M28.3581 22.7371C29.0112 23.5577 29.5434 23.8781 29.9196 23.3944C30.184 23.0546 30.2113 22.7147 29.8346 22.6481C29.6161 22.4013 29.4619 22.2088 29.3738 22.0745L29.3865 22.0639C29.4921 21.9726 29.4961 21.8509 29.4752 21.8055C29.4673 21.7434 29.5197 21.659 29.8591 21.4283C30.1666 21.2194 30.3029 21.0227 30.1014 20.806C29.9955 20.6921 29.9003 20.6693 29.6001 20.6281L29.5078 20.6153C29.419 20.6027 29.3544 20.5901 29.3137 20.5792L29.1049 20.2236C28.6689 20.2117 28.3281 20.28 27.9554 20.4199C27.7949 20.4802 27.6867 20.5212 27.6144 20.5485C27.5042 20.5902 27.4779 20.6002 27.4772 20.5986C27.477 20.5981 27.4793 20.5965 27.4823 20.5944C27.4909 20.5883 27.5053 20.5781 27.4845 20.5781C27.4058 20.5781 27.3207 20.5703 27.0845 20.5436L27.0382 20.5384C26.3592 20.4626 26.1891 20.465 26.0791 20.746C25.9117 21.1734 26.9028 21.957 27.429 22.0512C27.6925 22.0983 28.008 22.3226 28.3581 22.7371ZM29.0964 22.1486C29.1602 22.1486 29.2095 22.1463 29.2528 22.1358L29.266 22.1102C29.2306 22.1316 29.1775 22.1486 29.0964 22.1486ZM26.6183 20.9682C26.6044 20.9537 26.6007 20.935 26.6103 20.9103C26.6083 20.9154 26.6147 20.9264 26.6279 20.9419L26.6183 20.9682ZM26.6856 21.0001C26.6607 20.9771 26.641 20.9573 26.628 20.9419L26.6184 20.9682C26.632 20.9823 26.6554 20.9925 26.6856 21.0001ZM27.54 21.561C27.3514 21.5272 26.8718 21.1725 26.6856 21.0001C26.7344 21.0126 26.801 21.0186 26.8726 21.0251C26.9038 21.028 26.936 21.0309 26.9682 21.0345L27.0137 21.0396C27.2791 21.0696 27.3717 21.0781 27.4845 21.0781C27.5496 21.0781 27.5361 21.0981 27.528 21.1102C27.5256 21.1138 27.5236 21.1167 27.5244 21.1182C27.5276 21.1243 27.5778 21.1053 27.8359 21.008C27.923 20.9751 28.0337 20.9333 28.1743 20.8805C28.3735 20.8058 28.5553 20.7574 28.7549 20.7356C28.777 20.8193 28.8317 20.8951 28.921 20.9567C29.0408 21.0392 29.1761 21.074 29.4088 21.1076C29.1196 21.3191 28.9744 21.4962 28.9285 21.6688C28.6684 21.7419 28.6921 22.0026 28.8482 22.2631C28.957 22.4447 29.1626 22.702 29.4686 23.0425L29.6884 23.1364C29.6235 23.1364 29.5873 23.11 29.5598 23.0899C29.5251 23.0646 29.5042 23.0494 29.457 23.1101C29.4538 23.1142 29.2492 22.991 28.8126 22.4426C28.3829 21.9336 27.966 21.6372 27.54 21.561ZM28.9118 21.8606C28.9158 21.8577 28.9153 21.8538 28.9149 21.8499L28.9149 21.8498L28.9118 21.8606ZM29.0917 21.6486L29.0748 21.6489L29.0827 21.6494C29.0858 21.6489 29.0887 21.6487 29.0917 21.6486ZM29.0964 21.6486C29.0948 21.6486 29.0932 21.6486 29.0917 21.6486L29.0964 21.6486Z" fill="#979797"/>
<path d="M27.3619 18.1102C27.3619 18.1102 26.8252 17.4502 26.8252 17.2149" stroke="#964C36"/>
<path d="M27.0285 17.5428C27.0285 17.5428 26.3423 17.2823 26.3423 17.5428" stroke="#2A8E51"/>
<path d="M27.0174 17.2689C27.0174 17.2689 26.5347 16.7231 26.1718 16.7231C25.8089 16.7231 25.8176 16.996 25.8176 16.996" stroke="#2A8E51"/>
<path d="M26.742 16.722C26.742 16.722 26.5266 15.8292 26.1816 15.8292C25.8367 15.8292 25.8367 16.2756 25.8367 16.2756" stroke="#2A8E51"/>
<path d="M26.8291 16.7202C26.8291 16.7202 26.733 15.9551 27.1772 15.9551" stroke="#2A8E51"/>
<path d="M28.0436 17.9811C28.0436 17.9811 27.7933 17.1977 27.8838 16.9766" stroke="#964C36"/>
<path d="M27.9487 17.3466C27.9487 17.3466 27.4041 16.8932 27.3039 17.138" stroke="#2A8E51"/>
<path d="M28.0438 17.0858C28.0438 17.0858 27.8003 16.4261 27.4593 16.3158C27.1183 16.2055 27.0214 16.4646 27.0214 16.4646" stroke="#2A8E51"/>
<path d="M27.9952 16.4881C27.9952 16.4881 28.1363 15.5837 27.8122 15.4789C27.488 15.374 27.3163 15.7935 27.3163 15.7935" stroke="#2A8E51"/>
<path d="M28.0779 16.513C28.0779 16.513 28.282 15.7648 28.6993 15.8998" stroke="#2A8E51"/>
<path d="M28.596 18.2601C28.596 18.2601 28.9519 17.5097 28.8923 17.2804" stroke="#964C36" stroke-width="0.7"/>
<path d="M28.7772 17.6407C28.7772 17.6407 29.3799 17.2496 29.4458 17.5034" stroke="#2A8E51" stroke-width="0.7"/>
<path d="M28.7189 17.3715C28.7189 17.3715 29.0511 16.7431 29.4047 16.6706C29.7582 16.598 29.8189 16.8657 29.8189 16.8657" stroke="#2A8E51" stroke-width="0.7"/>
<path d="M28.849 16.7835C28.849 16.7835 28.8329 15.8706 29.169 15.8016C29.5051 15.7326 29.6181 16.1675 29.6181 16.1675" stroke="#2A8E51" stroke-width="0.7"/>
<path d="M28.7634 16.7992C28.7634 16.7992 28.6634 16.0345 28.2306 16.1233" stroke="#2A8E51" stroke-width="0.7"/>
<path d="M33.0352 17.8018C33.0352 17.8018 33.3074 16.6884 34.0821 16.6884C34.8568 16.6884 35.2035 17.8648 35.2035 17.8648" stroke="#2A8E51" stroke-width="0.7"/>
<path d="M32.3955 17.0417C32.3955 17.0417 32.8127 16.384 34.1895 16.4378C35.5663 16.4915 35.8173 17.0417 35.8173 17.0417" stroke="#2A8E51" stroke-width="0.7"/>
<path d="M32.1172 16.2053C32.1172 16.2053 32.8735 15.3726 33.9335 16.0784L34.2925 16.2053C34.2925 16.2053 34.6526 15.2617 36.3922 16.2053" stroke="#2A8E51" stroke-width="0.7"/>
<path d="M34.2058 18.037C34.2058 18.037 34.2611 16.9977 34.4465 16.7122" stroke="#964C36"/>
<path d="M35.7361 20.3139C35.7361 20.3139 35.0407 20.0232 34.8326 20.3139C34.6245 20.6046 32.1182 23.2757 32.1182 23.2757" stroke="#964C36"/>
<path fill-rule="evenodd" clip-rule="evenodd" d="M33.3347 20.5952L34.8881 21.5604C34.8881 21.5604 35.6031 21.1071 35.2456 20.8511C34.8881 20.5952 33.9141 20.1439 33.9141 20.1439L33.3347 20.5952Z" fill="#FFF203"/>
<path fill-rule="evenodd" clip-rule="evenodd" d="M33.2811 20.6445C33.2811 20.6445 32.9213 20.9794 32.9213 21.2354C32.9213 21.4913 32.5864 22.1774 32.5864 22.1774C32.5864 22.1774 33.5229 22.6898 33.7173 22.3634C33.9118 22.037 35.1747 22.2325 34.9519 21.7339C34.7292 21.2354 33.2811 20.6445 33.2811 20.6445Z" fill="#00A651"/>
<path fill-rule="evenodd" clip-rule="evenodd" d="M26.6883 13.1823C26.6883 13.1823 27.5177 12.804 27.9283 13.1823C28.3389 13.5606 28.6753 13.151 28.6753 12.9227C28.6753 12.6945 29.3273 11.911 29.3273 12.5467C29.3273 13.1823 29.1243 13.5412 29.6974 13.5412C30.2704 13.5412 32.8509 12.6632 33.4697 12.9227C34.0885 13.1823 34.562 13.1177 34.4047 12.7453C34.2474 12.3729 33.8431 12.1401 33.0647 12.3434C32.2862 12.5467 32.4699 12.7453 31.7971 12.7453C31.1244 12.7453 30.3755 12.5467 30.3755 12.5467C30.3755 12.5467 30.5859 12.2127 31.354 12.4502C32.1221 12.6878 33.1815 12.156 33.4697 12.156C33.7578 12.156 34.5508 12.1401 34.6294 12.3434C34.708 12.5467 35.1869 12.7332 34.8219 12.9227C34.4569 13.1122 33.8551 13.231 34.2692 13.4738C34.6833 13.7166 35.6355 13.6698 35.6814 13.9224C35.7273 14.1749 36.1786 14.5521 35.9975 14.5521C35.8163 14.5521 35.489 14.9078 35.1842 14.7995C34.8793 14.6912 34.8435 14.5961 35.1358 14.5083C35.4281 14.4206 35.4252 14.0516 35.1842 14.0516C34.9431 14.0516 35.0607 14.1809 34.5118 14.0516C33.9629 13.9224 33.2364 13.7786 33.2801 14.0516C33.3238 14.3246 33.6812 14.7436 33.0218 14.7995C32.3625 14.8553 32.0538 15.0796 31.9255 14.899C31.7971 14.7184 31.3384 14.4778 31.6991 14.4007C32.0598 14.3235 32.4045 14.6629 32.5345 14.6075C32.6644 14.5521 32.9588 14.5212 32.7122 14.2864C32.4656 14.0516 32.0589 13.9134 32.4359 13.7376C32.8129 13.5619 32.5154 13.5583 31.7971 13.9224C31.0789 14.2864 30.6794 14.5958 30.0488 14.5521C29.4183 14.5083 29.1821 14.5674 28.9794 14.5083C28.7767 14.4493 27.7896 15.1604 27.5054 14.98C27.2212 14.7995 26.3035 14.7303 26.4687 14.5083C26.6339 14.2864 26.8557 14.1722 27.1027 14.2864C27.3497 14.4007 27.5952 14.5149 27.7617 14.4007C27.9283 14.2864 28.4094 13.8944 28.2884 13.816C28.1674 13.7376 28.2844 13.4738 27.5993 13.4738C26.9142 13.4738 26.6733 13.7678 26.5107 13.5826C26.3481 13.3973 26.6883 13.1823 26.6883 13.1823Z" fill="#FFD100"/>
</g>
<rect x="3" y="2" width="20.25" height="14" fill="#2B409A"/>
<mask id="mask3_5_9969" style="mask-type:alpha" maskUnits="userSpaceOnUse" x="3" y="2" width="21" height="14">
<rect x="3" y="2" width="20.25" height="14" fill="white"/>
</mask>
<g mask="url(#mask3_5_9969)">
<path d="M0.745117 14.9998L5.20119 16.737L23.351 3.88875L25.7015 1.30722L20.9364 0.726597L13.5335 6.26329L7.57493 9.99372L0.745117 14.9998Z" fill="#F7FCFF"/>
<path d="M1.35498 16.2169L3.62514 17.2251L24.8573 1.06735H21.6697L1.35498 16.2169Z" fill="#F50100"/>
<path d="M25.5049 14.9998L21.0488 16.737L2.89897 3.88875L0.548492 1.30722L5.31362 0.726597L12.7165 6.26329L18.6751 9.99372L25.5049 14.9998Z" fill="#F7FCFF"/>
<path d="M25.353 15.8733L23.0829 16.8815L14.042 9.96351L11.3616 9.19059L0.322517 1.31605H3.51009L14.5429 9.00368L17.4735 9.9305L25.353 15.8733Z" fill="#F50100"/>
<mask id="path-40-outside-1_5_9969" maskUnits="userSpaceOnUse" x="1" y="0" width="24" height="18" fill="black">
<rect fill="white" x="1" width="24" height="18"/>
<path fill-rule="evenodd" clip-rule="evenodd" d="M14.2326 2H11.9826V8H3V10H11.9826V16H14.2326V10H23.25V8H14.2326V2Z"/>
</mask>
<path fill-rule="evenodd" clip-rule="evenodd" d="M14.2326 2H11.9826V8H3V10H11.9826V16H14.2326V10H23.25V8H14.2326V2Z" fill="#F50100"/>
<path d="M11.9826 2V0.5H10.4826V2H11.9826ZM14.2326 2H15.7326V0.5H14.2326V2ZM11.9826 8V9.5H13.4826V8H11.9826ZM3 8V6.5H1.5V8H3ZM3 10H1.5V11.5H3V10ZM11.9826 10H13.4826V8.5H11.9826V10ZM11.9826 16H10.4826V17.5H11.9826V16ZM14.2326 16V17.5H15.7326V16H14.2326ZM14.2326 10V8.5H12.7326V10H14.2326ZM23.25 10V11.5H24.75V10H23.25ZM23.25 8H24.75V6.5H23.25V8ZM14.2326 8H12.7326V9.5H14.2326V8ZM11.9826 3.5H14.2326V0.5H11.9826V3.5ZM13.4826 8V2H10.4826V8H13.4826ZM3 9.5H11.9826V6.5H3V9.5ZM4.5 10V8H1.5V10H4.5ZM11.9826 8.5H3V11.5H11.9826V8.5ZM13.4826 16V10H10.4826V16H13.4826ZM14.2326 14.5H11.9826V17.5H14.2326V14.5ZM12.7326 10V16H15.7326V10H12.7326ZM23.25 8.5H14.2326V11.5H23.25V8.5ZM21.75 8V10H24.75V8H21.75ZM14.2326 9.5H23.25V6.5H14.2326V9.5ZM12.7326 2V8H15.7326V2H12.7326Z" fill="#F7FCFF" mask="url(#path-40-outside-1_5_9969)"/>
</g>
</g>
</g>
</g>
<defs>
<filter id="filter0_dd_5_9969" x="0" y="0" width="42" height="30" filterUnits="userSpaceOnUse" color-interpolation-filters="sRGB">
<feFlood flood-opacity="0" result="BackgroundImageFix"/>
<feColorMatrix in="SourceAlpha" type="matrix" values="0 0 0 0 0 0 0 0 0 0 0 0 0 0 0 0 0 0 127 0" result="hardAlpha"/>
<feOffset dy="1"/>
<feGaussianBlur stdDeviation="1"/>
<feColorMatrix type="matrix" values="0 0 0 0 0.0627451 0 0 0 0 0.0941176 0 0 0 0 0.156863 0 0 0 0.06 0"/>
<feBlend mode="normal" in2="BackgroundImageFix" result="effect1_dropShadow_5_9969"/>
<feColorMatrix in="SourceAlpha" type="matrix" values="0 0 0 0 0 0 0 0 0 0 0 0 0 0 0 0 0 0 127 0" result="hardAlpha"/>
<feOffset dy="1"/>
<feGaussianBlur stdDeviation="1.5"/>
<feColorMatrix type="matrix" values="0 0 0 0 0.0627451 0 0 0 0 0.0941176 0 0 0 0 0.156863 0 0 0 0.1 0"/>
<feBlend mode="normal" in2="effect1_dropShadow_5_9969" result="effect2_dropShadow_5_9969"/>
<feBlend mode="normal" in="SourceGraphic" in2="effect2_dropShadow_5_9969" result="shape"/>
</filter>
</defs>
</svg>
