<svg width="42" height="30" viewBox="0 0 42 30" fill="none" xmlns="http://www.w3.org/2000/svg">
<g filter="url(#filter0_dd_5_6516)">
<mask id="mask0_5_6516" style="mask-type:alpha" maskUnits="userSpaceOnUse" x="3" y="2" width="36" height="24">
<rect x="3" y="2" width="36" height="24" fill="white"/>
</mask>
<g mask="url(#mask0_5_6516)">
<path fill-rule="evenodd" clip-rule="evenodd" d="M3 2H39V26H3V2Z" fill="#3D58DB"/>
<path d="M3 7H2V8V20V21H3H39H40V20V8V7H39H3Z" fill="#C51918" stroke="#FFD018" stroke-width="2"/>
<path d="M11.0429 11.3311C10.908 11.3311 10.7986 11.0599 10.7986 10.7254C10.7986 10.3908 10.908 10.1196 11.0429 10.1196H30.6301C30.765 10.1196 30.8744 10.3908 30.8744 10.7254C30.8744 11.0599 30.765 11.3311 30.6301 11.3311H11.0429Z" fill="#FFD018"/>
<path fill-rule="evenodd" clip-rule="evenodd" d="M30.1072 10.6023L31.2446 9.3125L33.2572 10.6023L31.2446 11.926L30.1072 10.6023Z" fill="#F7FCFF"/>
<path d="M11.0429 15.3311C10.908 15.3311 10.7986 15.0599 10.7986 14.7254C10.7986 14.3908 10.908 14.1196 11.0429 14.1196H30.6301C30.765 14.1196 30.8744 14.3908 30.8744 14.7254C30.8744 15.0599 30.765 15.3311 30.6301 15.3311H11.0429Z" fill="#FFD018"/>
<path fill-rule="evenodd" clip-rule="evenodd" d="M30.1072 14.6023L31.2446 13.3125L33.2572 14.6023L31.2446 15.926L30.1072 14.6023Z" fill="#F7FCFF"/>
<path d="M7.88865 17.8219C7.70771 17.8219 7.56104 17.5139 7.56104 17.1341C7.56104 16.7542 7.70771 16.4463 7.88865 16.4463H34.1509C34.3318 16.4463 34.4785 16.7542 34.4785 17.1341C34.4785 17.5139 34.3318 17.8219 34.1509 17.8219H7.88865Z" fill="#FFD018"/>
<path fill-rule="evenodd" clip-rule="evenodd" d="M12.9194 14.0528C12.9194 14.0528 16.1159 8.07275 20.6879 8.07275C25.2598 8.07275 28.5638 14.0528 28.5638 14.0528C28.5638 14.0528 24.5293 19.9542 20.7416 19.9542C16.9539 19.9542 12.9194 14.0528 12.9194 14.0528Z" fill="#F7FCFF"/>
<mask id="mask1_5_6516" style="mask-type:alpha" maskUnits="userSpaceOnUse" x="12" y="8" width="17" height="12">
<path fill-rule="evenodd" clip-rule="evenodd" d="M12.9194 14.0528C12.9194 14.0528 16.1159 8.07275 20.6879 8.07275C25.2598 8.07275 28.5638 14.0528 28.5638 14.0528C28.5638 14.0528 24.5293 19.9542 20.7416 19.9542C16.9539 19.9542 12.9194 14.0528 12.9194 14.0528Z" fill="white"/>
</mask>
<g mask="url(#mask1_5_6516)">
<path fill-rule="evenodd" clip-rule="evenodd" d="M20.9147 7.68018C20.9147 7.68018 19.8715 8.80638 20.2193 9.8803C20.567 10.9542 21.3772 10.8408 21.3772 11.7865C21.3772 12.7323 21.0029 13.6969 21.3772 13.6969C21.7514 13.6969 21.8811 14.3495 21.5391 14.792C21.197 15.2344 20.8945 15.2481 20.9147 15.9682C20.935 16.6883 22.7058 17.3952 21.8479 17.3952C20.9901 17.3952 19.8596 18.1353 20.2193 18.1353C20.579 18.1353 22.461 18.7119 22.461 19.4686C22.461 20.2254 22.461 20.831 22.461 20.831H12.6426V7.68018H20.9147Z" fill="#272727"/>
<path fill-rule="evenodd" clip-rule="evenodd" d="M16.2963 11.9231H15.8076V13.6923H16.2963V11.9231ZM17.7379 11.9231H17.2492V13.6923H17.7379V11.9231ZM16.5284 11.9231H17.0171V13.6923H16.5284V11.9231ZM18.4587 11.9231H17.9701V13.6923H18.4587V11.9231ZM18.6908 11.9231H19.1795V13.6923H18.6908V11.9231ZM19.9004 11.9231H19.4117V13.6923H19.9004V11.9231ZM15.8076 14.4616H16.2963V16.2308H15.8076V14.4616ZM17.7379 14.4615H17.2492V16.2308H17.7379V14.4615ZM16.5284 14.4615H17.0171V16.2308H16.5284V14.4615ZM18.4587 14.4615H17.9701V16.2308H18.4587V14.4615ZM18.6908 14.4615H19.1795V16.2308H18.6908V14.4615ZM19.9004 14.4615H19.4117V16.2308H19.9004V14.4615Z" fill="#F7FCFF"/>
<path fill-rule="evenodd" clip-rule="evenodd" d="M22.0995 11.9231H21.6108V13.6923H22.0995V11.9231ZM23.5411 11.9231H23.0525V13.6923H23.5411V11.9231ZM22.3317 11.9231H22.8204V13.6923H22.3317V11.9231ZM24.262 11.9231H23.7733V13.6923H24.262V11.9231ZM24.4941 11.9231H24.9828V13.6923H24.4941V11.9231ZM25.7036 11.9231H25.2149V13.6923H25.7036V11.9231ZM21.6108 14.4616H22.0995V16.2308H21.6108V14.4616ZM23.5411 14.4615H23.0525V16.2308H23.5411V14.4615ZM22.3317 14.4615H22.8204V16.2308H22.3317V14.4615ZM24.262 14.4615H23.7733V16.2308H24.262V14.4615ZM24.4941 14.4615H24.9828V16.2308H24.4941V14.4615ZM25.7036 14.4615H25.2149V16.2308H25.7036V14.4615Z" fill="#272727"/>
<path fill-rule="evenodd" clip-rule="evenodd" d="M17.8854 9.07169C17.2009 9.26022 16.8876 10.856 16.9641 11.2418C17.0406 11.6275 17.2729 11.1934 17.2729 11.1934C17.2729 11.1934 17.7466 12.1085 17.7954 12.3547C17.8443 12.6009 18.0937 11.9825 18.0937 11.9825C18.0937 11.9825 18.9153 12.4856 19.0265 13.0462C19.1377 13.6069 19.305 12.4047 19.305 12.4047L19.4911 12.3755L19.3734 11.7819L19.7283 12.0517L19.6188 11.4997C19.6188 11.4997 19.8861 11.8102 19.8183 11.4684C19.7505 11.1266 19.7126 10.9358 19.7126 10.9358L19.62 10.4687L19.9713 10.4136C19.9713 10.4136 18.57 8.88317 17.8854 9.07169Z" fill="#3D58DB"/>
</g>
<path fill-rule="evenodd" clip-rule="evenodd" d="M32.3493 15.6959C31.6383 15.7759 31.0181 17.2991 31.0181 17.6908C31.0181 18.0825 31.3316 17.6908 31.3316 17.6908C31.3316 17.6908 31.6193 18.6651 31.6193 18.9151C31.6193 19.1651 31.9858 18.5947 31.9858 18.5947C31.9858 18.5947 32.6966 19.217 32.6966 19.7862C32.6966 20.3555 33.0962 19.1974 33.0962 19.1974H33.2852V18.5947L33.582 18.9151V18.3546C33.582 18.3546 33.7846 18.7016 33.7846 18.3546C33.7846 18.0075 33.7846 17.8138 33.7846 17.8138V17.3394H34.1413C34.1413 17.3394 33.0603 15.6159 32.3493 15.6959Z" fill="#3D58DB"/>
<path fill-rule="evenodd" clip-rule="evenodd" d="M9.29205 15.4651C10.003 15.5451 10.6233 17.0683 10.6233 17.46C10.6233 17.8517 10.3097 17.46 10.3097 17.46C10.3097 17.46 10.022 18.4343 10.022 18.6843C10.022 18.9343 9.65558 18.3638 9.65558 18.3638C9.65558 18.3638 8.94474 18.9861 8.94474 19.5554C8.94474 20.1247 8.54517 18.9666 8.54517 18.9666H8.35619V18.3638L8.05935 18.6843V18.1238C8.05935 18.1238 7.85676 18.4708 7.85676 18.1238C7.85676 17.7767 7.85676 17.5829 7.85676 17.5829V17.1086H7.50003C7.50003 17.1086 8.58105 15.3851 9.29205 15.4651Z" fill="#3D58DB"/>
</g>
</g>
<defs>
<filter id="filter0_dd_5_6516" x="0" y="0" width="42" height="30" filterUnits="userSpaceOnUse" color-interpolation-filters="sRGB">
<feFlood flood-opacity="0" result="BackgroundImageFix"/>
<feColorMatrix in="SourceAlpha" type="matrix" values="0 0 0 0 0 0 0 0 0 0 0 0 0 0 0 0 0 0 127 0" result="hardAlpha"/>
<feOffset dy="1"/>
<feGaussianBlur stdDeviation="1"/>
<feColorMatrix type="matrix" values="0 0 0 0 0.0627451 0 0 0 0 0.0941176 0 0 0 0 0.156863 0 0 0 0.06 0"/>
<feBlend mode="normal" in2="BackgroundImageFix" result="effect1_dropShadow_5_6516"/>
<feColorMatrix in="SourceAlpha" type="matrix" values="0 0 0 0 0 0 0 0 0 0 0 0 0 0 0 0 0 0 127 0" result="hardAlpha"/>
<feOffset dy="1"/>
<feGaussianBlur stdDeviation="1.5"/>
<feColorMatrix type="matrix" values="0 0 0 0 0.0627451 0 0 0 0 0.0941176 0 0 0 0 0.156863 0 0 0 0.1 0"/>
<feBlend mode="normal" in2="effect1_dropShadow_5_6516" result="effect2_dropShadow_5_6516"/>
<feBlend mode="normal" in="SourceGraphic" in2="effect2_dropShadow_5_6516" result="shape"/>
</filter>
</defs>
</svg>
