<svg width="42" height="30" viewBox="0 0 42 30" fill="none" xmlns="http://www.w3.org/2000/svg">
<g filter="url(#filter0_dd_5_9310)">
<mask id="mask0_5_9310" style="mask-type:alpha" maskUnits="userSpaceOnUse" x="3" y="2" width="36" height="24">
<rect x="3" y="2" width="36" height="24" fill="white"/>
</mask>
<g mask="url(#mask0_5_9310)">
<path fill-rule="evenodd" clip-rule="evenodd" d="M3 2V26H39V2H3Z" fill="#F7FCFF"/>
<mask id="mask1_5_9310" style="mask-type:alpha" maskUnits="userSpaceOnUse" x="3" y="2" width="36" height="24">
<path fill-rule="evenodd" clip-rule="evenodd" d="M3 2V26H39V2H3Z" fill="white"/>
</mask>
<g mask="url(#mask1_5_9310)">
<path fill-rule="evenodd" clip-rule="evenodd" d="M3 2V10H39V2H3Z" fill="#E31D1C"/>
<path fill-rule="evenodd" clip-rule="evenodd" d="M3 18V26H39V18H3Z" fill="#3D58DB"/>
<rect x="14.3362" y="8.39734" width="12.825" height="4" fill="#E31D1C"/>
<path d="M14.9134 10.9598H26.4486C26.4678 11.7261 26.4737 13.0674 26.4736 14.3615C26.4735 15.1953 26.471 15.9981 26.4686 16.5925C26.4673 16.8896 26.4661 17.1347 26.4652 17.3054L26.4641 17.5029L26.4639 17.5259C26.4591 17.5519 26.4509 17.5921 26.4385 17.6448C26.413 17.7531 26.3699 17.913 26.3011 18.1071C26.1632 18.4964 25.9251 19.0157 25.5261 19.5335C24.7448 20.5475 23.3035 21.6153 20.606 21.6153C17.9103 21.6153 16.5384 20.5476 15.8208 19.5446C15.4527 19.0302 15.2436 18.5135 15.1271 18.125C15.069 17.9315 15.0346 17.772 15.015 17.6639C15.0052 17.6099 14.9991 17.569 14.9957 17.5433C14.9951 17.5385 14.9945 17.5343 14.9941 17.5306L14.9935 17.4893L14.9908 17.293L14.9813 16.5845C14.9734 15.9936 14.9628 15.195 14.9523 14.364C14.9362 13.0941 14.9201 11.7531 14.9134 10.9598Z" fill="#F7FCFF" stroke="#E31D1C" stroke-width="1.125"/>
<mask id="mask2_5_9310" style="mask-type:alpha" maskUnits="userSpaceOnUse" x="14" y="10" width="14" height="13">
<path d="M14.9134 10.9598H26.4486C26.4678 11.7261 26.4737 13.0674 26.4736 14.3615C26.4735 15.1953 26.471 15.9981 26.4686 16.5925C26.4673 16.8896 26.4661 17.1347 26.4652 17.3054L26.4641 17.5029L26.4639 17.5259C26.4591 17.5519 26.4509 17.5921 26.4385 17.6448C26.413 17.7531 26.3699 17.913 26.3011 18.1071C26.1632 18.4964 25.9251 19.0157 25.5261 19.5335C24.7448 20.5475 23.3035 21.6153 20.606 21.6153C17.9103 21.6153 16.5384 20.5476 15.8208 19.5446C15.4527 19.0302 15.2436 18.5135 15.1271 18.125C15.069 17.9315 15.0346 17.772 15.015 17.6639C15.0052 17.6099 14.9991 17.569 14.9957 17.5433C14.9951 17.5385 14.9945 17.5343 14.9941 17.5306L14.9935 17.4893L14.9908 17.293L14.9813 16.5845C14.9734 15.9936 14.9628 15.195 14.9523 14.364C14.9362 13.0941 14.9201 11.7531 14.9134 10.9598Z" fill="white" stroke="white" stroke-width="1.125"/>
</mask>
<g mask="url(#mask2_5_9310)">
<path fill-rule="evenodd" clip-rule="evenodd" d="M14.8108 11.0399H17.1838V13.1818H14.8108V11.0399ZM17.1839 13.1818H19.5569V15.3237H21.93V13.1818H24.303V15.3237H26.6761V17.4656H24.303V15.3237H21.93V17.4656H19.5569V15.3237H17.1839V13.1818ZM19.5569 17.4656H17.1839V19.6075H19.5569V21.7494H21.93V19.6075H24.303V21.7494H26.6761V19.6075H24.303V17.4656H21.93V19.6075H19.5569V17.4656ZM14.8108 15.3237H17.1838V17.4656H14.8108V15.3237ZM21.93 11.0399H19.5569V13.1818H21.93V11.0399ZM24.303 11.0399H26.6761V13.1818H24.303V11.0399ZM17.1838 19.6075H14.8108V21.7494H17.1838V19.6075Z" fill="#F50100"/>
</g>
<path fill-rule="evenodd" clip-rule="evenodd" d="M14.7597 10.1627C14.7597 10.1627 15.4937 9.81418 16.1198 9.63458C16.7458 9.45498 17.2406 9.35685 17.2406 9.35685L16.3092 6.30476L14.4436 5.68518L13.387 7.23328L14.7597 10.1627Z" fill="#56C6F5" stroke="white" stroke-width="0.5"/>
<path d="M14.4539 8.49082L14.6682 8.39896C14.8896 8.81988 15.1814 8.94989 15.5814 8.81721C15.99 8.68167 16.1565 8.42538 16.0978 8.01907L16.3331 7.99133C16.406 8.4957 16.1772 8.84775 15.6633 9.01825C15.1407 9.19159 14.725 9.00638 14.4539 8.49082Z" fill="white"/>
<path fill-rule="evenodd" clip-rule="evenodd" d="M14.9615 7.54189L14.7417 7.66024C14.7008 7.68229 14.6536 7.64712 14.6636 7.60203L14.7117 7.3864L14.5037 7.28477C14.4597 7.26329 14.4661 7.19869 14.5136 7.18432L14.7383 7.11635L14.7331 6.89658C14.732 6.85062 14.7853 6.82327 14.8213 6.8513L15.0147 7.00178L15.2345 6.88343C15.2754 6.86138 15.3226 6.89655 15.3126 6.94164L15.2645 7.15727L15.4725 7.2589C15.5165 7.28038 15.5101 7.34498 15.4626 7.35935L15.2379 7.42732L15.2431 7.64709C15.2442 7.69305 15.1909 7.7204 15.1549 7.69237L14.9615 7.54189Z" fill="#FECA00"/>
<path fill-rule="evenodd" clip-rule="evenodd" d="M19.3584 9.07581C19.3584 9.07581 19.9844 9.02616 20.6421 9.03752C21.2998 9.04887 21.8562 9.05303 21.8562 9.05303L22.1775 6.04355L20.7686 4.91216L19.2025 6.07014L19.3584 9.07581Z" fill="#56C6F5" stroke="white" stroke-width="0.5"/>
<path fill-rule="evenodd" clip-rule="evenodd" d="M20.7191 8.58487C21.2617 8.58487 21.3137 8.06391 21.3137 7.70903C21.1749 7.51219 21.2029 7.37134 20.7581 7.37134C20.3134 7.37134 20.2626 7.4908 20.1328 7.70903C20.1328 8.06391 20.1764 8.58487 20.7191 8.58487Z" fill="#FECA00"/>
<path fill-rule="evenodd" clip-rule="evenodd" d="M21.3297 7.11289C21.8723 7.11289 21.9243 6.59192 21.9243 6.23704C21.7855 6.04021 21.8135 5.89935 21.3687 5.89935C20.9239 5.89935 20.8732 6.01882 20.7434 6.23704C20.7434 6.59192 20.787 7.11289 21.3297 7.11289Z" fill="#FECA00"/>
<path fill-rule="evenodd" clip-rule="evenodd" d="M20.1431 7.11289C20.6858 7.11289 20.7377 6.59192 20.7377 6.23704C20.599 6.04021 20.6269 5.89935 20.1822 5.89935C19.7374 5.89935 19.6867 6.01882 19.5569 6.23704C19.5569 6.59192 19.6005 7.11289 20.1431 7.11289Z" fill="#FECA00"/>
<path d="M16.9518 9.3682L17.0269 9.59492L17.2568 9.53027L17.2568 9.53027L17.2568 9.53027L17.2568 9.53025L17.2571 9.53017L17.2585 9.52978L17.2644 9.52816L17.2874 9.52179C17.3076 9.51625 17.3371 9.50822 17.3739 9.4984C17.4476 9.47874 17.5503 9.45197 17.6663 9.42357C17.9016 9.366 18.1803 9.30455 18.3834 9.27947C18.5939 9.25347 18.8554 9.23454 19.0672 9.22208C19.1725 9.21588 19.2644 9.21136 19.3298 9.20838L19.4064 9.20507L19.4268 9.20426L19.4319 9.20407L19.4332 9.20402L19.4335 9.20401L19.4335 9.20401L19.6989 9.19432L19.6732 8.93002L19.3894 6.00561L19.3776 5.88373L19.274 5.81836L17.741 4.85055L17.579 4.74829L17.4381 4.87811L16.0448 6.16202L15.9262 6.27133L15.9769 6.42446L16.9518 9.3682Z" fill="#2E42A5" stroke="white" stroke-width="0.5"/>
<mask id="mask3_5_9310" style="mask-type:alpha" maskUnits="userSpaceOnUse" x="15" y="4" width="5" height="6">
<path d="M16.9518 9.3682L17.0269 9.59492L17.2568 9.53027L17.2568 9.53027L17.2568 9.53027L17.2568 9.53025L17.2571 9.53017L17.2585 9.52978L17.2644 9.52816L17.2874 9.52179C17.3076 9.51625 17.3371 9.50822 17.3739 9.4984C17.4476 9.47874 17.5503 9.45197 17.6663 9.42357C17.9016 9.366 18.1803 9.30455 18.3834 9.27947C18.5939 9.25347 18.8554 9.23454 19.0672 9.22208C19.1725 9.21588 19.2644 9.21136 19.3298 9.20838L19.4064 9.20507L19.4268 9.20426L19.4319 9.20407L19.4332 9.20402L19.4335 9.20401L19.4335 9.20401L19.6989 9.19432L19.6732 8.93002L19.3894 6.00561L19.3776 5.88373L19.274 5.81836L17.741 4.85055L17.579 4.74829L17.4381 4.87811L16.0448 6.16202L15.9262 6.27133L15.9769 6.42446L16.9518 9.3682Z" fill="white" stroke="white" stroke-width="0.5"/>
</mask>
<g mask="url(#mask3_5_9310)">
<path d="M16.991 8.6379L16.7092 8.04782C17.3145 7.81233 18.3369 7.66783 19.4128 7.61133L19.4542 8.25281C18.454 8.30534 17.5079 8.43682 16.991 8.6379Z" fill="#C51918"/>
<path d="M16.5155 7.21054L16.2336 6.62046C16.8389 6.38497 18.1399 6.19432 19.2158 6.13782L19.2571 6.7793C18.2569 6.83183 17.0323 7.00946 16.5155 7.21054Z" fill="#C51918"/>
</g>
<path d="M24.384 9.36223L24.3129 9.59656L24.0771 9.53027L24.0771 9.53027L24.0771 9.53027L24.0771 9.53025L24.0768 9.53017L24.0754 9.52978L24.0695 9.52816L24.0465 9.52179C24.0263 9.51625 23.9968 9.50822 23.96 9.4984C23.8863 9.47874 23.7836 9.45197 23.6676 9.42357C23.4323 9.366 23.1536 9.30455 22.9505 9.27947C22.74 9.25347 22.4785 9.23454 22.2667 9.22208C22.1614 9.21588 22.0695 9.21136 22.0041 9.20838L21.9275 9.20507L21.9071 9.20426L21.902 9.20407L21.9007 9.20402L21.9004 9.20401L21.9004 9.20401L21.635 9.19432L21.6607 8.93002L21.9445 6.00561L21.9563 5.88373L22.0599 5.81836L23.5929 4.85055L23.7596 4.74534L23.9008 4.88283L25.2144 6.1619L25.3235 6.26805L25.2793 6.41365L24.384 9.36223Z" fill="#2E42A5" stroke="white" stroke-width="0.5"/>
<mask id="mask4_5_9310" style="mask-type:alpha" maskUnits="userSpaceOnUse" x="21" y="4" width="5" height="6">
<path d="M24.384 9.36223L24.3129 9.59656L24.0771 9.53027L24.0771 9.53027L24.0771 9.53027L24.0771 9.53025L24.0768 9.53017L24.0754 9.52978L24.0695 9.52816L24.0465 9.52179C24.0263 9.51625 23.9968 9.50822 23.96 9.4984C23.8863 9.47874 23.7836 9.45197 23.6676 9.42357C23.4323 9.366 23.1536 9.30455 22.9505 9.27947C22.74 9.25347 22.4785 9.23454 22.2667 9.22208C22.1614 9.21588 22.0695 9.21136 22.0041 9.20838L21.9275 9.20507L21.9071 9.20426L21.902 9.20407L21.9007 9.20402L21.9004 9.20401L21.9004 9.20401L21.635 9.19432L21.6607 8.93002L21.9445 6.00561L21.9563 5.88373L22.0599 5.81836L23.5929 4.85055L23.7596 4.74534L23.9008 4.88283L25.2144 6.1619L25.3235 6.26805L25.2793 6.41365L24.384 9.36223Z" fill="white" stroke="white" stroke-width="0.5"/>
</mask>
<g mask="url(#mask4_5_9310)">
<path fill-rule="evenodd" clip-rule="evenodd" d="M23.6977 8.46654C23.6977 8.46654 24.0285 8.30291 24.0761 8.02703C24.1238 7.75115 24.6354 7.41135 24.3796 7.45179C24.1238 7.49224 24.2701 7.52383 23.8997 7.45179C23.5293 7.37976 23.0499 7.33212 23.0499 7.12973C23.0499 6.92735 23.2882 6.76671 23.0934 6.76671C22.8987 6.76671 22.4831 6.57516 22.5666 6.72157C22.65 6.86798 22.3746 6.70243 22.5123 7.0064C22.65 7.31036 22.4831 7.61658 22.5666 7.69716C22.65 7.77773 22.5123 8.17292 22.5123 8.17292C22.5123 8.17292 22.5629 8.3197 22.6514 8.09986C22.7399 7.88001 22.9335 7.72591 22.8367 7.91288C22.7399 8.09986 22.6163 8.54458 22.7265 8.46654C22.8367 8.3885 22.9462 8.17268 22.9462 8.09986C22.9462 8.02703 23.2242 7.74117 23.2242 7.95705C23.2242 8.17292 22.9627 8.34293 23.0934 8.34293C23.2242 8.34293 23.2975 8.3888 23.3797 8.17292C23.4619 7.95705 23.6616 7.81424 23.7435 7.95705C23.8254 8.09986 23.8073 8.09223 23.6977 8.27938C23.5882 8.46654 23.6977 8.46654 23.6977 8.46654Z" fill="#FECA00"/>
<path fill-rule="evenodd" clip-rule="evenodd" d="M22.9207 6.86656L22.7976 6.68346C23.0186 6.56244 23.2214 6.53019 23.3996 6.59766C23.4806 6.62834 23.5416 6.66329 23.7007 6.76274L23.7214 6.77572C23.8871 6.87897 23.9748 6.92103 24.0287 6.92103V7.13522C23.9052 7.13522 23.7983 7.08396 23.5866 6.95196L23.5655 6.93881C23.4224 6.8493 23.3671 6.81764 23.3078 6.79517C23.2092 6.75785 23.0824 6.778 22.9207 6.86656ZM22.5311 8.2635C22.601 8.2635 22.6577 8.21376 22.6577 8.15239C22.6577 8.09103 22.601 8.04128 22.5311 8.04128C22.4612 8.04128 22.4045 8.09103 22.4045 8.15239C22.4045 8.21376 22.4612 8.2635 22.5311 8.2635ZM22.895 8.36657C22.895 8.42794 22.8384 8.47768 22.7685 8.47768C22.6986 8.47768 22.6419 8.42794 22.6419 8.36657C22.6419 8.30521 22.6986 8.25546 22.7685 8.25546C22.8384 8.25546 22.895 8.30521 22.895 8.36657ZM23.1947 8.46943C23.2646 8.46943 23.3213 8.41968 23.3213 8.35832C23.3213 8.29695 23.2646 8.24721 23.1947 8.24721C23.1248 8.24721 23.0682 8.29695 23.0682 8.35832C23.0682 8.41968 23.1248 8.46943 23.1947 8.46943ZM23.7178 8.53614C23.7178 8.59751 23.6611 8.64726 23.5912 8.64726C23.5213 8.64726 23.4646 8.59751 23.4646 8.53614C23.4646 8.47478 23.5213 8.42503 23.5912 8.42503C23.6611 8.42503 23.7178 8.47478 23.7178 8.53614Z" fill="#C51918"/>
</g>
<path d="M26.9882 10.1962L26.8797 10.4184L26.6563 10.3123L26.6563 10.3123L26.6563 10.3123L26.6563 10.3123L26.656 10.3122L26.6547 10.3115L26.6489 10.3088L26.6255 10.2979C26.605 10.2884 26.5746 10.2744 26.5362 10.2571C26.4593 10.2223 26.3501 10.1741 26.2217 10.1204C25.9634 10.0122 25.6338 9.88452 25.3346 9.79868C25.0265 9.71031 24.7506 9.64192 24.5517 9.59566C24.4523 9.57254 24.3723 9.55499 24.3175 9.54326L24.2548 9.53009L24.2389 9.52685L24.235 9.52607L24.2342 9.5259L24.234 9.52587L24.234 9.52587L24.234 9.52587L24.234 9.52587L23.9592 9.47137L24.0445 9.20449L24.9963 6.2286L25.035 6.10756L25.1556 6.0675L27.0212 5.44792L27.2002 5.38849L27.3065 5.54425L28.3631 7.09235L28.445 7.21238L28.3813 7.34297L26.9882 10.1962Z" fill="#56C6F5" stroke="white" stroke-width="0.5"/>
<mask id="mask5_5_9310" style="mask-type:alpha" maskUnits="userSpaceOnUse" x="23" y="5" width="6" height="6">
<path d="M26.9882 10.1962L26.8797 10.4184L26.6563 10.3123L26.6563 10.3123L26.6563 10.3123L26.6563 10.3123L26.656 10.3122L26.6547 10.3115L26.6489 10.3088L26.6255 10.2979C26.605 10.2884 26.5746 10.2744 26.5362 10.2571C26.4593 10.2223 26.3501 10.1741 26.2217 10.1204C25.9634 10.0122 25.6338 9.88452 25.3346 9.79868C25.0265 9.71031 24.7506 9.64192 24.5517 9.59566C24.4523 9.57254 24.3723 9.55499 24.3175 9.54326L24.2548 9.53009L24.2389 9.52685L24.235 9.52607L24.2342 9.5259L24.234 9.52587L24.234 9.52587L24.234 9.52587L24.234 9.52587L23.9592 9.47137L24.0445 9.20449L24.9963 6.2286L25.035 6.10756L25.1556 6.0675L27.0212 5.44792L27.2002 5.38849L27.3065 5.54425L28.3631 7.09235L28.445 7.21238L28.3813 7.34297L26.9882 10.1962Z" fill="white" stroke="white" stroke-width="0.5"/>
</mask>
<g mask="url(#mask5_5_9310)">
<path fill-rule="evenodd" clip-rule="evenodd" d="M26.7684 7.08918L26.5976 7.25908C26.5656 7.2909 26.5086 7.2698 26.5034 7.2242L26.4784 7.00541L26.2452 6.96213C26.1961 6.95302 26.1811 6.89015 26.2218 6.86408L26.415 6.74025L26.3377 6.53134C26.3216 6.48781 26.364 6.44792 26.4078 6.46542L26.6416 6.55886L26.8125 6.38896C26.8445 6.35714 26.9015 6.37824 26.9067 6.42383L26.9316 6.64263L27.1648 6.6859C27.2139 6.69501 27.2289 6.75789 27.1883 6.78396L26.9951 6.90779L27.0724 7.1167C27.0885 7.16023 27.046 7.20012 27.0023 7.18262L26.7684 7.08918Z" fill="#FECA00"/>
<path d="M24.3696 8.48767L24.6086 7.65851C25.6669 7.90701 26.7702 8.22549 27.5796 8.53347L27.2109 9.32294C26.4463 9.032 25.3859 8.72629 24.3696 8.48767Z" fill="#E31D1C"/>
<path d="M24.6936 7.72198L24.7499 7.51392C25.7646 7.73773 26.843 8.09486 27.6267 8.42748L27.5257 8.62131C26.7571 8.29508 25.6935 7.94256 24.6936 7.72198Z" fill="white"/>
<path d="M24.3928 8.5766L24.4492 8.36853C25.4638 8.59235 26.4016 8.89604 27.1853 9.22867L27.0843 9.4225C26.3157 9.09626 25.3928 8.79717 24.3928 8.5766Z" fill="white"/>
<path d="M24.8508 8.17504L25.0681 8.08783C25.1596 8.27814 25.2725 8.32007 25.4614 8.2385C25.9075 8.04584 27.0141 8.31507 27.0141 8.67811C27.0141 8.81974 26.9217 8.9056 26.7807 8.90063C26.7011 8.89782 26.6162 8.86987 26.4916 8.81511C26.4765 8.80847 26.4665 8.80402 26.442 8.79295C26.3042 8.73048 26.2938 8.72592 26.2571 8.71418L26.3356 8.50952C26.3864 8.5258 26.3944 8.52929 26.5475 8.59867C26.5711 8.60933 26.5803 8.61346 26.5944 8.61966C26.6899 8.66164 26.7538 8.68265 26.7899 8.68392C26.7932 8.68404 26.7768 8.69934 26.7768 8.67811C26.7768 8.51838 25.8762 8.29925 25.5628 8.43457C25.2503 8.56953 24.9949 8.47472 24.8508 8.17504Z" fill="#272727"/>
</g>
</g>
</g>
</g>
<defs>
<filter id="filter0_dd_5_9310" x="0" y="0" width="42" height="30" filterUnits="userSpaceOnUse" color-interpolation-filters="sRGB">
<feFlood flood-opacity="0" result="BackgroundImageFix"/>
<feColorMatrix in="SourceAlpha" type="matrix" values="0 0 0 0 0 0 0 0 0 0 0 0 0 0 0 0 0 0 127 0" result="hardAlpha"/>
<feOffset dy="1"/>
<feGaussianBlur stdDeviation="1"/>
<feColorMatrix type="matrix" values="0 0 0 0 0.0627451 0 0 0 0 0.0941176 0 0 0 0 0.156863 0 0 0 0.06 0"/>
<feBlend mode="normal" in2="BackgroundImageFix" result="effect1_dropShadow_5_9310"/>
<feColorMatrix in="SourceAlpha" type="matrix" values="0 0 0 0 0 0 0 0 0 0 0 0 0 0 0 0 0 0 127 0" result="hardAlpha"/>
<feOffset dy="1"/>
<feGaussianBlur stdDeviation="1.5"/>
<feColorMatrix type="matrix" values="0 0 0 0 0.0627451 0 0 0 0 0.0941176 0 0 0 0 0.156863 0 0 0 0.1 0"/>
<feBlend mode="normal" in2="effect1_dropShadow_5_9310" result="effect2_dropShadow_5_9310"/>
<feBlend mode="normal" in="SourceGraphic" in2="effect2_dropShadow_5_9310" result="shape"/>
</filter>
</defs>
</svg>
