<svg width="42" height="30" viewBox="0 0 42 30" fill="none" xmlns="http://www.w3.org/2000/svg">
<g filter="url(#filter0_dd_5_7500)">
<mask id="mask0_5_7500" style="mask-type:alpha" maskUnits="userSpaceOnUse" x="3" y="2" width="36" height="24">
<rect x="3" y="2" width="36" height="24" fill="white"/>
</mask>
<g mask="url(#mask0_5_7500)">
<path fill-rule="evenodd" clip-rule="evenodd" d="M12 2H39V26H12V2Z" fill="#2F8D00"/>
<path fill-rule="evenodd" clip-rule="evenodd" d="M3 2H12V26H3V2Z" fill="#F7FCFF"/>
<path fill-rule="evenodd" clip-rule="evenodd" d="M28.2331 17.3062C28.2331 17.3062 23.2091 18.4705 19.2213 16.0955C15.2336 13.7206 17.2382 8.24772 17.2382 8.24772C15.1581 8.51677 11.8915 15.2626 17.157 18.6461C22.4224 22.0295 27.4667 18.7772 28.2331 17.3062ZM22.658 10.8665L19.9901 12.0261L22.8047 12.4717L23.1846 14.9172L24.7788 12.8344L27.9158 13.0224L25.4588 11.3935L26.7668 9.21717L24.3207 10.213L22.5035 8.69434L22.658 10.8665Z" fill="#F1F9FF"/>
</g>
</g>
<defs>
<filter id="filter0_dd_5_7500" x="0" y="0" width="42" height="30" filterUnits="userSpaceOnUse" color-interpolation-filters="sRGB">
<feFlood flood-opacity="0" result="BackgroundImageFix"/>
<feColorMatrix in="SourceAlpha" type="matrix" values="0 0 0 0 0 0 0 0 0 0 0 0 0 0 0 0 0 0 127 0" result="hardAlpha"/>
<feOffset dy="1"/>
<feGaussianBlur stdDeviation="1"/>
<feColorMatrix type="matrix" values="0 0 0 0 0.0627451 0 0 0 0 0.0941176 0 0 0 0 0.156863 0 0 0 0.06 0"/>
<feBlend mode="normal" in2="BackgroundImageFix" result="effect1_dropShadow_5_7500"/>
<feColorMatrix in="SourceAlpha" type="matrix" values="0 0 0 0 0 0 0 0 0 0 0 0 0 0 0 0 0 0 127 0" result="hardAlpha"/>
<feOffset dy="1"/>
<feGaussianBlur stdDeviation="1.5"/>
<feColorMatrix type="matrix" values="0 0 0 0 0.0627451 0 0 0 0 0.0941176 0 0 0 0 0.156863 0 0 0 0.1 0"/>
<feBlend mode="normal" in2="effect1_dropShadow_5_7500" result="effect2_dropShadow_5_7500"/>
<feBlend mode="normal" in="SourceGraphic" in2="effect2_dropShadow_5_7500" result="shape"/>
</filter>
</defs>
</svg>
