<svg width="42" height="30" viewBox="0 0 42 30" fill="none" xmlns="http://www.w3.org/2000/svg">
<g filter="url(#filter0_dd_5_5558)">
<mask id="mask0_5_5558" style="mask-type:alpha" maskUnits="userSpaceOnUse" x="3" y="2" width="36" height="24">
<rect x="3" y="2" width="36" height="24" fill="white"/>
</mask>
<g mask="url(#mask0_5_5558)">
<path fill-rule="evenodd" clip-rule="evenodd" d="M3 2H39V26H3V2Z" fill="#F7FCFF"/>
<path fill-rule="evenodd" clip-rule="evenodd" d="M3 2V10H39V2H3Z" fill="#C51918"/>
<path fill-rule="evenodd" clip-rule="evenodd" d="M3 18V26H39V18H3Z" fill="#5EAA22"/>
<path fill-rule="evenodd" clip-rule="evenodd" d="M3 0L21.7533 14L3 28V0Z" fill="#272727"/>
<mask id="path-7-outside-1_5_5558" maskUnits="userSpaceOnUse" x="1" y="-5.35498" width="40" height="38" fill="black">
<rect fill="white" x="1" y="-5.35498" width="40" height="38"/>
<path fill-rule="evenodd" clip-rule="evenodd" d="M3 -1.35498L22.5843 11.9999H39V15.9999H22.3156L3 28.8115V24.3402L18.75 14L3 3.53447V-1.35498Z"/>
</mask>
<path fill-rule="evenodd" clip-rule="evenodd" d="M3 -1.35498L22.5843 11.9999H39V15.9999H22.3156L3 28.8115V24.3402L18.75 14L3 3.53447V-1.35498Z" fill="#FFD018"/>
<path d="M22.5843 11.9999L21.4575 13.6523L21.9673 13.9999H22.5843V11.9999ZM3 -1.35498L4.12679 -3.00736L1 -5.13958V-1.35498H3ZM39 11.9999H41V9.99994H39V11.9999ZM39 15.9999V17.9999H41V15.9999H39ZM22.3156 15.9999V13.9999H21.7126L21.2101 14.3332L22.3156 15.9999ZM3 28.8115H1V32.538L4.10548 30.4782L3 28.8115ZM3 24.3402L1.90237 22.6683L1 23.2607V24.3402H3ZM18.75 14L19.8476 15.6719L22.3789 14.01L19.8569 12.3342L18.75 14ZM3 3.53447H1V4.60679L1.89313 5.20025L3 3.53447ZM23.7111 10.3476L4.12679 -3.00736L1.87321 0.297396L21.4575 13.6523L23.7111 10.3476ZM39 9.99994H22.5843V13.9999H39V9.99994ZM41 15.9999V11.9999H37V15.9999H41ZM22.3156 17.9999H39V13.9999H22.3156V17.9999ZM4.10548 30.4782L23.4211 17.6666L21.2101 14.3332L1.89452 27.1448L4.10548 30.4782ZM1 24.3402V28.8115H5V24.3402H1ZM17.6524 12.3281L1.90237 22.6683L4.09763 26.012L19.8476 15.6719L17.6524 12.3281ZM1.89313 5.20025L17.6431 15.6658L19.8569 12.3342L4.10687 1.86869L1.89313 5.20025ZM1 -1.35498V3.53447H5V-1.35498H1Z" fill="#272727" mask="url(#path-7-outside-1_5_5558)"/>
<path d="M8.48292 18.768L8.48516 17.1877C10.0695 16.877 11.1191 16.4729 11.63 15.9869C12.888 14.6087 12.0517 11.3798 9.46718 11.4009C8.18672 11.4009 6.86261 11.9433 6.86261 13.2199C6.86261 14.8053 7.22965 15.483 8.48516 15.483C9.73285 15.483 10.1903 15.5423 11.0121 14.5466L11.904 14.7916C11.0233 15.8586 9.83617 16.7014 8.48292 16.7014C6.25368 16.7014 5.04053 15.2074 5.04053 13.4795C5.04053 11.3464 6.98867 9.85242 9.3376 9.85242C11.0903 9.85242 13.8624 11.7606 13.8624 13.4795C13.8624 15.1983 13.8624 15.9869 12.3424 17.1877C11.7301 17.6714 10.2131 18.5351 8.48292 18.768Z" fill="#FFD018"/>
<path fill-rule="evenodd" clip-rule="evenodd" d="M8.61546 11.8798C8.52964 11.8596 8.4417 11.9051 8.41904 11.9814L8.3576 12.1882C8.35453 12.1847 8.35146 12.1812 8.34838 12.1776C8.29413 12.1152 8.1932 12.1036 8.12295 12.1519C8.0527 12.2001 8.03973 12.2898 8.09399 12.3523C8.13122 12.3951 8.16795 12.4375 8.20419 12.4793L8.01897 12.6313C7.95376 12.6848 7.94971 12.7752 8.00993 12.8332C8.07014 12.8912 8.17182 12.8948 8.23703 12.8412L8.4007 12.7069C8.49841 12.8204 8.59204 12.9298 8.68151 13.0348L8.37343 13.1818C8.29523 13.2191 8.26587 13.3057 8.30785 13.3753C8.34983 13.4448 8.44726 13.4709 8.52547 13.4336L8.87732 13.2656C8.96175 13.3656 9.0418 13.461 9.11738 13.5517L8.69485 13.7533C8.61665 13.7906 8.58729 13.8772 8.62927 13.9467C8.67125 14.0162 8.76868 14.0423 8.84689 14.005L9.30988 13.7841C9.43301 13.9338 9.54095 14.0673 9.63311 14.1837L9.33769 14.3247C9.25948 14.362 9.23012 14.4486 9.27211 14.5181C9.31409 14.5877 9.41152 14.6138 9.48972 14.5764L9.81669 14.4204C9.95268 14.6005 10.0231 14.7086 10.0231 14.737C10.0231 14.8159 10.095 14.8799 10.1838 14.8799C10.2726 14.8799 10.3445 14.8159 10.3445 14.737C10.3445 14.6647 10.2599 14.5126 10.083 14.2689C10.0856 14.2649 10.0879 14.2609 10.0901 14.2567L10.3279 13.7913C10.3646 13.7194 10.3288 13.6347 10.248 13.6021C10.1672 13.5695 10.0719 13.6013 10.0352 13.6731L9.87277 13.9911C9.77128 13.8612 9.6528 13.7142 9.51677 13.5492L9.68505 13.2199C9.72176 13.148 9.686 13.0633 9.60518 13.0307C9.52437 12.9981 9.4291 13.0299 9.3924 13.1017L9.29806 13.2863C9.24607 13.2243 9.19203 13.1603 9.13594 13.094L9.36364 12.6484C9.40034 12.5765 9.36458 12.4919 9.28377 12.4592C9.20295 12.4266 9.10768 12.4584 9.07098 12.5302L8.91534 12.8348C8.81732 12.7202 8.71395 12.6 8.60516 12.474L8.72982 12.0544C8.75248 11.9781 8.70128 11.8999 8.61546 11.8798Z" fill="#FFD018"/>
<path fill-rule="evenodd" clip-rule="evenodd" d="M9.69606 11.8798C9.78188 11.8596 9.86982 11.9051 9.89248 11.9814L9.95392 12.1882C9.95699 12.1847 9.96006 12.1812 9.96314 12.1776C10.0174 12.1152 10.1183 12.1036 10.1886 12.1519C10.2588 12.2001 10.2718 12.2898 10.2175 12.3523C10.1803 12.3951 10.1436 12.4375 10.1073 12.4793L10.2926 12.6313C10.3578 12.6848 10.3618 12.7752 10.3016 12.8332C10.2414 12.8912 10.1397 12.8948 10.0745 12.8412L9.91083 12.7069C9.81312 12.8204 9.71948 12.9298 9.63002 13.0348L9.93809 13.1818C10.0163 13.2191 10.0457 13.3057 10.0037 13.3753C9.96169 13.4448 9.86426 13.4709 9.78606 13.4336L9.4342 13.2656C9.34977 13.3656 9.26972 13.461 9.19414 13.5517L9.61667 13.7533C9.69488 13.7906 9.72424 13.8772 9.68225 13.9467C9.64027 14.0162 9.54284 14.0423 9.46464 14.005L9.00165 13.7841C8.87852 13.9338 8.77058 14.0673 8.67841 14.1837L8.97384 14.3247C9.05204 14.362 9.0814 14.4486 9.03942 14.5181C8.99743 14.5877 8.9 14.6138 8.8218 14.5764L8.49483 14.4204C8.35885 14.6005 8.28844 14.7086 8.28844 14.737C8.28844 14.8159 8.21649 14.8799 8.12773 14.8799C8.03897 14.8799 7.96701 14.8159 7.96701 14.737C7.96701 14.6647 8.05164 14.5126 8.22848 14.2689C8.22593 14.2649 8.22358 14.2609 8.22145 14.2567L7.98363 13.7913C7.94693 13.7194 7.98269 13.6347 8.0635 13.6021C8.14432 13.5695 8.23959 13.6013 8.27629 13.6731L8.43875 13.9911C8.54025 13.8612 8.65872 13.7142 8.79475 13.5492L8.62647 13.2199C8.58976 13.148 8.62552 13.0633 8.70634 13.0307C8.78715 12.9981 8.88242 13.0299 8.91913 13.1017L9.01346 13.2863C9.06546 13.2243 9.11949 13.1603 9.17558 13.094L8.94789 12.6484C8.91118 12.5765 8.94694 12.4919 9.02776 12.4592C9.10857 12.4266 9.20384 12.4584 9.24055 12.5302L9.39618 12.8348C9.49421 12.7202 9.59757 12.6 9.70637 12.474L9.58171 12.0544C9.55905 11.9781 9.61025 11.8999 9.69606 11.8798Z" fill="#FFD018"/>
</g>
</g>
<defs>
<filter id="filter0_dd_5_5558" x="0" y="0" width="42" height="30" filterUnits="userSpaceOnUse" color-interpolation-filters="sRGB">
<feFlood flood-opacity="0" result="BackgroundImageFix"/>
<feColorMatrix in="SourceAlpha" type="matrix" values="0 0 0 0 0 0 0 0 0 0 0 0 0 0 0 0 0 0 127 0" result="hardAlpha"/>
<feOffset dy="1"/>
<feGaussianBlur stdDeviation="1"/>
<feColorMatrix type="matrix" values="0 0 0 0 0.0627451 0 0 0 0 0.0941176 0 0 0 0 0.156863 0 0 0 0.06 0"/>
<feBlend mode="normal" in2="BackgroundImageFix" result="effect1_dropShadow_5_5558"/>
<feColorMatrix in="SourceAlpha" type="matrix" values="0 0 0 0 0 0 0 0 0 0 0 0 0 0 0 0 0 0 127 0" result="hardAlpha"/>
<feOffset dy="1"/>
<feGaussianBlur stdDeviation="1.5"/>
<feColorMatrix type="matrix" values="0 0 0 0 0.0627451 0 0 0 0 0.0941176 0 0 0 0 0.156863 0 0 0 0.1 0"/>
<feBlend mode="normal" in2="effect1_dropShadow_5_5558" result="effect2_dropShadow_5_5558"/>
<feBlend mode="normal" in="SourceGraphic" in2="effect2_dropShadow_5_5558" result="shape"/>
</filter>
</defs>
</svg>
