<svg width="42" height="30" viewBox="0 0 42 30" fill="none" xmlns="http://www.w3.org/2000/svg">
<g filter="url(#filter0_dd_5_10611)">
<mask id="mask0_5_10611" style="mask-type:alpha" maskUnits="userSpaceOnUse" x="3" y="2" width="36" height="24">
<rect x="3" y="2" width="36" height="24" fill="white"/>
</mask>
<g mask="url(#mask0_5_10611)">
<path fill-rule="evenodd" clip-rule="evenodd" d="M3 2V26H39V2H3Z" fill="#2E42A5"/>
<mask id="mask1_5_10611" style="mask-type:alpha" maskUnits="userSpaceOnUse" x="3" y="2" width="36" height="24">
<path fill-rule="evenodd" clip-rule="evenodd" d="M3 2V26H39V2H3Z" fill="white"/>
</mask>
<g mask="url(#mask1_5_10611)">
<rect x="3" y="2" width="20.25" height="14" fill="#2B409A"/>
<mask id="mask2_5_10611" style="mask-type:alpha" maskUnits="userSpaceOnUse" x="3" y="2" width="21" height="14">
<rect x="3" y="2" width="20.25" height="14" fill="white"/>
</mask>
<g mask="url(#mask2_5_10611)">
<path d="M0.745239 14.9998L5.20131 16.737L23.3512 3.88872L25.7016 1.30719L20.9365 0.726566L13.5336 6.26326L7.57505 9.99369L0.745239 14.9998Z" fill="#F7FCFF"/>
<path d="M1.35522 16.2169L3.62539 17.225L24.8575 1.06732H21.67L1.35522 16.2169Z" fill="#F50100"/>
<path d="M25.5048 14.9998L21.0487 16.737L2.89885 3.88872L0.54837 1.30719L5.3135 0.726566L12.7164 6.26326L18.6749 9.99369L25.5048 14.9998Z" fill="#F7FCFF"/>
<path d="M25.3528 15.8733L23.0826 16.8815L14.0418 9.96351L11.3613 9.19059L0.322273 1.31605H3.50984L14.5427 9.00368L17.4733 9.9305L25.3528 15.8733Z" fill="#F50100"/>
<mask id="path-11-outside-1_5_10611" maskUnits="userSpaceOnUse" x="1" y="0" width="24" height="18" fill="black">
<rect fill="white" x="1" width="24" height="18"/>
<path fill-rule="evenodd" clip-rule="evenodd" d="M14.2326 2H11.9826V8H3V10H11.9826V16H14.2326V10H23.25V8H14.2326V2Z"/>
</mask>
<path fill-rule="evenodd" clip-rule="evenodd" d="M14.2326 2H11.9826V8H3V10H11.9826V16H14.2326V10H23.25V8H14.2326V2Z" fill="#F50100"/>
<path d="M11.9826 2V0.5H10.4826V2H11.9826ZM14.2326 2H15.7326V0.5H14.2326V2ZM11.9826 8V9.5H13.4826V8H11.9826ZM3 8V6.5H1.5V8H3ZM3 10H1.5V11.5H3V10ZM11.9826 10H13.4826V8.5H11.9826V10ZM11.9826 16H10.4826V17.5H11.9826V16ZM14.2326 16V17.5H15.7326V16H14.2326ZM14.2326 10V8.5H12.7326V10H14.2326ZM23.25 10V11.5H24.75V10H23.25ZM23.25 8H24.75V6.5H23.25V8ZM14.2326 8H12.7326V9.5H14.2326V8ZM11.9826 3.5H14.2326V0.5H11.9826V3.5ZM13.4826 8V2H10.4826V8H13.4826ZM3 9.5H11.9826V6.5H3V9.5ZM4.5 10V8H1.5V10H4.5ZM11.9826 8.5H3V11.5H11.9826V8.5ZM13.4826 16V10H10.4826V16H13.4826ZM14.2326 14.5H11.9826V17.5H14.2326V14.5ZM12.7326 10V16H15.7326V10H12.7326ZM23.25 8.5H14.2326V11.5H23.25V8.5ZM21.75 8V10H24.75V8H21.75ZM14.2326 9.5H23.25V6.5H14.2326V9.5ZM12.7326 2V8H15.7326V2H12.7326Z" fill="#F7FCFF" mask="url(#path-11-outside-1_5_10611)"/>
</g>
<path fill-rule="evenodd" clip-rule="evenodd" d="M29.6254 15.8551L30.442 15.3462L31.2321 15.8551L30.9864 14.9495L31.621 14.3755H30.8134L30.4408 13.6365L30.1231 14.3755H29.1758L29.9011 14.9495L29.6254 15.8551ZM32.7898 17.1134L33.6064 16.6045L34.3966 17.1134L34.1509 16.2078L34.7855 15.6338H33.9779L33.6053 14.8948L33.2876 15.6338H32.3402L33.0655 16.2078L32.7898 17.1134ZM34.5503 18.9854L33.7337 19.4943L34.0094 18.5887L33.2841 18.0148H34.2314L34.5492 17.2757L34.9217 18.0148H35.7293L35.0948 18.5887L35.3404 19.4943L34.5503 18.9854ZM32.6124 21.7692L33.429 21.2604L34.2191 21.7692L33.9735 20.8636L34.608 20.2897H33.8004L33.4279 19.5507L33.1101 20.2897H32.1628L32.8881 20.8636L32.6124 21.7692ZM30.5623 22.5065L29.7457 23.0153L30.0214 22.1097L29.2961 21.5358H30.2434L30.5611 20.7968L30.9337 21.5358H31.7413L31.1067 22.1097L31.3524 23.0153L30.5623 22.5065ZM27.0752 21.8087L27.8918 21.2998L28.6819 21.8087L28.4362 20.9031L29.0708 20.3292H28.2632L27.8906 19.5901L27.5729 20.3292H26.6255L27.3509 20.9031L27.0752 21.8087ZM26.4672 19.0019L25.6505 19.5108L25.9262 18.6052L25.2009 18.0312H26.1483L26.466 17.2922L26.8386 18.0312H27.6462L27.0116 18.6052L27.2573 19.5108L26.4672 19.0019ZM26.6779 17.1598L27.4945 16.6509L28.2846 17.1598L28.039 16.2542L28.6735 15.6803H27.8659L27.4933 14.9412L27.1756 15.6803H26.2283L26.9536 16.2542L26.6779 17.1598Z" fill="white"/>
</g>
</g>
</g>
<defs>
<filter id="filter0_dd_5_10611" x="0" y="0" width="42" height="30" filterUnits="userSpaceOnUse" color-interpolation-filters="sRGB">
<feFlood flood-opacity="0" result="BackgroundImageFix"/>
<feColorMatrix in="SourceAlpha" type="matrix" values="0 0 0 0 0 0 0 0 0 0 0 0 0 0 0 0 0 0 127 0" result="hardAlpha"/>
<feOffset dy="1"/>
<feGaussianBlur stdDeviation="1"/>
<feColorMatrix type="matrix" values="0 0 0 0 0.0627451 0 0 0 0 0.0941176 0 0 0 0 0.156863 0 0 0 0.06 0"/>
<feBlend mode="normal" in2="BackgroundImageFix" result="effect1_dropShadow_5_10611"/>
<feColorMatrix in="SourceAlpha" type="matrix" values="0 0 0 0 0 0 0 0 0 0 0 0 0 0 0 0 0 0 127 0" result="hardAlpha"/>
<feOffset dy="1"/>
<feGaussianBlur stdDeviation="1.5"/>
<feColorMatrix type="matrix" values="0 0 0 0 0.0627451 0 0 0 0 0.0941176 0 0 0 0 0.156863 0 0 0 0.1 0"/>
<feBlend mode="normal" in2="effect1_dropShadow_5_10611" result="effect2_dropShadow_5_10611"/>
<feBlend mode="normal" in="SourceGraphic" in2="effect2_dropShadow_5_10611" result="shape"/>
</filter>
</defs>
</svg>
