<svg width="42" height="30" viewBox="0 0 42 30" fill="none" xmlns="http://www.w3.org/2000/svg">
<g filter="url(#filter0_dd_5_11337)">
<mask id="mask0_5_11337" style="mask-type:alpha" maskUnits="userSpaceOnUse" x="3" y="2" width="36" height="24">
<rect x="3" y="2" width="36" height="24" fill="white"/>
</mask>
<g mask="url(#mask0_5_11337)">
<path fill-rule="evenodd" clip-rule="evenodd" d="M3 2V26H39V2H3Z" fill="#AF0100"/>
<mask id="mask1_5_11337" style="mask-type:alpha" maskUnits="userSpaceOnUse" x="3" y="2" width="36" height="24">
<path fill-rule="evenodd" clip-rule="evenodd" d="M3 2V26H39V2H3Z" fill="white"/>
</mask>
<g mask="url(#mask1_5_11337)">
<path fill-rule="evenodd" clip-rule="evenodd" d="M3 2V10H39V2H3Z" fill="#3CA5D9"/>
<path fill-rule="evenodd" clip-rule="evenodd" d="M3 18V26H39V18H3Z" fill="#73BE4A"/>
<path fill-rule="evenodd" clip-rule="evenodd" d="M22.2824 17.0239C20.7671 16.7134 19.4366 15.5539 19.4524 14C19.4671 12.5454 20.4299 11.3678 22.0966 11.0334C23.7633 10.6991 25.4913 11.3345 25.4913 11.3345C25.0319 10.4266 23.4328 9.78992 22.1212 9.79298C19.6796 9.79867 17.0749 11.4555 17.0493 13.9856C17.0227 16.6086 19.8312 18.0999 22.3029 18.0941C24.2844 18.0895 25.2256 16.9559 25.4209 16.4739C25.4209 16.4739 23.7978 17.3345 22.2824 17.0239ZM23.27 15.4207L24.5925 14.6027L25.915 15.4207L25.4485 14.0499L26.7324 13.1846L25.1215 13.1554L24.5925 11.8027L24.0635 13.1554L22.4526 13.1846L23.7366 14.0499L23.27 15.4207Z" fill="#F7FCFF"/>
</g>
</g>
</g>
<defs>
<filter id="filter0_dd_5_11337" x="0" y="0" width="42" height="30" filterUnits="userSpaceOnUse" color-interpolation-filters="sRGB">
<feFlood flood-opacity="0" result="BackgroundImageFix"/>
<feColorMatrix in="SourceAlpha" type="matrix" values="0 0 0 0 0 0 0 0 0 0 0 0 0 0 0 0 0 0 127 0" result="hardAlpha"/>
<feOffset dy="1"/>
<feGaussianBlur stdDeviation="1"/>
<feColorMatrix type="matrix" values="0 0 0 0 0.0627451 0 0 0 0 0.0941176 0 0 0 0 0.156863 0 0 0 0.06 0"/>
<feBlend mode="normal" in2="BackgroundImageFix" result="effect1_dropShadow_5_11337"/>
<feColorMatrix in="SourceAlpha" type="matrix" values="0 0 0 0 0 0 0 0 0 0 0 0 0 0 0 0 0 0 127 0" result="hardAlpha"/>
<feOffset dy="1"/>
<feGaussianBlur stdDeviation="1.5"/>
<feColorMatrix type="matrix" values="0 0 0 0 0.0627451 0 0 0 0 0.0941176 0 0 0 0 0.156863 0 0 0 0.1 0"/>
<feBlend mode="normal" in2="effect1_dropShadow_5_11337" result="effect2_dropShadow_5_11337"/>
<feBlend mode="normal" in="SourceGraphic" in2="effect2_dropShadow_5_11337" result="shape"/>
</filter>
</defs>
</svg>
