<svg width="42" height="30" viewBox="0 0 42 30" fill="none" xmlns="http://www.w3.org/2000/svg">
<g filter="url(#filter0_dd_5_7690)">
<mask id="mask0_5_7690" style="mask-type:alpha" maskUnits="userSpaceOnUse" x="3" y="2" width="36" height="24">
<rect x="3" y="2" width="36" height="24" fill="white"/>
</mask>
<g mask="url(#mask0_5_7690)">
<path fill-rule="evenodd" clip-rule="evenodd" d="M3 2V26H39V2H3Z" fill="#2E42A5"/>
<mask id="mask1_5_7690" style="mask-type:alpha" maskUnits="userSpaceOnUse" x="3" y="2" width="36" height="24">
<path fill-rule="evenodd" clip-rule="evenodd" d="M3 2V26H39V2H3Z" fill="white"/>
</mask>
<g mask="url(#mask1_5_7690)">
<rect x="3" y="2" width="20.25" height="14" fill="#2B409A"/>
<mask id="mask2_5_7690" style="mask-type:alpha" maskUnits="userSpaceOnUse" x="3" y="2" width="21" height="14">
<rect x="3" y="2" width="20.25" height="14" fill="white"/>
</mask>
<g mask="url(#mask2_5_7690)">
<path d="M0.745239 14.9997L5.20131 16.7369L23.3512 3.88866L25.7016 1.30713L20.9365 0.726505L13.5336 6.2632L7.57505 9.99363L0.745239 14.9997Z" fill="#F7FCFF"/>
<path d="M1.35522 16.217L3.62539 17.2251L24.8575 1.06738H21.67L1.35522 16.217Z" fill="#F50100"/>
<path d="M25.5048 14.9997L21.0487 16.7369L2.89885 3.88866L0.54837 1.30713L5.3135 0.726505L12.7164 6.2632L18.6749 9.99363L25.5048 14.9997Z" fill="#F7FCFF"/>
<path d="M25.3528 15.8733L23.0826 16.8815L14.0418 9.96351L11.3613 9.19059L0.322273 1.31605H3.50984L14.5427 9.00368L17.4733 9.9305L25.3528 15.8733Z" fill="#F50100"/>
<mask id="path-11-outside-1_5_7690" maskUnits="userSpaceOnUse" x="1" y="0" width="24" height="18" fill="black">
<rect fill="white" x="1" width="24" height="18"/>
<path fill-rule="evenodd" clip-rule="evenodd" d="M14.2326 2H11.9826V8H3V10H11.9826V16H14.2326V10H23.25V8H14.2326V2Z"/>
</mask>
<path fill-rule="evenodd" clip-rule="evenodd" d="M14.2326 2H11.9826V8H3V10H11.9826V16H14.2326V10H23.25V8H14.2326V2Z" fill="#F50100"/>
<path d="M11.9826 2V0.5H10.4826V2H11.9826ZM14.2326 2H15.7326V0.5H14.2326V2ZM11.9826 8V9.5H13.4826V8H11.9826ZM3 8V6.5H1.5V8H3ZM3 10H1.5V11.5H3V10ZM11.9826 10H13.4826V8.5H11.9826V10ZM11.9826 16H10.4826V17.5H11.9826V16ZM14.2326 16V17.5H15.7326V16H14.2326ZM14.2326 10V8.5H12.7326V10H14.2326ZM23.25 10V11.5H24.75V10H23.25ZM23.25 8H24.75V6.5H23.25V8ZM14.2326 8H12.7326V9.5H14.2326V8ZM11.9826 3.5H14.2326V0.5H11.9826V3.5ZM13.4826 8V2H10.4826V8H13.4826ZM3 9.5H11.9826V6.5H3V9.5ZM4.5 10V8H1.5V10H4.5ZM11.9826 8.5H3V11.5H11.9826V8.5ZM13.4826 16V10H10.4826V16H13.4826ZM14.2326 14.5H11.9826V17.5H14.2326V14.5ZM12.7326 10V16H15.7326V10H12.7326ZM23.25 8.5H14.2326V11.5H23.25V8.5ZM21.75 8V10H24.75V8H21.75ZM14.2326 9.5H23.25V6.5H14.2326V9.5ZM12.7326 2V8H15.7326V2H12.7326Z" fill="#F7FCFF" mask="url(#path-11-outside-1_5_7690)"/>
</g>
<path fill-rule="evenodd" clip-rule="evenodd" d="M30.1125 9.47068L29.8204 10.9847L31.35 10.2699L32.8796 10.9847L32.5875 9.47068L33.825 8.39844L32.1148 8.17755L31.35 6.80005L30.5852 8.17755L28.875 8.39844L30.1125 9.47068ZM25.6125 15.0707L25.3204 16.5847L26.85 15.8699L28.3796 16.5847L28.0875 15.0707L29.325 13.9984L27.6148 13.7776L26.85 12.4001L26.0852 13.7776L24.375 13.9984L25.6125 15.0707ZM29.3548 21.4636L28.976 23.4271L30.9597 22.5001L32.9435 23.4271L32.5646 21.4636L34.1695 20.073L31.9516 19.7865L30.9597 18.0001L29.9678 19.7865L27.7499 20.073L29.3548 21.4636ZM33.1943 16.5801L33.4861 15.0677L32.25 13.9967L33.9583 13.776L34.7222 12.4001L35.4862 13.776L37.1945 13.9967L35.9584 15.0677L36.2502 16.5801L34.7222 15.866L33.1943 16.5801Z" fill="#F50100"/>
<path d="M29.8204 10.9847L29.624 10.9468L29.5497 11.332L29.905 11.1659L29.8204 10.9847ZM30.1125 9.47068L30.3089 9.50857L30.3308 9.39516L30.2435 9.31952L30.1125 9.47068ZM31.35 10.2699L31.4347 10.0887L31.35 10.0491L31.2653 10.0887L31.35 10.2699ZM32.8796 10.9847L32.795 11.1659L33.1503 11.332L33.076 10.9468L32.8796 10.9847ZM32.5875 9.47068L32.4565 9.31952L32.3692 9.39516L32.3911 9.50857L32.5875 9.47068ZM33.825 8.39844L33.956 8.5496L34.2933 8.25727L33.8506 8.20009L33.825 8.39844ZM32.1148 8.17755L31.94 8.27463L31.989 8.36296L32.0892 8.3759L32.1148 8.17755ZM31.35 6.80005L31.5249 6.70296L31.35 6.38803L31.1751 6.70297L31.35 6.80005ZM30.5852 8.17755L30.6108 8.3759L30.711 8.36296L30.76 8.27463L30.5852 8.17755ZM28.875 8.39844L28.8494 8.20009L28.4067 8.25727L28.744 8.5496L28.875 8.39844ZM25.3204 16.5847L25.124 16.5468L25.0497 16.932L25.405 16.7659L25.3204 16.5847ZM25.6125 15.0707L25.8089 15.1086L25.8308 14.9952L25.7435 14.9195L25.6125 15.0707ZM26.85 15.8699L26.9347 15.6887L26.85 15.6491L26.7653 15.6887L26.85 15.8699ZM28.3796 16.5847L28.295 16.7659L28.6503 16.932L28.576 16.5468L28.3796 16.5847ZM28.0875 15.0707L27.9565 14.9195L27.8692 14.9952L27.8911 15.1086L28.0875 15.0707ZM29.325 13.9984L29.456 14.1496L29.7933 13.8573L29.3506 13.8001L29.325 13.9984ZM27.6148 13.7776L27.44 13.8746L27.489 13.963L27.5892 13.9759L27.6148 13.7776ZM26.85 12.4001L27.0249 12.303L26.85 11.988L26.6751 12.303L26.85 12.4001ZM26.0852 13.7776L26.1108 13.9759L26.211 13.963L26.26 13.8746L26.0852 13.7776ZM24.375 13.9984L24.3494 13.8001L23.9067 13.8573L24.244 14.1496L24.375 13.9984ZM28.976 23.4271L28.7796 23.3892L28.7053 23.7744L29.0606 23.6083L28.976 23.4271ZM29.3548 21.4636L29.5512 21.5015L29.5731 21.3881L29.4858 21.3124L29.3548 21.4636ZM30.9597 22.5001L31.0444 22.3189L30.9597 22.2793L30.8751 22.3189L30.9597 22.5001ZM32.9435 23.4271L32.8588 23.6083L33.2142 23.7744L33.1399 23.3892L32.9435 23.4271ZM32.5646 21.4636L32.4337 21.3124L32.3464 21.3881L32.3683 21.5015L32.5646 21.4636ZM34.1695 20.073L34.3005 20.2242L34.6379 19.9318L34.1952 19.8747L34.1695 20.073ZM31.9516 19.7865L31.7768 19.8836L31.8258 19.9719L31.926 19.9849L31.9516 19.7865ZM30.9597 18.0001L31.1346 17.903L30.9597 17.588L30.7849 17.903L30.9597 18.0001ZM29.9678 19.7865L29.9935 19.9849L30.0937 19.9719L30.1427 19.8836L29.9678 19.7865ZM27.7499 20.073L27.7243 19.8747L27.2816 19.9318L27.6189 20.2242L27.7499 20.073ZM33.4861 15.0677L33.6825 15.1056L33.7044 14.9922L33.6171 14.9166L33.4861 15.0677ZM33.1943 16.5801L32.9979 16.5422L32.9236 16.9273L33.279 16.7612L33.1943 16.5801ZM32.25 13.9967L32.2244 13.7983L31.7816 13.8555L32.119 14.1478L32.25 13.9967ZM33.9583 13.776L33.9839 13.9744L34.0841 13.9614L34.1331 13.8731L33.9583 13.776ZM34.7222 12.4001L34.8971 12.303L34.7222 11.988L34.5474 12.303L34.7222 12.4001ZM35.4862 13.776L35.3114 13.8731L35.3604 13.9614L35.4606 13.9744L35.4862 13.776ZM37.1945 13.9967L37.3255 14.1478L37.6628 13.8555L37.2201 13.7983L37.1945 13.9967ZM35.9584 15.0677L35.8274 14.9166L35.7401 14.9922L35.762 15.1056L35.9584 15.0677ZM36.2502 16.5801L36.1655 16.7612L36.5209 16.9273L36.4466 16.5422L36.2502 16.5801ZM34.7222 15.866L34.8069 15.6848L34.7222 15.6453L34.6376 15.6848L34.7222 15.866ZM30.0167 11.0226L30.3089 9.50857L29.9161 9.43279L29.624 10.9468L30.0167 11.0226ZM31.2653 10.0887L29.7357 10.8035L29.905 11.1659L31.4347 10.4511L31.2653 10.0887ZM32.9643 10.8035L31.4347 10.0887L31.2653 10.4511L32.795 11.1659L32.9643 10.8035ZM32.3911 9.50857L32.6833 11.0226L33.076 10.9468L32.7839 9.43279L32.3911 9.50857ZM33.694 8.24729L32.4565 9.31952L32.7185 9.62183L33.956 8.5496L33.694 8.24729ZM32.0892 8.3759L33.7994 8.59679L33.8506 8.20009L32.1404 7.9792L32.0892 8.3759ZM31.1751 6.89713L31.94 8.27463L32.2897 8.08047L31.5249 6.70296L31.1751 6.89713ZM30.76 8.27463L31.5249 6.89713L31.1751 6.70297L30.4103 8.08047L30.76 8.27463ZM28.9006 8.59679L30.6108 8.3759L30.5596 7.9792L28.8494 8.20009L28.9006 8.59679ZM30.2435 9.31952L29.006 8.24729L28.744 8.5496L29.9815 9.62183L30.2435 9.31952ZM25.5167 16.6226L25.8089 15.1086L25.4161 15.0328L25.124 16.5468L25.5167 16.6226ZM26.7653 15.6887L25.2357 16.4035L25.405 16.7659L26.9347 16.0511L26.7653 15.6887ZM28.4643 16.4035L26.9347 15.6887L26.7653 16.0511L28.295 16.7659L28.4643 16.4035ZM27.8911 15.1086L28.1833 16.6226L28.576 16.5468L28.2839 15.0328L27.8911 15.1086ZM29.194 13.8473L27.9565 14.9195L28.2185 15.2218L29.456 14.1496L29.194 13.8473ZM27.5892 13.9759L29.2994 14.1968L29.3506 13.8001L27.6404 13.5792L27.5892 13.9759ZM26.6751 12.4971L27.44 13.8746L27.7897 13.6805L27.0249 12.303L26.6751 12.4971ZM26.26 13.8746L27.0249 12.4971L26.6751 12.303L25.9103 13.6805L26.26 13.8746ZM24.4006 14.1968L26.1108 13.9759L26.0596 13.5792L24.3494 13.8001L24.4006 14.1968ZM25.7435 14.9195L24.506 13.8473L24.244 14.1496L25.4815 15.2218L25.7435 14.9195ZM29.1723 23.465L29.5512 21.5015L29.1584 21.4257L28.7796 23.3892L29.1723 23.465ZM30.8751 22.3189L28.8913 23.2459L29.0606 23.6083L31.0444 22.6813L30.8751 22.3189ZM33.0282 23.2459L31.0444 22.3189L30.8751 22.6813L32.8588 23.6083L33.0282 23.2459ZM32.3683 21.5015L32.7471 23.465L33.1399 23.3892L32.761 21.4257L32.3683 21.5015ZM34.0386 19.9219L32.4337 21.3124L32.6956 21.6147L34.3005 20.2242L34.0386 19.9219ZM31.926 19.9849L34.1439 20.2714L34.1952 19.8747L31.9772 19.5882L31.926 19.9849ZM30.7849 18.0971L31.7768 19.8836L32.1265 19.6895L31.1346 17.903L30.7849 18.0971ZM30.1427 19.8836L31.1346 18.0971L30.7849 17.903L29.793 19.6895L30.1427 19.8836ZM27.7755 20.2714L29.9935 19.9849L29.9422 19.5882L27.7243 19.8747L27.7755 20.2714ZM29.4858 21.3124L27.8809 19.9219L27.6189 20.2242L29.2239 21.6147L29.4858 21.3124ZM33.2897 15.0298L32.9979 16.5422L33.3907 16.6179L33.6825 15.1056L33.2897 15.0298ZM32.119 14.1478L33.3552 15.2189L33.6171 14.9166L32.381 13.8455L32.119 14.1478ZM33.9327 13.5777L32.2244 13.7983L32.2756 14.195L33.9839 13.9744L33.9327 13.5777ZM34.5474 12.303L33.7834 13.6789L34.1331 13.8731L34.8971 12.4971L34.5474 12.303ZM35.6611 13.6789L34.8971 12.303L34.5474 12.4971L35.3114 13.8731L35.6611 13.6789ZM37.2201 13.7983L35.5118 13.5777L35.4606 13.9744L37.1689 14.195L37.2201 13.7983ZM36.0893 15.2189L37.3255 14.1478L37.0635 13.8455L35.8274 14.9166L36.0893 15.2189ZM36.4466 16.5422L36.1547 15.0298L35.762 15.1056L36.0538 16.6179L36.4466 16.5422ZM34.6376 16.0472L36.1655 16.7612L36.3349 16.3989L34.8069 15.6848L34.6376 16.0472ZM33.279 16.7612L34.8069 16.0472L34.6376 15.6848L33.1096 16.3989L33.279 16.7612Z" fill="#F7FCFF"/>
</g>
</g>
</g>
<defs>
<filter id="filter0_dd_5_7690" x="0" y="0" width="42" height="30" filterUnits="userSpaceOnUse" color-interpolation-filters="sRGB">
<feFlood flood-opacity="0" result="BackgroundImageFix"/>
<feColorMatrix in="SourceAlpha" type="matrix" values="0 0 0 0 0 0 0 0 0 0 0 0 0 0 0 0 0 0 127 0" result="hardAlpha"/>
<feOffset dy="1"/>
<feGaussianBlur stdDeviation="1"/>
<feColorMatrix type="matrix" values="0 0 0 0 0.0627451 0 0 0 0 0.0941176 0 0 0 0 0.156863 0 0 0 0.06 0"/>
<feBlend mode="normal" in2="BackgroundImageFix" result="effect1_dropShadow_5_7690"/>
<feColorMatrix in="SourceAlpha" type="matrix" values="0 0 0 0 0 0 0 0 0 0 0 0 0 0 0 0 0 0 127 0" result="hardAlpha"/>
<feOffset dy="1"/>
<feGaussianBlur stdDeviation="1.5"/>
<feColorMatrix type="matrix" values="0 0 0 0 0.0627451 0 0 0 0 0.0941176 0 0 0 0 0.156863 0 0 0 0.1 0"/>
<feBlend mode="normal" in2="effect1_dropShadow_5_7690" result="effect2_dropShadow_5_7690"/>
<feBlend mode="normal" in="SourceGraphic" in2="effect2_dropShadow_5_7690" result="shape"/>
</filter>
</defs>
</svg>
