<svg width="42" height="30" viewBox="0 0 42 30" fill="none" xmlns="http://www.w3.org/2000/svg">
<g filter="url(#filter0_dd_5_6607)">
<mask id="mask0_5_6607" style="mask-type:alpha" maskUnits="userSpaceOnUse" x="3" y="2" width="36" height="24">
<rect x="3" y="2" width="36" height="24" fill="white"/>
</mask>
<g mask="url(#mask0_5_6607)">
<path fill-rule="evenodd" clip-rule="evenodd" d="M3 2V26H39V2H3Z" fill="#F7FCFF"/>
<mask id="mask1_5_6607" style="mask-type:alpha" maskUnits="userSpaceOnUse" x="3" y="2" width="36" height="24">
<path fill-rule="evenodd" clip-rule="evenodd" d="M3 2V26H39V2H3Z" fill="white"/>
</mask>
<g mask="url(#mask1_5_6607)">
<path fill-rule="evenodd" clip-rule="evenodd" d="M3 2V10H39V2H3Z" fill="#3D58DB"/>
<path fill-rule="evenodd" clip-rule="evenodd" d="M3 18V26H39V18H3Z" fill="#3D58DB"/>
<path d="M24.9161 13.8582C24.9161 15.8158 23.1108 17.5 20.7566 17.5C18.4023 17.5 16.597 15.8158 16.597 13.8582C16.597 11.9007 18.4023 10.2164 20.7566 10.2164C23.1108 10.2164 24.9161 11.9007 24.9161 13.8582Z" stroke="#E8AA00"/>
<path fill-rule="evenodd" clip-rule="evenodd" d="M18.5371 11.6624C18.5371 11.6624 17.4655 13.23 17.4655 14.3062C17.4655 15.3824 18.7482 16.7351 20.7663 16.7351C22.7348 16.7351 24.1497 15.6899 24.1925 14.3062C24.2353 12.9225 23.1335 11.9375 23.1335 11.9375C23.1335 11.9375 23.7571 13.9296 23.4453 14.7369C23.1335 15.5441 22.1243 16.5208 20.7663 16.3964C19.4082 16.2721 18.1194 14.7862 18.1194 14.3062C18.1194 13.8262 18.5371 11.6624 18.5371 11.6624Z" fill="#1E601B"/>
<path d="M18.9305 14.3283H22.5388" stroke="#188396"/>
<path d="M19.2664 13.806H22.3708" stroke="#E8AA00"/>
<path d="M22.2337 14.4112H19.3649L20.8124 12.2763L22.2337 14.4112Z" stroke="#E8AA00"/>
</g>
</g>
</g>
<defs>
<filter id="filter0_dd_5_6607" x="0" y="0" width="42" height="30" filterUnits="userSpaceOnUse" color-interpolation-filters="sRGB">
<feFlood flood-opacity="0" result="BackgroundImageFix"/>
<feColorMatrix in="SourceAlpha" type="matrix" values="0 0 0 0 0 0 0 0 0 0 0 0 0 0 0 0 0 0 127 0" result="hardAlpha"/>
<feOffset dy="1"/>
<feGaussianBlur stdDeviation="1"/>
<feColorMatrix type="matrix" values="0 0 0 0 0.0627451 0 0 0 0 0.0941176 0 0 0 0 0.156863 0 0 0 0.06 0"/>
<feBlend mode="normal" in2="BackgroundImageFix" result="effect1_dropShadow_5_6607"/>
<feColorMatrix in="SourceAlpha" type="matrix" values="0 0 0 0 0 0 0 0 0 0 0 0 0 0 0 0 0 0 127 0" result="hardAlpha"/>
<feOffset dy="1"/>
<feGaussianBlur stdDeviation="1.5"/>
<feColorMatrix type="matrix" values="0 0 0 0 0.0627451 0 0 0 0 0.0941176 0 0 0 0 0.156863 0 0 0 0.1 0"/>
<feBlend mode="normal" in2="effect1_dropShadow_5_6607" result="effect2_dropShadow_5_6607"/>
<feBlend mode="normal" in="SourceGraphic" in2="effect2_dropShadow_5_6607" result="shape"/>
</filter>
</defs>
</svg>
