<svg width="42" height="30" viewBox="0 0 42 30" fill="none" xmlns="http://www.w3.org/2000/svg">
<g filter="url(#filter0_dd_5_9449)">
<mask id="mask0_5_9449" style="mask-type:alpha" maskUnits="userSpaceOnUse" x="3" y="2" width="36" height="24">
<rect x="3" y="2" width="36" height="24" fill="white"/>
</mask>
<g mask="url(#mask0_5_9449)">
<path fill-rule="evenodd" clip-rule="evenodd" d="M3 2H39V26H3V2Z" fill="#C51918"/>
<path fill-rule="evenodd" clip-rule="evenodd" d="M7.5 6H34.5V22H7.5V6Z" fill="#4564F9"/>
<path d="M8.5 7H33.5V21H8.5V7Z" stroke="#CBDAFF" stroke-opacity="0.1" stroke-width="2"/>
<mask id="mask1_5_9449" style="mask-type:alpha" maskUnits="userSpaceOnUse" x="7" y="6" width="28" height="16">
<path fill-rule="evenodd" clip-rule="evenodd" d="M7.5 6H34.5V22H7.5V6Z" fill="white"/>
<path d="M8.5 7H33.5V21H8.5V7Z" stroke="white" stroke-width="2"/>
</mask>
<g mask="url(#mask1_5_9449)">
<path d="M21.5625 7.00006L22.112 5.6582L21.5497 5.42796L20.9912 5.66733L21.5625 7.00006ZM21.5625 7.00006C22.112 5.6582 22.1124 5.65836 22.1128 5.65854L22.1138 5.65894L22.1162 5.65992L22.1226 5.6626L22.1423 5.67081C22.1583 5.67754 22.1801 5.68679 22.2072 5.69854C22.2616 5.72203 22.3377 5.75557 22.4323 5.79894C22.6215 5.88561 22.8862 6.01213 23.2014 6.17704C23.8283 6.50498 24.6731 6.99401 25.5266 7.63452C27.1501 8.85289 29.2 10.9187 29.2 13.7531C29.2 16.5554 27.1863 18.7429 25.5825 20.0744C24.7377 20.7758 23.9005 21.3275 23.278 21.7028C22.9652 21.8914 22.7027 22.0379 22.5154 22.1386C22.4216 22.1891 22.3464 22.2282 22.2928 22.2557C22.2661 22.2694 22.2447 22.2802 22.229 22.288L22.2099 22.2975L22.2037 22.3006L22.2015 22.3017L22.2006 22.3021C22.2002 22.3023 22.1998 22.3025 21.5625 21.0001M21.5625 7.00006C20.9912 5.66733 20.9909 5.6675 20.9904 5.66768L20.9895 5.66808L20.9872 5.66908L20.9808 5.67182L20.9615 5.68026C20.9457 5.6872 20.9241 5.69677 20.8972 5.70892C20.8433 5.73323 20.7676 5.76794 20.6735 5.81278C20.4853 5.90235 20.2217 6.0329 19.9076 6.2022C19.283 6.53892 18.4415 7.03824 17.5914 7.68434C15.9842 8.9058 13.925 10.9726 13.925 13.7531C13.925 16.5007 15.9471 18.6901 17.5362 20.0247C18.3779 20.7316 19.2123 21.2934 19.8326 21.6773C20.1443 21.8702 20.4058 22.0206 20.5922 22.1242C20.6855 22.1761 20.7603 22.2164 20.8134 22.2446C20.84 22.2587 20.8612 22.2698 20.8766 22.2778L20.8954 22.2875L20.9015 22.2906L20.9037 22.2917L20.9046 22.2922C20.9049 22.2924 20.9053 22.2926 21.5625 21.0001M21.5625 21.0001L22.1998 22.3025L21.5501 22.6204L20.9053 22.2926L21.5625 21.0001Z" stroke="#C1C9F1" stroke-opacity="0.1182" stroke-width="2.9"/>
<path d="M21.4501 8.0368L22.0752 6.72847L21.4355 6.42283L20.8014 6.73997L21.4501 8.0368ZM21.4501 8.0368C22.0752 6.72847 22.0756 6.72868 22.0761 6.7289L22.0771 6.72937L22.0793 6.73046L22.0852 6.73327L22.1017 6.74132C22.1148 6.74777 22.1322 6.75639 22.1535 6.76715C22.1962 6.78867 22.2548 6.81883 22.3271 6.85747C22.4714 6.93463 22.6714 7.04624 22.9087 7.19107C23.3801 7.47885 24.0144 7.90732 24.6553 8.46857C25.8914 9.551 27.4001 11.3492 27.4001 13.7677C27.4001 16.1587 25.9194 18.0542 24.709 19.2269C24.0783 19.838 23.4531 20.3187 22.9876 20.6462C22.7535 20.8109 22.5563 20.9393 22.4144 21.0284C22.3434 21.073 22.2859 21.1079 22.2443 21.1328C22.2235 21.1452 22.2067 21.1551 22.194 21.1625L22.1783 21.1717L22.1728 21.1748L22.1707 21.176L22.1698 21.1765C22.1694 21.1767 22.169 21.177 21.4501 19.9178M21.4501 8.0368C20.8014 6.73997 20.801 6.74018 20.8006 6.74039L20.7997 6.74086L20.7975 6.74197L20.7918 6.74481L20.7757 6.75304C20.7628 6.75965 20.7457 6.76852 20.7246 6.77961C20.6824 6.80177 20.6244 6.83289 20.5527 6.87271C20.4095 6.95224 20.2107 7.06713 19.9749 7.21551C19.5061 7.5104 18.8754 7.94711 18.238 8.51236C17.0169 9.59529 15.5001 11.3938 15.5001 13.7677C15.5001 16.1133 16.9879 18.01 18.1852 19.1833C18.8128 19.7984 19.4348 20.2872 19.898 20.6217C20.1308 20.7898 20.3268 20.9214 20.4677 21.0128C20.5382 21.0585 20.5952 21.0943 20.6363 21.1198C20.6568 21.1325 20.6734 21.1426 20.6859 21.1502L20.7013 21.1595L20.7066 21.1626L20.7086 21.1638L20.7094 21.1643C20.7098 21.1646 20.7102 21.1648 21.4501 19.9178M21.4501 19.9178L22.169 21.177L21.4361 21.5955L20.7102 21.1648L21.4501 19.9178Z" fill="#CCE0E5"/>
<path d="M21.4501 8.0368L22.0752 6.72847L21.4355 6.42283L20.8014 6.73997L21.4501 8.0368ZM21.4501 8.0368C22.0752 6.72847 22.0756 6.72868 22.0761 6.7289L22.0771 6.72937L22.0793 6.73046L22.0852 6.73327L22.1017 6.74132C22.1148 6.74777 22.1322 6.75639 22.1535 6.76715C22.1962 6.78867 22.2548 6.81883 22.3271 6.85747C22.4714 6.93463 22.6714 7.04624 22.9087 7.19107C23.3801 7.47885 24.0144 7.90732 24.6553 8.46857C25.8914 9.551 27.4001 11.3492 27.4001 13.7677C27.4001 16.1587 25.9194 18.0542 24.709 19.2269C24.0783 19.838 23.4531 20.3187 22.9876 20.6462C22.7535 20.8109 22.5563 20.9393 22.4144 21.0284C22.3434 21.073 22.2859 21.1079 22.2443 21.1328C22.2235 21.1452 22.2067 21.1551 22.194 21.1625L22.1783 21.1717L22.1728 21.1748L22.1707 21.176L22.1698 21.1765C22.1694 21.1767 22.169 21.177 21.4501 19.9178M21.4501 8.0368C20.8014 6.73997 20.801 6.74018 20.8006 6.74039L20.7997 6.74086L20.7975 6.74197L20.7918 6.74481L20.7757 6.75304C20.7628 6.75965 20.7457 6.76852 20.7246 6.77961C20.6824 6.80177 20.6244 6.83289 20.5527 6.87271C20.4095 6.95224 20.2107 7.06713 19.9749 7.21551C19.5061 7.5104 18.8754 7.94711 18.238 8.51236C17.0169 9.59529 15.5001 11.3938 15.5001 13.7677C15.5001 16.1133 16.9879 18.01 18.1852 19.1833C18.8128 19.7984 19.4348 20.2872 19.898 20.6217C20.1308 20.7898 20.3268 20.9214 20.4677 21.0128C20.5382 21.0585 20.5952 21.0943 20.6363 21.1198C20.6568 21.1325 20.6734 21.1426 20.6859 21.1502L20.7013 21.1595L20.7066 21.1626L20.7086 21.1638L20.7094 21.1643C20.7098 21.1646 20.7102 21.1648 21.4501 19.9178M21.4501 19.9178L22.169 21.177L21.4361 21.5955L20.7102 21.1648L21.4501 19.9178Z" stroke="#C1C9F1" stroke-opacity="0.748217" stroke-width="2.9"/>
<path d="M21.4501 8.0368L22.0752 6.72847L21.4355 6.42283L20.8014 6.73997L21.4501 8.0368ZM21.4501 8.0368C22.0752 6.72847 22.0756 6.72868 22.0761 6.7289L22.0771 6.72937L22.0793 6.73046L22.0852 6.73327L22.1017 6.74132C22.1148 6.74777 22.1322 6.75639 22.1535 6.76715C22.1962 6.78867 22.2548 6.81883 22.3271 6.85747C22.4714 6.93463 22.6714 7.04624 22.9087 7.19107C23.3801 7.47885 24.0144 7.90732 24.6553 8.46857C25.8914 9.551 27.4001 11.3492 27.4001 13.7677C27.4001 16.1587 25.9194 18.0542 24.709 19.2269C24.0783 19.838 23.4531 20.3187 22.9876 20.6462C22.7535 20.8109 22.5563 20.9393 22.4144 21.0284C22.3434 21.073 22.2859 21.1079 22.2443 21.1328C22.2235 21.1452 22.2067 21.1551 22.194 21.1625L22.1783 21.1717L22.1728 21.1748L22.1707 21.176L22.1698 21.1765C22.1694 21.1767 22.169 21.177 21.4501 19.9178M21.4501 8.0368C20.8014 6.73997 20.801 6.74018 20.8006 6.74039L20.7997 6.74086L20.7975 6.74197L20.7918 6.74481L20.7757 6.75304C20.7628 6.75965 20.7457 6.76852 20.7246 6.77961C20.6824 6.80177 20.6244 6.83289 20.5527 6.87271C20.4095 6.95224 20.2107 7.06713 19.9749 7.21551C19.5061 7.5104 18.8754 7.94711 18.238 8.51236C17.0169 9.59529 15.5001 11.3938 15.5001 13.7677C15.5001 16.1133 16.9879 18.01 18.1852 19.1833C18.8128 19.7984 19.4348 20.2872 19.898 20.6217C20.1308 20.7898 20.3268 20.9214 20.4677 21.0128C20.5382 21.0585 20.5952 21.0943 20.6363 21.1198C20.6568 21.1325 20.6734 21.1426 20.6859 21.1502L20.7013 21.1595L20.7066 21.1626L20.7086 21.1638L20.7094 21.1643C20.7098 21.1646 20.7102 21.1648 21.4501 19.9178M21.4501 19.9178L22.169 21.177L21.4361 21.5955L20.7102 21.1648L21.4501 19.9178Z" stroke="#C51918" stroke-width="2.9"/>
<mask id="mask2_5_9449" style="mask-type:alpha" maskUnits="userSpaceOnUse" x="16" y="8" width="10" height="12">
<path d="M22.6911 17.1441C22.2569 17.5648 21.8182 17.9134 21.4616 18.1724C21.1011 17.9046 20.6558 17.5442 20.215 17.1121C19.1622 16.0804 18.4001 14.9021 18.4001 13.7677C18.4001 12.6615 19.1333 11.5945 20.1622 10.682C20.6256 10.2711 21.095 9.94041 21.4623 9.70613C21.8258 9.93174 22.2883 10.2506 22.7448 10.6503C23.7587 11.5381 24.5001 12.6053 24.5001 13.7677C24.5001 14.9574 23.7307 16.1369 22.6911 17.1441Z" fill="white"/>
<path d="M22.6911 17.1441C22.2569 17.5648 21.8182 17.9134 21.4616 18.1724C21.1011 17.9046 20.6558 17.5442 20.215 17.1121C19.1622 16.0804 18.4001 14.9021 18.4001 13.7677C18.4001 12.6615 19.1333 11.5945 20.1622 10.682C20.6256 10.2711 21.095 9.94041 21.4623 9.70613C21.8258 9.93174 22.2883 10.2506 22.7448 10.6503C23.7587 11.5381 24.5001 12.6053 24.5001 13.7677C24.5001 14.9574 23.7307 16.1369 22.6911 17.1441Z" stroke="white" stroke-width="2.9"/>
</mask>
<g mask="url(#mask2_5_9449)">
<rect x="17.55" y="16" width="8.4" height="1.5" fill="#91CBCB"/>
<path fill-rule="evenodd" clip-rule="evenodd" d="M18.302 17.198C18.302 17.198 24.2578 17.1999 24.8052 17.0172C25.3526 16.8345 23.7775 20.5247 21.7651 20.5247C19.7527 20.5247 18.302 17.198 18.302 17.198Z" fill="#FDF9A1"/>
<path d="M23.9178 16.7551L22.8479 17.4869C21.1616 15.5391 20.4543 13.524 20.7562 11.4675L22.0948 11.6227C21.842 13.3453 22.4395 15.0475 23.9178 16.7551Z" fill="#A68861"/>
<path fill-rule="evenodd" clip-rule="evenodd" d="M21.4429 11.6368L20.4053 12.7175C20.3695 12.7547 20.3077 12.7199 20.3209 12.67L20.6757 11.3304H19.0766C19.0213 11.3304 19.0069 11.2539 19.0584 11.2338L20.4208 10.7029L19.4513 9.56683C19.4182 9.52806 19.4576 9.47044 19.5057 9.48713L21.0405 10.0189L21.3946 8.75242C21.4082 8.70367 21.4773 8.70372 21.4909 8.75249L21.8432 10.0189L23.3648 9.4923C23.414 9.47528 23.4532 9.53537 23.4179 9.57354L22.3708 10.7029L23.8119 11.2335C23.8643 11.2528 23.8505 11.3304 23.7946 11.3304H22.3708L22.5892 12.6992C22.5969 12.7476 22.5377 12.7771 22.5037 12.7417L21.4429 11.6368Z" fill="#239E46"/>
<path fill-rule="evenodd" clip-rule="evenodd" d="M20.5499 15H25.9499V16.05H20.5499V15Z" fill="#239E46"/>
<path fill-rule="evenodd" clip-rule="evenodd" d="M19.731 14.3926H19.7256C19.71 14.444 19.6719 14.4868 19.6113 14.521C19.5507 14.5551 19.4724 14.5721 19.3764 14.5721C19.2996 14.5721 19.2291 14.5598 19.1649 14.5351C19.1007 14.5105 19.0458 14.4742 19.0002 14.4265C18.9546 14.3787 18.9189 14.3194 18.8931 14.2485C18.8673 14.1776 18.8544 14.096 18.8544 14.0036C18.8544 13.9122 18.867 13.8311 18.8922 13.7602C18.9174 13.6894 18.9534 13.63 19.0002 13.5823C19.047 13.5345 19.1034 13.498 19.1694 13.4728C19.2354 13.4476 19.3086 13.435 19.389 13.435C19.5018 13.435 19.596 13.457 19.6716 13.5011C19.7472 13.5452 19.8054 13.6035 19.8462 13.676L19.722 13.7421C19.6932 13.6833 19.6503 13.6371 19.5933 13.6035C19.5363 13.5699 19.4682 13.5531 19.389 13.5531C19.3338 13.5531 19.2834 13.5618 19.2378 13.5791C19.1922 13.5964 19.1529 13.6208 19.1199 13.6523C19.0869 13.6838 19.0614 13.7216 19.0434 13.7657C19.0254 13.8098 19.0164 13.8592 19.0164 13.9138V14.0918C19.0164 14.1464 19.0254 14.196 19.0434 14.2406C19.0614 14.2852 19.0869 14.3233 19.1199 14.3548C19.1529 14.3863 19.1934 14.4107 19.2414 14.428C19.2894 14.4454 19.3434 14.454 19.4034 14.454C19.4466 14.454 19.4877 14.449 19.5267 14.4391C19.5657 14.4291 19.5999 14.4141 19.6293 14.3942C19.6587 14.3742 19.6818 14.3493 19.6986 14.3194C19.7154 14.2894 19.7238 14.254 19.7238 14.213V14.1044H19.4466V13.9878H19.8714V14.5532H19.731V14.3926ZM20.6705 13.4539V14.1343C20.6705 14.2393 20.6927 14.3188 20.7371 14.3729C20.7815 14.427 20.8595 14.454 20.9711 14.454C21.0827 14.454 21.1607 14.427 21.2051 14.3729C21.2495 14.3188 21.2717 14.2393 21.2717 14.1343V13.4539H21.4229V14.1028C21.4229 14.1826 21.4148 14.2519 21.3986 14.3107C21.3824 14.3695 21.3563 14.4183 21.3203 14.4572C21.2843 14.496 21.2372 14.5249 21.179 14.5438C21.1208 14.5627 21.0497 14.5722 20.9657 14.5722C20.8817 14.5722 20.8112 14.5627 20.7542 14.5438C20.6972 14.5249 20.6513 14.496 20.6165 14.4572C20.5817 14.4183 20.5568 14.3695 20.5418 14.3107C20.5268 14.2519 20.5193 14.1826 20.5193 14.1028V13.4539H20.6705ZM22.872 14.5533L22.746 14.2288H22.2384L22.1124 14.5533H21.9594L22.3986 13.4539H22.5912L23.0304 14.5533H22.872ZM22.4958 13.5768H22.4868L22.2744 14.1123H22.7082L22.4958 13.5768ZM24.5784 13.6272H24.5694L24.4632 13.8114L24.1626 14.2902L23.862 13.8114L23.7558 13.6272H23.7468V14.5533H23.5992V13.4539H23.8008L24.1608 14.0461H24.1698L24.5316 13.4539H24.726V14.5533H24.5784V13.6272Z" fill="#C51918"/>
</g>
</g>
</g>
</g>
<defs>
<filter id="filter0_dd_5_9449" x="0" y="0" width="42" height="30" filterUnits="userSpaceOnUse" color-interpolation-filters="sRGB">
<feFlood flood-opacity="0" result="BackgroundImageFix"/>
<feColorMatrix in="SourceAlpha" type="matrix" values="0 0 0 0 0 0 0 0 0 0 0 0 0 0 0 0 0 0 127 0" result="hardAlpha"/>
<feOffset dy="1"/>
<feGaussianBlur stdDeviation="1"/>
<feColorMatrix type="matrix" values="0 0 0 0 0.0627451 0 0 0 0 0.0941176 0 0 0 0 0.156863 0 0 0 0.06 0"/>
<feBlend mode="normal" in2="BackgroundImageFix" result="effect1_dropShadow_5_9449"/>
<feColorMatrix in="SourceAlpha" type="matrix" values="0 0 0 0 0 0 0 0 0 0 0 0 0 0 0 0 0 0 127 0" result="hardAlpha"/>
<feOffset dy="1"/>
<feGaussianBlur stdDeviation="1.5"/>
<feColorMatrix type="matrix" values="0 0 0 0 0.0627451 0 0 0 0 0.0941176 0 0 0 0 0.156863 0 0 0 0.1 0"/>
<feBlend mode="normal" in2="effect1_dropShadow_5_9449" result="effect2_dropShadow_5_9449"/>
<feBlend mode="normal" in="SourceGraphic" in2="effect2_dropShadow_5_9449" result="shape"/>
</filter>
</defs>
</svg>
