<svg width="42" height="30" viewBox="0 0 42 30" fill="none" xmlns="http://www.w3.org/2000/svg">
<g filter="url(#filter0_dd_5_8669)">
<mask id="mask0_5_8669" style="mask-type:alpha" maskUnits="userSpaceOnUse" x="3" y="2" width="36" height="24">
<rect x="3" y="2" width="36" height="24" fill="white"/>
</mask>
<g mask="url(#mask0_5_8669)">
<path fill-rule="evenodd" clip-rule="evenodd" d="M3 2V26H39V2H3Z" fill="#C51918"/>
<path fill-rule="evenodd" clip-rule="evenodd" d="M3 2V26L39 2H3Z" fill="#5EAA22"/>
<path d="M3.88235 30.0053L4.56886 30.686L5.40033 30.1927L46.1939 5.98925L47.5838 5.16458L46.4362 4.02662L40.4503 -1.90902L39.7638 -2.58977L38.9323 -2.09645L-1.86122 22.107L-3.25113 22.9317L-2.10354 24.0697L3.88235 30.0053Z" fill="#272727" stroke="#FFD018" stroke-width="2.5"/>
<path fill-rule="evenodd" clip-rule="evenodd" d="M16.5996 18.9183L15.3749 20.8129L14.5928 18.6786L12.1605 17.9913L14.1873 16.8907L13.9431 14.6583L15.9435 16.0254L18.0155 15.0045L17.4344 17.2785L19.0968 18.9791L16.5996 18.9183Z" fill="#F7FCFF"/>
<path fill-rule="evenodd" clip-rule="evenodd" d="M27.8496 12.3651L26.6249 14.2598L25.8428 12.1255L23.4105 11.4382L25.4373 10.3375L25.1931 8.10513L27.1935 9.47223L29.2655 8.45133L28.6844 10.7253L30.3468 12.4259L27.8496 12.3651Z" fill="#F7FCFF"/>
</g>
</g>
<defs>
<filter id="filter0_dd_5_8669" x="0" y="0" width="42" height="30" filterUnits="userSpaceOnUse" color-interpolation-filters="sRGB">
<feFlood flood-opacity="0" result="BackgroundImageFix"/>
<feColorMatrix in="SourceAlpha" type="matrix" values="0 0 0 0 0 0 0 0 0 0 0 0 0 0 0 0 0 0 127 0" result="hardAlpha"/>
<feOffset dy="1"/>
<feGaussianBlur stdDeviation="1"/>
<feColorMatrix type="matrix" values="0 0 0 0 0.0627451 0 0 0 0 0.0941176 0 0 0 0 0.156863 0 0 0 0.06 0"/>
<feBlend mode="normal" in2="BackgroundImageFix" result="effect1_dropShadow_5_8669"/>
<feColorMatrix in="SourceAlpha" type="matrix" values="0 0 0 0 0 0 0 0 0 0 0 0 0 0 0 0 0 0 127 0" result="hardAlpha"/>
<feOffset dy="1"/>
<feGaussianBlur stdDeviation="1.5"/>
<feColorMatrix type="matrix" values="0 0 0 0 0.0627451 0 0 0 0 0.0941176 0 0 0 0 0.156863 0 0 0 0.1 0"/>
<feBlend mode="normal" in2="effect1_dropShadow_5_8669" result="effect2_dropShadow_5_8669"/>
<feBlend mode="normal" in="SourceGraphic" in2="effect2_dropShadow_5_8669" result="shape"/>
</filter>
</defs>
</svg>
