<svg width="42" height="30" viewBox="0 0 42 30" fill="none" xmlns="http://www.w3.org/2000/svg">
<g filter="url(#filter0_dd_5_6574)">
<mask id="mask0_5_6574" style="mask-type:alpha" maskUnits="userSpaceOnUse" x="3" y="2" width="36" height="24">
<rect x="3" y="2" width="36" height="24" fill="white"/>
</mask>
<g mask="url(#mask0_5_6574)">
<path fill-rule="evenodd" clip-rule="evenodd" d="M3 2V26H39V2H3Z" fill="#E31D1C"/>
<mask id="mask1_5_6574" style="mask-type:alpha" maskUnits="userSpaceOnUse" x="3" y="2" width="36" height="24">
<path fill-rule="evenodd" clip-rule="evenodd" d="M3 2V26H39V2H3Z" fill="white"/>
</mask>
<g mask="url(#mask1_5_6574)">
<path fill-rule="evenodd" clip-rule="evenodd" d="M3 14V26H39V14H3Z" fill="#2E42A5"/>
</g>
<path fill-rule="evenodd" clip-rule="evenodd" d="M3 0V28L25.5 14L3 0Z" fill="#F7FCFF"/>
<mask id="mask2_5_6574" style="mask-type:alpha" maskUnits="userSpaceOnUse" x="3" y="0" width="23" height="28">
<path fill-rule="evenodd" clip-rule="evenodd" d="M3 0V28L25.5 14L3 0Z" fill="white"/>
</mask>
<g mask="url(#mask2_5_6574)">
<path fill-rule="evenodd" clip-rule="evenodd" d="M12.1415 12.1888C13.7578 12.1888 15.0681 11.2511 15.0681 10.0944C15.0681 8.9377 13.7578 8 12.1415 8C10.5252 8 9.21497 8.9377 9.21497 10.0944C9.21497 11.2511 10.5252 12.1888 12.1415 12.1888Z" fill="#FBCD17"/>
<path fill-rule="evenodd" clip-rule="evenodd" d="M12.3976 8.38538C12.1587 8.38538 11.9889 8.52219 11.9889 8.72813L11.9891 8.75084C11.9763 8.78516 11.9691 8.8234 11.9678 8.86621C11.9645 8.97577 12.0104 9.06716 12.1067 9.15098C12.1126 9.17518 12.1157 9.19523 12.1149 9.20661C12.109 9.18873 12.0858 9.17375 12.0415 9.14522C11.9785 9.10465 11.8731 9.03671 11.7148 8.89414C11.4867 8.68881 11.3146 8.60844 11.1007 8.64038C11.0358 8.65006 10.9723 8.67037 10.8961 8.69751C10.7746 8.73641 10.6627 8.74544 10.4561 8.71039C9.88216 8.613 9.2526 8.70856 8.57104 8.9893L8.80755 9.44295C9.38922 9.20336 9.9024 9.12547 10.3507 9.20152C10.6586 9.25377 10.8724 9.23651 11.0867 9.16793C11.179 9.13707 11.1871 9.13448 11.1938 9.13347C11.187 9.13449 11.1914 9.1382 11.2199 9.16258C11.2391 9.17899 11.2693 9.20478 11.3145 9.24542C11.3788 9.30331 11.446 9.35571 11.5146 9.40337C11.3827 9.43489 11.3895 9.45652 11.4137 9.53328C11.4236 9.56455 11.4363 9.60498 11.4438 9.65896C11.4597 9.77511 11.4343 9.83644 11.4547 9.86672C11.4787 9.90218 11.5656 9.89508 11.8557 9.88359C11.9321 9.88056 12.0354 9.87355 12.1545 9.86354C12.3882 9.84389 12.6527 9.81526 12.8152 9.79158C12.9731 9.76858 13.015 9.76018 13.0812 9.71735L13.0813 9.71734C13.1041 9.69239 13.1237 9.67104 13.14 9.65203C13.6798 9.58153 14.1598 9.53145 14.5869 9.4969C14.74 9.48451 14.8631 9.47601 14.9823 9.46823C14.9964 9.46812 14.9964 9.46812 15.0656 9.45525L15.0656 9.45525C15.0959 9.4438 15.1084 9.43908 15.1126 9.4375L15.1126 9.4376C15.1137 9.43717 15.1145 9.43684 15.1145 9.43683C15.1145 9.43682 15.114 9.43701 15.1126 9.4375L15.2505 9.14721L15.1081 8.9941C15.0232 8.9704 15.0138 8.96778 15.0044 8.96741C15.0032 8.96736 15.002 8.96735 15.0007 8.96734C14.9832 8.96642 14.9832 8.96642 14.9732 8.96628C14.928 8.96603 14.928 8.96603 14.8442 8.96612C14.7507 8.96612 14.6769 8.9591 14.5703 8.94225L14.4711 8.92605C14.0326 8.85453 13.6258 8.85453 12.7632 8.96886C12.747 8.95768 12.7308 8.94665 12.715 8.93612C12.8539 8.91466 13.0231 8.90009 13.2019 8.89162L13.2019 8.89161C13.31 8.88714 13.31 8.88714 13.3704 8.88571L13.3968 8.88516L13.3935 8.38541L13.3508 8.38538H12.3976ZM11.9316 9.83289C11.948 9.82975 11.966 9.82644 11.9854 9.82295L12.0384 9.8129C12.0287 9.81473 12.0179 9.81673 12.006 9.81893C11.9849 9.82284 11.9603 9.82741 11.9316 9.83289Z" fill="#DA610A"/>
<path d="M11.9345 10.5821L12.0066 10.5926L12.0787 10.5821C13.2002 10.4186 13.9596 10.434 14.4126 10.5691C14.9018 10.7149 15.4543 10.6641 16.0487 10.4709C15.8644 11.1971 15.7696 11.8846 15.7696 12.5318C15.7696 13.2668 15.9297 13.8599 16.0732 14.3749C16.0767 14.3876 16.0803 14.4003 16.0838 14.4129C16.2252 14.9202 16.3401 15.3321 16.3401 15.8044C16.3401 16.2098 16.1928 16.4352 15.951 16.5874C15.6705 16.7639 15.2116 16.8704 14.5555 16.8704C13.6501 16.8704 12.8008 17.0921 12.0152 17.5319L12.0066 17.5264L11.998 17.5319C11.2124 17.0921 10.3631 16.8704 9.4577 16.8704C8.80153 16.8704 8.34262 16.7639 8.06214 16.5874C7.82031 16.4352 7.6731 16.2098 7.6731 15.8044C7.6731 15.3321 7.78795 14.9202 7.92936 14.4129C7.93288 14.4003 7.93641 14.3876 7.93996 14.3749C8.08345 13.8599 8.24351 13.2668 8.24351 12.5318C8.24351 11.8846 8.14877 11.1971 7.96443 10.4709C8.5589 10.6641 9.11136 10.7149 9.60056 10.5691C10.0536 10.434 10.813 10.4186 11.9345 10.5821Z" fill="#56C6F5" stroke="#E31D1C"/>
<path fill-rule="evenodd" clip-rule="evenodd" d="M12.8829 12.6242L12.015 11.9385L11.1472 12.6242H11.4044V13.0195L10.0543 13.767V15.5956H9.79724V15.9385L10.0543 15.9385H13.9757L14.2972 15.9385V15.5956H13.9757V13.767L12.5615 12.984V12.6242H12.8829Z" fill="#F7FCFF"/>
<path d="M12.015 11.9385L12.0925 11.8404L12.015 11.7792L11.9375 11.8404L12.015 11.9385ZM12.8829 12.6242V12.7492H13.2427L12.9604 12.5261L12.8829 12.6242ZM11.1472 12.6242L11.0697 12.5261L10.7874 12.7492H11.1472V12.6242ZM11.4044 12.6242H11.5294V12.4992H11.4044V12.6242ZM11.4044 13.0195L11.465 13.1288L11.5294 13.0931V13.0195H11.4044ZM10.0543 13.767L9.99377 13.6577L9.92932 13.6934V13.767H10.0543ZM10.0543 15.5956V15.7206H10.1793V15.5956H10.0543ZM9.79724 15.5956V15.4706H9.67224V15.5956H9.79724ZM9.79724 15.9385H9.67224V16.0635L9.79724 16.0635L9.79724 15.9385ZM10.0543 15.9385L10.0543 16.0635H10.0543V15.9385ZM13.9757 15.9385V16.0635H13.9758L13.9757 15.9385ZM14.2972 15.9385L14.2972 16.0635L14.4222 16.0635V15.9385H14.2972ZM14.2972 15.5956H14.4222V15.4706H14.2972V15.5956ZM13.9757 15.5956H13.8507V15.7206H13.9757V15.5956ZM13.9757 13.767H14.1007V13.6934L14.0363 13.6577L13.9757 13.767ZM12.5615 12.984H12.4365V13.0576L12.501 13.0933L12.5615 12.984ZM12.5615 12.6242V12.4992H12.4365V12.6242H12.5615ZM11.9375 12.0366L12.8054 12.7223L12.9604 12.5261L12.0925 11.8404L11.9375 12.0366ZM11.2247 12.7223L12.0925 12.0366L11.9375 11.8404L11.0697 12.5261L11.2247 12.7223ZM11.4044 12.4992H11.1472V12.7492H11.4044V12.4992ZM11.2794 12.6242V13.0195H11.5294V12.6242H11.2794ZM11.3439 12.9101L9.99377 13.6577L10.1149 13.8764L11.465 13.1288L11.3439 12.9101ZM9.92932 13.767V15.5956H10.1793V13.767H9.92932ZM10.0543 15.4706H9.79724V15.7206H10.0543V15.4706ZM9.67224 15.5956V15.9385H9.92224V15.5956H9.67224ZM9.79724 16.0635L10.0543 16.0635L10.0543 15.8135L9.79724 15.8135L9.79724 16.0635ZM10.0543 16.0635H13.9757V15.8135H10.0543V16.0635ZM13.9758 16.0635L14.2972 16.0635L14.2972 15.8135L13.9757 15.8135L13.9758 16.0635ZM14.4222 15.9385V15.5956H14.1722V15.9385H14.4222ZM14.2972 15.4706H13.9757V15.7206H14.2972V15.4706ZM14.1007 15.5956V13.767H13.8507V15.5956H14.1007ZM14.0363 13.6577L12.6221 12.8746L12.501 13.0933L13.9152 13.8764L14.0363 13.6577ZM12.6865 12.984V12.6242H12.4365V12.984H12.6865ZM12.8829 12.4992H12.5615V12.7492H12.8829V12.4992Z" fill="#3B3B3B"/>
<path d="M11.9458 19.0204C13.1395 19.0204 13.9613 18.9046 14.3844 18.7071C14.4953 18.5395 14.6899 18.4448 14.8969 18.4516C15.8267 18.4822 16.5468 18.134 17.1129 17.3688C17.7245 16.542 17.8474 15.3675 17.4488 13.8259L18.4608 13.6191C18.9176 15.3855 18.7684 16.8109 17.9805 17.876C17.2745 18.8303 16.3119 19.3401 15.1371 19.3747C14.5371 19.7696 13.4856 19.9435 11.9458 19.9435C10.4563 19.9435 9.35185 19.6864 8.64351 19.1402C7.03489 18.8024 6.01264 18.2321 5.61069 17.3867C5.18222 16.4856 5.18222 15.2346 5.5819 13.6232L6.59601 13.8219C6.23839 15.2638 6.23839 16.3358 6.56722 17.0274C6.79669 17.5099 7.46341 17.9038 8.59295 18.1768L9.64236 18.3763L9.59198 18.6118C10.1039 18.8778 10.8864 19.0204 11.9458 19.0204Z" fill="#FBCD17"/>
<path fill-rule="evenodd" clip-rule="evenodd" d="M8.36257 11.1762C8.24663 11.4324 8.38627 11.7236 8.67449 11.8267L8.69235 11.8331L8.66515 11.8833C8.46803 12.2476 8.80536 12.6235 9.20341 12.6013L9.19045 12.6579C9.07498 13.1621 9.72963 13.4142 10.0916 13.1576C10.323 13.1526 10.5504 13.0296 10.6187 12.7725L10.6827 12.532L10.7085 12.5389C11.239 12.6811 11.5978 12.161 11.3638 11.8095C11.4345 11.6952 11.4551 11.5566 11.4087 11.422C11.3177 11.158 11.0031 11.0096 10.7061 11.0905L10.1257 11.2485C10.0483 11.2292 9.96538 11.2245 9.88171 11.2377C9.82563 11.1811 9.75412 11.1349 9.66964 11.1046L9.09437 10.8989C8.80616 10.7959 8.47852 10.92 8.36257 11.1762ZM10.1104 12.3785L10.8202 12.0148L10.6827 12.532L10.1104 12.3785Z" fill="#73BE4A"/>
<path fill-rule="evenodd" clip-rule="evenodd" d="M9.98108 12.476C10.2917 12.476 10.5436 12.2521 10.5436 11.976C10.5436 11.6998 10.2917 11.476 9.98108 11.476C9.67042 11.476 9.41858 11.6998 9.41858 11.976C9.41858 12.2521 9.67042 12.476 9.98108 12.476Z" fill="#FBCD17"/>
<path fill-rule="evenodd" clip-rule="evenodd" d="M14.5212 12.0733C14.512 11.7371 14.47 10.9692 14.278 10.9692C14.085 10.9692 14.0556 11.746 14.0519 12.0792C13.7195 12.1757 13.4692 12.43 13.4692 12.43H15.1247C15.1247 12.43 14.864 12.165 14.5212 12.0733Z" fill="#F7FCFF"/>
<path d="M5.86928 14.5686L6.14636 14.6115C5.92207 15.7575 5.92207 16.5793 6.13871 17.0694C6.39085 17.6398 7.8784 18.4051 8.29921 18.4051V18.6551C7.76997 18.6551 6.17468 17.8344 5.87693 17.1608C5.63688 16.6177 5.63688 15.7561 5.86928 14.5686Z" fill="#73BE4A"/>
<path d="M18.0537 14.5088L17.7764 14.5502C17.9794 15.6255 17.9339 16.4645 17.6455 17.066C17.2979 17.791 15.9555 18.7148 15.6034 18.7148V18.9648C16.0773 18.9648 17.5153 17.9753 17.9042 17.164C18.2169 16.5119 18.2648 15.6271 18.0537 14.5088Z" fill="#73BE4A"/>
<path d="M10.1921 19.4239L10.2451 19.1783C11.1413 19.3311 11.7535 19.4075 12.0742 19.4075C12.3942 19.4075 12.9733 19.3313 13.8044 19.1787L13.8613 19.4235C13.0123 19.5794 12.4189 19.6575 12.0742 19.6575C11.7301 19.6575 11.1053 19.5796 10.1921 19.4239Z" fill="#73BE4A"/>
</g>
</g>
</g>
<defs>
<filter id="filter0_dd_5_6574" x="0" y="0" width="42" height="30" filterUnits="userSpaceOnUse" color-interpolation-filters="sRGB">
<feFlood flood-opacity="0" result="BackgroundImageFix"/>
<feColorMatrix in="SourceAlpha" type="matrix" values="0 0 0 0 0 0 0 0 0 0 0 0 0 0 0 0 0 0 127 0" result="hardAlpha"/>
<feOffset dy="1"/>
<feGaussianBlur stdDeviation="1"/>
<feColorMatrix type="matrix" values="0 0 0 0 0.0627451 0 0 0 0 0.0941176 0 0 0 0 0.156863 0 0 0 0.06 0"/>
<feBlend mode="normal" in2="BackgroundImageFix" result="effect1_dropShadow_5_6574"/>
<feColorMatrix in="SourceAlpha" type="matrix" values="0 0 0 0 0 0 0 0 0 0 0 0 0 0 0 0 0 0 127 0" result="hardAlpha"/>
<feOffset dy="1"/>
<feGaussianBlur stdDeviation="1.5"/>
<feColorMatrix type="matrix" values="0 0 0 0 0.0627451 0 0 0 0 0.0941176 0 0 0 0 0.156863 0 0 0 0.1 0"/>
<feBlend mode="normal" in2="effect1_dropShadow_5_6574" result="effect2_dropShadow_5_6574"/>
<feBlend mode="normal" in="SourceGraphic" in2="effect2_dropShadow_5_6574" result="shape"/>
</filter>
</defs>
</svg>
