<svg width="42" height="30" viewBox="0 0 42 30" fill="none" xmlns="http://www.w3.org/2000/svg">
<g filter="url(#filter0_dd_5_9802)">
<mask id="mask0_5_9802" style="mask-type:alpha" maskUnits="userSpaceOnUse" x="3" y="2" width="36" height="24">
<rect x="3" y="2" width="36" height="24" fill="white"/>
</mask>
<g mask="url(#mask0_5_9802)">
<path fill-rule="evenodd" clip-rule="evenodd" d="M3 2H39V26H3V2Z" fill="#C51918"/>
<path fill-rule="evenodd" clip-rule="evenodd" d="M9.75 8H32.25V20H9.75V8Z" fill="#FECA00"/>
<mask id="mask1_5_9802" style="mask-type:alpha" maskUnits="userSpaceOnUse" x="9" y="8" width="24" height="12">
<path fill-rule="evenodd" clip-rule="evenodd" d="M9.75 8H32.25V20H9.75V8Z" fill="white"/>
</mask>
<g mask="url(#mask1_5_9802)">
<path fill-rule="evenodd" clip-rule="evenodd" d="M9.75 8L21 14L9.75 20V8Z" fill="#23875F"/>
<path fill-rule="evenodd" clip-rule="evenodd" d="M32.25 8L21 14L32.25 20V8Z" fill="#23875F"/>
<mask id="mask2_5_9802" style="mask-type:alpha" maskUnits="userSpaceOnUse" x="21" y="8" width="12" height="12">
<path fill-rule="evenodd" clip-rule="evenodd" d="M32.25 8L21 14L32.25 20V8Z" fill="white"/>
</mask>
<g mask="url(#mask2_5_9802)">
</g>
<path fill-rule="evenodd" clip-rule="evenodd" d="M21 18C23.4853 18 25.5 16.2091 25.5 14C25.5 11.7909 23.4853 10 21 10C18.5147 10 16.5 11.7909 16.5 14C16.5 16.2091 18.5147 18 21 18Z" fill="#C51918"/>
<path fill-rule="evenodd" clip-rule="evenodd" d="M20.9206 15.3133L18.5909 16.7497L19.3353 14.2894L17.625 12.7178L19.9408 12.6328L20.9206 10.2L21.9004 12.6328H24.2123L22.506 14.2894L23.3606 16.6045L20.9206 15.3133Z" fill="#FECA00"/>
</g>
<path fill-rule="evenodd" clip-rule="evenodd" d="M12.8737 6.44207L14.1469 5.74027L15.4803 6.37112L15.0133 5.24005L15.9458 4.43068H14.6823L14.1469 3.24207L13.6114 4.43068L12.3458 4.4722L13.2805 5.24005L12.8737 6.44207ZM19.6237 6.44207L20.8969 5.74027L22.2303 6.37112L21.7633 5.24005L22.6958 4.43068H21.4323L20.8969 3.24207L20.3614 4.43068L19.0958 4.4722L20.0305 5.24005L19.6237 6.44207ZM27.6469 5.74027L26.3737 6.44207L26.7805 5.24005L25.8458 4.4722L27.1114 4.43068L27.6469 3.24207L28.1823 4.43068H29.4458L28.5133 5.24005L28.9803 6.37112L27.6469 5.74027ZM12.8726 24.1672L14.1458 23.4654L15.4792 24.0962L15.0122 22.9652L15.9447 22.1558H14.6813L14.1458 20.9672L13.6103 22.1558L12.3447 22.1973L13.2794 22.9652L12.8726 24.1672ZM20.8958 23.4654L19.6226 24.1672L20.0294 22.9652L19.0947 22.1973L20.3603 22.1558L20.8958 20.9672L21.4312 22.1558H22.6947L21.7622 22.9652L22.2292 24.0962L20.8958 23.4654ZM26.3726 24.1672L27.6458 23.4654L28.9792 24.0962L28.5122 22.9652L29.4447 22.1558H28.1812L27.6458 20.9672L27.1103 22.1558L25.8447 22.1973L26.7794 22.9652L26.3726 24.1672Z" fill="#FECA00"/>
<path fill-rule="evenodd" clip-rule="evenodd" d="M12.714 14.772C12.714 14.772 13.3199 15.2514 13.6498 15.4147C13.7636 15.0314 13.5098 14.1629 13.5098 14.1629C13.4385 13.9553 12.6572 13.5831 12.6572 13.5831C12.6572 13.5831 12.4378 14.2385 12.714 14.772Z" fill="#C51918"/>
<path fill-rule="evenodd" clip-rule="evenodd" d="M13.3453 15.9302C13.3453 15.9302 11.7891 15.2841 11.631 14.3703C11.4729 13.4565 11.8082 11.9998 11.8082 11.9998C11.8082 11.9998 14.3352 12.5109 14.5071 13.6061C14.6791 14.7013 14.1083 15.3894 14.1083 15.3894C14.1083 15.3894 13.5238 14.0543 12.9722 13.9062C12.9722 13.9062 12.9722 15.2293 13.3453 15.9302Z" fill="#FECA00"/>
</g>
</g>
<defs>
<filter id="filter0_dd_5_9802" x="0" y="0" width="42" height="30" filterUnits="userSpaceOnUse" color-interpolation-filters="sRGB">
<feFlood flood-opacity="0" result="BackgroundImageFix"/>
<feColorMatrix in="SourceAlpha" type="matrix" values="0 0 0 0 0 0 0 0 0 0 0 0 0 0 0 0 0 0 127 0" result="hardAlpha"/>
<feOffset dy="1"/>
<feGaussianBlur stdDeviation="1"/>
<feColorMatrix type="matrix" values="0 0 0 0 0.0627451 0 0 0 0 0.0941176 0 0 0 0 0.156863 0 0 0 0.06 0"/>
<feBlend mode="normal" in2="BackgroundImageFix" result="effect1_dropShadow_5_9802"/>
<feColorMatrix in="SourceAlpha" type="matrix" values="0 0 0 0 0 0 0 0 0 0 0 0 0 0 0 0 0 0 127 0" result="hardAlpha"/>
<feOffset dy="1"/>
<feGaussianBlur stdDeviation="1.5"/>
<feColorMatrix type="matrix" values="0 0 0 0 0.0627451 0 0 0 0 0.0941176 0 0 0 0 0.156863 0 0 0 0.1 0"/>
<feBlend mode="normal" in2="effect1_dropShadow_5_9802" result="effect2_dropShadow_5_9802"/>
<feBlend mode="normal" in="SourceGraphic" in2="effect2_dropShadow_5_9802" result="shape"/>
</filter>
</defs>
</svg>
