<svg width="42" height="30" viewBox="0 0 42 30" fill="none" xmlns="http://www.w3.org/2000/svg">
<g filter="url(#filter0_dd_5_9412)">
<mask id="mask0_5_9412" style="mask-type:alpha" maskUnits="userSpaceOnUse" x="3" y="2" width="36" height="24">
<rect x="3" y="2" width="36" height="24" fill="white"/>
</mask>
<g mask="url(#mask0_5_9412)">
<path fill-rule="evenodd" clip-rule="evenodd" d="M3 2V26H39V2H3Z" fill="#EA1A1A"/>
<mask id="mask1_5_9412" style="mask-type:alpha" maskUnits="userSpaceOnUse" x="3" y="2" width="36" height="24">
<path fill-rule="evenodd" clip-rule="evenodd" d="M3 2V26H39V2H3Z" fill="white"/>
</mask>
<g mask="url(#mask1_5_9412)">
<path fill-rule="evenodd" clip-rule="evenodd" d="M20.8531 13.5748C20.8531 13.5748 14.3397 8.41151 22.1122 5.40314C22.1122 5.40314 24.3726 7.61975 22.6768 10.1082C22.1205 10.9244 21.6513 11.5072 21.2987 11.9452C20.5763 12.8425 20.3433 13.1319 20.8531 13.5748ZM11.2403 9.86752C10.7929 17.3924 18.9007 14.5221 18.9007 14.5221C18.2274 14.7294 18.0404 14.4147 17.4605 13.4395L17.4605 13.4395C17.1774 12.9633 16.8006 12.3296 16.2278 11.5223C14.4819 9.06136 11.2403 9.86752 11.2403 9.86752ZM23.5178 13.8271C23.5178 13.8271 31.8787 16.052 26.2717 21.7036C26.2717 21.7036 23.1675 20.5464 23.5178 17.654C23.6328 16.7056 23.78 16.0012 23.8907 15.4717L23.8907 15.4717C24.1175 14.3865 24.1906 14.0364 23.5178 13.8271ZM21.3203 15.5617C21.3203 15.5617 22.8191 23.204 14.6253 21.2727C14.6253 21.2727 14.4022 18.2873 17.4695 17.2728C18.4757 16.94 19.2505 16.742 19.8328 16.5933L19.8328 16.5933C21.0258 16.2885 21.4105 16.1902 21.3203 15.5617ZM31.6634 12.2753C26.5385 6.27314 22.433 13.1185 22.433 13.1185C22.7966 12.5737 23.168 12.7065 24.319 13.1182C24.8812 13.3193 25.6294 13.587 26.6535 13.8747C29.7742 14.7514 31.6634 12.2753 31.6634 12.2753Z" fill="white"/>
<path d="M14.1941 12.3421L14.6689 12.074C15.711 13.5319 17.0635 14.2492 18.7514 14.2492V14.7492C16.8631 14.7492 15.3357 13.9391 14.1941 12.3421Z" fill="#EA1A1A"/>
<path fill-rule="evenodd" clip-rule="evenodd" d="M27.4688 12.75C27.9347 12.75 28.3125 12.4142 28.3125 12C28.3125 11.5858 27.9347 11.25 27.4688 11.25C27.0028 11.25 26.625 11.5858 26.625 12C26.625 12.4142 27.0028 12.75 27.4688 12.75Z" fill="#EA1A1A"/>
<path fill-rule="evenodd" clip-rule="evenodd" d="M25.4534 17.7281C25.9194 17.7281 26.2971 17.3923 26.2971 16.9781C26.2971 16.5639 25.9194 16.2281 25.4534 16.2281C24.9874 16.2281 24.6096 16.5639 24.6096 16.9781C24.6096 17.3923 24.9874 17.7281 25.4534 17.7281Z" fill="#EA1A1A"/>
<path fill-rule="evenodd" clip-rule="evenodd" d="M18.7034 19.7281C19.1694 19.7281 19.5471 19.3923 19.5471 18.9781C19.5471 18.5639 19.1694 18.2281 18.7034 18.2281C18.2374 18.2281 17.8596 18.5639 17.8596 18.9781C17.8596 19.3923 18.2374 19.7281 18.7034 19.7281Z" fill="#EA1A1A"/>
<path fill-rule="evenodd" clip-rule="evenodd" d="M14.2034 12.7281C14.6694 12.7281 15.0471 12.3923 15.0471 11.9781C15.0471 11.5639 14.6694 11.2281 14.2034 11.2281C13.7374 11.2281 13.3596 11.5639 13.3596 11.9781C13.3596 12.3923 13.7374 12.7281 14.2034 12.7281Z" fill="#EA1A1A"/>
<path fill-rule="evenodd" clip-rule="evenodd" d="M20.9534 9.72809C21.4194 9.72809 21.7971 9.3923 21.7971 8.97809C21.7971 8.56387 21.4194 8.22809 20.9534 8.22809C20.4874 8.22809 20.1096 8.56387 20.1096 8.97809C20.1096 9.3923 20.4874 9.72809 20.9534 9.72809Z" fill="#EA1A1A"/>
<path d="M20.5889 9.05279L21.0834 9.29106C20.1467 10.8271 20.0806 12.2438 20.8738 13.5698L20.3772 13.8046C19.4915 12.3239 19.5658 10.7305 20.5889 9.05279Z" fill="#EA1A1A"/>
<path d="M27.7668 11.6858L27.6825 12.1802C25.4823 11.8837 23.8353 12.2963 22.7076 13.4096L22.2895 13.075C23.5547 11.826 25.3918 11.3658 27.7668 11.6858Z" fill="#EA1A1A"/>
<path d="M25.8952 17.3649L25.3438 17.4635C24.9047 15.5243 23.9052 14.2897 22.3426 13.7285L22.5533 13.2649C24.3064 13.8945 25.4213 15.2716 25.8952 17.3649Z" fill="#EA1A1A"/>
<path d="M18.6447 19.15L18.3518 18.7232C20.2518 17.6931 21.215 16.436 21.2739 14.9388L21.836 14.9563C21.77 16.636 20.6955 18.0382 18.6447 19.15Z" fill="#EA1A1A"/>
</g>
</g>
</g>
<defs>
<filter id="filter0_dd_5_9412" x="0" y="0" width="42" height="30" filterUnits="userSpaceOnUse" color-interpolation-filters="sRGB">
<feFlood flood-opacity="0" result="BackgroundImageFix"/>
<feColorMatrix in="SourceAlpha" type="matrix" values="0 0 0 0 0 0 0 0 0 0 0 0 0 0 0 0 0 0 127 0" result="hardAlpha"/>
<feOffset dy="1"/>
<feGaussianBlur stdDeviation="1"/>
<feColorMatrix type="matrix" values="0 0 0 0 0.0627451 0 0 0 0 0.0941176 0 0 0 0 0.156863 0 0 0 0.06 0"/>
<feBlend mode="normal" in2="BackgroundImageFix" result="effect1_dropShadow_5_9412"/>
<feColorMatrix in="SourceAlpha" type="matrix" values="0 0 0 0 0 0 0 0 0 0 0 0 0 0 0 0 0 0 127 0" result="hardAlpha"/>
<feOffset dy="1"/>
<feGaussianBlur stdDeviation="1.5"/>
<feColorMatrix type="matrix" values="0 0 0 0 0.0627451 0 0 0 0 0.0941176 0 0 0 0 0.156863 0 0 0 0.1 0"/>
<feBlend mode="normal" in2="effect1_dropShadow_5_9412" result="effect2_dropShadow_5_9412"/>
<feBlend mode="normal" in="SourceGraphic" in2="effect2_dropShadow_5_9412" result="shape"/>
</filter>
</defs>
</svg>
