<svg width="42" height="30" viewBox="0 0 42 30" fill="none" xmlns="http://www.w3.org/2000/svg">
<g filter="url(#filter0_dd_5_11404)">
<mask id="mask0_5_11404" style="mask-type:alpha" maskUnits="userSpaceOnUse" x="3" y="2" width="36" height="24">
<rect x="3" y="2" width="36" height="24" fill="white"/>
</mask>
<g mask="url(#mask0_5_11404)">
<path fill-rule="evenodd" clip-rule="evenodd" d="M3 2H39V26H3V2Z" fill="#F7FCFF"/>
<path d="M3 1H2V2V13.2792L-0.162278 14L2 14.7208V26V27H3H39L39.3162 25.0513L6.16228 14L39.3162 2.94868L39 1H3Z" fill="#3547A0" stroke="#E31D1C" stroke-width="2"/>
<path fill-rule="evenodd" clip-rule="evenodd" d="M35.6501 7.11005C35.6501 7.11005 33.3885 7.65251 32.5707 7.8497C32.4604 7.8763 32.2499 7.92388 32.2649 7.65688C31.7468 7.95249 30.9116 8.25127 30.5692 8.33606C30.3969 8.37872 30.4429 8.11372 30.3694 8.03787C30.2203 8.23324 29.8371 8.51947 29.7284 8.54743C28.6503 8.82472 27.9345 9.02628 27.581 9.15212C27.581 9.15212 27.0758 9.58406 27.0758 9.92651C27.0758 10.269 27.0219 10.5614 26.6742 10.5614C26.3264 10.5614 25.5243 11.1835 25.8181 11.534C26.1119 11.8846 27.0758 11.6979 27.0758 11.534C27.0758 11.3702 27.7628 11.1651 27.7628 11.3496C27.7628 11.534 27.581 11.8676 27.581 11.8676H28.3396L27.7628 12.1328H28.3396L27.7628 12.4469H28.8427L28.1526 12.7206H28.6313L28.3396 13.0807H29.0876C29.0876 13.0807 29.3788 13.3424 29.6532 13.4854C29.9275 13.6285 30.5358 14.8457 30.2317 15.317C29.9275 15.7883 30.3007 15.8584 30.3694 15.6514C30.4381 15.4443 30.5803 15.1476 30.7024 15.1476C30.8245 15.1476 31.0587 15.1476 31.0587 15.1476L31.2243 15.5348L31.6173 15.9081C31.6173 15.9081 31.6452 15.5836 31.719 15.5348C31.719 15.5348 32.0258 15.5626 32.1746 15.5305C32.1746 15.5305 32.1085 15.0586 32.1137 14.9952C32.1137 14.9952 32.5894 15.1387 32.7932 15.1354C32.7932 15.1354 32.4871 14.71 32.4871 14.5647C32.4871 14.5647 33.0556 14.5904 33.0556 14.8054L32.9927 14.2689C32.9927 14.2689 33.5309 14.0654 33.5497 13.8941L33.1971 13.8558C33.1971 13.8558 33.3802 13.6491 33.3632 13.6083L32.8421 13.5495C32.8421 13.5495 33.4115 13.3734 33.4544 13.2621C33.4544 13.2621 33.3267 13.0836 33.2096 13.0135L32.8119 12.7845C32.8119 12.7845 33.7012 12.7896 33.8501 12.7896C33.8501 12.7896 34.0826 12.7153 33.9036 12.5882C33.9036 12.5882 33.7285 12.4947 33.7524 12.4043C33.7524 12.4043 33.8715 12.201 33.8442 12.1656C33.8442 12.1656 33.9712 12.3153 33.9712 11.9454C33.9712 11.9454 33.9745 11.5737 33.8944 11.5558C33.8944 11.5558 34.1285 11.4028 34.0365 11.3051C33.9444 11.2074 32.9588 10.9473 32.7229 10.9473L34.5288 9.92989C34.5288 9.92989 34.6539 9.50966 34.8372 9.25848C34.8372 9.25848 35.3171 8.87555 35.4138 8.57549C35.5105 8.27543 35.7828 7.53536 35.7828 7.53536V7.19668L35.6501 7.11005Z" fill="#9C3900"/>
<path fill-rule="evenodd" clip-rule="evenodd" d="M32.4871 14.5647C32.5105 14.5658 32.5332 14.5671 32.5599 14.569C32.8602 14.5906 33.024 14.6576 33.0515 14.7701L32.9927 14.2689C33.3515 14.1332 33.5371 14.0083 33.5497 13.8941L33.2808 13.8649L33.2546 13.8948L33.2382 13.8602L33.1971 13.8558L33.2223 13.8269L33.206 13.7926L33.2478 13.7971C33.3343 13.6943 33.3728 13.6314 33.3632 13.6083L32.9988 13.5672C32.9572 13.581 32.9131 13.5951 32.8664 13.6095C32.8664 13.6095 32.8531 13.5461 32.8585 13.5445L32.8514 13.4864L32.9897 13.502C33.2748 13.406 33.4297 13.326 33.4544 13.2621C33.3692 13.1431 33.2876 13.0603 33.2096 13.0135L32.9235 12.8488L32.8114 12.8481C32.8114 12.8481 32.8263 12.7845 32.8334 12.7846L32.8519 12.7313L32.9455 12.7852C33.457 12.7881 33.7586 12.7896 33.8501 12.7896C34.0051 12.7401 34.0229 12.673 33.9036 12.5882C33.7869 12.5259 33.7365 12.4646 33.7524 12.4043C33.7908 12.3388 33.8177 12.2864 33.8333 12.2471C33.8167 12.2357 33.8006 12.221 33.7858 12.2036L33.8442 12.1656L33.9046 12.1301C33.92 12.1501 33.9253 12.1743 33.9209 12.2052C33.9545 12.1872 33.9712 12.1006 33.9712 11.9454C33.9727 11.7798 33.9617 11.6668 33.938 11.6068L33.8944 11.5558L33.9124 11.4941C33.9285 11.4977 33.9427 11.5039 33.9553 11.5127C34.0619 11.43 34.0889 11.3608 34.0365 11.3051C33.9555 11.2192 33.184 11.0078 32.8384 10.958L32.7623 11.0008C32.7623 11.0008 32.7295 10.9473 32.7409 10.9372L32.7229 10.8837C32.7493 10.8837 32.783 10.8863 32.8224 10.8913L34.5288 9.92989C34.6122 9.64974 34.715 9.42593 34.8372 9.25848C35.1571 9.00319 35.3493 8.77553 35.4138 8.57549C35.4782 8.37545 35.6013 8.02874 35.7828 7.53536V7.19668L35.6501 7.11005C34.1424 7.47169 33.1159 7.71824 32.5707 7.8497C32.4604 7.8763 32.2499 7.92388 32.2649 7.65688C31.7468 7.95249 30.9116 8.25127 30.5692 8.33606C30.459 8.36335 30.4381 8.26473 30.4181 8.17027C30.4069 8.11707 30.3959 8.06519 30.3694 8.03787C30.2203 8.23324 29.8371 8.51947 29.7284 8.54743C28.6503 8.82472 27.9345 9.02628 27.581 9.15212C27.2442 9.44008 27.0758 9.69821 27.0758 9.92651C27.0758 10.269 27.0219 10.5614 26.6742 10.5614C26.3264 10.5614 25.5243 11.1835 25.8181 11.534C26.1119 11.8846 27.0758 11.6979 27.0758 11.534C27.0758 11.3702 27.7628 11.1651 27.7628 11.3496C27.7628 11.4725 27.7022 11.6452 27.581 11.8676H28.1832L28.3057 11.8113L28.3237 11.875L28.3396 11.9313H28.2011L27.7628 12.1328H28.2019L28.3011 12.0788L28.3219 12.1424L28.3396 12.1965H28.2227L27.7628 12.4469H28.6664L28.8127 12.3889L28.8284 12.4526L28.8427 12.5106H28.6822L28.1526 12.7206H28.5421L28.5719 12.6838L28.5937 12.7206H28.6313L28.6096 12.7474L28.6313 12.7842H28.5797L28.3396 13.0807H29.0876C29.2817 13.2552 29.4703 13.3901 29.6532 13.4854C29.9275 13.6285 30.5358 14.8457 30.2317 15.317C29.9275 15.7883 30.3007 15.8584 30.3694 15.6514C30.4381 15.4443 30.5803 15.1476 30.7024 15.1476H31.0587L31.2243 15.5348L31.6173 15.9081C31.6173 15.9081 31.6452 15.5836 31.719 15.5348C31.9235 15.5533 32.0754 15.5519 32.1746 15.5305C32.1714 15.5082 32.1684 15.4865 32.1655 15.4656C32.139 15.2743 32.1202 15.1395 32.09 15.0554L32.1137 14.9952C32.1137 14.9952 32.1859 15.0093 32.1862 15.0166C32.4656 15.0978 32.6679 15.1374 32.7932 15.1354C32.6273 14.9049 32.5289 14.7361 32.4949 14.6186C32.4897 14.5982 32.4871 14.5803 32.4871 14.5647ZM32.8178 13.4895L32.5301 13.5785L33.2652 13.6615C33.2392 13.6997 33.1972 13.7517 33.1395 13.8168L33.0612 13.9052L33.4473 13.9471C33.3845 14.0211 33.224 14.1121 32.9638 14.2105L32.9148 14.229L32.9566 14.5851C32.8491 14.5375 32.6925 14.5103 32.4908 14.5012L32.4142 14.4977V14.5647C32.4142 14.6638 32.4944 14.8259 32.6554 15.061C32.5282 15.0426 32.3549 15.0006 32.1374 14.935L32.0479 14.908L32.0411 14.9906C32.0373 15.0362 32.0547 15.1941 32.094 15.4784C32.0052 15.4877 31.8822 15.4856 31.7264 15.4715L31.675 15.4841C31.6236 15.5181 31.5964 15.5911 31.5729 15.7073C31.5693 15.7253 31.5659 15.7437 31.5628 15.7624L31.2874 15.5009L31.1092 15.0839H30.7023C30.5454 15.0839 30.4014 15.3265 30.2994 15.6337C30.2803 15.6915 30.2325 15.7096 30.2095 15.6914C30.1638 15.6552 30.1755 15.5335 30.295 15.3483C30.446 15.1143 30.4052 14.7123 30.2282 14.2576C30.0764 13.8676 29.8492 13.5136 29.6904 13.4308C29.5133 13.3385 29.3297 13.2071 29.1397 13.0363L29.1183 13.0171H28.4803L28.772 12.6569H28.4894L29.1795 12.3833H28.0174L28.5941 12.0692H28.0577L28.6344 11.804H27.6943C27.7882 11.6166 27.8356 11.4658 27.8356 11.3496C27.8356 11.2659 27.7632 11.2207 27.6608 11.2141C27.5878 11.2094 27.4942 11.2231 27.3968 11.2507C27.1766 11.3131 27.003 11.4192 27.003 11.5341C27.003 11.5388 26.9655 11.5668 26.8922 11.5938C26.8018 11.6272 26.6784 11.6528 26.5501 11.6636C26.2482 11.689 25.9901 11.6317 25.8768 11.4964C25.7695 11.3685 25.8431 11.1671 26.0593 10.9591C26.2566 10.7695 26.527 10.6251 26.6741 10.6251C26.8678 10.6251 26.9998 10.545 27.0722 10.3976C27.1281 10.2837 27.1485 10.1366 27.1485 9.92654C27.1485 9.72095 27.3043 9.47995 27.6216 9.20642C27.9768 9.08133 28.6865 8.88178 29.7489 8.60853C29.8659 8.57842 30.1651 8.35553 30.3485 8.19102C30.3638 8.26322 30.3752 8.29971 30.3997 8.33498C30.44 8.39321 30.5074 8.41753 30.589 8.39734C30.9933 8.29723 31.7296 8.01675 32.2006 7.76732C32.2201 7.84899 32.2703 7.90203 32.3485 7.92402C32.4197 7.94405 32.4841 7.93664 32.59 7.9111C33.131 7.78065 34.1461 7.53684 35.635 7.17969L35.71 7.22863V7.52539C35.5301 8.01442 35.408 8.35854 35.3437 8.55824C35.2836 8.74468 35.0989 8.96347 34.7758 9.22425C34.6527 9.39303 34.5495 9.61481 34.4656 9.88978L32.4755 11.011H32.7229C32.9481 11.011 33.9081 11.269 33.9803 11.3456C34.0057 11.3726 33.9779 11.4217 33.8508 11.5049L33.7289 11.5846L33.8638 11.6148C33.8702 11.6263 33.8766 11.646 33.8819 11.673C33.8938 11.7335 33.8995 11.8245 33.8984 11.945C33.8984 12.0405 33.8916 12.1074 33.881 12.1411C33.881 12.1411 33.7806 12.1878 33.7764 12.1875L33.7764 12.1871L33.7763 12.1875L33.7762 12.1874C33.7753 12.195 33.7719 12.207 33.7659 12.2227C33.7519 12.259 33.7258 12.3101 33.6815 12.39C33.6568 12.4831 33.7238 12.5658 33.8614 12.6403C33.9281 12.688 33.9277 12.6965 33.8371 12.7259C33.7232 12.7258 33.3815 12.7241 32.8123 12.7208L32.5665 12.7194L33.1695 13.0667C33.2299 13.1029 33.2968 13.1682 33.3678 13.2621C33.3461 13.2804 33.3052 13.3055 33.2454 13.3335C33.1472 13.3797 33.0044 13.4318 32.8178 13.4895ZM33.7763 12.1875L33.7763 12.1879L33.7767 12.1896L33.7764 12.1875L33.7763 12.1875ZM33.0515 14.7701L33.0645 14.8701C33.0645 14.8354 33.0602 14.8021 33.0515 14.7701Z" fill="#212121"/>
<path fill-rule="evenodd" clip-rule="evenodd" d="M33.8326 12.7921C33.8326 12.7921 35.9798 13.0461 36.1096 13.0461C36.2395 13.0461 36.78 12.9239 36.5949 12.1552C36.4098 11.3864 36.4851 10.9213 35.9553 10.9213C35.4255 10.9213 34.873 11.1259 34.6742 11.1259C34.4754 11.1259 34.6677 11.1259 33.8326 11.1259C32.9976 11.1259 28.0232 11.1004 27.665 11.455C27.3068 11.8097 26.2994 12.3099 25.8328 12.4863C25.3662 12.6628 25.2465 12.5395 25.0368 13.0461C24.827 13.5528 24.6709 13.588 24.6709 13.588L25.0368 13.9507H26.1241C26.1241 13.9507 26.8728 13.1157 28.427 13.0461C29.9813 12.9765 33.8326 12.7921 33.8326 12.7921Z" fill="white"/>
<path fill-rule="evenodd" clip-rule="evenodd" d="M28.427 13.0461C29.4632 12.9997 31.2651 12.915 33.8326 12.7921C35.264 12.9614 36.023 13.0461 36.1096 13.0461C36.2395 13.0461 36.78 12.9239 36.5949 12.1552C36.5522 11.9781 36.5234 11.8171 36.4978 11.6742C36.4124 11.1968 36.3631 10.9213 35.9553 10.9213C35.6268 10.9213 35.2895 11 35.0332 11.0598C34.8763 11.0964 34.7497 11.1259 34.6742 11.1259H33.8326C33.7896 11.1259 33.7356 11.1259 33.6718 11.1258C32.4973 11.1243 28.0048 11.1187 27.665 11.455C27.3068 11.8097 26.2994 12.3099 25.8328 12.4863C25.7136 12.5314 25.617 12.5569 25.5358 12.5784C25.2991 12.6409 25.1929 12.6689 25.0368 13.0461C24.8969 13.3839 24.7749 13.5645 24.6709 13.588L25.0368 13.9507H26.1241C26.6232 13.3941 27.3909 13.0925 28.427 13.0461ZM26.0717 13.8553H25.086L24.8334 13.6048C24.9351 13.5118 25.0319 13.3382 25.1394 13.0787C25.1804 12.9796 25.2173 12.9067 25.2531 12.8531C25.3183 12.7554 25.3699 12.724 25.508 12.6857C25.5109 12.6849 25.5218 12.682 25.5368 12.678C25.5747 12.6679 25.6387 12.6508 25.6661 12.643C25.7384 12.6225 25.8052 12.6008 25.8761 12.574C26.49 12.3419 27.4235 11.8384 27.7468 11.5183C27.8075 11.4583 28.1782 11.3901 28.7607 11.3415C29.2867 11.2975 29.979 11.2667 30.8009 11.2472C31.7166 11.2253 32.5635 11.2199 33.6279 11.2212C33.6225 11.2212 33.7184 11.2214 33.7417 11.2214L33.8326 11.2214H34.6742C34.7313 11.2214 34.8021 11.2102 34.9101 11.1866C34.937 11.1808 35.0133 11.1632 35.0845 11.1467C35.1412 11.1336 35.1947 11.1213 35.2176 11.1162C35.4722 11.0594 35.6715 11.0273 35.8647 11.0189C35.8955 11.0175 35.9257 11.0168 35.9553 11.0168C36.2108 11.0168 36.285 11.1235 36.3672 11.5636C36.3702 11.5793 36.3781 11.6232 36.387 11.6727C36.3988 11.7378 36.4123 11.8126 36.4183 11.8449C36.441 11.9655 36.4627 12.0696 36.488 12.1749C36.5638 12.4894 36.5171 12.6988 36.3886 12.8257C36.3051 12.9081 36.1855 12.9507 36.1096 12.9507C36.0311 12.9507 35.2591 12.8645 33.8267 12.6968C31.2592 12.8197 29.4574 12.9044 28.4214 12.9508C27.3783 12.9975 26.5923 13.2985 26.0717 13.8553Z" fill="#4D4D4D"/>
<path fill-rule="evenodd" clip-rule="evenodd" d="M24.9452 13.3993C24.9452 13.3993 24.1263 13.8662 24.4269 14.1799C24.7276 14.4937 24.7573 14.5335 24.8173 14.5335C24.8173 14.5335 24.8333 14.1975 24.9303 14.1975C25.0273 14.1975 25.7954 14.5238 26.0738 13.9723C26.3522 13.4209 24.9452 13.3993 24.9452 13.3993Z" fill="#FFC221"/>
<path fill-rule="evenodd" clip-rule="evenodd" d="M23.1624 14.9209L25.0473 14.6105L25.7703 15.3063L25.9789 14.6836L26.4971 14.7966V15.111H26.6885V15.5423L28.0439 15.7942L28.2139 15.3809C28.2139 15.3809 28.6553 16.0284 29.3333 15.9962C30.0113 15.9639 30.1322 16.1346 30.2514 15.6562C30.3706 15.1778 30.7031 14.9209 30.7031 14.9209L31.4942 15.1577C31.4942 15.1577 30.6251 16.1066 31.0406 16.4048L34.1386 17.042L34.0162 17.3755H33.6606L33.7566 17.6628L30.3711 17.4549C30.3711 17.4549 29.9938 17.8798 29.9938 17.7713C29.9938 17.6628 29.9733 17.6628 29.8066 17.6628C29.6399 17.6628 29.5535 17.4549 29.5535 17.4549L29.3333 17.5303C29.3333 17.5303 29.3665 17.5343 29.0896 17.4549C28.8127 17.3755 28.6505 17.3755 28.6505 17.3755L27.5069 17.3006V17.4549C27.5069 17.4549 27.2041 17.4684 27.3092 17.5303C27.4144 17.5922 29.5535 17.6628 29.5535 17.6628L29.4231 17.8764C29.4231 17.8764 30.4807 17.8798 30.7031 17.7713C30.9254 17.6628 30.7824 18.0117 30.7824 18.0117H31.8329C31.8329 18.0117 31.5724 18.2309 31.2384 18.2309C30.9044 18.2309 32.1972 18.5954 32.1972 18.5954C32.1972 18.5954 31.4755 18.7944 31.1413 18.6628C30.8071 18.5312 31.2831 18.9173 31.4942 19.0148C31.7052 19.1123 30.7518 19.1036 30.3711 18.7273C30.3711 18.7273 30.4907 19.0061 30.3711 19.0858C30.3711 19.0858 29.704 18.3872 29.3708 18.3872C29.0376 18.3872 29.4231 18.8478 29.4231 18.8478C29.4231 18.8478 29.2328 18.607 29.0203 18.7048C28.8078 18.8026 28.6505 18.9134 28.6505 18.9134C28.6505 18.9134 28.5112 18.4867 27.775 18.3102C27.0389 18.1338 27.2859 18.069 26.6885 18.0117C26.091 17.9545 26.0609 17.6628 25.9789 17.6628C25.8968 17.6628 25.2649 17.1714 25.2649 17.1714C25.2649 17.1714 25.1244 16.7104 25.4538 16.7104C25.7833 16.7104 26.3058 16.5725 26.4971 16.7104C26.6885 16.8482 26.7693 16.7104 26.7693 16.7104H27.106L27.5884 17.042H28.5456C28.5456 17.042 28.7291 16.7901 29.0203 16.7104C29.3116 16.6306 29.0203 16.4048 29.0203 16.4048C29.0203 16.4048 28.3253 16.44 28.0439 16.5357C27.7624 16.6314 27.9428 16.0725 27.9428 16.0725L26.6885 15.87L26.4971 16.0725L26.082 16.1836V16.4048L25.6443 16.3193L25.7703 15.6562L24.7461 16.0725L23.1624 14.9209Z" fill="#FFC221"/>
<path fill-rule="evenodd" clip-rule="evenodd" d="M29.4619 17.8129L29.5535 17.6628C28.253 17.6199 27.5164 17.5793 27.3428 17.5411C27.3265 17.5374 27.3153 17.5338 27.3092 17.5303C27.2041 17.4684 27.5069 17.4549 27.5069 17.4549V17.3596V17.3006L27.5797 17.3053L28.6505 17.3755C28.7586 17.3755 28.905 17.402 29.0896 17.4549C29.168 17.4774 29.2278 17.4949 29.2689 17.5073C29.2716 17.5017 29.2762 17.4961 29.2845 17.486C29.3039 17.475 29.3119 17.4705 29.3204 17.4686C29.3264 17.4673 29.3327 17.4673 29.3433 17.4672C29.3433 17.4672 29.3379 17.5308 29.3333 17.5303C29.3333 17.5303 29.4853 17.4772 29.4873 17.4776L29.5535 17.4549C29.58 17.5187 29.6122 17.5679 29.6501 17.6023L29.6652 17.615C29.7062 17.6469 29.7533 17.6628 29.8066 17.6628C29.9733 17.6628 29.9938 17.6628 29.9938 17.7713C29.9938 17.8436 30.1196 17.7382 30.3711 17.4549L33.7566 17.6628L33.6606 17.4392L33.6759 17.4213L33.6606 17.3755H33.7152L33.7305 17.3577L33.7364 17.3755H34.0162L34.1386 17.042L31.0406 16.4048C30.7636 16.206 30.9148 15.7903 31.4942 15.1577L30.7031 14.9209C30.4814 15.0922 30.3309 15.3373 30.2514 15.6562C30.1627 16.0121 30.0731 16.0088 29.7539 15.997C29.644 15.993 29.5069 15.9879 29.3333 15.9962C28.8813 16.0177 28.5081 15.8126 28.2139 15.3809L28.0439 15.7942L26.6885 15.5423V15.111H26.4971V14.7966L25.9789 14.6836L25.7942 15.2347L25.8241 15.2635L25.7818 15.272L25.7703 15.3063L25.7428 15.2798L25.7004 15.2884L25.7129 15.2511L25.0473 14.6105L23.1624 14.9209L24.7461 16.0725L25.6903 15.6887L25.6985 15.6458L25.7354 15.6704L25.7703 15.6562L25.764 15.6894L25.8009 15.714L25.7558 15.7323L25.6443 16.3193L26.082 16.4048V16.1836L26.4971 16.0725L26.6885 15.87C26.6885 15.87 27.8721 16.0571 27.8776 16.062L27.9428 16.0725C27.9365 16.092 27.9307 16.1108 27.9237 16.1342C27.8269 16.462 27.8669 16.5959 28.0439 16.5357C28.2315 16.4719 28.557 16.4283 29.0203 16.4048C29.2145 16.5553 29.2145 16.6572 29.0203 16.7104C28.8261 16.7635 28.6679 16.874 28.5456 17.042H27.5884L27.106 16.7104H26.7693C26.7154 16.8022 26.6247 16.8022 26.4971 16.7104C26.3684 16.6177 26.0899 16.6497 25.8211 16.6805C25.6902 16.6956 25.5617 16.7104 25.4538 16.7104C25.2342 16.7104 25.1712 16.864 25.2649 17.1714C25.6862 17.499 25.9242 17.6628 25.9789 17.6628C26.0017 17.6628 26.0206 17.6854 26.0487 17.7194C26.1217 17.8071 26.2575 17.9704 26.6885 18.0117C27.0122 18.0427 27.088 18.076 27.2066 18.128C27.3068 18.172 27.4377 18.2294 27.775 18.3102C28.2658 18.4279 28.5576 18.6289 28.6505 18.9134C28.6505 18.9134 28.8078 18.8026 29.0203 18.7048C29.1576 18.6416 29.2879 18.6844 29.4113 18.8332C29.349 18.7547 29.0732 18.3872 29.3708 18.3872C29.5929 18.3872 29.9264 18.6201 30.3711 19.0858C30.4312 19.0457 30.446 18.9679 30.4154 18.8522C30.3793 18.8264 30.3462 18.7988 30.3166 18.7695C30.3166 18.7695 30.3726 18.731 30.3801 18.7361L30.4392 18.7049C30.456 18.7442 30.4697 18.7812 30.4801 18.8159C30.9062 19.1043 31.6872 19.104 31.4942 19.0148C31.3683 18.9567 31.1483 18.7959 31.0566 18.6976C31.0104 18.6463 31.0099 18.6187 31.1066 18.65C31.1171 18.6536 31.1286 18.6578 31.1413 18.6628C31.3641 18.7506 31.7161 18.7281 32.1972 18.5954C31.6955 18.4539 31.3776 18.3537 31.2244 18.2859C31.1472 18.2493 31.1519 18.2309 31.2403 18.2309C31.2386 18.2258 31.2359 18.2212 31.2321 18.2155C31.2366 18.2185 31.2435 18.2223 31.2606 18.2307C31.4162 18.2273 31.5597 18.1876 31.691 18.1117H31.749C31.7702 18.0891 31.7911 18.0649 31.8117 18.0392L31.8093 18.031C31.8172 18.0247 31.8251 18.0183 31.8329 18.0117H30.8596L30.8509 18.0332L30.8336 18.0117H30.7824C30.7885 17.9968 30.7941 17.9826 30.7992 17.969L30.8068 17.9481C30.8714 17.7649 30.8369 17.706 30.7031 17.7713C30.5607 17.8408 30.1615 17.8759 29.5056 17.8765L29.4873 17.9064L29.4669 17.8765L29.4231 17.8764L29.4438 17.8426L29.4234 17.8128L29.4619 17.8129ZM31.8093 18.031L31.8036 18.0117H31.7235C31.69 18.0495 31.6557 18.0828 31.6205 18.1117H31.691C31.7316 18.0883 31.771 18.0614 31.8093 18.031ZM24.7573 15.9978L23.3279 14.9584L25.0208 14.6797L25.8037 15.433L26.0291 14.7602L26.4244 14.8464V15.1747H26.6157V15.5939L28.0909 15.868L28.2323 15.5242C28.5273 15.8999 28.8972 16.0807 29.3373 16.0597C29.4696 16.0534 29.5739 16.0542 29.7275 16.0598C29.9825 16.069 30.0386 16.0663 30.1217 16.0218C30.2197 15.9694 30.2726 15.8704 30.3226 15.6698C30.3951 15.3787 30.5279 15.1538 30.7204 14.9934L31.3734 15.1888C30.8237 15.808 30.684 16.2312 31.0076 16.4634L34.0452 17.0882L33.9632 17.3119H33.5636L33.6575 17.5929L30.3375 17.389L30.3136 17.4159C30.2022 17.5414 30.1161 17.6312 30.0565 17.6844C30.0336 17.6135 29.9671 17.5992 29.8067 17.5992C29.7311 17.5992 29.6702 17.5491 29.6219 17.4332L29.5964 17.3719C29.5964 17.3719 29.3221 17.4562 29.3133 17.4534C29.272 17.4407 29.2051 17.421 29.1123 17.3944C28.9226 17.34 28.7702 17.3123 28.6533 17.3119L27.4342 17.232V17.3964C27.4177 17.398 27.4014 17.3999 27.3857 17.4021C27.3336 17.4093 27.294 17.4185 27.2653 17.4335C27.1947 17.4706 27.1987 17.5419 27.2687 17.5831C27.3554 17.6341 28.0313 17.6752 29.4346 17.7225L29.3021 17.9397L29.4229 17.9401C30.1427 17.9424 30.5746 17.9069 30.7386 17.8269C30.749 17.8218 30.7581 17.818 30.7655 17.8151C30.7649 17.8252 30.7631 17.8382 30.7597 17.8538C30.7519 17.8893 30.7366 17.9349 30.7139 17.9903L30.679 18.0754H31.6205C31.503 18.1369 31.376 18.1673 31.2384 18.1673C31.202 18.1673 31.1752 18.1699 31.1534 18.1775C31.101 18.1958 31.0792 18.2472 31.1135 18.2902C31.1367 18.3193 31.1878 18.3446 31.2822 18.3804C31.4146 18.4308 31.6363 18.5009 31.9479 18.5912C31.5988 18.6675 31.3392 18.6709 31.1713 18.6048C31.1244 18.5863 31.0886 18.5757 31.0602 18.5729C31.0035 18.5673 30.9504 18.5939 30.9531 18.6513C30.9551 18.6926 30.9915 18.7352 31.0614 18.7975C31.1379 18.8656 31.2433 18.9435 31.3371 19.0024C31.2862 19.0001 31.2276 18.9947 31.1663 18.9859C30.8602 18.9423 30.5796 18.8373 30.4256 18.6851L30.1645 18.4271L30.303 18.7497C30.3462 18.8505 30.3626 18.9246 30.3578 18.9736C29.9334 18.5407 29.6103 18.3236 29.3709 18.3236C29.2608 18.3236 29.1868 18.3672 29.1673 18.4457C29.1552 18.4948 29.1658 18.5516 29.1935 18.6167C29.1263 18.6059 29.057 18.6161 28.9865 18.6485C28.9641 18.6588 28.9419 18.6694 28.9197 18.6804C28.8392 18.7204 28.7632 18.7631 28.6862 18.8107C28.5588 18.5471 28.2588 18.3602 27.7943 18.2488C27.6186 18.2067 27.49 18.1689 27.3869 18.1313C27.348 18.1171 27.3141 18.1035 27.2762 18.0872L27.2629 18.0814L27.2628 18.0814C27.2414 18.072 27.2013 18.0546 27.1874 18.0487C27.0653 17.9978 26.9502 17.9728 26.6964 17.9485C26.4756 17.9273 26.3258 17.8732 26.2205 17.7939C26.191 17.7717 26.1456 17.7236 26.1071 17.6828L26.1071 17.6828C26.0759 17.6498 26.0492 17.6215 26.0391 17.6156C26.023 17.6062 26.005 17.6004 25.9805 17.5974C25.9713 17.5937 25.9585 17.5873 25.9428 17.5785C25.9085 17.5593 25.8622 17.5297 25.8044 17.4899C25.6899 17.4111 25.5316 17.2932 25.3298 17.1366C25.2541 16.8771 25.2999 16.774 25.4539 16.774C25.5495 16.774 25.6304 16.7667 25.8378 16.7429L25.8796 16.7381C26.2123 16.7003 26.3719 16.7026 26.4509 16.7595C26.595 16.8632 26.7276 16.8731 26.81 16.774H27.0809L27.5633 17.1056H28.5856L28.6071 17.0762C28.7204 16.9206 28.8648 16.8196 29.0421 16.7711C29.2999 16.7005 29.2999 16.5365 29.0686 16.3572L29.0162 16.3413C28.5458 16.3651 28.2141 16.4096 28.0175 16.4764C27.964 16.4946 27.9573 16.4918 27.9494 16.4559C27.9353 16.3911 27.9556 16.2672 28.0129 16.0898L28.0346 16.0226L26.6597 15.8006L26.455 16.0173L26.0092 16.1365V16.3254L25.7275 16.2703L25.8647 15.5477L24.7573 15.9978ZM29.4485 18.8792C29.4485 18.8792 29.4347 18.8627 29.4113 18.8332C29.4238 18.8482 29.4362 18.8635 29.4485 18.8792ZM29.3333 17.5322C29.3446 17.5336 29.3473 17.5326 29.3415 17.5294L29.3333 17.5322ZM27.3406 17.543L27.3401 17.5432L27.3415 17.5425L27.3406 17.543Z" fill="#4D4D4D"/>
</g>
</g>
<defs>
<filter id="filter0_dd_5_11404" x="0" y="0" width="42" height="30" filterUnits="userSpaceOnUse" color-interpolation-filters="sRGB">
<feFlood flood-opacity="0" result="BackgroundImageFix"/>
<feColorMatrix in="SourceAlpha" type="matrix" values="0 0 0 0 0 0 0 0 0 0 0 0 0 0 0 0 0 0 127 0" result="hardAlpha"/>
<feOffset dy="1"/>
<feGaussianBlur stdDeviation="1"/>
<feColorMatrix type="matrix" values="0 0 0 0 0.0627451 0 0 0 0 0.0941176 0 0 0 0 0.156863 0 0 0 0.06 0"/>
<feBlend mode="normal" in2="BackgroundImageFix" result="effect1_dropShadow_5_11404"/>
<feColorMatrix in="SourceAlpha" type="matrix" values="0 0 0 0 0 0 0 0 0 0 0 0 0 0 0 0 0 0 127 0" result="hardAlpha"/>
<feOffset dy="1"/>
<feGaussianBlur stdDeviation="1.5"/>
<feColorMatrix type="matrix" values="0 0 0 0 0.0627451 0 0 0 0 0.0941176 0 0 0 0 0.156863 0 0 0 0.1 0"/>
<feBlend mode="normal" in2="effect1_dropShadow_5_11404" result="effect2_dropShadow_5_11404"/>
<feBlend mode="normal" in="SourceGraphic" in2="effect2_dropShadow_5_11404" result="shape"/>
</filter>
</defs>
</svg>
