<svg width="42" height="30" viewBox="0 0 42 30" fill="none" xmlns="http://www.w3.org/2000/svg">
<g filter="url(#filter0_dd_5_6026)">
<mask id="mask0_5_6026" style="mask-type:alpha" maskUnits="userSpaceOnUse" x="3" y="2" width="36" height="24">
<rect x="3" y="2" width="36" height="24" fill="white"/>
</mask>
<g mask="url(#mask0_5_6026)">
<path fill-rule="evenodd" clip-rule="evenodd" d="M3 2V26H39V2H3Z" fill="#3195F9"/>
<mask id="mask1_5_6026" style="mask-type:alpha" maskUnits="userSpaceOnUse" x="3" y="2" width="36" height="24">
<path fill-rule="evenodd" clip-rule="evenodd" d="M3 2V26H39V2H3Z" fill="white"/>
</mask>
<g mask="url(#mask1_5_6026)">
<path fill-rule="evenodd" clip-rule="evenodd" d="M3 2V26L39 2H3Z" fill="#73BE4A"/>
<path d="M1.12065 27.4959L1.79385 28.3924L2.75804 27.8203L43.5516 3.61682L44.7502 2.90567L43.9133 1.79121L41.4151 -1.53574L40.7419 -2.43225L39.7777 -1.86018L-1.01588 22.3433L-2.21448 23.0544L-1.37761 24.1689L1.12065 27.4959Z" fill="#272727" stroke="#FFD018" stroke-width="2.5"/>
</g>
</g>
</g>
<defs>
<filter id="filter0_dd_5_6026" x="0" y="0" width="42" height="30" filterUnits="userSpaceOnUse" color-interpolation-filters="sRGB">
<feFlood flood-opacity="0" result="BackgroundImageFix"/>
<feColorMatrix in="SourceAlpha" type="matrix" values="0 0 0 0 0 0 0 0 0 0 0 0 0 0 0 0 0 0 127 0" result="hardAlpha"/>
<feOffset dy="1"/>
<feGaussianBlur stdDeviation="1"/>
<feColorMatrix type="matrix" values="0 0 0 0 0.0627451 0 0 0 0 0.0941176 0 0 0 0 0.156863 0 0 0 0.06 0"/>
<feBlend mode="normal" in2="BackgroundImageFix" result="effect1_dropShadow_5_6026"/>
<feColorMatrix in="SourceAlpha" type="matrix" values="0 0 0 0 0 0 0 0 0 0 0 0 0 0 0 0 0 0 127 0" result="hardAlpha"/>
<feOffset dy="1"/>
<feGaussianBlur stdDeviation="1.5"/>
<feColorMatrix type="matrix" values="0 0 0 0 0.0627451 0 0 0 0 0.0941176 0 0 0 0 0.156863 0 0 0 0.1 0"/>
<feBlend mode="normal" in2="effect1_dropShadow_5_6026" result="effect2_dropShadow_5_6026"/>
<feBlend mode="normal" in="SourceGraphic" in2="effect2_dropShadow_5_6026" result="shape"/>
</filter>
</defs>
</svg>
