<svg width="42" height="30" viewBox="0 0 42 30" fill="none" xmlns="http://www.w3.org/2000/svg">
<g filter="url(#filter0_dd_5_7749)">
<path fill-rule="evenodd" clip-rule="evenodd" d="M3 2V26H39V2H3Z" fill="#2E42A5"/>
<mask id="mask0_5_7749" style="mask-type:alpha" maskUnits="userSpaceOnUse" x="3" y="2" width="36" height="24">
<path fill-rule="evenodd" clip-rule="evenodd" d="M3 2V26H39V2H3Z" fill="white"/>
</mask>
<g mask="url(#mask0_5_7749)">
<path fill-rule="evenodd" clip-rule="evenodd" d="M3 10V14H39V10H3Z" fill="#FECA00"/>
<path fill-rule="evenodd" clip-rule="evenodd" d="M12.9333 21.5796L11.1951 23.5849L11.1149 21.0544L8.38261 21.7686L9.991 19.6794L7.30833 18.8296L9.991 17.9798L8.38261 15.8907L11.1149 16.6048L11.1951 14.0743L12.9333 16.0796L14.6716 14.0743L14.7518 16.6048L17.4841 15.8907L15.8757 17.9798L18.5583 18.8296L15.8757 19.6794L17.4841 21.7686L14.7518 21.0544L14.6716 23.5849L12.9333 21.5796Z" fill="#F7FCFF"/>
</g>
</g>
<defs>
<filter id="filter0_dd_5_7749" x="0" y="0" width="42" height="30" filterUnits="userSpaceOnUse" color-interpolation-filters="sRGB">
<feFlood flood-opacity="0" result="BackgroundImageFix"/>
<feColorMatrix in="SourceAlpha" type="matrix" values="0 0 0 0 0 0 0 0 0 0 0 0 0 0 0 0 0 0 127 0" result="hardAlpha"/>
<feOffset dy="1"/>
<feGaussianBlur stdDeviation="1"/>
<feColorMatrix type="matrix" values="0 0 0 0 0.0627451 0 0 0 0 0.0941176 0 0 0 0 0.156863 0 0 0 0.06 0"/>
<feBlend mode="normal" in2="BackgroundImageFix" result="effect1_dropShadow_5_7749"/>
<feColorMatrix in="SourceAlpha" type="matrix" values="0 0 0 0 0 0 0 0 0 0 0 0 0 0 0 0 0 0 127 0" result="hardAlpha"/>
<feOffset dy="1"/>
<feGaussianBlur stdDeviation="1.5"/>
<feColorMatrix type="matrix" values="0 0 0 0 0.0627451 0 0 0 0 0.0941176 0 0 0 0 0.156863 0 0 0 0.1 0"/>
<feBlend mode="normal" in2="effect1_dropShadow_5_7749" result="effect2_dropShadow_5_7749"/>
<feBlend mode="normal" in="SourceGraphic" in2="effect2_dropShadow_5_7749" result="shape"/>
</filter>
</defs>
</svg>
