<svg width="42" height="30" viewBox="0 0 42 30" fill="none" xmlns="http://www.w3.org/2000/svg">
<g filter="url(#filter0_dd_5_6435)">
<mask id="mask0_5_6435" style="mask-type:alpha" maskUnits="userSpaceOnUse" x="3" y="2" width="36" height="24">
<rect x="3" y="2" width="36" height="24" fill="white"/>
</mask>
<g mask="url(#mask0_5_6435)">
<path d="M3 1H2V2V26V27H3H39H40V26V2V1H39H3Z" fill="#5EAA22" stroke="#F7FCFF" stroke-width="2"/>
<path fill-rule="evenodd" clip-rule="evenodd" d="M3 8V12H39V8H3Z" fill="#FECA00"/>
<path fill-rule="evenodd" clip-rule="evenodd" d="M3 16V20H39V16H3Z" fill="#FECA00"/>
<rect x="3" y="2" width="18" height="14" fill="#F50101"/>
<path fill-rule="evenodd" clip-rule="evenodd" d="M12.2812 12.1442L8.09701 14.4457L9.72145 10.5821L6.375 7.97924H10.4788L12.2812 4.12988L13.6568 7.97924H17.7112L14.8636 10.5821L16.265 14.2562L12.2812 12.1442Z" fill="#F7FCFF"/>
</g>
</g>
<defs>
<filter id="filter0_dd_5_6435" x="0" y="0" width="42" height="30" filterUnits="userSpaceOnUse" color-interpolation-filters="sRGB">
<feFlood flood-opacity="0" result="BackgroundImageFix"/>
<feColorMatrix in="SourceAlpha" type="matrix" values="0 0 0 0 0 0 0 0 0 0 0 0 0 0 0 0 0 0 127 0" result="hardAlpha"/>
<feOffset dy="1"/>
<feGaussianBlur stdDeviation="1"/>
<feColorMatrix type="matrix" values="0 0 0 0 0.0627451 0 0 0 0 0.0941176 0 0 0 0 0.156863 0 0 0 0.06 0"/>
<feBlend mode="normal" in2="BackgroundImageFix" result="effect1_dropShadow_5_6435"/>
<feColorMatrix in="SourceAlpha" type="matrix" values="0 0 0 0 0 0 0 0 0 0 0 0 0 0 0 0 0 0 127 0" result="hardAlpha"/>
<feOffset dy="1"/>
<feGaussianBlur stdDeviation="1.5"/>
<feColorMatrix type="matrix" values="0 0 0 0 0.0627451 0 0 0 0 0.0941176 0 0 0 0 0.156863 0 0 0 0.1 0"/>
<feBlend mode="normal" in2="effect1_dropShadow_5_6435" result="effect2_dropShadow_5_6435"/>
<feBlend mode="normal" in="SourceGraphic" in2="effect2_dropShadow_5_6435" result="shape"/>
</filter>
</defs>
</svg>
