<svg width="42" height="30" viewBox="0 0 42 30" fill="none" xmlns="http://www.w3.org/2000/svg">
<g filter="url(#filter0_dd_5_6782)">
<mask id="mask0_5_6782" style="mask-type:alpha" maskUnits="userSpaceOnUse" x="3" y="2" width="36" height="24">
<rect x="3" y="2" width="36" height="24" fill="white"/>
</mask>
<g mask="url(#mask0_5_6782)">
<path fill-rule="evenodd" clip-rule="evenodd" d="M3 2V26H39V2H3Z" fill="#2E42A5"/>
<mask id="mask1_5_6782" style="mask-type:alpha" maskUnits="userSpaceOnUse" x="3" y="2" width="36" height="24">
<path fill-rule="evenodd" clip-rule="evenodd" d="M3 2V26H39V2H3Z" fill="white"/>
</mask>
<g mask="url(#mask1_5_6782)">
<path fill-rule="evenodd" clip-rule="evenodd" d="M3 2V10H39V2H3Z" fill="#F7FCFF"/>
<path fill-rule="evenodd" clip-rule="evenodd" d="M3 18V26H39V18H3Z" fill="#C51918"/>
<path fill-rule="evenodd" clip-rule="evenodd" d="M18.4577 7.03629C18.4577 7.03629 16.0899 6.04236 13.1449 6.04236C10.1999 6.04236 7.83203 7.03629 7.83203 7.03629C7.83203 7.03629 8.09554 11.031 8.51201 13.1472C8.68983 14.0508 9.54453 15.3686 10.3183 15.9924C11.2003 16.7033 13.1449 17.5456 13.1449 17.5456C13.7076 17.2009 14.7598 17.0459 16.1047 15.9924C17.4495 14.9388 17.7838 13.1472 17.7838 13.1472L18.4577 7.03629Z" fill="#2E42A5"/>
<path d="M18.1448 6.90576L19.1308 7.34348L18.4539 13.3661C18.2168 14.6408 17.6236 15.646 16.6749 16.3892C16.1603 16.7923 15.6579 17.0936 15.1194 17.3439C14.8153 17.4851 13.5437 18.0674 13.5548 18.0626C13.4274 18.1172 13.3308 18.165 13.2523 18.2131L13.1293 18.2884L12.9965 18.2309C11.6794 17.6604 10.4505 16.8927 9.83989 16.4004C9.00628 15.7285 8.12734 14.3534 7.93995 13.4013C7.65977 11.9776 7.40851 10.0167 7.23218 7.34348L8.118 6.93155C8.29301 9.58463 8.50427 11.6995 8.77939 13.0975C8.94216 13.9246 9.75267 15.1926 10.4921 15.7886C11.0385 16.2291 11.9189 16.7175 13.1293 17.2487C13.2015 17.2111 13.2815 17.1739 13.373 17.1347C13.3756 17.1336 14.199 16.8085 14.4852 16.6756C14.9871 16.4423 15.4536 16.1625 15.934 15.7862C16.7761 15.1265 17.3017 14.238 17.5143 13.1094L18.1448 6.90576Z" fill="#C51918"/>
<path fill-rule="evenodd" clip-rule="evenodd" d="M9.23486 13.0242C9.23486 13.0242 9.44949 13.6079 9.84628 14.2633C10.429 14.3999 10.7855 14.3928 10.8982 14.2806C11.2242 13.9563 12.3841 13.8177 12.6006 14.0948C12.7341 14.2657 13.2034 14.3839 13.7166 14.2275L13.6594 14.2365C13.7485 14.2077 13.9573 14.1341 14.086 14.0888C14.1398 14.0699 14.1796 14.0558 14.1908 14.0521C14.384 13.9873 14.526 13.9533 14.6706 13.9437C14.8519 13.9317 15.0257 13.9617 15.2099 14.0397C15.6148 14.2111 16.1144 14.2909 16.4546 14.239C16.8704 13.5952 17.167 13.0242 17.167 13.0242L15.1923 11.3396L14.4074 12.0967L13.1033 10.4441L12.0116 12.0967L11.1744 11.3396L9.23486 13.0242ZM10.3765 15.0145C10.2853 14.9052 10.1992 14.7924 10.1182 14.6784C10.6236 14.7604 10.9668 14.7173 11.1577 14.5273C11.2479 14.4376 11.5155 14.3506 11.8199 14.3142C11.9618 14.2973 12.098 14.293 12.2024 14.3019C12.2503 14.306 12.2889 14.3126 12.3149 14.3206C12.3233 14.3232 12.3231 14.3229 12.3143 14.3117L12.3127 14.3097C12.5455 14.6056 13.1775 14.7642 13.7738 14.5714L13.7166 14.5805C13.8779 14.5364 14.1684 14.4349 14.2728 14.3984L14.3091 14.3857C14.4747 14.3302 14.5888 14.3029 14.6952 14.2958C14.8179 14.2877 14.9337 14.3077 15.0651 14.3633C15.4236 14.5151 15.8404 14.6054 16.2078 14.6077C16.1295 14.7203 16.0486 14.8322 15.9661 14.941C15.6805 14.9999 15.2387 14.9225 14.8823 14.7495C14.7158 14.6686 14.5567 14.6371 14.3908 14.6497C14.2597 14.6596 14.1325 14.6946 13.9607 14.7607C13.9506 14.7645 13.9154 14.7788 13.8678 14.798C13.7555 14.8434 13.5747 14.9164 13.4977 14.945L13.5623 14.9334C13.1163 15.0863 12.7259 14.9736 12.6145 14.8099C12.4156 14.5179 11.3731 14.6607 11.0798 14.9954C11.0017 15.0846 10.7657 15.1009 10.3765 15.0145ZM10.7646 15.4234C10.7866 15.4435 10.8087 15.4633 10.8312 15.4827C11.8472 16.3633 13.1033 16.795 13.1033 16.795C13.1033 16.795 14.5994 16.3926 15.4486 15.5453C15.521 15.473 15.5936 15.3947 15.6658 15.3119C15.3562 15.2983 15.0158 15.2087 14.7203 15.0653C14.6117 15.0126 14.5182 14.9941 14.419 15.0016C14.3312 15.0082 14.2352 15.0346 14.0941 15.0889C14.0903 15.0903 14.0811 15.094 14.0676 15.0995C13.9812 15.134 13.719 15.239 13.5623 15.2863L13.627 15.2748C13.1013 15.4696 12.5433 15.3158 12.3256 15.024C12.3063 15.0173 12.2761 15.0113 12.2377 15.0076C12.1504 14.9991 12.0351 15.0032 11.9145 15.0197C11.6562 15.0551 11.4306 15.1392 11.356 15.2243C11.2306 15.3674 11.0339 15.4306 10.7646 15.4234Z" fill="white"/>
<path fill-rule="evenodd" clip-rule="evenodd" d="M11.0402 7.88629H10.2491L10.8627 7.3754L10.2491 6.83555H11.0402L11.3741 6.31152L11.7095 6.83555H12.4991L11.9163 7.34298L12.4338 7.88629H11.7095L11.3741 8.43928L11.0402 7.88629Z" fill="#FECA00"/>
<path fill-rule="evenodd" clip-rule="evenodd" d="M14.7682 7.88629H13.9772L14.5907 7.3754L13.9772 6.83555H14.7682L15.1022 6.31152L15.4375 6.83555H16.2272L15.6443 7.34298L16.1619 7.88629H15.4375L15.1022 8.43928L14.7682 7.88629Z" fill="#FECA00"/>
<path fill-rule="evenodd" clip-rule="evenodd" d="M12.6749 9.56756H11.8839L12.4974 9.05668L11.8839 8.51682H12.6749L13.0089 7.9928L13.3442 8.51682H14.1339L13.5511 9.02425L14.0686 9.56756H13.3442L13.0089 10.1206L12.6749 9.56756Z" fill="#FECA00"/>
</g>
</g>
</g>
<defs>
<filter id="filter0_dd_5_6782" x="0" y="0" width="42" height="30" filterUnits="userSpaceOnUse" color-interpolation-filters="sRGB">
<feFlood flood-opacity="0" result="BackgroundImageFix"/>
<feColorMatrix in="SourceAlpha" type="matrix" values="0 0 0 0 0 0 0 0 0 0 0 0 0 0 0 0 0 0 127 0" result="hardAlpha"/>
<feOffset dy="1"/>
<feGaussianBlur stdDeviation="1"/>
<feColorMatrix type="matrix" values="0 0 0 0 0.0627451 0 0 0 0 0.0941176 0 0 0 0 0.156863 0 0 0 0.06 0"/>
<feBlend mode="normal" in2="BackgroundImageFix" result="effect1_dropShadow_5_6782"/>
<feColorMatrix in="SourceAlpha" type="matrix" values="0 0 0 0 0 0 0 0 0 0 0 0 0 0 0 0 0 0 127 0" result="hardAlpha"/>
<feOffset dy="1"/>
<feGaussianBlur stdDeviation="1.5"/>
<feColorMatrix type="matrix" values="0 0 0 0 0.0627451 0 0 0 0 0.0941176 0 0 0 0 0.156863 0 0 0 0.1 0"/>
<feBlend mode="normal" in2="effect1_dropShadow_5_6782" result="effect2_dropShadow_5_6782"/>
<feBlend mode="normal" in="SourceGraphic" in2="effect2_dropShadow_5_6782" result="shape"/>
</filter>
</defs>
</svg>
