<svg width="42" height="30" viewBox="0 0 42 30" fill="none" xmlns="http://www.w3.org/2000/svg">
<g filter="url(#filter0_dd_5_6761)">
<mask id="mask0_5_6761" style="mask-type:alpha" maskUnits="userSpaceOnUse" x="3" y="2" width="36" height="24">
<rect x="3" y="2" width="36" height="24" fill="white"/>
</mask>
<g mask="url(#mask0_5_6761)">
<path fill-rule="evenodd" clip-rule="evenodd" d="M3 2V26H39V2H3Z" fill="#3D58DB"/>
<mask id="mask1_5_6761" style="mask-type:alpha" maskUnits="userSpaceOnUse" x="3" y="2" width="36" height="24">
<path fill-rule="evenodd" clip-rule="evenodd" d="M3 2V26H39V2H3Z" fill="white"/>
</mask>
<g mask="url(#mask1_5_6761)">
<path fill-rule="evenodd" clip-rule="evenodd" d="M3 2V10H39V2H3Z" fill="#F7FCFF"/>
<path fill-rule="evenodd" clip-rule="evenodd" d="M3 18V26H39V18H3Z" fill="#E31D1C"/>
<path d="M20.5544 8.03027L21.0509 7.97085L20.9982 7.53027H20.5544H10.138H9.67447L9.63941 7.99245L10.138 8.03027L9.6394 7.99255L9.63939 7.99276L9.63932 7.99357L9.63909 7.99665L9.6382 8.00861L9.63476 8.05492L9.62199 8.23125C9.61113 8.38372 9.59588 8.60308 9.57834 8.87115C9.54326 9.40711 9.49893 10.1387 9.46199 10.9203C9.38931 12.4579 9.34054 14.2665 9.46752 15.1147C9.71718 16.7823 10.8538 20.4572 15.1712 22.1149L15.3535 22.1849L15.5351 22.1128C19.6353 20.4831 21.0289 17.1863 21.3517 15.1177C21.5138 14.079 21.4313 12.2677 21.3184 10.7691C21.2611 10.0084 21.1943 9.30958 21.1418 8.80105C21.1156 8.54667 21.0929 8.33963 21.0768 8.19597C21.0687 8.12413 21.0623 8.06812 21.0578 8.02993L21.0527 7.98627L21.0514 7.97494L21.051 7.97198L21.0509 7.97118L21.0509 7.97096C21.0509 7.9709 21.0509 7.97085 20.5544 8.03027Z" fill="#E31D1C" stroke="white"/>
<mask id="mask2_5_6761" style="mask-type:alpha" maskUnits="userSpaceOnUse" x="8" y="7" width="14" height="16">
<path d="M20.5544 8.03027L21.0509 7.97085L20.9982 7.53027H20.5544H10.138H9.67447L9.63941 7.99245L10.138 8.03027L9.6394 7.99255L9.63939 7.99276L9.63932 7.99357L9.63909 7.99665L9.6382 8.00861L9.63476 8.05492L9.62199 8.23125C9.61113 8.38372 9.59588 8.60308 9.57834 8.87115C9.54326 9.40711 9.49893 10.1387 9.46199 10.9203C9.38931 12.4579 9.34054 14.2665 9.46752 15.1147C9.71718 16.7823 10.8538 20.4572 15.1712 22.1149L15.3535 22.1849L15.5351 22.1128C19.6353 20.4831 21.0289 17.1863 21.3517 15.1177C21.5138 14.079 21.4313 12.2677 21.3184 10.7691C21.2611 10.0084 21.1943 9.30958 21.1418 8.80105C21.1156 8.54667 21.0929 8.33963 21.0768 8.19597C21.0687 8.12413 21.0623 8.06812 21.0578 8.02993L21.0527 7.98627L21.0514 7.97494L21.051 7.97198L21.0509 7.97118L21.0509 7.97096C21.0509 7.9709 21.0509 7.97085 20.5544 8.03027Z" fill="white" stroke="white"/>
</mask>
<g mask="url(#mask2_5_6761)">
<path fill-rule="evenodd" clip-rule="evenodd" d="M14.5394 8.5896C14.5394 8.5896 14.7717 8.90422 14.8757 9.3853C14.9797 9.86639 14.9976 10.7093 14.9976 10.7093L12.7939 10.4681V11.9534L15.0469 11.6984L15.0102 13.1081C15.0102 13.1081 14.3362 13.1702 13.7834 13.1081C13.2306 13.046 12.1416 12.7858 12.1416 12.7858V14.4862C12.1416 14.4862 13.248 14.1715 13.7834 14.0993C14.3188 14.0271 15.0102 14.0993 15.0102 14.0993V16.1877H15.9249V14.0993C15.9249 14.0993 16.9248 14.0221 17.5212 14.1057C18.1177 14.1894 18.6834 14.4862 18.6834 14.4862V12.7858C18.6834 12.7858 18.1102 13.0396 17.5696 13.1028C17.029 13.166 15.9249 13.1081 15.9249 13.1081L15.9615 11.6984C15.9615 11.6984 16.7099 11.6295 17.1298 11.6802C17.5496 11.7308 18.0752 11.9534 18.0752 11.9534V10.4681C18.0752 10.4681 17.563 10.7159 17.16 10.7608C16.7569 10.8057 15.9123 10.7093 15.9123 10.7093C15.9123 10.7093 15.9273 9.83944 16.0139 9.41588C16.1006 8.99232 16.346 8.5896 16.346 8.5896H14.5394Z" fill="#F7FCFF"/>
<path fill-rule="evenodd" clip-rule="evenodd" d="M10.7595 18.2452C10.7595 18.2452 11.254 17.302 12.0585 17.1226C12.863 16.9433 13.7066 17.6839 13.7066 17.6839C13.7066 17.6839 14.2218 16.1875 15.4774 16.1875C16.733 16.1875 17.1737 17.6839 17.1737 17.6839C17.1737 17.6839 17.7094 17.1226 18.4797 17.1226C19.2501 17.1226 19.9639 18.2452 19.9639 18.2452C19.9639 18.2452 17.6628 21.9587 15.3617 21.9587C13.0606 21.9587 10.7595 18.2452 10.7595 18.2452Z" fill="#2E42A5"/>
</g>
</g>
</g>
</g>
<defs>
<filter id="filter0_dd_5_6761" x="0" y="0" width="42" height="30" filterUnits="userSpaceOnUse" color-interpolation-filters="sRGB">
<feFlood flood-opacity="0" result="BackgroundImageFix"/>
<feColorMatrix in="SourceAlpha" type="matrix" values="0 0 0 0 0 0 0 0 0 0 0 0 0 0 0 0 0 0 127 0" result="hardAlpha"/>
<feOffset dy="1"/>
<feGaussianBlur stdDeviation="1"/>
<feColorMatrix type="matrix" values="0 0 0 0 0.0627451 0 0 0 0 0.0941176 0 0 0 0 0.156863 0 0 0 0.06 0"/>
<feBlend mode="normal" in2="BackgroundImageFix" result="effect1_dropShadow_5_6761"/>
<feColorMatrix in="SourceAlpha" type="matrix" values="0 0 0 0 0 0 0 0 0 0 0 0 0 0 0 0 0 0 127 0" result="hardAlpha"/>
<feOffset dy="1"/>
<feGaussianBlur stdDeviation="1.5"/>
<feColorMatrix type="matrix" values="0 0 0 0 0.0627451 0 0 0 0 0.0941176 0 0 0 0 0.156863 0 0 0 0.1 0"/>
<feBlend mode="normal" in2="effect1_dropShadow_5_6761" result="effect2_dropShadow_5_6761"/>
<feBlend mode="normal" in="SourceGraphic" in2="effect2_dropShadow_5_6761" result="shape"/>
</filter>
</defs>
</svg>
