<svg width="42" height="30" viewBox="0 0 42 30" fill="none" xmlns="http://www.w3.org/2000/svg">
<g filter="url(#filter0_dd_5_8171)">
<mask id="mask0_5_8171" style="mask-type:alpha" maskUnits="userSpaceOnUse" x="3" y="2" width="36" height="24">
<rect x="3" y="2" width="36" height="24" fill="white"/>
</mask>
<g mask="url(#mask0_5_8171)">
<path fill-rule="evenodd" clip-rule="evenodd" d="M3 2V26H39V2H3Z" fill="#3D58DB"/>
<mask id="mask1_5_8171" style="mask-type:alpha" maskUnits="userSpaceOnUse" x="3" y="2" width="36" height="24">
<path fill-rule="evenodd" clip-rule="evenodd" d="M3 2V26H39V2H3Z" fill="white"/>
</mask>
<g mask="url(#mask1_5_8171)">
<path fill-rule="evenodd" clip-rule="evenodd" d="M12 13L11.0809 15.9441L11.0894 12.8888L9.31079 15.5033L10.2464 12.5633L7.74016 14.6543L9.53343 12.0477L6.48545 13.4601L9.00339 11.3802L5.63974 12.0093L8.69559 10.6104L5.26574 10.4095L8.63287 9.79527L5.39118 8.77926L8.81987 8.99536L6.00677 7.23961L9.24273 8.26996L7.06686 5.90468L9.87008 7.67287L8.49281 4.87348L10.6554 7.24837L10.1789 4.2225L11.5404 7.02794L12 4L12.4596 7.02794L13.8211 4.2225L13.3446 7.24837L15.5072 4.87348L14.1299 7.67287L16.9331 5.90468L14.7573 8.26996L17.9932 7.23961L15.1801 8.99536L18.6088 8.77926L15.3671 9.79527L18.7343 10.4095L15.3044 10.6104L18.3603 12.0093L14.9966 11.3802L17.5145 13.4601L14.4666 12.0477L16.2598 14.6543L13.7536 12.5633L14.6892 15.5033L12.9106 12.8888L12.9191 15.9441L12 13Z" fill="#F7FCFF"/>
<path d="M2.12024 26.7453L40.4155 3.21484V10.8856L2.12024 26.7453Z" fill="white"/>
<path d="M2.12024 26.7453L40.4155 -2.78516V4.88561L2.12024 26.7453Z" fill="#E2AE57"/>
</g>
</g>
</g>
<defs>
<filter id="filter0_dd_5_8171" x="0" y="0" width="42" height="30" filterUnits="userSpaceOnUse" color-interpolation-filters="sRGB">
<feFlood flood-opacity="0" result="BackgroundImageFix"/>
<feColorMatrix in="SourceAlpha" type="matrix" values="0 0 0 0 0 0 0 0 0 0 0 0 0 0 0 0 0 0 127 0" result="hardAlpha"/>
<feOffset dy="1"/>
<feGaussianBlur stdDeviation="1"/>
<feColorMatrix type="matrix" values="0 0 0 0 0.0627451 0 0 0 0 0.0941176 0 0 0 0 0.156863 0 0 0 0.06 0"/>
<feBlend mode="normal" in2="BackgroundImageFix" result="effect1_dropShadow_5_8171"/>
<feColorMatrix in="SourceAlpha" type="matrix" values="0 0 0 0 0 0 0 0 0 0 0 0 0 0 0 0 0 0 127 0" result="hardAlpha"/>
<feOffset dy="1"/>
<feGaussianBlur stdDeviation="1.5"/>
<feColorMatrix type="matrix" values="0 0 0 0 0.0627451 0 0 0 0 0.0941176 0 0 0 0 0.156863 0 0 0 0.1 0"/>
<feBlend mode="normal" in2="effect1_dropShadow_5_8171" result="effect2_dropShadow_5_8171"/>
<feBlend mode="normal" in="SourceGraphic" in2="effect2_dropShadow_5_8171" result="shape"/>
</filter>
</defs>
</svg>
