<svg width="42" height="30" viewBox="0 0 42 30" fill="none" xmlns="http://www.w3.org/2000/svg">
<g filter="url(#filter0_dd_5_7924)">
<mask id="mask0_5_7924" style="mask-type:alpha" maskUnits="userSpaceOnUse" x="3" y="2" width="36" height="24">
<rect x="3" y="2" width="36" height="24" fill="white"/>
</mask>
<g mask="url(#mask0_5_7924)">
<path fill-rule="evenodd" clip-rule="evenodd" d="M3 2V26H39V2H3Z" fill="#E11C1B"/>
<mask id="mask1_5_7924" style="mask-type:alpha" maskUnits="userSpaceOnUse" x="3" y="2" width="36" height="24">
<path fill-rule="evenodd" clip-rule="evenodd" d="M3 2V26H39V2H3Z" fill="white"/>
</mask>
<g mask="url(#mask1_5_7924)">
<path fill-rule="evenodd" clip-rule="evenodd" d="M3 2V12H39V2H3Z" fill="#272727"/>
<path fill-rule="evenodd" clip-rule="evenodd" d="M3 18V26H39V18H3Z" fill="#5EAA22"/>
<path fill-rule="evenodd" clip-rule="evenodd" d="M7.50204 13.9459V13.9434L7.49146 13.945L7.50204 13.9459ZM8.20901 10.1268H8.3249L8.14727 10.1026L8.20901 10.1268ZM11.5024 10.1268C11.5613 10.0261 11.6228 9.92658 11.6869 9.82817L9.11125 8.31266L12.1492 9.19109C12.3191 8.9799 12.5012 8.77514 12.6949 8.5774L10.4624 6.68809L13.3074 8.00771C13.5161 7.83057 13.7348 7.66054 13.9629 7.49815L12.1574 5.2811L14.7073 7.015C14.9445 6.87484 15.1896 6.74224 15.4422 6.61767L14.1417 4.13693L16.2957 6.23864C16.5524 6.13661 16.8152 6.04243 17.0837 5.95651L16.3515 3.29233L18.0194 5.69628C18.2879 5.63249 18.561 5.5767 18.8382 5.52927L18.7158 2.77447L19.8252 5.39787C20.0992 5.37162 20.3763 5.35342 20.6564 5.34358L21.1587 2.59998L21.6611 5.34439C21.9408 5.35466 22.2176 5.37328 22.4912 5.39993L23.6015 2.77447L23.479 5.53306C23.7552 5.5808 24.0273 5.63684 24.2948 5.70082L25.9658 3.29233L25.2318 5.96306C25.4987 6.04898 25.76 6.14307 26.0152 6.24492L28.1756 4.13693L26.8706 6.62639C27.1211 6.75051 27.3643 6.88254 27.5997 7.02202L30.1599 5.2811L28.3462 7.50816C28.5721 7.66957 28.7888 7.83848 28.9956 8.01437L31.8549 6.68809L29.6103 8.58768C29.8018 8.78387 29.982 8.98693 30.1501 9.1963L33.2061 8.31266L30.6144 9.83762C30.6762 9.93296 30.7357 10.0294 30.7927 10.1268H28.5822C27.0589 8.24978 24.2746 6.99315 21.0922 6.99315C17.9099 6.99315 15.1256 8.24978 13.6023 10.1268H11.5024ZM14.8798 10.1268C16.3231 8.8036 18.5892 7.95103 21.1374 7.95103C23.6856 7.95103 25.9518 8.8036 27.3951 10.1268H14.8798ZM33.9924 10.1268H34.1083L34.17 10.1026L33.9924 10.1268ZM34.817 13.9437L34.8259 13.945L34.817 13.9457V13.9437Z" fill="#E11C1B"/>
</g>
</g>
</g>
<defs>
<filter id="filter0_dd_5_7924" x="0" y="0" width="42" height="30" filterUnits="userSpaceOnUse" color-interpolation-filters="sRGB">
<feFlood flood-opacity="0" result="BackgroundImageFix"/>
<feColorMatrix in="SourceAlpha" type="matrix" values="0 0 0 0 0 0 0 0 0 0 0 0 0 0 0 0 0 0 127 0" result="hardAlpha"/>
<feOffset dy="1"/>
<feGaussianBlur stdDeviation="1"/>
<feColorMatrix type="matrix" values="0 0 0 0 0.0627451 0 0 0 0 0.0941176 0 0 0 0 0.156863 0 0 0 0.06 0"/>
<feBlend mode="normal" in2="BackgroundImageFix" result="effect1_dropShadow_5_7924"/>
<feColorMatrix in="SourceAlpha" type="matrix" values="0 0 0 0 0 0 0 0 0 0 0 0 0 0 0 0 0 0 127 0" result="hardAlpha"/>
<feOffset dy="1"/>
<feGaussianBlur stdDeviation="1.5"/>
<feColorMatrix type="matrix" values="0 0 0 0 0.0627451 0 0 0 0 0.0941176 0 0 0 0 0.156863 0 0 0 0.1 0"/>
<feBlend mode="normal" in2="effect1_dropShadow_5_7924" result="effect2_dropShadow_5_7924"/>
<feBlend mode="normal" in="SourceGraphic" in2="effect2_dropShadow_5_7924" result="shape"/>
</filter>
</defs>
</svg>
