<svg width="42" height="30" viewBox="0 0 42 30" fill="none" xmlns="http://www.w3.org/2000/svg">
<g filter="url(#filter0_dd_5_11674)">
<rect x="3" y="2" width="36" height="24" fill="white"/>
<path d="M15.4767 23.2289C14.7275 23.4302 13.6483 23.8428 13.2166 24.0742C13.077 24.1547 13.0896 24.2453 13.3055 24.5874C13.4579 24.8088 13.6102 25 13.6356 25C13.6737 25 14.0927 24.8491 14.5625 24.6579C15.0323 24.4767 15.6325 24.2377 15.9084 24.195C16.1193 24.1623 16.3119 24.1313 16.4312 24.092C16.4792 24.1845 16.4497 24.133 16.5372 24.2781C16.6629 24.4867 16.5846 24.482 16.8021 24.5391C17.0315 24.5993 17.597 24.356 17.597 24.356C18.2573 24.1748 18.6255 24.1547 20.9998 24.1547C23.3741 24.1547 23.7423 24.1748 24.4026 24.366C24.4026 24.366 24.9339 24.5093 25.0022 24.5266C25.07 24.5438 25.1059 24.5574 25.1776 24.5438C25.243 24.5313 25.3111 24.4521 25.3412 24.4042C25.3412 24.4042 25.4872 24.1262 25.5247 24.0286C25.6512 24.0768 25.8818 24.1396 26.104 24.195C26.3706 24.2654 26.9674 24.4767 27.4371 24.6579C27.9069 24.8491 28.3259 25 28.364 25C28.3894 25 28.5418 24.8088 28.6941 24.5874C28.9989 24.1145 29.0243 24.1547 27.9196 23.7019C26.4468 23.0981 24.9739 22.8264 24.8343 23.1182C24.8089 23.1736 24.7873 23.206 24.7525 23.2778C24.6049 23.2508 24.2185 23.1786 23.8312 23.1283C22.6377 22.9572 19.3619 22.9572 18.1684 23.1283C17.7811 23.1786 17.5193 23.2626 17.3005 23.3107C17.1767 23.1143 17.2026 23.1924 17.1772 23.137C17.0756 22.9358 16.4035 22.9673 15.4767 23.2289H15.4767Z" fill="#DFDFDF"/>
<path d="M16.5556 10.793C16.5301 11.1209 16.6068 11.3529 16.8072 11.5288C16.8967 11.6128 16.9735 11.7128 16.9735 11.7128C16.9735 11.7128 16.8711 11.8128 16.7859 11.8887C16.5855 12.0647 16.5045 12.2926 16.5045 12.5326C16.5045 12.7805 16.5855 12.9525 16.8029 13.1764C16.8029 13.1764 16.9865 13.2585 16.982 13.3604C16.9775 13.4622 16.7859 13.5643 16.7859 13.5643C16.3936 13.9722 16.4064 14.4401 16.8157 14.828L16.9905 15H21.0068H25.0188L25.2149 14.804C25.5943 14.4241 25.5943 14.0122 25.2191 13.5763C25.2191 13.5763 25.0303 13.4566 25.0273 13.3564C25.0242 13.2561 25.2063 13.1564 25.2063 13.1564C25.5986 12.7165 25.5901 12.3126 25.185 11.8887C25.0017 11.7008 24.9974 11.6648 25.1424 11.5768C25.3769 11.4288 25.5218 10.929 25.4153 10.625C25.2575 10.1691 24.5796 9.86522 24.166 10.0652C24.0893 10.1012 23.9358 10.2011 23.8207 10.2851C23.7056 10.3731 23.599 10.4411 23.5777 10.4411C23.5606 10.4411 23.4583 10.3691 23.3517 10.2811C22.9382 9.9492 22.4402 9.90921 22.0266 10.2851C22.0266 10.2851 21.9676 10.4862 21.8808 10.4931C21.794 10.4999 21.6719 10.3131 21.6719 10.3131C21.2498 9.9412 20.7211 9.95719 20.2905 10.3491C20.2905 10.3491 20.2301 10.5128 20.1328 10.4931C20.0354 10.4733 19.9553 10.2811 19.9553 10.2811C19.7038 10.0652 19.5444 10.0692 19.2545 10.0652C19.0876 10.0628 18.7852 10.0989 18.6026 10.2202C18.42 10.3415 18.4523 10.4869 18.4103 10.4771C18.3048 10.4523 18.1886 10.3011 18.1886 10.3011C17.7793 9.97319 17.451 9.9172 17.0545 10.1132C16.7432 10.2651 16.5812 10.4891 16.5556 10.793Z" fill="#171796"/>
<path d="M16.8205 16.4919C16.8205 16.4919 16.9839 16.5627 16.9783 16.6533C16.9726 16.744 16.7991 16.8344 16.7991 16.8344C16.701 16.9328 16.5944 17.0745 16.5603 17.1454C16.4238 17.4485 16.5262 17.8539 16.7949 18.0862C16.9569 18.2318 16.9612 18.2909 16.8077 18.4641C16.7394 18.5389 16.6584 18.6451 16.6285 18.7003C16.3087 19.2592 16.7863 19.9599 17.4943 19.9599C17.7758 19.9599 17.989 19.8772 18.1809 19.6883C18.3345 19.5387 18.4155 19.5348 18.552 19.6686C18.7524 19.8733 19.0169 19.9993 19.2386 19.9993C19.4988 19.9993 19.6609 19.9245 19.9253 19.6922C19.9253 19.6922 20.0301 19.5102 20.1257 19.5112C20.2214 19.5121 20.3091 19.6962 20.3091 19.6962C20.7057 20.0898 21.1066 20.1016 21.6397 19.7277C21.6397 19.7277 21.7569 19.5761 21.8573 19.5781C21.9576 19.58 22.0449 19.7355 22.0449 19.7355C22.2795 19.9245 22.4543 19.9993 22.6846 19.9993C22.9149 19.9993 23.0855 19.9166 23.3542 19.6726C23.3542 19.6726 23.4929 19.4874 23.576 19.4757C23.6591 19.4641 23.7466 19.6174 23.7466 19.6174C24.075 19.8891 24.2541 19.9757 24.4929 19.9757C24.7403 19.9757 24.9152 19.9009 25.1625 19.6962C25.3928 19.5033 25.5165 19.2789 25.4867 19.0939C25.4568 18.8931 25.2606 18.5271 25.1156 18.4011C25.1156 18.4011 24.9702 18.3898 24.9919 18.2909C25.0136 18.1919 25.1838 18.0901 25.1838 18.0901C25.6018 17.6374 25.6061 17.2871 25.1924 16.8383C25.1924 16.8383 25.0196 16.7496 25.0218 16.6494C25.024 16.5491 25.2009 16.4486 25.2009 16.4486C25.6018 16.0117 25.5975 15.6062 25.1924 15.2086L24.9749 15L20.983 15.0039L16.9911 15.0079L16.8119 15.1929C16.394 15.622 16.3982 16.0589 16.8205 16.4919Z" fill="#D42E12"/>
<path fill-rule="evenodd" clip-rule="evenodd" d="M23.0482 15.6216C23.2415 15.6216 23.4023 15.7386 23.4356 15.8928L23.4419 15.9523V16.5671L24.2695 16.1766C24.4526 16.0902 24.6808 16.1505 24.7792 16.3114C24.8667 16.4545 24.8221 16.6288 24.6825 16.7265L24.6258 16.7593L23.9321 17.0866L24.6257 17.4139L24.6825 17.4468C24.8221 17.5444 24.8667 17.7188 24.7792 17.8618C24.6808 18.0227 24.4526 18.083 24.2694 17.9966L23.4419 17.6061V18.2909C23.4419 18.4735 23.2656 18.6216 23.0482 18.6216C22.8549 18.6216 22.6941 18.5046 22.6608 18.3503L22.6544 18.2909V17.6896L22.0038 17.9966C21.8206 18.0831 21.5924 18.0227 21.494 17.8618C21.4066 17.7188 21.4511 17.5445 21.5908 17.4468L21.6475 17.414L22.3411 17.0866L21.6475 16.7593L21.5907 16.7264C21.4511 16.6288 21.4065 16.4544 21.494 16.3114C21.5924 16.1505 21.8206 16.0902 22.0038 16.1766L22.6544 16.4837V15.9523C22.6544 15.7696 22.8307 15.6216 23.0482 15.6216Z" fill="#E9D315"/>
<path fill-rule="evenodd" clip-rule="evenodd" d="M19.2241 15.6216C19.4174 15.6216 19.5782 15.7386 19.6115 15.8928L19.6178 15.9523V16.5671L20.4453 16.1766C20.6285 16.0902 20.8567 16.1505 20.9551 16.3114C21.0426 16.4545 20.998 16.6288 20.8584 16.7265L20.8016 16.7593L20.108 17.0866L20.8016 17.4139L20.8584 17.4468C20.998 17.5444 21.0426 17.7188 20.9551 17.8618C20.8567 18.0227 20.6285 18.083 20.4453 17.9966L19.6178 17.6061V18.2909C19.6178 18.4735 19.4415 18.6216 19.2241 18.6216C19.0308 18.6216 18.87 18.5046 18.8367 18.3503L18.8303 18.2909V17.6896L18.1797 17.9966C17.9965 18.0831 17.7683 18.0227 17.6699 17.8618C17.5824 17.7188 17.627 17.5445 17.7666 17.4468L17.8234 17.414L18.517 17.0866L17.8234 16.7593L17.7666 16.7264C17.627 16.6288 17.5824 16.4544 17.6699 16.3114C17.7683 16.1505 17.9965 16.0902 18.1797 16.1766L18.8303 16.4837V15.9523C18.8303 15.7696 19.0066 15.6216 19.2241 15.6216Z" fill="#E9D315"/>
<path d="M15.2282 14.8565H15.3782V14.8565C15.3782 14.8572 15.3782 14.8804 15.3782 14.9231C15.2935 14.9205 15.2302 14.8586 15.2282 14.8567L15.2282 14.8566L15.2282 14.8568L15.2282 14.8574L15.2282 14.8597L15.2282 14.8688L15.2282 14.9047L15.2283 15.0419L15.2287 15.5412C15.229 15.9597 15.2295 16.5307 15.2303 17.1405C15.2318 18.3568 15.2342 19.7282 15.2378 20.3528C15.2344 20.4134 15.2412 20.471 15.2618 20.5254C15.2832 20.5818 15.3162 20.6259 15.3527 20.662C15.3877 20.6967 15.4277 20.7258 15.4645 20.751C15.4816 20.7628 15.497 20.773 15.5122 20.7832C15.5342 20.7978 15.5558 20.8123 15.5819 20.8306C15.6787 20.8989 15.8469 20.9539 16.0451 20.9994C16.2509 21.0467 16.5119 21.0885 16.8124 21.1202C17.4122 21.1834 18.1774 21.2071 18.9889 21.1503C19.6816 21.1559 20.0221 21.3872 20.2555 21.6117C20.3164 21.6703 20.3707 21.7292 20.4246 21.7877L20.4275 21.7909C20.4792 21.847 20.5323 21.9047 20.5864 21.955C20.6985 22.0592 20.8344 22.15 21.0209 22.15C21.2082 22.15 21.3424 22.0585 21.4517 21.953C21.5052 21.9013 21.557 21.842 21.607 21.7848L21.6104 21.7809C21.6605 21.7234 21.7106 21.6659 21.7668 21.6087C21.8802 21.4931 22.0155 21.3815 22.2025 21.2971C22.3893 21.2129 22.6353 21.1526 22.9732 21.1502C23.8935 21.1628 24.6767 21.1429 25.2648 21.0939C25.5588 21.0693 25.8071 21.0373 26.0007 20.9976C26.1842 20.9599 26.3437 20.9107 26.44 20.8375L26.4404 20.8373L26.4481 20.8317C26.4544 20.8271 26.4633 20.8205 26.4739 20.8122C26.495 20.7958 26.5238 20.7723 26.5547 20.7441C26.6109 20.6925 26.6946 20.6066 26.7328 20.5071C26.7684 20.4145 26.7778 20.3301 26.7782 20.2683C26.7784 20.2374 26.7763 20.2116 26.774 20.1927C26.7733 20.1868 26.7725 20.1815 26.7718 20.1769V14.8565V9V8.85H26.6218H21H15.3782H15.2282V9V14.8565Z" stroke="black" stroke-width="0.3"/>
<path d="M19.7273 11.8657C19.4253 12.3654 19.4126 12.5897 19.6635 12.9902C19.8591 13.2977 20.0888 13.4931 20.4035 13.6181C21.2244 13.9481 22.2749 13.7046 22.6875 13.0895C22.9427 12.7114 22.9129 12.0803 22.6322 11.8048L22.5556 11.7311L22.4833 11.949C22.3813 12.2597 22.2792 12.4167 22.075 12.5833C21.6922 12.894 21.1649 12.9645 20.6205 12.7723C20.1994 12.6217 20.0293 12.4135 19.8719 11.8336L19.8336 11.6895L19.7273 11.8657L19.7273 11.8657Z" fill="white"/>
<path fill-rule="evenodd" clip-rule="evenodd" d="M23.7883 5.5C23.7883 6.36593 23.087 7 22.1004 7C21.1138 7 20.4184 6.36593 20.4184 5.5C20.4184 4.62934 21.1138 4 22.1004 4C23.087 4 23.7883 4.62934 23.7883 5.5ZM14.5048 6.95267L14.8792 6.14825H16.2759L16.6503 6.95267H17.2803L15.8777 4.0473H15.2834L13.8807 6.95267H14.5048ZM10.3384 6.95268V4.93218L11.3428 6.95268H11.7826L12.7633 4.93218V6.95268H13.3576V4.04732H12.6682L11.5687 6.28076L10.4573 4.04732H9.75V6.95268H10.3384ZM15.5745 4.64829L15.0753 5.72242H16.0738L15.5745 4.64829ZM19.0335 6.95267V5.79336L20.3589 4.0473H19.7051L18.7423 5.34856L17.7735 4.0473H17.1019L18.4213 5.79336V6.95267H19.0335ZM22.1004 6.55994C21.4585 6.55994 21.0424 6.11514 21.0424 5.5C21.0424 4.88486 21.4585 4.44006 22.1004 4.44006C22.7422 4.44006 23.1642 4.88486 23.1642 5.5C23.1642 6.11514 22.7422 6.55994 22.1004 6.55994ZM25.7971 4.48263V6.95267H25.179V4.48263H23.9666V4.0473H27.0096V4.48263H25.7971ZM29.1967 6.95267V4.48263H30.4092V4.0473H27.3662V4.48263H28.5786V6.95267H29.1967ZM33.375 6.5126V6.95267H30.9917V4.0473H33.375V4.48263H31.5979V5.24919H33.2085V5.67979H31.5979V6.5126H33.375Z" fill="#FF2500"/>
<path fill-rule="evenodd" clip-rule="evenodd" d="M33.1235 20.8001C33.1235 20.8001 32.741 20.1304 33.7084 19.7998C34.6758 19.4693 35.1486 19.9006 35.5747 20.3009C36.0008 20.7012 35.954 21.9094 35.954 21.9094L34.9011 23.4064L31.6711 24L30.384 23.4064L28.875 20.8001L28.9878 18.2414C28.9878 18.2414 29.1404 17.2613 29.1404 17.0584C29.1404 16.8555 29.8414 15.2829 29.8414 15.2829L30.5053 14.6984L32.3828 13.8105L33.2669 13.418L34.3647 12.1846L34.2432 11.2027L32.9922 12.6193H31.9325L30.8294 13.03L30.384 13.4032L29.8414 13.418L29.6289 13.03L30.2212 12.1846L31.1159 11.3839L30.7044 10.7068L31.3136 10.4601L31.1964 10.0869L31.8726 10.4601L32.3828 10.0869L32.48 9.7436L31.3136 9.18794C31.3136 9.18794 32.4549 8.76227 32.9922 8.80669C33.5294 8.85111 34.0363 9.41306 34.0363 9.41306L35.5747 9.18794C35.5747 9.18794 35.1629 10.0869 35.296 10.0869C35.4291 10.0869 36.2646 10.0869 36.2646 10.0869L35.954 11.2027H37.1453L36.2646 12.0624L36.9521 12.3975L35.9061 13.03L36.9521 13.6557L35.9795 14.2236L36.5275 15.1653L37.3899 14.6984L37.875 15.2829L37.1453 16.7224L35.954 17.4736L34.8191 17.7278L33.7084 17.9844L33.2669 18.2414L32.9922 17.2565L31.1159 18.4002L30.1413 20.1937L30.4282 21.8233L31.1159 22.6577L32.3828 23.061L34.0363 22.7848L34.9011 21.8496L35.1076 20.8952C35.1076 20.8952 34.6066 20.2471 34.2432 20.3009C33.8799 20.3547 33.1235 20.8001 33.1235 20.8001Z" fill="#DFDFDF" stroke="black" stroke-width="0.3"/>
<path d="M31.2175 14.2246L31.1759 14.6229C32.4745 14.7299 33.3337 14.6723 33.7825 14.4238L33.8724 14.3676L33.5923 14.0545C33.3191 14.2476 32.6068 14.3195 31.4839 14.2445L31.2175 14.2246Z" fill="black"/>
<path d="M29.7117 15.3788L29.6702 15.7771C30.9687 15.8841 31.8279 15.8264 32.2767 15.578L32.3666 15.5218L32.0866 15.2087C31.8134 15.4018 31.101 15.4737 29.9781 15.3987L29.7117 15.3788Z" fill="black"/>
<path d="M29.3497 16.4549L29.2751 16.8494C30.0401 16.9637 30.5201 16.9112 30.6819 16.6137L30.7157 16.5342L30.2828 16.4248C30.2603 16.4952 30.0175 16.5373 29.5236 16.4784L29.3497 16.4549Z" fill="black"/>
<path fill-rule="evenodd" clip-rule="evenodd" d="M31.9688 11.5C31.8134 11.5 31.6875 11.3881 31.6875 11.25C31.6875 11.1119 31.8134 11 31.9688 11C32.1241 11 32.25 11.1119 32.25 11.25C32.25 11.3881 32.1241 11.5 31.9688 11.5Z" fill="black"/>
<path fill-rule="evenodd" clip-rule="evenodd" d="M8.87647 20.8001C8.87647 20.8001 9.25902 20.1304 8.29162 19.7998C7.32422 19.4693 6.85139 19.9006 6.42528 20.3009C5.99916 20.7012 6.04598 21.9094 6.04598 21.9094L7.09892 23.4064L10.3289 24L11.616 23.4064L13.125 20.8001L13.0122 18.2414C13.0122 18.2414 12.8596 17.2613 12.8596 17.0584C12.8596 16.8555 12.1586 15.2829 12.1586 15.2829L11.4947 14.6984L9.61717 13.8105L8.73308 13.418L7.63533 12.1846L7.75678 11.2027L9.00784 12.6193H10.0675L11.1706 13.03L11.616 13.4032L12.1586 13.418L12.3711 13.03L11.7788 12.1846L10.8841 11.3839L11.2956 10.7068L10.6864 10.4601L10.8036 10.0869L10.1274 10.4601L9.61717 10.0869L9.51996 9.7436L10.6864 9.18794C10.6864 9.18794 9.54513 8.76227 9.00784 8.80669C8.47056 8.85111 7.96366 9.41306 7.96366 9.41306L6.42528 9.18794C6.42528 9.18794 6.83713 10.0869 6.70403 10.0869C6.57093 10.0869 5.7354 10.0869 5.7354 10.0869L6.04598 11.2027H4.8547L5.7354 12.0624L5.04788 12.3975L6.09395 13.03L5.04788 13.6557L6.02049 14.2236L5.47251 15.1653L4.61008 14.6984L4.125 15.2829L4.8547 16.7224L6.04598 17.4736L7.18085 17.7278L8.29162 17.9844L8.73308 18.2414L9.00784 17.2565L10.8841 18.4002L11.8587 20.1937L11.5718 21.8233L10.8841 22.6577L9.61717 23.061L7.96366 22.7848L7.09892 21.8496L6.89243 20.8952C6.89243 20.8952 7.39344 20.2471 7.75678 20.3009C8.12012 20.3547 8.87647 20.8001 8.87647 20.8001Z" fill="#DFDFDF" stroke="black" stroke-width="0.3"/>
<path d="M10.7824 14.2246L10.824 14.6229C9.52539 14.7299 8.66622 14.6723 8.2174 14.4238L8.1275 14.3676L8.40754 14.0545C8.68077 14.2476 9.39312 14.3195 10.516 14.2445L10.7824 14.2246Z" fill="black"/>
<path d="M12.2883 15.3788L12.3298 15.7771C11.0313 15.8841 10.1721 15.8264 9.72326 15.578L9.63336 15.5218L9.9134 15.2087C10.1866 15.4018 10.899 15.4737 12.0219 15.3987L12.2883 15.3788Z" fill="black"/>
<path d="M12.6503 16.4549L12.7249 16.8494C11.9599 16.9637 11.4799 16.9112 11.3181 16.6137L11.2843 16.5342L11.7172 16.4248C11.7397 16.4952 11.9825 16.5373 12.4764 16.4784L12.6503 16.4549Z" fill="black"/>
<path fill-rule="evenodd" clip-rule="evenodd" d="M10.0312 11.5C10.1866 11.5 10.3125 11.3881 10.3125 11.25C10.3125 11.1119 10.1866 11 10.0312 11C9.87592 11 9.75 11.1119 9.75 11.25C9.75 11.3881 9.87592 11.5 10.0312 11.5Z" fill="black"/>
</g>
<defs>
<filter id="filter0_dd_5_11674" x="0" y="0" width="42" height="30" filterUnits="userSpaceOnUse" color-interpolation-filters="sRGB">
<feFlood flood-opacity="0" result="BackgroundImageFix"/>
<feColorMatrix in="SourceAlpha" type="matrix" values="0 0 0 0 0 0 0 0 0 0 0 0 0 0 0 0 0 0 127 0" result="hardAlpha"/>
<feOffset dy="1"/>
<feGaussianBlur stdDeviation="1"/>
<feColorMatrix type="matrix" values="0 0 0 0 0.0627451 0 0 0 0 0.0941176 0 0 0 0 0.156863 0 0 0 0.06 0"/>
<feBlend mode="normal" in2="BackgroundImageFix" result="effect1_dropShadow_5_11674"/>
<feColorMatrix in="SourceAlpha" type="matrix" values="0 0 0 0 0 0 0 0 0 0 0 0 0 0 0 0 0 0 127 0" result="hardAlpha"/>
<feOffset dy="1"/>
<feGaussianBlur stdDeviation="1.5"/>
<feColorMatrix type="matrix" values="0 0 0 0 0.0627451 0 0 0 0 0.0941176 0 0 0 0 0.156863 0 0 0 0.1 0"/>
<feBlend mode="normal" in2="effect1_dropShadow_5_11674" result="effect2_dropShadow_5_11674"/>
<feBlend mode="normal" in="SourceGraphic" in2="effect2_dropShadow_5_11674" result="shape"/>
</filter>
</defs>
</svg>
