<svg width="42" height="30" viewBox="0 0 42 30" fill="none" xmlns="http://www.w3.org/2000/svg">
<g filter="url(#filter0_dd_5_7611)">
<mask id="mask0_5_7611" style="mask-type:alpha" maskUnits="userSpaceOnUse" x="3" y="2" width="36" height="24">
<rect x="3" y="2" width="36" height="24" fill="white"/>
</mask>
<g mask="url(#mask0_5_7611)">
<path fill-rule="evenodd" clip-rule="evenodd" d="M12 2H31.125V26H12V2Z" fill="#F7FCFF"/>
<path fill-rule="evenodd" clip-rule="evenodd" d="M30 2H39V26H30V2Z" fill="#F50101"/>
<path fill-rule="evenodd" clip-rule="evenodd" d="M3 2H12V26H3V2Z" fill="#F50101"/>
<path d="M20.709 10.7451L20.7467 11.1071C19.6234 11.2081 19.0166 10.7202 19.0166 9.70768C19.0166 8.70297 19.6103 8.16892 20.7267 8.1626L20.729 8.52623C19.8246 8.53135 19.4079 8.90614 19.4079 9.70768C19.4079 10.5014 19.8115 10.8258 20.709 10.7451Z" fill="#A2BB6A"/>
<path d="M21.2065 10.7451L21.1688 11.1071C22.2921 11.2081 22.8989 10.7202 22.8989 9.70768C22.8989 8.70297 22.3052 8.16892 21.1889 8.1626L21.1865 8.52623C22.0909 8.53135 22.5076 8.90614 22.5076 9.70768C22.5076 10.5014 22.1041 10.8258 21.2065 10.7451Z" fill="#A2BB6A"/>
<path fill-rule="evenodd" clip-rule="evenodd" d="M20.0321 19.1229C19.7091 19.2257 17.5193 19.1229 17.5193 19.1229V19.665H18.9711C19.4555 19.665 19.6386 19.7421 19.8066 19.8128C19.9489 19.8727 20.0804 19.928 20.3752 19.928C20.9493 19.928 20.9388 19.5484 20.93 19.2324C20.929 19.1948 20.928 19.158 20.928 19.1229C20.928 18.9886 20.9516 18.9137 20.9699 18.8554C20.9966 18.7706 21.0123 18.721 20.928 18.5751C20.7857 18.3288 19.4333 18.3617 19.4333 18.5751C19.4333 18.6757 19.6384 18.7804 19.8212 18.8737C20.0259 18.9783 20.2027 19.0685 20.0321 19.1229ZM22.0001 19.1229C22.3231 19.2257 24.5129 19.1229 24.5129 19.1229V19.665H23.0611C22.5767 19.665 22.3936 19.7421 22.2256 19.8128C22.0832 19.8727 21.9517 19.928 21.657 19.928C21.0829 19.928 21.0934 19.5484 21.1021 19.2324C21.1032 19.1948 21.1042 19.158 21.1042 19.1229C21.1042 18.9886 21.0806 18.9137 21.0623 18.8554C21.0355 18.7706 21.0199 18.721 21.1042 18.5751C21.2464 18.3288 22.5988 18.3617 22.5988 18.5751C22.5988 18.6757 22.3938 18.7804 22.211 18.8737C22.0063 18.9783 21.8295 19.0685 22.0001 19.1229Z" fill="#E31D1C"/>
<path fill-rule="evenodd" clip-rule="evenodd" d="M21.458 19.1747C21.458 19.1747 23.1668 19.0238 23.5533 18.476C23.9397 17.9282 24.5835 16.9931 24.8099 16.7667C25.0362 16.5402 25.0509 17.09 25.0509 17.09C25.0509 17.09 25.4243 17.5609 25.4243 16.9588C25.4243 16.3568 25.1587 16.7774 24.8099 15.8716C24.4611 14.9658 24.2648 14.0773 24.3629 13.9428C24.4611 13.8083 24.6934 14.0773 24.6934 13.9428C24.6934 13.8083 24.6934 13.5451 24.6934 13.5451L25.0509 13.9428L25.4243 13.8168C25.4243 13.8168 25.7317 14.402 25.9211 14.5832C26.1104 14.7644 26.2212 14.3405 26.1658 13.9428C26.1104 13.5451 25.4243 13.5451 25.4243 13.5451C25.4243 13.5451 24.5468 13.1246 24.5468 12.9484C24.5468 12.7722 24.9262 12.8247 24.9262 12.8247L24.8099 12.2791C24.8099 12.2791 25.1235 12.6105 25.2739 12.4448C25.4243 12.2791 25.0509 11.9884 25.0509 11.9884H25.6462V11.7328L25.9211 11.8696L25.6462 11.3116C25.6462 11.3116 24.84 11.4196 24.6934 11.3116C24.5468 11.2037 24.0851 10.7831 24.0851 10.7831V10.5835H23.819L24.0851 10.1829V9.54518L25.0509 9.71633V9.24475C25.0509 9.24475 26.4105 9.83391 26.1658 10.3085C25.9211 10.7831 25.9211 11.3116 25.9211 11.3116V11.7328C25.9211 11.7328 25.9618 11.6039 26.1658 11.6039C26.3698 11.6039 26.602 11.6976 26.602 11.9884C26.602 12.2791 27.0174 11.8696 27.0174 11.8696V13.0792C27.0174 13.0792 27.115 13.21 27.3285 13.0792C27.542 12.9484 27.4484 13.0504 26.8071 13.8168C26.1658 14.5832 26.3968 14.5853 26.602 14.3975C26.8071 14.2097 27.6397 13.6759 27.3285 13.9428C27.0174 14.2097 26.9967 14.7689 27.3285 14.5832C27.6603 14.3975 27.5962 14.2654 27.5962 14.5832C27.5962 14.901 27.0123 15.9829 26.8071 16.1523C26.602 16.3218 26.4105 16.426 26.1658 16.5963C25.9211 16.7667 25.6462 16.9679 25.6462 17.09C25.6462 17.2122 26.1658 16.9588 26.1658 16.9588L25.9211 17.7354H26.3967C26.3967 17.7354 26.0181 18.7666 25.2739 18.7666C24.5296 18.7666 23.9686 18.7666 23.819 18.7666C23.6695 18.7666 22.9938 19.0499 22.9938 19.0499L22.4994 19.1747C22.4994 19.1747 23.2875 19.2416 23.5533 19.452C23.819 19.6623 23.5533 19.809 23.5533 19.809C23.5533 19.809 22.8239 19.7447 22.2794 19.5983C21.735 19.452 21.458 19.7293 21.458 19.452C21.458 19.1747 21.458 19.1747 21.458 19.1747Z" fill="#00A854"/>
<path fill-rule="evenodd" clip-rule="evenodd" d="M26.3804 10.9091C26.3804 11.0095 26.2928 11.0909 26.1847 11.0909C26.0767 11.0909 25.9891 11.0095 25.9891 10.9091C25.9891 10.8087 26.0767 10.7273 26.1847 10.7273C26.2928 10.7273 26.3804 10.8087 26.3804 10.9091ZM25.4021 11.6364C25.4021 11.7368 25.3145 11.8182 25.2065 11.8182C25.0984 11.8182 25.0108 11.7368 25.0108 11.6364C25.0108 11.536 25.0984 11.4546 25.2065 11.4546C25.3145 11.4546 25.4021 11.536 25.4021 11.6364ZM26.3804 11.4546C26.4885 11.4546 26.5761 11.3732 26.5761 11.2728C26.5761 11.1723 26.4885 11.0909 26.3804 11.0909C26.2724 11.0909 26.1848 11.1723 26.1848 11.2728C26.1848 11.3732 26.2724 11.4546 26.3804 11.4546ZM25.9892 14.1818C25.9892 14.2823 25.9016 14.3637 25.7935 14.3637C25.6854 14.3637 25.5978 14.2823 25.5978 14.1818C25.5978 14.0814 25.6854 14 25.7935 14C25.9016 14 25.9892 14.0814 25.9892 14.1818ZM25.0108 16.5455C25.1189 16.5455 25.2065 16.4641 25.2065 16.3637C25.2065 16.2632 25.1189 16.1818 25.0108 16.1818C24.9028 16.1818 24.8152 16.2632 24.8152 16.3637C24.8152 16.4641 24.9028 16.5455 25.0108 16.5455ZM26.5761 16.9091C26.5761 17.0095 26.4885 17.0909 26.3804 17.0909C26.2724 17.0909 26.1848 17.0095 26.1848 16.9091C26.1848 16.8087 26.2724 16.7273 26.3804 16.7273C26.4885 16.7273 26.5761 16.8087 26.5761 16.9091ZM26.7718 16.7273C26.8798 16.7273 26.9674 16.6459 26.9674 16.5455C26.9674 16.4451 26.8798 16.3636 26.7718 16.3636C26.6637 16.3636 26.5761 16.4451 26.5761 16.5455C26.5761 16.6459 26.6637 16.7273 26.7718 16.7273ZM26.7717 14C26.7717 14.1004 26.6841 14.1818 26.5761 14.1818C26.468 14.1818 26.3804 14.1004 26.3804 14C26.3804 13.8996 26.468 13.8182 26.5761 13.8182C26.6841 13.8182 26.7717 13.8996 26.7717 14Z" fill="#C51918"/>
<path fill-rule="evenodd" clip-rule="evenodd" d="M20.6462 18.8546C20.6462 18.8546 17.5371 18.3084 17.3671 17.2512C17.197 16.1939 17.1994 15.0684 17.1994 15.0684L16.9111 15.7562C16.9111 15.7562 16.8966 14.8199 17.4879 14.152C18.0793 13.484 16.7487 14.5945 16.7487 14.5945C16.7487 14.5945 17.4224 13.6503 17.7029 13.5604C17.9834 13.4705 16.5759 14.152 16.5759 14.152C16.5759 14.152 16.9791 13.3596 17.2925 13.1355C17.606 12.9114 16.5759 13.5604 16.5759 13.5604C16.5759 13.5604 16.809 12.7745 17.0877 12.5871C17.3665 12.3996 16.1768 13.5604 16.1768 13.5604C16.1768 13.5604 16.8044 11.7647 17.158 11.5972C17.5116 11.4296 16.5759 11.9264 16.5759 11.9264C16.5759 11.9264 17.1491 11.1584 17.6624 10.7766C18.1758 10.3948 16.7345 10.9394 16.9111 10.9394C16.9111 10.9394 17.4323 10.4162 17.7317 10.2686C18.0312 10.1209 16.5759 10.7766 16.5759 10.7766C16.5759 10.7766 17.6205 9.75195 17.9337 9.6011C18.2468 9.45024 16.3964 10.4148 16.3964 10.4148C16.3964 10.4148 16.5045 9.96802 16.5511 9.6487C16.5978 9.32938 15.6939 10.5238 15.8166 11.5972C15.9393 12.6705 15.3248 10.7766 15.3248 10.7766C15.3248 10.7766 15.0776 11.1878 15.6783 12.2647L15.0272 11.4537C15.0272 11.4537 15.1162 12.1897 15.3248 12.5871C15.5334 12.9844 14.7327 11.9264 14.7327 11.9264C14.7327 11.9264 14.5795 12.5871 14.7327 12.5871C14.7327 12.5871 15.647 13.6729 15.6809 13.9894C15.7148 14.306 14.6541 12.8591 14.5121 12.8591C14.3702 12.8591 14.2915 13.3238 14.5121 13.3238C14.7327 13.3238 15.1506 13.9894 15.1506 13.9894C15.1506 13.9894 14.6075 13.6406 14.4911 13.6199C14.3746 13.5993 14.5825 13.8269 14.7327 13.9894C14.7327 13.9894 14.3079 14.2973 14.3402 14.5306C14.3724 14.7638 15.498 14.8132 15.9885 15.9204C15.9885 15.9204 14.9744 15.4437 14.7327 15.4437C14.4911 15.4437 15.1218 15.9414 15.3248 16.1057C15.5278 16.27 15.0121 15.9414 14.8724 16.1057C14.7327 16.27 15.6446 16.9718 15.8166 16.9718C15.9885 16.9718 15.1506 16.9718 15.1506 16.9718C15.1506 16.9718 15.3733 17.2512 15.6809 17.2512C15.9885 17.2512 17.0877 17.6903 17.0877 17.8326C17.0877 17.9748 16.1605 17.6505 15.9885 17.6505C15.8166 17.6505 17.1991 18.8103 17.9337 18.8546C18.6682 18.8988 19.1324 19.0741 19.449 19.0741C19.7657 19.0741 19.9883 19.0741 19.9883 19.0741L18.4923 19.7517C18.4923 19.7517 18.3412 19.7517 18.9902 19.7517C19.6393 19.7517 20.1357 19.912 20.391 19.5805C20.6462 19.2491 20.6462 18.8546 20.6462 18.8546Z" fill="#00A854"/>
<mask id="path-12-outside-1_5_7611" maskUnits="userSpaceOnUse" x="15.824" y="8.88147" width="10" height="11" fill="black">
<rect fill="white" x="15.824" y="8.88147" width="10" height="11"/>
<path fill-rule="evenodd" clip-rule="evenodd" d="M21.0975 10.9054C21.1274 10.8903 21.1442 10.8815 21.1442 10.8815V10.9286C21.3607 11.0348 21.9061 11.2837 22.2607 11.2837C22.7114 11.2837 23.3241 10.8815 23.3241 10.8815L24.3493 12.1682C24.3493 12.1682 23.6589 13.4545 24.1872 15.0263C24.7155 16.5981 24.1592 17.8101 21.8099 17.9447C21.8099 17.9447 21.347 18.0229 21.1442 18.1475V18.2626C21.1442 18.2339 21.1269 18.2067 21.0975 18.1811C21.0681 18.2067 21.0508 18.2339 21.0508 18.2626V18.1475C20.848 18.0229 20.3851 17.9447 20.3851 17.9447C18.0358 17.8101 17.4795 16.5981 18.0078 15.0263C18.5361 13.4545 17.8457 12.1682 17.8457 12.1682L18.8709 10.8815C18.8709 10.8815 19.4836 11.2837 19.9343 11.2837C20.2889 11.2837 20.8343 11.0348 21.0508 10.9286V10.8815C21.0508 10.8815 21.0676 10.8903 21.0975 10.9054Z"/>
</mask>
<path fill-rule="evenodd" clip-rule="evenodd" d="M21.0975 10.9054C21.1274 10.8903 21.1442 10.8815 21.1442 10.8815V10.9286C21.3607 11.0348 21.9061 11.2837 22.2607 11.2837C22.7114 11.2837 23.3241 10.8815 23.3241 10.8815L24.3493 12.1682C24.3493 12.1682 23.6589 13.4545 24.1872 15.0263C24.7155 16.5981 24.1592 17.8101 21.8099 17.9447C21.8099 17.9447 21.347 18.0229 21.1442 18.1475V18.2626C21.1442 18.2339 21.1269 18.2067 21.0975 18.1811C21.0681 18.2067 21.0508 18.2339 21.0508 18.2626V18.1475C20.848 18.0229 20.3851 17.9447 20.3851 17.9447C18.0358 17.8101 17.4795 16.5981 18.0078 15.0263C18.5361 13.4545 17.8457 12.1682 17.8457 12.1682L18.8709 10.8815C18.8709 10.8815 19.4836 11.2837 19.9343 11.2837C20.2889 11.2837 20.8343 11.0348 21.0508 10.9286V10.8815C21.0508 10.8815 21.0676 10.8903 21.0975 10.9054Z" fill="#E8AA00"/>
<path d="M21.1442 10.8815H22.1442V9.21983L20.6759 9.99786L21.1442 10.8815ZM21.0975 10.9054L20.6475 11.7985L21.0975 12.0252L21.5475 11.7985L21.0975 10.9054ZM21.1442 10.9286H20.1442V11.552L20.7038 11.8264L21.1442 10.9286ZM23.3241 10.8815L24.1062 10.2583L23.5379 9.54494L22.7753 10.0455L23.3241 10.8815ZM24.3493 12.1682L25.2304 12.6411L25.5421 12.0605L25.1314 11.5451L24.3493 12.1682ZM21.8099 17.9447L21.7527 16.9463L21.6977 16.9495L21.6433 16.9586L21.8099 17.9447ZM21.1442 18.1475L20.6207 17.2954L20.1442 17.5882V18.1475H21.1442ZM21.0975 18.1811L21.7547 17.4274L21.0975 16.8544L20.4403 17.4274L21.0975 18.1811ZM21.0508 18.1475H22.0508V17.5882L21.5743 17.2954L21.0508 18.1475ZM20.3851 17.9447L20.5517 16.9586L20.4973 16.9495L20.4423 16.9463L20.3851 17.9447ZM17.8457 12.1682L17.0636 11.5451L16.6529 12.0605L16.9646 12.6411L17.8457 12.1682ZM18.8709 10.8815L19.4197 10.0455L18.6571 9.54494L18.0888 10.2583L18.8709 10.8815ZM21.0508 10.9286L21.4912 11.8264L22.0508 11.552V10.9286H21.0508ZM21.0508 10.8815L21.5191 9.99786L20.0508 9.21983V10.8815H21.0508ZM21.1442 10.8815C20.6759 9.99786 20.6759 9.99786 20.676 9.99785C20.676 9.99784 20.676 9.99784 20.676 9.99783C20.676 9.99782 20.676 9.99781 20.676 9.9978C20.6761 9.99778 20.6761 9.99776 20.6762 9.99774C20.6762 9.9977 20.6763 9.99766 20.6764 9.99762C20.6765 9.99755 20.6766 9.99749 20.6767 9.99743C20.677 9.99732 20.6771 9.99724 20.6772 9.99719C20.6774 9.9971 20.6773 9.99714 20.677 9.9973C20.6764 9.99762 20.6748 9.99843 20.6724 9.99969C20.6675 10.0022 20.6591 10.0066 20.6475 10.0124L21.5475 11.7985C21.5659 11.7892 21.5808 11.7815 21.5917 11.7759C21.5972 11.773 21.6017 11.7707 21.6052 11.7689C21.6069 11.768 21.6084 11.7672 21.6096 11.7666C21.6102 11.7662 21.6107 11.766 21.6112 11.7657C21.6114 11.7656 21.6116 11.7655 21.6118 11.7654C21.6119 11.7653 21.612 11.7653 21.6121 11.7652C21.6122 11.7652 21.6122 11.7652 21.6123 11.7651C21.6123 11.7651 21.6123 11.7651 21.6123 11.7651C21.6123 11.7651 21.6123 11.7651 21.6124 11.7651C21.6124 11.7651 21.6124 11.7651 21.1442 10.8815ZM22.1442 10.9286V10.8815H20.1442V10.9286H22.1442ZM20.7038 11.8264C20.8288 11.8877 21.0547 11.9934 21.3091 12.0858C21.5357 12.1682 21.8989 12.2837 22.2607 12.2837V10.2837C22.2792 10.2837 22.2624 10.2856 22.1999 10.2706C22.1429 10.257 22.0723 10.2352 21.9922 10.2061C21.8311 10.1476 21.676 10.0757 21.5845 10.0307L20.7038 11.8264ZM22.2607 12.2837C22.7248 12.2837 23.1634 12.0949 23.3941 11.9841C23.5292 11.9193 23.6444 11.8554 23.7261 11.8076C23.7674 11.7834 23.8013 11.7627 23.8261 11.7472C23.8386 11.7395 23.8488 11.733 23.8566 11.728C23.8606 11.7255 23.8639 11.7233 23.8666 11.7215C23.868 11.7207 23.8692 11.7199 23.8702 11.7192C23.8708 11.7188 23.8712 11.7185 23.8717 11.7182C23.8719 11.7181 23.8721 11.7179 23.8723 11.7178C23.8724 11.7177 23.8726 11.7177 23.8726 11.7176C23.8728 11.7175 23.8729 11.7174 23.3241 10.8815C22.7753 10.0455 22.7755 10.0454 22.7756 10.0453C22.7757 10.0453 22.7758 10.0452 22.7759 10.0452C22.776 10.0451 22.7762 10.0449 22.7763 10.0449C22.7766 10.0447 22.7769 10.0445 22.7771 10.0443C22.7776 10.044 22.7779 10.0438 22.7781 10.0437C22.7785 10.0435 22.7783 10.0436 22.7776 10.044C22.7763 10.0449 22.7729 10.047 22.7677 10.0503C22.7573 10.0568 22.7397 10.0675 22.7166 10.0811C22.6693 10.1087 22.6032 10.1453 22.5288 10.181C22.4526 10.2176 22.3802 10.2472 22.3191 10.2662C22.2517 10.2873 22.2355 10.2837 22.2607 10.2837V12.2837ZM22.542 11.5046L23.5672 12.7913L25.1314 11.5451L24.1062 10.2583L22.542 11.5046ZM24.3493 12.1682C23.4682 11.6953 23.468 11.6956 23.4678 11.696C23.4678 11.6961 23.4676 11.6965 23.4674 11.6968C23.4672 11.6973 23.4669 11.6978 23.4666 11.6984C23.466 11.6995 23.4653 11.7007 23.4647 11.702C23.4633 11.7045 23.4618 11.7074 23.4601 11.7107C23.4568 11.7171 23.4528 11.7249 23.4482 11.734C23.4391 11.7521 23.4277 11.7754 23.4145 11.8036C23.3882 11.8601 23.3545 11.9366 23.3178 12.0312C23.2444 12.2196 23.157 12.4837 23.0907 12.8063C22.9581 13.4506 22.9053 14.3513 23.2393 15.3449L25.1351 14.7077C24.9408 14.1295 24.969 13.6012 25.0496 13.2093C25.0898 13.0139 25.142 12.8582 25.1817 12.7563C25.2013 12.7058 25.2175 12.6695 25.2269 12.6495C25.2315 12.6395 25.2345 12.6336 25.2352 12.6321C25.2356 12.6314 25.2354 12.6317 25.2346 12.6332C25.2342 12.634 25.2337 12.635 25.233 12.6363C25.2326 12.637 25.2323 12.6377 25.2318 12.6385C25.2316 12.6389 25.2314 12.6393 25.2312 12.6398C25.231 12.64 25.2309 12.6403 25.2308 12.6404C25.2306 12.6408 25.2304 12.6411 24.3493 12.1682ZM23.2393 15.3449C23.4558 15.9889 23.3635 16.303 23.2624 16.4454C23.1534 16.5988 22.8008 16.8863 21.7527 16.9463L21.8671 18.943C23.1683 18.8685 24.2685 18.4826 24.8929 17.6035C25.5252 16.7133 25.4469 15.6355 25.1351 14.7077L23.2393 15.3449ZM21.8099 17.9447C21.6433 16.9586 21.6432 16.9587 21.6431 16.9587C21.6431 16.9587 21.643 16.9587 21.6429 16.9587C21.6428 16.9587 21.6427 16.9588 21.6425 16.9588C21.6422 16.9588 21.6419 16.9589 21.6415 16.9589C21.6408 16.9591 21.64 16.9592 21.639 16.9594C21.6371 16.9597 21.6347 16.9601 21.632 16.9606C21.6264 16.9616 21.619 16.9629 21.6101 16.9645C21.5924 16.9677 21.5682 16.9723 21.539 16.9781C21.4813 16.9896 21.4011 17.0066 21.3115 17.029C21.1734 17.0633 20.8682 17.1433 20.6207 17.2954L21.6676 18.9995C21.6279 19.0239 21.6164 19.0236 21.6603 19.0084C21.6952 18.9963 21.7417 18.9829 21.7947 18.9697C21.8461 18.9569 21.8943 18.9466 21.9298 18.9396C21.9472 18.9361 21.9607 18.9336 21.9691 18.932C21.9732 18.9313 21.976 18.9308 21.9773 18.9306C21.978 18.9304 21.9782 18.9304 21.9781 18.9304C21.978 18.9304 21.9778 18.9305 21.9776 18.9305C21.9774 18.9305 21.9773 18.9306 21.9771 18.9306C21.977 18.9306 21.9769 18.9306 21.9768 18.9306C21.9767 18.9307 21.9766 18.9307 21.9766 18.9307C21.9765 18.9307 21.9764 18.9307 21.8099 17.9447ZM22.1442 18.2626V18.1475H20.1442V18.2626H22.1442ZM20.4403 18.9349C20.3808 18.883 20.1442 18.6586 20.1442 18.2626H22.1442C22.1442 17.8093 21.8729 17.5304 21.7547 17.4274L20.4403 18.9349ZM20.4403 17.4274C20.3221 17.5304 20.0508 17.8093 20.0508 18.2626H22.0508C22.0508 18.6586 21.8142 18.883 21.7547 18.9349L20.4403 17.4274ZM22.0508 18.2626V18.1475H20.0508V18.2626H22.0508ZM20.3851 17.9447C20.2186 18.9307 20.2185 18.9307 20.2184 18.9307C20.2184 18.9307 20.2183 18.9307 20.2182 18.9306C20.2181 18.9306 20.218 18.9306 20.2179 18.9306C20.2177 18.9306 20.2176 18.9305 20.2174 18.9305C20.2172 18.9305 20.217 18.9304 20.2169 18.9304C20.2168 18.9304 20.217 18.9304 20.2177 18.9306C20.219 18.9308 20.2218 18.9313 20.2259 18.932C20.2343 18.9336 20.2478 18.9361 20.2652 18.9396C20.3007 18.9466 20.3489 18.9569 20.4003 18.9697C20.4533 18.9829 20.4998 18.9963 20.5347 19.0084C20.5786 19.0236 20.5671 19.0239 20.5274 18.9995L21.5743 17.2954C21.3268 17.1433 21.0216 17.0633 20.8835 17.029C20.7939 17.0066 20.7137 16.9896 20.656 16.9781C20.6268 16.9723 20.6026 16.9677 20.5849 16.9645C20.576 16.9629 20.5686 16.9616 20.563 16.9606C20.5603 16.9601 20.5579 16.9597 20.556 16.9594C20.555 16.9592 20.5542 16.9591 20.5535 16.9589C20.5531 16.9589 20.5528 16.9588 20.5525 16.9588C20.5523 16.9588 20.5522 16.9587 20.5521 16.9587C20.552 16.9587 20.5519 16.9587 20.5519 16.9587C20.5518 16.9587 20.5517 16.9586 20.3851 17.9447ZM17.0599 14.7077C16.7481 15.6355 16.6698 16.7133 17.3021 17.6035C17.9265 18.4826 19.0267 18.8685 20.3279 18.943L20.4423 16.9463C19.3942 16.8863 19.0416 16.5988 18.9326 16.4454C18.8315 16.303 18.7392 15.9889 18.9557 15.3449L17.0599 14.7077ZM17.8457 12.1682C16.9646 12.6411 16.9644 12.6408 16.9642 12.6404C16.9641 12.6403 16.964 12.64 16.9638 12.6398C16.9636 12.6393 16.9634 12.6389 16.9632 12.6385C16.9627 12.6377 16.9624 12.637 16.962 12.6363C16.9613 12.635 16.9608 12.634 16.9604 12.6332C16.9596 12.6317 16.9594 12.6314 16.9598 12.6321C16.9605 12.6336 16.9635 12.6395 16.9681 12.6495C16.9775 12.6695 16.9937 12.7058 17.0133 12.7563C17.053 12.8582 17.1052 13.0139 17.1454 13.2093C17.226 13.6012 17.2542 14.1295 17.0599 14.7077L18.9557 15.3449C19.2897 14.3513 19.2369 13.4506 19.1043 12.8063C19.038 12.4837 18.9506 12.2196 18.8772 12.0312C18.8404 11.9366 18.8068 11.8601 18.7805 11.8036C18.7673 11.7754 18.7559 11.7521 18.7468 11.734C18.7422 11.7249 18.7382 11.7171 18.7349 11.7107C18.7332 11.7074 18.7317 11.7045 18.7303 11.702C18.7297 11.7007 18.729 11.6995 18.7284 11.6984C18.7281 11.6978 18.7278 11.6973 18.7276 11.6968C18.7274 11.6965 18.7272 11.6961 18.7272 11.696C18.727 11.6956 18.7268 11.6953 17.8457 12.1682ZM18.0888 10.2583L17.0636 11.5451L18.6278 12.7913L19.653 11.5046L18.0888 10.2583ZM19.9343 10.2837C19.9595 10.2837 19.9433 10.2873 19.8759 10.2662C19.8148 10.2472 19.7424 10.2176 19.6662 10.181C19.5918 10.1453 19.5257 10.1087 19.4784 10.0811C19.4553 10.0675 19.4377 10.0568 19.4273 10.0503C19.4221 10.047 19.4187 10.0449 19.4174 10.044C19.4167 10.0436 19.4165 10.0435 19.4169 10.0437C19.4171 10.0438 19.4174 10.044 19.4179 10.0443C19.4181 10.0445 19.4184 10.0447 19.4187 10.0449C19.4188 10.0449 19.419 10.0451 19.4191 10.0452C19.4192 10.0452 19.4193 10.0453 19.4194 10.0453C19.4195 10.0454 19.4197 10.0455 18.8709 10.8815C18.3221 11.7174 18.3222 11.7175 18.3224 11.7176C18.3224 11.7177 18.3226 11.7177 18.3227 11.7178C18.3229 11.7179 18.3231 11.7181 18.3233 11.7182C18.3238 11.7185 18.3242 11.7188 18.3248 11.7192C18.3258 11.7199 18.327 11.7207 18.3284 11.7215C18.3311 11.7233 18.3344 11.7255 18.3384 11.728C18.3462 11.733 18.3564 11.7395 18.3689 11.7472C18.3937 11.7627 18.4276 11.7834 18.4689 11.8076C18.5506 11.8554 18.6658 11.9193 18.8009 11.9841C19.0316 12.0949 19.4702 12.2837 19.9343 12.2837V10.2837ZM20.6105 10.0307C20.519 10.0757 20.3639 10.1476 20.2028 10.2061C20.1227 10.2352 20.0521 10.257 19.9951 10.2706C19.9326 10.2856 19.9158 10.2837 19.9343 10.2837V12.2837C20.2961 12.2837 20.6593 12.1682 20.8859 12.0858C21.1403 11.9934 21.3662 11.8877 21.4912 11.8264L20.6105 10.0307ZM22.0508 10.9286V10.8815H20.0508V10.9286H22.0508ZM21.0508 10.8815C20.5826 11.7651 20.5826 11.7651 20.5826 11.7651C20.5827 11.7651 20.5827 11.7651 20.5827 11.7651C20.5827 11.7651 20.5827 11.7651 20.5827 11.7651C20.5828 11.7652 20.5828 11.7652 20.5829 11.7652C20.583 11.7653 20.5831 11.7653 20.5832 11.7654C20.5834 11.7655 20.5836 11.7656 20.5838 11.7657C20.5843 11.766 20.5848 11.7662 20.5854 11.7666C20.5866 11.7672 20.5881 11.768 20.5898 11.7689C20.5933 11.7707 20.5978 11.773 20.6033 11.7759C20.6142 11.7815 20.6291 11.7892 20.6475 11.7985L21.5475 10.0124C21.5359 10.0066 21.5275 10.0022 21.5226 9.99969C21.5202 9.99843 21.5186 9.99762 21.518 9.9973C21.5177 9.99714 21.5176 9.9971 21.5178 9.99719C21.5179 9.99724 21.518 9.99732 21.5183 9.99743C21.5184 9.99749 21.5185 9.99755 21.5186 9.99762C21.5187 9.99766 21.5188 9.9977 21.5188 9.99774C21.5189 9.99776 21.5189 9.99778 21.519 9.9978C21.519 9.99781 21.519 9.99782 21.519 9.99783C21.519 9.99784 21.519 9.99784 21.519 9.99785C21.5191 9.99786 21.5191 9.99786 21.0508 10.8815Z" fill="#E8AA00" mask="url(#path-12-outside-1_5_7611)"/>
<mask id="mask1_5_7611" style="mask-type:alpha" maskUnits="userSpaceOnUse" x="16" y="9" width="10" height="11">
<mask id="path-14-outside-2_5_7611" maskUnits="userSpaceOnUse" x="15.824" y="8.88147" width="10" height="11" fill="black">
<rect fill="white" x="15.824" y="8.88147" width="10" height="11"/>
<path fill-rule="evenodd" clip-rule="evenodd" d="M21.0975 10.9054C21.1274 10.8903 21.1442 10.8815 21.1442 10.8815V10.9286C21.3607 11.0348 21.9061 11.2837 22.2607 11.2837C22.7114 11.2837 23.3241 10.8815 23.3241 10.8815L24.3493 12.1682C24.3493 12.1682 23.6589 13.4545 24.1872 15.0263C24.7155 16.5981 24.1592 17.8101 21.8099 17.9447C21.8099 17.9447 21.347 18.0229 21.1442 18.1475V18.2626C21.1442 18.2339 21.1269 18.2067 21.0975 18.1811C21.0681 18.2067 21.0508 18.2339 21.0508 18.2626V18.1475C20.848 18.0229 20.3851 17.9447 20.3851 17.9447C18.0358 17.8101 17.4795 16.5981 18.0078 15.0263C18.5361 13.4545 17.8457 12.1682 17.8457 12.1682L18.8709 10.8815C18.8709 10.8815 19.4836 11.2837 19.9343 11.2837C20.2889 11.2837 20.8343 11.0348 21.0508 10.9286V10.8815C21.0508 10.8815 21.0676 10.8903 21.0975 10.9054Z"/>
</mask>
<path fill-rule="evenodd" clip-rule="evenodd" d="M21.0975 10.9054C21.1274 10.8903 21.1442 10.8815 21.1442 10.8815V10.9286C21.3607 11.0348 21.9061 11.2837 22.2607 11.2837C22.7114 11.2837 23.3241 10.8815 23.3241 10.8815L24.3493 12.1682C24.3493 12.1682 23.6589 13.4545 24.1872 15.0263C24.7155 16.5981 24.1592 17.8101 21.8099 17.9447C21.8099 17.9447 21.347 18.0229 21.1442 18.1475V18.2626C21.1442 18.2339 21.1269 18.2067 21.0975 18.1811C21.0681 18.2067 21.0508 18.2339 21.0508 18.2626V18.1475C20.848 18.0229 20.3851 17.9447 20.3851 17.9447C18.0358 17.8101 17.4795 16.5981 18.0078 15.0263C18.5361 13.4545 17.8457 12.1682 17.8457 12.1682L18.8709 10.8815C18.8709 10.8815 19.4836 11.2837 19.9343 11.2837C20.2889 11.2837 20.8343 11.0348 21.0508 10.9286V10.8815C21.0508 10.8815 21.0676 10.8903 21.0975 10.9054Z" fill="white"/>
<path d="M21.1442 10.8815H22.1442V9.21983L20.6759 9.99786L21.1442 10.8815ZM21.0975 10.9054L20.6475 11.7985L21.0975 12.0252L21.5475 11.7985L21.0975 10.9054ZM21.1442 10.9286H20.1442V11.552L20.7038 11.8264L21.1442 10.9286ZM23.3241 10.8815L24.1062 10.2583L23.5379 9.54494L22.7753 10.0455L23.3241 10.8815ZM24.3493 12.1682L25.2304 12.6411L25.5421 12.0605L25.1314 11.5451L24.3493 12.1682ZM21.8099 17.9447L21.7527 16.9463L21.6977 16.9495L21.6433 16.9586L21.8099 17.9447ZM21.1442 18.1475L20.6207 17.2954L20.1442 17.5882V18.1475H21.1442ZM21.0975 18.1811L21.7547 17.4274L21.0975 16.8544L20.4403 17.4274L21.0975 18.1811ZM21.0508 18.1475H22.0508V17.5882L21.5743 17.2954L21.0508 18.1475ZM20.3851 17.9447L20.5517 16.9586L20.4973 16.9495L20.4423 16.9463L20.3851 17.9447ZM17.8457 12.1682L17.0636 11.5451L16.6529 12.0605L16.9646 12.6411L17.8457 12.1682ZM18.8709 10.8815L19.4197 10.0455L18.6571 9.54494L18.0888 10.2583L18.8709 10.8815ZM21.0508 10.9286L21.4912 11.8264L22.0508 11.552V10.9286H21.0508ZM21.0508 10.8815L21.5191 9.99786L20.0508 9.21983V10.8815H21.0508ZM21.1442 10.8815C20.6759 9.99786 20.6759 9.99786 20.676 9.99785C20.676 9.99784 20.676 9.99784 20.676 9.99783C20.676 9.99782 20.676 9.99781 20.676 9.9978C20.6761 9.99778 20.6761 9.99776 20.6762 9.99774C20.6762 9.9977 20.6763 9.99766 20.6764 9.99762C20.6765 9.99755 20.6766 9.99749 20.6767 9.99743C20.677 9.99732 20.6771 9.99724 20.6772 9.99719C20.6774 9.9971 20.6773 9.99714 20.677 9.9973C20.6764 9.99762 20.6748 9.99843 20.6724 9.99969C20.6675 10.0022 20.6591 10.0066 20.6475 10.0124L21.5475 11.7985C21.5659 11.7892 21.5808 11.7815 21.5917 11.7759C21.5972 11.773 21.6017 11.7707 21.6052 11.7689C21.6069 11.768 21.6084 11.7672 21.6096 11.7666C21.6102 11.7662 21.6107 11.766 21.6112 11.7657C21.6114 11.7656 21.6116 11.7655 21.6118 11.7654C21.6119 11.7653 21.612 11.7653 21.6121 11.7652C21.6122 11.7652 21.6122 11.7652 21.6123 11.7651C21.6123 11.7651 21.6123 11.7651 21.6123 11.7651C21.6123 11.7651 21.6123 11.7651 21.6124 11.7651C21.6124 11.7651 21.6124 11.7651 21.1442 10.8815ZM22.1442 10.9286V10.8815H20.1442V10.9286H22.1442ZM20.7038 11.8264C20.8288 11.8877 21.0547 11.9934 21.3091 12.0858C21.5357 12.1682 21.8989 12.2837 22.2607 12.2837V10.2837C22.2792 10.2837 22.2624 10.2856 22.1999 10.2706C22.1429 10.257 22.0723 10.2352 21.9922 10.2061C21.8311 10.1476 21.676 10.0757 21.5845 10.0307L20.7038 11.8264ZM22.2607 12.2837C22.7248 12.2837 23.1634 12.0949 23.3941 11.9841C23.5292 11.9193 23.6444 11.8554 23.7261 11.8076C23.7674 11.7834 23.8013 11.7627 23.8261 11.7472C23.8386 11.7395 23.8488 11.733 23.8566 11.728C23.8606 11.7255 23.8639 11.7233 23.8666 11.7215C23.868 11.7207 23.8692 11.7199 23.8702 11.7192C23.8708 11.7188 23.8712 11.7185 23.8717 11.7182C23.8719 11.7181 23.8721 11.7179 23.8723 11.7178C23.8724 11.7177 23.8726 11.7177 23.8726 11.7176C23.8728 11.7175 23.8729 11.7174 23.3241 10.8815C22.7753 10.0455 22.7755 10.0454 22.7756 10.0453C22.7757 10.0453 22.7758 10.0452 22.7759 10.0452C22.776 10.0451 22.7762 10.0449 22.7763 10.0449C22.7766 10.0447 22.7769 10.0445 22.7771 10.0443C22.7776 10.044 22.7779 10.0438 22.7781 10.0437C22.7785 10.0435 22.7783 10.0436 22.7776 10.044C22.7763 10.0449 22.7729 10.047 22.7677 10.0503C22.7573 10.0568 22.7397 10.0675 22.7166 10.0811C22.6693 10.1087 22.6032 10.1453 22.5288 10.181C22.4526 10.2176 22.3802 10.2472 22.3191 10.2662C22.2517 10.2873 22.2355 10.2837 22.2607 10.2837V12.2837ZM22.542 11.5046L23.5672 12.7913L25.1314 11.5451L24.1062 10.2583L22.542 11.5046ZM24.3493 12.1682C23.4682 11.6953 23.468 11.6956 23.4678 11.696C23.4678 11.6961 23.4676 11.6965 23.4674 11.6968C23.4672 11.6973 23.4669 11.6978 23.4666 11.6984C23.466 11.6995 23.4653 11.7007 23.4647 11.702C23.4633 11.7045 23.4618 11.7074 23.4601 11.7107C23.4568 11.7171 23.4528 11.7249 23.4482 11.734C23.4391 11.7521 23.4277 11.7754 23.4145 11.8036C23.3882 11.8601 23.3545 11.9366 23.3178 12.0312C23.2444 12.2196 23.157 12.4837 23.0907 12.8063C22.9581 13.4506 22.9053 14.3513 23.2393 15.3449L25.1351 14.7077C24.9408 14.1295 24.969 13.6012 25.0496 13.2093C25.0898 13.0139 25.142 12.8582 25.1817 12.7563C25.2013 12.7058 25.2175 12.6695 25.2269 12.6495C25.2315 12.6395 25.2345 12.6336 25.2352 12.6321C25.2356 12.6314 25.2354 12.6317 25.2346 12.6332C25.2342 12.634 25.2337 12.635 25.233 12.6363C25.2326 12.637 25.2323 12.6377 25.2318 12.6385C25.2316 12.6389 25.2314 12.6393 25.2312 12.6398C25.231 12.64 25.2309 12.6403 25.2308 12.6404C25.2306 12.6408 25.2304 12.6411 24.3493 12.1682ZM23.2393 15.3449C23.4558 15.9889 23.3635 16.303 23.2624 16.4454C23.1534 16.5988 22.8008 16.8863 21.7527 16.9463L21.8671 18.943C23.1683 18.8685 24.2685 18.4826 24.8929 17.6035C25.5252 16.7133 25.4469 15.6355 25.1351 14.7077L23.2393 15.3449ZM21.8099 17.9447C21.6433 16.9586 21.6432 16.9587 21.6431 16.9587C21.6431 16.9587 21.643 16.9587 21.6429 16.9587C21.6428 16.9587 21.6427 16.9588 21.6425 16.9588C21.6422 16.9588 21.6419 16.9589 21.6415 16.9589C21.6408 16.9591 21.64 16.9592 21.639 16.9594C21.6371 16.9597 21.6347 16.9601 21.632 16.9606C21.6264 16.9616 21.619 16.9629 21.6101 16.9645C21.5924 16.9677 21.5682 16.9723 21.539 16.9781C21.4813 16.9896 21.4011 17.0066 21.3115 17.029C21.1734 17.0633 20.8682 17.1433 20.6207 17.2954L21.6676 18.9995C21.6279 19.0239 21.6164 19.0236 21.6603 19.0084C21.6952 18.9963 21.7417 18.9829 21.7947 18.9697C21.8461 18.9569 21.8943 18.9466 21.9298 18.9396C21.9472 18.9361 21.9607 18.9336 21.9691 18.932C21.9732 18.9313 21.976 18.9308 21.9773 18.9306C21.978 18.9304 21.9782 18.9304 21.9781 18.9304C21.978 18.9304 21.9778 18.9305 21.9776 18.9305C21.9774 18.9305 21.9773 18.9306 21.9771 18.9306C21.977 18.9306 21.9769 18.9306 21.9768 18.9306C21.9767 18.9307 21.9766 18.9307 21.9766 18.9307C21.9765 18.9307 21.9764 18.9307 21.8099 17.9447ZM22.1442 18.2626V18.1475H20.1442V18.2626H22.1442ZM20.4403 18.9349C20.3808 18.883 20.1442 18.6586 20.1442 18.2626H22.1442C22.1442 17.8093 21.8729 17.5304 21.7547 17.4274L20.4403 18.9349ZM20.4403 17.4274C20.3221 17.5304 20.0508 17.8093 20.0508 18.2626H22.0508C22.0508 18.6586 21.8142 18.883 21.7547 18.9349L20.4403 17.4274ZM22.0508 18.2626V18.1475H20.0508V18.2626H22.0508ZM20.3851 17.9447C20.2186 18.9307 20.2185 18.9307 20.2184 18.9307C20.2184 18.9307 20.2183 18.9307 20.2182 18.9306C20.2181 18.9306 20.218 18.9306 20.2179 18.9306C20.2177 18.9306 20.2176 18.9305 20.2174 18.9305C20.2172 18.9305 20.217 18.9304 20.2169 18.9304C20.2168 18.9304 20.217 18.9304 20.2177 18.9306C20.219 18.9308 20.2218 18.9313 20.2259 18.932C20.2343 18.9336 20.2478 18.9361 20.2652 18.9396C20.3007 18.9466 20.3489 18.9569 20.4003 18.9697C20.4533 18.9829 20.4998 18.9963 20.5347 19.0084C20.5786 19.0236 20.5671 19.0239 20.5274 18.9995L21.5743 17.2954C21.3268 17.1433 21.0216 17.0633 20.8835 17.029C20.7939 17.0066 20.7137 16.9896 20.656 16.9781C20.6268 16.9723 20.6026 16.9677 20.5849 16.9645C20.576 16.9629 20.5686 16.9616 20.563 16.9606C20.5603 16.9601 20.5579 16.9597 20.556 16.9594C20.555 16.9592 20.5542 16.9591 20.5535 16.9589C20.5531 16.9589 20.5528 16.9588 20.5525 16.9588C20.5523 16.9588 20.5522 16.9587 20.5521 16.9587C20.552 16.9587 20.5519 16.9587 20.5519 16.9587C20.5518 16.9587 20.5517 16.9586 20.3851 17.9447ZM17.0599 14.7077C16.7481 15.6355 16.6698 16.7133 17.3021 17.6035C17.9265 18.4826 19.0267 18.8685 20.3279 18.943L20.4423 16.9463C19.3942 16.8863 19.0416 16.5988 18.9326 16.4454C18.8315 16.303 18.7392 15.9889 18.9557 15.3449L17.0599 14.7077ZM17.8457 12.1682C16.9646 12.6411 16.9644 12.6408 16.9642 12.6404C16.9641 12.6403 16.964 12.64 16.9638 12.6398C16.9636 12.6393 16.9634 12.6389 16.9632 12.6385C16.9627 12.6377 16.9624 12.637 16.962 12.6363C16.9613 12.635 16.9608 12.634 16.9604 12.6332C16.9596 12.6317 16.9594 12.6314 16.9598 12.6321C16.9605 12.6336 16.9635 12.6395 16.9681 12.6495C16.9775 12.6695 16.9937 12.7058 17.0133 12.7563C17.053 12.8582 17.1052 13.0139 17.1454 13.2093C17.226 13.6012 17.2542 14.1295 17.0599 14.7077L18.9557 15.3449C19.2897 14.3513 19.2369 13.4506 19.1043 12.8063C19.038 12.4837 18.9506 12.2196 18.8772 12.0312C18.8404 11.9366 18.8068 11.8601 18.7805 11.8036C18.7673 11.7754 18.7559 11.7521 18.7468 11.734C18.7422 11.7249 18.7382 11.7171 18.7349 11.7107C18.7332 11.7074 18.7317 11.7045 18.7303 11.702C18.7297 11.7007 18.729 11.6995 18.7284 11.6984C18.7281 11.6978 18.7278 11.6973 18.7276 11.6968C18.7274 11.6965 18.7272 11.6961 18.7272 11.696C18.727 11.6956 18.7268 11.6953 17.8457 12.1682ZM18.0888 10.2583L17.0636 11.5451L18.6278 12.7913L19.653 11.5046L18.0888 10.2583ZM19.9343 10.2837C19.9595 10.2837 19.9433 10.2873 19.8759 10.2662C19.8148 10.2472 19.7424 10.2176 19.6662 10.181C19.5918 10.1453 19.5257 10.1087 19.4784 10.0811C19.4553 10.0675 19.4377 10.0568 19.4273 10.0503C19.4221 10.047 19.4187 10.0449 19.4174 10.044C19.4167 10.0436 19.4165 10.0435 19.4169 10.0437C19.4171 10.0438 19.4174 10.044 19.4179 10.0443C19.4181 10.0445 19.4184 10.0447 19.4187 10.0449C19.4188 10.0449 19.419 10.0451 19.4191 10.0452C19.4192 10.0452 19.4193 10.0453 19.4194 10.0453C19.4195 10.0454 19.4197 10.0455 18.8709 10.8815C18.3221 11.7174 18.3222 11.7175 18.3224 11.7176C18.3224 11.7177 18.3226 11.7177 18.3227 11.7178C18.3229 11.7179 18.3231 11.7181 18.3233 11.7182C18.3238 11.7185 18.3242 11.7188 18.3248 11.7192C18.3258 11.7199 18.327 11.7207 18.3284 11.7215C18.3311 11.7233 18.3344 11.7255 18.3384 11.728C18.3462 11.733 18.3564 11.7395 18.3689 11.7472C18.3937 11.7627 18.4276 11.7834 18.4689 11.8076C18.5506 11.8554 18.6658 11.9193 18.8009 11.9841C19.0316 12.0949 19.4702 12.2837 19.9343 12.2837V10.2837ZM20.6105 10.0307C20.519 10.0757 20.3639 10.1476 20.2028 10.2061C20.1227 10.2352 20.0521 10.257 19.9951 10.2706C19.9326 10.2856 19.9158 10.2837 19.9343 10.2837V12.2837C20.2961 12.2837 20.6593 12.1682 20.8859 12.0858C21.1403 11.9934 21.3662 11.8877 21.4912 11.8264L20.6105 10.0307ZM22.0508 10.9286V10.8815H20.0508V10.9286H22.0508ZM21.0508 10.8815C20.5826 11.7651 20.5826 11.7651 20.5826 11.7651C20.5827 11.7651 20.5827 11.7651 20.5827 11.7651C20.5827 11.7651 20.5827 11.7651 20.5827 11.7651C20.5828 11.7652 20.5828 11.7652 20.5829 11.7652C20.583 11.7653 20.5831 11.7653 20.5832 11.7654C20.5834 11.7655 20.5836 11.7656 20.5838 11.7657C20.5843 11.766 20.5848 11.7662 20.5854 11.7666C20.5866 11.7672 20.5881 11.768 20.5898 11.7689C20.5933 11.7707 20.5978 11.773 20.6033 11.7759C20.6142 11.7815 20.6291 11.7892 20.6475 11.7985L21.5475 10.0124C21.5359 10.0066 21.5275 10.0022 21.5226 9.99969C21.5202 9.99843 21.5186 9.99762 21.518 9.9973C21.5177 9.99714 21.5176 9.9971 21.5178 9.99719C21.5179 9.99724 21.518 9.99732 21.5183 9.99743C21.5184 9.99749 21.5185 9.99755 21.5186 9.99762C21.5187 9.99766 21.5188 9.9977 21.5188 9.99774C21.5189 9.99776 21.5189 9.99778 21.519 9.9978C21.519 9.99781 21.519 9.99782 21.519 9.99783C21.519 9.99784 21.519 9.99784 21.519 9.99785C21.5191 9.99786 21.5191 9.99786 21.0508 10.8815Z" fill="white" mask="url(#path-14-outside-2_5_7611)"/>
</mask>
<g mask="url(#mask1_5_7611)">
<rect x="17.9673" y="10.7273" width="3.13043" height="3.81818" fill="#67BAFF"/>
<rect x="21.0977" y="10.7273" width="3.13043" height="3.81818" fill="white"/>
<rect x="17.5759" y="14.9091" width="7.82609" height="4.36364" fill="#C51918"/>
<path d="M22.614 14.275H22.2227V11.6603H22.614V14.275Z" fill="#C9A951"/>
<path d="M22.4555 13.0856L22.2648 13.3893L21.5894 13.0541L21.7801 12.7504L22.4555 13.0856Z" fill="#C9A951"/>
<path d="M22.4555 12.3583L22.2648 12.662L21.5894 12.3268L21.7801 12.0231L22.4555 12.3583Z" fill="#C9A951"/>
<path d="M22.3719 13.0856L22.5626 13.3893L23.238 13.0541L23.0473 12.7504L22.3719 13.0856Z" fill="#C9A951"/>
<path d="M22.3719 12.3583L22.5626 12.662L23.238 12.3268L23.0473 12.0231L22.3719 12.3583Z" fill="#C9A951"/>
<path fill-rule="evenodd" clip-rule="evenodd" d="M22.9451 15.705C22.9451 15.705 23.2173 15.4283 23.2173 15.5666C23.2173 15.705 23.2173 15.9376 23.0812 15.9376C22.9451 15.9376 22.311 15.8269 22.0695 15.5666C21.828 15.3064 21.317 14.8533 20.6592 14.9599C20.0014 15.0666 19.2213 15.8246 19.029 15.8246C18.8367 15.8246 18.4152 16.4088 18.7221 16.8651C19.029 17.3213 19.551 17.1798 19.551 17.3121C19.551 17.4445 19.6815 17.4597 20.1704 17.4597C20.6592 17.4597 20.8379 17.613 21.2611 17.613C21.6843 17.613 21.1214 17.6074 21.803 17.4597C22.4846 17.3121 23.0009 16.8651 22.6037 16.8651C22.2065 16.8651 22.0782 16.8651 21.803 16.8651C21.5279 16.8651 20.9154 17.0413 20.9154 16.8651C20.9154 16.6888 21.0514 16.3114 21.4272 16.5001C21.803 16.6888 22.8472 16.8327 23.2173 16.5001C23.5873 16.1675 23.7168 15.967 23.652 15.5666C23.5873 15.1663 23.0812 15.2815 23.0812 15.2815L22.9451 15.705Z" fill="#FBCD17"/>
<path fill-rule="evenodd" clip-rule="evenodd" d="M20.298 11.5698C20.0622 11.7532 20.2143 12.4234 19.8279 12.4234C19.4414 12.4234 18.8975 11.9215 18.7605 12.2527C18.6235 12.5838 18.7605 12.4726 18.7605 12.7546C18.7605 13.0366 18.4324 13.8203 18.5965 13.9528C18.7605 14.0853 18.9286 14.4344 18.8994 14.271C18.8703 14.1076 18.7463 13.8676 18.798 13.6069C18.748 13.3376 19.0744 13.0785 19.0744 13.0785C19.0744 13.0785 19.039 13.3581 19.0133 13.4624C19.0133 13.4624 18.9057 13.6728 18.9494 13.8126C18.9494 13.8126 19.0599 14.2065 19.1054 14.2337C19.1054 14.2337 19.135 13.301 19.1687 13.1473C19.2023 12.9936 19.4422 13.3207 19.522 13.2836C19.522 13.2836 19.5494 13.9214 19.5079 13.9974C19.5079 13.9974 19.4238 14.1482 19.4551 14.1964C19.4551 14.1964 19.5331 14.371 19.5997 14.3202C19.5997 14.3202 19.602 14.3165 19.6358 14.1466C19.6358 14.1466 19.5966 14.044 19.6579 13.8103C19.6579 13.8103 19.7226 13.2958 19.7493 13.4074C19.7493 13.4074 19.7373 13.6503 19.7681 13.7755C19.7681 13.7755 19.8173 14.0864 19.8272 14.1205C19.8272 14.1205 20.0634 14.4195 20.0696 14.2932C20.0696 14.2932 19.8433 14.0533 19.8918 13.8707C19.8918 13.8707 19.7622 13.3535 19.9431 13.2382C19.9431 13.2382 20.423 13.0408 20.4519 12.7031C20.4519 12.7031 20.5214 12.3181 20.5339 12.1416C20.5339 12.1416 20.4286 12.0898 20.6462 11.9986C20.6462 11.9986 20.9966 11.8791 20.7783 11.7129" fill="#D18219"/>
</g>
</g>
</g>
<defs>
<filter id="filter0_dd_5_7611" x="0" y="0" width="42" height="30" filterUnits="userSpaceOnUse" color-interpolation-filters="sRGB">
<feFlood flood-opacity="0" result="BackgroundImageFix"/>
<feColorMatrix in="SourceAlpha" type="matrix" values="0 0 0 0 0 0 0 0 0 0 0 0 0 0 0 0 0 0 127 0" result="hardAlpha"/>
<feOffset dy="1"/>
<feGaussianBlur stdDeviation="1"/>
<feColorMatrix type="matrix" values="0 0 0 0 0.0627451 0 0 0 0 0.0941176 0 0 0 0 0.156863 0 0 0 0.06 0"/>
<feBlend mode="normal" in2="BackgroundImageFix" result="effect1_dropShadow_5_7611"/>
<feColorMatrix in="SourceAlpha" type="matrix" values="0 0 0 0 0 0 0 0 0 0 0 0 0 0 0 0 0 0 127 0" result="hardAlpha"/>
<feOffset dy="1"/>
<feGaussianBlur stdDeviation="1.5"/>
<feColorMatrix type="matrix" values="0 0 0 0 0.0627451 0 0 0 0 0.0941176 0 0 0 0 0.156863 0 0 0 0.1 0"/>
<feBlend mode="normal" in2="effect1_dropShadow_5_7611" result="effect2_dropShadow_5_7611"/>
<feBlend mode="normal" in="SourceGraphic" in2="effect2_dropShadow_5_7611" result="shape"/>
</filter>
</defs>
</svg>
