<svg width="42" height="30" viewBox="0 0 42 30" fill="none" xmlns="http://www.w3.org/2000/svg">
<g filter="url(#filter0_dd_5_6988)">
<mask id="mask0_5_6988" style="mask-type:alpha" maskUnits="userSpaceOnUse" x="3" y="2" width="36" height="24">
<rect x="3" y="2" width="36" height="24" fill="white"/>
</mask>
<g mask="url(#mask0_5_6988)">
<path fill-rule="evenodd" clip-rule="evenodd" d="M3 2V26H39V2H3Z" fill="#4857A1"/>
<mask id="mask1_5_6988" style="mask-type:alpha" maskUnits="userSpaceOnUse" x="3" y="2" width="36" height="24">
<path fill-rule="evenodd" clip-rule="evenodd" d="M3 2V26H39V2H3Z" fill="white"/>
</mask>
<g mask="url(#mask1_5_6988)">
<path fill-rule="evenodd" clip-rule="evenodd" d="M3 2V10H39V2H3Z" fill="#C51918"/>
<path fill-rule="evenodd" clip-rule="evenodd" d="M3 18V26H39V18H3Z" fill="#F7FCFF"/>
<path fill-rule="evenodd" clip-rule="evenodd" d="M15.8878 5.80332L15.7605 5.34985C15.869 5.37948 15.9869 5.40989 16.1113 5.44115L16.1101 5.43533C17.5952 5.55507 19.8908 6.23837 20.3181 6.9641C20.4833 7.24461 20.319 7.48374 20.1038 7.79711L20.1038 7.79712L20.1037 7.79719C20.0716 7.84399 20.0383 7.89245 20.0048 7.94295C19.8966 8.10613 19.7985 8.26211 19.706 8.40912C19.3724 8.93949 19.1123 9.35298 18.7164 9.56538L18.7243 10.7664L12.0918 10.7157L12.0832 9.50255C11.7442 9.27686 11.5017 8.8913 11.1984 8.40913L11.1984 8.40912C11.1059 8.26212 11.0078 8.10613 10.8996 7.94296C10.8661 7.89243 10.8328 7.84395 10.8006 7.79712C10.5854 7.48375 10.4211 7.24462 10.5863 6.96411C10.9076 6.41846 12.3633 5.88778 13.6971 5.60712C13.9595 5.52417 14.2337 5.44666 14.5056 5.37244L14.627 5.45052C14.7325 5.43773 14.8346 5.4273 14.9327 5.41939L15.0855 5.72229H15.6255C15.6255 5.72229 15.9516 6.58284 15.9516 7.06074C15.9516 7.53865 15.6255 7.93386 15.6255 7.93386V8.26376C15.6821 8.26795 15.7415 8.27306 15.8032 8.27898C15.8036 8.25036 15.8067 8.22023 15.8129 8.18938C15.8441 8.03173 15.9414 7.9152 16.0301 7.9291C16.1187 7.943 16.1653 8.08206 16.134 8.23972C16.1289 8.26535 16.1221 8.28989 16.1138 8.31297C16.4637 8.35526 16.8558 8.41431 17.2273 8.47505C17.3687 8.23137 17.5411 7.9906 17.7058 7.76072L17.7058 7.76072L17.7058 7.76071C18.1314 7.16651 18.5049 6.64501 18.1563 6.33371C18.0902 6.27465 17.9705 6.21971 17.8161 6.16883C17.3061 6.05605 16.751 5.96907 16.2114 5.92557L16.1951 5.84676C16.0875 5.83121 15.9841 5.81673 15.8878 5.80332ZM18.408 8.6828C18.5966 8.71811 18.711 8.74058 18.711 8.74058L18.7121 8.91242C19.3692 8.46222 19.8341 7.46474 19.8761 7.13798C19.9013 6.94097 19.5498 6.71384 18.9988 6.50805C19.2596 6.94772 18.9103 7.38403 18.4719 7.93159L18.4719 7.93159C18.3072 8.13737 18.1299 8.35886 17.9677 8.60215L18.1286 8.63121C18.1272 8.58602 18.1339 8.53521 18.1496 8.48298C18.1962 8.32835 18.3045 8.2198 18.3915 8.24051C18.4785 8.26123 18.5112 8.40337 18.4646 8.558C18.4506 8.60453 18.431 8.64688 18.408 8.6828ZM15.019 8.26599V7.89858C15.019 7.89858 14.7367 7.6181 14.6929 7.03395C14.6616 6.61609 14.7586 6.12487 14.8163 5.87906C14.3951 5.92654 13.951 6.00027 13.5211 6.09082C13.2357 6.16224 13.0083 6.24313 12.9069 6.33371C12.5583 6.64502 12.9318 7.16651 13.3574 7.76072C13.5164 7.98276 13.6827 8.21497 13.8214 8.45015C14.0611 8.40401 14.302 8.3613 14.5269 8.32732C14.5172 8.29641 14.5103 8.26268 14.5068 8.22717C14.4911 8.06769 14.5511 7.93276 14.6408 7.92578C14.7305 7.91881 14.8159 8.04243 14.8316 8.20191C14.8345 8.23082 14.8348 8.25892 14.833 8.2856C14.8975 8.27791 14.9597 8.27131 15.019 8.26599ZM13.094 8.59983C12.9322 8.35746 12.7554 8.13672 12.5912 7.93159C12.143 7.37166 11.7878 6.92807 12.083 6.47825C11.4378 6.70032 11.0031 6.9415 11.0283 7.13799C11.0679 7.44673 11.4852 8.35422 12.0853 8.83312C12.1272 8.82274 12.3592 8.76551 12.6867 8.69068C12.6616 8.6558 12.6394 8.61426 12.6226 8.56827C12.5669 8.41602 12.5912 8.27255 12.6769 8.24782C12.7625 8.22308 12.8771 8.32645 12.9327 8.4787C12.9519 8.53124 12.9616 8.58274 12.9625 8.62867L13.094 8.59983Z" fill="#F6C540"/>
<path fill-rule="evenodd" clip-rule="evenodd" d="M16.1088 5.50604C16.1088 5.85751 15.7803 6.14244 15.3751 6.14244C14.9699 6.14244 14.6414 5.85751 14.6414 5.50604C14.6414 5.15456 14.9699 4.86963 15.3751 4.86963C15.7803 4.86963 16.1088 5.15456 16.1088 5.50604ZM15.375 10.232C15.6902 10.232 15.9457 10.1022 15.9457 9.94211C15.9457 9.78202 15.6902 9.65225 15.375 9.65225C15.0599 9.65225 14.8044 9.78202 14.8044 9.94211C14.8044 10.1022 15.0599 10.232 15.375 10.232ZM19.0436 10.1595C19.0436 10.2795 18.9341 10.3769 18.799 10.3769C18.6639 10.3769 18.5544 10.2795 18.5544 10.1595C18.5544 10.0394 18.6639 9.94208 18.799 9.94208C18.9341 9.94208 19.0436 10.0394 19.0436 10.1595ZM12.5218 10.1595C12.5218 10.2795 12.4123 10.3769 12.2773 10.3769C12.1422 10.3769 12.0327 10.2795 12.0327 10.1595C12.0327 10.0394 12.1422 9.94209 12.2773 9.94209C12.4123 9.94209 12.5218 10.0394 12.5218 10.1595Z" fill="#2E42A5"/>
<path fill-rule="evenodd" clip-rule="evenodd" d="M14.1523 10.0145C14.1523 10.1346 13.9698 10.2319 13.7446 10.2319C13.5195 10.2319 13.337 10.1346 13.337 10.0145C13.337 9.89445 13.5195 9.79712 13.7446 9.79712C13.9698 9.79712 14.1523 9.89445 14.1523 10.0145ZM17.5761 10.0145C17.5761 10.1346 17.3937 10.2319 17.1685 10.2319C16.9434 10.2319 16.7609 10.1346 16.7609 10.0145C16.7609 9.89445 16.9434 9.79712 17.1685 9.79712C17.3937 9.79712 17.5761 9.89445 17.5761 10.0145Z" fill="#C5363C"/>
<path fill-rule="evenodd" clip-rule="evenodd" d="M16.7609 8.20294C16.7609 8.36302 16.6879 8.4928 16.5979 8.4928C16.5079 8.4928 16.4349 8.36302 16.4349 8.20294C16.4349 8.04286 16.5079 7.91309 16.5979 7.91309C16.6879 7.91309 16.7609 8.04286 16.7609 8.20294ZM14.3072 8.15814C14.3629 8.31039 14.3386 8.45386 14.2529 8.4786C14.1673 8.50333 14.0527 8.39996 13.9971 8.24771C13.9414 8.09547 13.9658 7.95199 14.0514 7.92726C14.137 7.90253 14.2516 8.0059 14.3072 8.15814ZM12.3892 8.94399C12.4749 8.91926 12.4992 8.77578 12.4435 8.62354C12.3879 8.47129 12.2733 8.36792 12.1877 8.39265C12.1021 8.41739 12.0778 8.56086 12.1334 8.71311C12.1891 8.86536 12.3036 8.96873 12.3892 8.94399ZM18.8406 8.74728C18.7452 8.88304 18.6059 8.95871 18.5296 8.91629C18.4532 8.87388 18.4687 8.72944 18.5641 8.59368C18.6595 8.45792 18.7988 8.38225 18.8752 8.42467C18.9515 8.46709 18.9361 8.61152 18.8406 8.74728Z" fill="#F7FCFF"/>
<path fill-rule="evenodd" clip-rule="evenodd" d="M13.9902 5.79244C14.0356 5.82186 14.0916 5.83922 14.1521 5.83922C14.3043 5.83922 14.4277 5.72956 14.4277 5.59429C14.4277 5.45902 14.3043 5.34937 14.1521 5.34937C14.0442 5.34937 13.9508 5.40451 13.9056 5.48483C13.8601 5.45541 13.8041 5.43805 13.7436 5.43805C13.6465 5.43805 13.5612 5.48268 13.5121 5.55011C13.4645 5.51524 13.4035 5.49429 13.337 5.49429C13.1848 5.49429 13.0614 5.60395 13.0614 5.73922C13.0614 5.74677 13.0618 5.75425 13.0626 5.76163C13.012 5.70586 12.9346 5.67017 12.8478 5.67017C12.7099 5.67017 12.5957 5.7602 12.5754 5.87774C12.525 5.82075 12.4467 5.78415 12.3588 5.78415C12.2265 5.78415 12.116 5.86696 12.0894 5.97743C12.0441 5.94846 11.9885 5.9314 11.9285 5.9314C11.8064 5.9314 11.7028 6.00201 11.6667 6.09981C11.6296 6.0833 11.5877 6.07401 11.5434 6.07401C11.4075 6.07401 11.2945 6.16153 11.272 6.27665C11.2544 6.2735 11.2361 6.27185 11.2174 6.27185C11.0667 6.27185 10.9442 6.37943 10.9419 6.51292C10.9255 6.51021 10.9086 6.50879 10.8913 6.50879C10.7391 6.50879 10.6157 6.61845 10.6157 6.75372C10.6157 6.77086 10.6177 6.7876 10.6215 6.80375C10.6033 6.8004 10.5845 6.79864 10.5652 6.79864C10.413 6.79864 10.2897 6.9083 10.2897 7.04357C10.2897 7.14634 10.3609 7.23433 10.4618 7.27067C10.4559 7.2907 10.4527 7.31174 10.4527 7.33343C10.4527 7.43619 10.5239 7.52417 10.6249 7.56052C10.6189 7.58055 10.6157 7.60159 10.6157 7.62328C10.6157 7.75537 10.7333 7.86304 10.8806 7.86803C10.8185 7.91294 10.7789 7.98139 10.7789 8.05807C10.7789 8.19334 10.9022 8.303 11.0544 8.303C11.2066 8.303 11.33 8.19334 11.33 8.05807C11.33 7.92598 11.2123 7.81832 11.0651 7.81332C11.1272 7.76841 11.1668 7.69996 11.1668 7.62328C11.1668 7.52052 11.0956 7.43254 10.9947 7.39619C11.0006 7.37616 11.0038 7.35512 11.0038 7.33343C11.0038 7.23066 10.9326 7.14267 10.8316 7.10632C10.8376 7.08629 10.8408 7.06526 10.8408 7.04357C10.8408 7.02642 10.8388 7.00969 10.835 6.99353C10.8532 6.99688 10.872 6.99864 10.8913 6.99864C11.042 6.99864 11.1645 6.89107 11.1668 6.75758C11.1832 6.76029 11.2001 6.76171 11.2174 6.76171C11.3534 6.76171 11.4663 6.67418 11.4889 6.55906C11.5065 6.56221 11.5248 6.56386 11.5434 6.56386C11.6656 6.56386 11.7691 6.49325 11.8053 6.39545C11.8424 6.41196 11.8842 6.42125 11.9285 6.42125C11.989 6.42125 12.0449 6.40393 12.0904 6.37457C12.0989 6.40735 12.1149 6.4376 12.1366 6.46386C12.103 6.50444 12.0832 6.55456 12.0832 6.60879C12.0832 6.74083 12.2008 6.84848 12.3479 6.85353C12.2859 6.89844 12.2462 6.96689 12.2462 7.04357C12.2462 7.14634 12.3174 7.23432 12.4184 7.27067C12.4124 7.2907 12.4092 7.31173 12.4092 7.33343C12.4092 7.43619 12.4804 7.52417 12.5814 7.56052C12.5754 7.58055 12.5723 7.60159 12.5723 7.62328C12.5723 7.75855 12.6956 7.86821 12.8478 7.86821C13 7.86821 13.1233 7.75855 13.1233 7.62328C13.1233 7.52052 13.0521 7.43254 12.9512 7.39619C12.9572 7.37616 12.9603 7.35512 12.9603 7.33343C12.9603 7.23066 12.8891 7.14268 12.7882 7.10633C12.7941 7.0863 12.7973 7.06527 12.7973 7.04357C12.7973 6.91153 12.6798 6.80389 12.5326 6.79883C12.5947 6.75392 12.6343 6.68547 12.6343 6.60879C12.6343 6.55456 12.6145 6.50444 12.5809 6.46386C12.6145 6.42328 12.6343 6.37316 12.6343 6.31893C12.6343 6.2647 12.6145 6.21459 12.5809 6.174C12.6066 6.14293 12.6243 6.10626 12.6311 6.06643C12.6816 6.12342 12.7599 6.16002 12.8478 6.16002C13 6.16002 13.1233 6.05036 13.1233 5.91509C13.1233 5.90754 13.123 5.90007 13.1222 5.89269C13.1727 5.94846 13.2501 5.98415 13.337 5.98415C13.434 5.98415 13.5194 5.93952 13.5685 5.87209C13.6161 5.90696 13.6771 5.9279 13.7436 5.9279C13.8515 5.9279 13.9449 5.87276 13.9902 5.79244ZM12.1979 6.22797C12.2432 6.25694 12.2987 6.274 12.3588 6.274C12.4499 6.274 12.5308 6.23465 12.5809 6.174C12.5309 6.11359 12.4505 6.0743 12.3598 6.07401C12.3872 6.0735 12.4093 6.05359 12.4093 6.02909C12.4093 6.00428 12.3866 5.98416 12.3587 5.98416C12.3308 5.98416 12.3082 6.00428 12.3082 6.02909C12.3082 6.05359 12.3302 6.07351 12.3577 6.07401C12.2976 6.07422 12.2421 6.0915 12.1969 6.12069C12.1816 6.06206 12.1426 6.01151 12.0894 5.97743C12.0853 5.99408 12.0832 6.01136 12.0832 6.02908C12.0832 6.08331 12.103 6.13342 12.1366 6.174C12.103 6.21459 12.0832 6.2647 12.0832 6.31893C12.0832 6.33807 12.0857 6.35669 12.0904 6.37457C12.1443 6.33972 12.1834 6.28792 12.1979 6.22797ZM12.1979 6.22797C12.1744 6.21294 12.1537 6.19471 12.1366 6.174C12.1535 6.15359 12.1739 6.13559 12.1969 6.12069C12.2016 6.13856 12.2041 6.15719 12.2041 6.17632C12.2041 6.19404 12.2019 6.21132 12.1979 6.22797ZM12.3598 6.07401L12.3588 6.07401L12.3587 6.07402L12.3598 6.07401ZM12.3598 6.36386C12.4505 6.36415 12.5309 6.40344 12.5809 6.46386C12.5308 6.5245 12.4499 6.56386 12.3588 6.56386C12.2676 6.56386 12.1868 6.5245 12.1366 6.46386C12.1866 6.40346 12.2669 6.36418 12.3577 6.36386C12.3302 6.36337 12.3082 6.34345 12.3082 6.31894C12.3082 6.29413 12.3308 6.27402 12.3587 6.27402C12.3866 6.27402 12.4093 6.29413 12.4093 6.31894C12.4093 6.34344 12.3872 6.36336 12.3598 6.36386ZM12.3598 6.36386L12.3588 6.36386L12.3587 6.36387L12.3598 6.36386ZM12.9512 7.39619C12.9193 7.38469 12.8844 7.37836 12.8478 7.37836C12.72 7.37836 12.6126 7.45566 12.5814 7.56052C12.6133 7.57202 12.6482 7.57836 12.6848 7.57836C12.8126 7.57836 12.92 7.50105 12.9512 7.39619ZM12.7882 7.10633C12.7563 7.09483 12.7214 7.0885 12.6848 7.0885C12.557 7.0885 12.4496 7.16581 12.4184 7.27067C12.4503 7.28217 12.4852 7.2885 12.5218 7.2885C12.6495 7.2885 12.757 7.21119 12.7882 7.10633ZM12.5326 6.79883L12.5218 6.79865C12.4559 6.79865 12.3954 6.81922 12.3479 6.85353L12.3588 6.85372C12.4247 6.85372 12.4852 6.83314 12.5326 6.79883ZM11.0651 7.81332L11.0544 7.81314C10.9885 7.81314 10.928 7.83371 10.8806 7.86803L10.8913 7.86821C10.9572 7.86821 11.0177 7.84764 11.0651 7.81332ZM10.9947 7.39619C10.9635 7.50105 10.856 7.57836 10.7283 7.57836C10.6917 7.57836 10.6568 7.57202 10.6249 7.56052C10.656 7.45566 10.7635 7.37836 10.8913 7.37836C10.9278 7.37836 10.9627 7.38469 10.9947 7.39619ZM10.8316 7.10632C10.8005 7.21119 10.693 7.2885 10.5652 7.2885C10.5287 7.2885 10.4938 7.28217 10.4618 7.27067C10.493 7.16581 10.6005 7.0885 10.7283 7.0885C10.7648 7.0885 10.7997 7.09483 10.8316 7.10632ZM10.6215 6.80375C10.6437 6.89888 10.728 6.9738 10.835 6.99353C10.8128 6.8984 10.7285 6.82349 10.6215 6.80375ZM11.1668 6.75758C11.0388 6.73644 10.9419 6.63667 10.9419 6.51678L10.9419 6.51292C11.0699 6.53405 11.1668 6.63383 11.1668 6.75372L11.1668 6.75758ZM11.4889 6.55906C11.3628 6.53655 11.2679 6.4376 11.2679 6.31893C11.2679 6.30451 11.2693 6.29039 11.272 6.27665C11.398 6.29916 11.493 6.39811 11.493 6.51678C11.493 6.5312 11.4916 6.54532 11.4889 6.55906ZM11.8053 6.39545C11.715 6.35524 11.653 6.27222 11.653 6.17632C11.653 6.1496 11.6578 6.12388 11.6667 6.09981C11.757 6.14002 11.819 6.22304 11.819 6.31893C11.819 6.34565 11.8142 6.37137 11.8053 6.39545ZM12.6311 6.06643C12.5942 6.02477 12.5723 5.97221 12.5723 5.91509C12.5723 5.90239 12.5733 5.88992 12.5754 5.87774C12.6123 5.9194 12.6343 5.97196 12.6343 6.02908C12.6343 6.04178 12.6332 6.05425 12.6311 6.06643ZM13.0626 5.76163C13.0676 5.81101 13.0891 5.85615 13.1222 5.89269C13.1172 5.84331 13.0956 5.79816 13.0626 5.76163ZM13.5685 5.87209C13.5071 5.82717 13.468 5.75913 13.468 5.68298C13.468 5.634 13.4842 5.58838 13.5121 5.55011C13.5734 5.59503 13.6125 5.66307 13.6125 5.73922C13.6125 5.7882 13.5963 5.83382 13.5685 5.87209ZM13.9902 5.79244C13.9213 5.74791 13.8766 5.67575 13.8766 5.59429C13.8766 5.55495 13.887 5.51777 13.9056 5.48483C13.9744 5.52936 14.0191 5.60152 14.0191 5.68298C14.0191 5.72232 14.0087 5.7595 13.9902 5.79244ZM11.2174 6.56169C11.2453 6.56169 11.2679 6.54157 11.2679 6.51676C11.2679 6.49195 11.2453 6.47183 11.2174 6.47183C11.1895 6.47183 11.1668 6.49195 11.1668 6.51676C11.1668 6.54157 11.1895 6.56169 11.2174 6.56169ZM10.8913 6.79863C10.9193 6.79863 10.9419 6.77851 10.9419 6.7537C10.9419 6.72889 10.9193 6.70877 10.8913 6.70877C10.8634 6.70877 10.8408 6.72889 10.8408 6.7537C10.8408 6.77851 10.8634 6.79863 10.8913 6.79863ZM10.5652 7.08848C10.5931 7.08848 10.6157 7.06837 10.6157 7.04355C10.6157 7.01874 10.5931 6.99863 10.5652 6.99863C10.5373 6.99863 10.5146 7.01874 10.5146 7.04355C10.5146 7.06837 10.5373 7.08848 10.5652 7.08848ZM10.7283 7.37834C10.7563 7.37834 10.7789 7.35822 10.7789 7.33341C10.7789 7.3086 10.7563 7.28848 10.7283 7.28848C10.7004 7.28848 10.6778 7.3086 10.6778 7.33341C10.6778 7.35822 10.7004 7.37834 10.7283 7.37834ZM10.8913 7.66819C10.9193 7.66819 10.9419 7.64808 10.9419 7.62327C10.9419 7.59845 10.9193 7.57834 10.8913 7.57834C10.8634 7.57834 10.8408 7.59845 10.8408 7.62327C10.8408 7.64808 10.8634 7.66819 10.8913 7.66819ZM11.1049 8.05805C11.1049 8.08286 11.0823 8.10298 11.0544 8.10298C11.0264 8.10298 11.0038 8.08286 11.0038 8.05805C11.0038 8.03324 11.0264 8.01312 11.0544 8.01312C11.0823 8.01312 11.1049 8.03324 11.1049 8.05805ZM11.5435 6.36387C11.5714 6.36387 11.5941 6.34376 11.5941 6.31894C11.5941 6.29413 11.5714 6.27402 11.5435 6.27402C11.5156 6.27402 11.493 6.29413 11.493 6.31894C11.493 6.34376 11.5156 6.36387 11.5435 6.36387ZM11.9286 6.22126C11.9565 6.22126 11.9791 6.20115 11.9791 6.17634C11.9791 6.15152 11.9565 6.13141 11.9286 6.13141C11.9007 6.13141 11.8781 6.15152 11.8781 6.17634C11.8781 6.20115 11.9007 6.22126 11.9286 6.22126ZM12.8479 5.96003C12.8758 5.96003 12.8984 5.93992 12.8984 5.91511C12.8984 5.89029 12.8758 5.87018 12.8479 5.87018C12.82 5.87018 12.7973 5.89029 12.7973 5.91511C12.7973 5.93992 12.82 5.96003 12.8479 5.96003ZM13.337 5.78416C13.365 5.78416 13.3876 5.76405 13.3876 5.73923C13.3876 5.71442 13.365 5.69431 13.337 5.69431C13.3091 5.69431 13.2865 5.71442 13.2865 5.73923C13.2865 5.76405 13.3091 5.78416 13.337 5.78416ZM13.7437 5.72792C13.7716 5.72792 13.7942 5.7078 13.7942 5.68299C13.7942 5.65818 13.7716 5.63806 13.7437 5.63806C13.7158 5.63806 13.6931 5.65818 13.6931 5.68299C13.6931 5.7078 13.7158 5.72792 13.7437 5.72792ZM14.1522 5.63923C14.1801 5.63923 14.2028 5.61912 14.2028 5.5943C14.2028 5.56949 14.1801 5.54938 14.1522 5.54938C14.1243 5.54938 14.1017 5.56949 14.1017 5.5943C14.1017 5.61912 14.1243 5.63923 14.1522 5.63923ZM12.3587 6.65373C12.3866 6.65373 12.4093 6.63361 12.4093 6.6088C12.4093 6.58399 12.3866 6.56387 12.3587 6.56387C12.3308 6.56387 12.3082 6.58399 12.3082 6.6088C12.3082 6.63361 12.3308 6.65373 12.3587 6.65373ZM12.5217 7.08848C12.5496 7.08848 12.5723 7.06837 12.5723 7.04355C12.5723 7.01874 12.5496 6.99863 12.5217 6.99863C12.4938 6.99863 12.4712 7.01874 12.4712 7.04355C12.4712 7.06837 12.4938 7.08848 12.5217 7.08848ZM12.6849 7.37834C12.7128 7.37834 12.7354 7.35822 12.7354 7.33341C12.7354 7.3086 12.7128 7.28848 12.6849 7.28848C12.657 7.28848 12.6343 7.3086 12.6343 7.33341C12.6343 7.35822 12.657 7.37834 12.6849 7.37834ZM12.8479 7.66819C12.8758 7.66819 12.8984 7.64808 12.8984 7.62327C12.8984 7.59845 12.8758 7.57834 12.8479 7.57834C12.82 7.57834 12.7973 7.59845 12.7973 7.62327C12.7973 7.64808 12.82 7.66819 12.8479 7.66819ZM20.0218 8.10298C20.0497 8.10298 20.0724 8.08286 20.0724 8.05805C20.0724 8.03324 20.0497 8.01312 20.0218 8.01312C19.9939 8.01312 19.9713 8.03324 19.9713 8.05805C19.9713 8.08286 19.9939 8.10298 20.0218 8.10298ZM19.7462 8.05807C19.7462 8.19334 19.8696 8.303 20.0217 8.303C20.1739 8.303 20.2973 8.19334 20.2973 8.05807C20.2973 7.98139 20.2576 7.91294 20.1956 7.86803C20.3428 7.86303 20.4604 7.75537 20.4604 7.62328C20.4604 7.60159 20.4572 7.58055 20.4513 7.56052C20.5522 7.52417 20.6234 7.43619 20.6234 7.33343C20.6234 7.31173 20.6203 7.2907 20.6143 7.27067C20.7152 7.23432 20.7864 7.14634 20.7864 7.04357C20.7864 6.9083 20.6631 6.79865 20.5109 6.79865C20.4916 6.79865 20.4728 6.8004 20.4547 6.80375C20.4584 6.7876 20.4604 6.77086 20.4604 6.75372C20.4604 6.61845 20.3371 6.50879 20.1849 6.50879C20.1676 6.50879 20.1506 6.51021 20.1342 6.51292C20.1319 6.37943 20.0094 6.27185 19.8587 6.27185C19.84 6.27185 19.8218 6.2735 19.8041 6.27665C19.7816 6.16153 19.6687 6.07401 19.5327 6.07401C19.4884 6.07401 19.4465 6.0833 19.4095 6.09981C19.3733 6.00201 19.2697 5.9314 19.1476 5.9314C19.0876 5.9314 19.032 5.94846 18.9868 5.97744C18.9601 5.86696 18.8496 5.78415 18.7174 5.78415C18.6295 5.78415 18.5512 5.82075 18.5007 5.87774C18.4805 5.7602 18.3662 5.67017 18.2283 5.67017C18.1415 5.67017 18.0641 5.70586 18.0136 5.76163C18.0143 5.75425 18.0147 5.74677 18.0147 5.73922C18.0147 5.60395 17.8914 5.49429 17.7392 5.49429C17.6727 5.49429 17.6117 5.51524 17.5641 5.55011C17.515 5.48268 17.4296 5.43805 17.3326 5.43805C17.272 5.43805 17.216 5.45541 17.1706 5.48483C17.1253 5.40451 17.0319 5.34937 16.924 5.34937C16.7718 5.34937 16.6485 5.45902 16.6485 5.59429C16.6485 5.72956 16.7718 5.83922 16.924 5.83922C16.9845 5.83922 17.0405 5.82186 17.086 5.79244C17.1312 5.87276 17.2246 5.9279 17.3326 5.9279C17.3991 5.9279 17.4601 5.90696 17.5077 5.87209C17.5567 5.93952 17.6421 5.98415 17.7392 5.98415C17.826 5.98415 17.9034 5.94846 17.9539 5.89269C17.9532 5.90007 17.9528 5.90754 17.9528 5.91509C17.9528 6.05036 18.0762 6.16002 18.2283 6.16002C18.3163 6.16002 18.3946 6.12342 18.445 6.06643C18.4519 6.10625 18.4695 6.14293 18.4952 6.174C18.4617 6.21459 18.4418 6.2647 18.4418 6.31893C18.4418 6.37317 18.4617 6.42328 18.4952 6.46386C18.4617 6.50445 18.4418 6.55456 18.4418 6.60879C18.4418 6.68547 18.4815 6.75392 18.5435 6.79883C18.3964 6.80388 18.2788 6.91152 18.2788 7.04357C18.2788 7.06527 18.282 7.0863 18.288 7.10633C18.187 7.14268 18.1158 7.23066 18.1158 7.33343C18.1158 7.35512 18.119 7.37616 18.1249 7.39619C18.024 7.43254 17.9528 7.52052 17.9528 7.62328C17.9528 7.75855 18.0762 7.86821 18.2283 7.86821C18.3805 7.86821 18.5039 7.75855 18.5039 7.62328C18.5039 7.60159 18.5007 7.58056 18.4948 7.56053C18.5957 7.52418 18.6669 7.43619 18.6669 7.33343C18.6669 7.31173 18.6637 7.2907 18.6578 7.27067C18.7587 7.23432 18.8299 7.14634 18.8299 7.04357C18.8299 6.96689 18.7903 6.89844 18.7282 6.85353C18.8754 6.84848 18.9929 6.74084 18.9929 6.60879C18.9929 6.55456 18.9731 6.50444 18.9395 6.46386C18.9612 6.4376 18.9772 6.40735 18.9858 6.37457C19.0312 6.40393 19.0872 6.42125 19.1476 6.42125C19.1919 6.42125 19.2338 6.41196 19.2709 6.39544C19.307 6.49324 19.4106 6.56386 19.5327 6.56386C19.5514 6.56386 19.5696 6.5622 19.5873 6.55905C19.6098 6.67418 19.7228 6.76171 19.8587 6.76171C19.876 6.76171 19.8929 6.76028 19.9094 6.75757C19.9117 6.89106 20.0341 6.99864 20.1849 6.99864C20.2041 6.99864 20.223 6.99688 20.2411 6.99354C20.2373 7.00969 20.2354 7.02643 20.2354 7.04357C20.2354 7.06527 20.2385 7.0863 20.2445 7.10633C20.1435 7.14268 20.0723 7.23066 20.0723 7.33343C20.0723 7.35512 20.0755 7.37616 20.0815 7.39619C19.9805 7.43254 19.9093 7.52052 19.9093 7.62328C19.9093 7.69996 19.949 7.76841 20.011 7.81332C19.8638 7.81831 19.7462 7.92598 19.7462 8.05807ZM18.8782 6.22796C18.833 6.25694 18.7774 6.274 18.7174 6.274C18.6262 6.274 18.5454 6.23465 18.4952 6.174C18.5452 6.11358 18.6256 6.07429 18.7164 6.07401C18.689 6.0735 18.6669 6.05359 18.6669 6.02909C18.6669 6.00428 18.6895 5.98416 18.7175 5.98416C18.7454 5.98416 18.768 6.00428 18.768 6.02909C18.768 6.05359 18.7459 6.07351 18.7185 6.07401L18.7174 6.07401L18.7175 6.07402L18.7185 6.07401C18.7785 6.07422 18.8341 6.09151 18.8792 6.12069C18.8746 6.13856 18.8721 6.15719 18.8721 6.17632C18.8721 6.19404 18.8742 6.21131 18.8782 6.22796ZM18.9395 6.174C18.9731 6.21458 18.9929 6.2647 18.9929 6.31893C18.9929 6.33807 18.9905 6.35669 18.9858 6.37457C18.9319 6.33972 18.8927 6.28791 18.8782 6.22796C18.9017 6.21294 18.9224 6.19471 18.9395 6.174ZM18.9395 6.174C18.9226 6.15359 18.9023 6.13559 18.8792 6.12069C18.8945 6.06206 18.9335 6.01151 18.9868 5.97744C18.9908 5.99408 18.9929 6.01136 18.9929 6.02908C18.9929 6.08331 18.9731 6.13342 18.9395 6.174ZM18.7185 6.36386C18.7459 6.36337 18.768 6.34345 18.768 6.31894C18.768 6.29413 18.7454 6.27402 18.7175 6.27402C18.6895 6.27402 18.6669 6.29413 18.6669 6.31894C18.6669 6.34344 18.689 6.36336 18.7164 6.36386C18.6256 6.36414 18.5452 6.40344 18.4952 6.46386C18.5454 6.5245 18.6262 6.56386 18.7174 6.56386C18.8085 6.56386 18.8894 6.5245 18.9395 6.46386C18.8896 6.40347 18.8092 6.36418 18.7185 6.36386ZM18.7185 6.36386L18.7175 6.36387L18.7174 6.36386L18.7185 6.36386ZM18.4948 7.56053C18.4636 7.45567 18.3561 7.37836 18.2283 7.37836C18.1918 7.37836 18.1569 7.38469 18.1249 7.39619C18.1561 7.50105 18.2636 7.57836 18.3914 7.57836C18.4279 7.57836 18.4628 7.57202 18.4948 7.56053ZM18.6578 7.27067C18.6266 7.16581 18.5191 7.0885 18.3914 7.0885C18.3548 7.0885 18.3199 7.09483 18.288 7.10633C18.3191 7.21119 18.4266 7.2885 18.5544 7.2885C18.5909 7.2885 18.6258 7.28217 18.6578 7.27067ZM18.7282 6.85353C18.6808 6.81922 18.6203 6.79865 18.5544 6.79865L18.5435 6.79883C18.591 6.83315 18.6515 6.85372 18.7174 6.85372L18.7282 6.85353ZM17.086 5.79244C17.1548 5.74791 17.1995 5.67575 17.1995 5.59429C17.1995 5.55495 17.1891 5.51777 17.1706 5.48483C17.1017 5.52936 17.057 5.60152 17.057 5.68298C17.057 5.72232 17.0674 5.7595 17.086 5.79244ZM17.5077 5.87209C17.569 5.82717 17.6081 5.75913 17.6081 5.68298C17.6081 5.634 17.5919 5.58838 17.5641 5.55011C17.5027 5.59503 17.4636 5.66307 17.4636 5.73922C17.4636 5.7882 17.4798 5.83382 17.5077 5.87209ZM18.0136 5.76163C18.0085 5.81101 17.987 5.85615 17.9539 5.89269C17.959 5.84331 17.9805 5.79816 18.0136 5.76163ZM18.445 6.06643C18.4819 6.02477 18.5039 5.97221 18.5039 5.91509C18.5039 5.90239 18.5028 5.88992 18.5007 5.87774C18.4638 5.9194 18.4418 5.97196 18.4418 6.02908C18.4418 6.04178 18.4429 6.05425 18.445 6.06643ZM19.2709 6.39544C19.3612 6.35523 19.4232 6.27222 19.4232 6.17632C19.4232 6.1496 19.4184 6.12388 19.4095 6.09981C19.3192 6.14002 19.2572 6.22304 19.2572 6.31893C19.2572 6.34565 19.262 6.37137 19.2709 6.39544ZM19.5873 6.55905C19.7133 6.53655 19.8082 6.4376 19.8082 6.31893C19.8082 6.30452 19.8068 6.29039 19.8041 6.27665C19.6781 6.29916 19.5832 6.39812 19.5832 6.51678C19.5832 6.5312 19.5846 6.54532 19.5873 6.55905ZM20.2411 6.99354C20.3481 6.97381 20.4324 6.89889 20.4547 6.80375C20.3476 6.82348 20.2633 6.8984 20.2411 6.99354ZM20.1342 6.51292L20.1343 6.51678C20.1343 6.63667 20.0374 6.73643 19.9094 6.75757L19.9093 6.75372C19.9093 6.63383 20.0062 6.53406 20.1342 6.51292ZM20.2445 7.10633C20.2764 7.09483 20.3113 7.0885 20.3479 7.0885C20.4757 7.0885 20.5831 7.1658 20.6143 7.27067C20.5824 7.28216 20.5475 7.2885 20.5109 7.2885C20.3831 7.2885 20.2757 7.21119 20.2445 7.10633ZM20.0815 7.39619C20.1134 7.38469 20.1483 7.37836 20.1849 7.37836C20.3126 7.37836 20.4201 7.45566 20.4513 7.56052C20.4194 7.57202 20.3845 7.57836 20.3479 7.57836C20.2201 7.57836 20.1127 7.50105 20.0815 7.39619ZM20.1849 7.86821C20.119 7.86821 20.0585 7.84764 20.011 7.81332L20.0217 7.81314C20.0876 7.81314 20.1482 7.83371 20.1956 7.86803L20.1849 7.86821ZM20.1848 7.66819C20.2127 7.66819 20.2354 7.64808 20.2354 7.62327C20.2354 7.59845 20.2127 7.57834 20.1848 7.57834C20.1569 7.57834 20.1343 7.59845 20.1343 7.62327C20.1343 7.64808 20.1569 7.66819 20.1848 7.66819ZM20.3478 7.37834C20.3757 7.37834 20.3984 7.35822 20.3984 7.33341C20.3984 7.3086 20.3757 7.28848 20.3478 7.28848C20.3199 7.28848 20.2973 7.3086 20.2973 7.33341C20.2973 7.35822 20.3199 7.37834 20.3478 7.37834ZM20.5108 7.08848C20.5388 7.08848 20.5614 7.06837 20.5614 7.04355C20.5614 7.01874 20.5388 6.99863 20.5108 6.99863C20.4829 6.99863 20.4603 7.01874 20.4603 7.04355C20.4603 7.06837 20.4829 7.08848 20.5108 7.08848ZM20.1848 6.79863C20.2127 6.79863 20.2354 6.77851 20.2354 6.7537C20.2354 6.72889 20.2127 6.70877 20.1848 6.70877C20.1569 6.70877 20.1343 6.72889 20.1343 6.7537C20.1343 6.77851 20.1569 6.79863 20.1848 6.79863ZM19.8587 6.56169C19.8866 6.56169 19.9092 6.54157 19.9092 6.51676C19.9092 6.49195 19.8866 6.47183 19.8587 6.47183C19.8307 6.47183 19.8081 6.49195 19.8081 6.51676C19.8081 6.54157 19.8307 6.56169 19.8587 6.56169ZM19.5326 6.36387C19.5606 6.36387 19.5832 6.34376 19.5832 6.31894C19.5832 6.29413 19.5606 6.27402 19.5326 6.27402C19.5047 6.27402 19.4821 6.29413 19.4821 6.31894C19.4821 6.34376 19.5047 6.36387 19.5326 6.36387ZM19.1476 6.22126C19.1755 6.22126 19.1981 6.20115 19.1981 6.17634C19.1981 6.15152 19.1755 6.13141 19.1476 6.13141C19.1197 6.13141 19.097 6.15152 19.097 6.17634C19.097 6.20115 19.1197 6.22126 19.1476 6.22126ZM18.2283 5.96003C18.2562 5.96003 18.2788 5.93992 18.2788 5.91511C18.2788 5.89029 18.2562 5.87018 18.2283 5.87018C18.2004 5.87018 18.1777 5.89029 18.1777 5.91511C18.1777 5.93992 18.2004 5.96003 18.2283 5.96003ZM17.7391 5.78416C17.767 5.78416 17.7897 5.76405 17.7897 5.73923C17.7897 5.71442 17.767 5.69431 17.7391 5.69431C17.7112 5.69431 17.6886 5.71442 17.6886 5.73923C17.6886 5.76405 17.7112 5.78416 17.7391 5.78416ZM17.3325 5.72792C17.3604 5.72792 17.383 5.7078 17.383 5.68299C17.383 5.65818 17.3604 5.63806 17.3325 5.63806C17.3046 5.63806 17.282 5.65818 17.282 5.68299C17.282 5.7078 17.3046 5.72792 17.3325 5.72792ZM16.9239 5.63923C16.9519 5.63923 16.9745 5.61912 16.9745 5.5943C16.9745 5.56949 16.9519 5.54938 16.9239 5.54938C16.896 5.54938 16.8734 5.56949 16.8734 5.5943C16.8734 5.61912 16.896 5.63923 16.9239 5.63923ZM18.7175 6.65373C18.7454 6.65373 18.768 6.63361 18.768 6.6088C18.768 6.58399 18.7454 6.56387 18.7175 6.56387C18.6895 6.56387 18.6669 6.58399 18.6669 6.6088C18.6669 6.63361 18.6895 6.65373 18.7175 6.65373ZM18.5543 7.08848C18.5822 7.08848 18.6049 7.06837 18.6049 7.04355C18.6049 7.01874 18.5822 6.99863 18.5543 6.99863C18.5264 6.99863 18.5038 7.01874 18.5038 7.04355C18.5038 7.06837 18.5264 7.08848 18.5543 7.08848ZM18.3913 7.37834C18.4192 7.37834 18.4418 7.35822 18.4418 7.33341C18.4418 7.3086 18.4192 7.28848 18.3913 7.28848C18.3634 7.28848 18.3408 7.3086 18.3408 7.33341C18.3408 7.35822 18.3634 7.37834 18.3913 7.37834ZM18.2283 7.66819C18.2562 7.66819 18.2788 7.64808 18.2788 7.62327C18.2788 7.59845 18.2562 7.57834 18.2283 7.57834C18.2004 7.57834 18.1777 7.59845 18.1777 7.62327C18.1777 7.64808 18.2004 7.66819 18.2283 7.66819Z" fill="white"/>
<path fill-rule="evenodd" clip-rule="evenodd" d="M15.4892 4.15413L15.2475 4.15765L15.2479 4.51077L14.8019 4.51055L14.8073 4.72492L15.2482 4.72515L15.2487 5.12762L15.4904 5.12411L15.4899 4.72527L15.9288 4.72549L15.9235 4.51111L15.4896 4.51089L15.4892 4.15413Z" fill="#F6C540"/>
<path fill-rule="evenodd" clip-rule="evenodd" d="M9.50793 10.7343H21.2079V19.5677C21.2079 19.5677 20.8541 23.9678 15.3579 23.9678C9.86175 23.9678 9.50793 19.5677 9.50793 19.5677V10.7343Z" fill="#C51918"/>
<path fill-rule="evenodd" clip-rule="evenodd" d="M13.0392 11.0399C12.9319 11.0399 12.7667 11.1084 12.5478 11.186C12.3289 11.2635 12.099 11.431 12.3234 11.5987C12.5478 11.7664 12.8691 12.1345 12.8691 11.9969C12.8691 11.8593 13.2528 11.7258 13.2528 11.7925C13.2528 11.8593 13.134 11.9969 13.4457 11.9969C13.7573 11.9969 13.9179 12.0787 13.5854 12.0787C13.2528 12.0787 13.2167 12.214 13.0006 12.214C12.7845 12.214 12.3234 12.0777 12.3234 11.9969C12.3234 11.9161 12.5904 12.3943 12.8691 12.3943C13.1477 12.3943 13.306 12.6269 13.4457 12.5106C13.5854 12.3943 13.5688 12.3943 13.7945 12.3943C14.0202 12.3943 13.9378 11.9244 13.9378 11.9244C13.9378 11.9244 13.1464 11.0399 13.0392 11.0399Z" fill="#E8AA00"/>
<path fill-rule="evenodd" clip-rule="evenodd" d="M17.5542 11.0399C17.6615 11.0399 17.8267 11.1084 18.0456 11.186C18.2645 11.2635 18.4944 11.431 18.27 11.5987C18.0456 11.7664 17.7243 12.1345 17.7243 11.9969C17.7243 11.8593 17.3406 11.7258 17.3406 11.7925C17.3406 11.8593 17.4594 11.9969 17.1477 11.9969C16.836 11.9969 16.6755 12.0787 17.008 12.0787C17.3406 12.0787 17.3767 12.214 17.5928 12.214C17.8089 12.214 18.27 12.0777 18.27 11.9969C18.27 11.9161 18.003 12.3943 17.7243 12.3943C17.4457 12.3943 17.2874 12.6269 17.1477 12.5106C17.008 12.3943 17.0246 12.3943 16.7989 12.3943C16.5732 12.3943 16.6556 11.9244 16.6556 11.9244C16.6556 11.9244 17.4469 11.0399 17.5542 11.0399Z" fill="#E8AA00"/>
<path fill-rule="evenodd" clip-rule="evenodd" d="M11.4383 12.0003C11.214 12.4652 12.9329 14.1923 12.9329 14.1923H13.1254C13.2063 14.1923 13.3567 14.0154 13.5383 13.8018C13.6628 13.6554 13.802 13.4918 13.9434 13.356C14.2095 13.1007 14.0685 12.8862 13.937 12.6862C13.8966 12.6248 13.8572 12.5648 13.8307 12.5053C13.7732 12.3766 13.7651 12.3252 13.7557 12.2665C13.7467 12.2099 13.7367 12.1465 13.6803 12.0003C13.5975 11.7854 13.3086 11.5082 13.1084 11.316C13.031 11.2418 12.9669 11.1802 12.9329 11.1398C12.8257 11.0123 12.9071 11.0131 13.1309 11.0151C13.1616 11.0154 13.195 11.0157 13.2309 11.0157C13.5289 11.0157 14.0982 11.1398 14.2684 11.2848C14.4385 11.4298 14.617 11.4608 14.8791 11.4608C15.1413 11.4608 14.9796 11.6177 14.7408 11.7237C14.9979 11.7674 15.1144 12.1482 15.1673 12.4864C15.2641 12.1482 15.4289 11.7674 15.6859 11.7237C15.4472 11.6177 15.2855 11.4608 15.5476 11.4608C15.8098 11.4608 15.9882 11.4298 16.1584 11.2848C16.3286 11.1398 16.8978 11.0157 17.1958 11.0157C17.2318 11.0157 17.2652 11.0154 17.2959 11.0151C17.5197 11.0131 17.6011 11.0123 17.4938 11.1398C17.4599 11.1802 17.3957 11.2418 17.3184 11.316C17.1181 11.5082 16.8293 11.7854 16.7465 12.0003C16.6901 12.1465 16.68 12.2099 16.671 12.2665C16.6617 12.3252 16.6535 12.3766 16.5961 12.5053C16.5696 12.5648 16.5301 12.6248 16.4897 12.6862C16.3583 12.8862 16.2172 13.1007 16.4833 13.356C16.6248 13.4918 16.7639 13.6554 16.8884 13.8018C17.0701 14.0154 17.2205 14.1923 17.3014 14.1923H17.4938C17.4938 14.1923 19.2128 12.4652 18.9885 12.0003C18.9018 11.8206 18.762 11.6512 18.6462 11.5111C18.4626 11.2887 18.3397 11.1398 18.5864 11.1398C18.9885 11.1398 20.5914 12.0433 20.5914 14.0806C20.5914 16.1178 20.4434 17.2764 20.0997 18.0882C19.8651 18.6421 20.08 19.18 20.2401 19.581C20.3146 19.7676 20.3773 19.9245 20.3773 20.0395C20.3773 20.4017 19.7461 20.0843 19.7461 19.8575C19.7461 19.7496 19.6597 19.9103 19.5691 20.0788C19.4691 20.2645 19.3641 20.4598 19.3641 20.3152C19.3641 20.1609 19.2634 19.998 19.1748 19.8545C19.105 19.7414 19.0426 19.6404 19.0426 19.5652C19.0426 19.4899 18.9541 19.4927 18.855 19.4958C18.7292 19.4997 18.5864 19.5042 18.5864 19.35C18.5864 19.2459 18.5409 19.2251 18.4843 19.1992C18.391 19.1565 18.2674 19.1 18.2674 18.6332C18.2674 18.2873 18.1895 18.4098 18.1001 18.5504C18.0179 18.6798 17.9259 18.8245 17.876 18.6332C17.8712 18.6146 17.8195 18.5344 17.7557 18.4352C17.6628 18.2909 17.5441 18.1064 17.5061 18.0133C17.5018 17.9983 17.4977 17.9833 17.4938 17.9683C17.4938 17.9786 17.4982 17.994 17.5061 18.0133C17.6232 18.4207 17.9041 18.8453 18.0825 19.0476C18.2674 19.2573 18.5864 19.7126 18.5864 19.7126C18.5864 19.7126 18.2889 19.86 18.0825 19.7126C17.9672 19.6302 17.9594 19.7077 17.9509 19.7922C17.9442 19.8589 17.937 19.93 17.876 19.93C17.8377 19.93 17.8016 19.9356 17.7695 19.9405C17.7458 19.9442 17.7241 19.9475 17.7054 19.948C17.6681 19.8637 17.6288 19.8067 17.6288 19.8575C17.6288 19.9325 17.658 19.9493 17.7054 19.948C17.7743 20.1041 17.8361 20.3536 17.6288 20.1869C17.4807 20.0678 17.3769 20.0195 17.3081 19.9875C17.2285 19.9504 17.1958 19.9352 17.1958 19.8575C17.1958 19.7799 17.1635 19.8062 17.1128 19.8474C17.0689 19.8831 17.0111 19.93 16.9487 19.93C16.8683 19.93 16.8515 19.8305 16.8272 19.6857C16.8109 19.5887 16.7911 19.4713 16.7465 19.35C16.7361 19.3217 16.7263 19.2945 16.7171 19.2688C16.6273 19.019 16.5854 18.9025 16.4833 19.2176C16.4356 19.3648 16.3514 19.4691 16.278 19.5599C16.1782 19.6834 16.0985 19.782 16.1584 19.93C16.1819 19.988 16.2113 20.0535 16.2428 20.1236C16.3508 20.3642 16.4833 20.6593 16.4833 20.8917C16.4833 21.0299 16.6248 21.2182 16.7578 21.3951C16.9136 21.6026 17.0578 21.7944 16.9487 21.8717C16.7465 22.0149 16.9912 22.4972 17.1958 22.7446C17.4005 22.992 17.3667 23.2941 17.0566 23.2941C16.8869 23.2941 16.7948 23.3489 16.7114 23.3984C16.6424 23.4394 16.5794 23.4769 16.4833 23.4769C16.2711 23.4769 16.1584 23.3839 16.1584 23.3839C16.1584 23.3839 16.0274 23.5599 15.8098 23.5599C15.5922 23.5599 15.5476 23.3839 15.5476 23.3839L15.0527 23.5599V22.7931L15.0402 23.5599L14.8791 23.3839C14.8791 23.3839 14.8345 23.5599 14.617 23.5599C14.3994 23.5599 14.2684 23.3839 14.2684 23.3839C14.2684 23.3839 14.1557 23.4769 13.9434 23.4769C13.8474 23.4769 13.7843 23.4394 13.7154 23.3984C13.632 23.3489 13.5399 23.2941 13.3702 23.2941C13.0601 23.2941 13.0263 22.992 13.2309 22.7446C13.4356 22.4972 13.6803 22.0149 13.4781 21.8717C13.369 21.7944 13.5131 21.6026 13.669 21.3951C13.802 21.2182 13.9434 21.0299 13.9434 20.8917C13.9434 20.6593 14.076 20.3642 14.184 20.1236C14.2155 20.0535 14.2449 19.988 14.2684 19.93C14.3283 19.782 14.2486 19.6834 14.1488 19.5599C14.0754 19.4691 13.9911 19.3648 13.9434 19.2176C13.8414 18.9025 13.7995 19.019 13.7097 19.2688C13.7005 19.2945 13.6907 19.3217 13.6803 19.35C13.6357 19.4713 13.6159 19.5887 13.5996 19.6857C13.5752 19.8305 13.5585 19.93 13.4781 19.93C13.4157 19.93 13.3579 19.8831 13.3139 19.8474C13.2633 19.8062 13.2309 19.7799 13.2309 19.8575C13.2309 19.9352 13.1983 19.9504 13.1187 19.9875C13.0499 20.0195 12.9461 20.0678 12.798 20.1869C12.5906 20.3536 12.6525 20.1041 12.7214 19.948C12.7688 19.9493 12.798 19.9325 12.798 19.8575C12.798 19.8067 12.7587 19.8637 12.7214 19.948C12.7026 19.9475 12.681 19.9442 12.6573 19.9405C12.6251 19.9356 12.5891 19.93 12.5507 19.93C12.4897 19.93 12.4826 19.8589 12.4759 19.7922C12.4674 19.7077 12.4596 19.6302 12.3443 19.7126C12.1378 19.86 11.8404 19.7126 11.8404 19.7126C11.8404 19.7126 12.1593 19.2573 12.3443 19.0476C12.5227 18.8453 12.8036 18.4207 12.9207 18.0133C12.9285 17.994 12.9329 17.9786 12.9329 17.9683C12.9291 17.9833 12.925 17.9983 12.9207 18.0133C12.8827 18.1064 12.764 18.2909 12.6711 18.4352C12.6072 18.5344 12.5556 18.6146 12.5507 18.6332C12.5009 18.8245 12.4089 18.6798 12.3266 18.5504C12.2373 18.4098 12.1593 18.2873 12.1593 18.6332C12.1593 19.1 12.0358 19.1565 11.9424 19.1992C11.8859 19.2251 11.8404 19.2459 11.8404 19.35C11.8404 19.5042 11.6976 19.4997 11.5717 19.4958C11.4727 19.4927 11.3841 19.4899 11.3841 19.5652C11.3841 19.6404 11.3218 19.7414 11.252 19.8545C11.1633 19.998 11.0627 20.1609 11.0627 20.3152C11.0627 20.4598 10.9576 20.2645 10.8577 20.0788C10.7671 19.9103 10.6806 19.7496 10.6806 19.8575C10.6806 20.0843 10.0495 20.4017 10.0495 20.0395C10.0495 19.9245 10.1122 19.7676 10.1867 19.581C10.3468 19.18 10.5617 18.6421 10.3271 18.0882C9.9834 17.2764 9.83533 16.1178 9.83533 14.0806C9.83533 12.0433 11.4383 11.1398 11.8404 11.1398C12.0871 11.1398 11.9642 11.2887 11.7805 11.5111C11.6648 11.6512 11.525 11.8206 11.4383 12.0003Z" fill="#F7FCFF"/>
<path fill-rule="evenodd" clip-rule="evenodd" d="M12.2125 21.2021C12.2125 21.0616 12.617 20.7356 12.617 20.7356V20.7633C12.674 20.8044 13.0351 21.0691 13.0351 21.1985C13.0351 21.2789 12.9883 21.3954 12.9482 21.4951C12.9182 21.5697 12.892 21.635 12.892 21.6686C12.892 21.6913 12.9026 21.675 12.9227 21.6441C12.9727 21.5675 13.0813 21.4009 13.233 21.5123C13.434 21.6599 13.4327 21.8774 13.432 22.0154C13.4319 22.0236 13.4319 22.0315 13.4319 22.0392C13.4319 22.0821 13.4318 22.0818 13.4253 22.0614C13.4115 22.0173 13.3682 21.8796 13.233 21.8796C13.0351 21.8796 12.892 22.0392 12.892 22.0392V22.3112C12.892 22.3112 12.9171 22.5358 13.0351 22.4235C13.153 22.3112 13.1781 22.5621 13.0351 22.5621C12.962 22.5621 12.8869 22.631 12.8134 22.6985C12.7429 22.7632 12.6738 22.8265 12.6094 22.8265V22.8039C12.5484 22.7996 12.4982 22.7438 12.447 22.687C12.3913 22.6252 12.3345 22.5621 12.2615 22.5621C12.1184 22.5621 12.1435 22.3112 12.2615 22.4235C12.3795 22.5358 12.4046 22.3112 12.4046 22.3112V22.0392C12.4046 22.0392 12.2615 21.8796 12.0636 21.8796C11.9284 21.8796 11.8851 22.0173 11.8712 22.0614C11.8648 22.0818 11.8647 22.0821 11.8647 22.0392C11.8647 22.0315 11.8646 22.0236 11.8646 22.0154C11.8638 21.8774 11.8626 21.6599 12.0636 21.5123C12.2153 21.4009 12.3239 21.5675 12.3738 21.6441C12.394 21.675 12.4046 21.6913 12.4046 21.6686C12.4046 21.635 12.3694 21.5704 12.3291 21.4965C12.2753 21.3978 12.2125 21.2825 12.2125 21.2021Z" fill="#E8AA00"/>
<path fill-rule="evenodd" clip-rule="evenodd" d="M17.5929 21.2021C17.5929 21.0616 17.9973 20.7356 17.9973 20.7356V20.7633C18.0543 20.8042 18.4155 21.069 18.4155 21.1985C18.4155 21.2789 18.3687 21.3954 18.3286 21.4951C18.2986 21.5697 18.2724 21.635 18.2724 21.6686C18.2724 21.6913 18.283 21.675 18.3032 21.6441C18.3531 21.5675 18.4617 21.4009 18.6134 21.5123C18.8144 21.6599 18.8132 21.8774 18.8124 22.0154C18.8123 22.0236 18.8123 22.0315 18.8123 22.0392C18.8123 22.0821 18.8122 22.0818 18.8058 22.0614C18.7919 22.0173 18.7486 21.8796 18.6134 21.8796C18.4155 21.8796 18.2724 22.0392 18.2724 22.0392V22.3112C18.2724 22.3112 18.2975 22.5358 18.4155 22.4235C18.5335 22.3112 18.5586 22.5621 18.4155 22.5621C18.3425 22.5621 18.2673 22.631 18.1938 22.6985C18.1233 22.7632 18.0542 22.8265 17.9898 22.8265V22.8039C17.9288 22.7996 17.8786 22.7439 17.8274 22.687C17.7717 22.6252 17.7149 22.5621 17.6419 22.5621C17.4988 22.5621 17.5239 22.3112 17.6419 22.4235C17.7598 22.5358 17.7849 22.3112 17.7849 22.3112V22.0392C17.7849 22.0392 17.6419 21.8796 17.4439 21.8796C17.3088 21.8796 17.2655 22.0173 17.2516 22.0614C17.2452 22.0818 17.2451 22.0821 17.2451 22.0392C17.2451 22.0315 17.245 22.0236 17.245 22.0154C17.2442 21.8774 17.243 21.6599 17.4439 21.5123C17.5957 21.4009 17.7043 21.5675 17.7542 21.6441C17.7743 21.675 17.7849 21.6913 17.7849 21.6686C17.7849 21.635 17.7497 21.5704 17.7095 21.4965C17.6557 21.3978 17.5929 21.2825 17.5929 21.2021Z" fill="#E8AA00"/>
<path fill-rule="evenodd" clip-rule="evenodd" d="M11.8095 20.3594C12.1701 20.3594 12.2429 19.7498 12.2429 19.7498C12.2429 19.7498 12.5454 19.4711 12.5454 19.6767C12.5454 19.7863 12.4594 19.9243 12.394 20.0293C12.3368 20.1213 12.2953 20.1879 12.3411 20.1879H12.8403C13.252 20.1879 12.768 20.3594 12.5454 20.4358C12.4445 20.4705 12.3728 20.4886 12.3041 20.506C12.2214 20.5269 12.1429 20.5468 12.0224 20.5932C11.8019 20.6782 11.7072 21.2374 11.8095 21.417C11.9118 21.5966 11.7072 21.5208 11.6227 21.417C11.5757 21.3593 11.5415 21.4387 11.4936 21.5494C11.4554 21.638 11.4085 21.7466 11.3395 21.8212C11.2062 21.9652 11.2077 21.8379 11.2107 21.5639C11.2112 21.5188 11.2118 21.4696 11.2118 21.417C11.2118 21.1742 11.2663 21.172 11.3474 21.1688C11.3904 21.1671 11.4409 21.1651 11.4947 21.1267C11.6109 21.0438 11.6249 21.0011 11.66 20.8937C11.6718 20.8576 11.686 20.8142 11.7072 20.7595C11.7918 20.542 11.3395 20.8858 11.2118 21.0486C11.134 21.1478 11.0799 21.1586 10.9989 21.1748C10.9468 21.1852 10.8837 21.1978 10.7962 21.2374C10.6539 21.3019 10.6925 21.1752 10.7395 21.021C10.7665 20.9326 10.7962 20.8352 10.7962 20.7595C10.7962 20.6289 10.8845 20.6624 10.9978 20.7054C11.0648 20.7308 11.1405 20.7595 11.2118 20.7595C11.3939 20.7595 11.488 20.6911 11.6041 20.6067C11.6102 20.6023 11.6164 20.5977 11.6227 20.5932C11.7159 20.5258 11.5129 20.5461 11.2713 20.5703C11.1886 20.5786 11.1014 20.5874 11.02 20.5932C10.8342 20.6065 10.8218 20.5966 10.7754 20.5595C10.742 20.5328 10.6911 20.4921 10.5455 20.4358C10.1973 20.3013 10.7693 20.3594 11.02 20.4358C11.1595 20.4783 11.2765 20.4499 11.4149 20.4163C11.5254 20.3895 11.6495 20.3594 11.8095 20.3594ZM18.8013 20.3594C18.4408 20.3594 18.3679 19.7498 18.3679 19.7498C18.3679 19.7498 18.0654 19.4712 18.0654 19.6767C18.0654 19.7863 18.1514 19.9243 18.2168 20.0294C18.2741 20.1213 18.3156 20.1879 18.2698 20.1879H17.7705C17.3589 20.1879 17.8428 20.3594 18.0654 20.4358C18.1664 20.4705 18.238 20.4886 18.3067 20.506C18.3894 20.5269 18.4679 20.5468 18.5884 20.5932C18.809 20.6782 18.9036 21.2374 18.8013 21.417C18.699 21.5966 18.9036 21.5208 18.9881 21.417C19.0351 21.3594 19.0694 21.4387 19.1172 21.5495C19.1554 21.638 19.2023 21.7466 19.2713 21.8212C19.4046 21.9652 19.4032 21.838 19.4001 21.564C19.3996 21.5188 19.399 21.4696 19.399 21.417C19.399 21.1742 19.3445 21.172 19.2634 21.1688C19.2204 21.1671 19.1699 21.1651 19.1161 21.1267C18.9999 21.0438 18.9859 21.0011 18.9508 20.8937C18.939 20.8576 18.9248 20.8142 18.9036 20.7595C18.819 20.542 19.2713 20.8858 19.399 21.0486C19.4768 21.1478 19.531 21.1586 19.612 21.1748C19.664 21.1852 19.7271 21.1978 19.8147 21.2374C19.957 21.3019 19.9183 21.1752 19.8713 21.021C19.8444 20.9326 19.8147 20.8352 19.8147 20.7595C19.8147 20.6289 19.7263 20.6624 19.613 20.7054C19.546 20.7308 19.4703 20.7595 19.399 20.7595C19.2169 20.7595 19.1228 20.6911 19.0067 20.6067C19.0006 20.6023 18.9944 20.5978 18.9881 20.5932C18.895 20.5258 19.0979 20.5461 19.3395 20.5704C19.4222 20.5786 19.5094 20.5874 19.5908 20.5932C19.7766 20.6065 19.789 20.5966 19.8354 20.5595C19.8688 20.5328 19.9197 20.4921 20.0654 20.4358C20.4135 20.3013 19.8416 20.3594 19.5908 20.4358C19.4513 20.4783 19.3343 20.4499 19.196 20.4163C19.0855 20.3895 18.9614 20.3594 18.8013 20.3594Z" fill="#E8AA00"/>
<path fill-rule="evenodd" clip-rule="evenodd" d="M13.178 14.3413H17.5379V17.8756C17.5379 17.8756 17.0699 19.6362 15.358 19.6362C13.646 19.6362 13.178 17.8756 13.178 17.8756V14.3413Z" fill="#C51918"/>
<path fill-rule="evenodd" clip-rule="evenodd" d="M15.9457 14.29H14.8044V16.319H13.1741V17.0437H14.8044V19.6524H15.9457V17.0437H17.5762V16.319H15.9457V14.29Z" fill="#F7FCFF"/>
<path fill-rule="evenodd" clip-rule="evenodd" d="M13.9134 15.3091C14.0229 15.3091 14.0751 15.227 14.0172 15.1548C13.9868 15.1168 13.9237 15.1058 13.8764 15.1302C13.8721 15.1324 13.8682 15.1348 13.8645 15.1374C13.847 15.1335 13.8257 15.1282 13.8012 15.1215C13.7791 15.1156 13.7552 15.1158 13.7333 15.1222C13.7069 15.13 13.6919 15.1059 13.7046 14.956C13.7168 14.9142 13.7813 14.8883 13.9315 14.8883C14.2059 14.8883 14.3187 14.9144 14.3187 14.9374V15.2959L14.1855 15.4027C14.1213 15.4542 14.1668 15.5423 14.2576 15.5423H14.3187V15.8168C14.235 15.8748 14.1601 15.9019 14.0945 15.9019C13.849 15.9019 13.711 15.8206 13.7072 15.7245C13.7083 15.6964 13.7097 15.6756 13.7108 15.6615C13.7171 15.6632 13.7241 15.6652 13.7319 15.6676C13.7544 15.6746 13.7792 15.6749 13.8019 15.6685L13.8113 15.6658C13.8204 15.6631 13.8255 15.6615 13.8283 15.6634C13.8319 15.6659 13.8315 15.6743 13.8306 15.6935C13.8303 15.7008 13.8299 15.7096 13.8296 15.7203C13.8284 15.7655 13.873 15.8029 13.9293 15.8038C13.9855 15.8048 14.0321 15.769 14.0334 15.7239C14.0377 15.5656 13.9377 15.4745 13.7719 15.5055C13.674 15.4794 13.6056 15.4824 13.5522 15.5361C13.5129 15.5755 13.5077 15.6078 13.5035 15.7246C13.5111 15.9252 13.749 16.0654 14.0945 16.0654C14.2277 16.0654 14.3597 16.0125 14.4909 15.912C14.5111 15.8966 14.5225 15.8753 14.5225 15.8529V15.4605C14.5225 15.4341 14.5069 15.4106 14.4826 15.3956L14.4927 15.3876C14.5118 15.3722 14.5225 15.3514 14.5225 15.3297V14.9374C14.5225 14.7699 14.3281 14.7249 13.9315 14.7249C13.6977 14.7249 13.5448 14.7862 13.5038 14.9313C13.4806 15.1792 13.5633 15.327 13.7675 15.2848C13.8307 15.3009 13.8775 15.3091 13.9134 15.3091ZM16.777 15.1548C16.7191 15.227 16.7713 15.3091 16.8807 15.3091C16.9167 15.3091 16.9635 15.3009 17.0267 15.2848C17.2309 15.327 17.3135 15.1792 17.2904 14.9313C17.2494 14.7862 17.0965 14.7249 16.8627 14.7249C16.4661 14.7249 16.2717 14.7699 16.2717 14.9374V15.3297C16.2717 15.3514 16.2824 15.3722 16.3015 15.3876L16.3116 15.3956C16.2873 15.4106 16.2717 15.4341 16.2717 15.4605V15.8529C16.2717 15.8753 16.2831 15.8966 16.3032 15.912C16.4345 16.0125 16.5665 16.0654 16.6997 16.0654C17.0452 16.0654 17.2831 15.9252 17.2906 15.7246C17.2865 15.6078 17.2812 15.5755 17.242 15.5361C17.1886 15.4824 17.1201 15.4794 17.0223 15.5055C16.8564 15.4745 16.7565 15.5656 16.7608 15.7239C16.7621 15.769 16.8087 15.8048 16.8649 15.8038C16.9212 15.8029 16.9658 15.7655 16.9646 15.7203C16.9643 15.7096 16.9639 15.7008 16.9635 15.6935C16.9627 15.6743 16.9623 15.6659 16.9659 15.6634C16.9687 15.6615 16.9738 15.6631 16.9829 15.6658L16.9923 15.6685C17.015 15.6749 17.0398 15.6746 17.0623 15.6676C17.07 15.6652 17.0771 15.6632 17.0834 15.6615C17.0845 15.6756 17.0859 15.6964 17.0869 15.7245C17.0831 15.8206 16.9452 15.9019 16.6997 15.9019C16.6341 15.9019 16.5592 15.8748 16.4755 15.8168V15.5423H16.5366C16.6274 15.5423 16.6729 15.4542 16.6087 15.4027L16.4755 15.2959V14.9374C16.4755 14.9144 16.5882 14.8883 16.8627 14.8883C17.0129 14.8883 17.0774 14.9142 17.0896 14.956C17.1023 15.1059 17.0873 15.13 17.0608 15.1222C17.039 15.1158 17.0151 15.1156 16.993 15.1215C16.9685 15.1282 16.9472 15.1335 16.9297 15.1374C16.926 15.1348 16.922 15.1324 16.9178 15.1302C16.8705 15.1058 16.8074 15.1168 16.777 15.1548ZM17.1204 15.6542L17.116 15.6541L17.1189 15.6543L17.1204 15.6542ZM16.8807 17.9178C16.7713 17.9178 16.7191 17.8357 16.777 17.7635C16.8074 17.7255 16.8705 17.7145 16.9178 17.7389C16.922 17.7411 16.926 17.7435 16.9297 17.7461C16.9472 17.7422 16.9685 17.7369 16.993 17.7303C17.0151 17.7243 17.039 17.7245 17.0608 17.7309C17.0873 17.7387 17.1023 17.7146 17.0896 17.5647C17.0774 17.5229 17.0129 17.497 16.8627 17.497C16.5882 17.497 16.4755 17.5231 16.4755 17.5461V17.9046L16.6087 18.0114C16.6729 18.0629 16.6274 18.151 16.5366 18.151H16.4755V18.4255C16.5592 18.4835 16.6341 18.5107 16.6997 18.5107C16.9452 18.5107 17.0831 18.4293 17.0869 18.3333C17.0859 18.3051 17.0845 18.2843 17.0834 18.2702C17.0771 18.2719 17.07 18.2739 17.0623 18.2763C17.0398 18.2833 17.015 18.2836 16.9923 18.2772L16.9829 18.2745C16.9738 18.2718 16.9687 18.2702 16.9659 18.2721C16.9623 18.2746 16.9627 18.283 16.9635 18.3022L16.9635 18.3022C16.9639 18.3095 16.9643 18.3184 16.9646 18.329C16.9658 18.3742 16.9212 18.4116 16.8649 18.4125C16.8087 18.4135 16.7621 18.3777 16.7608 18.3326C16.7565 18.1743 16.8564 18.0832 17.0223 18.1142C17.1201 18.0881 17.1886 18.0911 17.242 18.1448C17.2812 18.1842 17.2865 18.2165 17.2906 18.3333C17.2831 18.5339 17.0452 18.6741 16.6997 18.6741C16.5665 18.6741 16.4345 18.6212 16.3032 18.5208C16.2831 18.5053 16.2717 18.484 16.2717 18.4616V18.0692C16.2717 18.0428 16.2873 18.0193 16.3116 18.0043L16.3015 17.9963C16.2824 17.9809 16.2717 17.9601 16.2717 17.9385V17.5461C16.2717 17.3786 16.4661 17.3336 16.8627 17.3336C17.0965 17.3336 17.2494 17.3949 17.2904 17.54C17.3135 17.7879 17.2309 17.9357 17.0267 17.8935C16.9635 17.9096 16.9167 17.9178 16.8807 17.9178ZM13.9134 17.9178C14.0229 17.9178 14.0751 17.8357 14.0172 17.7635C13.9868 17.7255 13.9237 17.7145 13.8764 17.7389C13.8721 17.7411 13.8682 17.7435 13.8645 17.7461C13.847 17.7422 13.8257 17.7369 13.8012 17.7303C13.7791 17.7243 13.7552 17.7245 13.7333 17.7309C13.7069 17.7387 13.6919 17.7146 13.7046 17.5647C13.7168 17.5229 13.7813 17.497 13.9315 17.497C14.2059 17.497 14.3187 17.5231 14.3187 17.5461V17.9046L14.1855 18.0114C14.1213 18.0629 14.1668 18.151 14.2576 18.151H14.3187V18.4255C14.235 18.4835 14.1601 18.5107 14.0945 18.5107C13.849 18.5107 13.711 18.4293 13.7072 18.3333C13.7083 18.3051 13.7097 18.2843 13.7108 18.2702C13.7171 18.2719 13.7241 18.2739 13.7319 18.2763C13.7544 18.2833 13.7792 18.2836 13.8019 18.2772C13.8054 18.2763 13.8085 18.2753 13.8113 18.2745C13.8203 18.2718 13.8255 18.2702 13.8283 18.2721C13.8319 18.2746 13.8315 18.283 13.8306 18.3022C13.8303 18.3095 13.8299 18.3183 13.8296 18.329C13.8284 18.3742 13.873 18.4116 13.9293 18.4125C13.9855 18.4135 14.0321 18.3777 14.0334 18.3326C14.0377 18.1743 13.9377 18.0832 13.7719 18.1142C13.674 18.0881 13.6056 18.0911 13.5522 18.1448C13.5129 18.1842 13.5077 18.2165 13.5035 18.3333C13.5111 18.5339 13.749 18.6741 14.0945 18.6741C14.2277 18.6741 14.3597 18.6212 14.4909 18.5208C14.5111 18.5053 14.5225 18.484 14.5225 18.4616V18.0692C14.5225 18.0428 14.5069 18.0193 14.4826 18.0043L14.4927 17.9963C14.5118 17.9809 14.5225 17.9601 14.5225 17.9385V17.5461C14.5225 17.3786 14.3281 17.3336 13.9315 17.3336C13.6977 17.3336 13.5448 17.3949 13.5038 17.54C13.4806 17.7879 13.5633 17.9357 13.7675 17.8935C13.8307 17.9096 13.8775 17.9178 13.9134 17.9178Z" fill="#F7FCFF"/>
</g>
</g>
</g>
<defs>
<filter id="filter0_dd_5_6988" x="0" y="0" width="42" height="30" filterUnits="userSpaceOnUse" color-interpolation-filters="sRGB">
<feFlood flood-opacity="0" result="BackgroundImageFix"/>
<feColorMatrix in="SourceAlpha" type="matrix" values="0 0 0 0 0 0 0 0 0 0 0 0 0 0 0 0 0 0 127 0" result="hardAlpha"/>
<feOffset dy="1"/>
<feGaussianBlur stdDeviation="1"/>
<feColorMatrix type="matrix" values="0 0 0 0 0.0627451 0 0 0 0 0.0941176 0 0 0 0 0.156863 0 0 0 0.06 0"/>
<feBlend mode="normal" in2="BackgroundImageFix" result="effect1_dropShadow_5_6988"/>
<feColorMatrix in="SourceAlpha" type="matrix" values="0 0 0 0 0 0 0 0 0 0 0 0 0 0 0 0 0 0 127 0" result="hardAlpha"/>
<feOffset dy="1"/>
<feGaussianBlur stdDeviation="1.5"/>
<feColorMatrix type="matrix" values="0 0 0 0 0.0627451 0 0 0 0 0.0941176 0 0 0 0 0.156863 0 0 0 0.1 0"/>
<feBlend mode="normal" in2="effect1_dropShadow_5_6988" result="effect2_dropShadow_5_6988"/>
<feBlend mode="normal" in="SourceGraphic" in2="effect2_dropShadow_5_6988" result="shape"/>
</filter>
</defs>
</svg>
