<svg width="42" height="30" viewBox="0 0 42 30" fill="none" xmlns="http://www.w3.org/2000/svg">
<g filter="url(#filter0_dd_5_7717)">
<mask id="mask0_5_7717" style="mask-type:alpha" maskUnits="userSpaceOnUse" x="3" y="2" width="36" height="24">
<rect x="3" y="2" width="36" height="24" fill="white"/>
</mask>
<g mask="url(#mask0_5_7717)">
<path fill-rule="evenodd" clip-rule="evenodd" d="M3 2V26H39V2H3Z" fill="#2E42A5"/>
<mask id="mask1_5_7717" style="mask-type:alpha" maskUnits="userSpaceOnUse" x="3" y="2" width="36" height="24">
<path fill-rule="evenodd" clip-rule="evenodd" d="M3 2V26H39V2H3Z" fill="white"/>
</mask>
<g mask="url(#mask1_5_7717)">
<path fill-rule="evenodd" clip-rule="evenodd" d="M3 18V26H39V18H3Z" fill="#FECA00"/>
<mask id="mask2_5_7717" style="mask-type:alpha" maskUnits="userSpaceOnUse" x="3" y="2" width="36" height="16">
<rect x="3" y="2" width="36" height="16" fill="white"/>
</mask>
<g mask="url(#mask2_5_7717)">
<path d="M0.455078 17.1294L7.59064 18.5967L22.8018 11.1258L24.4114 10.2891L38.8605 3.57348L42.2835 1.45245L34.4539 0.810589L21.8296 7.1406L12.7065 11.1258L0.455078 17.1294Z" fill="white"/>
<path d="M1.08191 18.0188L4.92372 19.1389L40.855 1.1859H35.4607L1.08191 18.0188Z" fill="#F50100"/>
<path d="M41.6671 16.7308L41.9504 18.2408L34.4094 18.5967L22.2525 12.2673L21.1063 12.6154L-1.59045 2.41065L7.78061 0.80731L20.3086 6.95919L30.109 11.1684L41.6671 16.7308Z" fill="white"/>
<path d="M41.693 17.6369L37.8512 18.7571L22.5513 11.0705L18.0152 10.2117L-0.666332 1.46217H4.72802L23.399 10.004L28.3584 11.0338L41.693 17.6369Z" fill="#F50100"/>
<path d="M17.9938 0.75V-0.5H16.7438V0.75H17.9938ZM17.9938 6.75V8H19.2438V6.75H17.9938ZM1.75 6.75V5.5H0.5V6.75H1.75ZM1.75 13.25H0.5V14.5H1.75V13.25ZM17.9938 13.25H19.2438V12H17.9938V13.25ZM17.9938 21.25H16.7438V22.5H17.9938V21.25ZM24.0809 21.25V22.5H25.3309V21.25H24.0809ZM24.0809 13.25V12H22.8309V13.25H24.0809ZM40.25 13.25V14.5H41.5V13.25H40.25ZM40.25 6.75H41.5V5.5H40.25V6.75ZM24.0809 6.75H22.8309V8H24.0809V6.75ZM24.0809 0.75H25.3309V-0.5H24.0809V0.75ZM21.5809 6.75V8H22.8309V6.75H21.5809ZM21.5809 3.25H22.8309V2H21.5809V3.25ZM20.4938 3.25V2H19.2438V3.25H20.4938ZM20.4938 6.75H19.2438V8H20.4938V6.75ZM21.5809 9.25H22.8309V8H21.5809V9.25ZM20.4938 9.25V8H19.2438V9.25H20.4938ZM21.5809 10.75V12H22.8309V10.75H21.5809ZM20.4938 10.75H19.2438V12H20.4938V10.75ZM17.9938 9.25H19.2438V8H17.9938V9.25ZM4.25 9.25V8H3V9.25H4.25ZM4.25 10.75H3V12H4.25V10.75ZM17.9938 10.75V12H19.2438V10.75H17.9938ZM20.4938 13.25V12H19.2438V13.25H20.4938ZM20.4938 18.75H19.2438V20H20.4938V18.75ZM21.5809 18.75V20H22.8309V18.75H21.5809ZM21.5809 13.25H22.8309V12H21.5809V13.25ZM24.0809 9.25V8H22.8309V9.25H24.0809ZM24.0809 10.75H22.8309V12H24.0809V10.75ZM37.75 9.25H39V8H37.75V9.25ZM37.75 10.75V12H39V10.75H37.75ZM17.9938 2H19.2438V-0.5H17.9938V2ZM19.2438 2V0.75H16.7438V2H19.2438ZM19.2438 6.75V2H16.7438V6.75H19.2438ZM3 8H17.9938V5.5H3V8ZM1.75 8H3V5.5H1.75V8ZM3 8V6.75H0.5V8H3ZM3 12V8H0.5V12H3ZM3 13.25V12H0.5V13.25H3ZM3 12H1.75V14.5H3V12ZM17.9938 12H3V14.5H17.9938V12ZM19.2438 20V13.25H16.7438V20H19.2438ZM19.2438 21.25V20H16.7438V21.25H19.2438ZM19.2438 20H17.9938V22.5H19.2438V20ZM22.8309 20H19.2438V22.5H22.8309V20ZM24.0809 20H22.8309V22.5H24.0809V20ZM22.8309 20V21.25H25.3309V20H22.8309ZM22.8309 13.25V20H25.3309V13.25H22.8309ZM39 12H24.0809V14.5H39V12ZM40.25 12H39V14.5H40.25V12ZM39 12V13.25H41.5V12H39ZM39 8V12H41.5V8H39ZM39 6.75V8H41.5V6.75H39ZM39 8H40.25V5.5H39V8ZM24.0809 8H39V5.5H24.0809V8ZM22.8309 2V6.75H25.3309V2H22.8309ZM22.8309 0.75V2H25.3309V0.75H22.8309ZM22.8309 2H24.0809V-0.5H22.8309V2ZM19.2438 2H22.8309V-0.5H19.2438V2ZM22.8309 6.75V3.25H20.3309V6.75H22.8309ZM21.5809 2H20.4938V4.5H21.5809V2ZM19.2438 3.25V6.75H21.7438V3.25H19.2438ZM20.4938 8H21.5809V5.5H20.4938V8ZM21.5809 8H20.4938V10.5H21.5809V8ZM22.8309 10.75V9.25H20.3309V10.75H22.8309ZM20.4938 12H21.5809V9.5H20.4938V12ZM19.2438 9.25V10.75H21.7438V9.25H19.2438ZM17.9938 8H4.25V10.5H17.9938V8ZM3 9.25V10.75H5.5V9.25H3ZM4.25 12H17.9938V9.5H4.25V12ZM19.2438 10.75V9.25H16.7438V10.75H19.2438ZM19.2438 13.25V18.75H21.7438V13.25H19.2438ZM20.4938 20H21.5809V17.5H20.4938V20ZM22.8309 18.75V13.25H20.3309V18.75H22.8309ZM21.5809 12H20.4938V14.5H21.5809V12ZM22.8309 9.25V10.75H25.3309V9.25H22.8309ZM37.75 8H24.0809V10.5H37.75V8ZM39 10.75V9.25H36.5V10.75H39ZM24.0809 12H37.75V9.5H24.0809V12Z" fill="white"/>
<path fill-rule="evenodd" clip-rule="evenodd" d="M22.9039 0.666626H19.0962V7.99996H3V12H19.0962V21.3333H22.9039V12H41.25V7.99996H22.9039V0.666626Z" fill="#F50100"/>
</g>
<path fill-rule="evenodd" clip-rule="evenodd" d="M21.0563 12.6C22.7649 12.6 24.15 11.3688 24.15 9.84998C24.15 8.33119 22.7649 7.09998 21.0563 7.09998C19.3476 7.09998 17.9625 8.33119 17.9625 9.84998C17.9625 11.3688 19.3476 12.6 21.0563 12.6Z" fill="#2E42A5"/>
<path fill-rule="evenodd" clip-rule="evenodd" d="M21.1125 10.6913L19.6524 11.5944L20.1675 10.081L18.75 9.12571L20.5285 9.0935L21.1125 7.59998L21.6965 9.0935L23.475 9.12571L22.0575 10.081L22.5726 11.5944L21.1125 10.6913Z" fill="#FECA00"/>
<path fill-rule="evenodd" clip-rule="evenodd" d="M10.9874 10.5761L9.77067 11.3287L10.1999 10.0675L9.01868 9.27145L10.5007 9.2446L10.9874 8L11.4741 9.2446L12.9562 9.27145L11.7749 10.0675L12.2042 11.3287L10.9874 10.5761Z" fill="#FECA00"/>
<path fill-rule="evenodd" clip-rule="evenodd" d="M31.2374 10.5761L30.0207 11.3287L30.4499 10.0675L29.2687 9.27145L30.7507 9.2446L31.2374 8L31.7241 9.2446L33.2062 9.27145L32.0249 10.0675L32.4542 11.3287L31.2374 10.5761Z" fill="#FECA00"/>
<path fill-rule="evenodd" clip-rule="evenodd" d="M21.1124 5.77603L19.8957 6.52865L20.3249 5.26745L19.1437 4.4714L20.6257 4.44455L21.1124 3.19995L21.5991 4.44455L23.0812 4.4714L21.8999 5.26745L22.3292 6.52865L21.1124 5.77603Z" fill="#FECA00"/>
<path fill-rule="evenodd" clip-rule="evenodd" d="M21.1124 16.376L19.8957 17.1286L20.3249 15.8674L19.1437 15.0714L20.6257 15.0445L21.1124 13.7999L21.5991 15.0445L23.0812 15.0714L21.8999 15.8674L22.3292 17.1286L21.1124 16.376Z" fill="#FECA00"/>
</g>
</g>
</g>
<defs>
<filter id="filter0_dd_5_7717" x="0" y="0" width="42" height="30" filterUnits="userSpaceOnUse" color-interpolation-filters="sRGB">
<feFlood flood-opacity="0" result="BackgroundImageFix"/>
<feColorMatrix in="SourceAlpha" type="matrix" values="0 0 0 0 0 0 0 0 0 0 0 0 0 0 0 0 0 0 127 0" result="hardAlpha"/>
<feOffset dy="1"/>
<feGaussianBlur stdDeviation="1"/>
<feColorMatrix type="matrix" values="0 0 0 0 0.0627451 0 0 0 0 0.0941176 0 0 0 0 0.156863 0 0 0 0.06 0"/>
<feBlend mode="normal" in2="BackgroundImageFix" result="effect1_dropShadow_5_7717"/>
<feColorMatrix in="SourceAlpha" type="matrix" values="0 0 0 0 0 0 0 0 0 0 0 0 0 0 0 0 0 0 127 0" result="hardAlpha"/>
<feOffset dy="1"/>
<feGaussianBlur stdDeviation="1.5"/>
<feColorMatrix type="matrix" values="0 0 0 0 0.0627451 0 0 0 0 0.0941176 0 0 0 0 0.156863 0 0 0 0.1 0"/>
<feBlend mode="normal" in2="effect1_dropShadow_5_7717" result="effect2_dropShadow_5_7717"/>
<feBlend mode="normal" in="SourceGraphic" in2="effect2_dropShadow_5_7717" result="shape"/>
</filter>
</defs>
</svg>
