<svg width="42" height="30" viewBox="0 0 42 30" fill="none" xmlns="http://www.w3.org/2000/svg">
<g filter="url(#filter0_dd_5_8969)">
<mask id="mask0_5_8969" style="mask-type:alpha" maskUnits="userSpaceOnUse" x="3" y="2" width="36" height="24">
<rect x="3" y="2" width="36" height="24" fill="white"/>
</mask>
<g mask="url(#mask0_5_8969)">
<path fill-rule="evenodd" clip-rule="evenodd" d="M3 2H39V26H3V2Z" fill="#F7FCFF"/>
<path d="M-0.185934 3.21091L-2.17507 2.14176V4.40002V24.4V26.6583L-0.185934 25.5891L18.4191 15.5891L20.6314 14.4L18.4191 13.2109L-0.185934 3.21091Z" fill="#F7FCFF" stroke="#E31D1C" stroke-width="2.7"/>
<path d="M42.4294 3.20044L44.3987 2.18384V4.40002V24.4V26.6162L42.4294 25.5996L23.0582 15.5996L20.7345 14.4L23.0582 13.2004L42.4294 3.20044Z" fill="#F7FCFF" stroke="#E31D1C" stroke-width="2.7"/>
<path fill-rule="evenodd" clip-rule="evenodd" d="M18.3839 6.70302C18.3839 6.70302 17.418 10.5013 20.7533 11.9601C20.7533 11.9601 23.9553 10.4088 23.2361 6.70302C23.2361 6.70302 21.8609 6.29413 20.7675 6.29413C19.6741 6.29413 18.3839 6.70302 18.3839 6.70302Z" fill="#E31D1C"/>
<path fill-rule="evenodd" clip-rule="evenodd" d="M18.7301 7.49858C18.7301 7.49858 19.0868 7.3582 19.2634 7.49858C19.44 7.63895 19.5847 7.48694 19.5847 7.40226C19.5847 7.31758 19.8651 7.02689 19.8651 7.26273C19.8651 7.49858 19.7778 7.63174 20.0242 7.63174C20.2707 7.63174 21.3805 7.30595 21.6466 7.40226C21.9127 7.49858 22.1164 7.47462 22.0487 7.33643C21.9811 7.19824 21.8072 7.11187 21.4724 7.1873C21.1376 7.26273 21.2166 7.33643 20.9273 7.33643C20.6379 7.33643 20.3159 7.26273 20.3159 7.26273C20.3159 7.26273 20.4064 7.1388 20.7367 7.22695C21.067 7.31511 21.5227 7.11778 21.6466 7.11778C21.7705 7.11778 22.1116 7.11187 22.1454 7.1873C22.1792 7.26273 22.3851 7.33195 22.2281 7.40226C22.0712 7.47258 21.8123 7.51663 21.9904 7.60672C22.1685 7.69682 22.5781 7.67945 22.5978 7.77317C22.6175 7.86688 22.8116 8.00683 22.7337 8.00683C22.6558 8.00683 22.515 8.13881 22.3839 8.09862C22.2529 8.05843 22.2374 8.02315 22.3631 7.99059C22.4888 7.95804 22.4876 7.82113 22.3839 7.82113C22.2803 7.82113 22.3309 7.8691 22.0948 7.82113C21.8587 7.77317 21.5463 7.71985 21.5651 7.82113C21.5839 7.92242 21.7376 8.0779 21.454 8.09862C21.1704 8.11934 21.0377 8.20254 20.9825 8.13554C20.9273 8.06854 20.73 7.97927 20.8851 7.95065C21.0403 7.92202 21.1885 8.04795 21.2444 8.02739C21.3003 8.00683 21.4269 7.99538 21.3208 7.90826C21.2148 7.82113 21.0399 7.76984 21.202 7.70463C21.3641 7.63942 21.2362 7.63808 20.9273 7.77317C20.6184 7.90826 20.4466 8.02306 20.1754 8.00683C19.9042 7.99059 19.8026 8.01249 19.7155 7.99059C19.6283 7.9687 19.2038 8.23254 19.0815 8.16558C18.9593 8.09862 18.5646 8.07293 18.6357 7.99059C18.7067 7.90826 18.8021 7.86587 18.9083 7.90826C19.0146 7.95065 19.1201 7.99304 19.1918 7.95065C19.2634 7.90826 19.4703 7.7628 19.4183 7.73371C19.3662 7.70463 19.4166 7.60672 19.1219 7.60672C18.8273 7.60672 18.7237 7.71584 18.6537 7.64709C18.5838 7.57834 18.7301 7.49858 18.7301 7.49858Z" fill="#FFD100"/>
<path fill-rule="evenodd" clip-rule="evenodd" d="M19.0246 8.74662C19.0246 8.74662 19.3382 8.6232 19.4934 8.74662C19.6487 8.87003 19.7759 8.73639 19.7759 8.66194C19.7759 8.5875 20.0224 8.33192 20.0224 8.53927C20.0224 8.74662 19.9456 8.86369 20.1623 8.86369C20.379 8.86369 21.3547 8.57727 21.5886 8.66194C21.8226 8.74662 22.0016 8.72556 21.9422 8.60407C21.8827 8.48257 21.7298 8.40664 21.4355 8.47296C21.1412 8.53927 21.2106 8.60407 20.9562 8.60407C20.7019 8.60407 20.4187 8.53927 20.4187 8.53927C20.4187 8.53927 20.4983 8.43032 20.7887 8.50782C21.0791 8.58532 21.4797 8.41184 21.5886 8.41184C21.6976 8.41184 21.9974 8.40664 22.0271 8.47296C22.0569 8.53927 22.2379 8.60012 22.0999 8.66194C21.9619 8.72376 21.7343 8.76249 21.8909 8.8417C22.0475 8.9209 22.4075 8.90564 22.4249 8.98803C22.4422 9.07042 22.6129 9.19345 22.5444 9.19345C22.4759 9.19345 22.3521 9.30948 22.2369 9.27415C22.1216 9.23882 22.1081 9.2078 22.2186 9.17918C22.3291 9.15056 22.328 9.0302 22.2369 9.0302C22.1457 9.0302 22.1902 9.07237 21.9827 9.0302C21.7751 8.98803 21.5004 8.94115 21.517 9.0302C21.5335 9.11924 21.6686 9.25594 21.4193 9.27415C21.17 9.29237 21.0533 9.36551 21.0048 9.30661C20.9562 9.24771 20.7828 9.16923 20.9192 9.14406C21.0556 9.11889 21.1859 9.2296 21.235 9.21153C21.2841 9.19345 21.3955 9.18339 21.3022 9.10679C21.209 9.0302 21.0552 8.9851 21.1978 8.92777C21.3403 8.87044 21.2278 8.86926 20.9562 8.98803C20.6847 9.10679 20.5336 9.20772 20.2952 9.19345C20.0568 9.17918 19.9675 9.19843 19.8908 9.17918C19.8142 9.15993 19.441 9.39189 19.3335 9.33302C19.226 9.27415 18.8791 9.25157 18.9415 9.17918C19.004 9.10679 19.0879 9.06952 19.1813 9.10679C19.2747 9.14406 19.3675 9.18133 19.4304 9.14406C19.4934 9.10679 19.6753 8.97891 19.6296 8.95334C19.5838 8.92777 19.6281 8.8417 19.369 8.8417C19.11 8.8417 19.0189 8.93762 18.9574 8.87718C18.8959 8.81674 19.0246 8.74662 19.0246 8.74662Z" fill="#FFD100"/>
<path fill-rule="evenodd" clip-rule="evenodd" d="M19.4409 10.0135C19.4409 10.0135 19.6787 9.91993 19.7965 10.0135C19.9142 10.1071 20.0106 10.0058 20.0106 9.94931C20.0106 9.89285 20.1976 9.69906 20.1976 9.85629C20.1976 10.0135 20.1394 10.1023 20.3037 10.1023C20.468 10.1023 21.2078 9.8851 21.3852 9.94931C21.5627 10.0135 21.6984 9.99755 21.6533 9.90542C21.6082 9.81329 21.4923 9.75571 21.2691 9.806C21.0459 9.85629 21.0986 9.90542 20.9057 9.90542C20.7128 9.90542 20.4981 9.85629 20.4981 9.85629C20.4981 9.85629 20.5584 9.77367 20.7787 9.83243C20.9989 9.8912 21.3026 9.75965 21.3852 9.75965C21.4679 9.75965 21.6952 9.75571 21.7178 9.806C21.7403 9.85629 21.8776 9.90243 21.7729 9.94931C21.6683 9.99619 21.4957 10.0256 21.6145 10.0856C21.7332 10.1457 22.0062 10.1341 22.0194 10.1966C22.0325 10.2591 22.1619 10.3523 22.11 10.3523C22.0581 10.3523 21.9642 10.4403 21.8768 10.4135C21.7894 10.3868 21.7791 10.3632 21.8629 10.3415C21.9467 10.3198 21.9459 10.2286 21.8768 10.2286C21.8077 10.2286 21.8414 10.2605 21.684 10.2286C21.5267 10.1966 21.3184 10.161 21.3309 10.2286C21.3434 10.2961 21.4459 10.3997 21.2568 10.4135C21.0678 10.4274 20.9793 10.4828 20.9425 10.4382C20.9057 10.3935 20.7742 10.334 20.8776 10.3149C20.981 10.2958 21.0799 10.3798 21.1171 10.3661C21.1544 10.3523 21.2388 10.3447 21.1681 10.2866C21.0974 10.2286 20.9808 10.1944 21.0889 10.1509C21.1969 10.1074 21.1116 10.1065 20.9057 10.1966C20.6998 10.2866 20.5852 10.3632 20.4044 10.3523C20.2236 10.3415 20.1559 10.3561 20.0978 10.3415C20.0397 10.3269 19.7567 10.5028 19.6752 10.4582C19.5937 10.4135 19.3306 10.3964 19.378 10.3415C19.4253 10.2866 19.4889 10.2584 19.5597 10.2866C19.6306 10.3149 19.7009 10.3432 19.7487 10.3149C19.7965 10.2866 19.9344 10.1897 19.8997 10.1703C19.865 10.1509 19.8986 10.0856 19.7021 10.0856C19.5057 10.0856 19.4366 10.1584 19.39 10.1125C19.3434 10.0667 19.4409 10.0135 19.4409 10.0135Z" fill="#FFD100"/>
</g>
</g>
<defs>
<filter id="filter0_dd_5_8969" x="0" y="0" width="42" height="30" filterUnits="userSpaceOnUse" color-interpolation-filters="sRGB">
<feFlood flood-opacity="0" result="BackgroundImageFix"/>
<feColorMatrix in="SourceAlpha" type="matrix" values="0 0 0 0 0 0 0 0 0 0 0 0 0 0 0 0 0 0 127 0" result="hardAlpha"/>
<feOffset dy="1"/>
<feGaussianBlur stdDeviation="1"/>
<feColorMatrix type="matrix" values="0 0 0 0 0.0627451 0 0 0 0 0.0941176 0 0 0 0 0.156863 0 0 0 0.06 0"/>
<feBlend mode="normal" in2="BackgroundImageFix" result="effect1_dropShadow_5_8969"/>
<feColorMatrix in="SourceAlpha" type="matrix" values="0 0 0 0 0 0 0 0 0 0 0 0 0 0 0 0 0 0 127 0" result="hardAlpha"/>
<feOffset dy="1"/>
<feGaussianBlur stdDeviation="1.5"/>
<feColorMatrix type="matrix" values="0 0 0 0 0.0627451 0 0 0 0 0.0941176 0 0 0 0 0.156863 0 0 0 0.1 0"/>
<feBlend mode="normal" in2="effect1_dropShadow_5_8969" result="effect2_dropShadow_5_8969"/>
<feBlend mode="normal" in="SourceGraphic" in2="effect2_dropShadow_5_8969" result="shape"/>
</filter>
</defs>
</svg>
