<svg width="42" height="30" viewBox="0 0 42 30" fill="none" xmlns="http://www.w3.org/2000/svg">
<g filter="url(#filter0_dd_5_5504)">
<mask id="mask0_5_5504" style="mask-type:alpha" maskUnits="userSpaceOnUse" x="3" y="2" width="36" height="24">
<rect x="3" y="2" width="36" height="24" fill="white"/>
</mask>
<g mask="url(#mask0_5_5504)">
<path fill-rule="evenodd" clip-rule="evenodd" d="M3 2H39V26H3V2Z" fill="#F7FCFF"/>
<path fill-rule="evenodd" clip-rule="evenodd" d="M3 2V26H39V2H3Z" fill="#5EAA22"/>
<mask id="mask1_5_5504" style="mask-type:alpha" maskUnits="userSpaceOnUse" x="3" y="2" width="36" height="24">
<path fill-rule="evenodd" clip-rule="evenodd" d="M3 2V26H39V2H3Z" fill="white"/>
</mask>
<g mask="url(#mask1_5_5504)">
<rect x="33.375" y="12" width="5.625" height="14" fill="#FF8126"/>
<rect x="27.75" y="12" width="5.625" height="14" fill="#272727"/>
<rect x="22.125" y="12" width="5.625" height="14" fill="#C51918"/>
<path fill-rule="evenodd" clip-rule="evenodd" d="M30.6153 6.83768C31.1566 6.98695 30.6153 7.21545 30.6153 7.21545C30.6153 7.21545 30.5084 7.12228 30.5084 7.04448C30.5084 6.96668 30.0937 7.04448 29.8798 7.3268C29.6771 7.59435 30.0507 7.59358 30.4433 7.59276C30.465 7.59272 30.4867 7.59267 30.5084 7.59267C30.7302 7.59267 31.0772 7.57628 31.4 7.56104C31.6806 7.54779 31.9428 7.5354 32.0885 7.5354C32.4019 7.5354 32.5501 7.5354 32.9635 7.3268C33.2323 7.19119 34.1209 7.0252 34.7815 6.90179C35.1372 6.83536 35.4268 6.78126 35.518 6.75089C35.7788 6.6641 35.2572 7.12228 35.2572 7.12228C35.2572 7.12228 37.2693 6.51368 37.6724 6.30585C37.9214 6.17745 37.8086 6.28704 37.6244 6.46597C37.5104 6.57665 37.3691 6.71386 37.2693 6.83768C37.0992 7.04865 37.4456 6.84752 37.8304 6.62413C38.0366 6.50444 38.2538 6.37836 38.4084 6.30585C38.8516 6.09803 38.2957 6.66175 38.0514 6.83768C37.8071 7.01362 38.6251 6.83768 38.9083 6.66175C39.1168 6.53229 38.9264 6.75858 38.7662 6.94907C38.7087 7.01746 38.655 7.08123 38.6251 7.12228L38.6203 7.12882C38.5108 7.27905 38.4759 7.3268 38.7384 7.3268C39.0046 7.3268 38.0514 7.88259 38.0514 7.88259C38.0514 7.88259 38.3353 7.84878 38.0514 8.21885C37.884 8.437 37.0689 8.65737 36.4071 8.83629C35.9462 8.96089 35.5596 9.06539 35.518 9.13503C35.4433 9.26009 34.701 9.40493 34.355 9.47243C34.2317 9.4965 34.1587 9.51074 34.1844 9.51074C34.2821 9.51074 34.4444 9.6034 34.2681 9.6034C34.0918 9.6034 33.7823 9.67814 33.7823 9.67814C33.7823 9.67814 33.9452 9.67814 33.7823 9.85228C33.7042 9.9357 33.5674 9.92249 33.4714 9.91322C33.367 9.90315 33.311 9.89774 33.4316 10.0264C33.5361 10.1379 33.5769 10.1813 33.5685 10.1953C33.5583 10.2124 33.4753 10.1861 33.3456 10.1861C33.2334 10.1861 33.1134 10.1501 32.9875 10.1123C32.8483 10.0704 32.7017 10.0264 32.5501 10.0264C32.273 10.0264 32.5512 10.1736 32.725 10.2655C32.7322 10.2693 32.7393 10.2731 32.7462 10.2767C32.9013 10.359 32.8367 10.3589 32.5559 10.3581C32.5276 10.3581 32.4971 10.358 32.4644 10.358C32.2902 10.358 32.1965 10.3437 32.1463 10.3361C32.0934 10.328 32.0885 10.3273 32.0885 10.358C32.0885 10.3874 31.9572 10.3464 31.7993 10.2971C31.6358 10.2461 31.4437 10.1861 31.339 10.1861C31.1333 10.1861 31.7751 10.5044 31.7751 10.5044C31.7751 10.5044 31.4408 10.4233 31.2598 10.358C31.1569 10.3208 31.2877 10.4961 31.4057 10.6543C31.4954 10.7745 31.5777 10.8848 31.5448 10.8848C31.5198 10.8848 31.4647 10.8649 31.4019 10.8423C31.2731 10.7959 31.1119 10.7379 31.1119 10.8157C31.1119 10.9313 31.2598 11.0172 31.4408 11.0172C31.6219 11.0172 31.6517 11.1978 31.5448 11.1978C31.5077 11.1978 31.4621 11.1859 31.4183 11.1744C31.3358 11.1528 31.2598 11.1329 31.2598 11.1978C31.2598 11.2397 31.2919 11.2711 31.3291 11.3074C31.3802 11.3573 31.4408 11.4164 31.4408 11.5248C31.4408 11.7123 31.1714 11.739 31.2598 11.6147C31.3482 11.4905 30.9532 11.1907 30.9532 11.3374V11.5248C30.9532 11.6574 30.9191 11.6658 30.8659 11.6791C30.8331 11.6872 30.7931 11.6971 30.7493 11.739C30.684 11.8014 30.6742 11.8369 30.6687 11.8568C30.6632 11.8765 30.662 11.8808 30.6153 11.8808C30.5782 11.8808 30.5473 11.8394 30.5059 11.7838C30.4423 11.6983 30.3536 11.5793 30.1791 11.5248C30.0132 11.4731 30.0045 11.5107 29.9894 11.5755C29.9783 11.6234 29.9637 11.6862 29.8798 11.739C29.7537 11.8183 29.7886 11.8512 29.8303 11.8905C29.854 11.9128 29.8798 11.9371 29.8798 11.9731C29.8798 12.0727 29.6592 11.8735 29.6592 11.739C29.6592 11.6044 29.4085 11.4254 29.4085 11.5248C29.4085 11.6243 29.4085 11.739 29.2796 11.739C29.2175 11.739 29.2152 11.7721 29.2121 11.8167C29.2088 11.8647 29.2045 11.9259 29.1236 11.9731C29.0439 12.0196 29.0457 11.9948 29.0495 11.9404C29.0532 11.8883 29.0588 11.809 28.9967 11.739C28.9191 11.6514 28.984 11.5158 29.017 11.4469C29.0379 11.4031 29.046 11.3862 28.9967 11.4254C28.8715 11.5249 28.7119 11.5249 28.6039 11.5248H28.5996C28.5452 11.5248 28.4977 11.5767 28.4639 11.6136C28.4306 11.65 28.4106 11.6718 28.4106 11.6147C28.4106 11.4998 28.5706 11.1978 28.8716 11.1978C29.1035 11.1978 29.2202 11.1273 29.3205 11.0667C29.3504 11.0486 29.3789 11.0314 29.4085 11.0172C29.5374 10.9555 29.4085 10.875 29.2796 10.8157C29.221 10.7887 29.2423 10.7018 29.2829 10.6242C29.3544 10.5896 29.4085 10.547 29.4085 10.5044C29.4085 10.4511 29.3317 10.5309 29.2829 10.6242C29.1903 10.6689 29.0684 10.7 28.9967 10.7C28.928 10.7 28.971 10.6067 29.0249 10.49C29.0704 10.3914 29.1236 10.276 29.1236 10.1861C29.1236 10.1005 29.1426 10.0261 29.1558 9.97458C29.1728 9.90803 29.1799 9.87985 29.1236 9.9155C29.0537 9.95974 28.681 9.91108 28.4269 9.87789C28.318 9.86366 28.2308 9.85228 28.1986 9.85228C28.1511 9.85228 28.1894 9.78534 28.2274 9.71876C28.2753 9.63497 28.3228 9.55176 28.1986 9.6034C28.0039 9.68433 27.608 9.68091 27.3575 9.67874C27.3212 9.67843 27.288 9.67814 27.2589 9.67814C27.1124 9.67814 27.2129 9.58129 27.2668 9.52936C27.2976 9.4997 27.3132 9.48469 27.2589 9.51074C27.1094 9.5824 26.9609 9.6034 26.7928 9.6034C26.717 9.6034 26.6954 9.56971 26.6717 9.53284C26.6428 9.48792 26.6109 9.43828 26.4744 9.43907C26.2258 9.44053 26.1701 9.43762 26.0332 9.35667C25.962 9.31454 26.002 9.28977 26.0247 9.2757C26.0456 9.26273 26.0519 9.25886 25.943 9.25886H25.2687C24.9328 9.25886 25.2697 9.06266 25.3908 9.06266C25.5119 9.06266 25.6522 8.8861 25.3908 8.96538C25.2235 9.01612 25.0444 9.00191 24.8327 8.9851C24.7137 8.97565 24.5843 8.96538 24.4409 8.96538C24.0424 8.96538 23.966 8.82729 24.2016 8.82729C24.4373 8.82729 24.4511 8.72613 24.0849 8.72613C23.8552 8.72613 23.6663 8.67936 23.5255 8.6445C23.4419 8.62379 23.3752 8.60728 23.3271 8.60728C23.1979 8.60728 23.0581 8.47113 23.3271 8.47113C23.596 8.47113 23.941 8.35765 23.6467 8.35765C23.4804 8.35765 23.2031 8.29128 22.9619 8.23355C22.7761 8.18909 22.6117 8.14974 22.5358 8.14974C22.4775 8.14974 22.5686 8.13507 22.69 8.11553C22.9321 8.07656 23.2946 8.01821 22.8323 8.01821C22.3387 8.01821 21.8214 7.71646 21.4641 7.50805C21.3191 7.42343 21.2004 7.3542 21.1204 7.3268C20.8433 7.23189 21.1204 7.04448 21.2002 7.12228C21.28 7.20008 21.8389 7.31971 21.5968 7.21545C21.3548 7.11118 21.2002 6.93375 21.1204 6.83768C21.0406 6.74162 21.102 6.67526 21.2002 6.75089C21.2984 6.82652 21.7515 7.04448 21.7515 7.04448C21.7515 7.04448 21.5091 6.83768 21.3166 6.51368C21.1242 6.18967 21.5091 6.26859 21.8389 6.51368C22.1688 6.75876 22.478 6.82361 22.6333 6.83768C22.7885 6.85176 22.478 6.66115 22.1791 6.51368C21.8802 6.3662 21.9481 5.83824 22.1791 6.04905C22.2993 6.15872 22.8688 6.36772 23.4257 6.57214C23.9393 6.76065 24.4423 6.94527 24.5726 7.04448C24.7979 7.21618 24.6166 6.96022 24.4201 6.68294C24.38 6.62625 24.3392 6.56867 24.3011 6.51368C24.1707 6.32531 24.6949 6.53933 25.2912 6.78282C25.7207 6.95817 26.1876 7.1488 26.4744 7.21545C26.6719 7.26136 26.9079 7.33486 27.1437 7.40831C27.7254 7.58954 28.3059 7.7704 28.3059 7.5354C28.3059 7.20516 28.8379 6.68842 29.4085 6.51368C29.7706 6.40277 29.9411 6.50303 30.1557 6.62924C30.2793 6.70189 30.4175 6.78315 30.6153 6.83768ZM30.0014 10.7137C30.1302 10.7137 30.095 9.71021 30.095 9.71021C30.095 9.71021 30.4751 10.3256 30.4751 10.5918C30.4751 10.7126 30.4637 10.7489 30.4671 10.7837C30.4712 10.8257 30.4967 10.8656 30.5891 11.0487C30.6828 11.2343 30.6207 11.2142 30.4514 11.1594C30.3151 11.1153 30.1093 11.0487 29.8594 11.0487C29.2988 11.0487 29.8727 10.7137 30.0014 10.7137Z" fill="#FF8126"/>
<path d="M30.6153 7.21545L30.5331 7.30967L30.592 7.36096L30.6639 7.33061L30.6153 7.21545ZM30.6153 6.83768L30.582 6.95819L30.6153 6.83768ZM29.8798 7.3268L29.7802 7.25132V7.25132L29.8798 7.3268ZM30.4433 7.59276L30.4436 7.71776L30.4433 7.59276ZM31.4 7.56104L31.3941 7.43618L31.4 7.56104ZM32.9635 7.3268L32.9072 7.2152L32.9635 7.3268ZM34.7815 6.90179L34.7586 6.77892L34.7815 6.90179ZM35.518 6.75089L35.5575 6.86949L35.518 6.75089ZM35.2572 7.12228L35.1747 7.02837L35.2934 7.24193L35.2572 7.12228ZM37.6724 6.30585L37.7297 6.41696V6.41696L37.6724 6.30585ZM37.6244 6.46597L37.7114 6.55564V6.55564L37.6244 6.46597ZM37.2693 6.83768L37.172 6.75922V6.75922L37.2693 6.83768ZM37.8304 6.62413L37.7677 6.51603V6.51603L37.8304 6.62413ZM38.4084 6.30585L38.3554 6.19268V6.19268L38.4084 6.30585ZM38.0514 6.83768L37.9783 6.73624L38.0514 6.83768ZM38.9083 6.66175L38.9743 6.76793V6.76793L38.9083 6.66175ZM38.7662 6.94907L38.6705 6.86861V6.86861L38.7662 6.94907ZM38.6251 7.12228L38.7261 7.19593L38.7261 7.19592L38.6251 7.12228ZM38.6203 7.12882L38.7213 7.20248L38.7213 7.20246L38.6203 7.12882ZM38.0514 7.88259L37.9884 7.7746L38.0662 8.00671L38.0514 7.88259ZM38.0514 8.21885L38.1506 8.29494V8.29494L38.0514 8.21885ZM36.4071 8.83629L36.4397 8.95696L36.4071 8.83629ZM35.518 9.13503L35.6253 9.19913V9.19913L35.518 9.13503ZM34.355 9.47243L34.379 9.59512L34.355 9.47243ZM33.7823 9.67814L33.7529 9.55663L33.7823 9.80314V9.67814ZM33.7823 9.85228L33.691 9.76689V9.76689L33.7823 9.85228ZM33.4714 9.91322L33.4594 10.0376L33.4714 9.91322ZM33.4316 10.0264L33.5228 9.94095H33.5228L33.4316 10.0264ZM33.5685 10.1953L33.6758 10.2593L33.6758 10.2593L33.5685 10.1953ZM32.9875 10.1123L33.0234 9.99255L32.9875 10.1123ZM32.725 10.2655L32.6665 10.376L32.6665 10.376L32.725 10.2655ZM32.7462 10.2767L32.6876 10.3871L32.6876 10.3871L32.7462 10.2767ZM32.5559 10.3581L32.5562 10.2331L32.5559 10.3581ZM32.1463 10.3361L32.1274 10.4597L32.1463 10.3361ZM31.7993 10.2971L31.8365 10.1778L31.7993 10.2971ZM31.7751 10.5044L31.7457 10.6259L31.8307 10.3924L31.7751 10.5044ZM31.2598 10.358L31.2173 10.4756L31.2598 10.358ZM31.4057 10.6543L31.5059 10.5796L31.5059 10.5796L31.4057 10.6543ZM31.4019 10.8423L31.4443 10.7247L31.4019 10.8423ZM31.4183 11.1744L31.45 11.0535L31.4183 11.1744ZM31.3291 11.3074L31.2418 11.3969L31.3291 11.3074ZM31.2598 11.6147L31.1579 11.5423L31.1579 11.5423L31.2598 11.6147ZM30.8659 11.6791L30.896 11.8004L30.8659 11.6791ZM30.7493 11.739L30.663 11.6486V11.6486L30.7493 11.739ZM30.6687 11.8568L30.7891 11.8901L30.7891 11.8901L30.6687 11.8568ZM30.5059 11.7838L30.4056 11.8584V11.8584L30.5059 11.7838ZM30.1791 11.5248L30.1418 11.6442L30.1791 11.5248ZM29.9894 11.5755L29.8677 11.5472L29.8677 11.5472L29.9894 11.5755ZM29.8798 11.739L29.8133 11.6331L29.8798 11.739ZM29.8303 11.8905L29.9161 11.7995L29.9161 11.7995L29.8303 11.8905ZM29.2121 11.8167L29.3368 11.8254V11.8254L29.2121 11.8167ZM29.1236 11.9731L29.1866 12.0811L29.1236 11.9731ZM29.0495 11.9404L29.1742 11.9492V11.9492L29.0495 11.9404ZM28.9967 11.739L28.9032 11.8219L28.9967 11.739ZM29.017 11.4469L29.1297 11.5008L29.017 11.4469ZM28.9967 11.4254L28.919 11.3275L28.9967 11.4254ZM28.6039 11.5248L28.6039 11.3998H28.6039V11.5248ZM28.4639 11.6136L28.3717 11.5292L28.3717 11.5292L28.4639 11.6136ZM29.3205 11.0667L29.2558 10.9597L29.2558 10.9597L29.3205 11.0667ZM29.4085 11.0172L29.4625 11.13L29.4085 11.0172ZM29.2796 10.8157L29.2273 10.9292L29.2796 10.8157ZM29.0249 10.49L29.1384 10.5424V10.5424L29.0249 10.49ZM29.1558 9.97458L29.2769 10.0055V10.0055L29.1558 9.97458ZM29.1236 9.9155L29.0568 9.80987L29.0568 9.80987L29.1236 9.9155ZM28.4269 9.87789L28.4431 9.75394H28.4431L28.4269 9.87789ZM28.2274 9.71876L28.3359 9.78078L28.2274 9.71876ZM28.1986 9.6034L28.2466 9.71882L28.1986 9.6034ZM27.3575 9.67874L27.3586 9.55375L27.3575 9.67874ZM27.2668 9.52936L27.3536 9.61937L27.2668 9.52936ZM27.2589 9.51074L27.2048 9.39803L27.2589 9.51074ZM26.6717 9.53284L26.5665 9.60044L26.5665 9.60044L26.6717 9.53284ZM26.4744 9.43907L26.4736 9.31408L26.4744 9.43907ZM26.0332 9.35667L26.0969 9.24908L26.0332 9.35667ZM26.0247 9.2757L25.9589 9.16944L25.9589 9.16944L26.0247 9.2757ZM25.3908 8.96538L25.3545 8.84576L25.3908 8.96538ZM24.8327 8.9851L24.8426 8.86049L24.8426 8.86049L24.8327 8.9851ZM23.5255 8.6445L23.4955 8.76583H23.4955L23.5255 8.6445ZM22.9619 8.23355L22.9328 8.35511H22.9328L22.9619 8.23355ZM22.69 8.11553L22.7099 8.23894L22.69 8.11553ZM21.4641 7.50805L21.5271 7.40008H21.5271L21.4641 7.50805ZM21.1204 7.3268L21.0799 7.44505H21.0799L21.1204 7.3268ZM21.2002 7.12228L21.113 7.2118H21.113L21.2002 7.12228ZM21.5968 7.21545L21.6463 7.10064L21.5968 7.21545ZM21.1204 6.83768L21.2165 6.7578L21.1204 6.83768ZM21.2002 6.75089L21.1239 6.84992H21.1239L21.2002 6.75089ZM21.7515 7.04448L21.6973 7.15713L21.8326 6.94939L21.7515 7.04448ZM21.3166 6.51368L21.4241 6.44984L21.3166 6.51368ZM22.6333 6.83768L22.6446 6.71319L22.6333 6.83768ZM22.1791 6.51368L22.1238 6.62577L22.1791 6.51368ZM22.1791 6.04905L22.2634 5.95671V5.95671L22.1791 6.04905ZM23.4257 6.57214L23.3826 6.68949L23.4257 6.57214ZM24.5726 7.04448L24.6483 6.94505V6.94505L24.5726 7.04448ZM24.4201 6.68294L24.5221 6.61068V6.61068L24.4201 6.68294ZM24.3011 6.51368L24.1983 6.58483H24.1983L24.3011 6.51368ZM25.2912 6.78282L25.3385 6.6671L25.2912 6.78282ZM26.4744 7.21545L26.4461 7.3372L26.4744 7.21545ZM27.1437 7.40831L27.1808 7.28897L27.1437 7.40831ZM29.4085 6.51368L29.4451 6.63319V6.63319L29.4085 6.51368ZM30.1557 6.62924L30.0924 6.73699V6.73699L30.1557 6.62924ZM30.095 9.71021L30.2013 9.64451L29.9535 9.24332L29.9701 9.71459L30.095 9.71021ZM30.4671 10.7837L30.3427 10.7958L30.4671 10.7837ZM30.5891 11.0487L30.7007 10.9923L30.5891 11.0487ZM30.4514 11.1594L30.4899 11.0404L30.4514 11.1594ZM30.6153 7.21545C30.6639 7.33061 30.6639 7.33059 30.6639 7.33058C30.6639 7.33057 30.664 7.33055 30.664 7.33054C30.6641 7.33052 30.6641 7.33049 30.6642 7.33045C30.6644 7.33039 30.6646 7.33031 30.6648 7.33021C30.6652 7.33002 30.6658 7.32977 30.6665 7.32947C30.6679 7.32887 30.6698 7.32804 30.6721 7.327C30.6768 7.32491 30.6833 7.32196 30.6912 7.31821C30.7068 7.31075 30.7285 7.29995 30.7526 7.2864C30.7981 7.26087 30.8635 7.2195 30.9115 7.1658C30.9358 7.13862 30.9622 7.10102 30.9743 7.05377C30.9875 7.00211 30.9814 6.94645 30.9509 6.8955C30.9228 6.84859 30.8792 6.81401 30.8313 6.78747C30.7827 6.7605 30.7218 6.7374 30.6485 6.71718L30.582 6.95819C30.644 6.97528 30.6846 6.99197 30.71 7.00607C30.7362 7.0206 30.7391 7.02836 30.7364 7.02386C30.7313 7.01532 30.7294 7.00214 30.7321 6.99184C30.7336 6.98594 30.7346 6.98857 30.725 6.99928C30.7053 7.02136 30.6693 7.04644 30.6302 7.06842C30.612 7.07862 30.5956 7.08684 30.5838 7.09246C30.5779 7.09525 30.5733 7.09735 30.5703 7.09869C30.5688 7.09935 30.5677 7.09983 30.5671 7.1001C30.5668 7.10023 30.5666 7.10032 30.5665 7.10035C30.5665 7.10036 30.5665 7.10037 30.5665 7.10035C30.5665 7.10035 30.5665 7.10034 30.5665 7.10033C30.5666 7.10032 30.5666 7.10031 30.5666 7.10031C30.5666 7.1003 30.5666 7.10028 30.6153 7.21545ZM30.3834 7.04448C30.3834 7.09119 30.3989 7.13175 30.4137 7.16075C30.429 7.19079 30.448 7.21719 30.4646 7.23778C30.4816 7.25873 30.4982 7.27621 30.5105 7.28837C30.5167 7.29453 30.522 7.29952 30.5258 7.30312C30.5278 7.30492 30.5294 7.30638 30.5306 7.30748C30.5313 7.30803 30.5318 7.30849 30.5322 7.30886C30.5324 7.30904 30.5326 7.3092 30.5327 7.30934C30.5328 7.30941 30.5329 7.30947 30.5329 7.30952C30.533 7.30955 30.533 7.30958 30.533 7.3096C30.5331 7.30962 30.5331 7.30963 30.5331 7.30964C30.5331 7.30966 30.5331 7.30967 30.6153 7.21545C30.6974 7.12122 30.6974 7.12123 30.6974 7.12125C30.6974 7.12125 30.6974 7.12127 30.6975 7.12128C30.6975 7.1213 30.6975 7.12132 30.6975 7.12133C30.6976 7.12137 30.6976 7.12139 30.6976 7.12142C30.6977 7.12146 30.6977 7.12149 30.6977 7.12149C30.6977 7.1215 30.6976 7.12143 30.6975 7.12128C30.6971 7.12097 30.6964 7.12036 30.6955 7.11946C30.6935 7.11766 30.6904 7.11476 30.6866 7.11097C30.6788 7.10324 30.6687 7.09256 30.659 7.0805C30.6489 7.06807 30.6412 7.0566 30.6365 7.04729C30.6312 7.03694 30.6334 7.03668 30.6334 7.04448H30.3834ZM29.9794 7.40228C30.0674 7.28621 30.2008 7.2082 30.3151 7.16876C30.3723 7.14899 30.4174 7.14151 30.4425 7.14105C30.4567 7.1408 30.4542 7.143 30.4432 7.13854C30.4302 7.13329 30.3834 7.1062 30.3834 7.04448H30.6334C30.6334 6.96332 30.5735 6.92164 30.5371 6.90686C30.5026 6.89286 30.466 6.89059 30.438 6.89109C30.3786 6.89217 30.3066 6.9072 30.2335 6.93244C30.0869 6.98303 29.9061 7.08507 29.7802 7.25132L29.9794 7.40228ZM30.443 7.46776C30.3442 7.46797 30.2504 7.46814 30.1669 7.46431C30.0819 7.46041 30.0165 7.45265 29.9724 7.44014C29.9207 7.42551 29.937 7.41603 29.9456 7.44141C29.9541 7.46677 29.9334 7.46302 29.9794 7.40228L29.7802 7.25132C29.7248 7.32435 29.6748 7.42083 29.7087 7.52127C29.7425 7.62173 29.8388 7.66217 29.9043 7.68069C29.9772 7.70134 30.0662 7.70995 30.1554 7.71404C30.246 7.7182 30.3462 7.71797 30.4436 7.71776L30.443 7.46776ZM30.5084 7.46767C30.4865 7.46767 30.4647 7.46772 30.443 7.46776L30.4436 7.71776C30.4652 7.71772 30.4868 7.71767 30.5084 7.71767V7.46767ZM31.3941 7.43618C31.07 7.45149 30.7265 7.46767 30.5084 7.46767V7.71767C30.7339 7.71767 31.0845 7.70108 31.4059 7.6859L31.3941 7.43618ZM32.0885 7.4104C31.939 7.4104 31.673 7.42301 31.3941 7.43618L31.4059 7.6859C31.6882 7.67257 31.9465 7.6604 32.0885 7.6604V7.4104ZM32.9072 7.2152C32.7054 7.31703 32.5762 7.36389 32.4635 7.38685C32.35 7.40999 32.2473 7.4104 32.0885 7.4104V7.6604C32.2431 7.6604 32.3712 7.66082 32.5135 7.63181C32.6567 7.60262 32.8083 7.54517 33.0198 7.43839L32.9072 7.2152ZM34.7586 6.77892C34.4286 6.84054 34.0394 6.91325 33.6989 6.9876C33.5286 7.02478 33.3692 7.06266 33.2345 7.10011C33.1022 7.13694 32.9861 7.17539 32.9072 7.2152L33.0198 7.43839C33.0753 7.4104 33.1711 7.37725 33.3016 7.34096C33.4298 7.30529 33.5841 7.26854 33.7522 7.23184C34.0883 7.15845 34.4737 7.08645 34.8045 7.02467L34.7586 6.77892ZM35.4785 6.63229C35.4418 6.64451 35.355 6.66416 35.2244 6.69024C35.0971 6.71568 34.9367 6.74565 34.7586 6.77892L34.8045 7.02467C34.982 6.9915 35.1442 6.96121 35.2734 6.9354C35.3994 6.91023 35.503 6.88764 35.5575 6.86949L35.4785 6.63229ZM35.2572 7.12228C35.3397 7.2162 35.3397 7.21619 35.3397 7.21618C35.3397 7.21617 35.3398 7.21616 35.3398 7.21615C35.3398 7.21613 35.3398 7.2161 35.3399 7.21606C35.3399 7.21599 35.3401 7.21589 35.3402 7.21576C35.3405 7.21551 35.3409 7.21515 35.3414 7.21468C35.3425 7.21374 35.344 7.21239 35.346 7.21064C35.3499 7.20715 35.3556 7.2021 35.3627 7.19574C35.3768 7.18302 35.3967 7.16501 35.4197 7.14367C35.4653 7.10131 35.5247 7.0446 35.5764 6.9898C35.6021 6.96248 35.6273 6.93427 35.6483 6.90766C35.6673 6.88354 35.6902 6.85169 35.7035 6.81848C35.7096 6.80308 35.7204 6.77127 35.7142 6.73308C35.7062 6.68305 35.6727 6.64348 35.6276 6.62566C35.5928 6.61193 35.5598 6.6144 35.5414 6.61687C35.5203 6.61971 35.4989 6.62552 35.4785 6.63229L35.5575 6.86949C35.5698 6.86541 35.5749 6.86463 35.5747 6.86464C35.5745 6.86468 35.571 6.86515 35.5653 6.86485C35.5598 6.86456 35.549 6.8634 35.5358 6.8582C35.5014 6.8446 35.4738 6.81253 35.4674 6.77279C35.4629 6.74489 35.4711 6.72615 35.4711 6.72612C35.4721 6.72367 35.4686 6.73176 35.452 6.75286C35.4373 6.77146 35.4176 6.79375 35.3945 6.81827C35.3484 6.86718 35.2936 6.91958 35.2496 6.96042C35.2278 6.98069 35.2089 6.99779 35.1956 7.00979C35.1889 7.01578 35.1836 7.02049 35.18 7.02367C35.1782 7.02526 35.1769 7.02647 35.176 7.02726C35.1755 7.02766 35.1752 7.02795 35.175 7.02814C35.1749 7.02823 35.1748 7.0283 35.1748 7.02834C35.1747 7.02836 35.1747 7.02837 35.1747 7.02837C35.1747 7.02838 35.1747 7.02838 35.1747 7.02838C35.1747 7.02837 35.1747 7.02837 35.2572 7.12228ZM37.6151 6.19475C37.5233 6.24207 37.3303 6.31637 37.0835 6.40318C36.8397 6.48892 36.5516 6.5841 36.2753 6.67301C35.9992 6.76189 35.7356 6.84431 35.541 6.90452C35.4437 6.93463 35.3636 6.95917 35.3079 6.97618C35.2801 6.98468 35.2583 6.99131 35.2436 6.9958C35.2362 6.99804 35.2305 6.99976 35.2267 7.00091C35.2248 7.00148 35.2234 7.00192 35.2224 7.00221C35.222 7.00235 35.2216 7.00246 35.2214 7.00253C35.2213 7.00257 35.2212 7.00259 35.2211 7.00261C35.2211 7.00262 35.2211 7.00263 35.221 7.00263C35.221 7.00263 35.221 7.00264 35.2572 7.12228C35.2934 7.24193 35.2934 7.24193 35.2934 7.24192C35.2935 7.24192 35.2935 7.24191 35.2935 7.2419C35.2936 7.24188 35.2937 7.24185 35.2938 7.24181C35.294 7.24174 35.2944 7.24162 35.2949 7.24148C35.2959 7.24118 35.2973 7.24074 35.2993 7.24015C35.3031 7.23899 35.3088 7.23726 35.3163 7.235C35.3311 7.23047 35.353 7.22381 35.381 7.21527C35.4369 7.19819 35.5172 7.17356 35.6148 7.14336C35.8101 7.08296 36.0746 7.00024 36.3519 6.91099C36.6291 6.82178 36.9196 6.72583 37.1664 6.63901C37.4102 6.55326 37.6199 6.47354 37.7297 6.41696L37.6151 6.19475ZM37.7114 6.55564C37.7571 6.51133 37.8001 6.46959 37.8341 6.43468C37.8646 6.40344 37.8993 6.36648 37.9182 6.33469C37.9234 6.32605 37.9319 6.31043 37.937 6.29045C37.9415 6.27249 37.9491 6.22622 37.9176 6.18117C37.8854 6.13524 37.8381 6.12692 37.8181 6.12541C37.7967 6.12379 37.7783 6.12731 37.7677 6.12975C37.7284 6.13883 37.6751 6.16381 37.6151 6.19475L37.7297 6.41696C37.7595 6.40155 37.7825 6.3905 37.7996 6.383C37.8181 6.37487 37.8249 6.37313 37.824 6.37333C37.8233 6.3735 37.821 6.37401 37.8174 6.37442C37.814 6.37481 37.8076 6.37533 37.7993 6.3747C37.7857 6.37367 37.7427 6.36729 37.7128 6.32465C37.6836 6.2829 37.6916 6.2413 37.6946 6.22928C37.6981 6.21524 37.7034 6.20685 37.7035 6.20663C37.7044 6.20519 37.7019 6.20923 37.6919 6.22075C37.6829 6.23113 37.6706 6.24422 37.6551 6.26015C37.624 6.29209 37.5838 6.33116 37.5373 6.3763L37.7114 6.55564ZM37.3666 6.91615C37.4607 6.79942 37.596 6.66779 37.7114 6.55564L37.5373 6.3763C37.4248 6.48552 37.2775 6.6283 37.172 6.75922L37.3666 6.91615ZM37.7677 6.51603C37.5724 6.62938 37.3963 6.73146 37.2898 6.7801C37.2635 6.79213 37.246 6.79874 37.236 6.80162C37.2308 6.8031 37.2316 6.80242 37.2365 6.80203C37.2386 6.80186 37.2607 6.79971 37.2872 6.81304C37.3238 6.83143 37.3458 6.8672 37.3493 6.90341C37.3519 6.92961 37.3439 6.9468 37.3438 6.94711C37.3427 6.94967 37.3466 6.94093 37.3666 6.91615L37.172 6.75922C37.1494 6.78718 37.1269 6.8183 37.1137 6.84937C37.1075 6.86393 37.0971 6.89254 37.1005 6.92751C37.1048 6.97249 37.1311 7.01437 37.175 7.03643C37.2088 7.05342 37.2412 7.05246 37.2565 7.05123C37.2747 7.04977 37.2916 7.04576 37.3052 7.04183C37.3328 7.03389 37.3633 7.02137 37.3937 7.00749C37.5142 6.95245 37.7036 6.84228 37.8932 6.73224L37.7677 6.51603ZM38.3554 6.19268C38.1946 6.26806 37.9718 6.39751 37.7677 6.51603L37.8932 6.73224C38.1014 6.61137 38.313 6.48865 38.4615 6.41903L38.3554 6.19268ZM38.1244 6.93912C38.2553 6.84487 38.4631 6.65271 38.5838 6.50788C38.6142 6.47139 38.6423 6.43414 38.6625 6.39962C38.6725 6.38248 38.6828 6.36241 38.6899 6.34088C38.6962 6.32183 38.7051 6.28688 38.6955 6.24709C38.6833 6.19698 38.6473 6.16068 38.6029 6.1449C38.5672 6.13222 38.533 6.13493 38.5113 6.13829C38.4661 6.14527 38.413 6.16567 38.3554 6.19268L38.4615 6.41903C38.5147 6.39408 38.5411 6.38664 38.5494 6.38535C38.5545 6.38458 38.5405 6.38806 38.5191 6.38046C38.4891 6.36978 38.4615 6.34291 38.4525 6.30598C38.449 6.29167 38.4495 6.2802 38.4502 6.27384C38.451 6.26737 38.4522 6.26337 38.4525 6.26247C38.453 6.26109 38.452 6.26436 38.4468 6.2732C38.4366 6.29063 38.4184 6.31586 38.3917 6.34784C38.2842 6.4769 38.0918 6.65457 37.9783 6.73624L38.1244 6.93912ZM38.8424 6.55557C38.7195 6.63187 38.4614 6.71626 38.2563 6.75934C38.1504 6.78159 38.0809 6.78782 38.057 6.78501C38.0513 6.78434 38.0621 6.78446 38.0778 6.79352C38.0988 6.80559 38.1335 6.83872 38.1313 6.89279C38.1305 6.91336 38.1242 6.92836 38.1201 6.93615C38.116 6.94404 38.1121 6.94847 38.1113 6.94939C38.11 6.95089 38.1128 6.94748 38.1244 6.93912L37.9783 6.73624C37.9594 6.74988 37.94 6.76571 37.924 6.78388C37.911 6.79857 37.8835 6.83306 37.8815 6.88291C37.8789 6.94867 37.9199 6.99107 37.9531 7.01019C37.9811 7.02629 38.0101 7.03122 38.0278 7.0333C38.0974 7.04148 38.2043 7.02573 38.3077 7.004C38.5214 6.95911 38.8139 6.86757 38.9743 6.76793L38.8424 6.55557ZM38.8618 7.02954C38.9392 6.93753 39.0335 6.82585 39.0804 6.75336C39.092 6.7355 39.1057 6.7125 39.1145 6.68878C39.1186 6.67771 39.1255 6.65635 39.125 6.63019C39.1244 6.60079 39.113 6.55268 39.066 6.5213C39.0265 6.4949 38.9863 6.49778 38.9699 6.49996C38.9505 6.50252 38.9337 6.50841 38.9218 6.51322C38.8974 6.52308 38.8704 6.53815 38.8424 6.55557L38.9743 6.76793C38.9984 6.75299 39.011 6.74681 39.0155 6.74501C39.018 6.74398 39.0129 6.74644 39.0028 6.74778C38.9957 6.74873 38.9622 6.75258 38.9272 6.72918C38.8847 6.7008 38.8755 6.65769 38.875 6.63512C38.8746 6.6158 38.8796 6.60308 38.8799 6.6023C38.8811 6.59915 38.8798 6.60326 38.8706 6.6175C38.8344 6.67342 38.7534 6.77012 38.6705 6.86861L38.8618 7.02954ZM38.7261 7.19592C38.7528 7.15929 38.8029 7.09966 38.8618 7.02954L38.6705 6.86861C38.6145 6.93526 38.5572 7.00318 38.5241 7.04865L38.7261 7.19592ZM38.7213 7.20246L38.7261 7.19593L38.5241 7.04864L38.5193 7.05517L38.7213 7.20246ZM38.7384 7.2018C38.7073 7.2018 38.6821 7.20108 38.6618 7.19973C38.6412 7.19835 38.6279 7.19646 38.6199 7.19475C38.6161 7.19393 38.6146 7.19338 38.6147 7.19344C38.6148 7.19348 38.6178 7.19451 38.6223 7.19728C38.6269 7.20011 38.6338 7.20515 38.6408 7.21331C38.648 7.22176 38.6542 7.23216 38.6583 7.24405C38.6663 7.2678 38.6621 7.28603 38.6609 7.29052C38.6602 7.29308 38.6597 7.29387 38.6603 7.29254C38.6609 7.29127 38.6621 7.28881 38.6643 7.28497C38.6688 7.27699 38.6757 7.26637 38.6858 7.25191C38.6957 7.23756 38.7074 7.22155 38.7213 7.20248L38.5193 7.05516C38.4936 7.0904 38.4659 7.12813 38.447 7.1613C38.4373 7.1783 38.4265 7.19999 38.4198 7.22444C38.413 7.2492 38.4082 7.28513 38.4215 7.32424C38.4499 7.40822 38.5307 7.43132 38.5677 7.43923C38.6134 7.44899 38.6716 7.4518 38.7384 7.4518V7.2018ZM38.0514 7.88259C38.1144 7.99057 38.1144 7.99057 38.1144 7.99056C38.1144 7.99055 38.1144 7.99054 38.1144 7.99053C38.1145 7.99051 38.1145 7.99048 38.1146 7.99044C38.1147 7.99036 38.1149 7.99025 38.1152 7.99011C38.1156 7.98982 38.1164 7.9894 38.1173 7.98885C38.1192 7.98776 38.1219 7.98615 38.1254 7.98407C38.1325 7.97991 38.1428 7.97384 38.1557 7.96613C38.1816 7.95072 38.2183 7.92875 38.2614 7.90238C38.3474 7.8498 38.46 7.77919 38.5648 7.70817C38.667 7.63896 38.7705 7.5635 38.8319 7.50188C38.8477 7.486 38.864 7.46782 38.8773 7.44818C38.8885 7.43175 38.9085 7.39861 38.9102 7.35551C38.9111 7.33103 38.9061 7.3029 38.8901 7.27623C38.8743 7.25002 38.8528 7.23311 38.8333 7.22272C38.7983 7.20407 38.7615 7.2018 38.7384 7.2018V7.4518C38.7485 7.4518 38.7355 7.45386 38.7158 7.44336C38.7039 7.43704 38.6879 7.42515 38.6757 7.40484C38.6632 7.38407 38.6597 7.36273 38.6604 7.34585C38.6615 7.31795 38.6735 7.30326 38.6703 7.30799C38.6693 7.30953 38.6649 7.31523 38.6548 7.3254C38.6124 7.36799 38.5275 7.43148 38.4246 7.50122C38.3243 7.56915 38.2154 7.63748 38.131 7.68911C38.0889 7.71485 38.0531 7.7363 38.0279 7.75128C38.0153 7.75877 38.0054 7.76464 37.9986 7.76862C37.9952 7.77061 37.9927 7.77212 37.9909 7.77313C37.9901 7.77364 37.9894 7.77402 37.989 7.77426C37.9888 7.77438 37.9886 7.77448 37.9885 7.77453C37.9885 7.77456 37.9885 7.77458 37.9884 7.77459C37.9884 7.7746 37.9884 7.7746 37.9884 7.7746C37.9884 7.77461 37.9884 7.7746 38.0514 7.88259ZM38.1506 8.29494C38.2253 8.19753 38.2722 8.11501 38.2918 8.04303C38.3126 7.96663 38.3054 7.88649 38.249 7.82639C38.2009 7.77519 38.1381 7.76274 38.1059 7.75895C38.0874 7.75676 38.0712 7.75658 38.0595 7.75691C38.0536 7.75707 38.0486 7.75738 38.0448 7.75768C38.0428 7.75783 38.0412 7.75798 38.0398 7.75812C38.0391 7.75819 38.0385 7.75825 38.038 7.75831C38.0377 7.75834 38.0375 7.75837 38.0372 7.75839C38.0371 7.7584 38.037 7.75842 38.0369 7.75843C38.0369 7.75844 38.0368 7.75844 38.0368 7.75845C38.0367 7.75846 38.0366 7.75846 38.0514 7.88259C38.0662 8.00671 38.0661 8.00672 38.066 8.00673C38.066 8.00673 38.0659 8.00674 38.0659 8.00674C38.0658 8.00675 38.0657 8.00676 38.0656 8.00677C38.0655 8.00679 38.0653 8.00681 38.0652 8.00682C38.065 8.00685 38.0647 8.00687 38.0646 8.00689C38.0643 8.00692 38.0642 8.00692 38.0643 8.00692C38.0644 8.0069 38.0652 8.00684 38.0665 8.00681C38.0693 8.00673 38.0731 8.0068 38.0767 8.00723C38.0889 8.00866 38.0793 8.01089 38.0667 7.9975C38.0458 7.97521 38.0564 7.956 38.0506 7.97734C38.0436 8.0031 38.0194 8.05513 37.9522 8.14276L38.1506 8.29494ZM36.4397 8.95696C36.7696 8.86777 37.143 8.76688 37.455 8.66061C37.6109 8.60748 37.7548 8.55192 37.872 8.49441C37.9845 8.43921 38.0899 8.37407 38.1506 8.29494L37.9522 8.14276C37.9292 8.17271 37.87 8.21692 37.7619 8.26998C37.6584 8.32075 37.5258 8.37236 37.3743 8.42396C37.0715 8.52713 36.7064 8.62589 36.3744 8.71562L36.4397 8.95696ZM35.6253 9.19913C35.615 9.21648 35.6048 9.2201 35.616 9.21297C35.624 9.20792 35.638 9.20053 35.6597 9.19103C35.7029 9.17216 35.7646 9.15025 35.843 9.12545C35.9993 9.07602 36.2083 9.01952 36.4397 8.95696L36.3744 8.71562C36.145 8.77766 35.9302 8.8357 35.7676 8.88708C35.6866 8.91269 35.615 8.93775 35.5596 8.96195C35.532 8.974 35.5054 8.98716 35.4825 9.00165C35.4628 9.01405 35.4315 9.03617 35.4107 9.07093L35.6253 9.19913ZM34.379 9.59512C34.5514 9.56147 34.8269 9.50776 35.0689 9.44649C35.1896 9.41595 35.3055 9.38266 35.3975 9.34799C35.4433 9.33072 35.4866 9.31187 35.5228 9.29121C35.5547 9.27296 35.5987 9.2438 35.6253 9.19913L35.4107 9.07093C35.4187 9.05753 35.4231 9.06025 35.3988 9.07412C35.3787 9.08559 35.349 9.09909 35.3094 9.11405C35.2304 9.14381 35.1251 9.1744 35.0076 9.20414C34.7733 9.26343 34.5046 9.31589 34.3311 9.34975L34.379 9.59512ZM34.1844 9.38574C34.1844 9.38574 34.1896 9.38567 34.1969 9.38662C34.2 9.38702 34.2092 9.3883 34.2206 9.39224C34.2238 9.39333 34.267 9.40653 34.2908 9.45363C34.3258 9.52275 34.2854 9.57906 34.2716 9.59411C34.2573 9.60974 34.2426 9.61757 34.2393 9.61931C34.2299 9.62438 34.2223 9.62675 34.2222 9.62678C34.2198 9.62759 34.2234 9.62641 34.2402 9.6228C34.2691 9.61656 34.3166 9.60728 34.379 9.59512L34.3311 9.34975C34.2701 9.36165 34.2195 9.37152 34.1875 9.37842C34.1738 9.38137 34.1563 9.38526 34.1435 9.38949C34.1409 9.39038 34.1314 9.3935 34.1207 9.39922C34.1169 9.40128 34.1018 9.40941 34.0872 9.42531C34.0732 9.44064 34.0327 9.49719 34.0678 9.56653C34.0917 9.61385 34.1352 9.62724 34.1389 9.62849C34.1507 9.6326 34.1606 9.63401 34.1646 9.63452C34.1735 9.63569 34.1811 9.63574 34.1844 9.63574V9.38574ZM34.2681 9.7284C34.2946 9.7284 34.3207 9.72675 34.3445 9.72182C34.3634 9.7179 34.4035 9.7077 34.4349 9.67385C34.4532 9.65409 34.4676 9.62701 34.4708 9.59449C34.474 9.56345 34.466 9.53754 34.4574 9.51973C34.4419 9.48754 34.4175 9.46721 34.4042 9.45722C34.3742 9.43463 34.3365 9.41774 34.3028 9.40657C34.2685 9.39518 34.2262 9.38574 34.1844 9.38574V9.63574C34.1914 9.63574 34.2061 9.63788 34.2241 9.64386C34.2324 9.64662 34.2398 9.64966 34.2457 9.6525C34.2519 9.65554 34.2543 9.65732 34.2538 9.65692C34.2534 9.65665 34.251 9.65485 34.2477 9.65127C34.2446 9.648 34.2381 9.64046 34.2323 9.62843C34.2263 9.61605 34.2195 9.59538 34.2221 9.56933C34.2249 9.54179 34.2371 9.51941 34.2514 9.50399C34.2644 9.49 34.2773 9.48334 34.2834 9.48063C34.2868 9.47912 34.2895 9.47822 34.2911 9.47773C34.2927 9.47724 34.2937 9.47704 34.2938 9.47701C34.2939 9.47699 34.292 9.47739 34.2873 9.47776C34.2828 9.47812 34.2765 9.4784 34.2681 9.4784V9.7284ZM33.7823 9.67814C33.8116 9.79965 33.8116 9.79965 33.8116 9.79965C33.8116 9.79965 33.8116 9.79966 33.8116 9.79966C33.8116 9.79966 33.8116 9.79966 33.8116 9.79965C33.8116 9.79965 33.8116 9.79964 33.8117 9.79963C33.8118 9.7996 33.812 9.79956 33.8122 9.7995C33.8127 9.79938 33.8135 9.79919 33.8146 9.79894C33.8167 9.79843 33.82 9.79767 33.8242 9.7967C33.8326 9.79475 33.8449 9.79193 33.8603 9.78853C33.8911 9.78173 33.934 9.77267 33.9822 9.76362C34.0812 9.74501 34.1926 9.7284 34.2681 9.7284V9.4784C34.1673 9.4784 34.0358 9.49916 33.936 9.51792C33.8847 9.52756 33.8392 9.53718 33.8065 9.5444C33.7901 9.54801 33.7769 9.55103 33.7677 9.55317C33.7631 9.55423 33.7595 9.55508 33.757 9.55567C33.7557 9.55597 33.7547 9.5562 33.7541 9.55636C33.7537 9.55644 33.7535 9.5565 33.7533 9.55655C33.7532 9.55657 33.7531 9.55659 33.753 9.55661C33.753 9.55661 33.753 9.55662 33.753 9.55662C33.753 9.55663 33.7529 9.55663 33.7529 9.55663C33.7529 9.55663 33.7529 9.55663 33.7823 9.67814ZM33.8735 9.93768C33.9189 9.88917 33.9544 9.84001 33.9703 9.78882C33.989 9.729 33.9806 9.66368 33.9346 9.61452C33.8982 9.57562 33.8525 9.56316 33.8313 9.55863C33.8185 9.55589 33.8073 9.55457 33.7992 9.5539C33.795 9.55356 33.7915 9.55338 33.7887 9.55327C33.7872 9.55322 33.786 9.55319 33.7849 9.55317C33.7844 9.55316 33.7839 9.55315 33.7834 9.55315C33.7832 9.55315 33.783 9.55315 33.7828 9.55314C33.7827 9.55314 33.7826 9.55314 33.7825 9.55314C33.7825 9.55314 33.7824 9.55314 33.7824 9.55314C33.7823 9.55314 33.7823 9.55314 33.7823 9.67814C33.7823 9.80314 33.7822 9.80314 33.7821 9.80314C33.7821 9.80314 33.782 9.80314 33.782 9.80314C33.7819 9.80314 33.7818 9.80314 33.7818 9.80314C33.7816 9.80314 33.7815 9.80314 33.7813 9.80314C33.781 9.80314 33.7808 9.80313 33.7805 9.80313C33.7801 9.80312 33.7797 9.80311 33.7794 9.8031C33.7789 9.80308 33.7787 9.80306 33.7787 9.80306C33.7787 9.80306 33.7787 9.80306 33.7788 9.80307C33.7788 9.80308 33.7789 9.80308 33.779 9.80309C33.7791 9.80312 33.7792 9.80313 33.779 9.8031C33.7789 9.80308 33.7784 9.80297 33.7776 9.8027C33.7767 9.80244 33.7752 9.80191 33.7732 9.80097C33.7695 9.79928 33.761 9.79484 33.7521 9.78531C33.7422 9.77477 33.7341 9.76033 33.731 9.74365C33.728 9.72791 33.7308 9.71711 33.7317 9.7144C33.7323 9.71219 33.727 9.72833 33.691 9.76689L33.8735 9.93768ZM33.4594 10.0376C33.5054 10.0421 33.5762 10.0493 33.6468 10.0418C33.7182 10.0342 33.8059 10.01 33.8735 9.93768L33.691 9.76689C33.6806 9.77801 33.6609 9.78889 33.6203 9.79321C33.579 9.79761 33.5334 9.79362 33.4834 9.7888L33.4594 10.0376ZM33.5228 9.94095C33.4937 9.9099 33.483 9.89479 33.4805 9.89048C33.479 9.88799 33.4852 9.89734 33.4876 9.91491C33.4889 9.92474 33.4892 9.93884 33.485 9.95517C33.4805 9.97214 33.4721 9.98784 33.4605 10.0009C33.4389 10.0251 33.4147 10.0312 33.4094 10.0324C33.4026 10.034 33.3999 10.0336 33.4048 10.0336C33.4151 10.0335 33.4309 10.0349 33.4594 10.0376L33.4834 9.7888C33.4597 9.78651 33.4294 9.78344 33.4036 9.78357C33.3905 9.78363 33.3722 9.78444 33.3529 9.78892C33.3351 9.79306 33.3013 9.80369 33.2737 9.83472C33.2416 9.87083 33.2353 9.91417 33.2398 9.94789C33.2436 9.97704 33.2554 10.0006 33.264 10.0156C33.2817 10.0461 33.3092 10.0786 33.3404 10.1119L33.5228 9.94095ZM33.6758 10.2593C33.6971 10.2236 33.6964 10.1879 33.6921 10.1655C33.6882 10.1444 33.6801 10.1279 33.6749 10.1185C33.6644 10.0994 33.6501 10.0814 33.6382 10.0672C33.6131 10.0372 33.5737 9.99521 33.5228 9.94095L33.3404 10.1119C33.394 10.1691 33.4271 10.2045 33.4465 10.2276C33.4568 10.2399 33.4577 10.2424 33.4558 10.2389C33.4548 10.2372 33.4494 10.2273 33.4464 10.2117C33.4433 10.1948 33.4419 10.1635 33.4611 10.1313L33.6758 10.2593ZM33.3456 10.3111C33.4023 10.3111 33.4487 10.3168 33.4875 10.3213C33.5044 10.3233 33.5273 10.326 33.5469 10.3261C33.5566 10.3261 33.5739 10.3258 33.593 10.3207C33.6113 10.316 33.6506 10.3018 33.6758 10.2593L33.4611 10.1313C33.4839 10.0932 33.5183 10.0819 33.5296 10.0789C33.5364 10.0771 33.5416 10.0765 33.5441 10.0763C33.5455 10.0762 33.5465 10.0761 33.5472 10.0761C33.5478 10.0761 33.5482 10.0761 33.5483 10.0761C33.5483 10.0761 33.5476 10.0761 33.546 10.076C33.5443 10.0759 33.5421 10.0757 33.5392 10.0755C33.5332 10.0749 33.5259 10.0741 33.5163 10.073C33.4786 10.0686 33.4187 10.0611 33.3456 10.0611V10.3111ZM32.9515 10.232C33.0727 10.2684 33.2114 10.3111 33.3456 10.3111V10.0611C33.2554 10.0611 33.1541 10.0318 33.0234 9.99255L32.9515 10.232ZM32.5501 10.1514C32.6803 10.1514 32.8093 10.1893 32.9515 10.232L33.0234 9.99255C32.8872 9.95163 32.7232 9.90143 32.5501 9.90143V10.1514ZM32.7834 10.155C32.7396 10.1318 32.6918 10.1065 32.648 10.0812C32.6027 10.055 32.5687 10.0327 32.5495 10.0164C32.539 10.0073 32.5415 10.0073 32.5465 10.016C32.5522 10.0261 32.5723 10.072 32.54 10.1203C32.5171 10.1546 32.4868 10.1575 32.4985 10.1548C32.5041 10.1536 32.5196 10.1514 32.5501 10.1514V9.90143C32.5115 9.90143 32.475 9.90386 32.4434 9.91101C32.4179 9.91677 32.3653 9.93188 32.3322 9.9814C32.2897 10.0449 32.3118 10.1091 32.3292 10.1396C32.3458 10.1689 32.3696 10.1915 32.3874 10.2066C32.4571 10.2661 32.5856 10.3332 32.6665 10.376L32.7834 10.155ZM32.8047 10.1663C32.7978 10.1626 32.7907 10.1588 32.7834 10.155L32.6665 10.376C32.6738 10.3798 32.6808 10.3836 32.6876 10.3871L32.8047 10.1663ZM32.5555 10.4831C32.625 10.4833 32.6838 10.4835 32.7293 10.4822C32.7686 10.4812 32.8166 10.4791 32.8524 10.4677C32.8629 10.4643 32.8794 10.4581 32.8961 10.4463C32.9134 10.434 32.9375 10.4109 32.9483 10.3734C32.9703 10.2969 32.9183 10.2445 32.9104 10.2366C32.8831 10.2088 32.8399 10.1849 32.8047 10.1663L32.6876 10.3871C32.7058 10.3968 32.7187 10.4042 32.7276 10.4097C32.7379 10.4163 32.7371 10.4168 32.7323 10.412C32.7299 10.4095 32.7213 10.4006 32.7141 10.3852C32.7062 10.3683 32.6981 10.3389 32.708 10.3043C32.7177 10.2707 32.739 10.2512 32.7517 10.2422C32.7638 10.2336 32.774 10.2303 32.7765 10.2295C32.7816 10.2279 32.7809 10.2288 32.7686 10.2299C32.7578 10.231 32.7428 10.2318 32.7225 10.2323C32.6817 10.2334 32.6271 10.2333 32.5562 10.2331L32.5555 10.4831ZM32.4644 10.483C32.4969 10.483 32.5272 10.4831 32.5555 10.4831L32.5562 10.2331C32.5279 10.2331 32.4972 10.233 32.4644 10.233V10.483ZM32.1274 10.4597C32.1818 10.4679 32.2821 10.483 32.4644 10.483V10.233C32.2984 10.233 32.2113 10.2195 32.1651 10.2125L32.1274 10.4597ZM32.2135 10.358C32.2135 10.3553 32.2136 10.356 32.2134 10.3581C32.2132 10.36 32.2126 10.3676 32.2094 10.3778C32.206 10.3887 32.199 10.4049 32.1845 10.4204C32.1696 10.4366 32.1524 10.4459 32.1375 10.4509C32.1241 10.4555 32.1135 10.4562 32.1093 10.4563C32.1048 10.4565 32.1023 10.4562 32.1036 10.4563C32.1069 10.4566 32.1127 10.4574 32.1274 10.4597L32.1651 10.2125C32.1534 10.2107 32.1388 10.2085 32.1263 10.2073C32.1175 10.2065 32.0886 10.2036 32.0576 10.2141C32.0389 10.2204 32.0186 10.2317 32.0012 10.2505C31.9843 10.2687 31.9755 10.2881 31.9708 10.3032C31.963 10.328 31.9635 10.3521 31.9635 10.358H32.2135ZM31.7621 10.4165C31.8394 10.4406 31.9163 10.4647 31.9737 10.4786C32.0009 10.4852 32.033 10.4918 32.0615 10.4928C32.0738 10.4932 32.1012 10.4933 32.13 10.4815C32.1461 10.4749 32.1681 10.4623 32.1862 10.4387C32.2055 10.4136 32.2135 10.3847 32.2135 10.358H31.9635C31.9635 10.335 31.9705 10.3092 31.9878 10.2867C32.0038 10.2657 32.0229 10.2552 32.0351 10.2502C32.0471 10.2453 32.0568 10.2438 32.0611 10.2433C32.0659 10.2428 32.069 10.2429 32.0695 10.2429C32.0703 10.2429 32.0677 10.2428 32.0602 10.2415C32.0532 10.2403 32.044 10.2384 32.0326 10.2356C31.9849 10.2241 31.9172 10.203 31.8365 10.1778L31.7621 10.4165ZM31.339 10.3111C31.3737 10.3111 31.4341 10.3221 31.5154 10.3434C31.5936 10.3639 31.6797 10.3907 31.7621 10.4165L31.8365 10.1778C31.7554 10.1525 31.6636 10.1238 31.5788 10.1016C31.497 10.0801 31.409 10.0611 31.339 10.0611V10.3111ZM31.7751 10.5044C31.8307 10.3924 31.8307 10.3925 31.8307 10.3925C31.8307 10.3925 31.8307 10.3925 31.8307 10.3924C31.8307 10.3924 31.8306 10.3924 31.8306 10.3924C31.8306 10.3924 31.8305 10.3923 31.8303 10.3923C31.8301 10.3921 31.8296 10.3919 31.8291 10.3917C31.8279 10.3911 31.8262 10.3902 31.824 10.3891C31.8195 10.3869 31.8129 10.3835 31.8045 10.3793C31.7878 10.3708 31.764 10.3586 31.7361 10.344C31.68 10.3146 31.6083 10.2759 31.5435 10.2376C31.4749 10.1972 31.4261 10.164 31.4067 10.1455C31.4024 10.1413 31.405 10.143 31.4093 10.1499C31.4114 10.1534 31.4311 10.1848 31.4201 10.2296C31.407 10.2829 31.3653 10.3028 31.3517 10.3076C31.3386 10.3122 31.3317 10.3111 31.339 10.3111V10.0611C31.3207 10.0611 31.2947 10.0626 31.2684 10.0718C31.2416 10.0813 31.1925 10.108 31.1773 10.17C31.1642 10.2235 31.1869 10.2655 31.1965 10.2811C31.2082 10.3002 31.2228 10.3155 31.2341 10.3263C31.2772 10.3674 31.3502 10.4138 31.4164 10.4529C31.4864 10.4942 31.5623 10.5351 31.6201 10.5654C31.6491 10.5806 31.6739 10.5933 31.6914 10.6022C31.7002 10.6067 31.7071 10.6102 31.712 10.6126C31.7144 10.6138 31.7163 10.6147 31.7175 10.6154C31.7182 10.6157 31.7187 10.616 31.719 10.6161C31.7192 10.6162 31.7193 10.6163 31.7194 10.6163C31.7195 10.6164 31.7195 10.6164 31.7195 10.6164C31.7196 10.6164 31.7196 10.6164 31.7196 10.6164C31.7196 10.6164 31.7196 10.6164 31.7751 10.5044ZM31.2173 10.4756C31.3133 10.5102 31.4466 10.548 31.553 10.5765C31.6068 10.5909 31.6549 10.6032 31.6895 10.6119C31.7068 10.6163 31.7208 10.6198 31.7305 10.6222C31.7353 10.6234 31.7391 10.6243 31.7416 10.6249C31.7429 10.6252 31.7439 10.6255 31.7446 10.6256C31.7449 10.6257 31.7452 10.6258 31.7454 10.6258C31.7455 10.6259 31.7455 10.6259 31.7456 10.6259C31.7456 10.6259 31.7456 10.6259 31.7456 10.6259C31.7457 10.6259 31.7457 10.6259 31.7457 10.6259C31.7457 10.6259 31.7457 10.6259 31.7751 10.5044C31.8046 10.383 31.8046 10.383 31.8046 10.383C31.8046 10.383 31.8046 10.383 31.8046 10.383C31.8046 10.383 31.8046 10.383 31.8046 10.3829C31.8045 10.3829 31.8045 10.3829 31.8044 10.3829C31.8043 10.3829 31.8041 10.3828 31.8038 10.3827C31.8032 10.3826 31.8023 10.3824 31.801 10.3821C31.7986 10.3815 31.795 10.3806 31.7904 10.3795C31.7811 10.3772 31.7675 10.3738 31.7507 10.3695C31.7169 10.361 31.6701 10.349 31.6177 10.335C31.5117 10.3066 31.3873 10.2711 31.3022 10.2404L31.2173 10.4756ZM31.5059 10.5796C31.445 10.498 31.3879 10.4212 31.3577 10.3696C31.3505 10.3573 31.3466 10.3494 31.3449 10.3453C31.3417 10.3377 31.3481 10.3489 31.3475 10.3697C31.3472 10.3821 31.3442 10.4054 31.3276 10.4293C31.3095 10.4553 31.2843 10.4691 31.2627 10.4747C31.2298 10.4831 31.208 10.4722 31.2173 10.4756L31.3022 10.2404C31.2859 10.2345 31.2457 10.2209 31.2007 10.2325C31.173 10.2395 31.1434 10.2563 31.1223 10.2866C31.1027 10.3148 31.0981 10.3438 31.0976 10.363C31.0967 10.3975 31.1081 10.4272 31.1143 10.442C31.1221 10.4605 31.132 10.479 31.1421 10.4961C31.181 10.5625 31.2484 10.6525 31.3055 10.7291L31.5059 10.5796ZM31.5448 11.0098C31.5631 11.0098 31.5929 11.006 31.6218 10.9855C31.6529 10.9636 31.6681 10.9329 31.6739 10.907C31.6831 10.8659 31.6701 10.8313 31.6669 10.8226C31.657 10.7959 31.64 10.7679 31.626 10.7465C31.5956 10.6997 31.5497 10.6383 31.5059 10.5796L31.3055 10.7291C31.3514 10.7905 31.3914 10.8443 31.4164 10.8827C31.4301 10.9038 31.433 10.911 31.4322 10.9087C31.4317 10.9073 31.4299 10.9024 31.4286 10.895C31.4275 10.8884 31.4254 10.8727 31.4299 10.8526C31.435 10.8299 31.4487 10.8018 31.4774 10.7815C31.504 10.7627 31.5305 10.7598 31.5448 10.7598V11.0098ZM31.3596 10.9599C31.3902 10.971 31.4223 10.9825 31.45 10.9913C31.4724 10.9983 31.5102 11.0098 31.5448 11.0098V10.7598C31.5525 10.7598 31.5552 10.761 31.5486 10.7595C31.5435 10.7583 31.5358 10.7562 31.525 10.7528C31.5032 10.7459 31.4764 10.7363 31.4443 10.7247L31.3596 10.9599ZM31.2369 10.8157C31.2369 10.8283 31.2331 10.8503 31.2162 10.8712C31.2001 10.8911 31.1813 10.8985 31.1726 10.9009C31.1605 10.9043 31.1606 10.9006 31.1855 10.9053C31.2299 10.9136 31.2918 10.9355 31.3596 10.9599L31.4443 10.7247C31.3832 10.7027 31.3001 10.6724 31.2316 10.6596C31.2001 10.6537 31.1519 10.6472 31.1055 10.6601C31.0797 10.6673 31.0473 10.6825 31.0218 10.714C30.9956 10.7464 30.9869 10.7836 30.9869 10.8157H31.2369ZM31.4408 10.8922C31.3684 10.8922 31.3095 10.8748 31.273 10.8527C31.2551 10.8419 31.2454 10.8318 31.2408 10.8252C31.2368 10.8193 31.2369 10.8166 31.2369 10.8157H30.9869C30.9869 10.9327 31.0622 11.0176 31.1439 11.0669C31.2266 11.1167 31.3322 11.1422 31.4408 11.1422V10.8922ZM31.5448 11.3228C31.6103 11.3228 31.6739 11.2923 31.7083 11.2303C31.7396 11.1741 31.7357 11.1121 31.718 11.0641C31.6803 10.9624 31.5751 10.8922 31.4408 10.8922V11.1422C31.4876 11.1422 31.4878 11.1624 31.4835 11.1509C31.4825 11.1481 31.4774 11.1312 31.4898 11.1089C31.4963 11.0971 31.5064 11.087 31.5186 11.0803C31.5305 11.0738 31.5404 11.0728 31.5448 11.0728V11.3228ZM31.3866 11.2953C31.4251 11.3054 31.4881 11.3228 31.5448 11.3228V11.0728C31.5273 11.0728 31.499 11.0663 31.45 11.0535L31.3866 11.2953ZM31.3848 11.1978C31.3848 11.2016 31.3843 11.2111 31.3794 11.2235C31.3741 11.2367 31.3651 11.2498 31.3524 11.2602C31.3404 11.2701 31.3287 11.2747 31.3214 11.2767C31.3177 11.2777 31.3148 11.2782 31.313 11.2784C31.3112 11.2786 31.3102 11.2786 31.31 11.2786C31.3098 11.2786 31.3116 11.2786 31.3161 11.2792C31.3204 11.2797 31.3261 11.2807 31.3333 11.2822C31.3483 11.2853 31.3652 11.2897 31.3866 11.2953L31.45 11.0535C31.4157 11.0445 31.3566 11.0279 31.3062 11.0287C31.2797 11.0291 31.2338 11.034 31.1935 11.0672C31.148 11.1047 31.1348 11.1565 31.1348 11.1978H31.3848ZM31.4164 11.218C31.4068 11.2085 31.3996 11.2015 31.3933 11.1949C31.3872 11.1884 31.3838 11.1843 31.382 11.1817C31.3802 11.1792 31.381 11.1797 31.3821 11.1829C31.3835 11.1865 31.3848 11.1918 31.3848 11.1978H31.1348C31.1348 11.2535 31.157 11.2971 31.1791 11.3278C31.1994 11.356 31.2253 11.3808 31.2418 11.3969L31.4164 11.218ZM31.5658 11.5248C31.5658 11.3596 31.4674 11.2677 31.4164 11.218L31.2418 11.3969C31.2931 11.4469 31.3158 11.4732 31.3158 11.5248H31.5658ZM31.1579 11.5423C31.1401 11.5673 31.1219 11.6011 31.1178 11.6417C31.1132 11.6876 31.1279 11.7356 31.1653 11.7706C31.1982 11.8015 31.2372 11.8117 31.2652 11.8146C31.2944 11.8177 31.3231 11.8143 31.3485 11.8077C31.4457 11.7825 31.5658 11.689 31.5658 11.5248H31.3158C31.3158 11.5481 31.3012 11.5617 31.2859 11.5657C31.2831 11.5664 31.285 11.5653 31.2913 11.566C31.2963 11.5665 31.3162 11.5695 31.3363 11.5883C31.3608 11.6113 31.369 11.6424 31.3666 11.6668C31.3646 11.6858 31.3573 11.6932 31.3616 11.6872L31.1579 11.5423ZM31.0782 11.3374C31.0782 11.3476 31.0723 11.3894 31.0283 11.4127C30.997 11.4292 30.9738 11.4202 30.9816 11.4222C30.992 11.425 31.0222 11.4397 31.0602 11.471C31.0965 11.5009 31.1257 11.5342 31.1405 11.5601C31.1596 11.5938 31.1352 11.5743 31.1579 11.5423L31.3616 11.6872C31.4286 11.5931 31.3879 11.4895 31.3578 11.4366C31.3234 11.376 31.2704 11.3202 31.219 11.2779C31.1694 11.2371 31.1063 11.1966 31.0454 11.1805C31.0176 11.1732 30.9642 11.1638 30.9117 11.1915C30.8463 11.226 30.8282 11.2905 30.8282 11.3374H31.0782ZM31.0782 11.5248V11.3374H30.8282V11.5248H31.0782ZM30.896 11.8004C30.9146 11.7957 30.9836 11.7832 31.0297 11.7214C31.0711 11.6659 31.0782 11.5936 31.0782 11.5248H30.8282C30.8282 11.5535 30.8262 11.5696 30.8246 11.5779C30.8229 11.5858 30.8226 11.5809 30.8293 11.572C30.8327 11.5674 30.8369 11.5632 30.8415 11.5597C30.846 11.5563 30.8497 11.5545 30.8514 11.5537C30.8529 11.5531 30.8529 11.5532 30.8499 11.5541C30.8467 11.555 30.8429 11.556 30.8357 11.5577L30.896 11.8004ZM30.8356 11.8294C30.8468 11.8187 30.8556 11.8137 30.8627 11.8105C30.871 11.8068 30.8792 11.8046 30.896 11.8004L30.8357 11.5577C30.798 11.5671 30.7313 11.5834 30.663 11.6486L30.8356 11.8294ZM30.7891 11.8901C30.7905 11.8853 30.7908 11.8844 30.7912 11.8834C30.7915 11.8826 30.7922 11.8807 30.7942 11.8773C30.7983 11.8703 30.8091 11.8547 30.8356 11.8294L30.663 11.6486C30.6242 11.6856 30.5974 11.7189 30.5789 11.7503C30.5593 11.7835 30.552 11.8096 30.5482 11.8235L30.7891 11.8901ZM30.6153 12.0058C30.6279 12.0058 30.6421 12.0056 30.6557 12.0041C30.6682 12.0028 30.6912 11.9996 30.7152 11.9871C30.7447 11.9717 30.7643 11.9487 30.7761 11.9253C30.7846 11.9086 30.7889 11.891 30.7891 11.8901L30.5482 11.8235C30.5473 11.8266 30.5474 11.8261 30.5477 11.8252C30.5481 11.824 30.5497 11.8189 30.5531 11.8124C30.5566 11.8054 30.5623 11.7962 30.5711 11.7869C30.5801 11.7775 30.59 11.7704 30.5997 11.7653C30.6089 11.7605 30.6167 11.7582 30.6214 11.757C30.626 11.7559 30.629 11.7556 30.6294 11.7555C30.6294 11.7555 30.626 11.7558 30.6153 11.7558V12.0058ZM30.4056 11.8584C30.4244 11.8836 30.4486 11.9167 30.4744 11.9421C30.4997 11.9671 30.547 12.0058 30.6153 12.0058V11.7558C30.6304 11.7558 30.6419 11.7603 30.648 11.7636C30.6531 11.7664 30.6539 11.768 30.6501 11.7642C30.6464 11.7606 30.641 11.7546 30.6331 11.7447C30.6253 11.7348 30.6168 11.7234 30.6061 11.7091L30.4056 11.8584ZM30.1418 11.6442C30.2747 11.6856 30.3427 11.7739 30.4056 11.8584L30.6061 11.7091C30.5418 11.6227 30.4325 11.4729 30.2163 11.4055L30.1418 11.6442ZM30.1112 11.6038C30.1132 11.5951 30.1144 11.5903 30.1154 11.5864C30.1165 11.5827 30.1166 11.5833 30.1153 11.5859C30.114 11.5888 30.1105 11.5954 30.1037 11.6027C30.0964 11.6104 30.0877 11.6166 30.0785 11.6207C30.0619 11.628 30.0535 11.6245 30.0676 11.6261C30.0806 11.6275 30.1037 11.6323 30.1418 11.6442L30.2163 11.4055C30.1715 11.3916 30.1313 11.3816 30.0956 11.3776C30.0609 11.3737 30.0183 11.3739 29.9769 11.3923C29.9303 11.413 29.9037 11.4483 29.8889 11.48C29.8766 11.5062 29.8706 11.5348 29.8677 11.5472L30.1112 11.6038ZM29.9464 11.8448C30.0058 11.8074 30.0454 11.763 30.0715 11.7156C30.0963 11.6704 30.1058 11.627 30.1112 11.6038L29.8677 11.5472C29.8619 11.5719 29.8586 11.5838 29.8523 11.5952C29.8473 11.6044 29.8377 11.6177 29.8133 11.6331L29.9464 11.8448ZM29.9161 11.7995C29.9105 11.7942 29.9073 11.7912 29.9048 11.7886C29.9023 11.7861 29.9025 11.7861 29.9038 11.7878C29.9066 11.7916 29.919 11.8106 29.9168 11.8396C29.9146 11.8666 29.9013 11.8792 29.9046 11.8757C29.9078 11.8722 29.919 11.862 29.9464 11.8448L29.8133 11.6331C29.7775 11.6556 29.7458 11.6792 29.7215 11.7054C29.6971 11.7316 29.6715 11.7697 29.6675 11.8199C29.6634 11.8719 29.6846 11.9114 29.7017 11.9349C29.7171 11.9561 29.7365 11.9738 29.7446 11.9815L29.9161 11.7995ZM30.0048 11.9731C30.0048 11.8744 29.9313 11.8139 29.9161 11.7995L29.7446 11.9815C29.7509 11.9874 29.7547 11.991 29.7579 11.9943C29.761 11.9975 29.7619 11.9988 29.7617 11.9986C29.7615 11.9982 29.7596 11.9956 29.7579 11.9908C29.756 11.9856 29.7548 11.9795 29.7548 11.9731H30.0048ZM29.5342 11.739C29.5342 11.8037 29.5595 11.8637 29.5853 11.9085C29.6122 11.9555 29.6471 11.9988 29.6819 12.033C29.7133 12.0638 29.7577 12.1003 29.8064 12.1162C29.8288 12.1235 29.8835 12.1368 29.9372 12.1027C29.9962 12.0654 30.0048 12.0037 30.0048 11.9731H29.7548C29.7548 11.9674 29.7565 11.9213 29.8034 11.8916C29.8451 11.8652 29.8826 11.8781 29.8842 11.8787C29.8916 11.8811 29.8809 11.878 29.8571 11.8547C29.8368 11.8347 29.8165 11.8092 29.8021 11.7841C29.795 11.7717 29.7902 11.761 29.7873 11.7523C29.7859 11.748 29.7851 11.7447 29.7847 11.7424C29.7842 11.74 29.7842 11.7389 29.7842 11.739H29.5342ZM29.5335 11.5248C29.5335 11.5382 29.5278 11.579 29.4864 11.6054C29.4528 11.6268 29.4232 11.62 29.4222 11.6198C29.4177 11.6188 29.4308 11.6222 29.4567 11.6425C29.4795 11.6604 29.5017 11.6833 29.5171 11.7056C29.534 11.7302 29.5342 11.7415 29.5342 11.739H29.7842C29.7842 11.6691 29.7531 11.6076 29.723 11.5639C29.6914 11.5179 29.6509 11.477 29.611 11.4458C29.5742 11.4169 29.5247 11.3858 29.4732 11.375C29.4486 11.3699 29.3994 11.3644 29.3521 11.3945C29.297 11.4296 29.2835 11.4866 29.2835 11.5248H29.5335ZM29.2796 11.864C29.3305 11.864 29.3808 11.8525 29.4243 11.8229C29.468 11.7932 29.4938 11.7529 29.5087 11.7148C29.5353 11.6472 29.5335 11.5673 29.5335 11.5248H29.2835C29.2835 11.5507 29.2834 11.5713 29.2819 11.5901C29.2803 11.6091 29.2777 11.6191 29.276 11.6236C29.2748 11.6266 29.2764 11.6211 29.2839 11.6161C29.2912 11.6111 29.2931 11.614 29.2796 11.614V11.864ZM29.3368 11.8254C29.3377 11.8126 29.3381 11.8089 29.3384 11.8071C29.3387 11.8056 29.3374 11.8152 29.3295 11.8277C29.3201 11.8427 29.3062 11.8539 29.292 11.86C29.2804 11.8649 29.2741 11.864 29.2796 11.864V11.614C29.2273 11.614 29.1591 11.6291 29.1179 11.6945C29.1014 11.7209 29.0951 11.7471 29.0921 11.7644C29.0892 11.7813 29.0881 11.7985 29.0874 11.808L29.3368 11.8254ZM29.1866 12.0811C29.2486 12.0449 29.2891 11.9978 29.3119 11.9442C29.3329 11.895 29.3353 11.8475 29.3368 11.8254L29.0874 11.808C29.0856 11.8339 29.0842 11.8409 29.082 11.8462C29.0813 11.8478 29.0803 11.8495 29.0782 11.8518C29.076 11.8543 29.071 11.8591 29.0606 11.8651L29.1866 12.0811ZM28.9248 11.9316C28.9241 11.9421 28.9224 11.9631 28.9235 11.9823C28.9242 11.9944 28.927 12.0523 28.9775 12.0924C29.0331 12.1367 29.0949 12.1208 29.1145 12.1148C29.1398 12.107 29.1648 12.0938 29.1866 12.0811L29.0606 11.8651C29.0426 11.8757 29.0379 11.8768 29.0413 11.8757C29.0433 11.8751 29.0535 11.872 29.0688 11.8726C29.0859 11.8733 29.1103 11.8787 29.133 11.8967C29.1549 11.9141 29.1646 11.9348 29.1687 11.947C29.1726 11.9584 29.173 11.9667 29.1731 11.9677C29.1731 11.9683 29.173 11.9658 29.1742 11.9492L28.9248 11.9316ZM28.9032 11.8219C28.9274 11.8492 28.9286 11.8785 28.9248 11.9316L29.1742 11.9492C29.1778 11.898 29.1901 11.7687 29.0903 11.6561L28.9032 11.8219ZM28.9042 11.3929C28.8885 11.4257 28.8569 11.4904 28.8428 11.5615C28.8285 11.6332 28.8273 11.7363 28.9032 11.8219L29.0903 11.6561C29.0885 11.6541 29.081 11.6456 29.088 11.6103C29.0951 11.5745 29.1124 11.5369 29.1297 11.5008L28.9042 11.3929ZM29.0745 11.5232C29.0869 11.5134 29.0884 11.5131 29.0842 11.5154C29.0825 11.5163 29.0787 11.5184 29.0731 11.5206C29.0682 11.5225 29.0573 11.5264 29.0423 11.5279C29.0276 11.5293 28.9998 11.5291 28.9704 11.5124C28.9384 11.4942 28.9214 11.4661 28.914 11.4427C28.9075 11.422 28.9081 11.4049 28.9087 11.3973C28.9094 11.3887 28.911 11.3822 28.9117 11.3792C28.9132 11.3734 28.9147 11.3703 28.914 11.372C28.9127 11.3751 28.9101 11.3807 28.9042 11.3929L29.1297 11.5008C29.1343 11.4912 29.1406 11.4782 29.1452 11.4671C29.1474 11.4617 29.151 11.4525 29.1538 11.4418C29.1548 11.4379 29.1643 11.4053 29.1524 11.3674C29.1446 11.3428 29.1269 11.3138 29.0939 11.295C29.0636 11.2778 29.0346 11.2774 29.0183 11.279C28.9895 11.2818 28.9683 11.2938 28.963 11.2967C28.9472 11.3055 28.9313 11.3177 28.919 11.3275L29.0745 11.5232ZM28.6039 11.6498C28.7062 11.6499 28.9104 11.6537 29.0745 11.5232L28.919 11.3275C28.8327 11.3961 28.7176 11.3999 28.6039 11.3998L28.6039 11.6498ZM28.5996 11.6498H28.6039V11.3998H28.5996V11.6498ZM28.5561 11.698C28.5742 11.6783 28.5873 11.6644 28.6002 11.6546C28.6136 11.6442 28.6123 11.6498 28.5996 11.6498V11.3998C28.5326 11.3998 28.4803 11.4314 28.4479 11.4562C28.4149 11.4816 28.3875 11.512 28.3717 11.5292L28.5561 11.698ZM28.2856 11.6147C28.2856 11.6299 28.286 11.6628 28.2999 11.6943C28.308 11.7126 28.326 11.7427 28.3632 11.7611C28.4022 11.7804 28.4393 11.7757 28.4621 11.7685C28.4978 11.7574 28.5223 11.7328 28.5279 11.7275C28.5381 11.7178 28.5487 11.7061 28.5561 11.698L28.3717 11.5292C28.3625 11.5393 28.3581 11.544 28.3551 11.5468C28.3539 11.548 28.3552 11.5466 28.3585 11.5442C28.3608 11.5425 28.371 11.5351 28.3874 11.5299C28.4056 11.5243 28.4387 11.5195 28.4741 11.537C28.5078 11.5537 28.5229 11.5804 28.5286 11.5932C28.5342 11.606 28.5354 11.6156 28.5355 11.6168C28.5358 11.6189 28.5356 11.6187 28.5356 11.6147H28.2856ZM28.8716 11.0728C28.6754 11.0728 28.5281 11.1721 28.4336 11.2815C28.3864 11.3361 28.3505 11.3952 28.326 11.4505C28.3026 11.5034 28.2856 11.5619 28.2856 11.6147H28.5356C28.5356 11.6147 28.5356 11.6143 28.5357 11.6133C28.5357 11.6123 28.5359 11.6109 28.5361 11.6092C28.5367 11.6056 28.5376 11.6009 28.5391 11.595C28.5421 11.5832 28.5472 11.5685 28.5546 11.5517C28.5695 11.5181 28.5924 11.4801 28.6228 11.4449C28.6836 11.3745 28.7668 11.3228 28.8716 11.3228V11.0728ZM29.2558 10.9597C29.1633 11.0156 29.07 11.0728 28.8716 11.0728V11.3228C29.1369 11.3228 29.2771 11.2389 29.3852 11.1736L29.2558 10.9597ZM29.3545 10.9045C29.3185 10.9217 29.2848 10.9422 29.2558 10.9597L29.3852 11.1737C29.4161 11.155 29.4393 11.1411 29.4625 11.13L29.3545 10.9045ZM29.2273 10.9292C29.2574 10.943 29.2852 10.9571 29.3081 10.9708C29.3325 10.9854 29.3445 10.9955 29.3484 10.9999C29.3548 11.0068 29.3289 10.9829 29.3392 10.9395C29.3485 10.8999 29.3767 10.8939 29.3545 10.9045L29.4625 11.13C29.5047 11.1097 29.5652 11.0705 29.5825 10.9966C29.6008 10.9188 29.5589 10.8596 29.533 10.8312C29.5047 10.8003 29.4684 10.7754 29.4364 10.7562C29.4029 10.7362 29.3662 10.7179 29.3319 10.7021L29.2273 10.9292ZM29.1722 10.5662C29.1487 10.6111 29.1247 10.6692 29.1195 10.7279C29.1169 10.7579 29.1184 10.7961 29.1347 10.8343C29.1523 10.8756 29.1841 10.9093 29.2273 10.9292L29.3319 10.7021C29.3377 10.7048 29.3446 10.7092 29.3511 10.7159C29.3575 10.7226 29.3619 10.7298 29.3647 10.7363C29.3697 10.7481 29.3681 10.7547 29.3686 10.7499C29.3689 10.7458 29.3705 10.7372 29.3751 10.7242C29.3795 10.7116 29.3858 10.6972 29.3937 10.6821L29.1722 10.5662ZM29.3373 10.7367C29.3786 10.7168 29.4216 10.6914 29.4563 10.6601C29.4878 10.6317 29.5335 10.5791 29.5335 10.5044H29.2835C29.2835 10.4879 29.2888 10.4769 29.2911 10.4729C29.2932 10.4694 29.2936 10.4702 29.2887 10.4746C29.2785 10.4838 29.2588 10.497 29.2286 10.5116L29.3373 10.7367ZM29.5335 10.5044C29.5335 10.4885 29.5317 10.4486 29.5027 10.4123C29.4645 10.3646 29.4098 10.3579 29.3735 10.3645C29.3437 10.3699 29.3215 10.3839 29.3104 10.3915C29.2973 10.4006 29.2858 10.4109 29.2762 10.4203C29.2396 10.4565 29.201 10.5111 29.1722 10.5662L29.3937 10.6821C29.4136 10.644 29.4379 10.6121 29.4518 10.5983C29.4549 10.5952 29.4553 10.5953 29.4528 10.597C29.4525 10.5973 29.4398 10.6066 29.418 10.6105C29.4057 10.6127 29.3867 10.6139 29.3648 10.6073C29.3414 10.6002 29.3216 10.5862 29.3075 10.5685C29.2829 10.5378 29.2835 10.5071 29.2835 10.5044H29.5335ZM28.9967 10.825C29.0922 10.825 29.2329 10.7871 29.3373 10.7367L29.2286 10.5116C29.1477 10.5506 29.0445 10.575 28.9967 10.575V10.825ZM28.9114 10.4376C28.887 10.4906 28.8557 10.5569 28.8431 10.6102C28.8376 10.6336 28.8277 10.6845 28.8507 10.7352C28.8642 10.765 28.8872 10.7903 28.918 10.8065C28.9465 10.8214 28.9749 10.825 28.9967 10.825V10.575C29.0014 10.575 29.0161 10.5757 29.0341 10.5851C29.0542 10.5957 29.0697 10.6128 29.0784 10.632C29.086 10.6488 29.0863 10.6622 29.0862 10.6662C29.0862 10.6706 29.0856 10.6714 29.0865 10.6673C29.0886 10.6587 29.0936 10.6437 29.1034 10.6203C29.1129 10.5977 29.1247 10.5721 29.1384 10.5424L28.9114 10.4376ZM28.9986 10.1861C28.9986 10.2093 28.9912 10.2443 28.9738 10.2922C28.9569 10.3388 28.9346 10.3874 28.9114 10.4376L29.1384 10.5424C29.1607 10.494 29.1877 10.4356 29.2088 10.3774C29.2295 10.3205 29.2486 10.2529 29.2486 10.1861H28.9986ZM29.0347 9.94366C29.0215 9.99503 28.9986 10.0831 28.9986 10.1861H29.2486C29.2486 10.1179 29.2637 10.0571 29.2769 10.0055L29.0347 9.94366ZM29.1905 10.0211C29.1952 10.0181 29.197 10.0173 29.1966 10.0175C29.1962 10.0176 29.1946 10.0184 29.192 10.0194C29.1894 10.0203 29.1847 10.0219 29.1782 10.0231C29.1671 10.0252 29.1373 10.0289 29.1043 10.0113C29.068 9.992 29.0526 9.96052 29.047 9.94109C29.0422 9.92413 29.043 9.91145 29.0431 9.90963C29.0433 9.90644 29.0436 9.90567 29.043 9.90883C29.0417 9.91565 29.0393 9.92563 29.0347 9.94366L29.2769 10.0055C29.2808 9.99025 29.2856 9.97176 29.2886 9.95569C29.2902 9.9474 29.292 9.93659 29.2927 9.92486C29.2933 9.91449 29.2938 9.89476 29.2874 9.87234C29.2803 9.84746 29.2621 9.81212 29.2217 9.79063C29.1847 9.77093 29.1495 9.77409 29.1314 9.77754C29.0988 9.78376 29.071 9.80089 29.0568 9.80987L29.1905 10.0211ZM28.4107 10.0018C28.537 10.0183 28.6969 10.0392 28.8343 10.0503C28.9027 10.0558 28.9688 10.0592 29.0239 10.0579C29.0514 10.0573 29.079 10.0554 29.1042 10.0513C29.1264 10.0477 29.16 10.0404 29.1905 10.0211L29.0568 9.80987C29.0697 9.80169 29.0764 9.80253 29.0639 9.80458C29.0543 9.80614 29.0393 9.80749 29.0181 9.80799C28.9757 9.80898 28.9196 9.8064 28.8544 9.80114C28.7244 9.79065 28.5709 9.77063 28.4431 9.75394L28.4107 10.0018ZM28.1986 9.97728C28.2202 9.97728 28.2951 9.98675 28.4107 10.0018L28.4431 9.75394C28.3408 9.74058 28.2414 9.72728 28.1986 9.72728V9.97728ZM28.1189 9.65675C28.1025 9.68537 28.0756 9.73129 28.0624 9.77084C28.0573 9.78613 28.0425 9.83168 28.0594 9.88118C28.0699 9.91179 28.0911 9.93977 28.1226 9.95776C28.151 9.97407 28.1793 9.97728 28.1986 9.97728V9.72728C28.2061 9.72728 28.2251 9.72841 28.2467 9.74079C28.2713 9.75487 28.2881 9.77709 28.296 9.80039C28.3029 9.82046 28.3016 9.83635 28.301 9.842C28.3003 9.84834 28.299 9.85146 28.2995 9.85014C28.3005 9.8472 28.3036 9.83961 28.3109 9.82573C28.3178 9.81249 28.3262 9.79788 28.3359 9.78078L28.1189 9.65675ZM28.2466 9.71882C28.2585 9.71388 28.2647 9.71212 28.2665 9.71168C28.2698 9.7109 28.2601 9.71394 28.2436 9.71146C28.2236 9.70844 28.1912 9.69625 28.1695 9.66228C28.1509 9.63305 28.1524 9.60603 28.1531 9.59854C28.1539 9.5898 28.1558 9.58581 28.1547 9.58898C28.1538 9.59131 28.152 9.59578 28.1485 9.60289C28.1412 9.61753 28.1314 9.63489 28.1189 9.65675L28.3359 9.78078C28.3474 9.76074 28.3614 9.73627 28.3727 9.71336C28.382 9.69444 28.3985 9.65953 28.402 9.62204C28.4039 9.60215 28.4039 9.56483 28.3804 9.52795C28.3539 9.48632 28.3132 9.46912 28.2809 9.46425C28.2522 9.45992 28.2262 9.46428 28.2085 9.4685C28.1893 9.47308 28.1698 9.48001 28.1506 9.48797L28.2466 9.71882ZM27.3565 9.80374C27.4811 9.80482 27.6468 9.80629 27.8062 9.79702C27.9615 9.78799 28.128 9.76813 28.2466 9.71882L28.1506 9.48797C28.0745 9.5196 27.9457 9.53849 27.7917 9.54744C27.6419 9.55615 27.4844 9.55484 27.3586 9.55375L27.3565 9.80374ZM27.2589 9.80314C27.2873 9.80314 27.32 9.80342 27.3565 9.80374L27.3586 9.55375C27.3225 9.55344 27.2886 9.55314 27.2589 9.55314V9.80314ZM27.1801 9.43934C27.1671 9.45187 27.1475 9.47071 27.1292 9.49099C27.1127 9.50942 27.0885 9.53849 27.0734 9.57273C27.0587 9.60585 27.0366 9.68765 27.1043 9.75248C27.1307 9.7778 27.1615 9.78944 27.185 9.79525C27.2093 9.80122 27.2345 9.80314 27.2589 9.80314V9.55314C27.2466 9.55314 27.2429 9.55204 27.2448 9.55251C27.2461 9.55282 27.2611 9.55648 27.2772 9.57191C27.2963 9.5902 27.3065 9.615 27.3077 9.63881C27.3086 9.65859 27.3031 9.67142 27.3021 9.67372C27.3005 9.67726 27.3024 9.67237 27.3152 9.65804C27.3265 9.64555 27.3396 9.63281 27.3536 9.61937L27.1801 9.43934ZM27.3129 9.62345C27.3266 9.6169 27.3286 9.61655 27.3249 9.61772C27.3234 9.61819 27.3194 9.61939 27.3138 9.62044C27.3095 9.62124 27.2967 9.62344 27.28 9.62164C27.2648 9.62001 27.2244 9.61247 27.1947 9.57306C27.1639 9.5321 27.1688 9.48917 27.1728 9.47153C27.1769 9.45359 27.1841 9.44123 27.1865 9.43715C27.1897 9.43179 27.1925 9.4281 27.1937 9.4266C27.196 9.42364 27.1973 9.42242 27.1958 9.42392C27.1931 9.42679 27.1885 9.43122 27.1801 9.43934L27.3536 9.61937C27.3605 9.61266 27.3694 9.60409 27.3766 9.59662C27.3801 9.59295 27.3854 9.58723 27.3907 9.58052C27.3916 9.57933 27.4096 9.5581 27.4167 9.52678C27.4209 9.50809 27.4258 9.46433 27.3945 9.42276C27.3644 9.38275 27.3231 9.37484 27.3067 9.37308C27.277 9.36988 27.2526 9.37839 27.2498 9.37925C27.2347 9.38401 27.2183 9.39155 27.2048 9.39803L27.3129 9.62345ZM26.7928 9.7284C26.972 9.7284 27.1409 9.70594 27.3129 9.62345L27.2048 9.39803C27.078 9.45886 26.9498 9.4784 26.7928 9.4784V9.7284ZM26.5665 9.60044C26.5764 9.61585 26.5994 9.65395 26.639 9.6829C26.6832 9.71514 26.7352 9.7284 26.7928 9.7284V9.4784C26.783 9.4784 26.7793 9.4773 26.7796 9.47738C26.7805 9.47762 26.7833 9.47868 26.7864 9.48099C26.7892 9.48303 26.7899 9.48433 26.7883 9.48224C26.7874 9.48112 26.7861 9.47934 26.7841 9.47644C26.7821 9.47339 26.7799 9.47006 26.7768 9.46524L26.5665 9.60044ZM26.4751 9.56407C26.5289 9.56376 26.5451 9.57355 26.5471 9.57478C26.5494 9.57623 26.5516 9.57718 26.5665 9.60044L26.7768 9.46524C26.7629 9.44358 26.7347 9.39725 26.6797 9.36284C26.6243 9.32822 26.5564 9.31359 26.4736 9.31408L26.4751 9.56407ZM25.9696 9.46426C26.0451 9.50894 26.1081 9.53777 26.1908 9.55197C26.266 9.5649 26.3544 9.56478 26.4751 9.56407L26.4736 9.31408C26.3458 9.31482 26.282 9.31398 26.2331 9.30558C26.1916 9.29845 26.1582 9.28535 26.0969 9.24908L25.9696 9.46426ZM25.9589 9.16944C25.9544 9.17218 25.9396 9.1811 25.9254 9.19315C25.9123 9.20429 25.886 9.22932 25.8739 9.27002C25.8594 9.31883 25.8721 9.36531 25.8962 9.39979C25.9168 9.42935 25.945 9.44973 25.9696 9.46426L26.0969 9.24908C26.0858 9.24254 26.0923 9.24403 26.1011 9.25665C26.1063 9.26397 26.1127 9.27591 26.1159 9.29221C26.1192 9.30911 26.1181 9.32606 26.1136 9.3413C26.1054 9.36878 26.0889 9.38235 26.0874 9.38357C26.0849 9.3857 26.0836 9.38625 26.0905 9.38196L25.9589 9.16944ZM25.943 9.38386C25.9699 9.38386 25.9879 9.3841 25.9997 9.38457C26.0159 9.38521 26.0107 9.38603 25.9994 9.38296C25.9955 9.38188 25.9866 9.37922 25.976 9.37349C25.9662 9.36823 25.9458 9.35545 25.9301 9.3299C25.9118 9.29991 25.9082 9.26566 25.9157 9.2358C25.9219 9.21067 25.9345 9.19427 25.9402 9.18743C25.9466 9.17972 25.9525 9.17472 25.9551 9.17262C25.958 9.17022 25.9602 9.16869 25.9609 9.16821C25.9619 9.16754 25.9623 9.16733 25.9589 9.16944L26.0905 9.38196C26.0924 9.38082 26.0975 9.37766 26.1024 9.3743C26.1052 9.37239 26.1192 9.36303 26.132 9.34776C26.1386 9.33983 26.1517 9.32239 26.1582 9.29629C26.1659 9.26546 26.1623 9.23029 26.1434 9.19945C26.1272 9.17303 26.1058 9.15945 26.0947 9.15344C26.0826 9.14696 26.0719 9.1436 26.0656 9.14188C26.045 9.13621 26.0221 9.13526 26.0095 9.13476C25.9926 9.1341 25.9705 9.13386 25.943 9.13386V9.38386ZM25.2687 9.38386H25.943V9.13386H25.2687V9.38386ZM25.3908 8.93766C25.3351 8.93766 25.2727 8.95784 25.2246 8.97824C25.174 8.99969 25.1187 9.03021 25.0771 9.06574C25.0574 9.08259 25.0314 9.10842 25.0149 9.14308C24.996 9.18281 24.9862 9.24598 25.0289 9.30307C25.0625 9.34801 25.1122 9.36462 25.1438 9.37208C25.1797 9.38057 25.2219 9.38386 25.2687 9.38386V9.13386C25.2315 9.13386 25.2107 9.13102 25.2013 9.12878C25.1874 9.1255 25.2093 9.12679 25.2291 9.15333C25.2409 9.16914 25.2482 9.18911 25.2487 9.21014C25.2492 9.22947 25.2439 9.24355 25.2406 9.25048C25.2351 9.26215 25.2306 9.26346 25.2396 9.25578C25.2554 9.24226 25.286 9.22374 25.3222 9.2084C25.3394 9.20108 25.3556 9.19549 25.3692 9.19188C25.3759 9.1901 25.3813 9.18897 25.3854 9.18831C25.3897 9.18764 25.3913 9.18766 25.3908 9.18766V8.93766ZM25.4271 9.085C25.4556 9.07636 25.475 9.07233 25.4871 9.07073C25.501 9.0689 25.4988 9.07114 25.4879 9.06843C25.4761 9.0655 25.4377 9.05132 25.4205 9.00497C25.4053 8.96416 25.4201 8.933 25.423 8.92728C25.4272 8.91905 25.4304 8.91705 25.4274 8.91982C25.4252 8.92188 25.4211 8.92514 25.4154 8.9285C25.4097 8.93182 25.404 8.93436 25.3989 8.93595C25.3964 8.93672 25.3945 8.93717 25.393 8.93741C25.3923 8.93753 25.3917 8.9376 25.3913 8.93763C25.391 8.93766 25.3908 8.93766 25.3908 8.93766V9.18766C25.4494 9.18766 25.5027 9.16711 25.5419 9.14413C25.5785 9.12263 25.6216 9.08792 25.6455 9.04131C25.6572 9.01847 25.6748 8.97143 25.6547 8.91767C25.6326 8.85837 25.5818 8.83418 25.5483 8.82583C25.5157 8.81773 25.4825 8.81917 25.4545 8.82287C25.4247 8.82679 25.3914 8.83458 25.3545 8.84576L25.4271 9.085ZM24.8228 9.10971C25.0287 9.12605 25.2329 9.14389 25.4271 9.085L25.3545 8.84576C25.214 8.88835 25.0601 8.87776 24.8426 8.86049L24.8228 9.10971ZM24.4409 9.09038C24.5787 9.09038 24.7034 9.10023 24.8228 9.10971L24.8426 8.86049C24.7239 8.85107 24.5899 8.84038 24.4409 8.84038V9.09038ZM24.2016 8.70229C24.1388 8.70229 24.0673 8.71007 24.0151 8.74433C23.9859 8.76347 23.9439 8.80459 23.9437 8.87059C23.9436 8.93114 23.9793 8.97131 24.0012 8.9904C24.0454 9.02911 24.1107 9.05181 24.1757 9.06595C24.2459 9.08121 24.3345 9.09038 24.4409 9.09038V8.84038C24.348 8.84038 24.2777 8.83229 24.2288 8.82166C24.1748 8.80991 24.161 8.79808 24.1658 8.80227C24.1679 8.8041 24.1939 8.82701 24.1937 8.87137C24.1936 8.92119 24.1616 8.94721 24.1521 8.9534C24.1394 8.96177 24.1467 8.95229 24.2016 8.95229V8.70229ZM24.0849 8.85113C24.1718 8.85113 24.2305 8.85721 24.2658 8.86442C24.2744 8.86616 24.2809 8.86784 24.2856 8.86927C24.288 8.86998 24.2897 8.87058 24.291 8.87104C24.2916 8.87126 24.2921 8.87145 24.2924 8.87157C24.2927 8.8717 24.2928 8.87177 24.2928 8.87176C24.2928 8.87176 24.2926 8.87167 24.2923 8.87149C24.2919 8.8713 24.2914 8.87101 24.2906 8.87058C24.2892 8.86977 24.2868 8.86826 24.2838 8.8659C24.2785 8.86177 24.2668 8.85155 24.2575 8.83335C24.2472 8.813 24.2421 8.78647 24.2484 8.75851C24.2543 8.73265 24.2676 8.71581 24.2761 8.70724C24.2908 8.6924 24.3027 8.69029 24.2951 8.69279C24.2841 8.69642 24.2539 8.70229 24.2016 8.70229V8.95229C24.2672 8.95229 24.3271 8.94552 24.3735 8.93018C24.3947 8.9232 24.4271 8.91002 24.4536 8.88332C24.4679 8.86883 24.4849 8.84586 24.4922 8.81379C24.5 8.7796 24.494 8.74675 24.4804 8.72007C24.4574 8.67475 24.4165 8.65346 24.397 8.64452C24.3723 8.63319 24.3443 8.62528 24.3158 8.61946C24.2581 8.6077 24.1812 8.60113 24.0849 8.60113V8.85113ZM23.4955 8.76583C23.6366 8.80078 23.8385 8.85113 24.0849 8.85113V8.60113C23.8718 8.60113 23.696 8.55794 23.5556 8.52316L23.4955 8.76583ZM23.3271 8.73228C23.3562 8.73228 23.4048 8.74337 23.4955 8.76583L23.5556 8.52316C23.479 8.50421 23.3943 8.48228 23.3271 8.48228V8.73228ZM23.3271 8.34613C23.2556 8.34613 23.1864 8.35411 23.1342 8.38344C23.1057 8.39949 23.0719 8.42796 23.0563 8.47448C23.0403 8.52237 23.0511 8.56622 23.0666 8.59627C23.0938 8.64934 23.1444 8.6816 23.1814 8.69907C23.2231 8.71872 23.2742 8.73228 23.3271 8.73228V8.48228C23.3154 8.48228 23.3005 8.47883 23.2881 8.47295C23.2822 8.47016 23.2791 8.46789 23.2784 8.46738C23.277 8.46623 23.283 8.47048 23.289 8.48214C23.2957 8.49517 23.304 8.522 23.2933 8.55393C23.2831 8.5845 23.2625 8.59808 23.2567 8.60136C23.2512 8.60447 23.2521 8.60252 23.2657 8.60017C23.2785 8.59798 23.2983 8.59613 23.3271 8.59613V8.34613ZM23.6467 8.48265C23.6809 8.48265 23.6995 8.48439 23.7075 8.48575C23.7119 8.48649 23.7078 8.48628 23.6998 8.4828C23.696 8.48114 23.6633 8.46742 23.645 8.42717C23.6211 8.37472 23.6424 8.3293 23.656 8.31054C23.6625 8.30164 23.6687 8.29595 23.672 8.29312C23.6756 8.2901 23.6783 8.28836 23.6793 8.28775C23.6811 8.28662 23.6756 8.29 23.6577 8.29609C23.5882 8.31983 23.4484 8.34613 23.3271 8.34613V8.59613C23.4747 8.59613 23.6419 8.56569 23.7385 8.53268C23.7622 8.52458 23.7895 8.51378 23.8124 8.49936C23.8228 8.4928 23.8423 8.47945 23.8583 8.45739C23.8764 8.43254 23.8988 8.38136 23.8725 8.32359C23.8518 8.27802 23.8131 8.25942 23.7993 8.25344C23.7813 8.24564 23.7633 8.24166 23.7495 8.2393C23.7211 8.23445 23.6861 8.23265 23.6467 8.23265V8.48265ZM22.9328 8.35511C23.0529 8.38386 23.185 8.41549 23.3081 8.43987C23.4295 8.46389 23.5505 8.48265 23.6467 8.48265V8.23265C23.5766 8.23265 23.4758 8.21822 23.3567 8.19463C23.2393 8.17139 23.1121 8.14097 22.991 8.11198L22.9328 8.35511ZM22.5358 8.27474C22.5591 8.27474 22.6072 8.28171 22.6821 8.29734C22.7538 8.31228 22.8393 8.33275 22.9328 8.35511L22.991 8.11198C22.8986 8.08988 22.8091 8.06845 22.7332 8.05261C22.6605 8.03745 22.5884 8.02474 22.5358 8.02474V8.27474ZM22.6702 7.99212C22.6108 8.00168 22.5547 8.01069 22.5211 8.01737C22.5126 8.01907 22.5036 8.02099 22.4955 8.02309C22.4916 8.02411 22.486 8.02565 22.48 8.02776C22.478 8.02846 22.4607 8.03409 22.4433 8.04707C22.4374 8.05153 22.4065 8.07443 22.396 8.11932C22.3813 8.18224 22.4167 8.22729 22.4398 8.24581C22.4589 8.2611 22.4776 8.26681 22.4831 8.26844C22.491 8.27083 22.4978 8.27201 22.5016 8.27261C22.515 8.27467 22.5285 8.27474 22.5358 8.27474V8.02474C22.5285 8.02474 22.5321 8.02436 22.5398 8.02553C22.5422 8.02591 22.5478 8.02685 22.5548 8.02897C22.5594 8.03032 22.5775 8.03574 22.5961 8.05071C22.6189 8.06891 22.6541 8.11361 22.6395 8.17616C22.6291 8.22068 22.5985 8.24318 22.5931 8.24722C22.5833 8.25461 22.5746 8.25868 22.5714 8.26015C22.5673 8.26202 22.5641 8.26318 22.5626 8.26373C22.5595 8.26481 22.5577 8.26523 22.5584 8.26505C22.5596 8.26475 22.5631 8.26392 22.57 8.26256C22.5977 8.25702 22.6479 8.24892 22.7099 8.23894L22.6702 7.99212ZM22.8323 8.14321C22.8891 8.14321 22.9317 8.14411 22.9627 8.14564C22.9782 8.14641 22.99 8.14729 22.9988 8.1482C23.0032 8.14865 23.0065 8.14906 23.0088 8.14942C23.0113 8.14978 23.0122 8.14999 23.012 8.14994C23.0118 8.1499 23.0111 8.14975 23.0101 8.14945C23.009 8.14915 23.0072 8.14861 23.0049 8.14776C23.0014 8.14651 22.9909 8.14248 22.9787 8.13349C22.9672 8.12502 22.9421 8.10294 22.9331 8.06311C22.9233 8.01949 22.9394 7.98462 22.9525 7.96622C22.9642 7.94971 22.977 7.94083 22.9814 7.9379C22.987 7.93419 22.9912 7.93222 22.9923 7.93169C22.9946 7.93064 22.994 7.93112 22.9885 7.93281C22.9361 7.94896 22.797 7.9717 22.6702 7.99212L22.7099 8.23894C22.8252 8.22039 22.9883 8.19448 23.0622 8.17171C23.0725 8.16853 23.0849 8.1643 23.097 8.15873C23.1023 8.15629 23.1337 8.14275 23.1561 8.11123C23.1707 8.09078 23.1873 8.05392 23.1771 8.00836C23.1677 7.96661 23.1411 7.94265 23.1272 7.93238C23.102 7.9138 23.0749 7.90783 23.0664 7.90594C23.023 7.89626 22.9442 7.89321 22.8323 7.89321V8.14321ZM21.4011 7.61602C21.5791 7.7198 21.804 7.85116 22.0476 7.95609C22.2908 8.0608 22.5614 8.14321 22.8323 8.14321V7.89321C22.6096 7.89321 22.3747 7.82475 22.1465 7.72648C21.9188 7.62843 21.7065 7.5047 21.5271 7.40008L21.4011 7.61602ZM21.0799 7.44505C21.145 7.46737 21.2502 7.52795 21.4011 7.61602L21.5271 7.40008C21.388 7.31891 21.2558 7.24104 21.1609 7.20854L21.0799 7.44505ZM21.2875 7.03277C21.2219 6.96887 21.1352 6.97435 21.0852 6.98671C21.0302 7.00027 20.9744 7.03134 20.934 7.07561C20.8938 7.11977 20.8526 7.19903 20.8885 7.28982C20.9207 7.37129 20.9995 7.41751 21.0799 7.44505L21.1609 7.20854C21.1345 7.19951 21.1213 7.19151 21.1159 7.18748C21.1108 7.18367 21.1164 7.18622 21.121 7.19791C21.1261 7.21084 21.1258 7.22443 21.1229 7.23451C21.1205 7.24295 21.1172 7.24573 21.1189 7.24394C21.1203 7.24239 21.1238 7.23924 21.1295 7.23591C21.1352 7.23263 21.1408 7.23048 21.145 7.22943C21.1497 7.22828 21.1494 7.22925 21.1445 7.22854C21.139 7.22774 21.1258 7.2243 21.113 7.2118L21.2875 7.03277ZM21.5474 7.33025C21.5798 7.34421 21.5804 7.34723 21.5717 7.3399C21.5689 7.33751 21.5575 7.32774 21.5477 7.31039C21.5371 7.29161 21.5213 7.24933 21.5429 7.20112C21.5618 7.15891 21.5964 7.14301 21.6073 7.13861C21.6206 7.13322 21.6312 7.13195 21.6341 7.13162C21.6424 7.13067 21.64 7.13202 21.617 7.12863C21.5985 7.12592 21.5743 7.12135 21.5464 7.11513C21.4905 7.10267 21.4252 7.08487 21.3705 7.06609C21.343 7.05666 21.3201 7.04765 21.3031 7.0397C21.2828 7.03019 21.2816 7.02704 21.2875 7.03277L21.113 7.2118C21.1388 7.23698 21.1725 7.25458 21.1971 7.2661C21.225 7.27918 21.257 7.29146 21.2893 7.30256C21.3542 7.32482 21.4286 7.34501 21.4921 7.35915C21.5239 7.36623 21.5543 7.37211 21.5806 7.37597C21.6022 7.37916 21.6344 7.38319 21.6624 7.38001C21.6701 7.37913 21.6847 7.37699 21.7009 7.37041C21.7148 7.36482 21.7513 7.34741 21.771 7.30334C21.7935 7.25329 21.7774 7.20881 21.7654 7.18748C21.7541 7.16758 21.7401 7.15491 21.7334 7.14924C21.7093 7.12879 21.6744 7.11275 21.6463 7.10064L21.5474 7.33025ZM21.0242 6.91757C21.1065 7.01659 21.2768 7.2137 21.5474 7.33025L21.6463 7.10064C21.4327 7.00866 21.2939 6.85091 21.2165 6.7578L21.0242 6.91757ZM21.2765 6.65186C21.2413 6.62474 21.1999 6.60278 21.1547 6.59559C21.1092 6.58835 21.0473 6.59565 21.0017 6.64515C20.9567 6.6939 20.9538 6.75512 20.9631 6.79886C20.9724 6.84302 20.9957 6.88321 21.0242 6.91757L21.2165 6.7578C21.2052 6.74412 21.2062 6.73999 21.2077 6.74706C21.2091 6.75371 21.2127 6.78505 21.1854 6.81466C21.1574 6.84501 21.1244 6.8439 21.1155 6.84249C21.1069 6.84112 21.1101 6.83923 21.1239 6.84992L21.2765 6.65186ZM21.7515 7.04448C21.8057 6.93184 21.8057 6.93184 21.8057 6.93184C21.8057 6.93184 21.8057 6.93184 21.8057 6.93184C21.8057 6.93183 21.8056 6.93182 21.8056 6.93181C21.8056 6.93179 21.8055 6.93175 21.8054 6.9317C21.8052 6.93161 21.8049 6.93146 21.8045 6.93126C21.8036 6.93086 21.8024 6.93026 21.8007 6.92947C21.7975 6.92788 21.7926 6.92554 21.7864 6.92252C21.774 6.91649 21.7561 6.90776 21.7343 6.89705C21.6906 6.8756 21.6315 6.84628 21.5694 6.81466C21.5072 6.78298 21.4427 6.74935 21.3882 6.71923C21.331 6.68767 21.2924 6.66412 21.2765 6.65186L21.1239 6.84992C21.1571 6.87548 21.212 6.90753 21.2674 6.9381C21.3254 6.97013 21.3926 7.00517 21.4559 7.03743C21.5194 7.06976 21.5797 7.09965 21.624 7.12144C21.6462 7.13235 21.6645 7.14124 21.6772 7.14742C21.6836 7.15051 21.6886 7.15292 21.692 7.15457C21.6937 7.15539 21.695 7.15603 21.6959 7.15645C21.6963 7.15667 21.6967 7.15683 21.6969 7.15695C21.697 7.157 21.6971 7.15705 21.6972 7.15708C21.6972 7.15709 21.6972 7.1571 21.6973 7.15711C21.6973 7.15712 21.6973 7.15712 21.6973 7.15712C21.6973 7.15712 21.6973 7.15713 21.7515 7.04448ZM21.2091 6.57751C21.3109 6.74889 21.4254 6.88851 21.5141 6.98513C21.5586 7.03357 21.597 7.07158 21.6245 7.09773C21.6383 7.11081 21.6494 7.12096 21.6572 7.12799C21.6611 7.1315 21.6642 7.13424 21.6664 7.13618C21.6675 7.13715 21.6684 7.13792 21.6691 7.13849C21.6694 7.13877 21.6697 7.139 21.6699 7.13919C21.67 7.13928 21.6701 7.13936 21.6702 7.13942C21.6702 7.13946 21.6702 7.13949 21.6703 7.13951C21.6703 7.13953 21.6703 7.13954 21.6703 7.13955C21.6703 7.13957 21.6704 7.13958 21.7515 7.04448C21.8326 6.94939 21.8326 6.9494 21.8326 6.94941C21.8326 6.94942 21.8327 6.94943 21.8327 6.94944C21.8327 6.94945 21.8327 6.94946 21.8327 6.94947C21.8327 6.94948 21.8327 6.94949 21.8327 6.94948C21.8327 6.94946 21.8326 6.94939 21.8325 6.94927C21.8322 6.94904 21.8317 6.94861 21.831 6.94799C21.8296 6.94674 21.8273 6.94472 21.8242 6.94194C21.818 6.9364 21.8087 6.92785 21.7967 6.91649C21.7728 6.89374 21.7385 6.85979 21.6983 6.81604C21.6177 6.72826 21.5147 6.60247 21.4241 6.44984L21.2091 6.57751ZM21.9135 6.41334C21.741 6.28521 21.5399 6.18854 21.3927 6.17573C21.3276 6.17006 21.2035 6.17757 21.1551 6.29482C21.134 6.34585 21.1381 6.39829 21.1492 6.44154C21.1604 6.48551 21.1816 6.53109 21.2091 6.57751L21.4241 6.44984C21.4035 6.41526 21.3947 6.39243 21.3914 6.37965C21.3879 6.36616 21.3931 6.37352 21.3862 6.39022C21.3661 6.43879 21.3228 6.4206 21.3711 6.42479C21.4507 6.43172 21.607 6.49705 21.7644 6.61401L21.9135 6.41334ZM22.6446 6.71319C22.5075 6.70077 22.2214 6.64215 21.9135 6.41334L21.7644 6.61401C22.1161 6.87538 22.4485 6.94644 22.622 6.96217L22.6446 6.71319ZM22.1238 6.62577C22.2709 6.69835 22.4177 6.78006 22.5067 6.83996C22.5287 6.85479 22.5455 6.86713 22.5571 6.87671C22.5712 6.88829 22.5702 6.88978 22.5654 6.88235C22.5634 6.87942 22.5512 6.861 22.5498 6.83171C22.5479 6.79204 22.5667 6.75456 22.5977 6.73231C22.6206 6.7159 22.6413 6.71395 22.6438 6.71369C22.6487 6.71316 22.6498 6.71366 22.6446 6.71319L22.622 6.96217C22.6362 6.96346 22.653 6.96413 22.6703 6.96228C22.6851 6.9607 22.7149 6.95595 22.7435 6.9354C22.7803 6.90899 22.8017 6.866 22.7995 6.81958C22.7977 6.78355 22.7822 6.75715 22.7743 6.74512C22.7575 6.71949 22.7338 6.69833 22.7161 6.68376C22.696 6.6672 22.6721 6.6499 22.6463 6.63256C22.5441 6.5638 22.3862 6.47647 22.2344 6.40158L22.1238 6.62577ZM22.2634 5.95671C22.2249 5.92165 22.1801 5.89263 22.1289 5.8807C22.0741 5.86793 22.0186 5.87662 21.9716 5.90708C21.8873 5.96173 21.8608 6.06337 21.8557 6.13848C21.8448 6.29717 21.9161 6.5233 22.1238 6.62577L22.2344 6.40158C22.1432 6.35658 22.099 6.24498 22.1051 6.15553C22.1085 6.10657 22.1236 6.10653 22.1076 6.11686C22.0948 6.12517 22.0802 6.12605 22.0721 6.12417C22.0678 6.12315 22.0755 6.12375 22.0949 6.14139L22.2634 5.95671ZM23.4688 6.4548C23.1897 6.35238 22.9102 6.24975 22.6854 6.15913C22.5729 6.1138 22.476 6.07221 22.4007 6.03578C22.3211 5.99729 22.2784 5.97045 22.2634 5.95671L22.0949 6.14139C22.1399 6.18249 22.2134 6.2229 22.2919 6.26083C22.3745 6.30082 22.4773 6.34482 22.5919 6.391C22.8211 6.4834 23.1047 6.58749 23.3826 6.68949L23.4688 6.4548ZM24.6483 6.94505C24.6041 6.91136 24.5374 6.87644 24.4634 6.84201C24.3868 6.80637 24.2932 6.76711 24.1891 6.72567C23.981 6.64279 23.7251 6.54887 23.4688 6.4548L23.3826 6.68949C23.6399 6.78393 23.8923 6.87657 24.0967 6.95793C24.1988 6.99861 24.2875 7.03589 24.3579 7.06866C24.4309 7.10264 24.4759 7.128 24.4968 7.14392L24.6483 6.94505ZM24.3181 6.75521C24.419 6.89751 24.5074 7.0228 24.5446 7.09152C24.5541 7.10923 24.5553 7.11434 24.5544 7.11097C24.5543 7.11055 24.5495 7.09461 24.5534 7.07179C24.5586 7.04109 24.5805 6.9993 24.6291 6.98181C24.664 6.96924 24.6916 6.97791 24.6945 6.97877C24.701 6.98072 24.7031 6.98233 24.6988 6.98C24.6908 6.97558 24.6748 6.96521 24.6483 6.94505L24.4968 7.14392C24.5267 7.16668 24.5543 7.18587 24.5787 7.19924C24.5907 7.2058 24.6062 7.21336 24.6236 7.21851C24.6373 7.22256 24.6731 7.23169 24.7138 7.21703C24.7682 7.19745 24.7936 7.15102 24.7999 7.11333C24.8049 7.08352 24.7991 7.05824 24.7959 7.04634C24.7889 7.01999 24.7758 6.99353 24.7645 6.97264C24.7182 6.88698 24.6178 6.74565 24.5221 6.61068L24.3181 6.75521ZM24.1983 6.58483C24.2369 6.64048 24.2781 6.69863 24.3181 6.75521L24.5221 6.61068C24.4819 6.55388 24.4415 6.49686 24.4039 6.44252L24.1983 6.58483ZM25.3385 6.6671C25.0425 6.54624 24.7568 6.42949 24.5616 6.36722C24.5123 6.3515 24.4666 6.33852 24.4266 6.32975C24.3888 6.32148 24.3468 6.3148 24.3088 6.31729C24.2815 6.31907 24.186 6.33177 24.1607 6.42996C24.1505 6.46959 24.1589 6.50433 24.1667 6.5258C24.1749 6.54821 24.1868 6.56819 24.1983 6.58483L24.4039 6.44252C24.3991 6.43562 24.3998 6.43519 24.4016 6.44017C24.4031 6.4442 24.41 6.46446 24.4028 6.49238C24.3942 6.5255 24.3718 6.54726 24.3519 6.55793C24.3433 6.56254 24.3361 6.56464 24.332 6.5656C24.3279 6.56657 24.3254 6.56674 24.3251 6.56676C24.3248 6.56677 24.3286 6.56658 24.3379 6.56769C24.3467 6.56876 24.3584 6.57075 24.3731 6.57397C24.4027 6.58044 24.4402 6.59091 24.4856 6.60539C24.669 6.66391 24.9436 6.77592 25.244 6.89855L25.3385 6.6671ZM26.5027 7.09369C26.2281 7.02989 25.7727 6.84441 25.3385 6.6671L25.244 6.89855C25.6686 7.07193 26.147 7.26771 26.4461 7.3372L26.5027 7.09369ZM27.1808 7.28897C26.9464 7.21595 26.7057 7.14086 26.5027 7.09369L26.4461 7.3372C26.6382 7.38185 26.8693 7.45378 27.1065 7.52765L27.1808 7.28897ZM28.1809 7.5354C28.1809 7.53673 28.1816 7.52639 28.191 7.51692C28.1973 7.51048 28.1985 7.51406 28.1806 7.51781C28.1419 7.52588 28.0712 7.52367 27.9647 7.50485C27.7565 7.46806 27.4747 7.38052 27.1808 7.28897L27.1065 7.52765C27.3943 7.61733 27.6937 7.71084 27.9212 7.75104C28.0325 7.77071 28.1433 7.78097 28.2316 7.76253C28.2772 7.75302 28.3283 7.73359 28.3687 7.69277C28.4121 7.64892 28.4309 7.59282 28.4309 7.5354H28.1809ZM29.3719 6.39416C29.0659 6.48786 28.7739 6.67156 28.5576 6.8752C28.4491 6.97729 28.3568 7.08701 28.2909 7.19652C28.2259 7.30436 28.1809 7.42132 28.1809 7.5354H28.4309C28.4309 7.48436 28.4524 7.41289 28.505 7.3255C28.5567 7.23978 28.6331 7.14747 28.7289 7.05725C28.9212 6.87627 29.1805 6.71423 29.4451 6.63319L29.3719 6.39416ZM30.2191 6.52149C30.1144 6.45996 30.0022 6.39288 29.866 6.36086C29.7254 6.3278 29.5694 6.33365 29.3719 6.39416L29.4451 6.63319C29.6096 6.5828 29.7199 6.58332 29.8088 6.60422C29.9021 6.62616 29.9823 6.6723 30.0924 6.73699L30.2191 6.52149ZM30.6485 6.71718C30.4679 6.6674 30.342 6.59377 30.2191 6.52149L30.0924 6.73699C30.2165 6.81001 30.367 6.8989 30.582 6.95819L30.6485 6.71718ZM30.095 9.71021C29.9701 9.71459 29.9701 9.71459 29.9701 9.71459C29.9701 9.71459 29.9701 9.7146 29.9701 9.71461C29.9701 9.71463 29.9701 9.71466 29.9701 9.71471C29.9701 9.71481 29.9701 9.71497 29.9701 9.71519C29.9701 9.71563 29.9701 9.71631 29.9701 9.71721C29.9702 9.71902 29.9703 9.72175 29.9704 9.72533C29.9706 9.73249 29.9709 9.74306 29.9713 9.75657C29.972 9.78358 29.9728 9.82226 29.9735 9.86871C29.9748 9.96179 29.9751 10.0853 29.9716 10.2083C29.9679 10.3325 29.9604 10.4515 29.9469 10.5374C29.94 10.5816 29.9326 10.6092 29.9269 10.6227C29.924 10.6298 29.9246 10.6254 29.9321 10.6174C29.9408 10.608 29.9643 10.5887 30.0014 10.5887V10.8387C30.0547 10.8387 30.093 10.8115 30.1154 10.7874C30.1364 10.7647 30.1495 10.7387 30.1579 10.7184C30.175 10.6771 30.186 10.6262 30.1939 10.5763C30.2099 10.4741 30.2178 10.3422 30.2214 10.2156C30.2252 10.0877 30.2248 9.96036 30.2235 9.86528C30.2228 9.81766 30.2219 9.77795 30.2212 9.75008C30.2208 9.73614 30.2205 9.72516 30.2203 9.71762C30.2202 9.71385 30.2201 9.71094 30.22 9.70896C30.22 9.70796 30.22 9.7072 30.2199 9.70667C30.2199 9.70641 30.2199 9.70621 30.2199 9.70606C30.2199 9.70599 30.2199 9.70594 30.2199 9.7059C30.2199 9.70588 30.2199 9.70586 30.2199 9.70585C30.2199 9.70583 30.2199 9.70582 30.095 9.71021ZM30.6001 10.5918C30.6001 10.5016 30.5693 10.3956 30.5327 10.2979C30.4949 10.1967 30.4451 10.0903 30.3965 9.99457C30.3477 9.89849 30.2991 9.81124 30.2627 9.74811C30.2445 9.71649 30.2293 9.6908 30.2185 9.67292C30.2132 9.66398 30.2089 9.65698 30.206 9.65217C30.2045 9.64976 30.2034 9.6479 30.2026 9.64662C30.2022 9.64598 30.2019 9.64548 30.2017 9.64512C30.2016 9.64495 30.2015 9.64481 30.2014 9.64471C30.2014 9.64466 30.2014 9.64461 30.2014 9.64458C30.2014 9.64457 30.2013 9.64455 30.2013 9.64454C30.2013 9.64453 30.2013 9.64451 30.095 9.71021C29.9886 9.7759 29.9886 9.77589 29.9886 9.77588C29.9886 9.77588 29.9886 9.77588 29.9886 9.77588C29.9886 9.77589 29.9886 9.7759 29.9887 9.77593C29.9887 9.77597 29.9887 9.77606 29.9888 9.77618C29.989 9.77642 29.9892 9.77681 29.9895 9.77734C29.9902 9.7784 29.9912 9.78003 29.9925 9.78219C29.9951 9.78652 29.9991 9.79301 30.0041 9.80141C30.0142 9.81823 30.0286 9.84268 30.0461 9.87292C30.081 9.93349 30.1273 10.0167 30.1736 10.1078C30.22 10.1992 30.2653 10.2965 30.2986 10.3856C30.3333 10.4781 30.3501 10.5489 30.3501 10.5918H30.6001ZM30.5915 10.7716C30.5916 10.7718 30.5913 10.7701 30.5917 10.7632C30.5922 10.7553 30.593 10.7468 30.5944 10.7305C30.597 10.6996 30.6001 10.6567 30.6001 10.5918H30.3501C30.3501 10.6478 30.3475 10.6834 30.3453 10.7095C30.3434 10.7312 30.3396 10.764 30.3427 10.7958L30.5915 10.7716ZM30.7007 10.9923C30.6527 10.8974 30.6255 10.846 30.6075 10.8089C30.5899 10.7724 30.5913 10.769 30.5915 10.7716L30.3427 10.7958C30.3471 10.8405 30.3632 10.878 30.3825 10.9177C30.4013 10.9568 30.433 11.0169 30.4775 11.105L30.7007 10.9923ZM30.4129 11.2783C30.4533 11.2914 30.4945 11.3048 30.5286 11.3129C30.546 11.317 30.5662 11.321 30.5869 11.3222C30.606 11.3233 30.6377 11.3229 30.6705 11.308C30.7099 11.2902 30.739 11.2568 30.7513 11.215C30.7616 11.1801 30.7576 11.1479 30.7535 11.1273C30.7451 11.086 30.7245 11.0394 30.7007 10.9923L30.4775 11.105C30.4883 11.1264 30.496 11.1431 30.5012 11.156C30.5067 11.1694 30.5082 11.1756 30.5084 11.1767C30.509 11.1794 30.5053 11.1655 30.5115 11.1444C30.5149 11.1326 30.5214 11.1191 30.5324 11.1065C30.5433 11.0939 30.5559 11.0855 30.5673 11.0803C30.5782 11.0754 30.5873 11.0737 30.5925 11.073C30.5977 11.0724 30.6009 11.0726 30.6013 11.0726C30.6015 11.0726 30.5973 11.0723 30.5864 11.0697C30.5642 11.0644 30.5341 11.0548 30.4899 11.0404L30.4129 11.2783ZM29.8594 11.1737C30.0878 11.1737 30.2771 11.2343 30.4129 11.2783L30.4899 11.0404C30.3531 10.9962 30.1308 10.9237 29.8594 10.9237V11.1737ZM30.0014 10.5887C29.9642 10.5887 29.9252 10.5995 29.8951 10.6097C29.8619 10.621 29.8259 10.6365 29.7904 10.6541C29.7211 10.6886 29.6433 10.7368 29.5865 10.7899C29.559 10.8156 29.5278 10.8504 29.5094 10.8929C29.4889 10.9399 29.4808 11.0083 29.5261 11.0702C29.5639 11.1217 29.6223 11.1442 29.6697 11.1557C29.721 11.1682 29.7844 11.1737 29.8594 11.1737V10.9237C29.7942 10.9237 29.7529 10.9187 29.7288 10.9128C29.7008 10.906 29.7131 10.9024 29.7278 10.9224C29.7367 10.9346 29.7422 10.9501 29.7429 10.9659C29.7435 10.9803 29.7399 10.9897 29.7387 10.9924C29.7373 10.9957 29.7401 10.9886 29.7573 10.9724C29.79 10.9418 29.8448 10.9063 29.9018 10.8779C29.9295 10.8642 29.9551 10.8534 29.9756 10.8464C29.9994 10.8383 30.0065 10.8387 30.0014 10.8387V10.5887Z" fill="#272727"/>
</g>
</g>
</g>
<defs>
<filter id="filter0_dd_5_5504" x="0" y="0" width="42" height="30" filterUnits="userSpaceOnUse" color-interpolation-filters="sRGB">
<feFlood flood-opacity="0" result="BackgroundImageFix"/>
<feColorMatrix in="SourceAlpha" type="matrix" values="0 0 0 0 0 0 0 0 0 0 0 0 0 0 0 0 0 0 127 0" result="hardAlpha"/>
<feOffset dy="1"/>
<feGaussianBlur stdDeviation="1"/>
<feColorMatrix type="matrix" values="0 0 0 0 0.0627451 0 0 0 0 0.0941176 0 0 0 0 0.156863 0 0 0 0.06 0"/>
<feBlend mode="normal" in2="BackgroundImageFix" result="effect1_dropShadow_5_5504"/>
<feColorMatrix in="SourceAlpha" type="matrix" values="0 0 0 0 0 0 0 0 0 0 0 0 0 0 0 0 0 0 127 0" result="hardAlpha"/>
<feOffset dy="1"/>
<feGaussianBlur stdDeviation="1.5"/>
<feColorMatrix type="matrix" values="0 0 0 0 0.0627451 0 0 0 0 0.0941176 0 0 0 0 0.156863 0 0 0 0.1 0"/>
<feBlend mode="normal" in2="effect1_dropShadow_5_5504" result="effect2_dropShadow_5_5504"/>
<feBlend mode="normal" in="SourceGraphic" in2="effect2_dropShadow_5_5504" result="shape"/>
</filter>
</defs>
</svg>
