<svg width="42" height="30" viewBox="0 0 42 30" fill="none" xmlns="http://www.w3.org/2000/svg">
<g filter="url(#filter0_dd_5_8051)">
<mask id="mask0_5_8051" style="mask-type:alpha" maskUnits="userSpaceOnUse" x="3" y="2" width="36" height="24">
<rect x="3" y="2" width="36" height="24" fill="white"/>
</mask>
<g mask="url(#mask0_5_8051)">
<path fill-rule="evenodd" clip-rule="evenodd" d="M3 2H41.25V26H3V2Z" fill="#2993EC"/>
<path fill-rule="evenodd" clip-rule="evenodd" d="M9.98938 13.5833C9.98938 18.8761 14.919 23.1667 21 23.1667C27.081 23.1667 32.0107 18.8761 32.0107 13.5833C32.0107 8.2906 27.081 4 21 4C14.919 4 9.98938 8.2906 9.98938 13.5833ZM29.6171 13.5833C29.6171 17.7255 25.7591 21.0833 21 21.0833C16.241 21.0833 12.383 17.7255 12.383 13.5833C12.383 9.44119 16.241 6.08333 21 6.08333C25.7591 6.08333 29.6171 9.44119 29.6171 13.5833Z" fill="#F1F9FF"/>
<path fill-rule="evenodd" clip-rule="evenodd" d="M10.9468 13.5833C10.9468 18.4158 15.4477 22.3333 21 22.3333C26.5522 22.3333 31.0532 18.4158 31.0532 13.5833C31.0532 8.75082 26.5522 4.83331 21 4.83331C15.4477 4.83331 10.9468 8.75082 10.9468 13.5833ZM30.5745 13.5833C30.5745 18.1857 26.2879 21.9167 21 21.9167C15.7122 21.9167 11.4256 18.1857 11.4256 13.5833C11.4256 8.98094 15.7122 5.24998 21 5.24998C26.2879 5.24998 30.5745 8.98094 30.5745 13.5833Z" fill="#E31D1C"/>
<path fill-rule="evenodd" clip-rule="evenodd" d="M21 4.20831C20.8786 4.43099 20.818 4.74741 20.818 5.15758C20.818 5.56775 20.6393 5.97834 20.2819 6.38934C20.2155 5.93684 20.1824 5.52625 20.1824 5.15758C20.1824 4.78891 20.4549 4.47249 21 4.20831ZM23.5158 4.54693C23.3412 4.73963 23.202 5.03581 23.0982 5.43547C22.9944 5.83513 22.7164 6.19947 22.2642 6.52848C22.314 6.0743 22.3856 5.6676 22.4789 5.30838C22.5722 4.94915 22.9178 4.69534 23.5158 4.54693ZM25.2446 6.16785C25.4541 5.80239 25.6698 5.54494 25.8917 5.39551C25.2711 5.41092 24.8666 5.58287 24.6783 5.91136C24.49 6.23985 24.3099 6.61908 24.1379 7.04904C24.6662 6.82705 25.0352 6.53332 25.2446 6.16785ZM27.9651 6.68397C27.7111 6.78521 27.4358 6.99293 27.1392 7.30714C26.8426 7.62135 26.4088 7.83379 25.8378 7.94445C26.1142 7.55989 26.3857 7.2264 26.6523 6.94398C26.9189 6.66156 27.3565 6.57489 27.9651 6.68397ZM28.6814 8.79607C29.0499 8.54923 29.3707 8.40188 29.6438 8.35402C29.0784 8.12604 28.6301 8.12299 28.2988 8.34486C27.9676 8.56673 27.6187 8.83739 27.2521 9.15683C27.8364 9.16318 28.3128 9.04292 28.6814 8.79607ZM30.8398 10.3362C30.5618 10.3239 30.2104 10.3979 29.7857 10.5582C29.3609 10.7185 28.8659 10.7327 28.3006 10.6009C28.7433 10.3698 29.1555 10.1822 29.5373 10.0381C29.9191 9.89406 30.3533 9.99343 30.8398 10.3362ZM30.3965 12.4909C30.851 12.4197 31.2121 12.4178 31.4799 12.4854C31.0925 12.0541 30.6946 11.8705 30.2862 11.9345C29.8777 11.9985 29.4286 12.0988 28.9388 12.2355C29.4562 12.477 29.9421 12.5621 30.3965 12.4909ZM9.84448 11.7696C10.0701 11.9145 10.4101 12.0226 10.8646 12.0938C11.319 12.1651 11.7429 12.3928 12.1362 12.777C11.6233 12.7565 11.1627 12.7143 10.7542 12.6502C10.3457 12.5862 10.0425 12.2927 9.84448 11.7696ZM11.5738 10.1871C11.1491 10.0268 10.8451 9.85351 10.6619 9.66721C10.7225 10.2164 10.9437 10.5631 11.3255 10.7071C11.7073 10.8512 12.1454 10.9845 12.64 11.107C12.354 10.654 11.9986 10.3473 11.5738 10.1871ZM12.0305 7.77357C12.1576 7.99374 12.4053 8.22724 12.7739 8.47409C13.1424 8.72094 13.4037 9.09488 13.558 9.59592C13.1114 9.37071 12.7226 9.14718 12.3913 8.9253C12.0601 8.70343 11.9398 8.31952 12.0305 7.77357ZM14.3907 7.04799C14.094 6.73378 13.9117 6.45672 13.8437 6.2168C13.6171 6.73062 13.6372 7.12874 13.9038 7.41116C14.1704 7.69358 14.4927 7.98914 14.8708 8.29786C14.8473 7.77882 14.6873 7.3622 14.3907 7.04799ZM16.0192 5.06555C16.0248 5.31293 16.1324 5.61935 16.3419 5.98482C16.5513 6.35028 16.6018 6.78822 16.4933 7.29864C16.2031 6.92225 15.9638 6.5698 15.7755 6.24131C15.5872 5.91282 15.6685 5.5209 16.0192 5.06555ZM18.5262 5.34478C18.4224 4.94512 18.4014 4.62468 18.4633 4.38344C17.999 4.74984 17.8136 5.11265 17.9069 5.47188C18.0002 5.8311 18.1364 6.22453 18.3156 6.65216C18.5598 6.18023 18.63 5.74444 18.5262 5.34478Z" fill="#FDDA33"/>
<path fill-rule="evenodd" clip-rule="evenodd" d="M19.3395 7.75C18.9666 7.75 18.6926 8.09973 18.7817 8.4618L19.2169 10.2295C19.2539 10.3796 19.348 10.5037 19.4726 10.5808C19.3583 10.6705 19.2783 10.803 19.2578 10.9565L17.6992 22.5839C17.6687 22.8111 17.7759 23.0339 17.9802 23.1379C18.5657 23.4359 19.8427 24 21.1198 24C22.3968 24 23.6738 23.4359 24.2593 23.1379C24.4637 23.0339 24.5708 22.8111 24.5403 22.5839L22.9817 10.9565C22.9612 10.803 22.8812 10.6705 22.7669 10.5808C22.8916 10.5037 22.9856 10.3796 23.0226 10.2295L23.4578 8.4618C23.547 8.09973 23.2729 7.75 22.9 7.75H19.3395Z" fill="#A7A7A7"/>
<path d="M10.3342 14.0128C10.3922 13.8478 10.593 13.7549 10.7826 13.8054C10.9722 13.8559 11.0789 14.0307 11.0209 14.1957C10.9205 14.4813 10.9205 14.903 11.0312 15.4548C11.0737 15.6664 11.1242 15.8299 11.1863 15.9742C11.2111 16.0317 11.2367 16.0844 11.2709 16.1497C11.2556 16.1206 11.3391 16.2782 11.3594 16.319C11.4667 16.5349 11.5141 16.7241 11.5141 17.0013C11.5141 17.1739 11.3534 17.3138 11.1551 17.3138C10.9568 17.3138 10.7961 17.1739 10.7961 17.0013C10.7961 16.8119 10.7697 16.7067 10.7003 16.5671C10.684 16.5343 10.606 16.3871 10.6174 16.4088C10.5769 16.3314 10.5451 16.2661 10.5139 16.1934C10.4359 16.0123 10.3739 15.8115 10.3239 15.5623C10.1954 14.9222 10.1954 14.4077 10.3342 14.0128Z" fill="#73BE4A"/>
<path fill-rule="evenodd" clip-rule="evenodd" d="M21.2394 18.1791L16.6106 20.9826L18.2436 16.2847L13.7498 13.3194L19.3879 13.2194L21.2394 8.58331L23.0909 13.2194L28.7289 13.3194L24.2352 16.2847L25.8682 20.9826L21.2394 18.1791Z" fill="#F7FCFF"/>
<path d="M31.7544 14.4295C31.6964 14.2644 31.4956 14.1716 31.306 14.2221C31.1164 14.2726 31.0097 14.4473 31.0677 14.6123C31.1681 14.8979 31.1681 15.3196 31.0574 15.8714C31.0149 16.0831 30.9644 16.2465 30.9023 16.3908C30.8775 16.4484 30.852 16.501 30.8178 16.5663C30.833 16.5372 30.7495 16.6948 30.7292 16.7356C30.6219 16.9515 30.5745 17.1407 30.5745 17.4179C30.5745 17.5905 30.7352 17.7304 30.9335 17.7304C31.1318 17.7304 31.2926 17.5905 31.2926 17.4179C31.2926 17.2285 31.3189 17.1233 31.3883 16.9838C31.4046 16.9509 31.4826 16.8037 31.4712 16.8254C31.5118 16.748 31.5435 16.6827 31.5748 16.61C31.6527 16.4289 31.7148 16.2281 31.7648 15.979C31.8932 15.3388 31.8932 14.8244 31.7544 14.4295Z" fill="#73BE4A"/>
<path d="M21.0684 5.14758C21.0684 5.14758 22.3783 5.66632 21.8126 6.48307" stroke="#73BE4A" stroke-linecap="round" stroke-linejoin="round"/>
<path d="M22.0259 5.14758C22.0259 5.14758 23.3358 5.66632 22.7701 6.48307" stroke="#73BE4A" stroke-linecap="round" stroke-linejoin="round"/>
<path d="M13.4173 8.35675C13.5123 8.21063 13.7118 8.16663 13.8629 8.25848C14.014 8.35032 14.0595 8.54323 13.9645 8.68935C13.7823 8.9697 13.6874 9.35435 13.6874 9.84755C13.6874 10.0201 13.5427 10.16 13.3643 10.16C13.1858 10.16 13.0411 10.0201 13.0411 9.84755C13.0411 9.2448 13.164 8.74645 13.4173 8.35675Z" fill="#73BE4A"/>
<path d="M12.9096 11.2125C12.9096 11.3851 12.7649 11.525 12.5864 11.525C12.408 11.525 12.2633 11.3851 12.2633 11.2125V10.3223C12.2633 9.69248 12.3745 9.19645 12.6088 8.83422C12.7035 8.68791 12.9029 8.64352 13.0542 8.73507C13.2054 8.82661 13.2514 9.01943 13.1567 9.16574C12.996 9.41414 12.9096 9.79968 12.9096 10.3223V11.2125Z" fill="#73BE4A"/>
<path d="M29.4196 10.7959C29.4196 10.9685 29.5643 11.1084 29.7428 11.1084C29.9212 11.1084 30.0659 10.9685 30.0659 10.7959V9.90572C30.0659 9.27586 29.9548 8.77983 29.7204 8.41759C29.6257 8.27129 29.4264 8.22689 29.2751 8.31844C29.1238 8.40999 29.0779 8.60281 29.1725 8.74911C29.3332 8.99751 29.4196 9.38306 29.4196 9.90572V10.7959Z" fill="#73BE4A"/>
<path d="M30.3772 12.2542C30.3772 12.4268 30.5218 12.5667 30.7003 12.5667C30.8788 12.5667 31.0234 12.4268 31.0234 12.2542V11.364C31.0234 10.7342 30.9123 10.2381 30.6779 9.87591C30.5833 9.7296 30.3839 9.68521 30.2326 9.77675C30.0813 9.8683 30.0354 10.0611 30.1301 10.2074C30.2908 10.4558 30.3772 10.8414 30.3772 11.364V12.2542Z" fill="#73BE4A"/>
</g>
</g>
<defs>
<filter id="filter0_dd_5_8051" x="0" y="0" width="42" height="30" filterUnits="userSpaceOnUse" color-interpolation-filters="sRGB">
<feFlood flood-opacity="0" result="BackgroundImageFix"/>
<feColorMatrix in="SourceAlpha" type="matrix" values="0 0 0 0 0 0 0 0 0 0 0 0 0 0 0 0 0 0 127 0" result="hardAlpha"/>
<feOffset dy="1"/>
<feGaussianBlur stdDeviation="1"/>
<feColorMatrix type="matrix" values="0 0 0 0 0.0627451 0 0 0 0 0.0941176 0 0 0 0 0.156863 0 0 0 0.06 0"/>
<feBlend mode="normal" in2="BackgroundImageFix" result="effect1_dropShadow_5_8051"/>
<feColorMatrix in="SourceAlpha" type="matrix" values="0 0 0 0 0 0 0 0 0 0 0 0 0 0 0 0 0 0 127 0" result="hardAlpha"/>
<feOffset dy="1"/>
<feGaussianBlur stdDeviation="1.5"/>
<feColorMatrix type="matrix" values="0 0 0 0 0.0627451 0 0 0 0 0.0941176 0 0 0 0 0.156863 0 0 0 0.1 0"/>
<feBlend mode="normal" in2="effect1_dropShadow_5_8051" result="effect2_dropShadow_5_8051"/>
<feBlend mode="normal" in="SourceGraphic" in2="effect2_dropShadow_5_8051" result="shape"/>
</filter>
</defs>
</svg>
