<svg width="42" height="30" viewBox="0 0 42 30" fill="none" xmlns="http://www.w3.org/2000/svg">
<g filter="url(#filter0_dd_5_10667)">
<mask id="mask0_5_10667" style="mask-type:alpha" maskUnits="userSpaceOnUse" x="3" y="2" width="36" height="24">
<rect x="3" y="2" width="36" height="24" fill="white"/>
</mask>
<g mask="url(#mask0_5_10667)">
<path fill-rule="evenodd" clip-rule="evenodd" d="M3 2H39V8H3V2Z" fill="#3D58DB"/>
<path fill-rule="evenodd" clip-rule="evenodd" d="M3 8H39V14H3V8Z" fill="#F7FCFF"/>
<path fill-rule="evenodd" clip-rule="evenodd" d="M3 14H39V20H3V14Z" fill="#73BE4A"/>
<path fill-rule="evenodd" clip-rule="evenodd" d="M3 20H39V26H3V20Z" fill="#FFD018"/>
<path fill-rule="evenodd" clip-rule="evenodd" d="M8.09569 7.41609L5.36808 9.0978L6.23965 6.21744L4.2373 4.37746L6.94859 4.27797L8.09569 1.42972L9.24278 4.27797H11.9495L9.95172 6.21744L10.9522 8.92779L8.09569 7.41609Z" fill="#FECA00"/>
<path fill-rule="evenodd" clip-rule="evenodd" d="M16.5 1.99997H25.5V26H16.5V1.99997Z" fill="#E11C1B"/>
</g>
</g>
<defs>
<filter id="filter0_dd_5_10667" x="0" y="0" width="42" height="30" filterUnits="userSpaceOnUse" color-interpolation-filters="sRGB">
<feFlood flood-opacity="0" result="BackgroundImageFix"/>
<feColorMatrix in="SourceAlpha" type="matrix" values="0 0 0 0 0 0 0 0 0 0 0 0 0 0 0 0 0 0 127 0" result="hardAlpha"/>
<feOffset dy="1"/>
<feGaussianBlur stdDeviation="1"/>
<feColorMatrix type="matrix" values="0 0 0 0 0.0627451 0 0 0 0 0.0941176 0 0 0 0 0.156863 0 0 0 0.06 0"/>
<feBlend mode="normal" in2="BackgroundImageFix" result="effect1_dropShadow_5_10667"/>
<feColorMatrix in="SourceAlpha" type="matrix" values="0 0 0 0 0 0 0 0 0 0 0 0 0 0 0 0 0 0 127 0" result="hardAlpha"/>
<feOffset dy="1"/>
<feGaussianBlur stdDeviation="1.5"/>
<feColorMatrix type="matrix" values="0 0 0 0 0.0627451 0 0 0 0 0.0941176 0 0 0 0 0.156863 0 0 0 0.1 0"/>
<feBlend mode="normal" in2="effect1_dropShadow_5_10667" result="effect2_dropShadow_5_10667"/>
<feBlend mode="normal" in="SourceGraphic" in2="effect2_dropShadow_5_10667" result="shape"/>
</filter>
</defs>
</svg>
