<svg width="42" height="30" viewBox="0 0 42 30" fill="none" xmlns="http://www.w3.org/2000/svg">
<g filter="url(#filter0_dd_5_8089)">
<mask id="mask0_5_8089" style="mask-type:alpha" maskUnits="userSpaceOnUse" x="3" y="2" width="36" height="24">
<rect x="3" y="2" width="36" height="24" fill="white"/>
</mask>
<g mask="url(#mask0_5_8089)">
<path fill-rule="evenodd" clip-rule="evenodd" d="M3 2V26H39V2H3Z" fill="#1C9975"/>
<mask id="mask1_5_8089" style="mask-type:alpha" maskUnits="userSpaceOnUse" x="3" y="2" width="36" height="24">
<path fill-rule="evenodd" clip-rule="evenodd" d="M3 2V26H39V2H3Z" fill="white"/>
</mask>
<g mask="url(#mask1_5_8089)">
<path fill-rule="evenodd" clip-rule="evenodd" d="M21.0243 8.8537L19.1864 9.83998L19.6056 7.91536L18.0751 6.47497L20.1475 6.39709L21.0243 4.59998L21.9011 6.39709H23.9701L22.443 7.91536L22.9028 9.83998L21.0243 8.8537Z" fill="#FECA00"/>
<path fill-rule="evenodd" clip-rule="evenodd" d="M15.8053 9.58445L14.6688 10.1943L14.9281 9.00426L13.9817 8.11364L15.2631 8.06548L15.8053 6.95428L16.3474 8.06548H17.6267L16.6825 9.00426L16.9668 10.1943L15.8053 9.58445Z" fill="#FECA00"/>
<path fill-rule="evenodd" clip-rule="evenodd" d="M26.1535 9.58445L25.0171 10.1943L25.2763 9.00426L24.33 8.11364L25.6114 8.06548L26.1535 6.95428L26.6957 8.06548H27.975L27.0308 9.00426L27.315 10.1943L26.1535 9.58445Z" fill="#FECA00"/>
<path fill-rule="evenodd" clip-rule="evenodd" d="M12.8623 11.6106L11.9503 12.1L12.1584 11.145L11.3989 10.4303L12.4272 10.3917L12.8623 9.5L13.2974 10.3917H14.3239L13.5662 11.145L13.7943 12.1L12.8623 11.6106Z" fill="#FECA00"/>
<path fill-rule="evenodd" clip-rule="evenodd" d="M29.5059 11.6106L28.5939 12.1L28.8019 11.145L28.0425 10.4303L29.0708 10.3917L29.5059 9.5L29.9409 10.3917H30.9675L30.2098 11.145L30.4379 12.1L29.5059 11.6106Z" fill="#FECA00"/>
<mask id="mask2_5_8089" style="mask-type:alpha" maskUnits="userSpaceOnUse" x="12" y="8" width="18" height="16">
<path fill-rule="evenodd" clip-rule="evenodd" d="M21 24C25.9706 24 30 20.4183 30 16C30 11.5817 25.9706 8 21 8C16.0294 8 12 11.5817 12 16C12 20.4183 16.0294 24 21 24Z" fill="white"/>
</mask>
<g mask="url(#mask2_5_8089)">
<path fill-rule="evenodd" clip-rule="evenodd" d="M17.266 23.0638H24.7341V24.1362H17.266V23.0638Z" fill="#F7FCFF"/>
<path fill-rule="evenodd" clip-rule="evenodd" d="M14.2021 21.46H28.5639V22.4429H14.2021V21.46Z" fill="#F7FCFF"/>
<path d="M17.1977 21.0206H12.8049V20.0206L17.1898 20.0206C18.7431 20.0012 19.8781 19.6069 20.6355 18.8482L21.0128 18.4701L21.434 18.8096C22.4455 19.6248 23.4558 20.0206 24.4778 20.0206H29.3201V21.0206H24.4778C23.3037 21.0206 22.1701 20.628 21.0862 19.8592C20.1263 20.6156 18.8228 21.0003 17.1977 21.0206Z" fill="#F7FCFF"/>
</g>
<path fill-rule="evenodd" clip-rule="evenodd" d="M21.0391 9.60779C21.0391 9.60779 19.1167 11.2958 19.1167 13.6124C19.1167 14.1082 19.2048 14.5767 19.3433 15.0068C18.7238 13.7865 18.6808 12.4634 19.2154 11.02L18.4878 10.8071C17.9441 12.2753 17.9417 13.6556 18.4815 14.9348C17.3648 14.3368 16.0801 13.9349 14.7614 13.8054L14.6772 14.4821C15.8298 14.5953 16.9547 14.937 17.9424 15.4427C17.6985 15.3552 17.4427 15.2792 17.1758 15.2187C14.7425 14.6666 12.3552 15.4494 12.3552 15.4494C12.3552 15.4494 13.7323 18.1956 16.3996 18.6006C16.5326 18.6208 16.6641 18.6365 16.7938 18.6481L16.7736 18.6482C15.5019 18.6482 14.3193 18.186 13.2119 17.2471L12.6832 17.7397C13.9271 18.7944 15.2952 19.329 16.7736 19.329C18.2195 19.329 19.5624 18.8177 20.7894 17.8086C20.9862 17.7029 21.1014 17.6273 21.1198 17.615L21.1682 17.6516C21.1429 17.6902 21.1302 17.7112 21.1302 17.7112C21.1302 17.7112 21.2511 17.7763 21.4691 17.8679C22.6806 18.7027 24.1965 19.329 25.3959 19.329C26.8743 19.329 28.2424 18.7944 29.4863 17.7397L28.9576 17.2471C27.8502 18.186 26.6676 18.6482 25.3959 18.6482C24.9313 18.6482 24.476 18.5818 24.0294 18.4483C24.6548 18.4782 25.3437 18.4282 26.0568 18.2344C28.6842 17.5204 29.7794 15.3607 29.7794 15.3607C29.7794 15.3607 28.3814 14.6902 26.6058 14.6827C27.0037 14.5915 27.4189 14.5246 27.8517 14.4821L27.7676 13.8054C26.1023 13.969 24.6614 14.4687 23.4528 15.3024C24.1595 13.9212 24.2143 12.417 23.618 10.8071L22.8905 11.02C23.3776 12.3352 23.3852 13.5506 22.914 14.6793C22.9946 14.3457 23.0423 13.9891 23.0423 13.6124C23.0423 11.1702 21.0391 9.60779 21.0391 9.60779ZM21.8847 16.7554L21.8564 16.7917L21.891 16.7551L21.8847 16.7554ZM20.0267 16.596L20.102 16.5344C20.1705 16.6356 20.2389 16.7308 20.3057 16.8198C20.2191 16.7472 20.126 16.6722 20.0267 16.596Z" fill="#F7FCFF"/>
</g>
</g>
</g>
<defs>
<filter id="filter0_dd_5_8089" x="0" y="0" width="42" height="30" filterUnits="userSpaceOnUse" color-interpolation-filters="sRGB">
<feFlood flood-opacity="0" result="BackgroundImageFix"/>
<feColorMatrix in="SourceAlpha" type="matrix" values="0 0 0 0 0 0 0 0 0 0 0 0 0 0 0 0 0 0 127 0" result="hardAlpha"/>
<feOffset dy="1"/>
<feGaussianBlur stdDeviation="1"/>
<feColorMatrix type="matrix" values="0 0 0 0 0.0627451 0 0 0 0 0.0941176 0 0 0 0 0.156863 0 0 0 0.06 0"/>
<feBlend mode="normal" in2="BackgroundImageFix" result="effect1_dropShadow_5_8089"/>
<feColorMatrix in="SourceAlpha" type="matrix" values="0 0 0 0 0 0 0 0 0 0 0 0 0 0 0 0 0 0 127 0" result="hardAlpha"/>
<feOffset dy="1"/>
<feGaussianBlur stdDeviation="1.5"/>
<feColorMatrix type="matrix" values="0 0 0 0 0.0627451 0 0 0 0 0.0941176 0 0 0 0 0.156863 0 0 0 0.1 0"/>
<feBlend mode="normal" in2="effect1_dropShadow_5_8089" result="effect2_dropShadow_5_8089"/>
<feBlend mode="normal" in="SourceGraphic" in2="effect2_dropShadow_5_8089" result="shape"/>
</filter>
</defs>
</svg>
