<svg width="42" height="30" viewBox="0 0 42 30" fill="none" xmlns="http://www.w3.org/2000/svg">
<g filter="url(#filter0_dd_5_9370)">
<mask id="mask0_5_9370" style="mask-type:alpha" maskUnits="userSpaceOnUse" x="3" y="2" width="36" height="24">
<rect x="3" y="2" width="36" height="24" fill="white"/>
</mask>
<g mask="url(#mask0_5_9370)">
<path fill-rule="evenodd" clip-rule="evenodd" d="M3 2V26H39V2H3Z" fill="#F7FCFF"/>
<mask id="mask1_5_9370" style="mask-type:alpha" maskUnits="userSpaceOnUse" x="3" y="2" width="36" height="24">
<path fill-rule="evenodd" clip-rule="evenodd" d="M3 2V26H39V2H3Z" fill="white"/>
</mask>
<g mask="url(#mask1_5_9370)">
<path fill-rule="evenodd" clip-rule="evenodd" d="M3 2V10H39V2H3Z" fill="#4564F9"/>
<path fill-rule="evenodd" clip-rule="evenodd" d="M3 18V26H39V18H3Z" fill="#4564F9"/>
<path fill-rule="evenodd" clip-rule="evenodd" d="M21.4524 14.6708L20.4775 15.118L20.6637 14.1708L19.875 13.4309H20.9649L21.4524 12.5L21.9398 13.4309H23.0298L22.2411 14.1708L22.4272 15.118L21.4524 14.6708Z" fill="#4564F9"/>
<path fill-rule="evenodd" clip-rule="evenodd" d="M14.6079 12.5027L13.633 12.9499L13.8192 12.0027L13.0305 11.2628H14.1205L14.6079 10.3319L15.0953 11.2628H16.1853L15.3966 12.0027L15.5828 12.9499L14.6079 12.5027Z" fill="#4564F9"/>
<path fill-rule="evenodd" clip-rule="evenodd" d="M14.6079 16.7027L13.633 17.15L13.8192 16.2027L13.0305 15.4628H14.1205L14.6079 14.5319L15.0953 15.4628H16.1853L15.3966 16.2027L15.5828 17.15L14.6079 16.7027Z" fill="#4564F9"/>
<path fill-rule="evenodd" clip-rule="evenodd" d="M28.1079 12.5027L27.133 12.9499L27.3192 12.0027L26.5305 11.2628H27.6205L28.1079 10.3319L28.5953 11.2628H29.6853L28.8966 12.0027L29.0828 12.9499L28.1079 12.5027Z" fill="#4564F9"/>
<path fill-rule="evenodd" clip-rule="evenodd" d="M28.1079 16.7027L27.133 17.15L27.3192 16.2027L26.5305 15.4628H27.6205L28.1079 14.5319L28.5953 15.4628H29.6853L28.8966 16.2027L29.0828 17.15L28.1079 16.7027Z" fill="#4564F9"/>
</g>
</g>
</g>
<defs>
<filter id="filter0_dd_5_9370" x="0" y="0" width="42" height="30" filterUnits="userSpaceOnUse" color-interpolation-filters="sRGB">
<feFlood flood-opacity="0" result="BackgroundImageFix"/>
<feColorMatrix in="SourceAlpha" type="matrix" values="0 0 0 0 0 0 0 0 0 0 0 0 0 0 0 0 0 0 127 0" result="hardAlpha"/>
<feOffset dy="1"/>
<feGaussianBlur stdDeviation="1"/>
<feColorMatrix type="matrix" values="0 0 0 0 0.0627451 0 0 0 0 0.0941176 0 0 0 0 0.156863 0 0 0 0.06 0"/>
<feBlend mode="normal" in2="BackgroundImageFix" result="effect1_dropShadow_5_9370"/>
<feColorMatrix in="SourceAlpha" type="matrix" values="0 0 0 0 0 0 0 0 0 0 0 0 0 0 0 0 0 0 127 0" result="hardAlpha"/>
<feOffset dy="1"/>
<feGaussianBlur stdDeviation="1.5"/>
<feColorMatrix type="matrix" values="0 0 0 0 0.0627451 0 0 0 0 0.0941176 0 0 0 0 0.156863 0 0 0 0.1 0"/>
<feBlend mode="normal" in2="effect1_dropShadow_5_9370" result="effect2_dropShadow_5_9370"/>
<feBlend mode="normal" in="SourceGraphic" in2="effect2_dropShadow_5_9370" result="shape"/>
</filter>
</defs>
</svg>
