<svg width="42" height="30" viewBox="0 0 42 30" fill="none" xmlns="http://www.w3.org/2000/svg">
<g filter="url(#filter0_dd_5_5859)">
<mask id="mask0_5_5859" style="mask-type:alpha" maskUnits="userSpaceOnUse" x="3" y="2" width="36" height="24">
<rect x="3" y="2" width="36" height="24" fill="white"/>
</mask>
<g mask="url(#mask0_5_5859)">
<path fill-rule="evenodd" clip-rule="evenodd" d="M3 18H39V26H3V18Z" fill="#14DC5A"/>
<path fill-rule="evenodd" clip-rule="evenodd" d="M3 2H39V12H3V2Z" fill="#0099B5"/>
<path d="M0.75 11.5H0.25V12V18V18.5H0.75H41.25H41.75V18V12V11.5H41.25H0.75Z" fill="#F7FCFF" stroke="#C51918"/>
<path fill-rule="evenodd" clip-rule="evenodd" d="M19.359 5.00637L18.6018 5.38034L18.818 4.62029L18.0927 4.06177H19.0401L19.3578 3.34253L19.7304 4.06177H20.538L19.9034 4.62029L20.2085 5.38034L19.359 5.00637ZM15.2997 7.29721L16.0569 6.92324L16.9065 7.29721L16.6014 6.53716L17.2359 5.97864H16.4283L16.0557 5.2594L15.738 5.97864H14.7907L15.516 6.53716L15.2997 7.29721ZM12.4811 8.96108L11.7239 9.33505L11.9402 8.575L11.2149 8.01648H12.1622L12.48 7.29724L12.8525 8.01648H13.6601L13.0256 8.575L13.3307 9.33505L12.4811 8.96108ZM16.0569 8.96108L15.2997 9.33505L15.516 8.575L14.7907 8.01648H15.738L16.0557 7.29724L16.4283 8.01648H17.2359L16.6014 8.575L16.9065 9.33505L16.0569 8.96108ZM19.4094 8.96108L18.6522 9.33505L18.8684 8.575L18.1431 8.01648H19.0905L19.4082 7.29724L19.7808 8.01648H20.5884L19.9538 8.575L20.2589 9.33505L19.4094 8.96108ZM18.6522 7.29721L19.4094 6.92324L20.2589 7.29721L19.9538 6.53716L20.5884 5.97864H19.7808L19.4082 5.2594L19.0905 5.97864H18.1431L18.8684 6.53716L18.6522 7.29721ZM22.0265 9.33505L22.7837 8.96108L23.6333 9.33505L23.3282 8.575L23.9627 8.01648H23.1551L22.7825 7.29724L22.4648 8.01648H21.5175L22.2428 8.575L22.0265 9.33505ZM22.7837 6.92324L22.0265 7.29721L22.2428 6.53716L21.5175 5.97864H22.4648L22.7825 5.2594L23.1551 5.97864H23.9627L23.3282 6.53716L23.6333 7.29721L22.7837 6.92324ZM21.976 5.38034L22.7331 5.00637L23.5827 5.38034L23.2776 4.62029L23.9122 4.06177H23.1046L22.732 3.34253L22.4143 4.06177H21.4669L22.1922 4.62029L21.976 5.38034ZM26.1926 8.96108L25.4354 9.33505L25.6517 8.575L24.9264 8.01648H25.8737L26.1915 7.29724L26.564 8.01648H27.3716L26.7371 8.575L27.0422 9.33505L26.1926 8.96108ZM25.4354 7.29721L26.1926 6.92324L27.0422 7.29721L26.7371 6.53716L27.3716 5.97864H26.564L26.1915 5.2594L25.8737 5.97864H24.9264L25.6517 6.53716L25.4354 7.29721ZM26.1422 5.00637L25.385 5.38034L25.6013 4.62029L24.876 4.06177H25.8233L26.1411 3.34253L26.5136 4.06177H27.3212L26.6867 4.62029L26.9918 5.38034L26.1422 5.00637ZM9.62052 10.2406C9.62052 10.2406 6.90269 9.58539 6.95387 7.16191C7.00505 4.73842 9.75 4.10921 9.75 4.10921C8.62841 3.73167 5.31204 4.23828 5.25082 7.13734C5.1896 10.0364 8.57542 10.6075 9.62052 10.2406Z" fill="#F7FCFF"/>
</g>
</g>
<defs>
<filter id="filter0_dd_5_5859" x="0" y="0" width="42" height="30" filterUnits="userSpaceOnUse" color-interpolation-filters="sRGB">
<feFlood flood-opacity="0" result="BackgroundImageFix"/>
<feColorMatrix in="SourceAlpha" type="matrix" values="0 0 0 0 0 0 0 0 0 0 0 0 0 0 0 0 0 0 127 0" result="hardAlpha"/>
<feOffset dy="1"/>
<feGaussianBlur stdDeviation="1"/>
<feColorMatrix type="matrix" values="0 0 0 0 0.0627451 0 0 0 0 0.0941176 0 0 0 0 0.156863 0 0 0 0.06 0"/>
<feBlend mode="normal" in2="BackgroundImageFix" result="effect1_dropShadow_5_5859"/>
<feColorMatrix in="SourceAlpha" type="matrix" values="0 0 0 0 0 0 0 0 0 0 0 0 0 0 0 0 0 0 127 0" result="hardAlpha"/>
<feOffset dy="1"/>
<feGaussianBlur stdDeviation="1.5"/>
<feColorMatrix type="matrix" values="0 0 0 0 0.0627451 0 0 0 0 0.0941176 0 0 0 0 0.156863 0 0 0 0.1 0"/>
<feBlend mode="normal" in2="effect1_dropShadow_5_5859" result="effect2_dropShadow_5_5859"/>
<feBlend mode="normal" in="SourceGraphic" in2="effect2_dropShadow_5_5859" result="shape"/>
</filter>
</defs>
</svg>
