<svg width="42" height="30" viewBox="0 0 42 30" fill="none" xmlns="http://www.w3.org/2000/svg">
<g filter="url(#filter0_dd_5_10057)">
<mask id="mask0_5_10057" style="mask-type:alpha" maskUnits="userSpaceOnUse" x="3" y="2" width="36" height="24">
<rect x="3" y="2" width="36" height="24" fill="white"/>
</mask>
<g mask="url(#mask0_5_10057)">
<path fill-rule="evenodd" clip-rule="evenodd" d="M3 2V26H39V2H3Z" fill="#FFB400"/>
<mask id="mask1_5_10057" style="mask-type:alpha" maskUnits="userSpaceOnUse" x="3" y="2" width="36" height="24">
<path fill-rule="evenodd" clip-rule="evenodd" d="M3 2V26H39V2H3Z" fill="white"/>
</mask>
<g mask="url(#mask1_5_10057)">
<path fill-rule="evenodd" clip-rule="evenodd" d="M3 2V8H39V2H3Z" fill="#C51918"/>
<path fill-rule="evenodd" clip-rule="evenodd" d="M3 20V26H39V20H3Z" fill="#C51918"/>
<rect x="8.63403" y="12.272" width="1.26" height="5.824" fill="#F1F9FF"/>
<path fill-rule="evenodd" clip-rule="evenodd" d="M10.3981 11.264H8.13013V11.824H8.50813V12.272H10.0201V11.824H10.3981V11.264Z" fill="#C88A02"/>
<path fill-rule="evenodd" clip-rule="evenodd" d="M10.0201 18.432H10.3981V18.992H8.13013V18.432H8.50813V17.984H10.0201V18.432Z" fill="#C88A02"/>
<path fill-rule="evenodd" clip-rule="evenodd" d="M9.26408 11.376C9.53828 11.376 9.56615 11.2842 9.72792 11.1472C9.85353 11.0407 10.1461 10.9087 10.1461 10.76C10.1461 10.4198 9.7512 10.144 9.26408 10.144C8.77696 10.144 8.38208 10.4198 8.38208 10.76C8.38208 10.9257 8.58354 11.0365 8.73587 11.1472C8.89636 11.2638 9.01417 11.376 9.26408 11.376Z" fill="#AD1619"/>
<path fill-rule="evenodd" clip-rule="evenodd" d="M8.13013 18.992H10.3981V19.888C10.3981 19.888 10.1146 19.776 9.83113 19.776C9.54763 19.776 9.26413 19.888 9.26413 19.888C9.26413 19.888 8.98063 19.776 8.69713 19.776C8.41363 19.776 8.13013 19.888 8.13013 19.888V18.992Z" fill="#005BBF"/>
<mask id="mask2_5_10057" style="mask-type:alpha" maskUnits="userSpaceOnUse" x="8" y="18" width="3" height="2">
<path fill-rule="evenodd" clip-rule="evenodd" d="M8.13013 18.992H10.3981V19.888C10.3981 19.888 10.1146 19.776 9.83113 19.776C9.54763 19.776 9.26413 19.888 9.26413 19.888C9.26413 19.888 8.98063 19.776 8.69713 19.776C8.41363 19.776 8.13013 19.888 8.13013 19.888V18.992Z" fill="white"/>
</mask>
<g mask="url(#mask2_5_10057)">
<path d="M8.10956 19.7119L8.06006 19.6046C8.26433 19.5238 8.46934 19.4833 8.67465 19.4833C8.8073 19.4833 8.87657 19.4997 8.99432 19.5463C9.09776 19.5872 9.15137 19.5999 9.26449 19.5999C9.37761 19.5999 9.43123 19.5872 9.53466 19.5463C9.65242 19.4997 9.72169 19.4833 9.85433 19.4833C10.0596 19.4833 10.2646 19.5238 10.4689 19.6046L10.4194 19.7119C10.2305 19.6372 10.0422 19.5999 9.85433 19.5999C9.74121 19.5999 9.6876 19.6127 9.58416 19.6536C9.46641 19.7002 9.39714 19.7166 9.26449 19.7166C9.13184 19.7166 9.06258 19.7002 8.94482 19.6536C8.84139 19.6127 8.78777 19.5999 8.67465 19.5999C8.48674 19.5999 8.29851 19.6372 8.10956 19.7119Z" fill="white"/>
<path d="M8.10956 19.3759L8.06006 19.2686C8.26433 19.1878 8.46934 19.1473 8.67465 19.1473C8.8073 19.1473 8.87657 19.1637 8.99432 19.2103C9.09776 19.2512 9.15137 19.2639 9.26449 19.2639C9.37761 19.2639 9.43123 19.2512 9.53466 19.2103C9.65242 19.1637 9.72169 19.1473 9.85433 19.1473C10.0596 19.1473 10.2646 19.1878 10.4689 19.2686L10.4194 19.3759C10.2305 19.3012 10.0422 19.2639 9.85433 19.2639C9.74121 19.2639 9.6876 19.2767 9.58416 19.3176C9.46641 19.3642 9.39714 19.3806 9.26449 19.3806C9.13184 19.3806 9.06258 19.3642 8.94482 19.3176C8.84139 19.2767 8.78777 19.2639 8.67465 19.2639C8.48674 19.2639 8.29851 19.3012 8.10956 19.3759Z" fill="white"/>
</g>
<rect x="20.9821" y="12.272" width="1.26" height="5.824" fill="#F1F9FF"/>
<path fill-rule="evenodd" clip-rule="evenodd" d="M22.746 11.264H20.478V11.824H20.8561V12.272H22.3681V11.824H22.746V11.264Z" fill="#C88A02"/>
<path fill-rule="evenodd" clip-rule="evenodd" d="M22.368 18.432H22.746V18.992H20.478V18.432H20.856V17.984H22.368V18.432Z" fill="#C88A02"/>
<path fill-rule="evenodd" clip-rule="evenodd" d="M21.612 11.376C21.8862 11.376 21.914 11.2842 22.0758 11.1472C22.2014 11.0407 22.494 10.9087 22.494 10.76C22.494 10.4198 22.0991 10.144 21.612 10.144C21.1249 10.144 20.73 10.4198 20.73 10.76C20.73 10.9257 20.9314 11.0365 21.0838 11.1472C21.2443 11.2638 21.3621 11.376 21.612 11.376Z" fill="#AD1619"/>
<path fill-rule="evenodd" clip-rule="evenodd" d="M20.478 18.992H22.746V19.888C22.746 19.888 22.4625 19.776 22.179 19.776C21.8955 19.776 21.612 19.888 21.612 19.888C21.612 19.888 21.3285 19.776 21.045 19.776C20.7615 19.776 20.478 19.888 20.478 19.888V18.992Z" fill="#005BBF"/>
<mask id="mask3_5_10057" style="mask-type:alpha" maskUnits="userSpaceOnUse" x="20" y="18" width="3" height="2">
<path fill-rule="evenodd" clip-rule="evenodd" d="M20.478 18.992H22.746V19.888C22.746 19.888 22.4625 19.776 22.179 19.776C21.8955 19.776 21.612 19.888 21.612 19.888C21.612 19.888 21.3285 19.776 21.045 19.776C20.7615 19.776 20.478 19.888 20.478 19.888V18.992Z" fill="white"/>
</mask>
<g mask="url(#mask3_5_10057)">
<path d="M20.4575 19.7119L20.408 19.6046C20.6122 19.5238 20.8172 19.4833 21.0226 19.4833C21.1552 19.4833 21.2245 19.4997 21.3422 19.5463C21.4457 19.5872 21.4993 19.5999 21.6124 19.5999C21.7255 19.5999 21.7791 19.5872 21.8826 19.5463C22.0003 19.4997 22.0696 19.4833 22.2022 19.4833C22.4075 19.4833 22.6125 19.5238 22.8168 19.6046L22.7673 19.7119C22.5784 19.6372 22.3901 19.5999 22.2022 19.5999C22.0891 19.5999 22.0355 19.6127 21.9321 19.6536C21.8143 19.7002 21.745 19.7166 21.6124 19.7166C21.4797 19.7166 21.4105 19.7002 21.2927 19.6536C21.1893 19.6127 21.1357 19.5999 21.0226 19.5999C20.8346 19.5999 20.6464 19.6372 20.4575 19.7119Z" fill="white"/>
<path d="M20.4575 19.3759L20.408 19.2686C20.6122 19.1878 20.8172 19.1473 21.0226 19.1473C21.1552 19.1473 21.2245 19.1637 21.3422 19.2103C21.4457 19.2512 21.4993 19.2639 21.6124 19.2639C21.7255 19.2639 21.7791 19.2512 21.8826 19.2103C22.0003 19.1637 22.0696 19.1473 22.2022 19.1473C22.4075 19.1473 22.6125 19.1878 22.8168 19.2686L22.7673 19.3759C22.5784 19.3012 22.3901 19.2639 22.2022 19.2639C22.0891 19.2639 22.0355 19.2767 21.9321 19.3176C21.8143 19.3642 21.745 19.3806 21.6124 19.3806C21.4797 19.3806 21.4105 19.3642 21.2927 19.3176C21.1893 19.2767 21.1357 19.2639 21.0226 19.2639C20.8346 19.2639 20.6464 19.3012 20.4575 19.3759Z" fill="white"/>
</g>
<path fill-rule="evenodd" clip-rule="evenodd" d="M8.61147 17.6799C8.83864 17.4351 8.96567 17.2124 8.96567 16.9759C8.96567 16.8267 8.91574 16.6979 8.82826 16.5927L8.84304 16.5868C8.84168 16.5873 9.09225 16.4902 9.17949 16.4531C9.34166 16.3839 9.48453 16.3107 9.62383 16.2207C9.71276 16.1632 9.83192 16.1006 10.0136 16.0139C10.0449 15.9989 10.1297 15.9589 10.1839 15.9333L10.1843 15.9332L10.1843 15.9331L10.2303 15.9114C10.3186 15.8695 10.3844 15.8375 10.4454 15.806C10.6358 15.7078 10.7615 15.6267 10.8577 15.5183C11.0856 15.2615 11.0383 14.9134 10.719 14.7202C10.5626 14.6255 10.3515 14.5712 10.0421 14.5284L9.97813 14.5196C9.87244 14.5051 9.66931 14.4772 9.59955 14.4674C9.45149 14.4468 9.31938 14.4275 9.20158 14.4092C9.97622 14.2946 11.0824 14.3367 11.5689 14.56L12.0314 13.7639C11.0398 13.3088 8.7807 13.3553 7.9368 13.8719C7.31783 14.2508 7.40089 14.8236 8.0449 15.0702C8.314 15.1733 8.66481 15.2417 9.31399 15.3344C9.2052 15.3905 9.115 15.4417 9.03097 15.496C8.94574 15.5511 8.85443 15.5979 8.74368 15.6451C8.6907 15.6677 8.53381 15.7289 8.46193 15.757L8.4258 15.7711C7.90123 15.9832 7.64665 16.2765 7.72272 16.8059L7.76391 17.0925L7.83777 17.1127L8.61147 17.6799ZM7.96302 16.9393L7.96143 16.9434L7.96265 16.9405L7.96302 16.9393ZM21.7942 16.9759C21.7942 17.2124 21.9212 17.4351 22.1484 17.6799L22.9221 17.1127L22.996 17.0925L23.0371 16.8059C23.1132 16.2765 22.8586 15.9832 22.3341 15.7711L22.298 15.757L22.2979 15.757C22.2261 15.7289 22.0692 15.6677 22.0162 15.6451C21.9054 15.5979 21.8141 15.5511 21.7289 15.496C21.6449 15.4417 21.5547 15.3905 21.4459 15.3344C22.095 15.2417 22.4459 15.1733 22.715 15.0702C23.359 14.8236 23.442 14.2508 22.8231 13.8719C21.9792 13.3553 19.72 13.3088 18.7285 13.7639L19.1909 14.56C19.6775 14.3367 20.7836 14.2946 21.5583 14.4092C21.4405 14.4275 21.3084 14.4468 21.1603 14.4674C21.0905 14.4772 20.8873 14.5051 20.7816 14.5196L20.7178 14.5284C20.4084 14.5712 20.1973 14.6255 20.0409 14.7202C19.7216 14.9134 19.6743 15.2615 19.9021 15.5183C19.9983 15.6267 20.1241 15.7078 20.3144 15.806C20.3755 15.8375 20.4412 15.8695 20.5295 15.9114L20.5756 15.9332L20.5761 15.9334C20.6304 15.959 20.715 15.9989 20.7463 16.0139C20.9279 16.1006 21.0471 16.1632 21.136 16.2207C21.2753 16.3107 21.4182 16.3839 21.5804 16.4531C21.6676 16.4902 21.9182 16.5873 21.9168 16.5868L21.9316 16.5927C21.8441 16.6979 21.7942 16.8267 21.7942 16.9759Z" fill="#AD1619"/>
<path d="M9.66381 14.4L10.0357 14.4684V14.9612C9.63961 15.2421 8.63403 15.7156 8.63403 15.7156V14.4H9.66381Z" fill="#F1F9FF"/>
<path d="M21.354 14.4L20.9821 14.4684V14.9612C21.3782 15.2421 22.3838 15.7156 22.3838 15.7156V14.4H21.354Z" fill="#F1F9FF"/>
<path fill-rule="evenodd" clip-rule="evenodd" d="M19.6232 9.20597V9.04198C18.9751 8.62854 18.2964 8.42181 17.5871 8.42181C16.9071 8.15434 16.2189 8.05051 15.5223 8.11034C15.5225 8.10843 15.5226 8.10745 15.5226 8.10745C14.4752 8.01636 13.4197 8.42181 13.4197 8.42181C12.3558 8.42181 11.3837 9.04198 11.3837 9.04198V9.20597L12.6545 10.3405C12.6545 10.3405 13.0122 11.4325 15.5174 11.1758V11.1786C15.5174 11.1786 17.1761 11.1384 17.2926 11.1039C17.3388 11.0902 17.3868 11.0778 17.4358 11.0651C17.7607 10.9808 18.1316 10.8845 18.3523 10.3405L19.6232 9.20597ZM15.5174 8.16046C15.4813 8.53806 15.2747 10.8152 15.5174 11.1682V8.16046Z" fill="#AD1619"/>
<path fill-rule="evenodd" clip-rule="evenodd" d="M12.3529 10.1496L12.3538 10.1461L11.4597 9.39843L11.5461 9.31686L12.385 10.0185L12.4065 9.93068C12.5437 9.95721 12.644 9.96696 12.7025 9.96144V9.80924L12.8885 9.8987C12.98 9.9427 13.111 9.95454 13.2835 9.92958C13.4102 9.91125 13.4957 9.78043 13.5237 9.50167L13.5801 8.9389L13.7695 9.47825C13.8551 9.72231 13.9858 9.8299 14.1719 9.8299C14.3537 9.8299 14.4267 9.77067 14.4348 9.62139L14.4576 9.19801L14.673 9.57617C14.7506 9.71241 14.8577 9.77422 15.0098 9.77422C15.2274 9.77422 15.3728 9.61294 15.3728 9.3599H15.3769H15.6248H15.6289C15.6289 9.61294 15.7743 9.77422 15.9919 9.77422C16.1441 9.77422 16.2511 9.71241 16.3287 9.57617L16.5441 9.19801L16.567 9.62139C16.575 9.77067 16.6481 9.8299 16.8298 9.8299C17.0159 9.8299 17.1466 9.72231 17.2323 9.47825L17.4216 8.9389L17.478 9.50167C17.506 9.78043 17.5915 9.91125 17.7182 9.92958C17.8908 9.95454 18.0218 9.9427 18.1132 9.8987L18.2992 9.80924V9.96144C18.3577 9.96696 18.458 9.95721 18.5952 9.93068L18.6351 10.0936L19.5639 9.31686L19.6502 9.39844L18.4945 10.365C18.3259 10.641 18.2409 10.8232 18.2409 10.8989C18.2409 11.0143 17.903 11.0828 17.2435 11.1532C16.7268 11.2084 16.117 11.2454 15.6182 11.2509V11.2516L15.5556 11.2515L15.4917 11.2516V11.2509C14.9929 11.2454 14.3831 11.2084 13.8664 11.1532C13.2069 11.0828 12.869 11.0143 12.869 10.8988C12.869 10.8845 12.8659 10.8664 12.8598 10.8445C12.7934 10.7693 12.7466 10.6461 12.7155 10.535C12.6863 10.4831 12.6529 10.4263 12.6154 10.3649L12.3594 10.1508L12.3529 10.1496ZM18.5466 10.1676C18.3402 10.2001 18.1912 10.1968 18.1121 10.1396C17.9884 10.1716 17.8434 10.1746 17.6778 10.1507C17.5009 10.1251 17.3777 10.0205 17.3036 9.847C17.2068 9.95659 17.0844 10.0242 16.9379 10.0461C17.7442 10.1478 18.309 10.2906 18.309 10.2906C18.309 10.2906 18.2951 10.3968 18.2612 10.5216C18.2971 10.4563 18.3395 10.3837 18.3886 10.3035L18.4008 10.2895L18.5466 10.1676ZM16.5574 10.0035C16.4873 9.97257 16.4313 9.92766 16.3908 9.86977C16.3307 9.91697 16.2623 9.95148 16.1863 9.97278C16.3131 9.98139 16.4371 9.99181 16.5574 10.0035ZM15.7416 9.95099C15.6434 9.91067 15.5618 9.84612 15.5009 9.7634C15.4403 9.84553 15.3595 9.90976 15.2622 9.95013C15.3198 9.9486 15.3778 9.94753 15.436 9.94695V9.94644L15.4865 9.94657L15.537 9.94644V9.94695C15.6056 9.94763 15.6738 9.949 15.7416 9.95099ZM12.7 10.2819L12.5825 10.1836C12.7235 10.196 12.8279 10.1843 12.8896 10.1396C13.0133 10.1716 13.1583 10.1746 13.324 10.1507C13.5009 10.1251 13.624 10.0205 13.6982 9.847C13.7921 9.95342 13.9102 10.0203 14.0512 10.0441C13.356 10.1309 12.8373 10.249 12.7 10.2819ZM14.8099 9.97122C14.6878 9.97928 14.5683 9.98903 14.4521 10C14.5186 9.96922 14.572 9.92551 14.6109 9.86977C14.6696 9.91583 14.7362 9.94982 14.8099 9.97122ZM17.9097 10.901C17.998 10.9378 18.0687 10.9011 18.1247 10.8308C18.1198 10.8502 18.1168 10.8678 18.1156 10.8835C18.1082 10.8878 18.0968 10.893 18.082 10.8986C18.0405 10.9141 17.9771 10.9306 17.8946 10.9473C17.7326 10.9802 17.5019 11.0128 17.2284 11.042C16.6948 11.099 16.0602 11.1365 15.5556 11.1394C15.0508 11.1365 14.4156 11.099 13.8815 11.042C13.6081 11.0128 13.3773 10.9802 13.2153 10.9473C13.1462 10.9333 13.0905 10.9194 13.0498 10.9062C13.0543 10.9046 13.0588 10.9029 13.0634 10.901C13.3386 10.7866 15.1587 10.6791 15.4865 10.6606C15.8143 10.6791 17.6344 10.7866 17.9097 10.901ZM18.2562 10.881C18.2559 10.8813 18.2556 10.8817 18.2552 10.8822L18.2561 10.8811L18.2562 10.881ZM18.2569 10.8805L18.2562 10.881L18.2569 10.8805Z" fill="#C88A02"/>
<path fill-rule="evenodd" clip-rule="evenodd" d="M15.5014 7.34708C15.7102 7.34708 15.8794 7.19665 15.8794 7.01108C15.8794 6.82551 15.7102 6.67508 15.5014 6.67508C15.2926 6.67508 15.1234 6.82551 15.1234 7.01108C15.1234 7.19665 15.2926 7.34708 15.5014 7.34708Z" fill="#005BBF"/>
<path fill-rule="evenodd" clip-rule="evenodd" d="M15.2554 8.99679C15.2635 9.03368 15.2761 9.06802 15.292 9.09863C15.2432 9.08204 15.1852 9.07243 15.123 9.07243C14.9491 9.07243 14.808 9.14765 14.808 9.24043C14.808 9.33322 14.9491 9.40843 15.123 9.40843C15.297 9.40843 15.438 9.33322 15.438 9.24043L15.4379 9.23528L15.4382 9.23539L15.4381 9.24043C15.4381 9.33322 15.5791 9.40843 15.7531 9.40843C15.9271 9.40843 16.0681 9.33322 16.0681 9.24043C16.0681 9.14765 15.9271 9.07243 15.7531 9.07243C15.7093 9.07243 15.6676 9.0772 15.6296 9.08583C15.6388 9.03989 15.6384 8.98721 15.6265 8.93268C15.5933 8.78088 15.4833 8.67217 15.3808 8.68988C15.2784 8.70758 15.2222 8.84499 15.2554 8.99679ZM13.4019 9.21062C13.386 9.18002 13.3734 9.14569 13.3654 9.10882C13.3322 8.95702 13.3883 8.81961 13.4908 8.80191C13.5932 8.7842 13.7032 8.89291 13.7364 9.04471C13.7483 9.09923 13.7487 9.15189 13.7396 9.19782C13.7775 9.1892 13.8192 9.18443 13.863 9.18443C14.037 9.18443 14.178 9.25965 14.178 9.35243C14.178 9.44522 14.037 9.52043 13.863 9.52043C13.6891 9.52043 13.548 9.44522 13.548 9.35243L13.5482 9.34741L13.5478 9.34731L13.548 9.35243C13.548 9.44522 13.4069 9.52043 13.233 9.52043C13.059 9.52043 12.918 9.44522 12.918 9.35243C12.918 9.25965 13.059 9.18443 13.233 9.18443C13.2951 9.18443 13.3531 9.19404 13.4019 9.21062ZM17.3483 9.31298C17.3337 9.40486 17.1823 9.4619 17.01 9.44038C16.8377 9.41886 16.7099 9.32693 16.7244 9.23504C16.7389 9.14316 16.8903 9.08613 17.0626 9.10765C17.1241 9.11533 17.18 9.13199 17.2257 9.15441C17.2147 9.12216 17.2076 9.08663 17.2054 9.04914C17.1963 8.89471 17.2734 8.76559 17.3777 8.76073C17.4819 8.75587 17.5738 8.87713 17.5829 9.03155C17.5862 9.08703 17.5783 9.13923 17.5621 9.18359C17.601 9.17973 17.6431 9.18017 17.6865 9.18559C17.8588 9.20711 17.9867 9.29904 17.9721 9.39092C17.9576 9.4828 17.8062 9.53984 17.6339 9.51832C17.4616 9.4968 17.3337 9.40487 17.3483 9.31299L17.3492 9.30806L17.3489 9.30794L17.3483 9.31298ZM18.5479 9.75724C18.7015 9.82984 18.8658 9.82228 18.9148 9.74036L18.9174 9.73578C18.9325 9.75002 18.9504 9.76038 18.9708 9.76594C19.0707 9.79307 19.1928 9.69517 19.2437 9.54729C19.2945 9.39941 19.2549 9.25753 19.155 9.23041C19.0552 9.20328 18.9331 9.30117 18.8822 9.44905C18.8698 9.48497 18.8628 9.52053 18.8607 9.55419C18.8264 9.51918 18.7803 9.48651 18.7254 9.46057C18.5718 9.38797 18.4075 9.39553 18.3585 9.47745C18.3095 9.55938 18.3943 9.68464 18.5479 9.75724ZM12.3655 9.79154C12.2119 9.86414 12.0476 9.85658 11.9986 9.77466C11.9977 9.77315 11.9969 9.77162 11.9961 9.77009C11.9809 9.78432 11.963 9.79469 11.9426 9.80024C11.8428 9.82737 11.7206 9.72948 11.6697 9.58159C11.6189 9.43371 11.6586 9.29184 11.7584 9.26471C11.8582 9.23758 11.9804 9.33547 12.0312 9.48336C12.0436 9.51927 12.0506 9.55484 12.0527 9.58849C12.087 9.55348 12.1331 9.52081 12.188 9.49487C12.3416 9.42227 12.5059 9.42983 12.5549 9.51175C12.6039 9.59368 12.5191 9.71894 12.3655 9.79154Z" fill="#C88A02"/>
<path fill-rule="evenodd" clip-rule="evenodd" d="M15.3602 6.0766H15.6227V6.224H15.7942V6.45734H15.6227V6.924H15.7942V7.15734H15.186V6.924H15.3602V6.45734H15.186V6.224H15.3602V6.0766Z" fill="#C88A02"/>
<rect x="15.3121" y="7.34399" width="0.504" height="1.456" fill="#C88A02"/>
<path d="M13.2832 7.58782L13.281 7.6998C12.1638 7.68247 11.5229 7.82739 11.3602 8.11624C11.192 8.41487 11.2233 8.77789 11.459 9.20912L11.3456 9.25806C11.0942 8.79796 11.0599 8.39937 11.2475 8.06611C11.4407 7.72306 12.1187 7.56975 13.2832 7.58782Z" fill="white"/>
<path d="M13.4995 8.58098L13.4349 8.67714C13.1916 8.54801 13.0698 8.32763 13.0698 8.02393C13.0698 7.58745 13.3228 7.3315 13.8823 7.15634C14.2394 7.04455 14.7272 7.09038 15.3471 7.29016L15.3042 7.39545C14.7091 7.20367 14.2486 7.16041 13.9242 7.26198C13.4109 7.42264 13.1958 7.64031 13.1958 8.02393C13.1958 8.29044 13.297 8.47349 13.4995 8.58098Z" fill="white"/>
<path d="M11.6177 9.03739L11.3799 9.11162C11.1332 8.48727 11.2037 8.06326 11.6252 7.88035C11.9966 7.71918 12.538 7.65359 13.2519 7.67931L13.2417 7.90313C12.5657 7.87878 12.0629 7.93971 11.7357 8.08165C11.4587 8.20185 11.408 8.50684 11.6177 9.03739Z" fill="#C88A02"/>
<path d="M14.3955 7.43869C13.8194 7.43869 13.5828 7.56343 13.4476 7.93171C13.3615 8.16641 13.445 8.36673 13.7159 8.55371L13.5613 8.73063C13.2106 8.48855 13.087 8.19207 13.208 7.86224C13.3803 7.39289 13.7183 7.21469 14.3955 7.21469C14.8394 7.21469 15.1852 7.31835 15.4259 7.52931L15.4635 7.56221V8.64217H15.2115V7.65795C15.0234 7.51277 14.7534 7.43869 14.3955 7.43869Z" fill="#C88A02"/>
<path d="M17.6803 7.69982L17.6825 7.8118C18.7997 7.79447 19.4406 7.93939 19.6033 8.22824C19.7715 8.52687 19.7402 8.88989 19.5045 9.32112L19.6179 9.37006C19.8693 8.90996 19.9036 8.51137 19.716 8.17811C19.5228 7.83506 18.8448 7.68175 17.6803 7.69982Z" fill="white"/>
<path d="M17.2857 8.60426L17.3503 8.70043C17.5936 8.57129 17.7153 8.35092 17.7153 8.04722C17.7153 7.61074 17.4624 7.35478 16.9029 7.17962C16.5458 7.06783 16.058 7.11367 15.4381 7.31345L15.481 7.41874C16.0761 7.22696 16.5365 7.18369 16.861 7.28526C17.3742 7.44592 17.5893 7.6636 17.5893 8.04722C17.5893 8.31373 17.4882 8.49677 17.2857 8.60426Z" fill="white"/>
<path d="M19.4242 9.14939L19.662 9.22362C19.9087 8.59927 19.8382 8.17526 19.4167 7.99235C19.0452 7.83118 18.5039 7.76559 17.79 7.79131L17.8002 8.01513C18.4761 7.99078 18.979 8.05171 19.3061 8.19365C19.5832 8.31385 19.6338 8.61884 19.4242 9.14939Z" fill="#C88A02"/>
<path d="M16.6321 7.45599C17.2082 7.45599 17.4448 7.58073 17.58 7.94902C17.6661 8.18372 17.5826 8.38403 17.3117 8.57102L17.4663 8.74794C17.817 8.50586 17.9406 8.20937 17.8196 7.87954C17.6473 7.41019 17.3093 7.23199 16.6321 7.23199C16.1882 7.23199 15.8424 7.33565 15.6017 7.54661L15.5641 7.57951V8.65948H15.8161V7.67525C16.0041 7.53008 16.2742 7.45599 16.6321 7.45599Z" fill="#C88A02"/>
<path opacity="0.3" fill-rule="evenodd" clip-rule="evenodd" d="M11.406 11.264H19.596V17.8048C19.596 17.8048 18.9876 20 15.501 20C12.0144 20 11.406 17.747 11.406 17.747V11.264Z" fill="#E1E5E8"/>
<mask id="mask4_5_10057" style="mask-type:alpha" maskUnits="userSpaceOnUse" x="11" y="11" width="9" height="9">
<path fill-rule="evenodd" clip-rule="evenodd" d="M11.406 11.264H19.596V17.8048C19.596 17.8048 18.9876 20 15.501 20C12.0144 20 11.406 17.747 11.406 17.747V11.264Z" fill="white"/>
</mask>
<g mask="url(#mask4_5_10057)">
<rect x="11.406" y="15.296" width="4.158" height="4.368" fill="#FFC034"/>
<rect x="11.91" y="15.52" width="0.504" height="4.144" fill="#AD1619"/>
<rect x="13.6741" y="15.52" width="0.504" height="4.144" fill="#AD1619"/>
<rect x="12.7921" y="15.52" width="0.504" height="4.144" fill="#AD1619"/>
<rect x="14.5562" y="15.52" width="0.504" height="4.144" fill="#AD1619"/>
<rect x="11.406" y="11.152" width="4.158" height="4.256" fill="#AD1619"/>
<rect x="15.438" y="15.184" width="4.158" height="4.256" fill="#AD1619"/>
<rect x="15.438" y="11.264" width="4.41" height="4.144" fill="#F1F9FF"/>
<path fill-rule="evenodd" clip-rule="evenodd" d="M13.1702 11.6H13.5482V12.5292H13.8001V12.0646H14.1781V12.5292H14.5561V13.1099H14.1782V14.1553H14.5561V14.736H12.2881V14.1553H12.6662V13.1099H12.2881V12.5292H12.5401V12.0646H12.9181V12.5292H13.1702V11.6Z" fill="#C88A02"/>
<path d="M17.6012 11.795L17.8592 11.5495L18.401 11.9993L18.1429 12.2449L17.6012 11.795Z" fill="#C88A02"/>
<path fill-rule="evenodd" clip-rule="evenodd" d="M19.1551 18.1401V15.688H16.0051V18.1196L16.0101 18.1385C16.1696 18.7425 16.7126 19.048 17.5801 19.048C18.4468 19.048 18.9898 18.7503 19.1499 18.1595L19.1551 18.1401ZM17.5801 18.712C16.8841 18.712 16.504 18.5036 16.3831 18.0799V16.024H18.7771V18.0994C18.6566 18.5092 18.2764 18.712 17.5801 18.712Z" fill="#FFC034"/>
<path fill-rule="evenodd" clip-rule="evenodd" d="M17.7101 15.8929H17.4476V17.0046L16.4128 16.0042L16.2273 16.1558L17.1631 17.0605H16.3152V17.3965H16.9665H17.1837L16.2273 18.3212L16.4128 18.4728L17.4476 17.4724V18.7718H17.7101V17.5893L18.6239 18.4728L18.8095 18.3212L17.853 17.3965H18.9205V17.0605H17.8736L18.8095 16.1558L18.624 16.0042L17.7101 16.8877V15.8929Z" fill="#FFC034"/>
<path fill-rule="evenodd" clip-rule="evenodd" d="M18.1682 19.4427C18.1682 19.4427 15.4995 19.6292 15.4995 18.0992C15.4995 18.0992 15.474 19.4427 12.6874 19.4427V20.6505H18.1682V19.4427Z" fill="#F1F9FF"/>
<path fill-rule="evenodd" clip-rule="evenodd" d="M15.5012 16.192C16.0231 16.192 16.4462 15.7908 16.4462 15.296C16.4462 14.8011 16.0231 14.4 15.5012 14.4C14.9792 14.4 14.5562 14.8011 14.5562 15.296C14.5562 15.7908 14.9792 16.192 15.5012 16.192Z" fill="#005BBF" stroke="#AD1619" stroke-width="1.16667"/>
</g>
</g>
</g>
</g>
<defs>
<filter id="filter0_dd_5_10057" x="0" y="0" width="42" height="30" filterUnits="userSpaceOnUse" color-interpolation-filters="sRGB">
<feFlood flood-opacity="0" result="BackgroundImageFix"/>
<feColorMatrix in="SourceAlpha" type="matrix" values="0 0 0 0 0 0 0 0 0 0 0 0 0 0 0 0 0 0 127 0" result="hardAlpha"/>
<feOffset dy="1"/>
<feGaussianBlur stdDeviation="1"/>
<feColorMatrix type="matrix" values="0 0 0 0 0.0627451 0 0 0 0 0.0941176 0 0 0 0 0.156863 0 0 0 0.06 0"/>
<feBlend mode="normal" in2="BackgroundImageFix" result="effect1_dropShadow_5_10057"/>
<feColorMatrix in="SourceAlpha" type="matrix" values="0 0 0 0 0 0 0 0 0 0 0 0 0 0 0 0 0 0 127 0" result="hardAlpha"/>
<feOffset dy="1"/>
<feGaussianBlur stdDeviation="1.5"/>
<feColorMatrix type="matrix" values="0 0 0 0 0.0627451 0 0 0 0 0.0941176 0 0 0 0 0.156863 0 0 0 0.1 0"/>
<feBlend mode="normal" in2="effect1_dropShadow_5_10057" result="effect2_dropShadow_5_10057"/>
<feBlend mode="normal" in="SourceGraphic" in2="effect2_dropShadow_5_10057" result="shape"/>
</filter>
</defs>
</svg>
