<svg width="42" height="30" viewBox="0 0 42 30" fill="none" xmlns="http://www.w3.org/2000/svg">
<g filter="url(#filter0_dd_5_10513)">
<mask id="mask0_5_10513" style="mask-type:alpha" maskUnits="userSpaceOnUse" x="3" y="2" width="36" height="24">
<rect x="3" y="2" width="36" height="24" fill="white"/>
</mask>
<g mask="url(#mask0_5_10513)">
<path fill-rule="evenodd" clip-rule="evenodd" d="M3 2H39V26H3V2Z" fill="#5EAA22"/>
<path fill-rule="evenodd" clip-rule="evenodd" d="M3 2L39 26H3V2Z" fill="#4141DB"/>
<path fill-rule="evenodd" clip-rule="evenodd" d="M9.75 11L8.625 11.7321L8.77572 10.5L7.5 10L8.77572 9.5L8.625 8.26795L9.75 9L10.875 8.26795L10.7243 9.5L12 10L10.7243 10.5L10.875 11.7321L9.75 11Z" fill="white"/>
<path fill-rule="evenodd" clip-rule="evenodd" d="M7.5 17L6.375 17.7321L6.52572 16.5L5.25 16L6.52572 15.5L6.375 14.2679L7.5 15L8.625 14.2679L8.47428 15.5L9.75 16L8.47428 16.5L8.625 17.7321L7.5 17Z" fill="white"/>
<path fill-rule="evenodd" clip-rule="evenodd" d="M12 23L10.875 23.7321L11.0257 22.5L9.75 22L11.0257 21.5L10.875 20.2679L12 21L13.125 20.2679L12.9743 21.5L14.25 22L12.9743 22.5L13.125 23.7321L12 23Z" fill="white"/>
<path fill-rule="evenodd" clip-rule="evenodd" d="M13.125 13.5L12.5625 13.866L12.6379 13.25L12 13L12.6379 12.75L12.5625 12.134L13.125 12.5L13.6875 12.134L13.6121 12.75L14.25 13L13.6121 13.25L13.6875 13.866L13.125 13.5Z" fill="white"/>
<path fill-rule="evenodd" clip-rule="evenodd" d="M27.2562 14.2239C26.8357 13.8339 30.6202 12.9176 31.0125 11.7361C31.5323 10.7074 31.185 9.87386 29.2206 9.14181C27.2562 8.40976 25.2709 6.99428 27.5538 6.99428C29.8367 6.99428 29.8367 7.28361 30.45 8.13711C31.0633 8.99061 32.3889 9.17344 32.417 8.13711C32.417 6.37132 32.6045 6.13382 31.0008 4.59866C29.3972 3.06349 35.0221 5.22909 34.5572 7.86088C34.0923 10.4927 33.5326 9.64345 33.8879 10.0852C34.2432 10.527 36.3812 9.15563 36.1142 10.9824C35.3663 12.0331 33.8828 13.5963 27.2562 14.2239Z" fill="#FECA00"/>
<path fill-rule="evenodd" clip-rule="evenodd" d="M21 19C24.1066 19 26.625 16.7614 26.625 14C26.625 11.2386 24.1066 9 21 9C17.8934 9 15.375 11.2386 15.375 14C15.375 16.7614 17.8934 19 21 19Z" fill="#FECA00"/>
<path fill-rule="evenodd" clip-rule="evenodd" d="M17.572 12.162C18.21 12.0356 19.0825 13.5543 20.6572 12.9847C22.2319 12.4151 22.5607 11.3276 23.3089 11.7256C24.0571 12.1236 24.1553 13.0819 23.6569 13.5635C23.1585 14.0452 22.3127 14.1591 22.3127 14.7679C22.3127 15.3766 22.1469 17.5475 21.8237 16.9184C20.8544 16.2193 21.4457 15.1059 20.2518 14.7679C19.0579 14.4299 18.3328 14.4412 17.4521 14.5838C16.5713 14.7265 18.0437 14.192 18.356 13.6846C18.9918 13.1409 17.2803 12.3428 17.572 12.162Z" fill="#548650"/>
</g>
</g>
<defs>
<filter id="filter0_dd_5_10513" x="0" y="0" width="42" height="30" filterUnits="userSpaceOnUse" color-interpolation-filters="sRGB">
<feFlood flood-opacity="0" result="BackgroundImageFix"/>
<feColorMatrix in="SourceAlpha" type="matrix" values="0 0 0 0 0 0 0 0 0 0 0 0 0 0 0 0 0 0 127 0" result="hardAlpha"/>
<feOffset dy="1"/>
<feGaussianBlur stdDeviation="1"/>
<feColorMatrix type="matrix" values="0 0 0 0 0.0627451 0 0 0 0 0.0941176 0 0 0 0 0.156863 0 0 0 0.06 0"/>
<feBlend mode="normal" in2="BackgroundImageFix" result="effect1_dropShadow_5_10513"/>
<feColorMatrix in="SourceAlpha" type="matrix" values="0 0 0 0 0 0 0 0 0 0 0 0 0 0 0 0 0 0 127 0" result="hardAlpha"/>
<feOffset dy="1"/>
<feGaussianBlur stdDeviation="1.5"/>
<feColorMatrix type="matrix" values="0 0 0 0 0.0627451 0 0 0 0 0.0941176 0 0 0 0 0.156863 0 0 0 0.1 0"/>
<feBlend mode="normal" in2="effect1_dropShadow_5_10513" result="effect2_dropShadow_5_10513"/>
<feBlend mode="normal" in="SourceGraphic" in2="effect2_dropShadow_5_10513" result="shape"/>
</filter>
</defs>
</svg>
