<svg width="42" height="30" viewBox="0 0 42 30" fill="none" xmlns="http://www.w3.org/2000/svg">
<g filter="url(#filter0_dd_5_6665)">
<mask id="mask0_5_6665" style="mask-type:alpha" maskUnits="userSpaceOnUse" x="3" y="2" width="36" height="24">
<rect x="3" y="2" width="36" height="24" fill="white"/>
</mask>
<g mask="url(#mask0_5_6665)">
<path fill-rule="evenodd" clip-rule="evenodd" d="M3 2V26H39V2H3Z" fill="#F7FCFF"/>
<mask id="mask1_5_6665" style="mask-type:alpha" maskUnits="userSpaceOnUse" x="3" y="2" width="36" height="24">
<path fill-rule="evenodd" clip-rule="evenodd" d="M3 2V26H39V2H3Z" fill="white"/>
</mask>
<g mask="url(#mask1_5_6665)">
<path fill-rule="evenodd" clip-rule="evenodd" d="M3 14V26H39V14H3Z" fill="#56C6F5"/>
<path fill-rule="evenodd" clip-rule="evenodd" d="M14.5359 11.0281C14.5275 10.9438 14.5076 10.8708 14.4733 10.8139C14.1843 10.3352 14.2777 9.73612 14.2777 9.73612C14.2777 9.73612 13.9326 10.4377 13.7301 11.0982C13.5173 10.7906 13.4429 10.4824 13.4429 10.4824C13.4429 10.4824 13.3051 12.42 13.7263 12.8791C14.1474 13.3382 14.4282 13.5399 14.4282 13.5399C14.4282 13.5399 14.4601 12.7354 14.3374 12.1062C14.4239 11.8437 14.5018 11.5561 14.5297 11.3085C14.5851 11.272 14.7307 11.1748 14.913 11.0427C14.8362 11.4195 14.8323 11.6242 14.8323 11.6242C14.8323 11.6242 16.4192 10.6 16.4596 10.0579C16.4999 9.51575 16.9362 9.0517 16.9362 9.0517C16.9362 9.0517 16.5754 9.27119 16.1634 9.5655C16.2723 9.11041 16.6095 8.75171 16.6095 8.75171C16.6095 8.75171 14.807 9.84811 14.6593 10.4257C14.5951 10.6768 14.5577 10.8793 14.5359 11.0281ZM14.6131 14.3588C14.4402 14.0686 13.6882 12.8529 13.1636 12.7471C12.5675 12.6269 12.1201 12.1712 12.1201 12.1712C12.1201 12.1712 13.0564 13.9252 13.6752 14.1453C14.172 14.3219 14.4991 14.3925 14.6088 14.4134C14.5907 14.6499 14.5876 14.8133 14.5876 14.8133C14.5876 14.8133 14.8798 14.6249 15.3274 14.186C15.775 13.7471 15.7515 11.8058 15.7515 11.8058C15.7515 11.8058 15.5741 12.3897 15.0977 12.73C14.7781 12.9583 14.6577 13.8177 14.6131 14.3588ZM13.2052 14.1753C13.8862 14.1718 14.9338 15.6561 14.9338 15.6561C14.9338 15.6561 14.528 15.6758 13.819 15.5763C13.11 15.4767 12.0049 13.7854 12.0049 13.7854C12.0049 13.7854 12.5243 14.1789 13.2052 14.1753ZM16.5248 17.6323C16.5248 17.6323 16.9289 15.7408 16.3221 15.2999C15.7153 14.859 15.6082 14.2 15.6082 14.2C15.6082 14.2 15.0692 16.2975 15.6082 16.8407C16.1473 17.3839 16.5248 17.6323 16.5248 17.6323ZM14.0764 17.1216C14.4727 17.5392 15.7352 17.1216 15.7352 17.1216C15.7352 17.1216 16.0133 17.3462 15.0121 16.5328C14.0109 15.7194 11.9736 16.2331 12.5219 16.2331C13.0702 16.2331 13.6802 16.704 14.0764 17.1216ZM15.0121 19.3419C15.7466 19.8949 17.3338 18.5801 17.3338 18.5801C17.3338 18.5801 16.9252 18.1403 16.1679 17.8161C15.4107 17.4919 12.6173 17.8161 12.6173 17.8161L13.8604 18.3079C13.8604 18.3079 12.4766 18.789 12.8439 18.7621C13.2112 18.7353 14.2775 18.789 15.0121 19.3419Z" fill="#006923"/>
<path fill-rule="evenodd" clip-rule="evenodd" d="M24.6151 18.1965C24.6151 18.1965 23.9835 17.2531 24.6151 16.7974C25.2466 16.3416 25.4966 16.6447 25.4966 16.1208C25.4966 15.5968 25.5605 15.7528 25.8708 15.4927C26.1811 15.2325 25.9612 14.6007 26.3768 14.9166C26.7924 15.2325 26.87 14.6267 26.87 15.8852C26.87 17.1437 26.87 14.7438 26.87 14.037C26.87 13.3301 26.3768 13.4975 26.3768 13.0234C26.3768 12.5494 25.8836 11.8415 26.3768 11.8415C26.87 11.8415 27.1599 12.3682 27.1599 12.3682C27.1599 12.3682 27.6445 13.1023 27.6445 12.3682C27.6445 11.634 26.7817 11.8523 26.3768 11.0421C25.9719 10.232 26.0359 11.133 25.4966 10.0891C24.9573 9.04517 24.3152 8.71391 24.9059 8.71391C25.4966 8.71391 25.3647 8.71391 25.8708 8.71391C26.3768 8.71391 27.1599 8.34028 27.1599 8.71391C27.1599 9.08753 27.1599 8.91632 27.1599 9.50271C27.1599 10.0891 27.6445 10.0891 27.6445 10.0891C27.6445 10.0891 27.908 8.91632 28.2389 9.50271C28.5698 10.0891 28.3445 11.0421 28.5867 11.0421C28.8289 11.0421 28.6284 10.0572 29.1573 10.8116C29.6862 11.566 29.1573 12.0772 29.1573 12.3682C29.1573 12.6592 28.5867 13.3722 28.5867 13.3722C28.5867 13.3722 28.6981 13.7209 29.1573 13.3722C29.6165 13.0234 30.0522 12.6747 30.0522 13.0234C30.0522 13.3722 30.947 13.4805 30.0522 14.037C29.1573 14.5934 29.7279 15.1506 29.1573 15.1506C28.5867 15.1506 27.9143 15.8852 27.6445 15.8852C27.3746 15.8852 26.3654 16.4477 26.87 16.4477C27.3746 16.4477 27.8911 15.3227 28.2389 15.8852C28.5867 16.4477 28.5821 15.7939 28.8697 16.1208C29.1573 16.4477 29.4449 18.2214 29.1573 17.5094C28.8697 16.7974 28.4189 16.7974 27.6445 16.7974C26.87 16.7974 25.3647 16.8488 25.8708 17.1791C26.3768 17.5094 26.9452 16.8488 27.1599 17.1791C27.3746 17.5094 27.3122 17.8397 27.6445 17.5094C27.9768 17.1791 28.3036 17.5094 28.5867 17.5094C28.8697 17.5094 28.3036 17.8791 28.5867 18.1965C28.8697 18.5138 29.5005 18.9366 28.8697 18.9366C28.2389 18.9366 27.9143 18.4883 27.6445 18.9366C27.3746 19.3849 27.3632 20.1635 26.87 19.5501C26.3768 18.9366 25.4966 19.248 25.4966 18.9366C25.4966 18.6252 25.6891 18.5749 25.1521 18.5749C24.6151 18.5749 24.6151 18.1965 24.6151 18.1965Z" fill="#009933"/>
<path fill-rule="evenodd" clip-rule="evenodd" d="M27.2056 11.4501C27.2056 11.5881 27.0838 11.7001 26.9334 11.7001C26.7831 11.7001 26.6613 11.5881 26.6613 11.4501C26.6613 11.312 26.7831 11.2001 26.9334 11.2001C27.0838 11.2001 27.2056 11.312 27.2056 11.4501ZM14.6311 12.0001C14.7814 12.0001 14.9032 11.8881 14.9032 11.7501C14.9032 11.612 14.7814 11.5001 14.6311 11.5001C14.4807 11.5001 14.3589 11.612 14.3589 11.7501C14.3589 11.8881 14.4807 12.0001 14.6311 12.0001ZM14.9032 13.0501C14.9032 13.1881 14.7814 13.3001 14.6311 13.3001C14.4807 13.3001 14.3589 13.1881 14.3589 13.0501C14.3589 12.912 14.4807 12.8001 14.6311 12.8001C14.7814 12.8001 14.9032 12.912 14.9032 13.0501ZM15.0665 15.6001C15.2169 15.6001 15.3387 15.4882 15.3387 15.3501C15.3387 15.212 15.2169 15.1001 15.0665 15.1001C14.9162 15.1001 14.7944 15.212 14.7944 15.3501C14.7944 15.4882 14.9162 15.6001 15.0665 15.6001ZM17.244 18.1001C17.3944 18.1001 17.5162 17.9882 17.5162 17.8501C17.5162 17.712 17.3944 17.6001 17.244 17.6001C17.0937 17.6001 16.9719 17.712 16.9719 17.8501C16.9719 17.9882 17.0937 18.1001 17.244 18.1001ZM27.6956 14.3C27.8459 14.3 27.9678 14.1881 27.9678 14.05C27.9678 13.912 27.8459 13.8 27.6956 13.8C27.5453 13.8 27.4234 13.912 27.4234 14.05C27.4234 14.1881 27.5453 14.3 27.6956 14.3ZM27.0968 16.05C27.0968 16.1881 26.975 16.3 26.8247 16.3C26.6743 16.3 26.5525 16.1881 26.5525 16.05C26.5525 15.912 26.6743 15.8 26.8247 15.8C26.975 15.8 27.0968 15.912 27.0968 16.05ZM24.5383 18.5001C24.6886 18.5001 24.8105 18.3881 24.8105 18.2501C24.8105 18.112 24.6886 18.0001 24.5383 18.0001C24.388 18.0001 24.2661 18.112 24.2661 18.2501C24.2661 18.3881 24.388 18.5001 24.5383 18.5001ZM17.625 18.55C17.625 18.6881 17.5031 18.8 17.3528 18.8C17.2025 18.8 17.0806 18.6881 17.0806 18.55C17.0806 18.412 17.2025 18.3 17.3528 18.3C17.5031 18.3 17.625 18.412 17.625 18.55Z" fill="#C51918"/>
<path fill-rule="evenodd" clip-rule="evenodd" d="M23.2926 21.8199C23.2926 21.615 19.8045 19.4782 18.8682 19.0069C17.932 18.5356 13.3602 15.9416 14.6053 12.0002H14.4169C14.4169 12.0002 13.5743 16.8567 19.3793 19.8755C22.0225 21.4516 22.1541 21.8199 22.1541 21.8199C22.1541 21.8199 23.2926 22.0247 23.2926 21.8199Z" fill="#FECA00"/>
<path fill-rule="evenodd" clip-rule="evenodd" d="M18.665 21.8199C18.665 21.615 22.1531 19.4782 23.0893 19.0069C24.0255 18.5356 28.5973 15.9416 27.3523 12.0002H27.5407C27.5407 12.0002 28.3832 16.8567 22.5782 19.8755C19.935 21.4516 19.8035 21.8199 19.8035 21.8199C19.8035 21.8199 18.665 22.0247 18.665 21.8199Z" fill="#FECA00"/>
<path fill-rule="evenodd" clip-rule="evenodd" d="M21.0545 18.8858C23.4897 18.8858 25.4638 16.0839 25.4638 13.3501C25.4638 10.6163 23.4897 9.20007 21.0545 9.20007C18.6194 9.20007 16.6453 10.6163 16.6453 13.3501C16.6453 16.0839 18.6194 18.8858 21.0545 18.8858Z" fill="#56C6F5"/>
<path fill-rule="evenodd" clip-rule="evenodd" d="M19.1025 11.5389C19.1025 11.5389 19.7816 11.0065 19.4421 11.0065C19.3762 11.0065 19.296 10.995 19.2096 10.9827C18.8503 10.9315 18.3824 10.8648 18.3824 11.5389V12.6973L18.3822 12.7H18.2694C18.2142 12.7 18.1694 12.7448 18.1694 12.8C18.1694 12.8552 18.2142 12.9 18.2694 12.9H18.3701C18.355 13.1475 18.3284 13.5875 18.3022 14.0272L18.1602 14.0383C18.101 14.0429 18.0577 14.0945 18.0635 14.1536L18.0719 14.2385C18.0777 14.2976 18.1304 14.3418 18.1896 14.3372L18.2843 14.3298C18.2541 14.8436 18.2286 15.2933 18.2286 15.3483C18.2286 15.4835 19.2617 15.4312 19.2617 15.4312C19.2617 15.4312 19.2296 14.8891 19.1942 14.259L19.2767 14.2526C19.3359 14.248 19.3792 14.1964 19.3733 14.1373L19.365 14.0524C19.3592 13.9933 19.3065 13.9492 19.2473 13.9538L19.1775 13.9592C19.1566 13.5818 19.1362 13.1987 19.122 12.9H19.267C19.3222 12.9 19.367 12.8552 19.367 12.8C19.367 12.7448 19.3222 12.7 19.267 12.7H19.1128C19.1064 12.5507 19.1025 12.4386 19.1025 12.382V11.5389Z" fill="white"/>
<path fill-rule="evenodd" clip-rule="evenodd" d="M18.6047 13H18.9676V13.4301H18.6047V13Z" fill="black"/>
<path fill-rule="evenodd" clip-rule="evenodd" d="M18.4961 14.5H19.1009V15.5H18.4961V14.5Z" fill="black"/>
<path fill-rule="evenodd" clip-rule="evenodd" d="M21.3887 11.5389C21.3887 11.5389 22.0677 11.0065 21.7282 11.0065C21.6623 11.0065 21.5822 10.995 21.4957 10.9827C21.1364 10.9315 20.6685 10.8648 20.6685 11.5389V12.6973L20.6684 12.7H20.5556C20.5003 12.7 20.4556 12.7448 20.4556 12.8C20.4556 12.8552 20.5003 12.9 20.5556 12.9H20.6562C20.6412 13.1475 20.6145 13.5875 20.5884 14.0272L20.4463 14.0383C20.3871 14.0429 20.3438 14.0945 20.3496 14.1536L20.358 14.2385C20.3638 14.2976 20.4165 14.3418 20.4757 14.3372L20.5705 14.3298C20.5402 14.8436 20.5148 15.2933 20.5148 15.3483C20.5148 15.4835 21.5478 15.4312 21.5478 15.4312C21.5478 15.4312 21.5157 14.8891 21.4803 14.259L21.5628 14.2526C21.622 14.248 21.6653 14.1964 21.6595 14.1373L21.6511 14.0524C21.6453 13.9933 21.5926 13.9492 21.5334 13.9538L21.4636 13.9592C21.4427 13.5818 21.4223 13.1987 21.4081 12.9H21.5531C21.6084 12.9 21.6531 12.8552 21.6531 12.8C21.6531 12.7448 21.6084 12.7 21.5531 12.7H21.3989C21.3925 12.5507 21.3887 12.4386 21.3887 12.382V11.5389Z" fill="white"/>
<path fill-rule="evenodd" clip-rule="evenodd" d="M20.8909 13H21.2538V13.4301H20.8909V13Z" fill="black"/>
<path fill-rule="evenodd" clip-rule="evenodd" d="M20.7822 14.5H21.3871V15.5H20.7822V14.5Z" fill="black"/>
<path fill-rule="evenodd" clip-rule="evenodd" d="M23.5662 11.5389C23.5662 11.5389 24.2452 11.0065 23.9057 11.0065C23.8398 11.0065 23.7597 10.995 23.6732 10.9827C23.3139 10.9315 22.846 10.8648 22.846 11.5389V12.6973L22.8459 12.7H22.7331C22.6778 12.7 22.6331 12.7448 22.6331 12.8C22.6331 12.8552 22.6778 12.9 22.7331 12.9H22.8337C22.8186 13.1475 22.792 13.5875 22.7659 14.0272L22.6238 14.0383C22.5646 14.0429 22.5213 14.0945 22.5271 14.1536L22.5355 14.2385C22.5413 14.2976 22.594 14.3418 22.6532 14.3372L22.748 14.3298C22.7177 14.8436 22.6922 15.2933 22.6922 15.3483C22.6922 15.4835 23.7253 15.4312 23.7253 15.4312C23.7253 15.4312 23.6932 14.8891 23.6578 14.259L23.7403 14.2526C23.7995 14.248 23.8428 14.1964 23.837 14.1373L23.8286 14.0524C23.8228 13.9933 23.7701 13.9492 23.7109 13.9538L23.6411 13.9592C23.6202 13.5818 23.5998 13.1987 23.5856 12.9H23.7306C23.7859 12.9 23.8306 12.8552 23.8306 12.8C23.8306 12.7448 23.7859 12.7 23.7306 12.7H23.5764C23.57 12.5507 23.5662 12.4386 23.5662 12.382V11.5389Z" fill="white"/>
<path fill-rule="evenodd" clip-rule="evenodd" d="M23.0684 13H23.4313V13.4301H23.0684V13Z" fill="black"/>
<path fill-rule="evenodd" clip-rule="evenodd" d="M22.9597 14.5H23.5646V15.5H22.9597V14.5Z" fill="black"/>
<path fill-rule="evenodd" clip-rule="evenodd" d="M23.8306 8.40015H18.0604V9.1658L18.0218 9.16887C18.0218 9.16887 15.1948 11.1216 15.9794 14.0468C16.764 16.972 19.8804 19.1413 19.8804 19.1413L20.0375 18.6365C20.0375 18.6365 17.0679 15.0473 17.0679 13.6131C17.0679 12.1789 17.6282 10.8328 18.2214 10.6235C18.5782 10.4976 18.6398 10.5232 18.737 10.5635C18.8014 10.5903 18.8815 10.6235 19.0735 10.6235C19.5553 10.6235 20.0375 10.317 20.0375 10.317C20.0375 10.317 20.3727 10.6235 20.6841 10.6235C20.9955 10.6235 20.9999 10.317 20.9999 10.317V9.30015H21.0347V10.317C21.0347 10.317 21.0391 10.6235 21.3504 10.6235C21.6618 10.6235 21.9971 10.317 21.9971 10.317C21.9971 10.317 22.4792 10.6235 22.961 10.6235C23.1531 10.6235 23.2332 10.5903 23.2976 10.5635C23.3948 10.5232 23.4564 10.4976 23.8132 10.6235C24.4064 10.8328 24.9666 12.1789 24.9666 13.6131C24.9666 15.0473 21.9971 18.6365 21.9971 18.6365L22.1542 19.1413C22.1542 19.1413 25.2706 16.972 26.0552 14.0468C26.8398 11.1216 24.0128 9.16887 24.0128 9.16887L23.8306 9.15439V8.40015Z" fill="#E8AA00"/>
<path d="M18.0604 8.40015V7.90015H17.5604V8.40015H18.0604ZM23.8306 8.40015H24.3306V7.90015H23.8306V8.40015ZM18.0604 9.1658L18.1001 9.66423L18.5604 9.62764V9.1658H18.0604ZM18.0218 9.16887L17.9822 8.67044L17.8482 8.68109L17.7376 8.75747L18.0218 9.16887ZM15.9794 14.0468L15.4964 14.1763H15.4964L15.9794 14.0468ZM19.8804 19.1413L19.5947 19.5517L20.155 19.9416L20.3578 19.2899L19.8804 19.1413ZM20.0375 18.6365L20.5149 18.785L20.5954 18.5264L20.4227 18.3177L20.0375 18.6365ZM18.2214 10.6235L18.055 10.152H18.055L18.2214 10.6235ZM18.737 10.5635L18.9287 10.1017L18.9287 10.1017L18.737 10.5635ZM20.0375 10.317L20.3749 9.94799L20.0924 9.68956L19.7692 9.89503L20.0375 10.317ZM20.9999 10.317L21.4999 10.3241V10.317H20.9999ZM20.9999 9.30015V8.80015H20.4999V9.30015H20.9999ZM21.0347 9.30015H21.5347V8.80015H21.0347V9.30015ZM21.0347 10.317H20.5346L20.5347 10.3241L21.0347 10.317ZM21.9971 10.317L22.2653 9.89503L21.9422 9.68956L21.6596 9.94799L21.9971 10.317ZM23.2976 10.5635L23.1059 10.1017L23.1059 10.1017L23.2976 10.5635ZM23.8132 10.6235L23.9795 10.152V10.152L23.8132 10.6235ZM21.9971 18.6365L21.6118 18.3177L21.4392 18.5264L21.5196 18.785L21.9971 18.6365ZM22.1542 19.1413L21.6768 19.2899L21.8796 19.9416L22.4398 19.5517L22.1542 19.1413ZM26.0552 14.0468L26.5381 14.1763V14.1763L26.0552 14.0468ZM24.0128 9.16887L24.2969 8.75747L24.1863 8.68109L24.0524 8.67044L24.0128 9.16887ZM23.8306 9.15439H23.3306V9.61623L23.791 9.65282L23.8306 9.15439ZM18.0604 8.90015H23.8306V7.90015H18.0604V8.90015ZM18.5604 9.1658V8.40015H17.5604V9.1658H18.5604ZM18.0614 9.6673L18.1001 9.66423L18.0208 8.66737L17.9822 8.67044L18.0614 9.6673ZM16.4623 13.9173C16.122 12.6486 16.5564 11.5826 17.1135 10.8011C17.3918 10.4108 17.6943 10.1018 17.9279 9.8904C18.0442 9.78514 18.1421 9.70526 18.2094 9.65272C18.243 9.62648 18.269 9.60715 18.2856 9.59497C18.2939 9.58889 18.2999 9.5846 18.3033 9.58214C18.3051 9.5809 18.3062 9.58013 18.3066 9.57982C18.3069 9.57966 18.3069 9.57962 18.3068 9.5797C18.3068 9.57973 18.3067 9.5798 18.3065 9.57989C18.3064 9.57994 18.3063 9.58004 18.3063 9.58006C18.3061 9.58016 18.306 9.58027 18.0218 9.16887C17.7376 8.75747 17.7375 8.7576 17.7373 8.75773C17.7372 8.75778 17.737 8.75792 17.7368 8.75802C17.7365 8.75824 17.7362 8.75848 17.7358 8.75876C17.735 8.75931 17.734 8.75998 17.7329 8.76078C17.7306 8.76236 17.7277 8.76443 17.7241 8.76699C17.7169 8.77209 17.7071 8.77913 17.6949 8.78806C17.6705 8.80591 17.6365 8.83139 17.5943 8.86426C17.5101 8.92994 17.3933 9.02546 17.2568 9.14898C16.9849 9.39513 16.6296 9.75718 16.2992 10.2206C15.639 11.1468 15.0522 12.5198 15.4964 14.1763L16.4623 13.9173ZM19.8804 19.1413C20.166 18.7309 20.1661 18.731 20.1662 18.731C20.1662 18.731 20.1663 18.7311 20.1663 18.7311C20.1664 18.7311 20.1664 18.7311 20.1663 18.7311C20.1662 18.731 20.1659 18.7308 20.1654 18.7305C20.1645 18.7298 20.1628 18.7287 20.1604 18.727C20.1557 18.7236 20.148 18.7181 20.1377 18.7107C20.1171 18.6958 20.0857 18.6729 20.0449 18.6423C19.9632 18.5811 19.844 18.4893 19.6978 18.3697C19.405 18.1301 19.0059 17.7806 18.5837 17.3436C17.7307 16.4606 16.8226 15.2604 16.4623 13.9173L15.4964 14.1763C15.9208 15.7584 16.9632 17.1054 17.8645 18.0384C18.3195 18.5093 18.7486 18.885 19.0646 19.1436C19.2228 19.2731 19.3532 19.3736 19.445 19.4424C19.491 19.4769 19.5273 19.5034 19.5527 19.5217C19.5654 19.5309 19.5754 19.538 19.5824 19.543C19.5859 19.5455 19.5888 19.5475 19.5908 19.5489C19.5918 19.5496 19.5927 19.5502 19.5933 19.5507C19.5937 19.5509 19.594 19.5511 19.5942 19.5513C19.5943 19.5514 19.5944 19.5514 19.5945 19.5515C19.5946 19.5516 19.5947 19.5517 19.8804 19.1413ZM19.5601 18.4879L19.403 18.9927L20.3578 19.2899L20.5149 18.785L19.5601 18.4879ZM16.5679 13.6131C16.5679 14.1033 16.8078 14.6914 17.0878 15.2328C17.3799 15.7975 17.7643 16.4 18.1411 16.9465C18.5192 17.4947 18.8963 17.996 19.1784 18.3597C19.3197 18.5418 19.4375 18.6899 19.5203 18.7928C19.5617 18.8443 19.5944 18.8845 19.6169 18.912C19.6281 18.9258 19.6368 18.9364 19.6427 18.9436C19.6457 18.9473 19.648 18.9501 19.6496 18.952C19.6504 18.953 19.651 18.9537 19.6515 18.9543C19.6517 18.9545 19.6519 18.9547 19.652 18.9549C19.6521 18.955 19.6521 18.955 19.6522 18.9551C19.6522 18.9552 19.6523 18.9552 20.0375 18.6365C20.4227 18.3177 20.4228 18.3178 20.4228 18.3178C20.4228 18.3177 20.4228 18.3177 20.4227 18.3177C20.4227 18.3177 20.4226 18.3175 20.4224 18.3174C20.4222 18.317 20.4217 18.3165 20.4211 18.3157C20.4198 18.3142 20.4179 18.3118 20.4152 18.3086C20.4099 18.3022 20.402 18.2925 20.3915 18.2796C20.3704 18.2538 20.3393 18.2155 20.2995 18.166C20.2199 18.0671 20.1057 17.9236 19.9686 17.7468C19.6939 17.3927 19.3286 16.9071 18.9643 16.3788C18.5988 15.8486 18.2407 15.285 17.976 14.7733C17.6993 14.2384 17.5679 13.84 17.5679 13.6131H16.5679ZM18.055 10.152C17.7785 10.2496 17.5595 10.4565 17.3935 10.6738C17.2225 10.8978 17.0763 11.1739 16.9572 11.4752C16.7189 12.078 16.5679 12.8357 16.5679 13.6131H17.5679C17.5679 12.9564 17.697 12.3239 17.8872 11.8428C17.9823 11.6021 18.0874 11.4129 18.1883 11.2807C18.2942 11.142 18.3677 11.1021 18.3878 11.095L18.055 10.152ZM18.9287 10.1017C18.8629 10.0744 18.7362 10.0208 18.5468 10.0321C18.4001 10.0408 18.2395 10.0869 18.055 10.152L18.3878 11.095C18.4689 11.0664 18.5245 11.0495 18.5626 11.0398C18.6011 11.03 18.6122 11.03 18.6063 11.0303C18.5955 11.031 18.5733 11.0303 18.5471 11.0239C18.5287 11.0195 18.5161 11.0132 18.5453 11.0253L18.9287 10.1017ZM19.0735 10.1235C19.0066 10.1235 18.976 10.1177 18.9666 10.1156C18.9594 10.114 18.9569 10.1135 18.9287 10.1017L18.5453 11.0253C18.6549 11.0708 18.8007 11.1235 19.0735 11.1235V10.1235ZM20.0375 10.317C19.7692 9.89503 19.7693 9.89497 19.7694 9.89491C19.7694 9.89489 19.7695 9.89484 19.7696 9.8948C19.7697 9.89473 19.7698 9.89467 19.7699 9.89461C19.7701 9.89448 19.7702 9.89438 19.7704 9.89429C19.7707 9.89412 19.7708 9.89402 19.7709 9.89398C19.771 9.89391 19.7707 9.89411 19.7699 9.89456C19.7685 9.89547 19.7653 9.89738 19.7607 9.90015C19.7513 9.90571 19.7359 9.91464 19.7153 9.92584C19.6739 9.94841 19.6135 9.97919 19.541 10.0099C19.3879 10.0748 19.2183 10.1235 19.0735 10.1235V11.1235C19.4106 11.1235 19.723 11.0189 19.9314 10.9306C20.0397 10.8847 20.1299 10.8388 20.1939 10.8039C20.2261 10.7863 20.2521 10.7713 20.271 10.7601C20.2805 10.7545 20.2882 10.7498 20.294 10.7462C20.2969 10.7444 20.2994 10.7429 20.3013 10.7417C20.3023 10.7411 20.3032 10.7405 20.3039 10.7401C20.3043 10.7398 20.3046 10.7396 20.3049 10.7394C20.3051 10.7393 20.3052 10.7392 20.3054 10.7391C20.3055 10.7391 20.3056 10.739 20.3056 10.739C20.3057 10.7389 20.3058 10.7389 20.0375 10.317ZM20.6841 10.1235C20.6856 10.1235 20.6685 10.1232 20.6302 10.1086C20.5934 10.0945 20.5517 10.0729 20.5089 10.0461C20.4669 10.02 20.4307 9.9931 20.4052 9.97289C20.3927 9.96298 20.3834 9.9552 20.378 9.95059C20.3753 9.9483 20.3737 9.94685 20.3731 9.94636C20.3729 9.94611 20.3729 9.94612 20.3732 9.94638C20.3733 9.94651 20.3735 9.94671 20.3738 9.94698C20.374 9.94711 20.3741 9.94726 20.3743 9.94743C20.3744 9.94752 20.3745 9.9476 20.3746 9.9477C20.3747 9.94774 20.3747 9.94782 20.3748 9.94784C20.3749 9.94791 20.3749 9.94799 20.0375 10.317C19.7001 10.6859 19.7002 10.686 19.7002 10.6861C19.7003 10.6861 19.7004 10.6862 19.7004 10.6862C19.7005 10.6864 19.7007 10.6865 19.7008 10.6866C19.7011 10.6868 19.7014 10.6871 19.7017 10.6874C19.7023 10.6879 19.703 10.6886 19.7038 10.6893C19.7054 10.6907 19.7073 10.6924 19.7095 10.6944C19.7141 10.6984 19.7199 10.7036 19.727 10.7097C19.7412 10.7218 19.7605 10.738 19.7843 10.7568C19.8314 10.7941 19.8984 10.8439 19.9792 10.8943C20.1233 10.9844 20.3842 11.1235 20.6841 11.1235V10.1235ZM20.9999 10.317C20.4999 10.3098 20.4999 10.3096 20.4999 10.3094C20.4999 10.3093 20.4999 10.309 20.4999 10.3089C20.4999 10.3085 20.4999 10.3082 20.5 10.3079C20.5 10.3073 20.5 10.3066 20.5 10.306C20.5 10.3048 20.5 10.3037 20.5001 10.3025C20.5002 10.3003 20.5002 10.2983 20.5003 10.2964C20.5005 10.2927 20.5007 10.2895 20.5009 10.2869C20.5014 10.2818 20.5019 10.2779 20.5025 10.2746C20.5033 10.2702 20.5059 10.2574 20.5155 10.2388C20.5263 10.2183 20.5495 10.1842 20.5922 10.1565C20.6378 10.1269 20.676 10.1235 20.6841 10.1235V11.1235C20.848 11.1235 21.0035 11.0819 21.1374 10.9948C21.2685 10.9095 21.3513 10.7988 21.402 10.7016C21.4517 10.6065 21.4748 10.517 21.4861 10.4551C21.492 10.4231 21.4953 10.3952 21.4972 10.3734C21.4982 10.3624 21.4988 10.3526 21.4992 10.3444C21.4994 10.3403 21.4995 10.3365 21.4996 10.3331C21.4997 10.3314 21.4997 10.3298 21.4997 10.3283C21.4998 10.3276 21.4998 10.3268 21.4998 10.3261C21.4998 10.3258 21.4998 10.3254 21.4998 10.3251C21.4998 10.3249 21.4998 10.3247 21.4998 10.3246C21.4998 10.3243 21.4998 10.3241 20.9999 10.317ZM20.4999 9.30015V10.317H21.4999V9.30015H20.4999ZM21.0347 8.80015H20.9999V9.80015H21.0347V8.80015ZM20.5347 9.30015V10.317H21.5347V9.30015H20.5347ZM21.0347 10.317C20.5347 10.3241 20.5347 10.3243 20.5347 10.3246C20.5348 10.3247 20.5348 10.3249 20.5348 10.3251C20.5348 10.3254 20.5348 10.3258 20.5348 10.3261C20.5348 10.3268 20.5348 10.3276 20.5348 10.3283C20.5349 10.3298 20.5349 10.3314 20.5349 10.3331C20.5351 10.3365 20.5352 10.3403 20.5354 10.3444C20.5358 10.3526 20.5364 10.3624 20.5374 10.3734C20.5393 10.3952 20.5426 10.4231 20.5485 10.4551C20.5598 10.517 20.5829 10.6065 20.6326 10.7016C20.6833 10.7988 20.7661 10.9095 20.8972 10.9948C21.0311 11.0819 21.1866 11.1235 21.3504 11.1235V10.1235C21.3586 10.1235 21.3968 10.1269 21.4423 10.1565C21.485 10.1842 21.5083 10.2183 21.519 10.2388C21.5287 10.2574 21.5312 10.2702 21.532 10.2746C21.5326 10.2779 21.5332 10.2818 21.5336 10.2869C21.5338 10.2895 21.5341 10.2927 21.5342 10.2964C21.5343 10.2983 21.5344 10.3003 21.5345 10.3025C21.5345 10.3037 21.5345 10.3048 21.5346 10.306C21.5346 10.3066 21.5346 10.3073 21.5346 10.3079C21.5346 10.3082 21.5346 10.3085 21.5346 10.3089C21.5346 10.309 21.5346 10.3093 21.5346 10.3094C21.5346 10.3096 21.5346 10.3098 21.0347 10.317ZM21.3504 11.1235C21.6504 11.1235 21.9112 10.9844 22.0554 10.8943C22.1362 10.8439 22.2032 10.7941 22.2502 10.7568C22.274 10.738 22.2934 10.7218 22.3076 10.7097C22.3147 10.7036 22.3205 10.6984 22.325 10.6944C22.3273 10.6924 22.3292 10.6907 22.3308 10.6893C22.3316 10.6886 22.3323 10.6879 22.3329 10.6874C22.3332 10.6871 22.3335 10.6868 22.3338 10.6866C22.3339 10.6865 22.334 10.6864 22.3341 10.6862C22.3342 10.6862 22.3343 10.6861 22.3343 10.6861C22.3344 10.686 22.3345 10.6859 21.9971 10.317C21.6596 9.94799 21.6597 9.94791 21.6598 9.94784C21.6598 9.94782 21.6599 9.94774 21.6599 9.9477C21.66 9.9476 21.6601 9.94752 21.6602 9.94743C21.6604 9.94726 21.6606 9.94711 21.6607 9.94698C21.661 9.94671 21.6612 9.94651 21.6614 9.94638C21.6617 9.94612 21.6617 9.94611 21.6614 9.94636C21.6609 9.94685 21.6592 9.9483 21.6565 9.95059C21.6512 9.9552 21.6419 9.96298 21.6294 9.97289C21.6039 9.9931 21.5676 10.02 21.5257 10.0461C21.4829 10.0729 21.4412 10.0945 21.4044 10.1086C21.366 10.1232 21.349 10.1235 21.3504 10.1235V11.1235ZM21.9971 10.317C21.7288 10.7389 21.7289 10.7389 21.729 10.739C21.729 10.739 21.7291 10.7391 21.7292 10.7391C21.7293 10.7392 21.7295 10.7393 21.7296 10.7394C21.7299 10.7396 21.7303 10.7398 21.7306 10.7401C21.7314 10.7405 21.7322 10.7411 21.7332 10.7417C21.7352 10.7429 21.7376 10.7444 21.7406 10.7462C21.7464 10.7498 21.7541 10.7545 21.7635 10.7601C21.7824 10.7713 21.8084 10.7863 21.8406 10.8039C21.9047 10.8388 21.9949 10.8847 22.1032 10.9306C22.3116 11.0189 22.624 11.1235 22.961 11.1235V10.1235C22.8163 10.1235 22.6467 10.0748 22.4935 10.0099C22.4211 9.97919 22.3606 9.94841 22.3192 9.92584C22.2987 9.91464 22.2833 9.90571 22.2739 9.90015C22.2692 9.89738 22.2661 9.89547 22.2646 9.89456C22.2639 9.89411 22.2636 9.89391 22.2637 9.89398C22.2637 9.89402 22.2639 9.89412 22.2642 9.89429C22.2643 9.89438 22.2645 9.89448 22.2647 9.89461C22.2648 9.89467 22.2649 9.89473 22.265 9.8948C22.265 9.89484 22.2651 9.89489 22.2652 9.89491C22.2653 9.89497 22.2653 9.89503 21.9971 10.317ZM22.961 11.1235C23.2338 11.1235 23.3797 11.0708 23.4893 11.0253L23.1059 10.1017C23.0777 10.1135 23.0752 10.114 23.068 10.1156C23.0585 10.1177 23.028 10.1235 22.961 10.1235V11.1235ZM23.4893 11.0253C23.5185 11.0132 23.5058 11.0195 23.4875 11.0239C23.4613 11.0303 23.4391 11.031 23.4282 11.0303C23.4224 11.03 23.4335 11.03 23.472 11.0398C23.51 11.0495 23.5657 11.0664 23.6468 11.095L23.9795 10.152C23.7951 10.0869 23.6345 10.0408 23.4878 10.0321C23.2983 10.0208 23.1717 10.0744 23.1059 10.1017L23.4893 11.0253ZM23.6468 11.095C23.6668 11.1021 23.7403 11.142 23.8463 11.2807C23.9472 11.4129 24.0522 11.6021 24.1474 11.8428C24.3375 12.3239 24.4666 12.9564 24.4666 13.6131H25.4666C25.4666 12.8357 25.3156 12.078 25.0774 11.4752C24.9583 11.1739 24.812 10.8978 24.641 10.6738C24.4751 10.4565 24.2561 10.2496 23.9795 10.152L23.6468 11.095ZM24.4666 13.6131C24.4666 13.84 24.3353 14.2384 24.0585 14.7733C23.7939 15.285 23.4358 15.8486 23.0702 16.3788C22.7059 16.9071 22.3407 17.3927 22.066 17.7468C21.9288 17.9236 21.8147 18.0671 21.7351 18.166C21.6953 18.2155 21.6641 18.2538 21.6431 18.2796C21.6326 18.2925 21.6246 18.3022 21.6193 18.3086C21.6167 18.3118 21.6147 18.3142 21.6135 18.3157C21.6129 18.3165 21.6124 18.317 21.6121 18.3174C21.612 18.3175 21.6119 18.3177 21.6118 18.3177C21.6118 18.3177 21.6118 18.3177 21.6118 18.3178C21.6118 18.3178 21.6118 18.3177 21.9971 18.6365C22.3823 18.9552 22.3823 18.9552 22.3824 18.9551C22.3824 18.955 22.3825 18.955 22.3826 18.9549C22.3827 18.9547 22.3829 18.9545 22.3831 18.9543C22.3835 18.9537 22.3841 18.953 22.3849 18.952C22.3865 18.9501 22.3888 18.9473 22.3918 18.9436C22.3978 18.9364 22.4065 18.9258 22.4177 18.912C22.4402 18.8845 22.4728 18.8443 22.5143 18.7928C22.597 18.6899 22.7149 18.5418 22.8561 18.3597C23.1382 17.996 23.5154 17.4947 23.8935 16.9465C24.2703 16.4 24.6546 15.7975 24.9467 15.2328C25.2268 14.6914 25.4666 14.1033 25.4666 13.6131H24.4666ZM21.5196 18.785L21.6768 19.2899L22.6316 18.9927L22.4745 18.4879L21.5196 18.785ZM22.1542 19.1413C22.4398 19.5517 22.4399 19.5516 22.4401 19.5515C22.4401 19.5514 22.4403 19.5514 22.4404 19.5513C22.4406 19.5511 22.4409 19.5509 22.4412 19.5507C22.4419 19.5502 22.4427 19.5496 22.4437 19.5489C22.4458 19.5475 22.4486 19.5455 22.4521 19.543C22.4592 19.538 22.4692 19.5309 22.4819 19.5217C22.5073 19.5034 22.5436 19.4769 22.5895 19.4424C22.6814 19.3736 22.8118 19.2731 22.97 19.1436C23.286 18.885 23.7151 18.5093 24.1701 18.0384C25.0714 17.1054 26.1138 15.7584 26.5381 14.1763L25.5723 13.9173C25.212 15.2604 24.3039 16.4606 23.4509 17.3436C23.0286 17.7806 22.6296 18.1301 22.3368 18.3697C22.1905 18.4893 22.0714 18.5811 21.9897 18.6423C21.9489 18.6729 21.9175 18.6958 21.8969 18.7107C21.8865 18.7181 21.8789 18.7236 21.8741 18.727C21.8717 18.7287 21.8701 18.7298 21.8691 18.7305C21.8686 18.7308 21.8684 18.731 21.8683 18.7311C21.8682 18.7311 21.8682 18.7311 21.8682 18.7311C21.8683 18.7311 21.8683 18.731 21.8683 18.731C21.8684 18.731 21.8685 18.7309 22.1542 19.1413ZM26.5381 14.1763C26.9824 12.5198 26.3956 11.1468 25.7353 10.2206C25.4049 9.75718 25.0497 9.39513 24.7777 9.14898C24.6413 9.02546 24.5244 8.92994 24.4402 8.86426C24.3981 8.83139 24.364 8.80591 24.3396 8.78806C24.3274 8.77913 24.3176 8.77209 24.3105 8.76699C24.3069 8.76443 24.3039 8.76236 24.3017 8.76078C24.3005 8.75998 24.2996 8.75931 24.2988 8.75876C24.2984 8.75848 24.298 8.75824 24.2977 8.75802C24.2976 8.75792 24.2974 8.75778 24.2973 8.75773C24.2971 8.7576 24.2969 8.75747 24.0128 9.16887C23.7286 9.58027 23.7284 9.58016 23.7283 9.58006C23.7282 9.58004 23.7281 9.57994 23.728 9.57989C23.7279 9.5798 23.7278 9.57973 23.7278 9.5797C23.7277 9.57962 23.7277 9.57966 23.7279 9.57982C23.7284 9.58013 23.7295 9.5809 23.7312 9.58214C23.7347 9.5846 23.7407 9.58889 23.749 9.59497C23.7656 9.60715 23.7915 9.62648 23.8252 9.65272C23.8925 9.70526 23.9904 9.78514 24.1067 9.8904C24.3403 10.1018 24.6428 10.4108 24.921 10.8011C25.4781 11.5826 25.9125 12.6486 25.5723 13.9173L26.5381 14.1763ZM24.0524 8.67044L23.8702 8.65597L23.791 9.65282L23.9731 9.6673L24.0524 8.67044ZM23.3306 8.40015V9.15439H24.3306V8.40015H23.3306Z" fill="#FFD018"/>
<path fill-rule="evenodd" clip-rule="evenodd" d="M17.7415 15.7849C17.7415 15.7849 18.0952 14.9405 18.7139 15.222C19.3326 15.5035 19.2786 16.4833 19.8415 16.1341C20.4044 15.7849 20.0853 15.222 20.9194 15.222C21.7535 15.222 21.6307 16.1341 22.1309 16.1341C22.6311 16.1341 22.6744 15.222 23.2336 15.222C23.7928 15.222 24.3599 15.7849 24.3599 15.7849L21.0507 19.7874L17.7415 15.7849Z" fill="#8FC753"/>
<path fill-rule="evenodd" clip-rule="evenodd" d="M11.9201 20.4574L11.5641 20.031C11.5641 20.031 13.0402 20.031 13.2405 20.3396C13.2969 20.4265 13.3215 20.4929 13.3403 20.5435C13.388 20.6723 13.3976 20.6981 13.798 20.6981C14.3555 20.6981 13.798 20.2064 13.5658 20.031C13.3337 19.8557 13.4751 19.55 13.798 19.55C13.9224 19.55 14.1391 19.5246 14.4053 19.4935C14.83 19.4437 15.3809 19.3792 15.8857 19.3792C16.7071 19.3792 16.0262 20.031 16.0262 20.031C16.0262 20.031 17.0896 20.031 16.8256 19.7598C16.5616 19.4885 17.712 19.1584 18.209 19.1584C18.6724 19.1584 20.7581 19.2509 21.0388 19.2634C21.3324 19.2509 23.5128 19.1584 23.9761 19.1584C24.4731 19.1584 25.6235 19.4885 25.3595 19.7598C25.0956 20.031 26.1589 20.031 26.1589 20.031C26.1589 20.031 25.478 19.3792 26.2994 19.3792C26.8042 19.3792 27.3551 19.4437 27.7798 19.4935C28.0461 19.5246 28.2627 19.55 28.3871 19.55C28.7101 19.55 28.8514 19.8557 28.6193 20.031C28.3871 20.2064 27.8296 20.6981 28.3871 20.6981C28.7875 20.6981 28.7971 20.6723 28.8449 20.5435C28.8636 20.4929 28.8882 20.4265 28.9447 20.3396C29.1378 20.042 30.5181 20.0314 30.6156 20.0311C30.5933 19.9948 30.5806 19.953 30.5806 19.9084C30.5806 19.7704 30.7025 19.6584 30.8528 19.6584C31.0031 19.6584 31.125 19.7704 31.125 19.9084C31.125 20.0465 31.0031 20.1584 30.8528 20.1584C30.7527 20.1584 30.6651 20.1088 30.6179 20.0348L30.2651 20.4574L30.6324 20.8617C30.6819 20.7991 30.7622 20.7584 30.8528 20.7584C31.0031 20.7584 31.125 20.8704 31.125 21.0084C31.125 21.1465 31.0031 21.2584 30.8528 21.2584C30.7025 21.2584 30.5806 21.1465 30.5806 21.0084C30.5806 20.9799 30.5858 20.9525 30.5954 20.927C30.3874 20.8371 30.0278 20.6981 29.7945 20.6981H29.1449C29.3083 20.6981 30.2079 21.2257 29.9355 21.4543L29.8893 21.4932C29.6221 21.719 29.2735 22.0136 28.9447 21.8529C28.5965 21.6829 28.3871 21.4543 28.3871 21.4543L28.1144 20.6981C28.1144 20.6981 26.5066 20.3292 26.5066 20.5846C26.5066 20.8399 26.502 20.965 25.9319 20.965C25.6128 20.965 25.3045 20.9168 25.033 20.8745C24.8194 20.8411 24.6286 20.8113 24.4731 20.8113C24.2508 20.8113 23.9072 20.8723 23.653 20.9174C23.5037 20.9439 23.3853 20.965 23.3402 20.965C23.2185 20.965 22.5674 20.9389 23.0136 20.6981C23.4598 20.4574 23.5626 20.2064 23.5626 20.2064C23.5626 20.2064 21.7769 20.4421 21.0701 20.4567V20.4574L21.0382 20.4572L21.0061 20.4574V20.4567C20.3055 20.4421 18.6225 20.2064 18.6225 20.2064C18.6225 20.2064 18.7253 20.4574 19.1715 20.6981C19.6177 20.9389 18.9667 20.965 18.8449 20.965C18.7999 20.965 18.6814 20.9439 18.5321 20.9174C18.2779 20.8723 17.9344 20.8113 17.712 20.8113C17.5566 20.8113 17.3657 20.8411 17.1521 20.8745C16.8806 20.9168 16.5723 20.965 16.2533 20.965C15.6831 20.965 15.6786 20.8399 15.6786 20.5846C15.6786 20.3292 14.0708 20.6981 14.0708 20.6981L13.798 21.4543C13.798 21.4543 13.5886 21.6829 13.2405 21.8529C12.9116 22.0136 12.563 21.719 12.2958 21.4932L12.2497 21.4543C11.9772 21.2257 12.8768 20.6981 13.0402 20.6981H12.3906C12.0459 20.6981 11.4256 21.0016 11.4256 21.0016L11.9201 20.4574ZM11.1472 20.1584C11.2975 20.1584 11.4194 20.0465 11.4194 19.9084C11.4194 19.7704 11.2975 19.6584 11.1472 19.6584C10.9969 19.6584 10.875 19.7704 10.875 19.9084C10.875 20.0465 10.9969 20.1584 11.1472 20.1584ZM11.1472 21.2584C11.2975 21.2584 11.4194 21.1465 11.4194 21.0084C11.4194 20.8704 11.2975 20.7584 11.1472 20.7584C10.9969 20.7584 10.875 20.8704 10.875 21.0084C10.875 21.1465 10.9969 21.2584 11.1472 21.2584Z" fill="white"/>
<path fill-rule="evenodd" clip-rule="evenodd" d="M20.8812 4.02954H21.1062V4.2439H21.3825V4.4439H21.1062V4.80797C21.4164 4.8546 21.6531 5.10194 21.6531 5.40006C21.6531 5.73143 21.3607 6.00006 20.9999 6.00006C20.6391 6.00006 20.3467 5.73143 20.3467 5.40006C20.3467 5.10592 20.5771 4.86122 20.8812 4.80994V4.4439H20.6272V4.2439H20.8812V4.02954Z" fill="#FFD018"/>
<path fill-rule="evenodd" clip-rule="evenodd" d="M18.4652 7.22595C18.1502 7.22595 17.4861 7.52533 17.4861 7.52533L18.0025 8.54327L21.1172 8.4394L24.2319 8.54327L24.7483 7.52533C24.7483 7.52533 24.0841 7.22595 23.7692 7.22595C23.6309 7.22595 23.6133 7.15362 23.5936 7.07247C23.5685 6.96883 23.5398 6.85082 23.2516 6.85082C23.0477 6.85082 22.9037 6.88089 22.787 6.90524C22.6097 6.94224 22.4958 6.96602 22.3316 6.85082C22.3247 6.84602 22.3179 6.8412 22.311 6.83638C22.0452 6.64971 21.769 6.45581 21.3223 6.45581C21.2332 6.45581 21.1666 6.53066 21.1172 6.65126C21.0677 6.53066 21.0012 6.45581 20.9121 6.45581C20.4653 6.45581 20.1892 6.6497 19.9233 6.83638C19.9165 6.8412 19.9096 6.84602 19.9028 6.85082C19.7385 6.96602 19.6246 6.94224 19.4473 6.90524C19.3307 6.88089 19.1866 6.85082 18.9827 6.85082C18.6945 6.85082 18.6659 6.96883 18.6407 7.07247C18.621 7.15362 18.6035 7.22595 18.4652 7.22595Z" fill="#E31D1C"/>
<path fill-rule="evenodd" clip-rule="evenodd" d="M20.559 5.5686L20.3404 5.63602C19.7626 5.81418 19.2623 5.87295 18.8397 5.81505C17.9696 5.69586 16.8343 6.09828 16.9765 6.6876C17.0389 6.94586 17.2208 7.43363 17.4101 7.84703C17.6727 8.42065 17.8564 8.71 18.0714 8.71C18.0992 8.71 18.3911 8.72417 18.4884 8.72889C18.5059 8.72974 18.5171 8.73028 18.5194 8.73038C18.8355 8.74461 19.1142 8.75213 19.3823 8.75102C20.1576 8.7478 20.6381 8.68015 20.8097 8.4734L20.8602 8.41256L20.8362 8.33928C20.6327 7.71701 20.5384 6.86334 20.5557 5.78041L20.559 5.5686ZM17.2953 6.62266C17.2256 6.33369 18.1136 6.01892 18.7915 6.11177C19.2137 6.16962 19.6922 6.12608 20.227 5.98303C20.2242 6.9456 20.3125 7.72748 20.4935 8.33017C20.3384 8.40227 19.9311 8.44874 19.3808 8.45103C19.1194 8.45211 18.8461 8.44473 18.5353 8.43074C18.538 8.43087 18.215 8.41496 18.1044 8.41092C18.1008 8.40761 18.0964 8.40344 18.0916 8.39844C18.0625 8.36825 18.026 8.31942 17.9849 8.25477C17.904 8.12732 17.8095 7.94567 17.7111 7.73075C17.5288 7.33256 17.3528 6.86077 17.2953 6.62266Z" fill="#FFD018"/>
<path fill-rule="evenodd" clip-rule="evenodd" d="M21.5115 5.5686L21.7302 5.63602C22.3079 5.81418 22.8082 5.87295 23.2309 5.81505C24.101 5.69586 25.2363 6.09828 25.094 6.6876C25.0317 6.94586 24.8497 7.43363 24.6605 7.84703C24.3979 8.42065 24.2141 8.71 23.9991 8.71C23.9713 8.71 23.6794 8.72417 23.5821 8.72889C23.5646 8.72974 23.5534 8.73028 23.5512 8.73038C23.235 8.74461 22.9563 8.75213 22.6882 8.75102C21.913 8.7478 21.4325 8.68015 21.2608 8.4734L21.2103 8.41256L21.2343 8.33928C21.4379 7.71701 21.5321 6.86334 21.5149 5.78041L21.5115 5.5686ZM24.7752 6.62266C24.8449 6.33369 23.9569 6.01892 23.279 6.11177C22.8568 6.16962 22.3783 6.12608 21.8434 5.98303C21.8463 6.9456 21.758 7.72748 21.577 8.33017C21.732 8.40227 22.1394 8.44874 22.6897 8.45103C22.951 8.45211 23.2244 8.44473 23.5352 8.43074C23.5325 8.43087 23.8554 8.41496 23.966 8.41092C23.9697 8.40761 23.974 8.40344 23.9789 8.39844C24.008 8.36825 24.0445 8.31942 24.0855 8.25477C24.1665 8.12732 24.261 7.94567 24.3594 7.73075C24.5417 7.33256 24.7177 6.86077 24.7752 6.62266Z" fill="#FFD018"/>
<path fill-rule="evenodd" clip-rule="evenodd" d="M17.4413 8.4712C17.4416 8.4157 17.4056 8.31547 17.327 8.12933C17.2186 7.87289 17.1446 7.79518 16.9871 7.70969C16.9074 7.66641 16.8763 7.62891 16.8388 7.49979C16.8087 7.3965 16.7782 7.3159 16.7433 7.2416C16.7362 7.22649 16.721 7.19643 16.7064 7.16749L16.7064 7.16749L16.7064 7.16747L16.7064 7.16745C16.6914 7.13774 16.677 7.10922 16.6725 7.09926C16.6482 7.04492 16.6382 6.99659 16.6382 6.91824C16.6382 6.82892 16.6645 6.75737 16.7338 6.62726C16.7753 6.54956 16.7806 6.53924 16.7953 6.50647C16.8252 6.43998 16.8406 6.38249 16.8406 6.32379V5.93865C16.8406 5.71375 16.8506 5.70005 16.9748 5.71497C16.9873 5.71646 16.9993 5.71818 17.012 5.7202C17.0074 5.71946 17.0717 5.7306 17.087 5.7322C17.1165 5.73532 17.1408 5.73321 17.1654 5.72337C17.2099 5.70548 17.2427 5.6704 17.321 5.56619C17.3579 5.51711 17.3977 5.52192 17.5387 5.583C17.5588 5.59168 17.5706 5.59672 17.5835 5.60199C17.7278 5.66088 17.828 5.66259 17.9132 5.57007C18.0441 5.42789 18.1306 5.43696 18.2894 5.57419C18.3678 5.64197 18.4074 5.66763 18.4576 5.67418L18.4618 5.67473C18.5147 5.6817 18.5179 5.68212 18.6669 5.60096C18.6771 5.61974 18.6992 5.62699 18.7349 5.6344C18.7827 5.6443 18.8536 5.64766 18.9012 5.64105C18.9408 5.63555 18.9689 5.6247 18.9874 5.59037C19.0504 5.58868 19.1249 5.58778 19.211 5.58778V5.48778C19.1007 5.48778 19.0087 5.48923 18.9345 5.49199C18.9287 5.48767 18.9216 5.48212 18.9137 5.4759C18.8729 5.44394 18.8094 5.39428 18.7794 5.40217C18.7754 5.40322 18.7635 5.41259 18.7471 5.4255C18.721 5.44606 18.6835 5.47559 18.6484 5.49479C18.5005 5.57543 18.4949 5.57804 18.473 5.57518C18.4535 5.57263 18.4256 5.55456 18.364 5.50136C18.1647 5.32908 18.0077 5.31262 17.8301 5.50548C17.785 5.55439 17.7328 5.5535 17.6277 5.5106C17.6157 5.50572 17.6045 5.50093 17.5851 5.49255C17.3968 5.41101 17.313 5.40086 17.2314 5.50936C17.1668 5.59535 17.1395 5.62463 17.1218 5.63172L17.1193 5.63286L17.118 5.63348C17.1141 5.63512 17.1092 5.63433 17.0602 5.62643L17.0602 5.62643L17.0602 5.62643L17.0602 5.62643L17.0307 5.62169C17.0166 5.61943 17.003 5.6175 16.9889 5.61581C16.7833 5.59111 16.7317 5.66163 16.7317 5.93865V6.32379C16.7317 6.36758 16.7196 6.41293 16.6947 6.46831C16.6813 6.4982 16.6761 6.5081 16.6361 6.58328C16.5598 6.72627 16.5293 6.80932 16.5293 6.91824C16.5293 7.00942 16.542 7.07066 16.5718 7.13725C16.5773 7.14944 16.5936 7.18186 16.6097 7.21364L16.6097 7.21365C16.6236 7.24116 16.6372 7.2682 16.6434 7.28123C16.6762 7.35104 16.7049 7.42702 16.7336 7.52558C16.7785 7.68011 16.8276 7.73921 16.9317 7.79577C17.0686 7.87011 17.1262 7.93051 17.2255 8.16551C17.2771 8.28759 17.309 8.37325 17.3244 8.42683C17.3275 8.4379 17.3299 8.44718 17.3314 8.45465C17.3157 8.46589 17.3175 8.47384 17.3227 8.496C17.3281 8.50697 17.3281 8.50697 17.3316 8.51117L17.3316 8.51118C17.3379 8.51794 17.3379 8.51794 17.3454 8.5235C17.3485 8.52559 17.3518 8.52747 17.3552 8.52909C17.3532 8.52881 17.3516 8.52823 17.3496 8.52701C17.3561 8.53381 17.3649 8.54351 17.3759 8.55623C17.4825 8.68014 17.6167 8.68014 17.7451 8.56029L17.6675 8.49015C17.5832 8.56884 17.5255 8.56884 17.4613 8.49421L17.4413 8.4712ZM18.7488 5.53459L18.7467 5.53369L18.7476 5.53403L18.7488 5.53459ZM24.5047 8.4712C24.5043 8.4157 24.5403 8.31547 24.619 8.12933C24.7273 7.87289 24.8014 7.79518 24.9588 7.70969C25.0385 7.66641 25.0697 7.62891 25.1072 7.49979C25.1372 7.3965 25.1677 7.3159 25.2026 7.2416C25.2097 7.2265 25.2249 7.19646 25.2395 7.16753L25.2395 7.16752C25.2545 7.13778 25.269 7.10922 25.2734 7.09926C25.2977 7.04492 25.3078 6.99659 25.3078 6.91824C25.3078 6.82892 25.2815 6.75737 25.2121 6.62726C25.1707 6.54956 25.1653 6.53924 25.1506 6.50647C25.1207 6.43998 25.1053 6.38249 25.1053 6.32379V5.93865C25.1053 5.71375 25.0953 5.70005 24.9711 5.71497C24.9587 5.71646 24.9466 5.71818 24.9339 5.7202C24.9386 5.71946 24.8742 5.7306 24.859 5.7322C24.8294 5.73532 24.8051 5.73321 24.7806 5.72337C24.736 5.70548 24.7033 5.6704 24.6249 5.56619C24.588 5.51711 24.5483 5.52192 24.4072 5.583C24.3872 5.59168 24.3753 5.59672 24.3624 5.60199C24.2181 5.66088 24.118 5.66259 24.0327 5.57007C23.9018 5.42789 23.8153 5.43696 23.6565 5.57419C23.5781 5.64197 23.5385 5.66763 23.4883 5.67418L23.4841 5.67473C23.4313 5.6817 23.428 5.68212 23.279 5.60096C23.2688 5.61974 23.2468 5.62699 23.211 5.6344C23.1633 5.6443 23.0923 5.64766 23.0447 5.64105C23.0052 5.63555 22.9771 5.6247 22.9585 5.59037C22.8956 5.58868 22.8211 5.58778 22.735 5.58778V5.48778C22.8453 5.48778 22.9372 5.48923 23.0114 5.49199C23.0172 5.48769 23.0242 5.48218 23.0321 5.476L23.0322 5.47591L23.0322 5.4759C23.0731 5.44394 23.1365 5.39428 23.1666 5.40217C23.1706 5.40322 23.1825 5.41259 23.1988 5.4255L23.1988 5.4255L23.1989 5.42551C23.2239 5.44523 23.2594 5.47321 23.2933 5.49239L23.2976 5.49479C23.4454 5.57543 23.4511 5.57804 23.473 5.57518C23.4925 5.57263 23.5204 5.55456 23.5819 5.50136C23.7813 5.32908 23.9382 5.31262 24.1159 5.50548C24.1609 5.55439 24.2131 5.5535 24.3182 5.5106C24.3302 5.50572 24.3414 5.50093 24.3608 5.49255C24.5491 5.41101 24.6329 5.40086 24.7145 5.50936C24.7792 5.59535 24.8065 5.62463 24.8241 5.63172L24.8266 5.63286L24.8279 5.63348C24.8318 5.63512 24.8367 5.63433 24.8857 5.62643L24.9152 5.62169C24.9294 5.61943 24.9429 5.6175 24.957 5.61581C25.1627 5.59111 25.2142 5.66163 25.2142 5.93865V6.32379C25.2142 6.36758 25.2263 6.41293 25.2512 6.46831C25.2647 6.4982 25.2698 6.5081 25.3099 6.58328C25.3861 6.72627 25.4166 6.80932 25.4166 6.91824C25.4166 7.00942 25.4039 7.07066 25.3741 7.13725C25.3687 7.14944 25.3523 7.18186 25.3362 7.21365L25.3362 7.21381L25.336 7.21416C25.3222 7.2415 25.3087 7.26828 25.3026 7.28123C25.2698 7.35104 25.241 7.42702 25.2124 7.52558C25.1675 7.68011 25.1184 7.73921 25.0142 7.79577C24.8773 7.87011 24.8197 7.93051 24.7205 8.16551C24.6689 8.28759 24.6369 8.37325 24.6216 8.42683C24.6184 8.4379 24.6161 8.44718 24.6145 8.45465C24.6303 8.46589 24.6284 8.47384 24.6232 8.496C24.6195 8.50355 24.6183 8.5059 24.6168 8.50801L24.6143 8.51117C24.608 8.51794 24.608 8.51794 24.6005 8.5235C24.5974 8.52559 24.5941 8.52747 24.5907 8.52909C24.5927 8.52881 24.5944 8.52823 24.5963 8.52701C24.5898 8.53381 24.581 8.54351 24.5701 8.55623C24.4634 8.68014 24.3293 8.68014 24.2009 8.56029L24.2785 8.49015C24.3628 8.56884 24.4204 8.56884 24.4847 8.49421L24.5047 8.4712Z" fill="#5E5E5E"/>
<path d="M18.4956 19.8851L18.5639 19.3888C19.7728 19.5203 20.58 19.5861 20.9867 19.5863C21.6001 19.6109 22.3311 19.5714 23.1787 19.4673L23.2557 19.9626C22.3764 20.0706 21.6121 20.1118 20.9741 20.0861C20.5495 20.0861 19.7272 20.0191 18.4956 19.8851Z" fill="#272727"/>
</g>
</g>
</g>
<defs>
<filter id="filter0_dd_5_6665" x="0" y="0" width="42" height="30" filterUnits="userSpaceOnUse" color-interpolation-filters="sRGB">
<feFlood flood-opacity="0" result="BackgroundImageFix"/>
<feColorMatrix in="SourceAlpha" type="matrix" values="0 0 0 0 0 0 0 0 0 0 0 0 0 0 0 0 0 0 127 0" result="hardAlpha"/>
<feOffset dy="1"/>
<feGaussianBlur stdDeviation="1"/>
<feColorMatrix type="matrix" values="0 0 0 0 0.0627451 0 0 0 0 0.0941176 0 0 0 0 0.156863 0 0 0 0.06 0"/>
<feBlend mode="normal" in2="BackgroundImageFix" result="effect1_dropShadow_5_6665"/>
<feColorMatrix in="SourceAlpha" type="matrix" values="0 0 0 0 0 0 0 0 0 0 0 0 0 0 0 0 0 0 127 0" result="hardAlpha"/>
<feOffset dy="1"/>
<feGaussianBlur stdDeviation="1.5"/>
<feColorMatrix type="matrix" values="0 0 0 0 0.0627451 0 0 0 0 0.0941176 0 0 0 0 0.156863 0 0 0 0.1 0"/>
<feBlend mode="normal" in2="effect1_dropShadow_5_6665" result="effect2_dropShadow_5_6665"/>
<feBlend mode="normal" in="SourceGraphic" in2="effect2_dropShadow_5_6665" result="shape"/>
</filter>
</defs>
</svg>
