<svg width="42" height="30" viewBox="0 0 42 30" fill="none" xmlns="http://www.w3.org/2000/svg">
<g filter="url(#filter0_dd_5_7550)">
<mask id="mask0_5_7550" style="mask-type:alpha" maskUnits="userSpaceOnUse" x="3" y="2" width="36" height="24">
<rect x="3" y="2" width="36" height="24" fill="white"/>
</mask>
<g mask="url(#mask0_5_7550)">
<rect x="3" y="2" width="36" height="24" rx="2" fill="#E11C1B"/>
<path fill-rule="evenodd" clip-rule="evenodd" d="M3 2L39 26H3V2Z" fill="#1D1D1D"/>
<path fill-rule="evenodd" clip-rule="evenodd" d="M10.9688 20.2684H12.467L13.1796 18.7751L14.0172 20.2584L15.5522 20.333L14.2403 21.6023L14.9139 23.1313L13.2464 22.2802L11.7065 23.1389L12.2874 21.6543L10.9688 20.2684Z" fill="#EEEEF6"/>
<path fill-rule="evenodd" clip-rule="evenodd" d="M6.46875 16.2684H7.96705L8.67961 14.7751L9.51715 16.2584L11.0522 16.333L9.74033 17.6023L10.4139 19.1313L8.74639 18.2802L7.20651 19.1389L7.78739 17.6543L6.46875 16.2684Z" fill="#EEEEF6"/>
<path fill-rule="evenodd" clip-rule="evenodd" d="M10.9688 14.2684H12.467L13.1796 12.7751L14.0172 14.2584L15.5522 14.333L14.2403 15.6023L14.9139 17.1313L13.2464 16.2802L11.7065 17.1389L12.2874 15.6543L10.9688 14.2684Z" fill="#EEEEF6"/>
<path fill-rule="evenodd" clip-rule="evenodd" d="M13.925 18.5642L14.955 18.5338L15.3267 17.5896L15.7441 18.5288L16.6918 18.6097L15.8384 19.1461L16.5267 20.0959L15.3326 19.6988L14.2976 20.1086L14.8442 19.1722L13.925 18.5642Z" fill="#EEEEF6"/>
<path fill-rule="evenodd" clip-rule="evenodd" d="M16.175 16.5642L17.205 16.5338L17.5767 15.5896L17.9941 16.5288L18.9418 16.6097L18.0884 17.1461L18.7767 18.0959L17.5826 17.6988L16.5476 18.1086L17.0942 17.1722L16.175 16.5642Z" fill="#EEEEF6"/>
<path fill-rule="evenodd" clip-rule="evenodd" d="M26.7194 4C26.7194 4 23.2445 4.6162 24.2197 8.90985H23.724C23.724 8.90985 23.7646 8.6858 23.2879 8.55443C22.8113 8.42306 22.9067 8.47238 22.6608 8.55443C22.4148 8.63648 20.9184 8.55443 20.9184 8.55443V8.71879L21.9773 9.12531C21.9773 9.12531 21.9512 9.4638 22.394 9.65137C22.8367 9.83894 23.1581 9.92933 23.1581 9.92933C23.1581 9.92933 23.2236 10.3029 22.8088 10.3029C22.394 10.3029 20.7255 9.82211 20.1321 11.0032C19.5387 12.1844 18.75 13.051 18.75 13.051H19.6398L19.401 13.3147H20.4029L20.1321 13.4514C20.1321 13.4514 21.3715 13.4391 21.4682 13.3147C21.5648 13.1903 21.4682 13.6519 21.4682 13.6519C21.4682 13.6519 22.6689 13.1646 22.7347 13.051L23.2951 13.3927L23.4548 12.8144L24.0561 13.051L24.2197 12.5C24.2197 12.5 25.9208 15.0288 27.211 14.8836V14.4639L28.3884 14.8836L28.5379 14.697C28.5379 14.697 29.9602 15.2125 30.398 15.2603L30.0857 14.697H30.398L30.0857 13.6519H30.398L29.7734 12.8144L29.9484 12.5876L29.8326 12.2896C29.8326 12.2896 32.1225 12.938 32.0192 13.9697C31.916 15.0013 30.8961 15.4176 30.8961 15.4176C30.8961 15.4176 29.9181 15.6839 29.0348 15.6266C29.0348 15.6266 29.736 16.3629 31.2197 16.1134C32.7033 15.8639 33.195 14.5852 33.195 14.5852C33.195 14.5852 33.8753 15.8412 33.3153 16.5016C32.7552 17.162 30.2617 17.6257 30.2617 17.6257C30.2617 17.6257 31.1638 18.0959 32.0192 17.9754C32.8746 17.8549 34.2049 17.1932 34.4628 16.1134C34.7206 15.0336 33.5731 13.0412 33.0532 12.8144L32.8479 12.1231L33.3153 12.2896L32.3563 10.2052L32.8213 10.2957L31.4646 8.79557L31.8381 8.69328L29.9638 7.49566L30.5247 7.36395C30.5247 7.36395 29.1392 6.73985 27.5588 7.49566L27.5738 7.23454L27.1585 7.29695L27.1831 7.00973L27.5958 6.45382L26.9762 6.24159C26.9762 6.24159 27.4771 5.57267 27.4019 5.58186C27.4019 5.58186 26.8436 5.72428 26.8753 5.66459C26.8753 5.66459 27.157 5.01991 27.0829 5.03717C27.0829 5.03717 26.4354 5.2329 26.5312 5.13495L26.7801 4.7411L26.7194 4Z" fill="#FBCD17"/>
</g>
</g>
<defs>
<filter id="filter0_dd_5_7550" x="0" y="0" width="42" height="30" filterUnits="userSpaceOnUse" color-interpolation-filters="sRGB">
<feFlood flood-opacity="0" result="BackgroundImageFix"/>
<feColorMatrix in="SourceAlpha" type="matrix" values="0 0 0 0 0 0 0 0 0 0 0 0 0 0 0 0 0 0 127 0" result="hardAlpha"/>
<feOffset dy="1"/>
<feGaussianBlur stdDeviation="1"/>
<feColorMatrix type="matrix" values="0 0 0 0 0.0627451 0 0 0 0 0.0941176 0 0 0 0 0.156863 0 0 0 0.06 0"/>
<feBlend mode="normal" in2="BackgroundImageFix" result="effect1_dropShadow_5_7550"/>
<feColorMatrix in="SourceAlpha" type="matrix" values="0 0 0 0 0 0 0 0 0 0 0 0 0 0 0 0 0 0 127 0" result="hardAlpha"/>
<feOffset dy="1"/>
<feGaussianBlur stdDeviation="1.5"/>
<feColorMatrix type="matrix" values="0 0 0 0 0.0627451 0 0 0 0 0.0941176 0 0 0 0 0.156863 0 0 0 0.1 0"/>
<feBlend mode="normal" in2="effect1_dropShadow_5_7550" result="effect2_dropShadow_5_7550"/>
<feBlend mode="normal" in="SourceGraphic" in2="effect2_dropShadow_5_7550" result="shape"/>
</filter>
</defs>
</svg>
