<svg width="42" height="30" viewBox="0 0 42 30" fill="none" xmlns="http://www.w3.org/2000/svg">
<g filter="url(#filter0_dd_5_5597)">
<mask id="mask0_5_5597" style="mask-type:alpha" maskUnits="userSpaceOnUse" x="3" y="2" width="36" height="24">
<rect x="3" y="2" width="36" height="24" fill="white"/>
</mask>
<g mask="url(#mask0_5_5597)">
<path fill-rule="evenodd" clip-rule="evenodd" d="M3 2V26H39V2H3Z" fill="#F7FCFF"/>
<mask id="mask1_5_5597" style="mask-type:alpha" maskUnits="userSpaceOnUse" x="3" y="2" width="36" height="24">
<path fill-rule="evenodd" clip-rule="evenodd" d="M3 2V26H39V2H3Z" fill="white"/>
</mask>
<g mask="url(#mask1_5_5597)">
<path fill-rule="evenodd" clip-rule="evenodd" d="M22.8028 10.2148C23.075 10.3525 23.2383 10.7051 23.2383 10.7051H18.6393L18.9568 10.2148C18.9568 10.2148 18.6393 10.0867 18.799 10.0867C18.9587 10.0867 19.4143 9.51861 19.4143 9.51861H19.2242C19.2242 9.51861 19.1265 9.37728 19.4143 9.37728C19.7021 9.37728 19.932 8.46282 19.932 8.46282C19.932 8.46282 20.1209 8.03497 19.6586 7.92699C19.1963 7.81901 18.6393 8.28467 18.6393 8.28467C18.6393 8.28467 18.7752 7.53967 18.9568 7.3783C19.0412 7.30331 19.1987 7.29139 19.3432 7.28046C19.5096 7.26786 19.6586 7.25658 19.6586 7.15175C19.6586 6.9559 20.1998 6.80322 21.0845 6.80322C21.9692 6.80322 22.2906 7.74248 22.2906 7.92699C22.2906 8.1115 22.5932 9.0922 22.5932 9.0922C22.5932 9.0922 22.2906 9.0922 22.2906 9.21871C22.2906 9.34522 23.2383 9.89194 23.2383 9.89194C23.2383 9.89194 22.5306 10.0771 22.8028 10.2148ZM12.7489 8.39621L12.7489 8.39622C14.2935 8.80536 15.5406 9.13569 15.7043 9.13569C16.1527 9.13569 16.9963 10.1008 16.5745 10.507C16.1527 10.9132 16.01 11.1506 16.2923 11.1506C16.5745 11.1506 17.9981 10.8222 17.9981 10.8222V14.594C17.9981 14.594 16.6338 14.8818 16.2923 14.594C16.1269 14.4546 15.8747 14.4462 15.6585 14.4391C15.4283 14.4314 15.2389 14.4251 15.2389 14.2634C15.2389 13.9497 14.4528 13.9004 14.4528 13.9004C14.4528 13.9004 13.7253 13.6872 13.7253 13.4865C13.7253 13.2859 13.2492 12.7188 13.2492 12.7188C13.2492 12.7188 11.4348 11.8057 9.89218 10.8037C9.58053 10.6013 9.27253 10.4106 8.97764 10.228C7.81285 9.50675 6.85265 8.91219 6.6801 8.22299C5.87441 7.5138 5.5686 7.0815 6.12435 6.86953C6.47719 6.73495 10.0629 7.68474 12.7489 8.39621ZM17.4492 14.8319C17.4492 14.8319 16.8383 15.2061 16.1624 16.2079C15.83 16.7008 15.8032 17.135 15.7839 17.4489C15.7639 17.7732 15.7518 17.9692 15.419 17.9692C15.0305 17.9692 14.7487 18.0439 14.5193 18.1047C14.3619 18.1464 14.2292 18.1815 14.1037 18.1815C13.7953 18.1815 13.2031 19.2164 13.4992 19.4559C13.7953 19.6953 15.0359 20.0771 15.0359 19.4559C15.0359 18.8347 15.3695 18.4818 15.9758 18.4818C16.5821 18.4818 17.6659 18.1249 17.6659 17.342C17.6659 16.559 18.8475 16.6149 18.8475 16.6149L17.4492 14.8319ZM29.5064 8.39624C32.1924 7.68476 35.7781 6.73497 36.131 6.86955C36.6867 7.08152 36.3809 7.51383 35.5752 8.22302C35.4027 8.91221 34.4425 9.50677 33.2777 10.228L33.2777 10.228L33.2776 10.2281C32.9827 10.4106 32.6748 10.6013 32.3631 10.8037C30.8205 11.8057 29.0061 12.7188 29.0061 12.7188C29.0061 12.7188 28.53 13.2859 28.53 13.4865C28.53 13.6872 27.8025 13.9004 27.8025 13.9004C27.8025 13.9004 27.0164 13.9497 27.0164 14.2634C27.0164 14.4252 26.827 14.4314 26.5968 14.4391C26.3806 14.4462 26.1284 14.4546 25.963 14.594C25.6215 14.8819 24.2572 14.594 24.2572 14.594V10.8223C24.2572 10.8223 25.6808 11.1506 25.963 11.1506C26.2453 11.1506 26.1026 10.9133 25.6808 10.507C25.259 10.1008 26.1026 9.13571 26.551 9.13571C26.7147 9.13571 27.9618 8.80538 29.5064 8.39624ZM24.8061 14.8319C24.8061 14.8319 25.417 15.2061 26.0928 16.2079C26.4253 16.7008 26.4521 17.135 26.4714 17.4489C26.4914 17.7732 26.5035 17.9692 26.8363 17.9692C27.2247 17.9692 27.5066 18.0439 27.736 18.1047C27.8934 18.1464 28.0261 18.1815 28.1516 18.1815C28.46 18.1815 29.0522 19.2164 28.7561 19.4559C28.46 19.6953 27.2194 20.0771 27.2194 19.4559C27.2194 18.8347 26.8858 18.4818 26.2795 18.4818C25.6732 18.4818 24.5894 18.1249 24.5894 17.342C24.5894 16.559 23.4078 16.6149 23.4078 16.6149L24.8061 14.8319ZM18.2336 17.4423C18.2336 17.0974 18.9193 16.8373 18.9193 16.8373L20.9833 16.063C20.9833 16.063 20.9939 16.2377 21.0097 16.5276C21.0255 16.2377 21.0361 16.063 21.0361 16.063L23.1001 16.8373C23.1001 16.8373 23.7858 17.0974 23.7858 17.4423C23.7858 17.6152 24.0774 17.9208 24.3685 18.2257C24.6582 18.5294 24.9474 18.8323 24.9474 19.0029C24.9474 19.3038 24.1643 19.9806 23.6915 20.3892C23.627 20.4449 23.5683 20.4957 23.5181 20.5398C23.4098 20.6351 23.2927 20.753 23.1711 20.8756C22.8234 21.2261 22.4385 21.614 22.1156 21.614C21.8885 21.614 21.705 21.7545 21.5292 21.8891C21.3676 22.0128 21.2125 22.1315 21.0361 22.1315C21.0268 22.1315 21.018 22.1276 21.0097 22.1201C21.0013 22.1276 20.9925 22.1315 20.9833 22.1315C20.8069 22.1315 20.6518 22.0128 20.4902 21.8891C20.3144 21.7545 20.1308 21.614 19.9038 21.614C19.5809 21.614 19.196 21.2261 18.8482 20.8756C18.7266 20.753 18.6096 20.6351 18.5013 20.5398C18.4511 20.4957 18.3924 20.445 18.3279 20.3892C17.8551 19.9806 17.072 19.3038 17.072 19.0029C17.072 18.8323 17.3611 18.5294 17.6509 18.2257L17.6509 18.2257C17.9419 17.9208 18.2336 17.6152 18.2336 17.4423Z" fill="#E8AA00"/>
<path fill-rule="evenodd" clip-rule="evenodd" d="M10.8865 12.6732C10.9315 13.1358 11.0795 13.4086 11.0795 13.4086C11.0795 13.4086 11.3399 13.7728 11.4876 13.7771C11.5635 13.9447 11.6461 14.1165 11.7345 14.2914C12.1399 15.2515 12.6923 16.513 13.2581 17.6621C13.2218 17.6376 13.1693 17.6107 13.0976 17.5809C12.6244 17.3842 12.2846 17.3617 12.2846 17.3617C12.2846 17.3617 11.6502 17.3858 11.7157 17.5458C11.7812 17.7057 12.5677 18.0532 12.887 17.9499C12.9226 17.9383 12.9588 17.9273 12.9943 17.9164C13.1411 17.8713 13.2767 17.8298 13.3143 17.7758C13.3895 17.9272 13.4648 18.0765 13.54 18.2226C13.0679 18.0267 12.7293 18.0043 12.7293 18.0043C12.7293 18.0043 12.0949 18.0284 12.1604 18.1884C12.2259 18.3483 13.0124 18.6958 13.3317 18.5924C13.3673 18.5809 13.4035 18.5698 13.439 18.5589C13.5274 18.5318 13.6117 18.506 13.673 18.4779C14.2431 19.5583 14.7934 20.4207 15.1863 20.6385H15.9789C15.9789 20.6385 15.2939 19.7779 14.4305 18.5731C14.6906 18.409 15.053 18.0466 15.053 17.8186C15.053 17.7849 15.0537 17.7509 15.0543 17.7176C15.0594 17.4516 15.0636 17.2251 14.735 17.5165C14.3652 17.8446 14.2253 18.1207 14.2253 18.1207C14.2253 18.1207 14.2084 18.168 14.1897 18.2346C14.1203 18.1363 14.0502 18.0362 13.9794 17.9345C14.24 17.7724 14.6084 17.4059 14.6084 17.176C14.6084 17.1424 14.609 17.1084 14.6096 17.075C14.6147 16.809 14.619 16.5825 14.2904 16.874C13.9206 17.202 13.7806 17.4781 13.7806 17.4781C13.7806 17.4781 13.7634 17.5264 13.7445 17.5941C13.6446 17.4481 13.5442 17.2997 13.4438 17.1494C13.6983 17.03 14.1637 16.599 14.1637 16.3407C14.1637 16.307 14.1643 16.273 14.165 16.2397C14.17 15.9737 14.1743 15.7472 13.8457 16.0386C13.4759 16.3667 13.3359 16.6428 13.3359 16.6428C13.3359 16.6428 13.294 16.7604 13.269 16.8857C13.1377 16.686 13.0071 16.4838 12.8788 16.2805C12.8827 16.281 12.8868 16.2813 12.8911 16.2813C13.0826 16.2813 13.7189 15.7432 13.7189 15.4411C13.7189 15.4074 13.7195 15.3734 13.7202 15.3401C13.7252 15.0741 13.7295 14.8476 13.4009 15.139C13.0311 15.4671 12.8911 15.7432 12.8911 15.7432C12.8911 15.7432 12.7969 16.0078 12.8067 16.1659C12.6297 15.8831 12.4575 15.599 12.2939 15.3173L12.2983 15.3174C12.4898 15.3174 13.126 14.7793 13.126 14.4772C13.126 14.4436 13.1267 14.4096 13.1273 14.3762C13.1324 14.1102 13.1366 13.8837 12.808 14.1752C12.4382 14.5032 12.2983 14.7793 12.2983 14.7793C12.2983 14.7793 12.2134 15.0177 12.2131 15.1771C12.0413 14.8766 11.8801 14.5797 11.7345 14.2914C11.6563 14.1062 11.5835 13.9322 11.5172 13.7723C11.5267 13.7687 11.5354 13.7628 11.5432 13.7545C11.6663 13.6241 11.6116 12.845 11.3512 12.6508C11.3222 12.6292 11.2933 12.6069 11.265 12.585C11.039 12.4106 10.8465 12.2621 10.8865 12.6732ZM11.7664 13.8568C11.7664 13.8568 11.7917 13.5548 12.013 13.1341C12.2096 12.7603 12.2927 12.9744 12.3904 13.2259C12.4026 13.2575 12.4151 13.2896 12.428 13.3213C12.5443 13.6051 12.1534 14.3042 11.9735 14.3624C11.7935 14.4207 11.7664 13.8568 11.7664 13.8568ZM12.653 16.7456C12.1797 16.5489 11.8399 16.5264 11.8399 16.5264C11.8399 16.5264 11.2055 16.5505 11.271 16.7105C11.3365 16.8704 12.123 17.2178 12.4424 17.1145C12.478 17.103 12.5141 17.0919 12.5496 17.081C12.8326 16.9943 13.0735 16.9204 12.653 16.7456ZM11.3951 15.6268C11.3951 15.6268 11.7349 15.6493 12.2081 15.846C12.6287 16.0208 12.3878 16.0947 12.1048 16.1814C12.0693 16.1923 12.0332 16.2034 11.9976 16.2149C11.6782 16.3183 10.8917 15.9708 10.8262 15.8109C10.7607 15.6509 11.3951 15.6268 11.3951 15.6268ZM11.8376 14.9464C11.3644 14.7497 11.0246 14.7272 11.0246 14.7272C11.0246 14.7272 10.3902 14.7513 10.4557 14.9113C10.5212 15.0712 11.3077 15.4187 11.627 15.3153C11.6626 15.3038 11.6987 15.2928 11.7341 15.2819L11.7343 15.2819L11.7343 15.2819C12.0172 15.1951 12.2581 15.1212 11.8376 14.9464ZM10.8468 13.6447C10.8468 13.6447 11.1575 13.7692 11.5265 14.0979C11.8544 14.39 11.5996 14.3862 11.3003 14.3817H11.3003C11.2628 14.3811 11.2245 14.3805 11.1867 14.3805C10.8468 14.3805 10.2415 13.815 10.2415 13.6447C10.2415 13.4745 10.8468 13.6447 10.8468 13.6447Z" fill="#46A000"/>
<path fill-rule="evenodd" clip-rule="evenodd" d="M35.2781 12.3386H32.8736C32.8736 12.3386 33.3833 12.3386 33.4393 12.7763C33.4393 12.7763 33.4511 16.4703 33.4393 16.7605C33.4276 17.0507 32.8736 17.1495 32.8736 17.1495C32.8736 17.1495 35.7905 17.1574 35.2781 17.1495C34.7656 17.1415 34.6525 16.7605 34.6525 16.7605V12.7763C34.6525 12.4391 35.2781 12.3386 35.2781 12.3386ZM8.13605 16.8533C7.86389 16.2287 6.18347 12.4042 6.18347 12.4042H7.84705C7.55805 12.4042 7.45074 12.7312 7.45074 12.7312L8.61599 15.6844C8.61599 15.6844 9.74281 13.2733 9.74281 12.8457C9.74281 12.4181 9.26979 12.4042 9.26979 12.4042H11.4386L10.9147 12.5597C10.9147 12.5597 9.17925 16.0962 9.17925 16.8533C9.09657 17.0211 9.97825 17.1327 9.97825 17.1327H7.64928L8.13605 16.8533ZM28.0499 15.4567L29.3388 13.3458L29.3766 15.6944L28.9774 15.5792L28.6943 17.1476L30.1196 14.718L29.6451 14.5595L31.4094 12.8618L30.8086 15.1563L30.4667 14.8887L28.4455 18.2409L30.7015 15.9433L30.2667 15.7502L32.4945 14.4537L31.5246 16.5665L30.9834 16.2203L28.6943 18.782L27.7448 18.4574L28.6943 15.4567H28.0499ZM27.3057 19.46H26.593V19.9419H26.032L24.443 21.5804H25.32L25.6247 22.5029L26.032 22.1773V22.5029L26.8285 22.1773L27.59 22.7634L28.1583 20.5104L27.7758 20.2608L27.9722 20.1081L27.7758 19.46H27.3057Z" fill="#0093E1"/>
<path fill-rule="evenodd" clip-rule="evenodd" d="M16.8865 10.0129C16.8865 10.0129 17.9334 10.6555 18.9803 10.6555C20.0272 10.6555 21.0742 10.0129 21.0742 10.0129C21.0742 10.0129 22.1211 10.6555 23.168 10.6555C24.2149 10.6555 25.2618 10.0129 25.2618 10.0129V12.9138C25.2618 15.9132 21.0742 18.2378 21.0742 18.2378C21.0742 18.2378 16.6838 16.1034 16.8865 12.8782V10.0129Z" fill="#F7FCFF"/>
<mask id="mask2_5_5597" style="mask-type:alpha" maskUnits="userSpaceOnUse" x="16" y="10" width="10" height="9">
<path fill-rule="evenodd" clip-rule="evenodd" d="M16.8865 10.0129C16.8865 10.0129 17.9334 10.6555 18.9803 10.6555C20.0272 10.6555 21.0742 10.0129 21.0742 10.0129C21.0742 10.0129 22.1211 10.6555 23.168 10.6555C24.2149 10.6555 25.2618 10.0129 25.2618 10.0129V12.9138C25.2618 15.9132 21.0742 18.2378 21.0742 18.2378C21.0742 18.2378 16.6838 16.1034 16.8865 12.8782V10.0129Z" fill="white"/>
</mask>
<g mask="url(#mask2_5_5597)">
<path fill-rule="evenodd" clip-rule="evenodd" d="M16.59 9.82019H25.41V12.8403H16.59V9.82019Z" fill="#2E42A5"/>
<path fill-rule="evenodd" clip-rule="evenodd" d="M18.2948 12.8403H17.5536V18.9447H18.2948V12.8403ZM19.5548 12.8403H18.8136V18.9447H19.5548V12.8403ZM20.0736 12.8403H20.8148V18.9447H20.0736V12.8403ZM22.0747 12.8403H21.3336V18.9447H22.0747V12.8403ZM22.5936 12.8403H23.3347V18.9447H22.5936V12.8403ZM24.5947 12.8403H23.8536V18.9447H24.5947V12.8403Z" fill="#AF0100"/>
</g>
</g>
</g>
</g>
<defs>
<filter id="filter0_dd_5_5597" x="0" y="0" width="42" height="30" filterUnits="userSpaceOnUse" color-interpolation-filters="sRGB">
<feFlood flood-opacity="0" result="BackgroundImageFix"/>
<feColorMatrix in="SourceAlpha" type="matrix" values="0 0 0 0 0 0 0 0 0 0 0 0 0 0 0 0 0 0 127 0" result="hardAlpha"/>
<feOffset dy="1"/>
<feGaussianBlur stdDeviation="1"/>
<feColorMatrix type="matrix" values="0 0 0 0 0.0627451 0 0 0 0 0.0941176 0 0 0 0 0.156863 0 0 0 0.06 0"/>
<feBlend mode="normal" in2="BackgroundImageFix" result="effect1_dropShadow_5_5597"/>
<feColorMatrix in="SourceAlpha" type="matrix" values="0 0 0 0 0 0 0 0 0 0 0 0 0 0 0 0 0 0 127 0" result="hardAlpha"/>
<feOffset dy="1"/>
<feGaussianBlur stdDeviation="1.5"/>
<feColorMatrix type="matrix" values="0 0 0 0 0.0627451 0 0 0 0 0.0941176 0 0 0 0 0.156863 0 0 0 0.1 0"/>
<feBlend mode="normal" in2="effect1_dropShadow_5_5597" result="effect2_dropShadow_5_5597"/>
<feBlend mode="normal" in="SourceGraphic" in2="effect2_dropShadow_5_5597" result="shape"/>
</filter>
</defs>
</svg>
