<svg width="42" height="30" viewBox="0 0 42 30" fill="none" xmlns="http://www.w3.org/2000/svg">
<g filter="url(#filter0_dd_5_10404)">
<mask id="mask0_5_10404" style="mask-type:alpha" maskUnits="userSpaceOnUse" x="3" y="2" width="36" height="24">
<rect x="3" y="2" width="36" height="24" fill="white"/>
</mask>
<g mask="url(#mask0_5_10404)">
<path fill-rule="evenodd" clip-rule="evenodd" d="M3 2V26H39V2H3Z" fill="#279E19"/>
<mask id="mask1_5_10404" style="mask-type:alpha" maskUnits="userSpaceOnUse" x="3" y="2" width="36" height="24">
<path fill-rule="evenodd" clip-rule="evenodd" d="M3 2V26H39V2H3Z" fill="white"/>
</mask>
<g mask="url(#mask1_5_10404)">
<path fill-rule="evenodd" clip-rule="evenodd" d="M22.125 2H24.375V15H39V17H24.375V26H22.125V17H3V15H22.125V2Z" fill="#F7FCFF"/>
<path fill-rule="evenodd" clip-rule="evenodd" d="M19.875 2H22.125V13H39V15H22.125V26H19.875V15H3V13H19.875V2Z" fill="#272727"/>
<path fill-rule="evenodd" clip-rule="evenodd" d="M17.625 2H19.875V11H39V13H19.875V26H17.625V13H3V11H17.625V2Z" fill="#FECA00"/>
<path fill-rule="evenodd" clip-rule="evenodd" d="M21 22C25.9706 22 30 18.4183 30 14C30 9.58172 25.9706 6 21 6C16.0294 6 12 9.58172 12 14C12 18.4183 16.0294 22 21 22Z" fill="#C51918"/>
<path fill-rule="evenodd" clip-rule="evenodd" d="M19.5666 10.413C19.5666 10.413 19.994 9.18003 20.9869 9.81697C22.544 10.4987 23.0576 11.2818 23.6587 12.1688C24.2599 13.0557 22.1849 12.4061 21.7978 11.9069C21.4107 11.4078 19.2634 11.2459 19.5666 10.8294C19.8697 10.413 19.5666 10.413 19.5666 10.413Z" fill="#804BFF"/>
<path fill-rule="evenodd" clip-rule="evenodd" d="M19.2146 16.7255C19.2146 16.7255 18.1575 18.011 19.2146 18.011C20.2718 18.011 24.5577 17.7344 24.044 17.3682C23.5303 17.002 19.7226 17.3682 19.7226 17.3682L19.2146 16.7255Z" fill="#A95601"/>
<path fill-rule="evenodd" clip-rule="evenodd" d="M20.7952 16.685C20.7303 16.62 19.7655 16.0567 19.3893 14.7686C19.1293 13.8781 19.2889 12.2124 19.6549 11.8823C20.5505 11.0748 21.0753 11.5493 21.0753 12.7602C21.0753 13.971 21.1291 16.9842 20.7952 16.685Z" fill="#804BFF"/>
<path fill-rule="evenodd" clip-rule="evenodd" d="M20.6818 16.0545C20.6818 16.0545 20.5706 16.9988 21.117 18.1013C21.6634 19.2038 22.767 19.1825 22.767 18.2802C22.767 17.3778 23.5724 18.2246 23.8817 18.8269C24.1909 19.4291 23.3901 13.4792 22.2535 12.1481C21.117 10.8169 20.0204 10.7315 20.3511 11.5917C20.6818 12.4518 20.6818 16.0545 20.6818 16.0545Z" fill="#279E19"/>
<path fill-rule="evenodd" clip-rule="evenodd" d="M20.0181 9.60001C20.0181 9.60001 19.5374 9.87405 19.5374 10.6289C19.5374 11.3837 20.6757 10.3952 20.6757 10.3952L20.0181 9.60001Z" fill="#FECA00"/>
<mask id="path-14-inside-1_5_10404" fill="white">
<path fill-rule="evenodd" clip-rule="evenodd" d="M20.1205 9.31353L21.1124 8.68501L22.1043 9.31353L21.7383 8.28078L22.7173 7.63648L21.4993 7.62673L21.1124 6.60001L20.7256 7.62673L19.5075 7.63648L20.4865 8.28078L20.1205 9.31353ZM23.4089 9.69032L24.627 9.70007L25.0138 10.7268L25.4006 9.70007L26.6187 9.69032L25.6397 9.04602L26.0057 8.01327L25.0138 8.6418L24.0219 8.01327L24.3879 9.04602L23.4089 9.69032ZM26.7991 12.3576L25.8201 11.7133L27.0382 11.7035L27.425 10.6768L27.8119 11.7035L29.03 11.7133L28.051 12.3576L28.4169 13.3903L27.425 12.7618L26.4332 13.3903L26.7991 12.3576ZM26.4331 14.6097L26.7991 15.6424L25.8201 16.2867L27.0382 16.2965L27.425 17.3232L27.8118 16.2965L29.0299 16.2867L28.0509 15.6424L28.4169 14.6097L27.425 15.2382L26.4331 14.6097ZM24.627 18.2999L25.0138 17.2732L25.4007 18.2999L26.6187 18.3097L25.6397 18.954L26.0057 19.9867L25.0138 19.3582L24.0219 19.9867L24.3879 18.954L23.4089 18.3097L24.627 18.2999ZM22.1043 18.6865L21.1124 19.315L20.1205 18.6865L20.4865 19.7192L19.5075 20.3635L20.7256 20.3733L21.1124 21.4L21.4993 20.3733L22.7173 20.3635L21.7383 19.7192L22.1043 18.6865ZM17.5978 18.2999L18.8159 18.3097L17.8369 18.954L18.2029 19.9867L17.211 19.3582L16.2191 19.9867L16.5851 18.954L15.6061 18.3097L16.8241 18.2999L17.211 17.2732L17.5978 18.2999ZM16.4046 16.2867L15.4256 15.6424L15.7916 14.6097L14.7997 15.2382L13.8078 14.6097L14.1738 15.6424L13.1948 16.2867L14.4129 16.2965L14.7997 17.3232L15.1866 16.2965L16.4046 16.2867ZM15.4257 12.3576L15.7917 13.3903L14.7998 12.7618L13.8079 13.3903L14.1739 12.3576L13.1949 11.7133L14.413 11.7035L14.7998 10.6768L15.1866 11.7035L16.4047 11.7133L15.4257 12.3576ZM17.211 10.7268L17.5978 9.70008L18.8159 9.69033L17.8369 9.04603L18.2028 8.01328L17.211 8.64181L16.2191 8.01328L16.585 9.04603L15.6061 9.69033L16.8241 9.70008L17.211 10.7268Z"/>
</mask>
<path fill-rule="evenodd" clip-rule="evenodd" d="M20.1205 9.31353L21.1124 8.68501L22.1043 9.31353L21.7383 8.28078L22.7173 7.63648L21.4993 7.62673L21.1124 6.60001L20.7256 7.62673L19.5075 7.63648L20.4865 8.28078L20.1205 9.31353ZM23.4089 9.69032L24.627 9.70007L25.0138 10.7268L25.4006 9.70007L26.6187 9.69032L25.6397 9.04602L26.0057 8.01327L25.0138 8.6418L24.0219 8.01327L24.3879 9.04602L23.4089 9.69032ZM26.7991 12.3576L25.8201 11.7133L27.0382 11.7035L27.425 10.6768L27.8119 11.7035L29.03 11.7133L28.051 12.3576L28.4169 13.3903L27.425 12.7618L26.4332 13.3903L26.7991 12.3576ZM26.4331 14.6097L26.7991 15.6424L25.8201 16.2867L27.0382 16.2965L27.425 17.3232L27.8118 16.2965L29.0299 16.2867L28.0509 15.6424L28.4169 14.6097L27.425 15.2382L26.4331 14.6097ZM24.627 18.2999L25.0138 17.2732L25.4007 18.2999L26.6187 18.3097L25.6397 18.954L26.0057 19.9867L25.0138 19.3582L24.0219 19.9867L24.3879 18.954L23.4089 18.3097L24.627 18.2999ZM22.1043 18.6865L21.1124 19.315L20.1205 18.6865L20.4865 19.7192L19.5075 20.3635L20.7256 20.3733L21.1124 21.4L21.4993 20.3733L22.7173 20.3635L21.7383 19.7192L22.1043 18.6865ZM17.5978 18.2999L18.8159 18.3097L17.8369 18.954L18.2029 19.9867L17.211 19.3582L16.2191 19.9867L16.5851 18.954L15.6061 18.3097L16.8241 18.2999L17.211 17.2732L17.5978 18.2999ZM16.4046 16.2867L15.4256 15.6424L15.7916 14.6097L14.7997 15.2382L13.8078 14.6097L14.1738 15.6424L13.1948 16.2867L14.4129 16.2965L14.7997 17.3232L15.1866 16.2965L16.4046 16.2867ZM15.4257 12.3576L15.7917 13.3903L14.7998 12.7618L13.8079 13.3903L14.1739 12.3576L13.1949 11.7133L14.413 11.7035L14.7998 10.6768L15.1866 11.7035L16.4047 11.7133L15.4257 12.3576ZM17.211 10.7268L17.5978 9.70008L18.8159 9.69033L17.8369 9.04603L18.2028 8.01328L17.211 8.64181L16.2191 8.01328L16.585 9.04603L15.6061 9.69033L16.8241 9.70008L17.211 10.7268Z" fill="#279E19"/>
<path d="M21.1124 8.68501L21.1659 8.60054L21.1124 8.56662L21.0589 8.60054L21.1124 8.68501ZM20.1205 9.31353L20.0263 9.28013L19.9296 9.55289L20.1741 9.398L20.1205 9.31353ZM22.1043 9.31353L22.0508 9.398L22.2952 9.55289L22.1986 9.28013L22.1043 9.31353ZM21.7383 8.28078L21.6834 8.19725L21.6179 8.24033L21.6441 8.31418L21.7383 8.28078ZM22.7173 7.63648L22.7723 7.72001L23.0472 7.53912L22.7181 7.53648L22.7173 7.63648ZM21.4993 7.62673L21.4057 7.66199L21.4299 7.72618L21.4985 7.72673L21.4993 7.62673ZM21.1124 6.60001L21.206 6.56475L21.1124 6.31638L21.0188 6.56475L21.1124 6.60001ZM20.7256 7.62673L20.7264 7.72673L20.795 7.72618L20.8192 7.66199L20.7256 7.62673ZM19.5075 7.63648L19.5067 7.53648L19.1777 7.53912L19.4525 7.72001L19.5075 7.63648ZM20.4865 8.28078L20.5808 8.31418L20.6069 8.24033L20.5415 8.19725L20.4865 8.28078ZM24.627 9.70007L24.7205 9.66481L24.6964 9.60062L24.6278 9.60007L24.627 9.70007ZM23.4089 9.69032L23.3539 9.60679L23.0791 9.78768L23.4081 9.79032L23.4089 9.69032ZM25.0138 10.7268L24.9202 10.7621L25.0138 11.0104L25.1074 10.7621L25.0138 10.7268ZM25.4006 9.70007L25.3998 9.60007L25.3312 9.60062L25.3071 9.66481L25.4006 9.70007ZM26.6187 9.69032L26.6195 9.79032L26.9486 9.78768L26.6737 9.60679L26.6187 9.69032ZM25.6397 9.04602L25.5455 9.01262L25.5193 9.08648L25.5847 9.12955L25.6397 9.04602ZM26.0057 8.01327L26.0999 8.04667L26.1966 7.77391L25.9522 7.9288L26.0057 8.01327ZM25.0138 8.6418L24.9603 8.72626L25.0138 8.76018L25.0673 8.72626L25.0138 8.6418ZM24.0219 8.01327L24.0754 7.9288L23.831 7.77391L23.9277 8.04667L24.0219 8.01327ZM24.3879 9.04602L24.4429 9.12955L24.5083 9.08648L24.4821 9.01262L24.3879 9.04602ZM25.8201 11.7133L25.8193 11.6133L25.4903 11.6159L25.7652 11.7968L25.8201 11.7133ZM26.7991 12.3576L26.8934 12.391L26.9196 12.3171L26.8541 12.274L26.7991 12.3576ZM27.0382 11.7035L27.039 11.8035L27.1076 11.803L27.1318 11.7388L27.0382 11.7035ZM27.425 10.6768L27.5186 10.6415L27.425 10.3932L27.3315 10.6415L27.425 10.6768ZM27.8119 11.7035L27.7183 11.7388L27.7425 11.803L27.8111 11.8035L27.8119 11.7035ZM29.03 11.7133L29.0849 11.7968L29.3598 11.6159L29.0308 11.6133L29.03 11.7133ZM28.051 12.3576L27.996 12.274L27.9305 12.3171L27.9567 12.391L28.051 12.3576ZM28.4169 13.3903L28.3634 13.4748L28.6079 13.6297L28.5112 13.3569L28.4169 13.3903ZM27.425 12.7618L27.4786 12.6773L27.425 12.6434L27.3715 12.6773L27.425 12.7618ZM26.4332 13.3903L26.3389 13.3569L26.2422 13.6297L26.4867 13.4748L26.4332 13.3903ZM26.7991 15.6424L26.8541 15.726L26.9195 15.6829L26.8933 15.609L26.7991 15.6424ZM26.4331 14.6097L26.4866 14.5252L26.2422 14.3703L26.3388 14.6431L26.4331 14.6097ZM25.8201 16.2867L25.7651 16.2032L25.4902 16.3841L25.8193 16.3867L25.8201 16.2867ZM27.0382 16.2965L27.1317 16.2612L27.1075 16.197L27.039 16.1965L27.0382 16.2965ZM27.425 17.3232L27.3314 17.3585L27.425 17.6068L27.5186 17.3585L27.425 17.3232ZM27.8118 16.2965L27.811 16.1965L27.7424 16.197L27.7182 16.2612L27.8118 16.2965ZM29.0299 16.2867L29.0307 16.3867L29.3597 16.3841L29.0849 16.2032L29.0299 16.2867ZM28.0509 15.6424L27.9566 15.609L27.9305 15.6829L27.9959 15.726L28.0509 15.6424ZM28.4169 14.6097L28.5111 14.6431L28.6078 14.3703L28.3634 14.5252L28.4169 14.6097ZM27.425 15.2382L27.3715 15.3227L27.425 15.3566L27.4785 15.3227L27.425 15.2382ZM25.0138 17.2732L25.1074 17.2379L25.0138 16.9896L24.9202 17.2379L25.0138 17.2732ZM24.627 18.2999L24.6278 18.3999L24.6964 18.3994L24.7206 18.3352L24.627 18.2999ZM25.4007 18.2999L25.3071 18.3352L25.3313 18.3994L25.3999 18.3999L25.4007 18.2999ZM26.6187 18.3097L26.6737 18.3932L26.9486 18.2123L26.6195 18.2097L26.6187 18.3097ZM25.6397 18.954L25.5848 18.8704L25.5193 18.9135L25.5455 18.9874L25.6397 18.954ZM26.0057 19.9867L25.9522 20.0712L26.1966 20.2261L26.1 19.9533L26.0057 19.9867ZM25.0138 19.3582L25.0673 19.2737L25.0138 19.2398L24.9603 19.2737L25.0138 19.3582ZM24.0219 19.9867L23.9277 19.9533L23.831 20.2261L24.0755 20.0712L24.0219 19.9867ZM24.3879 18.954L24.4822 18.9874L24.5083 18.9135L24.4429 18.8704L24.3879 18.954ZM23.4089 18.3097L23.4081 18.2097L23.0791 18.2123L23.3539 18.3932L23.4089 18.3097ZM21.1124 19.315L21.0589 19.3995L21.1124 19.4334L21.1659 19.3995L21.1124 19.315ZM22.1043 18.6865L22.1986 18.7199L22.2952 18.4471L22.0508 18.602L22.1043 18.6865ZM20.1205 18.6865L20.1741 18.602L19.9296 18.4471L20.0263 18.7199L20.1205 18.6865ZM20.4865 19.7192L20.5415 19.8028L20.6069 19.7597L20.5808 19.6858L20.4865 19.7192ZM19.5075 20.3635L19.4525 20.28L19.1777 20.4609L19.5067 20.4635L19.5075 20.3635ZM20.7256 20.3733L20.8192 20.338L20.795 20.2738L20.7264 20.2733L20.7256 20.3733ZM21.1124 21.4L21.0188 21.4353L21.1124 21.6836L21.206 21.4353L21.1124 21.4ZM21.4993 20.3733L21.4985 20.2733L21.4299 20.2738L21.4057 20.338L21.4993 20.3733ZM22.7173 20.3635L22.7181 20.4635L23.0472 20.4609L22.7723 20.28L22.7173 20.3635ZM21.7383 19.7192L21.6441 19.6858L21.6179 19.7597L21.6834 19.8028L21.7383 19.7192ZM18.8159 18.3097L18.8709 18.3932L19.1457 18.2123L18.8167 18.2097L18.8159 18.3097ZM17.5978 18.2999L17.5042 18.3352L17.5284 18.3994L17.597 18.3999L17.5978 18.2999ZM17.8369 18.954L17.7819 18.8704L17.7165 18.9135L17.7426 18.9874L17.8369 18.954ZM18.2029 19.9867L18.1493 20.0712L18.3938 20.2261L18.2971 19.9533L18.2029 19.9867ZM17.211 19.3582L17.2645 19.2737L17.211 19.2398L17.1574 19.2737L17.211 19.3582ZM16.2191 19.9867L16.1248 19.9533L16.0282 20.2261L16.2726 20.0712L16.2191 19.9867ZM16.5851 18.954L16.6793 18.9874L16.7055 18.9135L16.64 18.8704L16.5851 18.954ZM15.6061 18.3097L15.6053 18.2097L15.2762 18.2123L15.5511 18.3932L15.6061 18.3097ZM16.8241 18.2999L16.8249 18.3999L16.8935 18.3994L16.9177 18.3352L16.8241 18.2999ZM17.211 17.2732L17.3046 17.2379L17.211 16.9896L17.1174 17.2379L17.211 17.2732ZM15.4256 15.6424L15.3314 15.609L15.3052 15.6829L15.3707 15.726L15.4256 15.6424ZM16.4046 16.2867L16.4054 16.3867L16.7345 16.3841L16.4596 16.2032L16.4046 16.2867ZM15.7916 14.6097L15.8859 14.6431L15.9825 14.3703L15.7381 14.5252L15.7916 14.6097ZM14.7997 15.2382L14.7462 15.3227L14.7997 15.3566L14.8533 15.3227L14.7997 15.2382ZM13.8078 14.6097L13.8614 14.5252L13.6169 14.3703L13.7136 14.6431L13.8078 14.6097ZM14.1738 15.6424L14.2288 15.726L14.2942 15.6829L14.2681 15.609L14.1738 15.6424ZM13.1948 16.2867L13.1398 16.2032L12.865 16.3841L13.194 16.3867L13.1948 16.2867ZM14.4129 16.2965L14.5065 16.2612L14.4823 16.197L14.4137 16.1965L14.4129 16.2965ZM14.7997 17.3232L14.7062 17.3585L14.7997 17.6068L14.8933 17.3585L14.7997 17.3232ZM15.1866 16.2965L15.1858 16.1965L15.1172 16.197L15.093 16.2612L15.1866 16.2965ZM15.7917 13.3903L15.7381 13.4748L15.9826 13.6297L15.8859 13.3569L15.7917 13.3903ZM15.4257 12.3576L15.3707 12.274L15.3053 12.3171L15.3314 12.391L15.4257 12.3576ZM14.7998 12.7618L14.8533 12.6773L14.7998 12.6434L14.7463 12.6773L14.7998 12.7618ZM13.8079 13.3903L13.7136 13.3569L13.617 13.6297L13.8614 13.4748L13.8079 13.3903ZM14.1739 12.3576L14.2681 12.391L14.2943 12.3171L14.2288 12.274L14.1739 12.3576ZM13.1949 11.7133L13.1941 11.6133L12.865 11.6159L13.1399 11.7968L13.1949 11.7133ZM14.413 11.7035L14.4138 11.8035L14.4823 11.803L14.5065 11.7388L14.413 11.7035ZM14.7998 10.6768L14.8934 10.6415L14.7998 10.3932L14.7062 10.6415L14.7998 10.6768ZM15.1866 11.7035L15.093 11.7388L15.1172 11.803L15.1858 11.8035L15.1866 11.7035ZM16.4047 11.7133L16.4597 11.7968L16.7345 11.6159L16.4055 11.6133L16.4047 11.7133ZM17.5978 9.70008L17.597 9.60008L17.5284 9.60063L17.5042 9.66482L17.5978 9.70008ZM17.211 10.7268L17.1174 10.7621L17.211 11.0104L17.3045 10.7621L17.211 10.7268ZM18.8159 9.69033L18.8167 9.79033L19.1457 9.78769L18.8708 9.6068L18.8159 9.69033ZM17.8369 9.04603L17.7426 9.01263L17.7164 9.08649L17.7819 9.12956L17.8369 9.04603ZM18.2028 8.01328L18.2971 8.04668L18.3938 7.77392L18.1493 7.92881L18.2028 8.01328ZM17.211 8.64181L17.1574 8.72628L17.211 8.76019L17.2645 8.72628L17.211 8.64181ZM16.2191 8.01328L16.2726 7.92881L16.0282 7.77392L16.1248 8.04668L16.2191 8.01328ZM16.585 9.04603L16.64 9.12956L16.7055 9.08649L16.6793 9.01263L16.585 9.04603ZM15.6061 9.69033L15.5511 9.6068L15.2762 9.78769L15.6053 9.79033L15.6061 9.69033ZM16.8241 9.70008L16.9177 9.66482L16.8935 9.60063L16.8249 9.60008L16.8241 9.70008ZM21.0589 8.60054L20.067 9.22906L20.1741 9.398L21.1659 8.76948L21.0589 8.60054ZM22.1578 9.22906L21.1659 8.60054L21.0589 8.76948L22.0508 9.398L22.1578 9.22906ZM21.6441 8.31418L22.0101 9.34693L22.1986 9.28013L21.8326 8.24738L21.6441 8.31418ZM22.6624 7.55295L21.6834 8.19725L21.7933 8.36431L22.7723 7.72001L22.6624 7.55295ZM21.4985 7.72673L22.7165 7.73648L22.7181 7.53648L21.5001 7.52673L21.4985 7.72673ZM21.0188 6.63526L21.4057 7.66199L21.5928 7.59147L21.206 6.56475L21.0188 6.63526ZM20.8192 7.66199L21.206 6.63526L21.0188 6.56475L20.632 7.59147L20.8192 7.66199ZM19.5083 7.73648L20.7264 7.72673L20.7248 7.52673L19.5067 7.53648L19.5083 7.73648ZM20.5415 8.19725L19.5625 7.55295L19.4525 7.72001L20.4315 8.36431L20.5415 8.19725ZM20.2148 9.34693L20.5808 8.31418L20.3923 8.24738L20.0263 9.28013L20.2148 9.34693ZM24.6278 9.60007L23.4097 9.59032L23.4081 9.79032L24.6262 9.80007L24.6278 9.60007ZM25.1074 10.6915L24.7205 9.66481L24.5334 9.73533L24.9202 10.7621L25.1074 10.6915ZM25.3071 9.66481L24.9202 10.6915L25.1074 10.7621L25.4942 9.73533L25.3071 9.66481ZM26.6179 9.59032L25.3998 9.60007L25.4014 9.80007L26.6195 9.79032L26.6179 9.59032ZM25.5847 9.12955L26.5637 9.77385L26.6737 9.60679L25.6947 8.96249L25.5847 9.12955ZM25.9114 7.97987L25.5455 9.01262L25.734 9.07942L26.0999 8.04667L25.9114 7.97987ZM25.0673 8.72626L26.0592 8.09774L25.9522 7.9288L24.9603 8.55733L25.0673 8.72626ZM23.9684 8.09774L24.9603 8.72626L25.0673 8.55733L24.0754 7.9288L23.9684 8.09774ZM24.4821 9.01262L24.1162 7.97987L23.9277 8.04667L24.2936 9.07942L24.4821 9.01262ZM23.4639 9.77385L24.4429 9.12955L24.3329 8.96249L23.3539 9.60679L23.4639 9.77385ZM25.7652 11.7968L26.7442 12.4411L26.8541 12.274L25.8751 11.6297L25.7652 11.7968ZM27.0374 11.6035L25.8193 11.6133L25.8209 11.8133L27.039 11.8035L27.0374 11.6035ZM27.3315 10.6415L26.9446 11.6683L27.1318 11.7388L27.5186 10.712L27.3315 10.6415ZM27.9055 11.6683L27.5186 10.6415L27.3315 10.712L27.7183 11.7388L27.9055 11.6683ZM29.0308 11.6133L27.8127 11.6035L27.8111 11.8035L29.0292 11.8133L29.0308 11.6133ZM28.1059 12.4411L29.0849 11.7968L28.975 11.6297L27.996 12.274L28.1059 12.4411ZM28.5112 13.3569L28.1452 12.3242L27.9567 12.391L28.3227 13.4237L28.5112 13.3569ZM27.3715 12.8463L28.3634 13.4748L28.4705 13.3058L27.4786 12.6773L27.3715 12.8463ZM26.4867 13.4748L27.4786 12.8463L27.3715 12.6773L26.3796 13.3058L26.4867 13.4748ZM26.7049 12.3242L26.3389 13.3569L26.5274 13.4237L26.8934 12.391L26.7049 12.3242ZM26.8933 15.609L26.5274 14.5763L26.3388 14.6431L26.7048 15.6758L26.8933 15.609ZM25.8751 16.3703L26.8541 15.726L26.7441 15.5589L25.7651 16.2032L25.8751 16.3703ZM27.039 16.1965L25.8209 16.1867L25.8193 16.3867L27.0374 16.3965L27.039 16.1965ZM27.5186 17.2879L27.1317 16.2612L26.9446 16.3317L27.3314 17.3585L27.5186 17.2879ZM27.7182 16.2612L27.3314 17.2879L27.5186 17.3585L27.9054 16.3317L27.7182 16.2612ZM29.0291 16.1867L27.811 16.1965L27.8126 16.3965L29.0307 16.3867L29.0291 16.1867ZM27.9959 15.726L28.9749 16.3703L29.0849 16.2032L28.1059 15.5589L27.9959 15.726ZM28.3226 14.5763L27.9566 15.609L28.1452 15.6758L28.5111 14.6431L28.3226 14.5763ZM27.4785 15.3227L28.4704 14.6941L28.3634 14.5252L27.3715 15.1537L27.4785 15.3227ZM26.3796 14.6941L27.3715 15.3227L27.4785 15.1537L26.4866 14.5252L26.3796 14.6941ZM24.9202 17.2379L24.5334 18.2647L24.7206 18.3352L25.1074 17.3085L24.9202 17.2379ZM25.4942 18.2647L25.1074 17.2379L24.9202 17.3085L25.3071 18.3352L25.4942 18.2647ZM26.6195 18.2097L25.4015 18.1999L25.3999 18.3999L26.6179 18.4097L26.6195 18.2097ZM25.6947 19.0375L26.6737 18.3932L26.5638 18.2261L25.5848 18.8704L25.6947 19.0375ZM26.1 19.9533L25.734 18.9206L25.5455 18.9874L25.9115 20.0201L26.1 19.9533ZM24.9603 19.4427L25.9522 20.0712L26.0592 19.9023L25.0673 19.2737L24.9603 19.4427ZM24.0755 20.0712L25.0673 19.4427L24.9603 19.2737L23.9684 19.9023L24.0755 20.0712ZM24.2936 18.9206L23.9277 19.9533L24.1162 20.0201L24.4822 18.9874L24.2936 18.9206ZM23.3539 18.3932L24.3329 19.0375L24.4429 18.8704L23.4639 18.2261L23.3539 18.3932ZM24.6262 18.1999L23.4081 18.2097L23.4097 18.4097L24.6278 18.3999L24.6262 18.1999ZM21.1659 19.3995L22.1578 18.7709L22.0508 18.602L21.0589 19.2305L21.1659 19.3995ZM20.067 18.7709L21.0589 19.3995L21.1659 19.2305L20.1741 18.602L20.067 18.7709ZM20.5808 19.6858L20.2148 18.6531L20.0263 18.7199L20.3923 19.7526L20.5808 19.6858ZM19.5625 20.4471L20.5415 19.8028L20.4315 19.6357L19.4525 20.28L19.5625 20.4471ZM20.7264 20.2733L19.5083 20.2635L19.5067 20.4635L20.7248 20.4733L20.7264 20.2733ZM21.206 21.3647L20.8192 20.338L20.632 20.4085L21.0188 21.4353L21.206 21.3647ZM21.4057 20.338L21.0188 21.3647L21.206 21.4353L21.5928 20.4085L21.4057 20.338ZM22.7165 20.2635L21.4985 20.2733L21.5001 20.4733L22.7181 20.4635L22.7165 20.2635ZM21.6834 19.8028L22.6624 20.4471L22.7723 20.28L21.7933 19.6357L21.6834 19.8028ZM22.0101 18.6531L21.6441 19.6858L21.8326 19.7526L22.1986 18.7199L22.0101 18.6531ZM18.8167 18.2097L17.5986 18.1999L17.597 18.3999L18.8151 18.4097L18.8167 18.2097ZM17.8919 19.0375L18.8709 18.3932L18.7609 18.2261L17.7819 18.8704L17.8919 19.0375ZM18.2971 19.9533L17.9311 18.9206L17.7426 18.9874L18.1086 20.0201L18.2971 19.9533ZM17.1574 19.4427L18.1493 20.0712L18.2564 19.9023L17.2645 19.2737L17.1574 19.4427ZM16.2726 20.0712L17.2645 19.4427L17.1574 19.2737L16.1656 19.9023L16.2726 20.0712ZM16.4908 18.9206L16.1248 19.9533L16.3133 20.0201L16.6793 18.9874L16.4908 18.9206ZM15.5511 18.3932L16.5301 19.0375L16.64 18.8704L15.661 18.2261L15.5511 18.3932ZM16.8233 18.1999L15.6053 18.2097L15.6069 18.4097L16.8249 18.3999L16.8233 18.1999ZM17.1174 17.2379L16.7306 18.2647L16.9177 18.3352L17.3046 17.3085L17.1174 17.2379ZM17.6914 18.2647L17.3046 17.2379L17.1174 17.3085L17.5042 18.3352L17.6914 18.2647ZM15.3707 15.726L16.3497 16.3703L16.4596 16.2032L15.4806 15.5589L15.3707 15.726ZM15.6974 14.5763L15.3314 15.609L15.5199 15.6758L15.8859 14.6431L15.6974 14.5763ZM14.8533 15.3227L15.8451 14.6942L15.7381 14.5252L14.7462 15.1537L14.8533 15.3227ZM13.7543 14.6942L14.7462 15.3227L14.8533 15.1537L13.8614 14.5252L13.7543 14.6942ZM14.2681 15.609L13.9021 14.5763L13.7136 14.6431L14.0796 15.6758L14.2681 15.609ZM13.2498 16.3703L14.2288 15.726L14.1188 15.5589L13.1398 16.2032L13.2498 16.3703ZM14.4137 16.1965L13.1956 16.1867L13.194 16.3867L14.4121 16.3965L14.4137 16.1965ZM14.8933 17.288L14.5065 16.2612L14.3193 16.3317L14.7062 17.3585L14.8933 17.288ZM15.093 16.2612L14.7062 17.288L14.8933 17.3585L15.2801 16.3317L15.093 16.2612ZM16.4038 16.1867L15.1858 16.1965L15.1874 16.3965L16.4054 16.3867L16.4038 16.1867ZM15.8859 13.3569L15.52 12.3242L15.3314 12.391L15.6974 13.4237L15.8859 13.3569ZM14.7463 12.8463L15.7381 13.4748L15.8452 13.3059L14.8533 12.6773L14.7463 12.8463ZM13.8614 13.4748L14.8533 12.8463L14.7463 12.6773L13.7544 13.3059L13.8614 13.4748ZM14.0796 12.3242L13.7136 13.3569L13.9022 13.4237L14.2681 12.391L14.0796 12.3242ZM13.1399 11.7968L14.1189 12.4411L14.2288 12.274L13.2499 11.6297L13.1399 11.7968ZM14.4122 11.6035L13.1941 11.6133L13.1957 11.8133L14.4138 11.8035L14.4122 11.6035ZM14.7062 10.6415L14.3194 11.6683L14.5065 11.7388L14.8934 10.7121L14.7062 10.6415ZM15.2802 11.6683L14.8934 10.6415L14.7062 10.7121L15.093 11.7388L15.2802 11.6683ZM16.4055 11.6133L15.1874 11.6035L15.1858 11.8035L16.4039 11.8133L16.4055 11.6133ZM15.4807 12.4411L16.4597 11.7968L16.3497 11.6297L15.3707 12.274L15.4807 12.4411ZM17.5042 9.66482L17.1174 10.6915L17.3045 10.7621L17.6914 9.73534L17.5042 9.66482ZM18.8151 9.59033L17.597 9.60008L17.5986 9.80008L18.8167 9.79033L18.8151 9.59033ZM17.7819 9.12956L18.7609 9.77386L18.8708 9.6068L17.8918 8.9625L17.7819 9.12956ZM18.1086 7.97988L17.7426 9.01263L17.9311 9.07943L18.2971 8.04668L18.1086 7.97988ZM17.2645 8.72628L18.2564 8.09775L18.1493 7.92881L17.1574 8.55734L17.2645 8.72628ZM16.1655 8.09775L17.1574 8.72628L17.2645 8.55734L16.2726 7.92881L16.1655 8.09775ZM16.6793 9.01263L16.3133 7.97988L16.1248 8.04668L16.4908 9.07943L16.6793 9.01263ZM15.661 9.77386L16.64 9.12956L16.5301 8.9625L15.5511 9.6068L15.661 9.77386ZM16.8249 9.60008L15.6069 9.59033L15.6053 9.79033L16.8233 9.80008L16.8249 9.60008ZM17.3045 10.6915L16.9177 9.66482L16.7305 9.73534L17.1174 10.7621L17.3045 10.6915Z" fill="#FECA00" mask="url(#path-14-inside-1_5_10404)"/>
</g>
</g>
</g>
<defs>
<filter id="filter0_dd_5_10404" x="0" y="0" width="42" height="30" filterUnits="userSpaceOnUse" color-interpolation-filters="sRGB">
<feFlood flood-opacity="0" result="BackgroundImageFix"/>
<feColorMatrix in="SourceAlpha" type="matrix" values="0 0 0 0 0 0 0 0 0 0 0 0 0 0 0 0 0 0 127 0" result="hardAlpha"/>
<feOffset dy="1"/>
<feGaussianBlur stdDeviation="1"/>
<feColorMatrix type="matrix" values="0 0 0 0 0.0627451 0 0 0 0 0.0941176 0 0 0 0 0.156863 0 0 0 0.06 0"/>
<feBlend mode="normal" in2="BackgroundImageFix" result="effect1_dropShadow_5_10404"/>
<feColorMatrix in="SourceAlpha" type="matrix" values="0 0 0 0 0 0 0 0 0 0 0 0 0 0 0 0 0 0 127 0" result="hardAlpha"/>
<feOffset dy="1"/>
<feGaussianBlur stdDeviation="1.5"/>
<feColorMatrix type="matrix" values="0 0 0 0 0.0627451 0 0 0 0 0.0941176 0 0 0 0 0.156863 0 0 0 0.1 0"/>
<feBlend mode="normal" in2="effect1_dropShadow_5_10404" result="effect2_dropShadow_5_10404"/>
<feBlend mode="normal" in="SourceGraphic" in2="effect2_dropShadow_5_10404" result="shape"/>
</filter>
</defs>
</svg>
