<svg width="42" height="30" viewBox="0 0 42 30" fill="none" xmlns="http://www.w3.org/2000/svg">
<g filter="url(#filter0_dd_5_7351)">
<mask id="mask0_5_7351" style="mask-type:alpha" maskUnits="userSpaceOnUse" x="3" y="2" width="36" height="24">
<rect x="3" y="2" width="36" height="24" fill="white"/>
</mask>
<g mask="url(#mask0_5_7351)">
<path fill-rule="evenodd" clip-rule="evenodd" d="M3 2V26H39V2H3Z" fill="#2E42A5"/>
<mask id="mask1_5_7351" style="mask-type:alpha" maskUnits="userSpaceOnUse" x="3" y="2" width="36" height="24">
<path fill-rule="evenodd" clip-rule="evenodd" d="M3 2V26H39V2H3Z" fill="white"/>
</mask>
<g mask="url(#mask1_5_7351)">
<rect x="3" y="2" width="20.25" height="14" fill="#2B409A"/>
<mask id="mask2_5_7351" style="mask-type:alpha" maskUnits="userSpaceOnUse" x="3" y="2" width="21" height="14">
<rect x="3" y="2" width="20.25" height="14" fill="white"/>
</mask>
<g mask="url(#mask2_5_7351)">
<path d="M0.745239 14.9997L5.20131 16.7369L23.3512 3.88866L25.7016 1.30713L20.9365 0.726505L13.5336 6.2632L7.57505 9.99363L0.745239 14.9997Z" fill="#F7FCFF"/>
<path d="M1.35522 16.217L3.62539 17.2251L24.8575 1.06738H21.67L1.35522 16.217Z" fill="#F50100"/>
<path d="M25.5048 14.9997L21.0487 16.7369L2.89885 3.88866L0.54837 1.30713L5.3135 0.726505L12.7164 6.2632L18.6749 9.99363L25.5048 14.9997Z" fill="#F7FCFF"/>
<path d="M25.3528 15.8733L23.0826 16.8815L14.0418 9.96351L11.3613 9.19059L0.322273 1.31605H3.50984L14.5427 9.00368L17.4733 9.9305L25.3528 15.8733Z" fill="#F50100"/>
<mask id="path-11-outside-1_5_7351" maskUnits="userSpaceOnUse" x="1" y="0" width="24" height="18" fill="black">
<rect fill="white" x="1" width="24" height="18"/>
<path fill-rule="evenodd" clip-rule="evenodd" d="M14.2326 2H11.9826V8H3V10H11.9826V16H14.2326V10H23.25V8H14.2326V2Z"/>
</mask>
<path fill-rule="evenodd" clip-rule="evenodd" d="M14.2326 2H11.9826V8H3V10H11.9826V16H14.2326V10H23.25V8H14.2326V2Z" fill="#F50100"/>
<path d="M11.9826 2V0.5H10.4826V2H11.9826ZM14.2326 2H15.7326V0.5H14.2326V2ZM11.9826 8V9.5H13.4826V8H11.9826ZM3 8V6.5H1.5V8H3ZM3 10H1.5V11.5H3V10ZM11.9826 10H13.4826V8.5H11.9826V10ZM11.9826 16H10.4826V17.5H11.9826V16ZM14.2326 16V17.5H15.7326V16H14.2326ZM14.2326 10V8.5H12.7326V10H14.2326ZM23.25 10V11.5H24.75V10H23.25ZM23.25 8H24.75V6.5H23.25V8ZM14.2326 8H12.7326V9.5H14.2326V8ZM11.9826 3.5H14.2326V0.5H11.9826V3.5ZM13.4826 8V2H10.4826V8H13.4826ZM3 9.5H11.9826V6.5H3V9.5ZM4.5 10V8H1.5V10H4.5ZM11.9826 8.5H3V11.5H11.9826V8.5ZM13.4826 16V10H10.4826V16H13.4826ZM14.2326 14.5H11.9826V17.5H14.2326V14.5ZM12.7326 10V16H15.7326V10H12.7326ZM23.25 8.5H14.2326V11.5H23.25V8.5ZM21.75 8V10H24.75V8H21.75ZM14.2326 9.5H23.25V6.5H14.2326V9.5ZM12.7326 2V8H15.7326V2H12.7326Z" fill="#F7FCFF" mask="url(#path-11-outside-1_5_7351)"/>
</g>
<path fill-rule="evenodd" clip-rule="evenodd" d="M26.1931 12.7568C26.1931 12.7568 26.3042 13.8515 26.0607 14.4718C25.8171 15.0921 25.6934 15.4521 25.6934 15.0556C25.6934 14.6592 25.5223 14.3449 25.3848 14.3449C25.2472 14.3449 25.3558 14.7381 25.2176 14.7381C25.0793 14.7381 24.603 14.8057 24.603 14.5753C24.603 14.3449 24.5404 15.1934 24.8494 15.2693C25.1585 15.3452 24.6994 15.5806 24.4944 15.5077C24.4944 15.5077 25.3375 15.7513 25.6681 15.9589C25.6681 15.9589 26.6593 17.0587 27.5863 16.9245C27.5863 16.9245 26.324 16.5372 26.5464 15.7971C26.7688 15.0571 27.5863 14.95 27.5863 14.95C27.5863 14.95 27.97 15.0641 27.9584 15.3628C27.9469 15.6615 28.239 15.2693 28.239 15.2693C28.239 15.2693 28.286 14.8918 28.2342 14.7997C28.1823 14.7076 29.1128 14.5293 29.1715 14.1407C29.1715 14.1407 28.2207 14.1793 28.1555 14.0795C28.0902 13.9796 28.4497 13.8231 28.3373 13.6284C28.2248 13.4338 26.5464 14.7381 26.5464 14.7381C26.5464 14.7381 27.126 13.8503 27.126 13.3736C27.126 12.8968 26.9788 12.571 26.5464 12.571C26.1141 12.571 26.1931 12.7568 26.1931 12.7568Z" fill="#5EAA22"/>
<path fill-rule="evenodd" clip-rule="evenodd" d="M34.931 13.0176C34.93 13.0191 34.9319 13.0207 34.9333 13.0195C34.993 12.967 35.3802 12.6481 35.7045 12.8982C36.0568 13.1701 35.5269 13.4351 35.5269 13.4351C35.5269 13.4351 35.7746 13.6486 36.0579 13.6486C36.3412 13.6486 36.4107 13.4351 36.4107 13.4351C36.4107 13.4351 36.4323 13.9103 37.3562 14.0903C37.3562 14.0903 37.6858 13.6696 37.3562 13.4393C37.3562 13.4393 37.7456 13.3675 37.7173 13.0871C37.7173 13.0871 37.3972 13.1841 37.1689 12.9613C36.9406 12.7385 36.4957 12.6357 36.1722 12.6871C35.3491 12.4232 34.9796 12.942 34.931 13.0176Z" fill="#5EAA22"/>
<path fill-rule="evenodd" clip-rule="evenodd" d="M29.3291 15.4149C29.3291 15.4149 30.2845 17.0123 29.6873 17.3433C29.0902 17.6742 32.5266 17.4388 32.8503 17.3433C33.1741 17.2477 32.785 16.7441 32.4259 16.6043C32.0669 16.4644 30.5906 15.9992 30.1979 15.6484C29.8052 15.2976 30.045 15.1731 30.3613 14.8267C30.6776 14.4804 31.8485 14.3419 31.8485 14.0182C31.8485 13.6945 32.5912 12.3594 33.1104 12.2587C33.6295 12.158 33.349 11.9994 33.2297 11.9994C33.1104 11.9994 32.3927 12.6569 32.1206 12.5383C31.8485 12.4196 31.8153 12.428 32.1206 12.1412C32.4259 11.8545 32.6557 11.5244 32.2521 11.7619C31.8485 11.9994 31.1831 12.3752 30.8632 12.3752C30.5433 12.3752 29.4046 12.247 29.546 12.5383C29.6873 12.8295 29.7473 13.3351 30.3613 13.6766C30.9754 14.0182 30.7085 14.2681 30.1979 14.5973C29.6873 14.9264 29.3291 15.4149 29.3291 15.4149Z" fill="#96877D"/>
<path d="M35.6685 13.3026L33.848 16.548C33.848 16.548 33.795 17.4647 35.0964 16.8538C36.3979 16.243 36.3467 15.8097 36.7219 15.8097C37.0971 15.8097 37.2163 15.6245 37.2163 15.6245L36.9664 15.4498C36.9664 15.4498 36.9375 15.1311 37.0958 15.0595C37.0958 15.0595 36.7852 14.9074 36.7408 15.0344C36.6964 15.1614 36.4774 14.7688 36.6013 14.7688C36.6013 14.7688 36.3275 15.163 36.2697 15.3167C36.2697 15.3167 35.8734 15.1735 35.8924 14.51C35.9114 13.8465 35.6685 13.3026 35.6685 13.3026Z" fill="#FFD018"/>
<path d="M27.0034 12.7886C27.0034 12.7886 26.0764 12.9805 26.1764 13.1801C26.2763 13.3797 26.4236 13.1747 25.9698 13.4153C25.9698 13.4153 25.1725 13.9633 24.9987 13.9039C24.8249 13.8445 25.1218 14.0419 25.1218 13.4153C25.1218 12.7886 24.6588 13.2987 25.1218 12.8804C25.5848 12.4621 25.7471 12.7886 25.9698 12.5479C26.1924 12.3073 25.9923 12.4352 26.5963 12.4352C27.2003 12.4352 27.0034 12.7886 27.0034 12.7886Z" fill="#FFD018"/>
<path d="M29.8319 16.014C29.8319 16.014 27.2365 17.827 26.7177 17.9624C26.199 18.0977 27.7846 17.9251 28.172 17.6858C28.5594 17.4464 29.8319 16.014 29.8319 16.014Z" fill="#FFD018"/>
<path fill-rule="evenodd" clip-rule="evenodd" d="M34.9777 19.1945C34.9777 19.1945 35.2268 20.623 34.5765 20.4824C33.9261 20.3418 33.6562 20.2691 33.6562 20.2691C33.6562 20.2691 33.8948 20.9344 34.2356 20.9344C34.2356 20.9344 34.8164 21.9404 34.5929 22.2581C34.5929 22.2581 35.5933 21.5367 35.4316 20.9631C35.2698 20.3895 35.6901 21.0575 35.6901 21.0575C35.6901 21.0575 36.0583 21.2155 36.3244 21.0391C36.5905 20.8626 36.321 20.941 36.0549 20.6051C35.7888 20.2691 35.8545 19.3256 35.0451 18.8366C34.2356 18.3475 34.0472 18.3632 34.0472 18.3632C34.0472 18.3632 33.4511 17.4968 33.8082 17.5541C33.8082 17.5541 36.3678 18.334 36.4343 18.5339C36.5008 18.7338 37.1796 18.6972 36.8402 18.1256C36.5008 17.5541 34.6712 17.2096 34.4534 17.0485C34.2356 16.8873 34.4382 16.2759 34.0472 16.1428C33.6562 16.0096 32.5879 15.0646 32.5886 14.6092C32.5893 14.1538 32.0865 13.9394 31.6494 13.9394C31.2123 13.9394 30.3893 13.8271 30.0416 13.8271C29.6939 13.8271 29.3698 14.3442 29.7057 14.3442C30.0416 14.3442 29.7547 15.3121 29.1922 15.5237C28.6298 15.7352 28.195 16.0393 27.5527 16.0393C26.9105 16.0393 28.4619 16.5315 28.7092 16.3371C28.9565 16.1428 28.8753 15.8531 29.7057 15.5237C30.5361 15.1942 31.3287 14.9992 31.2283 15.2614C31.128 15.5237 31.384 15.9623 31.7752 15.8036C32.1664 15.6448 32.2919 15.2438 32.2919 15.5237C32.2919 15.8036 32.8917 17.2411 33.35 17.8021C33.8082 18.3632 34.9777 19.1945 34.9777 19.1945Z" fill="#5EAA22"/>
<path d="M29.5175 13.9454C29.5175 13.9454 29.2132 14.3764 29.5175 14.3764C29.8218 14.3764 30.3113 14.3764 30.0131 14.1609C29.7149 13.9454 29.5175 13.9454 29.5175 13.9454Z" fill="#FFD018"/>
<path d="M30.5343 13.9351C30.5343 13.9351 30.5358 14.2216 30.7467 14.2216C30.9576 14.2216 31.1452 14.5082 31.1452 14.2216C31.1452 13.9351 31.4383 14.0301 30.9863 13.9351C30.5343 13.8401 30.5343 13.9351 30.5343 13.9351Z" fill="#FFD018"/>
<path d="M31.8333 14.0007C31.8333 14.0007 31.63 14.1368 31.7316 14.3795C31.8333 14.6222 32.0633 15.1026 31.7316 15.1026C31.4 15.1026 31.1272 15.2757 31.3862 15.2757C31.6453 15.2757 32.1061 15.4489 32.1061 15.2757C32.1061 15.1026 32.2936 15.5613 32.2936 15.2757C32.2936 14.9902 32.2936 14.8537 32.2936 14.6863C32.2936 14.5188 32.4811 14.4707 32.2936 14.2357C32.1061 14.0007 31.8333 14.0007 31.8333 14.0007Z" fill="#FFD018"/>
<path d="M32.303 15.6716C32.303 15.6716 32.7267 16.8571 32.9571 17.0099C33.1876 17.1627 33.291 18.4501 33.3921 18.5901C33.4932 18.7301 34.8711 19.4365 34.8711 19.8157C34.8711 20.1948 35.2953 19.5243 35.0832 19.1489C34.8711 18.7735 34.2032 17.9742 33.7228 17.7999C33.2424 17.6256 33.3033 17.2035 33.2024 16.9068C33.1014 16.6102 33.8 17.1465 33.2024 16.4736C32.6047 15.8008 32.6206 16.1618 32.7889 16.1618C32.9571 16.1618 33.1254 16.0823 32.9571 15.9778C32.7889 15.8732 32.303 15.6716 32.303 15.6716Z" fill="#FFD018"/>
<path d="M27.8108 18.1163C27.8108 18.1163 26.4345 20.277 26.1889 20.3886C25.9433 20.5002 25.7602 20.5229 25.6347 20.3886C25.5092 20.2543 25.4963 20.7491 25.6347 20.8845C25.7731 21.02 26.1889 21.02 26.4196 20.7794C26.4196 20.7794 26.4561 21.3873 26.8156 21.8455C27.175 22.3037 27.3248 22.1772 27.3248 22.4364C27.3248 22.6955 27.4097 23.0386 27.5195 23.0386C27.6292 23.0386 27.7141 23.8543 27.5195 23.8543C27.3248 23.8543 27.9706 23.9212 28.2521 23.7172C28.5336 23.5132 28.6539 23.3578 28.5938 23.3578C28.5336 23.3578 27.8108 23.0196 27.8108 22.7803C27.8108 22.5411 27.3248 22.3537 27.3248 21.9985C27.3248 21.6432 27.0723 21.2209 27.0723 21.0527C27.0723 20.8845 27.2882 21.1176 27.5195 20.9583C27.7507 20.7991 27.8108 20.3886 27.8108 20.3886C27.8108 20.3886 27.4466 20.6058 27.3248 20.4972C27.203 20.3886 26.8198 20.1742 27.0723 19.8064C27.3248 19.4386 27.8108 18.1163 27.8108 18.1163Z" fill="#FFD018"/>
<path fill-rule="evenodd" clip-rule="evenodd" d="M30.1961 11.3021C30.1961 11.3021 29.7032 11.497 29.8675 11.7865C30.0318 12.076 30.0908 12.2042 30.1961 12.1401C30.3013 12.076 31.0396 11.9548 30.8742 11.6285C30.7089 11.3021 30.3624 11.3021 30.3624 11.3021H30.1961Z" fill="#5EAA22"/>
<path d="M31.9057 11.1456C31.9057 11.1456 31.2547 10.8896 31.4717 11.1456C31.6887 11.4016 31.9663 11.5366 32.166 11.5366C32.3657 11.5366 32.7807 11.4837 32.5732 11.3804C32.3657 11.2771 31.9057 11.1456 31.9057 11.1456Z" fill="#FFD018"/>
<path fill-rule="evenodd" clip-rule="evenodd" d="M25.4795 17.7981C25.4827 17.7828 25.4649 17.7711 25.453 17.7812C25.3217 17.8917 24.9048 18.2795 25.0793 18.6163C25.2851 19.0138 25.491 19.1519 25.491 19.1519C25.491 19.1519 25.6163 19.7604 25.8754 19.9261C25.8754 19.9261 26.2235 19.9102 26.2407 19.4365C26.2407 19.4365 26.8317 19.2824 27.0054 19.6104C27.0054 19.6104 26.8908 19.6473 26.8908 19.9261C26.8908 20.2048 27.1582 20.5068 27.1582 20.5068C27.1582 20.5068 27.2807 19.5454 27.831 18.9256C28.3813 18.3057 28.5388 18.1834 28.5388 18.1834V17.486C28.5388 17.486 27.4002 18.3107 27.1582 18.9964C27.1582 18.9964 26.5848 19.0134 26.3519 18.9256C26.1189 18.8378 26.6428 18.6938 26.3519 18.3817C26.0609 18.0696 26.1942 18.8211 25.8754 18.6163C25.3744 18.4925 25.4452 17.9611 25.4795 17.7981Z" fill="#5EAA22"/>
<path fill-rule="evenodd" clip-rule="evenodd" d="M27.9601 17.1947L33.7928 17.1947V20.3623C33.7928 20.3623 33.3173 22.9506 30.7772 24.2258C30.7772 24.2258 28.3168 22.9331 27.9601 20.3623V17.1947Z" fill="#5EAA22"/>
<mask id="mask3_5_7351" style="mask-type:alpha" maskUnits="userSpaceOnUse" x="27" y="17" width="7" height="8">
<path fill-rule="evenodd" clip-rule="evenodd" d="M27.9601 17.1947L33.7928 17.1947V20.3623C33.7928 20.3623 33.3173 22.9506 30.7772 24.2258C30.7772 24.2258 28.3168 22.9331 27.9601 20.3623V17.1947Z" fill="white"/>
</mask>
<g mask="url(#mask3_5_7351)">
<path fill-rule="evenodd" clip-rule="evenodd" d="M30.7332 17.0236L28.1848 21.7243L31.6408 18.9346L34.0193 22.4389V17.0236L31.6408 18.7567L30.7332 17.0236Z" fill="#58A5FF"/>
<path d="M30.6527 20.4348C30.6527 20.3298 30.7378 20.2446 30.8429 20.2446C30.9479 20.2446 31.033 20.3298 31.033 20.4348V23.4109C31.033 23.5159 30.9479 23.601 30.8429 23.601C30.7378 23.601 30.6527 23.5159 30.6527 23.4109L30.6527 20.4348Z" fill="#FFD018"/>
<path d="M29.9707 21.1578C29.879 21.1578 29.8047 21.0834 29.8047 20.9917C29.8047 20.9 29.879 20.8257 29.9707 20.8257H31.7304C31.8221 20.8257 31.8964 20.9 31.8964 20.9917C31.8964 21.0834 31.8221 21.1578 31.7304 21.1578H29.9707Z" fill="#FFD018"/>
<path d="M30.9179 23.4886L30.7707 23.5949C30.5538 23.3607 30.356 23.248 30.1812 23.248C29.9238 23.248 29.7145 23.0572 29.5438 22.6951L29.7194 22.6306C29.8638 22.9369 30.0209 23.0801 30.1812 23.0801C30.4242 23.0801 30.6685 23.2192 30.9179 23.4886Z" fill="#FFD018"/>
<path fill-rule="evenodd" clip-rule="evenodd" d="M29.3734 22.1187C29.3723 22.1179 29.3707 22.1186 29.3707 22.12V22.9364C29.3707 22.9375 29.3718 22.9383 29.3729 22.9379L30.0637 22.6851C30.0649 22.6847 30.0651 22.6831 30.0642 22.6824L29.3734 22.1187Z" fill="#FFD018"/>
<path d="M30.7617 23.4886L30.9089 23.5949C31.1258 23.3607 31.3236 23.248 31.4983 23.248C31.7558 23.248 31.9651 23.0572 32.1357 22.6951L31.9602 22.6306C31.8158 22.9369 31.6587 23.0801 31.4983 23.0801C31.2554 23.0801 31.0111 23.2192 30.7617 23.4886Z" fill="#FFD018"/>
<path fill-rule="evenodd" clip-rule="evenodd" d="M32.3062 22.1187C32.3072 22.1179 32.3088 22.1186 32.3088 22.12V22.9364C32.3088 22.9375 32.3077 22.9383 32.3067 22.9379L31.6159 22.6851C31.6147 22.6847 31.6144 22.6831 31.6154 22.6824L32.3062 22.1187Z" fill="#FFD018"/>
<rect x="30.4595" y="19.0586" width="0.760563" height="1.00733" fill="white"/>
</g>
</g>
</g>
</g>
<defs>
<filter id="filter0_dd_5_7351" x="0" y="0" width="42" height="30" filterUnits="userSpaceOnUse" color-interpolation-filters="sRGB">
<feFlood flood-opacity="0" result="BackgroundImageFix"/>
<feColorMatrix in="SourceAlpha" type="matrix" values="0 0 0 0 0 0 0 0 0 0 0 0 0 0 0 0 0 0 127 0" result="hardAlpha"/>
<feOffset dy="1"/>
<feGaussianBlur stdDeviation="1"/>
<feColorMatrix type="matrix" values="0 0 0 0 0.0627451 0 0 0 0 0.0941176 0 0 0 0 0.156863 0 0 0 0.06 0"/>
<feBlend mode="normal" in2="BackgroundImageFix" result="effect1_dropShadow_5_7351"/>
<feColorMatrix in="SourceAlpha" type="matrix" values="0 0 0 0 0 0 0 0 0 0 0 0 0 0 0 0 0 0 127 0" result="hardAlpha"/>
<feOffset dy="1"/>
<feGaussianBlur stdDeviation="1.5"/>
<feColorMatrix type="matrix" values="0 0 0 0 0.0627451 0 0 0 0 0.0941176 0 0 0 0 0.156863 0 0 0 0.1 0"/>
<feBlend mode="normal" in2="effect1_dropShadow_5_7351" result="effect2_dropShadow_5_7351"/>
<feBlend mode="normal" in="SourceGraphic" in2="effect2_dropShadow_5_7351" result="shape"/>
</filter>
</defs>
</svg>
