<svg width="42" height="30" viewBox="0 0 42 30" fill="none" xmlns="http://www.w3.org/2000/svg">
<g filter="url(#filter0_dd_5_8432)">
<mask id="mask0_5_8432" style="mask-type:alpha" maskUnits="userSpaceOnUse" x="3" y="2" width="36" height="24">
<rect x="3" y="2" width="36" height="24" fill="white"/>
</mask>
<g mask="url(#mask0_5_8432)">
<path fill-rule="evenodd" clip-rule="evenodd" d="M3 2V26H39V2H3Z" fill="#4EC7EE"/>
<mask id="mask1_5_8432" style="mask-type:alpha" maskUnits="userSpaceOnUse" x="3" y="2" width="36" height="24">
<path fill-rule="evenodd" clip-rule="evenodd" d="M3 2V26H39V2H3Z" fill="white"/>
</mask>
<g mask="url(#mask1_5_8432)">
<path d="M7.60128 25.2369C7.52988 25.7069 7.86857 26.0417 8.43672 26.2572C9.2005 26.5468 9.97117 26.2756 10.6801 25.5774L9.76139 24.8404C9.44649 25.1505 9.21893 25.27 9.04327 25.268C9.38722 25.0496 9.82789 24.7799 10.3647 24.4595L10.6223 24.1278C10.8292 23.3388 10.1858 22.9113 9.20453 22.9113C8.62655 22.9113 8.16447 23.0129 7.8713 23.2314C7.38964 23.5904 7.4721 24.1635 7.97897 24.4616C8.01917 24.4852 8.05998 24.5065 8.10134 24.5255C7.817 24.7389 7.64346 24.9593 7.60128 25.2369Z" fill="#FFE402"/>
<path d="M8.1355 24.4954C8.1355 24.4954 8.27588 24.2189 8.20569 24.075" stroke="#FFE402" stroke-width="1.1"/>
<path d="M12.6407 25.2369C12.7121 25.7069 12.3734 26.0417 11.8052 26.2572C11.0414 26.5468 10.2708 26.2756 9.56187 25.5774L10.4805 24.8404C10.7955 25.1505 11.023 25.27 11.1987 25.268C10.8547 25.0496 10.4141 24.7799 9.87728 24.4595L9.61964 24.1278C9.41271 23.3388 10.0561 22.9113 11.0374 22.9113C11.6154 22.9113 12.0775 23.0129 12.3706 23.2314C12.8523 23.5904 12.7698 24.1635 12.263 24.4616C12.2228 24.4852 12.182 24.5065 12.1406 24.5255C12.4249 24.7389 12.5985 24.9593 12.6407 25.2369Z" fill="#FFE402"/>
<path d="M12.6704 24.2692L11.5424 24.7216C11.3841 24.4097 11.3368 24.1263 11.4685 23.8562L12.6039 24.2937C12.6421 24.2155 12.6416 24.2124 12.6704 24.2692Z" fill="#FFE402"/>
<path d="M7.60128 2.763C7.52988 2.293 7.86857 1.95823 8.43672 1.74278C9.2005 1.45313 9.97117 1.72436 10.6801 2.42257L9.76139 3.15956C9.44649 2.8494 9.21893 2.72991 9.04327 2.73194C9.38722 2.95036 9.82789 3.22 10.3647 3.54042L10.6223 3.87214C10.8292 4.66114 10.1858 5.08866 9.20453 5.08866C8.62655 5.08866 8.16447 4.98701 7.8713 4.7685C7.38964 4.40953 7.4721 3.83648 7.97897 3.53834C8.01917 3.51469 8.05998 3.49341 8.10134 3.47445C7.817 3.26101 7.64346 3.04065 7.60128 2.763Z" fill="#FFE402"/>
<path d="M12.6407 2.763C12.7121 2.293 12.3734 1.95823 11.8052 1.74278C11.0414 1.45313 10.2708 1.72436 9.56187 2.42257L10.4805 3.15956C10.7955 2.8494 11.023 2.72991 11.1987 2.73194C10.8547 2.95036 10.4141 3.22 9.87728 3.54042L9.61964 3.87214C9.41271 4.66114 10.0561 5.08866 11.0374 5.08866C11.6154 5.08866 12.0775 4.98701 12.3706 4.7685C12.8523 4.40953 12.7698 3.83648 12.263 3.53834C12.2228 3.51469 12.182 3.49341 12.1406 3.47445C12.4249 3.26101 12.5985 3.04065 12.6407 2.763Z" fill="#FFE402"/>
<path fill-rule="evenodd" clip-rule="evenodd" d="M8.73057 22.063C8.02067 22.0812 7.57898 22.2113 7.57898 22.8196C7.57898 23.4903 8.31208 23.7002 9.09203 23.7002C9.79855 23.7002 10.5945 23.3104 10.5945 22.6124C10.5945 22.1877 9.98705 21.3307 8.45746 19.473C8.40445 19.4291 8.37525 19.4068 8.35187 19.4066C8.44463 19.3607 8.60799 19.307 8.82354 19.307C8.89838 19.307 8.99563 19.3406 9.09203 19.3837V20.1123H10.7114V19.5623C10.7114 18.9409 9.67805 18.207 8.82354 18.207C8.07727 18.207 7.47815 18.5225 7.17469 18.9765C6.87479 19.4251 7.10412 19.8558 7.5348 20.1983C8.1757 20.984 8.67332 21.6344 8.9854 22.0617C8.87074 22.0609 8.80778 22.061 8.73057 22.063ZM8.80665 22.5702C8.7842 22.5657 8.7626 22.5609 8.74241 22.5557C8.75744 22.5697 8.8165 22.6323 8.8165 22.8196C8.8165 22.9216 8.81098 22.9933 8.80357 23.0438C8.59478 22.8801 8.53641 22.5947 8.6892 22.375L8.69298 22.3695L8.80665 22.5702ZM8.74237 22.5557L8.72092 22.5498C8.72323 22.5505 8.72626 22.5518 8.7298 22.5538L8.74237 22.5557ZM9.35698 22.6124C9.35698 22.5936 9.3498 22.5824 9.33739 22.5764L9.34459 22.5834C9.35281 22.5985 9.35698 22.6082 9.35698 22.6124ZM8.69292 22.3695L8.66962 22.3283C8.67272 22.327 8.67581 22.3255 8.67886 22.3242C8.71483 22.3077 8.74439 22.2942 8.69292 22.3695Z" fill="#FFE402"/>
<path fill-rule="evenodd" clip-rule="evenodd" d="M11.5114 22.063C12.2213 22.0812 12.663 22.2113 12.663 22.8196C12.663 23.4903 11.9299 23.7002 11.1499 23.7002C10.4434 23.7002 9.64744 23.3104 9.64744 22.6124C9.64744 22.1877 10.2549 21.3307 11.7845 19.473C11.8375 19.4291 11.8667 19.4068 11.8901 19.4066C11.7973 19.3607 11.634 19.307 11.4184 19.307C11.3436 19.307 11.2463 19.3406 11.1499 19.3837V20.1123H9.53051V19.5623C9.53051 18.9409 10.5639 18.207 11.4184 18.207C12.1647 18.207 12.7638 18.5225 13.0673 18.9765C13.3672 19.4251 13.1378 19.8558 12.7071 20.1983C12.0662 20.984 11.5686 21.6344 11.2565 22.0617C11.3712 22.0609 11.4342 22.061 11.5114 22.063ZM11.4353 22.5702C11.4578 22.5657 11.4794 22.5609 11.4995 22.5557C11.4845 22.5697 11.4255 22.6323 11.4255 22.8196C11.4255 22.9216 11.431 22.9933 11.4384 23.0438C11.6472 22.8801 11.7055 22.5947 11.5528 22.375L11.549 22.3695L11.4353 22.5702ZM11.4996 22.5557L11.521 22.5498C11.5187 22.5505 11.5157 22.5518 11.5122 22.5538L11.4996 22.5557ZM10.885 22.6124C10.885 22.5936 10.8922 22.5824 10.9046 22.5764L10.8974 22.5834C10.8891 22.5985 10.885 22.6082 10.885 22.6124ZM11.549 22.3695L11.5723 22.3283C11.5692 22.327 11.5661 22.3255 11.5631 22.3242C11.5271 22.3077 11.4976 22.2942 11.549 22.3695Z" fill="#FFE402"/>
<path fill-rule="evenodd" clip-rule="evenodd" d="M8.73057 15.3547C8.02067 15.3366 7.57898 15.2064 7.57898 14.5981C7.57898 13.9274 8.31208 13.7175 9.09203 13.7175C9.79855 13.7175 10.5945 14.1073 10.5945 14.8054C10.5945 15.23 9.98705 16.087 8.45746 17.9447C8.40445 17.9886 8.37525 18.011 8.35187 18.0111C8.44463 18.057 8.60799 18.1108 8.82354 18.1108C8.89838 18.1108 8.99563 18.0771 9.09203 18.034V17.3055H10.7114V17.8555C10.7114 18.4769 9.67805 19.2108 8.82354 19.2108C8.07727 19.2108 7.47815 18.8952 7.17469 18.4412C6.87479 17.9926 7.10412 17.5619 7.5348 17.2194C8.1757 16.4337 8.67332 15.7833 8.9854 15.356C8.87074 15.3568 8.80778 15.3567 8.73057 15.3547ZM8.80665 14.8475C8.7842 14.852 8.7626 14.8568 8.74241 14.862C8.75744 14.848 8.8165 14.7855 8.8165 14.5981C8.8165 14.4961 8.81098 14.4244 8.80357 14.3739C8.59478 14.5377 8.53641 14.8231 8.6892 15.0428L8.69298 15.0482L8.80665 14.8475ZM8.74237 14.862L8.72092 14.8679C8.72323 14.8672 8.72626 14.8659 8.7298 14.8639L8.74237 14.862ZM9.35698 14.8054C9.35698 14.8242 9.3498 14.8353 9.33739 14.8413L9.34459 14.8343C9.35281 14.8192 9.35698 14.8095 9.35698 14.8054ZM8.69292 15.0482L8.66962 15.0894C8.67272 15.0908 8.67581 15.0922 8.67886 15.0936C8.71483 15.11 8.74439 15.1236 8.69292 15.0482Z" fill="#FFE402"/>
<path fill-rule="evenodd" clip-rule="evenodd" d="M11.5114 15.3547C12.2213 15.3366 12.663 15.2064 12.663 14.5981C12.663 13.9274 11.9299 13.7175 11.1499 13.7175C10.4434 13.7175 9.64744 14.1073 9.64744 14.8054C9.64744 15.23 10.2549 16.087 11.7845 17.9447C11.8375 17.9886 11.8667 18.011 11.8901 18.0111C11.7973 18.057 11.634 18.1108 11.4184 18.1108C11.3436 18.1108 11.2463 18.0771 11.1499 18.034V17.3055H9.53051V17.8555C9.53051 18.4769 10.5639 19.2108 11.4184 19.2108C12.1647 19.2108 12.7638 18.8952 13.0673 18.4412C13.3672 17.9926 13.1378 17.5619 12.7071 17.2194C12.0662 16.4337 11.5686 15.7833 11.2565 15.356C11.3712 15.3568 11.4342 15.3567 11.5114 15.3547ZM11.4353 14.8475C11.4578 14.852 11.4794 14.8568 11.4995 14.862C11.4845 14.848 11.4255 14.7855 11.4255 14.5981C11.4255 14.4961 11.431 14.4244 11.4384 14.3739C11.6472 14.5377 11.7055 14.8231 11.5528 15.0428L11.549 15.0482L11.4353 14.8475ZM11.4996 14.862L11.521 14.8679C11.5187 14.8672 11.5157 14.8659 11.5122 14.8639L11.4996 14.862ZM10.885 14.8054C10.885 14.8242 10.8922 14.8353 10.9046 14.8413L10.8974 14.8343C10.8891 14.8192 10.885 14.8095 10.885 14.8054ZM11.549 15.0482L11.5723 15.0894C11.5692 15.0908 11.5661 15.0922 11.5631 15.0936C11.5271 15.11 11.4976 15.1236 11.549 15.0482Z" fill="#FFE402"/>
<path fill-rule="evenodd" clip-rule="evenodd" d="M8.73057 12.6453C8.02067 12.6634 7.57898 12.7936 7.57898 13.4019C7.57898 14.0726 8.31208 14.2825 9.09203 14.2825C9.79855 14.2825 10.5945 13.8927 10.5945 13.1946C10.5945 12.77 9.98705 11.913 8.45746 10.0553C8.40445 10.0114 8.37525 9.98905 8.35187 9.9889C8.44463 9.94299 8.60799 9.88923 8.82354 9.88923C8.89838 9.88923 8.99563 9.92287 9.09203 9.96597V10.6945H10.7114V10.1445C10.7114 9.52315 9.67805 8.78923 8.82354 8.78923C8.07727 8.78923 7.47815 9.10478 7.17469 9.55875C6.87479 10.0074 7.10412 10.4381 7.5348 10.7806C8.1757 11.5663 8.67332 12.2167 8.9854 12.644C8.87074 12.6432 8.80778 12.6433 8.73057 12.6453ZM8.80665 13.1525C8.7842 13.148 8.7626 13.1432 8.74241 13.138C8.75744 13.152 8.8165 13.2145 8.8165 13.4019C8.8165 13.5039 8.81098 13.5756 8.80357 13.6261C8.59478 13.4623 8.53641 13.1769 8.6892 12.9572L8.69298 12.9518L8.80665 13.1525ZM8.74237 13.138L8.72092 13.1321C8.72323 13.1328 8.72626 13.1341 8.7298 13.1361L8.74237 13.138ZM9.35698 13.1946C9.35698 13.1758 9.3498 13.1647 9.33739 13.1587L9.34459 13.1657C9.35281 13.1808 9.35698 13.1905 9.35698 13.1946ZM8.69292 12.9518L8.66962 12.9106C8.67272 12.9092 8.67581 12.9078 8.67886 12.9064C8.71483 12.89 8.74439 12.8764 8.69292 12.9518Z" fill="#FFE402"/>
<path fill-rule="evenodd" clip-rule="evenodd" d="M11.5114 12.6453C12.2213 12.6634 12.663 12.7936 12.663 13.4019C12.663 14.0726 11.9299 14.2825 11.1499 14.2825C10.4434 14.2825 9.64744 13.8927 9.64744 13.1946C9.64744 12.77 10.2549 11.913 11.7845 10.0553C11.8375 10.0114 11.8667 9.98905 11.8901 9.9889C11.7973 9.94299 11.634 9.88923 11.4184 9.88923C11.3436 9.88923 11.2463 9.92287 11.1499 9.96597V10.6945H9.53051V10.1445C9.53051 9.52315 10.5639 8.78923 11.4184 8.78923C12.1647 8.78923 12.7638 9.10478 13.0673 9.55875C13.3672 10.0074 13.1378 10.4381 12.7071 10.7806C12.0662 11.5663 11.5686 12.2167 11.2565 12.644C11.3712 12.6432 11.4342 12.6433 11.5114 12.6453ZM11.4353 13.1525C11.4578 13.148 11.4794 13.1432 11.4995 13.138C11.4845 13.152 11.4255 13.2145 11.4255 13.4019C11.4255 13.5039 11.431 13.5756 11.4384 13.6261C11.6472 13.4623 11.7055 13.1769 11.5528 12.9572L11.549 12.9518L11.4353 13.1525ZM11.4996 13.138L11.521 13.1321C11.5187 13.1328 11.5157 13.1341 11.5122 13.1361L11.4996 13.138ZM10.885 13.1946C10.885 13.1758 10.8922 13.1647 10.9046 13.1587L10.8974 13.1657C10.8891 13.1808 10.885 13.1905 10.885 13.1946ZM11.549 12.9518L11.5723 12.9106C11.5692 12.9092 11.5661 12.9078 11.5631 12.9064C11.5271 12.89 11.4976 12.8764 11.549 12.9518Z" fill="#FFE402"/>
<path fill-rule="evenodd" clip-rule="evenodd" d="M8.73057 5.93701C8.02067 5.91885 7.57898 5.78868 7.57898 5.1804C7.57898 4.50965 8.31208 4.2998 9.09203 4.2998C9.79855 4.2998 10.5945 4.68959 10.5945 5.38765C10.5945 5.81232 9.98705 6.66928 8.45746 8.52697C8.40445 8.57086 8.37525 8.59323 8.35187 8.59337C8.44463 8.63928 8.60799 8.69305 8.82354 8.69305C8.89838 8.69305 8.99563 8.6594 9.09203 8.6163V7.88774H10.7114V8.43774C10.7114 9.05913 9.67805 9.79305 8.82354 9.79305C8.07727 9.79305 7.47815 9.47749 7.17469 9.02352C6.87479 8.57488 7.10412 8.14421 7.5348 7.80166C8.1757 7.01595 8.67332 6.36559 8.9854 5.93827C8.87074 5.93912 8.80778 5.93898 8.73057 5.93701ZM8.80665 5.42982C8.7842 5.43426 8.7626 5.43911 8.74241 5.44432C8.75744 5.43031 8.8165 5.36773 8.8165 5.1804C8.8165 5.07841 8.81098 5.00666 8.80357 4.95621C8.59478 5.11993 8.53641 5.40534 8.6892 5.62503L8.69298 5.63052L8.80665 5.42982ZM8.74237 5.44432L8.72092 5.45015C8.72323 5.44949 8.72626 5.44822 8.7298 5.44618L8.74237 5.44432ZM9.35698 5.38765C9.35698 5.40643 9.3498 5.41759 9.33739 5.42357L9.34459 5.41656C9.35281 5.40152 9.35698 5.39181 9.35698 5.38765ZM8.69292 5.63052L8.66962 5.67165C8.67272 5.67304 8.67581 5.67445 8.67886 5.67585C8.71483 5.69231 8.74439 5.70584 8.69292 5.63052Z" fill="#FFE402"/>
<path fill-rule="evenodd" clip-rule="evenodd" d="M11.5114 5.93701C12.2213 5.91885 12.663 5.78868 12.663 5.1804C12.663 4.50965 11.9299 4.2998 11.1499 4.2998C10.4434 4.2998 9.64744 4.68959 9.64744 5.38765C9.64744 5.81232 10.2549 6.66928 11.7845 8.52697C11.8375 8.57086 11.8667 8.59323 11.8901 8.59337C11.7973 8.63928 11.634 8.69305 11.4184 8.69305C11.3436 8.69305 11.2463 8.6594 11.1499 8.6163V7.88774H9.53051V8.43774C9.53051 9.05913 10.5639 9.79305 11.4184 9.79305C12.1647 9.79305 12.7638 9.47749 13.0673 9.02352C13.3672 8.57488 13.1378 8.14421 12.7071 7.80166C12.0662 7.01595 11.5686 6.36559 11.2565 5.93827C11.3712 5.93912 11.4342 5.93898 11.5114 5.93701ZM11.4353 5.42982C11.4578 5.43426 11.4794 5.43911 11.4995 5.44432C11.4845 5.43031 11.4255 5.36773 11.4255 5.1804C11.4255 5.07841 11.431 5.00666 11.4384 4.95621C11.6472 5.11993 11.7055 5.40534 11.5528 5.62503L11.549 5.63052L11.4353 5.42982ZM11.4996 5.44432L11.521 5.45015C11.5187 5.44949 11.5157 5.44822 11.5122 5.44618L11.4996 5.44432ZM10.885 5.38765C10.885 5.40643 10.8922 5.41759 10.9046 5.42357L10.8974 5.41656C10.8891 5.40152 10.885 5.39181 10.885 5.38765ZM11.549 5.63052L11.5723 5.67165C11.5692 5.67304 11.5661 5.67445 11.5631 5.67585C11.5271 5.69231 11.4976 5.70584 11.549 5.63052Z" fill="#FFE402"/>
<path fill-rule="evenodd" clip-rule="evenodd" d="M24.3601 4.78479L24.8207 6.3125C24.8207 6.3125 24.8261 6.65959 24.385 6.65959C23.9439 6.65959 23.9217 6.3125 23.9217 6.3125L24.3601 4.78479ZM28.2567 10.62C28.2567 12.6082 26.5492 14.22 24.4429 14.22C22.3367 14.22 20.6292 12.6082 20.6292 10.62C20.6292 8.63174 22.3367 7.01997 24.4429 7.01997C26.5492 7.01997 28.2567 8.63174 28.2567 10.62ZM26.1539 6.62057L26.2159 5.0399L25.2941 6.38691C25.2941 6.38691 25.2012 6.72462 25.6231 6.83926C26.0449 6.9539 26.1539 6.62057 26.1539 6.62057ZM27.9083 5.78841L27.3291 7.2839C27.3291 7.2839 27.1152 7.57434 26.7495 7.35508C26.3838 7.13581 26.5837 6.83701 26.5837 6.83701L27.9083 5.78841ZM28.2414 8.2436L29.2872 6.96398L27.6756 7.62252C27.6756 7.62252 27.3862 7.85632 27.6638 8.16104C27.9414 8.46577 28.2414 8.2436 28.2414 8.2436ZM30.2374 8.47757L28.7979 9.40731C28.7979 9.40731 28.4353 9.53619 28.2772 9.17013C28.1192 8.80406 28.4757 8.66122 28.4757 8.66122L30.2374 8.47757ZM28.9739 10.6823L30.6562 10.1672L28.9112 9.88502C28.9112 9.88502 28.5232 9.92896 28.554 10.3201C28.5847 10.7113 28.9739 10.6823 28.9739 10.6823ZM30.5181 11.8959L28.7399 11.9512C28.7399 11.9512 28.3582 11.8778 28.4574 11.4958C28.5566 11.1137 28.9421 11.1725 28.9421 11.1725L30.5181 11.8959ZM28.1166 13.1011L29.8353 13.5104L28.5662 12.409C28.5662 12.409 28.2169 12.2526 27.9963 12.5922C27.7757 12.9318 28.1166 13.1011 28.1166 13.1011ZM28.6684 14.8676L27.1594 14.0296C27.1594 14.0296 26.8892 13.779 27.2118 13.5116C27.5344 13.2442 27.817 13.4846 27.817 13.4846L28.6684 14.8676ZM25.9533 14.6537L27.1207 15.8473L26.7614 14.3034C26.7614 14.3034 26.5702 14.0001 26.1737 14.172C25.7773 14.3439 25.9533 14.6537 25.9533 14.6537ZM25.3294 16.3627L24.6056 14.9179C24.6056 14.9179 24.5392 14.5758 24.9749 14.5145C25.4106 14.4531 25.4936 14.7928 25.4936 14.7928L25.3294 16.3627ZM23.2489 14.7928L23.435 16.3658L24.1369 14.9179C24.1369 14.9179 24.176 14.572 23.7403 14.5106C23.3046 14.4493 23.2489 14.7928 23.2489 14.7928ZM21.6417 15.856L21.9811 14.3034C21.9811 14.3034 22.1474 13.9894 22.5439 14.1613C22.9404 14.3331 22.7892 14.6538 22.7892 14.6538L21.6417 15.856ZM20.9256 13.4846L20.0903 14.8811L21.5831 14.0296C21.5831 14.0296 21.8331 13.7623 21.5105 13.4949C21.1879 13.2275 20.9256 13.4846 20.9256 13.4846ZM18.9182 13.5275L20.1763 12.4091C20.1763 12.4091 20.5118 12.2314 20.7323 12.5709C20.9529 12.9105 20.6259 13.1012 20.6259 13.1012L18.9182 13.5275ZM19.8003 11.1726L18.2293 11.9152L20.0026 11.9513C20.0026 11.9513 20.3781 11.8539 20.2788 11.4719C20.1796 11.0898 19.8003 11.1726 19.8003 11.1726ZM18.0847 10.187L19.8313 9.88508C19.8313 9.88508 20.2212 9.90449 20.1905 10.2956C20.1597 10.6868 19.7686 10.6823 19.7686 10.6823L18.0847 10.187ZM20.2667 8.66127L18.4971 8.49604L19.9445 9.40737C19.9445 9.40737 20.317 9.51329 20.4751 9.14723C20.6332 8.78116 20.2667 8.66127 20.2667 8.66127ZM19.4413 6.97935L21.0668 7.62256C21.0668 7.62256 21.3737 7.83725 21.0961 8.14198C20.8184 8.4467 20.501 8.24364 20.501 8.24364L19.4413 6.97935ZM22.1587 6.83704L20.8157 5.79947L21.4133 7.28393C21.4133 7.28393 21.6501 7.56062 22.0158 7.34136C22.3815 7.12209 22.1587 6.83704 22.1587 6.83704ZM22.5053 5.04569L23.4483 6.38693C23.4483 6.38693 23.5676 6.71744 23.1458 6.83209C22.7239 6.94673 22.5885 6.62059 22.5885 6.62059L22.5053 5.04569Z" fill="#FFE402"/>
<path fill-rule="evenodd" clip-rule="evenodd" d="M16.7487 12.6719C16.7333 12.6193 16.7192 12.568 16.7064 12.5179L16.7852 12.6589L16.7487 12.6719ZM16.8566 13.002C16.8154 12.8868 16.7794 12.7769 16.7487 12.6719L16.2666 12.843L16.338 13.002H16.286L16.2658 13.0109C16.237 12.8803 16.2224 12.7565 16.2224 12.6391V11.6519L16.7064 12.5179C16.6451 12.2774 16.6143 12.0657 16.6143 11.8813V10.6507L17.1744 11.8976L16.6426 12.0456L16.8516 12.6391H16.8412L16.7852 12.6589L16.9835 13.0138L17.1748 13.5572C16.9959 13.2651 16.9047 13.0712 16.9047 13.002H16.8566ZM17.4721 14.3886C17.2047 13.861 16.9993 13.4005 16.8566 13.002H16.338L16.8651 14.1754L16.6698 13.9902C16.4655 13.6264 16.3301 13.3017 16.2658 13.0109L15.8368 13.2003L15.7514 13.1193V13.238L15.7318 13.2467L15.7514 13.2817V13.4158C15.6952 13.2598 15.6673 13.123 15.6673 13.002V10.6584L16.2224 11.6519V9.77832L16.6143 10.6507V8.28259L18.1789 12.7263L18.069 12.7581C17.9238 12.3727 17.8519 12.0778 17.8519 11.8813H17.2331L17.1744 11.8976L17.6194 12.8883L17.512 12.9194C17.4772 12.8096 17.46 12.7158 17.46 12.6391H16.8516L16.9835 13.0138L17.6745 14.2503L17.6458 14.26C17.4508 13.9877 17.2935 13.7509 17.1748 13.5572L17.4461 14.3275L17.6458 14.26L17.6737 14.2988L17.4721 14.3886ZM17.6866 14.3168L17.4724 14.3892L17.4721 14.3886L17.2122 14.5045L16.8651 14.1754L17.0304 14.5435C17.0104 14.5287 16.9982 14.5186 16.9926 14.5137C16.8708 14.3307 16.7631 14.1564 16.6698 13.9902L15.8368 13.2003L15.7514 13.238V13.2817L16.438 14.5103H16.3702L16.3656 14.5141C16.0602 14.0658 15.8564 13.7072 15.7514 13.4158V14.2194L13.2937 12.6631L16.4237 15.9743C17.424 17.0324 18.6565 17.8455 20.1146 18.4105L17.2802 18.357L20.161 19.0797L18.6707 20.0546L21.2447 19.3516L21.9466 19.5277C22.8912 19.7647 23.4172 20.0024 23.4516 20.0746L23.5842 20.3532L23.9199 20.4028C24.6554 20.5116 26.0124 20.3421 27.7606 19.9977C28.3546 19.8806 28.9508 19.7503 29.4121 19.6396C29.6054 19.5932 29.7567 19.5546 29.842 19.5297C29.8772 19.5193 29.8772 19.5193 29.9218 19.5041L29.9219 19.504L29.9307 19.5009L29.9424 19.4965C29.9565 19.4909 29.9703 19.4843 30.017 19.4618L30.017 19.4617C30.0771 19.4544 30.1202 19.4491 30.1479 19.4257C30.2183 19.366 30.189 19.1886 30.0851 18.5598C29.59 18.442 29.5276 18.4272 29.5106 18.4485C29.5081 18.4516 29.5066 18.4554 29.5049 18.4598C29.3377 18.4906 29.077 18.4871 28.7295 18.4474C31.6385 17.1758 33.5494 15.9018 34.4649 14.591L36.1395 12.1933L35.125 12.8511L35.4906 11.8066L34.0445 12.6326C34.2307 12.4131 34.3747 12.1947 34.4763 11.9763L35.5654 9.6366L33.8469 11.0617L34.7791 8.33047L32.5671 10.9645L23.5114 16.8881L23.3701 16.859C21.1409 16.3996 19.5754 14.9998 18.6438 12.5917L18.1789 12.7263L18.185 12.7434L18.0754 12.7752L18.069 12.7581L17.6194 12.8883L17.6269 12.905L17.5176 12.9367L17.512 12.9194L17.4673 12.9324C17.6178 13.367 17.782 13.7743 17.96 14.1539L17.6745 14.2503L17.696 14.2888L17.6737 14.2988L17.6866 14.3168ZM17.7077 14.3097L17.6866 14.3168L17.7309 14.3777L17.2871 14.5756L17.2122 14.5045L17.067 14.5692C17.0527 14.5596 17.0405 14.5509 17.0304 14.5435L17.0462 14.5785L17.067 14.5692C17.0924 14.5864 17.1246 14.6068 17.1646 14.6302L17.0932 14.662C17.0587 14.6119 17.0252 14.5625 16.9926 14.5137L16.9889 14.5103H16.438L16.5624 14.733L16.4816 14.6818C16.4414 14.6246 16.4028 14.5687 16.3656 14.5141L16.3013 14.5676L15.7514 14.2194V14.5103C15.7514 15.0309 16.1635 15.4244 16.8714 15.7478L16.5384 16.0684L20.2408 18.4129L20.1146 18.4105C20.2358 18.4575 20.3586 18.5028 20.483 18.5463L20.8044 18.6589L20.161 19.0797L21.2447 19.3516L22.1088 19.1157L25.1839 20.1925L24.192 19.5644C24.313 19.5635 24.4306 19.5622 24.5448 19.5604C24.4964 19.4815 24.4349 19.4068 24.3599 19.3356C24.2688 19.3335 24.1895 19.3276 24.1229 19.3177L24.089 19.4992L23.0529 18.8431C23.4494 18.7215 23.8345 18.594 24.2082 18.4607C25.7428 18.446 26.6626 18.3729 26.7991 18.2829L27.0359 18.1268L27.3215 18.192C27.5966 18.2547 27.85 18.3069 28.0806 18.3489L28.2768 18.6419C28.4303 18.5771 28.5812 18.5122 28.7295 18.4474C28.6927 18.4432 28.655 18.4386 28.6163 18.4336L34.3039 14.7452L33.8279 14.3526C34.4301 14.077 34.8225 13.7154 34.9855 13.2498L35.125 12.8511L34.512 13.2487L34.3946 13.0864L33.8038 12.923C33.7492 13.079 33.5713 13.2352 33.2559 13.3785C33.5721 13.1278 33.8351 12.8796 34.0445 12.6326L33.1514 13.1428L34.3267 12.1682L33.5934 11.7163C33.6572 11.588 33.7104 11.4614 33.7531 11.3365L33.8469 11.0617L33.4327 11.4051L32.8169 11.1285L33.1017 10.6148L32.5671 10.9645L31.3013 12.4719L30.8704 12.1511C29.7142 14.2365 27.6333 15.8923 24.6068 17.1139L23.5114 16.8881L23.1984 17.0928L23.2304 16.8448C21.1669 16.8448 19.6458 15.4847 18.65 12.6088L18.185 12.7434L18.627 13.999L18.1853 14.1482L18.1578 14.087L18.6007 13.9374C18.3738 13.4895 18.1989 13.1005 18.0754 12.7752L17.6269 12.905L18.1578 14.087L18.1199 14.0998L18.1483 14.0872C17.8192 13.6099 17.6111 13.2211 17.5176 12.9367L17.4735 12.9494C17.636 13.3693 17.8175 13.7643 18.0181 14.1342L17.96 14.1539L17.9667 14.1681L17.696 14.2888L17.7077 14.3097ZM17.9887 14.2147L17.7077 14.3097L17.7428 14.3724L17.7309 14.3777L17.7733 14.4358L17.3609 14.6456L17.2871 14.5756L17.1646 14.6302C17.196 14.6484 17.2321 14.6685 17.2736 14.69L16.8416 14.9097L16.5624 14.733L16.7011 14.9812L16.8416 14.9097L16.9067 14.951L16.7372 15.0372C16.6461 14.9132 16.5609 14.7948 16.4816 14.6818L16.3013 14.5676L15.9187 14.8864L16.7126 15.6392L17.164 15.2631L17.2268 15.1537L19.2434 16.4307L19.9892 17.1379C18.974 16.6636 18.1026 16.0404 17.3712 15.2666L16.8714 15.7478L16.8827 15.7529L20.039 17.1851L19.9892 17.1379C20.2921 17.2795 20.6079 17.4078 20.9366 17.5229L20.3915 18.4157L20.2408 18.4129L20.3507 18.4825L20.3915 18.4157L21.154 18.4301L20.8044 18.6589L22.1088 19.1157L22.1545 19.1032C22.4602 19.0197 22.7597 18.933 23.0529 18.8431L22.8282 18.7008L23.1932 18.462C23.5561 18.4643 23.895 18.4637 24.2082 18.4607C24.6654 18.2975 25.1055 18.1256 25.5283 17.9448H27.81L28.0806 18.3489C28.1325 18.3584 28.1832 18.3673 28.2328 18.3757L28.3759 18.5894L28.6163 18.4336C28.4974 18.4181 28.3695 18.3989 28.2328 18.3757L27.9443 17.9448H28.6386L27.8331 17.7788L27.7457 17.6483C30.1393 16.6375 31.8319 15.6448 32.8217 14.6912C33.2037 14.5967 33.5398 14.4845 33.8279 14.3526L33.6211 14.182L34.7291 13.5491L34.512 13.2487L32.6442 14.4599L32.4107 13.9752C32.7254 13.7744 33.0071 13.5757 33.2559 13.3785C33.0792 13.4588 32.8594 13.535 32.594 13.605L33.1514 13.1428L31.4582 14.11C32.5137 13.2442 33.2274 12.4519 33.5934 11.7163L33.5187 11.6703L33.6568 11.5058L33.4327 11.4051L32.009 12.5858L32.8169 11.1285L32.5689 11.0171C32.4175 11.4605 32.0416 11.9827 31.4377 12.5734L31.3013 12.4719L30.5382 13.3805L30.7285 13.5329L25.0991 17.2153L24.6068 17.1139C24.1362 17.3038 23.6428 17.4832 23.1264 17.6522L23.1984 17.0928L22.2514 17.7123C20.4355 17.1351 19.0375 15.9647 18.0691 14.2269L18.1954 14.1706L18.1853 14.1482L18.0507 14.1937L18.023 14.1431L18.1199 14.0998L18.0181 14.1342L18.023 14.1431L17.9667 14.1681L17.9887 14.2147ZM18.0077 14.2543L17.7428 14.3724L17.8095 14.4918L17.412 14.694L17.3609 14.6456L17.2736 14.69C17.2964 14.7019 17.3209 14.7142 17.3471 14.727L16.9067 14.951L17.2268 15.1537L17.4453 14.7732C17.4102 14.7573 17.3775 14.7419 17.3471 14.727L17.412 14.694L19.2434 16.4307L21.7673 18.029L21.154 18.4301L22.0146 18.4464L22.3396 19.0204L22.8282 18.7008L22.4382 18.4538C22.7002 18.4579 22.952 18.4606 23.1932 18.462L23.9839 17.9448H25.5283C25.8604 17.8028 26.1819 17.6554 26.4927 17.5025L27.6773 17.7467L27.81 17.9448H27.9443L27.8331 17.7788L27.6773 17.7467L27.6466 17.7008L32.0119 14.8699L32.5616 14.7513C32.6505 14.7321 32.7372 14.7121 32.8217 14.6912C32.8647 14.6498 32.9063 14.6085 32.9466 14.5673L33.6211 14.182L33.4135 14.0108C33.2852 14.1946 33.1295 14.3802 32.9466 14.5673L32.7501 14.6796L32.6442 14.4599L32.0119 14.8699L29.7707 15.3535C30.0216 15.1316 30.2589 14.9029 30.4827 14.6672L31.2 14.2575L31.4447 14.5431C31.7953 14.3516 32.1173 14.1625 32.4107 13.9752L32.3356 13.8193L32.594 13.605C32.4926 13.6318 32.3845 13.6576 32.2696 13.6824L32.3356 13.8193L31.5429 14.4766L31.3042 14.1979L31.4527 14.1131L31.4536 14.1138L31.4582 14.11L31.4527 14.1131L31.1604 13.879C31.1822 13.8509 31.2038 13.8227 31.2253 13.7944L31.5299 14.0385L33.5187 11.6703L33.3329 11.5557C33.1317 11.9879 32.6008 12.4929 31.7378 13.0501C31.8222 12.9143 31.9031 12.7767 31.9804 12.6374L32.009 12.5858L31.7466 12.8033L31.4377 12.5734C31.199 12.8068 30.9247 13.0509 30.6146 13.3052L30.8223 13.4716L30.7285 13.5329L30.7988 13.5893L30.6987 13.6723L31.0236 14.0515C30.8531 14.2617 30.6728 14.467 30.4827 14.6672L28.9843 15.5231L29.7707 15.3535C28.8573 16.1611 27.764 16.8773 26.4927 17.5025L25.0991 17.2153L23.9839 17.9448H23.2304C22.9379 17.9448 22.6546 17.9246 22.3803 17.8843C22.4563 17.8618 22.5318 17.8391 22.6069 17.8162C22.7652 17.8586 22.9264 17.8967 23.0906 17.9306L23.1264 17.6522C22.9558 17.708 22.7826 17.7627 22.6069 17.8162C22.4867 17.784 22.3682 17.7494 22.2514 17.7123L22.0719 17.8297C20.3291 17.4681 18.9724 16.258 18.0077 14.2543ZM18.0077 14.2543L18.0691 14.2269L18.0507 14.1937L17.9887 14.2147L18.0077 14.2543ZM21.7995 18.0494L21.7673 18.029L22.0719 17.8297C22.1734 17.8508 22.2762 17.869 22.3803 17.8843C22.1896 17.9406 21.996 17.9957 21.7995 18.0494ZM31.0986 13.9579C31.1194 13.9317 31.14 13.9054 31.1604 13.879L30.8104 13.5985C30.8443 13.5799 30.878 13.5614 30.9113 13.5429L31.2253 13.7944C31.4087 13.5527 31.5795 13.3045 31.7378 13.0501C31.4898 13.2102 31.2143 13.3746 30.9113 13.5429L30.8826 13.5198L31.3831 13.1047L31.7921 12.8372L31.7466 12.8033L31.3831 13.1047L30.8223 13.4716L30.8826 13.5198L30.7988 13.5893L30.8104 13.5985L30.797 13.6058L31.0986 13.9579ZM31.0986 13.9579L31.3042 14.1979L31.2 14.2575L31.0236 14.0515C31.0488 14.0204 31.0738 13.9892 31.0986 13.9579ZM21.7995 18.0494L22.4382 18.4538C22.3363 18.4522 22.2328 18.4505 22.1278 18.4485L22.0146 18.4464L21.7911 18.0517L21.7995 18.0494ZM24.089 19.4992L24.0766 19.5652L24.192 19.5644L24.089 19.4992ZM27.5363 19.1664L27.3561 18.9504C27.2656 18.968 27.1761 18.985 27.0878 19.0014L27.0139 19.2574C27.0862 19.2739 27.1572 19.2898 27.2271 19.305C27.3553 19.2642 27.4579 19.2182 27.5363 19.1664Z" fill="#FFE402"/>
</g>
</g>
</g>
<defs>
<filter id="filter0_dd_5_8432" x="0" y="0" width="42" height="30" filterUnits="userSpaceOnUse" color-interpolation-filters="sRGB">
<feFlood flood-opacity="0" result="BackgroundImageFix"/>
<feColorMatrix in="SourceAlpha" type="matrix" values="0 0 0 0 0 0 0 0 0 0 0 0 0 0 0 0 0 0 127 0" result="hardAlpha"/>
<feOffset dy="1"/>
<feGaussianBlur stdDeviation="1"/>
<feColorMatrix type="matrix" values="0 0 0 0 0.0627451 0 0 0 0 0.0941176 0 0 0 0 0.156863 0 0 0 0.06 0"/>
<feBlend mode="normal" in2="BackgroundImageFix" result="effect1_dropShadow_5_8432"/>
<feColorMatrix in="SourceAlpha" type="matrix" values="0 0 0 0 0 0 0 0 0 0 0 0 0 0 0 0 0 0 127 0" result="hardAlpha"/>
<feOffset dy="1"/>
<feGaussianBlur stdDeviation="1.5"/>
<feColorMatrix type="matrix" values="0 0 0 0 0.0627451 0 0 0 0 0.0941176 0 0 0 0 0.156863 0 0 0 0.1 0"/>
<feBlend mode="normal" in2="effect1_dropShadow_5_8432" result="effect2_dropShadow_5_8432"/>
<feBlend mode="normal" in="SourceGraphic" in2="effect2_dropShadow_5_8432" result="shape"/>
</filter>
</defs>
</svg>
