<svg width="42" height="30" viewBox="0 0 42 30" fill="none" xmlns="http://www.w3.org/2000/svg">
<g filter="url(#filter0_dd_5_10201)">
<mask id="mask0_5_10201" style="mask-type:alpha" maskUnits="userSpaceOnUse" x="3" y="2" width="36" height="24">
<rect x="3" y="2" width="36" height="24" fill="white"/>
</mask>
<g mask="url(#mask0_5_10201)">
<path fill-rule="evenodd" clip-rule="evenodd" d="M3 2H39V26H3V2Z" fill="#F7FCFF"/>
<path fill-rule="evenodd" clip-rule="evenodd" d="M3 2V10H39V2H3Z" fill="#272727"/>
<path fill-rule="evenodd" clip-rule="evenodd" d="M3 18V26H39V18H3Z" fill="#5EAA22"/>
<path fill-rule="evenodd" clip-rule="evenodd" d="M3 2L21 14L3 26V2Z" fill="#E31D1C"/>
<path fill-rule="evenodd" clip-rule="evenodd" d="M27.3989 17.4771C27.3989 17.4771 24.8398 16.1023 24.8398 13.8305C24.8398 11.5587 27.3989 10.3636 27.3989 10.3636C26.2534 9.71755 22.2815 10.6395 22.2815 13.9045C22.2815 17.1695 26.2161 17.7728 27.3989 17.4771ZM29.4696 13.3125L27.9801 12.0721L28.4945 13.6557L27.0532 14.2626L28.8235 14.7748L29.5922 16.489L29.9284 14.9022L31.6769 15.2454L30.3539 14.0969L30.8015 12.8716L29.4696 13.3125Z" fill="#E31D1C"/>
</g>
</g>
<defs>
<filter id="filter0_dd_5_10201" x="0" y="0" width="42" height="30" filterUnits="userSpaceOnUse" color-interpolation-filters="sRGB">
<feFlood flood-opacity="0" result="BackgroundImageFix"/>
<feColorMatrix in="SourceAlpha" type="matrix" values="0 0 0 0 0 0 0 0 0 0 0 0 0 0 0 0 0 0 127 0" result="hardAlpha"/>
<feOffset dy="1"/>
<feGaussianBlur stdDeviation="1"/>
<feColorMatrix type="matrix" values="0 0 0 0 0.0627451 0 0 0 0 0.0941176 0 0 0 0 0.156863 0 0 0 0.06 0"/>
<feBlend mode="normal" in2="BackgroundImageFix" result="effect1_dropShadow_5_10201"/>
<feColorMatrix in="SourceAlpha" type="matrix" values="0 0 0 0 0 0 0 0 0 0 0 0 0 0 0 0 0 0 127 0" result="hardAlpha"/>
<feOffset dy="1"/>
<feGaussianBlur stdDeviation="1.5"/>
<feColorMatrix type="matrix" values="0 0 0 0 0.0627451 0 0 0 0 0.0941176 0 0 0 0 0.156863 0 0 0 0.1 0"/>
<feBlend mode="normal" in2="effect1_dropShadow_5_10201" result="effect2_dropShadow_5_10201"/>
<feBlend mode="normal" in="SourceGraphic" in2="effect2_dropShadow_5_10201" result="shape"/>
</filter>
</defs>
</svg>
