<svg width="42" height="30" viewBox="0 0 42 30" fill="none" xmlns="http://www.w3.org/2000/svg">
<g filter="url(#filter0_dd_5_10529)">
<mask id="mask0_5_10529" style="mask-type:alpha" maskUnits="userSpaceOnUse" x="3" y="2" width="36" height="24">
<rect x="3" y="2" width="36" height="24" fill="white"/>
</mask>
<g mask="url(#mask0_5_10529)">
<path fill-rule="evenodd" clip-rule="evenodd" d="M3 2V26H39V2H3Z" fill="#2E42A5"/>
<mask id="mask1_5_10529" style="mask-type:alpha" maskUnits="userSpaceOnUse" x="3" y="2" width="36" height="24">
<path fill-rule="evenodd" clip-rule="evenodd" d="M3 2V26H39V2H3Z" fill="white"/>
</mask>
<g mask="url(#mask1_5_10529)">
<path fill-rule="evenodd" clip-rule="evenodd" d="M7.78623 8.14923L5.54877 9.19891L6.62907 7.33053L5.25 5.96315L6.96376 5.90693L7.78623 4L8.41387 5.90693L10.4193 5.96315L8.97541 7.33053L9.89143 9.19891L7.78623 8.14923Z" fill="#F7FCFF"/>
<path fill-rule="evenodd" clip-rule="evenodd" d="M15.7712 13.0765L13.0097 14.1048L14.0931 11.5282L11.6921 9.79927H14.5691L15.7712 7.01218L16.6885 9.79927H19.5699L17.5224 11.5282L18.5391 14.1048L15.7712 13.0765Z" fill="#F7FCFF"/>
<path fill-rule="evenodd" clip-rule="evenodd" d="M3 16V20H39V16H3Z" fill="#F9E813"/>
</g>
</g>
</g>
<defs>
<filter id="filter0_dd_5_10529" x="0" y="0" width="42" height="30" filterUnits="userSpaceOnUse" color-interpolation-filters="sRGB">
<feFlood flood-opacity="0" result="BackgroundImageFix"/>
<feColorMatrix in="SourceAlpha" type="matrix" values="0 0 0 0 0 0 0 0 0 0 0 0 0 0 0 0 0 0 127 0" result="hardAlpha"/>
<feOffset dy="1"/>
<feGaussianBlur stdDeviation="1"/>
<feColorMatrix type="matrix" values="0 0 0 0 0.0627451 0 0 0 0 0.0941176 0 0 0 0 0.156863 0 0 0 0.06 0"/>
<feBlend mode="normal" in2="BackgroundImageFix" result="effect1_dropShadow_5_10529"/>
<feColorMatrix in="SourceAlpha" type="matrix" values="0 0 0 0 0 0 0 0 0 0 0 0 0 0 0 0 0 0 127 0" result="hardAlpha"/>
<feOffset dy="1"/>
<feGaussianBlur stdDeviation="1.5"/>
<feColorMatrix type="matrix" values="0 0 0 0 0.0627451 0 0 0 0 0.0941176 0 0 0 0 0.156863 0 0 0 0.1 0"/>
<feBlend mode="normal" in2="effect1_dropShadow_5_10529" result="effect2_dropShadow_5_10529"/>
<feBlend mode="normal" in="SourceGraphic" in2="effect2_dropShadow_5_10529" result="shape"/>
</filter>
</defs>
</svg>
