<svg width="42" height="30" viewBox="0 0 42 30" fill="none" xmlns="http://www.w3.org/2000/svg">
<g filter="url(#filter0_dd_5_10440)">
<mask id="mask0_5_10440" style="mask-type:alpha" maskUnits="userSpaceOnUse" x="3" y="2" width="36" height="24">
<rect x="3" y="2" width="36" height="24" fill="white"/>
</mask>
<g mask="url(#mask0_5_10440)">
<path fill-rule="evenodd" clip-rule="evenodd" d="M3 2V26H39V2H3Z" fill="#73BE4A"/>
<mask id="mask1_5_10440" style="mask-type:alpha" maskUnits="userSpaceOnUse" x="3" y="2" width="36" height="24">
<path fill-rule="evenodd" clip-rule="evenodd" d="M3 2V26H39V2H3Z" fill="white"/>
</mask>
<g mask="url(#mask1_5_10440)">
<path fill-rule="evenodd" clip-rule="evenodd" d="M3 0V14H39V0H3Z" fill="#6699FF"/>
</g>
<path fill-rule="evenodd" clip-rule="evenodd" d="M3 2V26L23.25 14L3 2Z" fill="white"/>
<mask id="mask2_5_10440" style="mask-type:alpha" maskUnits="userSpaceOnUse" x="3" y="2" width="21" height="24">
<path fill-rule="evenodd" clip-rule="evenodd" d="M3 2V26L23.25 14L3 2Z" fill="white"/>
</mask>
<g mask="url(#mask2_5_10440)">
<path fill-rule="evenodd" clip-rule="evenodd" d="M10.877 16.0707L8.77251 17.2L9.25254 14.9963L7.5 13.347L9.87303 13.2578L10.877 11.2L11.881 13.2578H14.25L12.5015 14.9963L13.0279 17.2L10.877 16.0707Z" fill="#E31D1C"/>
</g>
</g>
</g>
<defs>
<filter id="filter0_dd_5_10440" x="0" y="0" width="42" height="30" filterUnits="userSpaceOnUse" color-interpolation-filters="sRGB">
<feFlood flood-opacity="0" result="BackgroundImageFix"/>
<feColorMatrix in="SourceAlpha" type="matrix" values="0 0 0 0 0 0 0 0 0 0 0 0 0 0 0 0 0 0 127 0" result="hardAlpha"/>
<feOffset dy="1"/>
<feGaussianBlur stdDeviation="1"/>
<feColorMatrix type="matrix" values="0 0 0 0 0.0627451 0 0 0 0 0.0941176 0 0 0 0 0.156863 0 0 0 0.06 0"/>
<feBlend mode="normal" in2="BackgroundImageFix" result="effect1_dropShadow_5_10440"/>
<feColorMatrix in="SourceAlpha" type="matrix" values="0 0 0 0 0 0 0 0 0 0 0 0 0 0 0 0 0 0 127 0" result="hardAlpha"/>
<feOffset dy="1"/>
<feGaussianBlur stdDeviation="1.5"/>
<feColorMatrix type="matrix" values="0 0 0 0 0.0627451 0 0 0 0 0.0941176 0 0 0 0 0.156863 0 0 0 0.1 0"/>
<feBlend mode="normal" in2="effect1_dropShadow_5_10440" result="effect2_dropShadow_5_10440"/>
<feBlend mode="normal" in="SourceGraphic" in2="effect2_dropShadow_5_10440" result="shape"/>
</filter>
</defs>
</svg>
