<svg width="42" height="30" viewBox="0 0 42 30" fill="none" xmlns="http://www.w3.org/2000/svg">
<g filter="url(#filter0_dd_5_8680)">
<mask id="mask0_5_8680" style="mask-type:alpha" maskUnits="userSpaceOnUse" x="3" y="2" width="36" height="24">
<rect x="3" y="2" width="36" height="24" fill="white"/>
</mask>
<g mask="url(#mask0_5_8680)">
<path fill-rule="evenodd" clip-rule="evenodd" d="M3 2V10H39V2H3Z" fill="#272727"/>
<path fill-rule="evenodd" clip-rule="evenodd" d="M3 18V26H39V18H3Z" fill="#4E8B1D"/>
<path d="M3 9H2V10V18V19H3H39H40V18V10V9H39H3Z" fill="#E31D1C" stroke="#F7FCFF" stroke-width="2"/>
</g>
<path d="M24.397 5.92898C24.6111 5.53879 25.1867 5.1127 26.1238 4.65071C26.156 4.63483 26.1949 4.63392 26.228 4.64827C26.284 4.67256 26.3072 4.7326 26.2796 4.78226L16.5694 22.479L16.0638 22.2598L24.6233 6.66027C24.2357 6.60415 24.1603 6.36039 24.397 5.92898Z" fill="white"/>
<path d="M17.5926 5.92898C17.8294 6.36039 17.7539 6.60415 17.3663 6.66027L25.9258 22.2598L25.4202 22.479L15.71 4.78226C15.6824 4.7326 15.7056 4.67256 15.7617 4.64827C15.7947 4.63392 15.8336 4.63483 15.8658 4.65071C16.8029 5.1127 17.3785 5.53879 17.5926 5.92898Z" fill="white"/>
<path fill-rule="evenodd" clip-rule="evenodd" d="M21 22C22.1213 22 26.625 18.4183 26.625 14C26.625 9.58172 22.1213 6 21 6C19.8787 6 15.375 9.58172 15.375 14C15.375 18.4183 19.8787 22 21 22Z" fill="#E31D1C"/>
<mask id="mask1_5_8680" style="mask-type:alpha" maskUnits="userSpaceOnUse" x="15" y="6" width="12" height="16">
<path fill-rule="evenodd" clip-rule="evenodd" d="M21 22C22.1213 22 26.625 18.4183 26.625 14C26.625 9.58172 22.1213 6 21 6C19.8787 6 15.375 9.58172 15.375 14C15.375 18.4183 19.8787 22 21 22Z" fill="white"/>
</mask>
<g mask="url(#mask1_5_8680)">
<path d="M10.3125 21C14.6617 21 18.1875 17.866 18.1875 14C18.1875 10.134 14.6617 7 10.3125 7C5.96326 7 2.4375 10.134 2.4375 14C2.4375 17.866 5.96326 21 10.3125 21Z" fill="#272727"/>
<path d="M31.6875 21C36.0367 21 39.5625 17.866 39.5625 14C39.5625 10.134 36.0367 7 31.6875 7C27.3383 7 23.8125 10.134 23.8125 14C23.8125 17.866 27.3383 21 31.6875 21Z" fill="#272727"/>
<path fill-rule="evenodd" clip-rule="evenodd" d="M21.2249 12.9301C21.7385 12.6058 22.125 11.1934 22.125 9.50003C22.125 7.8067 21.7385 6.39423 21.2249 6.07001V12.9301ZM20.6624 12.8397C20.206 12.3937 19.875 11.0671 19.875 9.50003C19.875 7.93292 20.206 6.60636 20.6624 6.16031V12.8397ZM20.6624 15.1603V21.8397C20.206 21.3937 19.875 20.0671 19.875 18.5C19.875 16.9329 20.206 15.6064 20.6624 15.1603ZM21.2249 21.9301V15.07C21.7385 15.3942 22.125 16.8067 22.125 18.5C22.125 20.1934 21.7385 21.6058 21.2249 21.9301Z" fill="#F7FCFF"/>
<path d="M21 13C21.6213 13 22.125 13.4477 22.125 14C22.125 14.5523 21.6213 15 21 15C20.3787 15 19.875 14.5523 19.875 14C19.875 13.4477 20.3787 13 21 13Z" fill="#F7FCFF"/>
</g>
</g>
<defs>
<filter id="filter0_dd_5_8680" x="0" y="0" width="42" height="30" filterUnits="userSpaceOnUse" color-interpolation-filters="sRGB">
<feFlood flood-opacity="0" result="BackgroundImageFix"/>
<feColorMatrix in="SourceAlpha" type="matrix" values="0 0 0 0 0 0 0 0 0 0 0 0 0 0 0 0 0 0 127 0" result="hardAlpha"/>
<feOffset dy="1"/>
<feGaussianBlur stdDeviation="1"/>
<feColorMatrix type="matrix" values="0 0 0 0 0.0627451 0 0 0 0 0.0941176 0 0 0 0 0.156863 0 0 0 0.06 0"/>
<feBlend mode="normal" in2="BackgroundImageFix" result="effect1_dropShadow_5_8680"/>
<feColorMatrix in="SourceAlpha" type="matrix" values="0 0 0 0 0 0 0 0 0 0 0 0 0 0 0 0 0 0 127 0" result="hardAlpha"/>
<feOffset dy="1"/>
<feGaussianBlur stdDeviation="1.5"/>
<feColorMatrix type="matrix" values="0 0 0 0 0.0627451 0 0 0 0 0.0941176 0 0 0 0 0.156863 0 0 0 0.1 0"/>
<feBlend mode="normal" in2="effect1_dropShadow_5_8680" result="effect2_dropShadow_5_8680"/>
<feBlend mode="normal" in="SourceGraphic" in2="effect2_dropShadow_5_8680" result="shape"/>
</filter>
</defs>
</svg>
