<svg width="42" height="30" viewBox="0 0 42 30" fill="none" xmlns="http://www.w3.org/2000/svg">
<g filter="url(#filter0_dd_5_9117)">
<mask id="mask0_5_9117" style="mask-type:alpha" maskUnits="userSpaceOnUse" x="3" y="2" width="36" height="24">
<rect x="3" y="2" width="36" height="24" fill="white"/>
</mask>
<g mask="url(#mask0_5_9117)">
<path fill-rule="evenodd" clip-rule="evenodd" d="M3 2V26H39V2H3Z" fill="#F7FCFF"/>
<mask id="mask1_5_9117" style="mask-type:alpha" maskUnits="userSpaceOnUse" x="3" y="2" width="36" height="24">
<path fill-rule="evenodd" clip-rule="evenodd" d="M3 2V26H39V2H3Z" fill="white"/>
</mask>
<g mask="url(#mask1_5_9117)">
<path fill-rule="evenodd" clip-rule="evenodd" d="M1.30615 5.29149L2.97919 6.70851C4.36072 5.54766 5.66428 5 6.90309 5C7.50162 5 7.75651 5.1285 8.44678 5.70851C9.54166 6.6285 10.2785 7 11.6635 7C13.0485 7 13.7853 6.6285 14.8802 5.70851C15.5705 5.1285 15.8254 5 16.4239 5C17.0225 5 17.2773 5.1285 17.9676 5.70851C19.0625 6.6285 19.7994 7 21.1843 7C22.5693 7 23.3062 6.6285 24.4011 5.70851C25.0913 5.1285 25.3462 5 25.9448 5C26.5433 5 26.7982 5.1285 27.4884 5.70851C28.5833 6.6285 29.3202 7 30.7052 7C32.0902 7 32.827 6.6285 33.9219 5.70851C34.6122 5.1285 34.8671 5 35.4656 5C36.7044 5 38.008 5.54766 39.3895 6.70851L41.0625 5.29149C39.2704 3.78567 37.4004 3 35.4656 3C34.0806 3 33.3438 3.3715 32.2489 4.29149C31.5586 4.8715 31.3037 5 30.7052 5C30.1066 5 29.8518 4.8715 29.1615 4.29149C28.0666 3.3715 27.3297 3 25.9448 3C24.5598 3 23.8229 3.3715 22.728 4.29149C22.0378 4.8715 21.7829 5 21.1843 5C20.5858 5 20.3309 4.8715 19.6406 4.29149C18.5458 3.3715 17.8089 3 16.4239 3C15.0389 3 14.3021 3.3715 13.2072 4.29149C12.5169 4.8715 12.262 5 11.6635 5C11.065 5 10.8101 4.8715 10.1198 4.29149C9.02493 3.3715 8.28807 3 6.90309 3C4.96829 3 3.09823 3.78567 1.30615 5.29149ZM2.97919 10.7085L1.30615 9.29149C3.09823 7.78567 4.96829 7 6.90309 7C8.28807 7 9.02493 7.3715 10.1198 8.29149C10.8101 8.8715 11.065 9 11.6635 9C12.262 9 12.5169 8.8715 13.2072 8.29149C14.3021 7.3715 15.0389 7 16.4239 7C17.8089 7 18.5458 7.3715 19.6406 8.29149C20.3309 8.8715 20.5858 9 21.1843 9C21.7829 9 22.0378 8.8715 22.728 8.29149C23.8229 7.3715 24.5598 7 25.9448 7C27.3297 7 28.0666 7.3715 29.1615 8.29149C29.8518 8.8715 30.1066 9 30.7052 9C31.3037 9 31.5586 8.8715 32.2489 8.29149C33.3438 7.3715 34.0806 7 35.4656 7C37.4004 7 39.2704 7.78567 41.0625 9.29149L39.3895 10.7085C38.008 9.54766 36.7044 9 35.4656 9C34.8671 9 34.6122 9.1285 33.9219 9.70851C32.827 10.6285 32.0902 11 30.7052 11C29.3202 11 28.5833 10.6285 27.4884 9.70851C26.7982 9.1285 26.5433 9 25.9448 9C25.3462 9 25.0913 9.1285 24.4011 9.70851C23.3062 10.6285 22.5693 11 21.1843 11C19.7994 11 19.0625 10.6285 17.9676 9.70851C17.2773 9.1285 17.0225 9 16.4239 9C15.8254 9 15.5705 9.1285 14.8802 9.70851C13.7853 10.6285 13.0485 11 11.6635 11C10.2785 11 9.54166 10.6285 8.44678 9.70851C7.75651 9.1285 7.50162 9 6.90309 9C5.66428 9 4.36072 9.54766 2.97919 10.7085ZM2.97919 14.7085L1.30615 13.2915C3.09823 11.7857 4.96829 11 6.90309 11C8.28807 11 9.02493 11.3715 10.1198 12.2915C10.8101 12.8715 11.065 13 11.6635 13C12.262 13 12.5169 12.8715 13.2072 12.2915C14.3021 11.3715 15.0389 11 16.4239 11C17.8089 11 18.5458 11.3715 19.6406 12.2915C20.3309 12.8715 20.5858 13 21.1843 13C21.7829 13 22.0378 12.8715 22.728 12.2915C23.8229 11.3715 24.5598 11 25.9448 11C27.3297 11 28.0666 11.3715 29.1615 12.2915C29.8518 12.8715 30.1066 13 30.7052 13C31.3037 13 31.5586 12.8715 32.2489 12.2915C33.3438 11.3715 34.0806 11 35.4656 11C37.4004 11 39.2704 11.7857 41.0625 13.2915L39.3895 14.7085C38.008 13.5477 36.7044 13 35.4656 13C34.8671 13 34.6122 13.1285 33.9219 13.7085C32.827 14.6285 32.0902 15 30.7052 15C29.3202 15 28.5833 14.6285 27.4884 13.7085C26.7982 13.1285 26.5433 13 25.9448 13C25.3462 13 25.0913 13.1285 24.4011 13.7085C23.3062 14.6285 22.5693 15 21.1843 15C19.7994 15 19.0625 14.6285 17.9676 13.7085C17.2773 13.1285 17.0225 13 16.4239 13C15.8254 13 15.5705 13.1285 14.8802 13.7085C13.7853 14.6285 13.0485 15 11.6635 15C10.2785 15 9.54166 14.6285 8.44678 13.7085C7.75651 13.1285 7.50162 13 6.90309 13C5.66428 13 4.36072 13.5477 2.97919 14.7085ZM2.97919 18.7085L1.30615 17.2915C3.09823 15.7857 4.96829 15 6.90309 15C8.28807 15 9.02493 15.3715 10.1198 16.2915C10.8101 16.8715 11.065 17 11.6635 17C12.262 17 12.5169 16.8715 13.2072 16.2915C14.3021 15.3715 15.0389 15 16.4239 15C17.8089 15 18.5458 15.3715 19.6406 16.2915C20.3309 16.8715 20.5858 17 21.1843 17C21.7829 17 22.0378 16.8715 22.728 16.2915C23.8229 15.3715 24.5598 15 25.9448 15C27.3297 15 28.0666 15.3715 29.1615 16.2915C29.8518 16.8715 30.1066 17 30.7052 17C31.3037 17 31.5586 16.8715 32.2489 16.2915C33.3438 15.3715 34.0806 15 35.4656 15C37.4004 15 39.2704 15.7857 41.0625 17.2915L39.3895 18.7085C38.008 17.5477 36.7044 17 35.4656 17C34.8671 17 34.6122 17.1285 33.9219 17.7085C32.827 18.6285 32.0902 19 30.7052 19C29.3202 19 28.5833 18.6285 27.4884 17.7085C26.7982 17.1285 26.5433 17 25.9448 17C25.3462 17 25.0913 17.1285 24.4011 17.7085C23.3062 18.6285 22.5693 19 21.1843 19C19.7994 19 19.0625 18.6285 17.9676 17.7085C17.2773 17.1285 17.0225 17 16.4239 17C15.8254 17 15.5705 17.1285 14.8802 17.7085C13.7853 18.6285 13.0485 19 11.6635 19C10.2785 19 9.54166 18.6285 8.44678 17.7085C7.75651 17.1285 7.50162 17 6.90309 17C5.66428 17 4.36072 17.5477 2.97919 18.7085ZM2.97919 22.7085L1.30615 21.2915C3.09823 19.7857 4.96829 19 6.90309 19C8.28807 19 9.02493 19.3715 10.1198 20.2915C10.8101 20.8715 11.065 21 11.6635 21C12.262 21 12.5169 20.8715 13.2072 20.2915C14.3021 19.3715 15.0389 19 16.4239 19C17.8089 19 18.5458 19.3715 19.6406 20.2915C20.3309 20.8715 20.5858 21 21.1843 21C21.7829 21 22.0378 20.8715 22.728 20.2915C23.8229 19.3715 24.5598 19 25.9448 19C27.3297 19 28.0666 19.3715 29.1615 20.2915C29.8518 20.8715 30.1066 21 30.7052 21C31.3037 21 31.5586 20.8715 32.2489 20.2915C33.3438 19.3715 34.0806 19 35.4656 19C37.4004 19 39.2704 19.7857 41.0625 21.2915L39.3895 22.7085C38.008 21.5477 36.7044 21 35.4656 21C34.8671 21 34.6122 21.1285 33.9219 21.7085C32.827 22.6285 32.0902 23 30.7052 23C29.3202 23 28.5833 22.6285 27.4884 21.7085C26.7982 21.1285 26.5433 21 25.9448 21C25.3462 21 25.0913 21.1285 24.4011 21.7085C23.3062 22.6285 22.5693 23 21.1843 23C19.7994 23 19.0625 22.6285 17.9676 21.7085C17.2773 21.1285 17.0225 21 16.4239 21C15.8254 21 15.5705 21.1285 14.8802 21.7085C13.7853 22.6285 13.0485 23 11.6635 23C10.2785 23 9.54166 22.6285 8.44678 21.7085C7.75651 21.1285 7.50162 21 6.90309 21C5.66428 21 4.36072 21.5477 2.97919 22.7085ZM2.97919 26.7085L1.30615 25.2915C3.09823 23.7857 4.96829 23 6.90309 23C8.28807 23 9.02493 23.3715 10.1198 24.2915C10.8101 24.8715 11.065 25 11.6635 25C12.262 25 12.5169 24.8715 13.2072 24.2915C14.3021 23.3715 15.0389 23 16.4239 23C17.8089 23 18.5458 23.3715 19.6406 24.2915C20.3309 24.8715 20.5858 25 21.1843 25C21.7829 25 22.0378 24.8715 22.728 24.2915C23.8229 23.3715 24.5598 23 25.9448 23C27.3297 23 28.0666 23.3715 29.1615 24.2915C29.8518 24.8715 30.1066 25 30.7052 25C31.3037 25 31.5586 24.8715 32.2489 24.2915C33.3438 23.3715 34.0806 23 35.4656 23C37.4004 23 39.2704 23.7857 41.0625 25.2915L39.3895 26.7085C38.008 25.5477 36.7044 25 35.4656 25C34.8671 25 34.6122 25.1285 33.9219 25.7085C32.827 26.6285 32.0902 27 30.7052 27C29.3202 27 28.5833 26.6285 27.4884 25.7085C26.7982 25.1285 26.5433 25 25.9448 25C25.3462 25 25.0913 25.1285 24.4011 25.7085C23.3062 26.6285 22.5693 27 21.1843 27C19.7994 27 19.0625 26.6285 17.9676 25.7085C17.2773 25.1285 17.0225 25 16.4239 25C15.8254 25 15.5705 25.1285 14.8802 25.7085C13.7853 26.6285 13.0485 27 11.6635 27C10.2785 27 9.54166 26.6285 8.44678 25.7085C7.75651 25.1285 7.50162 25 6.90309 25C5.66428 25 4.36072 25.5477 2.97919 26.7085Z" fill="#2E42A5"/>
<mask id="mask2_5_9117" style="mask-type:alpha" maskUnits="userSpaceOnUse" x="3" y="2" width="16" height="10">
<rect x="3" y="2" width="15.75" height="10" fill="white"/>
</mask>
<g mask="url(#mask2_5_9117)">
<rect x="3" y="2" width="15.75" height="12" fill="#2E42A5"/>
<path d="M0.57251 13.3332L4.6858 14.8774L21.4395 3.45669L23.6092 1.16199L19.2106 0.645885L12.3772 5.56739L6.87695 8.88333L0.57251 13.3332Z" fill="white"/>
<path d="M1.1355 14.4151L3.23103 15.3112L22.8299 0.948805H19.8876L1.1355 14.4151Z" fill="#F50100"/>
<path d="M23.4275 13.3332L19.3142 14.8774L2.56049 3.45669L0.390823 1.16199L4.7894 0.645885L11.6228 5.56739L17.123 8.88333L23.4275 13.3332Z" fill="white"/>
<path d="M23.2871 14.1096L21.1916 15.0057L12.8462 8.85644L10.3719 8.1694L0.182022 1.16981H3.1244L13.3086 8.00326L16.0137 8.8271L23.2871 14.1096Z" fill="#F50100"/>
<mask id="path-12-outside-1_5_9117" maskUnits="userSpaceOnUse" x="2.01733" y="1" width="18" height="12" fill="black">
<rect fill="white" x="2.01733" y="1" width="18" height="12"/>
<path fill-rule="evenodd" clip-rule="evenodd" d="M11.9999 2H9.74986V6H3.01733V8H9.74986V12H11.9999V8H18.7673V6H11.9999V2Z"/>
</mask>
<path fill-rule="evenodd" clip-rule="evenodd" d="M11.9999 2H9.74986V6H3.01733V8H9.74986V12H11.9999V8H18.7673V6H11.9999V2Z" fill="#F50100"/>
<path d="M9.74986 2V1H8.74986V2H9.74986ZM11.9999 2H12.9999V1H11.9999V2ZM9.74986 6V7H10.7499V6H9.74986ZM3.01733 6V5H2.01733V6H3.01733ZM3.01733 8H2.01733V9H3.01733V8ZM9.74986 8H10.7499V7H9.74986V8ZM9.74986 12H8.74986V13H9.74986V12ZM11.9999 12V13H12.9999V12H11.9999ZM11.9999 8V7H10.9999V8H11.9999ZM18.7673 8V9H19.7673V8H18.7673ZM18.7673 6H19.7673V5H18.7673V6ZM11.9999 6H10.9999V7H11.9999V6ZM9.74986 3H11.9999V1H9.74986V3ZM10.7499 6V2H8.74986V6H10.7499ZM3.01733 7H9.74986V5H3.01733V7ZM4.01733 8V6H2.01733V8H4.01733ZM9.74986 7H3.01733V9H9.74986V7ZM10.7499 12V8H8.74986V12H10.7499ZM11.9999 11H9.74986V13H11.9999V11ZM10.9999 8V12H12.9999V8H10.9999ZM18.7673 7H11.9999V9H18.7673V7ZM17.7673 6V8H19.7673V6H17.7673ZM11.9999 7H18.7673V5H11.9999V7ZM10.9999 2V6H12.9999V2H10.9999Z" fill="#F7FCFF" mask="url(#path-12-outside-1_5_9117)"/>
</g>
<rect x="25.95" y="11.3786" width="1.125" height="12.6214" rx="0.5" fill="#D86D00"/>
<mask id="path-15-outside-2_5_9117" maskUnits="userSpaceOnUse" x="19.4514" y="3.0575" width="13" height="11" fill="black">
<rect fill="white" x="19.4514" y="3.0575" width="13" height="11"/>
<path fill-rule="evenodd" clip-rule="evenodd" d="M25.9546 4.0575C26.8853 5.19199 27.2669 6.53266 27.3012 7.89667C28.3518 6.63119 30.1042 5.5974 30.9237 5.1553C30.1717 5.62274 29.7812 6.31572 29.3417 7.09549C29.1261 7.47816 28.8986 7.88174 28.6109 8.28981C30.4014 7.71805 32.18 7.57125 32.18 7.57125C30.9868 7.8722 29.8861 8.48665 28.8166 9.0837C28.4264 9.30156 28.0403 9.5171 27.6553 9.71425C31.1111 10.8712 31.6428 12.5444 31.6428 12.5444C31.2191 12.212 30.3052 11.8563 28.5793 11.1846C28.2486 11.0559 27.8881 10.9156 27.4955 10.7616C27.7532 11.6053 28.0659 12.2653 28.3643 12.8954L28.4531 13.0831C28.4531 13.0831 26.0618 12.5092 25.6075 10.8613C24.2661 11.8189 22.8166 12.364 22.1366 12.5799C22.1366 12.5799 23.7557 11.0175 24.9449 9.98065C23.3835 9.8242 20.4514 9.69612 20.4514 9.69612L20.6599 9.65206C21.8389 9.40237 23.6629 9.01606 25.3345 9.03627C23.5419 8.14345 22.4396 6.93485 22.1009 6.52867C22.3862 6.75286 23.1809 7.03355 24.2652 7.41656C24.7229 7.57821 25.2321 7.75808 25.7764 7.95963C25.8801 6.27568 25.9546 4.0575 25.9546 4.0575ZM21.9889 6.38902C22.0003 6.43318 22.0383 6.47957 22.1009 6.52867C22.0265 6.43951 21.9889 6.38902 21.9889 6.38902ZM31.3718 4.92371C31.2088 4.99291 31.0603 5.07039 30.9237 5.1553C31.2012 5.00557 31.3718 4.92371 31.3718 4.92371ZM26.2757 9.01629C26.3453 8.9888 26.4225 8.97353 26.5036 8.97353C26.5462 8.97353 26.5878 8.97774 26.6277 8.98572C26.6394 8.95618 26.6516 8.9267 26.6644 8.89728L26.2918 8.92008L26.2757 9.01629Z"/>
</mask>
<path fill-rule="evenodd" clip-rule="evenodd" d="M25.9546 4.0575C26.8853 5.19199 27.2669 6.53266 27.3012 7.89667C28.3518 6.63119 30.1042 5.5974 30.9237 5.1553C30.1717 5.62274 29.7812 6.31572 29.3417 7.09549C29.1261 7.47816 28.8986 7.88174 28.6109 8.28981C30.4014 7.71805 32.18 7.57125 32.18 7.57125C30.9868 7.8722 29.8861 8.48665 28.8166 9.0837C28.4264 9.30156 28.0403 9.5171 27.6553 9.71425C31.1111 10.8712 31.6428 12.5444 31.6428 12.5444C31.2191 12.212 30.3052 11.8563 28.5793 11.1846C28.2486 11.0559 27.8881 10.9156 27.4955 10.7616C27.7532 11.6053 28.0659 12.2653 28.3643 12.8954L28.4531 13.0831C28.4531 13.0831 26.0618 12.5092 25.6075 10.8613C24.2661 11.8189 22.8166 12.364 22.1366 12.5799C22.1366 12.5799 23.7557 11.0175 24.9449 9.98065C23.3835 9.8242 20.4514 9.69612 20.4514 9.69612L20.6599 9.65206C21.8389 9.40237 23.6629 9.01606 25.3345 9.03627C23.5419 8.14345 22.4396 6.93485 22.1009 6.52867C22.3862 6.75286 23.1809 7.03355 24.2652 7.41656C24.7229 7.57821 25.2321 7.75808 25.7764 7.95963C25.8801 6.27568 25.9546 4.0575 25.9546 4.0575ZM21.9889 6.38902C22.0003 6.43318 22.0383 6.47957 22.1009 6.52867C22.0265 6.43951 21.9889 6.38902 21.9889 6.38902ZM31.3718 4.92371C31.2088 4.99291 31.0603 5.07039 30.9237 5.1553C31.2012 5.00557 31.3718 4.92371 31.3718 4.92371ZM26.2757 9.01629C26.3453 8.9888 26.4225 8.97353 26.5036 8.97353C26.5462 8.97353 26.5878 8.97774 26.6277 8.98572C26.6394 8.95618 26.6516 8.9267 26.6644 8.89728L26.2918 8.92008L26.2757 9.01629Z" fill="#449A01"/>
<path d="M27.3012 7.89667L26.9513 7.90545L26.9747 8.83784L27.5705 8.12023L27.3012 7.89667ZM25.9546 4.0575L26.2252 3.83552L25.6361 3.11728L25.6048 4.04573L25.9546 4.0575ZM29.3417 7.09549L29.6466 7.26732L29.3417 7.09549ZM28.6109 8.28981L28.3248 8.08813L27.7239 8.94048L28.7174 8.62323L28.6109 8.28981ZM32.18 7.57125L32.2656 7.91062L32.1512 7.22244L32.18 7.57125ZM28.8166 9.0837L28.646 8.77809L28.8166 9.0837ZM27.6553 9.71425L27.4958 9.40273L26.7553 9.78201L27.5442 10.0461L27.6553 9.71425ZM31.6428 12.5444L31.4267 12.8198L32.3203 13.521L31.9763 12.4385L31.6428 12.5444ZM28.5793 11.1846L28.7062 10.8584L28.5793 11.1846ZM27.4955 10.7616L27.6233 10.4358L26.9492 10.1714L27.1607 10.8639L27.4955 10.7616ZM28.3643 12.8954L28.6807 12.7458L28.6806 12.7456L28.3643 12.8954ZM28.4531 13.0831L28.3714 13.4235L29.0819 13.594L28.7695 12.9335L28.4531 13.0831ZM25.6075 10.8613L25.945 10.7683L25.8119 10.2854L25.4042 10.5764L25.6075 10.8613ZM22.1366 12.5799L21.8935 12.3281L22.2425 12.9135L22.1366 12.5799ZM24.9449 9.98065L25.1749 10.2445L25.7844 9.71301L24.9798 9.63239L24.9449 9.98065ZM20.4514 9.69612L20.379 9.35369L20.4361 10.0458L20.4514 9.69612ZM20.6599 9.65206L20.7322 9.99449L20.7324 9.99446L20.6599 9.65206ZM25.3345 9.03627L25.3303 9.38625L25.4906 8.72298L25.3345 9.03627ZM24.2652 7.41656L24.1487 7.74658L24.2652 7.41656ZM25.7764 7.95963L25.6549 8.28785L26.0968 8.45148L26.1258 7.98112L25.7764 7.95963ZM21.9889 6.38902L22.2697 6.1801L21.6499 6.47607L21.9889 6.38902ZM31.3718 4.92371L31.5232 5.23924L31.2349 4.60157L31.3718 4.92371ZM26.2757 9.01629L25.9305 8.95832L25.8279 9.56919L26.4041 9.34187L26.2757 9.01629ZM26.6277 8.98572L26.559 9.32892L26.8455 9.38624L26.9531 9.11463L26.6277 8.98572ZM26.6644 8.89728L26.9854 9.03661L27.2126 8.51306L26.643 8.54793L26.6644 8.89728ZM26.2918 8.92008L26.2704 8.57074L25.9927 8.58774L25.9466 8.86212L26.2918 8.92008ZM27.6511 7.88788C27.6153 6.46359 27.2154 5.0426 26.2252 3.83552L25.684 4.27948C26.5551 5.34137 26.9186 6.60174 26.9513 7.90545L27.6511 7.88788ZM30.7575 4.84727C29.9354 5.29078 28.1293 6.35124 27.0319 7.6731L27.5705 8.12023C28.5743 6.91114 30.273 5.90401 31.0899 5.46334L30.7575 4.84727ZM29.6466 7.26732C30.0925 6.47616 30.4441 5.86551 31.1085 5.45255L30.7389 4.85805C29.8993 5.37997 29.4698 6.15528 29.0368 6.92365L29.6466 7.26732ZM28.8969 8.4915C29.1963 8.06692 29.4318 7.64849 29.6466 7.26732L29.0368 6.92365C28.8203 7.30783 28.6009 7.69656 28.3248 8.08813L28.8969 8.4915ZM32.18 7.57125C32.1512 7.22244 32.1511 7.22244 32.1511 7.22245C32.151 7.22245 32.151 7.22245 32.1509 7.22246C32.1508 7.22247 32.1507 7.22248 32.1505 7.22249C32.1502 7.22252 32.1498 7.22255 32.1492 7.2226C32.1481 7.22269 32.1466 7.22282 32.1447 7.22299C32.1408 7.22332 32.1353 7.22381 32.1281 7.22446C32.1137 7.22575 32.0928 7.2277 32.0657 7.23036C32.0117 7.23568 31.9331 7.24387 31.8336 7.25548C31.6345 7.27868 31.351 7.31559 31.011 7.37062C30.3321 7.48046 29.4217 7.6635 28.5044 7.9564L28.7174 8.62323C29.5906 8.34437 30.4647 8.16812 31.1228 8.06163C31.4512 8.00849 31.7242 7.97296 31.9146 7.95077C32.0097 7.93968 32.0841 7.93193 32.1343 7.92699C32.1594 7.92452 32.1784 7.92276 32.191 7.92162C32.1973 7.92106 32.2019 7.92065 32.2049 7.92039C32.2064 7.92026 32.2075 7.92017 32.2081 7.92012C32.2084 7.92009 32.2086 7.92007 32.2087 7.92006C32.2088 7.92006 32.2088 7.92006 32.2088 7.92006L32.2088 7.92006C32.2088 7.92006 32.2087 7.92006 32.18 7.57125ZM28.9872 9.3893C30.0642 8.78808 31.1248 8.19836 32.2656 7.91062L32.0944 7.23188C30.8488 7.54604 29.708 8.18522 28.646 8.77809L28.9872 9.3893ZM27.8149 10.0258C28.2064 9.82527 28.598 9.6066 28.9872 9.3893L28.646 8.77809C28.2547 8.99652 27.8742 9.20894 27.4958 9.40273L27.8149 10.0258ZM31.6428 12.5444C31.9763 12.4385 31.9762 12.4382 31.9761 12.4379C31.9761 12.4378 31.976 12.4375 31.976 12.4373C31.9758 12.4369 31.9757 12.4364 31.9755 12.436C31.9752 12.435 31.9749 12.434 31.9745 12.4329C31.9737 12.4306 31.9728 12.4279 31.9718 12.4248C31.9696 12.4187 31.9668 12.4109 31.9633 12.4016C31.9563 12.3831 31.9465 12.3585 31.9331 12.3284C31.9064 12.2682 31.8659 12.186 31.8067 12.0863C31.6881 11.8866 31.4957 11.6179 31.192 11.3153C30.5838 10.7092 29.5382 9.97553 27.7664 9.38236L27.5442 10.0461C29.2282 10.61 30.1764 11.2914 30.6979 11.8111C30.9591 12.0714 31.1156 12.2934 31.2047 12.4436C31.2494 12.5188 31.2773 12.5764 31.2932 12.6121C31.3011 12.6301 31.3061 12.6425 31.3085 12.6491C31.3098 12.6524 31.3104 12.6542 31.3105 12.6544C31.3105 12.6545 31.3104 12.6543 31.3102 12.6536C31.3101 12.6533 31.31 12.6528 31.3098 12.6523C31.3097 12.652 31.3096 12.6518 31.3095 12.6514C31.3095 12.6513 31.3094 12.651 31.3094 12.651C31.3093 12.6507 31.3092 12.6504 31.6428 12.5444ZM28.4523 11.5108C29.3178 11.8476 29.9708 12.1018 30.4608 12.3131C30.9572 12.5273 31.254 12.6843 31.4267 12.8198L31.8588 12.2691C31.6079 12.0722 31.2359 11.8851 30.738 11.6704C30.2336 11.4528 29.5667 11.1933 28.7062 10.8584L28.4523 11.5108ZM27.3677 11.0874C27.7607 11.2416 28.1217 11.3821 28.4523 11.5108L28.7062 10.8584C28.3755 10.7297 28.0154 10.5896 27.6233 10.4358L27.3677 11.0874ZM28.6806 12.7456C28.382 12.1152 28.0796 11.4759 27.8302 10.6594L27.1607 10.8639C27.4268 11.7347 27.7497 12.4154 28.048 13.0453L28.6806 12.7456ZM28.7695 12.9335L28.6807 12.7458L28.0479 13.0451L28.1367 13.2328L28.7695 12.9335ZM25.2701 10.9543C25.5362 11.9195 26.3549 12.5354 27.0358 12.8989C27.3837 13.0847 27.7149 13.2149 27.9585 13.2987C28.0807 13.3407 28.1819 13.3714 28.2534 13.3918C28.2892 13.402 28.3176 13.4097 28.3377 13.4149C28.3477 13.4175 28.3556 13.4195 28.3612 13.421C28.3641 13.4217 28.3663 13.4222 28.3681 13.4226C28.3689 13.4229 28.3696 13.423 28.3702 13.4232C28.3705 13.4232 28.3707 13.4233 28.3709 13.4233C28.371 13.4234 28.3711 13.4234 28.3712 13.4234C28.3713 13.4234 28.3714 13.4235 28.4531 13.0831C28.5348 12.7428 28.5349 12.7428 28.535 12.7428C28.535 12.7428 28.5351 12.7429 28.5351 12.7429C28.5351 12.7429 28.5352 12.7429 28.5352 12.7429C28.5352 12.7429 28.535 12.7428 28.5347 12.7428C28.5341 12.7426 28.5329 12.7423 28.5312 12.7419C28.5278 12.7411 28.5223 12.7396 28.5146 12.7377C28.4994 12.7337 28.476 12.7274 28.4455 12.7187C28.3845 12.7013 28.2953 12.6743 28.1862 12.6367C27.9673 12.5614 27.6722 12.4452 27.3655 12.2814C26.7372 11.946 26.1332 11.451 25.945 10.7683L25.2701 10.9543ZM22.2425 12.9135C22.9411 12.6916 24.4285 12.133 25.8109 11.1461L25.4042 10.5764C24.1037 11.5048 22.692 12.0363 22.0306 12.2464L22.2425 12.9135ZM24.7149 9.71685C24.1152 10.2397 23.4094 10.8931 22.8551 11.4141C22.5775 11.6749 22.3373 11.9033 22.1664 12.0665C22.081 12.1481 22.0128 12.2134 21.966 12.2583C21.9426 12.2808 21.9245 12.2982 21.9123 12.31C21.9062 12.3159 21.9015 12.3204 21.8983 12.3234C21.8968 12.3249 21.8956 12.3261 21.8948 12.3269C21.8944 12.3273 21.8941 12.3276 21.8938 12.3278C21.8937 12.3279 21.8937 12.3279 21.8936 12.328C21.8936 12.328 21.8936 12.328 21.8935 12.328C21.8935 12.3281 21.8935 12.3281 22.1366 12.5799C22.3796 12.8318 22.3796 12.8318 22.3796 12.8318C22.3796 12.8318 22.3796 12.8318 22.3796 12.8317C22.3797 12.8317 22.3798 12.8316 22.3798 12.8315C22.38 12.8314 22.3803 12.8311 22.3807 12.8307C22.3815 12.83 22.3826 12.8289 22.3841 12.8274C22.3872 12.8245 22.3917 12.8201 22.3978 12.8143C22.4098 12.8027 22.4277 12.7855 22.4509 12.7632C22.4973 12.7187 22.5649 12.6538 22.6498 12.5727C22.8197 12.4106 23.0586 12.1835 23.3345 11.9241C23.8871 11.4047 24.5854 10.7585 25.1749 10.2445L24.7149 9.71685ZM20.4514 9.69612C20.4361 10.0458 20.4361 10.0458 20.4362 10.0458C20.4362 10.0458 20.4362 10.0458 20.4363 10.0458C20.4363 10.0458 20.4365 10.0458 20.4366 10.0458C20.437 10.0458 20.4375 10.0458 20.4382 10.0459C20.4396 10.0459 20.4417 10.046 20.4444 10.0462C20.45 10.0464 20.4582 10.0468 20.4691 10.0472C20.4908 10.0482 20.523 10.0497 20.5645 10.0516C20.6474 10.0554 20.7678 10.061 20.9171 10.0682C21.2157 10.0826 21.6302 10.1034 22.0932 10.1292C23.0213 10.1807 24.1378 10.2515 24.91 10.3289L24.9798 9.63239C24.1906 9.55332 23.0603 9.48184 22.132 9.43026C21.6669 9.40441 21.2507 9.38347 20.9508 9.36899C20.8009 9.36174 20.6799 9.35611 20.5965 9.3523C20.5547 9.35039 20.5223 9.34893 20.5003 9.34795C20.4894 9.34745 20.481 9.34708 20.4753 9.34683C20.4725 9.34671 20.4703 9.34661 20.4689 9.34655C20.4682 9.34652 20.4676 9.3465 20.4673 9.34648C20.4671 9.34647 20.4669 9.34646 20.4668 9.34646C20.4668 9.34646 20.4668 9.34646 20.4667 9.34646C20.4667 9.34645 20.4667 9.34645 20.4514 9.69612ZM20.5875 9.30963L20.379 9.35369L20.5238 10.0386L20.7322 9.99449L20.5875 9.30963ZM25.3388 8.6863C23.6221 8.66554 21.7603 9.06125 20.5873 9.30965L20.7324 9.99446C21.9175 9.74348 23.7038 9.36658 25.3303 9.38625L25.3388 8.6863ZM21.8321 6.75284C22.1886 7.18029 23.3272 8.42751 25.1785 9.34956L25.4906 8.72298C23.7566 7.85938 22.6906 6.6894 22.3696 6.3045L21.8321 6.75284ZM24.3818 7.08654C23.8374 6.89426 23.3746 6.73072 23.012 6.58752C22.636 6.43903 22.4135 6.32922 22.3171 6.25343L21.8846 6.80391C22.0736 6.9523 22.3911 7.09494 22.7549 7.23859C23.1321 7.38754 23.6087 7.55585 24.1487 7.74658L24.3818 7.08654ZM25.898 7.6314C25.3508 7.42882 24.8392 7.24812 24.3818 7.08654L24.1487 7.74658C24.6065 7.9083 25.1134 8.08735 25.6549 8.28785L25.898 7.6314ZM25.9546 4.0575C25.6048 4.04573 25.6048 4.04574 25.6048 4.04575C25.6048 4.04577 25.6048 4.04579 25.6048 4.04582C25.6048 4.04588 25.6048 4.04598 25.6048 4.04611C25.6048 4.04637 25.6048 4.04676 25.6048 4.04729C25.6047 4.04834 25.6047 4.04993 25.6046 4.05203C25.6045 4.05624 25.6043 4.06253 25.604 4.07082C25.6034 4.08739 25.6026 4.11195 25.6014 4.14383C25.5992 4.2076 25.5959 4.30062 25.5916 4.41754C25.583 4.65139 25.5705 4.98075 25.5547 5.36264C25.5231 6.12689 25.4787 7.09967 25.4271 7.93813L26.1258 7.98112C26.1778 7.13563 26.2225 6.15736 26.2541 5.39152C26.2699 5.00837 26.2825 4.67794 26.2911 4.44325C26.2954 4.32591 26.2988 4.23248 26.301 4.16836C26.3021 4.1363 26.303 4.11156 26.3036 4.09482C26.3039 4.08645 26.3041 4.08008 26.3042 4.07579C26.3043 4.07365 26.3043 4.07202 26.3044 4.07093C26.3044 4.07038 26.3044 4.06997 26.3044 4.06969C26.3044 4.06955 26.3044 4.06945 26.3044 4.06937C26.3044 4.06934 26.3044 4.06931 26.3044 4.06929C26.3044 4.06927 26.3044 4.06926 25.9546 4.0575ZM21.6499 6.47607C21.6909 6.6355 21.8062 6.74231 21.8846 6.80391L22.3171 6.25343C22.2995 6.23962 22.2955 6.23396 22.2982 6.23731C22.3006 6.24028 22.3176 6.26193 22.3279 6.30196L21.6499 6.47607ZM22.3696 6.3045C22.3347 6.26261 22.3088 6.23032 22.2921 6.20909C22.2838 6.19847 22.2778 6.19063 22.274 6.18573C22.2721 6.18329 22.2708 6.18158 22.2701 6.18063C22.2698 6.18016 22.2696 6.17988 22.2695 6.17979C22.2695 6.17974 22.2695 6.17974 22.2695 6.1798C22.2695 6.17982 22.2696 6.17986 22.2696 6.17991C22.2696 6.17993 22.2696 6.17996 22.2697 6.17999C22.2697 6.18001 22.2697 6.18003 22.2697 6.18004C22.2697 6.18005 22.2697 6.18007 22.2697 6.18007C22.2697 6.18008 22.2697 6.1801 21.9889 6.38902C21.7081 6.59793 21.7081 6.59795 21.7081 6.59796C21.7081 6.59797 21.7081 6.59798 21.7082 6.59799C21.7082 6.59801 21.7082 6.59803 21.7082 6.59805C21.7082 6.5981 21.7083 6.59814 21.7083 6.59819C21.7084 6.59829 21.7085 6.59841 21.7086 6.59853C21.7087 6.59878 21.709 6.59908 21.7092 6.59942C21.7097 6.60012 21.7104 6.601 21.7112 6.60209C21.7129 6.60425 21.7151 6.60718 21.7179 6.61086C21.7235 6.61822 21.7315 6.62857 21.7419 6.64173C21.7625 6.66803 21.7926 6.70557 21.8321 6.75284L22.3696 6.3045ZM31.2349 4.60157C31.0558 4.67764 30.8912 4.76338 30.7389 4.85805L31.1085 5.45255C31.2294 5.37739 31.3619 5.30818 31.5086 5.24586L31.2349 4.60157ZM31.0899 5.46334C31.2257 5.39003 31.3351 5.33352 31.41 5.29557C31.4474 5.27659 31.4763 5.26226 31.4955 5.2528C31.5051 5.24807 31.5123 5.24456 31.5169 5.24229C31.5193 5.24115 31.521 5.24033 31.522 5.23982C31.5225 5.23957 31.5229 5.23939 31.5231 5.23929C31.5232 5.23925 31.5233 5.23922 31.5233 5.23921C31.5233 5.23921 31.5233 5.23921 31.5233 5.23921C31.5233 5.23921 31.5233 5.23922 31.5233 5.23922C31.5233 5.23923 31.5232 5.23923 31.5232 5.23923C31.5232 5.23924 31.5232 5.23924 31.3718 4.92371C31.2203 4.60818 31.2203 4.60819 31.2203 4.6082C31.2203 4.6082 31.2202 4.60821 31.2202 4.60821C31.2202 4.60822 31.2202 4.60823 31.2202 4.60825C31.2201 4.60827 31.22 4.6083 31.22 4.60834C31.2198 4.60841 31.2196 4.6085 31.2194 4.60861C31.2189 4.60883 31.2183 4.60914 31.2175 4.60952C31.2159 4.61028 31.2137 4.61136 31.2108 4.61276C31.2051 4.61555 31.1968 4.6196 31.1861 4.62488C31.1646 4.63545 31.1335 4.65095 31.0936 4.67115C31.0139 4.71156 30.8992 4.77085 30.7575 4.84727L31.0899 5.46334ZM26.5036 8.62353C26.3785 8.62353 26.2577 8.6471 26.1472 8.69071L26.4041 9.34187C26.4329 9.3305 26.4665 9.32353 26.5036 9.32353V8.62353ZM26.6963 8.64253C26.6338 8.63002 26.5693 8.62353 26.5036 8.62353V9.32353C26.5231 9.32353 26.5417 9.32545 26.559 9.32892L26.6963 8.64253ZM26.9531 9.11463C26.9633 9.08866 26.9741 9.06265 26.9854 9.03661L26.3433 8.75795C26.3291 8.79074 26.3154 8.8237 26.3023 8.85682L26.9531 9.11463ZM26.643 8.54793L26.2704 8.57074L26.3132 9.26943L26.6858 9.24662L26.643 8.54793ZM25.9466 8.86212L25.9305 8.95832L26.6208 9.07426L26.637 8.97805L25.9466 8.86212Z" fill="white" mask="url(#path-15-outside-2_5_9117)"/>
<path fill-rule="evenodd" clip-rule="evenodd" d="M30.3209 17.8189V17.6384C29.7283 17.1835 29.1078 16.9561 28.4593 16.9561C27.8376 16.6617 27.2083 16.5475 26.5715 16.6133C26.5717 16.6112 26.5717 16.6102 26.5717 16.6102C25.6142 16.5099 24.6491 16.9561 24.6491 16.9561C23.6764 16.9561 22.7876 17.6384 22.7876 17.6384V17.8189L23.9495 19.0672C23.9495 19.0672 24.2766 20.2688 26.567 19.9864V19.9894C26.567 19.9894 28.0835 19.9451 28.1901 19.9072C28.2323 19.8922 28.2762 19.8785 28.321 19.8645C28.618 19.7717 28.9571 19.6658 29.159 19.0672L30.3209 17.8189ZM26.567 16.6683C26.534 17.0834 26.3451 19.5896 26.567 19.9779V16.6683Z" fill="#F50100"/>
<path fill-rule="evenodd" clip-rule="evenodd" d="M24.6745 16.4168C24.7981 16.0115 25.0144 15.8743 25.5412 15.8743C25.8683 15.8743 26.1153 15.9558 26.2872 16.1155V17.1985H26.3792V17.3268C26.3061 17.3744 26.2687 17.4782 26.2928 17.5887C26.3011 17.6265 26.3158 17.6613 26.335 17.6913C26.2962 17.6789 26.2526 17.6719 26.2063 17.6719C26.0473 17.6719 25.9183 17.7547 25.9183 17.8568C25.9183 17.9589 26.0473 18.0416 26.2063 18.0416C26.3654 18.0416 26.4943 17.9589 26.4943 17.8568C26.4943 17.8378 26.4899 17.8196 26.4817 17.8024C26.4895 17.8042 26.4973 17.8055 26.5053 17.8063C26.4982 17.8224 26.4944 17.8393 26.4944 17.8568C26.4944 17.9082 26.5271 17.9547 26.5799 17.9882H26.4385H26.4347C26.4347 18.2667 26.3018 18.4441 26.1028 18.4441C25.9637 18.4441 25.8659 18.3761 25.7949 18.2262L25.598 17.8101L25.5771 18.276C25.5697 18.4402 25.5029 18.5054 25.3367 18.5054C25.1754 18.5054 25.0596 18.3989 24.9812 18.1588C25.0046 18.1628 25.0291 18.1649 25.0544 18.1649C25.2135 18.1649 25.3424 18.0821 25.3424 17.98C25.3424 17.8779 25.2135 17.7952 25.0544 17.7952C25.0226 17.7952 24.9919 17.7985 24.9633 17.8046C24.9814 17.7571 24.986 17.7002 24.9731 17.6414C24.9428 17.5026 24.8268 17.4059 24.714 17.4254C24.6013 17.4449 24.5345 17.5732 24.5648 17.7119C24.5731 17.7498 24.5877 17.7845 24.6069 17.8146C24.5682 17.8021 24.5245 17.7952 24.4783 17.7952C24.3192 17.7952 24.1903 17.8779 24.1903 17.98C24.1903 18.0821 24.3192 18.1649 24.4783 18.1649C24.6073 18.1649 24.7165 18.1104 24.7531 18.0354L24.7441 18.1442C24.7185 18.451 24.6403 18.5949 24.5245 18.6151C24.3667 18.6425 24.247 18.6295 24.1633 18.5811L23.9933 18.4827V18.6501C23.9398 18.6562 23.8481 18.6455 23.7226 18.6163L23.703 18.7129L23.4916 18.5002C23.5556 18.5083 23.6308 18.4966 23.7016 18.4632C23.842 18.3968 23.9122 18.2699 23.8582 18.1798C23.8043 18.0896 23.6468 18.0704 23.5063 18.1367C23.4769 18.1507 23.4505 18.1673 23.4277 18.1856C23.425 18.1654 23.4202 18.1447 23.4131 18.1241C23.3666 17.9888 23.2398 17.9034 23.13 17.9333C23.0808 17.9467 23.0434 17.9809 23.0212 18.0267L22.9359 17.9409L22.857 18.0306L23.0015 18.1761C23.0043 18.1946 23.0089 18.2133 23.0153 18.2321C23.0555 18.3489 23.1554 18.4285 23.2527 18.4289L23.6744 18.8534L23.6737 18.8571L23.6795 18.8585L23.9136 19.0941C23.948 19.1618 23.9785 19.2243 24.0052 19.2815C24.0337 19.4036 24.0764 19.5389 24.1371 19.6217C24.1426 19.6458 24.1454 19.6658 24.1454 19.6816C24.1454 19.8086 24.4544 19.884 25.0574 19.9615C25.5299 20.0222 26.0874 20.0629 26.5435 20.069V20.0698L26.6013 20.0695L26.659 20.0698V20.069C27.1151 20.0629 27.6726 20.0222 28.1451 19.9615C28.7481 19.884 29.0571 19.8086 29.0571 19.6816C29.0571 19.5983 29.1347 19.3978 29.2889 19.0941L30.3455 18.0306L30.2666 17.9409L30.0032 18.206L30.0074 18.1944C30.0539 18.0592 30.0026 17.9254 29.8927 17.8955C29.7829 17.8657 29.6562 17.9511 29.6097 18.0863C29.6026 18.107 29.5977 18.1276 29.5951 18.1479C29.5723 18.1295 29.5459 18.1129 29.5164 18.099C29.376 18.0326 29.2184 18.0519 29.1645 18.142C29.1106 18.2322 29.1807 18.3591 29.3212 18.4254C29.4616 18.4918 29.6192 18.4725 29.6731 18.3824C29.6762 18.3772 29.6789 18.3719 29.6812 18.3665C29.6943 18.3746 29.7087 18.3809 29.7243 18.3852C29.7585 18.3944 29.7942 18.3926 29.8287 18.3816L29.4174 18.7955L29.381 18.6163C29.2555 18.6455 29.1638 18.6562 29.1103 18.6501V18.4827L28.9403 18.5811C28.8567 18.6295 28.7369 18.6425 28.5792 18.6151C28.4633 18.5949 28.3851 18.451 28.3596 18.1442L28.3575 18.1199C28.3972 18.1409 28.4447 18.156 28.497 18.1625C28.6545 18.1822 28.7951 18.1162 28.8111 18.0151C28.8271 17.914 28.7124 17.8161 28.5549 17.7964C28.5187 17.7919 28.4834 17.7919 28.4503 17.7958C28.4789 17.7496 28.4943 17.6906 28.4906 17.6269C28.4823 17.4858 28.3825 17.3756 28.2678 17.381C28.1532 17.3863 28.0669 17.5051 28.0752 17.6463C28.0772 17.6796 28.0842 17.7111 28.0953 17.7398C28.0622 17.7258 28.0247 17.7157 27.9845 17.7107C27.827 17.691 27.6864 17.757 27.6704 17.8581C27.6544 17.9592 27.7691 18.0571 27.9267 18.0768C28.016 18.0879 28.0998 18.0716 28.1587 18.0368L28.1349 18.1185C28.0565 18.387 27.937 18.5054 27.7669 18.5054C27.6007 18.5054 27.5339 18.4402 27.5266 18.276L27.5057 17.8101L27.3087 18.2262C27.2378 18.3761 27.1399 18.4441 27.0008 18.4441C26.8112 18.4441 26.6816 18.283 26.6698 18.027C26.7044 18.0364 26.7425 18.0416 26.7824 18.0416C26.9415 18.0416 27.0704 17.9589 27.0704 17.8568C27.0704 17.7547 26.9415 17.6719 26.7824 17.6719C26.7506 17.6719 26.7199 17.6752 26.6913 17.6814C26.7094 17.6338 26.714 17.5769 26.7011 17.5182C26.6885 17.4604 26.6611 17.41 26.6252 17.3722H26.84V16.1345C27.0119 15.9748 27.2588 15.8933 27.5859 15.8933C28.1127 15.8933 28.329 16.0306 28.4526 16.4358C28.5314 16.6941 28.455 16.9145 28.2073 17.1202L28.3486 17.3149C28.6253 17.085 28.7474 16.8106 28.7046 16.5065C29.2972 16.4855 29.74 16.5531 30.0309 16.705C30.2842 16.8372 30.3305 17.1728 30.1388 17.7566L30.3562 17.8383C30.5818 17.1513 30.5173 16.6847 30.1319 16.4835C29.7923 16.3061 29.2974 16.234 28.6447 16.2623L28.6454 16.2801C28.4806 15.8227 28.1724 15.6469 27.5859 15.6469C27.2882 15.6469 27.0387 15.7083 26.84 15.8326V15.7701H26.3792V15.8786C26.1676 15.7106 25.8869 15.6278 25.5412 15.6278C24.9668 15.6278 24.6593 15.7966 24.4921 16.2333L24.4956 16.139C23.8429 16.1107 23.348 16.1829 23.0084 16.3602C22.623 16.5615 22.5586 17.028 22.7841 17.715L23.0015 17.6334C22.8098 17.0496 22.8562 16.714 23.1094 16.5817C23.4015 16.4292 23.8469 16.3617 24.4433 16.3836C24.3541 16.7292 24.4706 17.0401 24.7785 17.2958L24.9198 17.1012C24.6721 16.8954 24.5957 16.675 24.6745 16.4168ZM24.7608 17.9438C24.7589 17.9376 24.7565 17.9316 24.7536 17.9256L24.7621 17.9274L24.7608 17.9438ZM29.3365 18.877C29.1478 18.9127 29.0116 18.9091 28.9393 18.8461C28.8262 18.8813 28.6936 18.8847 28.5422 18.8583C28.3804 18.8302 28.2678 18.7151 28.2 18.5242C28.1116 18.6448 27.9997 18.7192 27.8657 18.7433C28.6029 18.8551 29.1193 19.0123 29.1193 19.0123C29.1193 19.0123 29.1066 19.1292 29.0756 19.2665C29.1084 19.1946 29.1472 19.1147 29.1921 19.0265L29.2032 19.0111L29.3365 18.877ZM27.5178 18.6964C27.4537 18.6624 27.4025 18.6129 27.3655 18.5493C27.3105 18.6012 27.248 18.6392 27.1786 18.6626C27.2945 18.6721 27.4078 18.6835 27.5178 18.6964ZM26.7719 18.6386C26.6822 18.5942 26.6075 18.5232 26.5518 18.4321C26.4965 18.5226 26.4225 18.5932 26.3336 18.6377C26.3863 18.636 26.4393 18.6348 26.4925 18.6342V18.6336L26.5387 18.6338L26.5849 18.6336V18.6342C26.6476 18.6349 26.71 18.6364 26.7719 18.6386ZM23.9909 19.0027L23.8835 18.8946C24.0125 18.9083 24.1079 18.8953 24.1644 18.8461C24.2774 18.8813 24.41 18.8847 24.5615 18.8583C24.7232 18.8302 24.8358 18.7151 24.9036 18.5242C24.9895 18.6413 25.0975 18.7149 25.2264 18.7411C24.5907 18.8366 24.1164 18.9666 23.9909 19.0027ZM25.9201 18.6609C25.8084 18.6697 25.6992 18.6805 25.5929 18.6926C25.6537 18.6587 25.7025 18.6106 25.7381 18.5493C25.7918 18.5999 25.8526 18.6373 25.9201 18.6609ZM28.7542 19.684C28.8349 19.7244 28.8996 19.6841 28.9508 19.6067C28.9463 19.6281 28.9436 19.6474 28.9425 19.6647C28.9357 19.6694 28.9253 19.6751 28.9117 19.6812C28.8738 19.6983 28.8158 19.7165 28.7405 19.7349C28.5923 19.7711 28.3813 19.807 28.1314 19.8391C27.6432 19.9018 27.0627 19.9431 26.6013 19.9463C26.1398 19.9431 25.5593 19.9018 25.0711 19.8391C24.8212 19.807 24.6102 19.7711 24.4621 19.7349C24.3989 19.7195 24.348 19.7042 24.3108 19.6896C24.3149 19.688 24.319 19.6861 24.3232 19.684C24.5749 19.558 26.2391 19.4398 26.5387 19.4194C26.8383 19.4398 28.5025 19.558 28.7542 19.684ZM29.0886 19.6614C29.0881 19.6617 29.0876 19.6623 29.0869 19.6632L29.0878 19.662L29.0886 19.6614Z" fill="#FECA00"/>
<path d="M24.5243 16.0384L24.5222 16.1616C23.5008 16.1425 22.9148 16.302 22.7661 16.6198C22.6123 16.9484 22.6409 17.3478 22.8564 17.8223L22.7528 17.8762C22.5229 17.3699 22.4915 16.9313 22.6631 16.5646C22.8397 16.1872 23.4596 16.0185 24.5243 16.0384Z" fill="white"/>
<path d="M24.7219 17.1312L24.6629 17.237C24.4404 17.0949 24.3291 16.8524 24.3291 16.5182C24.3291 16.038 24.5604 15.7563 25.0719 15.5636C25.3984 15.4406 25.8444 15.491 26.4112 15.7108L26.3719 15.8267C25.8278 15.6157 25.4068 15.5681 25.1102 15.6798C24.641 15.8566 24.4443 16.0961 24.4443 16.5182C24.4443 16.8115 24.5368 17.0129 24.7219 17.1312Z" fill="white"/>
<path d="M28.5443 16.1616L28.5464 16.2848C29.5678 16.2657 30.1538 16.4252 30.3025 16.743C30.4563 17.0716 30.4277 17.4711 30.2122 17.9456L30.3158 17.9994C30.5457 17.4931 30.5771 17.0546 30.4055 16.6879C30.2289 16.3104 29.609 16.1417 28.5443 16.1616Z" fill="white"/>
<path d="M28.1838 17.1568L28.2429 17.2626C28.4653 17.1205 28.5767 16.878 28.5767 16.5439C28.5767 16.0636 28.3454 15.782 27.8338 15.5892C27.5073 15.4662 27.0613 15.5167 26.4946 15.7365L26.5338 15.8523C27.0779 15.6413 27.4989 15.5937 27.7956 15.7055C28.2648 15.8822 28.4615 16.1218 28.4615 16.5439C28.4615 16.8371 28.369 17.0385 28.1838 17.1568Z" fill="white"/>
</g>
</g>
</g>
<defs>
<filter id="filter0_dd_5_9117" x="0" y="0" width="42" height="30" filterUnits="userSpaceOnUse" color-interpolation-filters="sRGB">
<feFlood flood-opacity="0" result="BackgroundImageFix"/>
<feColorMatrix in="SourceAlpha" type="matrix" values="0 0 0 0 0 0 0 0 0 0 0 0 0 0 0 0 0 0 127 0" result="hardAlpha"/>
<feOffset dy="1"/>
<feGaussianBlur stdDeviation="1"/>
<feColorMatrix type="matrix" values="0 0 0 0 0.0627451 0 0 0 0 0.0941176 0 0 0 0 0.156863 0 0 0 0.06 0"/>
<feBlend mode="normal" in2="BackgroundImageFix" result="effect1_dropShadow_5_9117"/>
<feColorMatrix in="SourceAlpha" type="matrix" values="0 0 0 0 0 0 0 0 0 0 0 0 0 0 0 0 0 0 127 0" result="hardAlpha"/>
<feOffset dy="1"/>
<feGaussianBlur stdDeviation="1.5"/>
<feColorMatrix type="matrix" values="0 0 0 0 0.0627451 0 0 0 0 0.0941176 0 0 0 0 0.156863 0 0 0 0.1 0"/>
<feBlend mode="normal" in2="effect1_dropShadow_5_9117" result="effect2_dropShadow_5_9117"/>
<feBlend mode="normal" in="SourceGraphic" in2="effect2_dropShadow_5_9117" result="shape"/>
</filter>
</defs>
</svg>
