<svg width="42" height="30" viewBox="0 0 42 30" fill="none" xmlns="http://www.w3.org/2000/svg">
<g filter="url(#filter0_dd_5_9935)">
<mask id="mask0_5_9935" style="mask-type:alpha" maskUnits="userSpaceOnUse" x="3" y="2" width="36" height="24">
<rect x="3" y="2" width="36" height="24" fill="white"/>
</mask>
<g mask="url(#mask0_5_9935)">
<path fill-rule="evenodd" clip-rule="evenodd" d="M3 2V26H39V2H3Z" fill="#2E42A5"/>
<mask id="mask1_5_9935" style="mask-type:alpha" maskUnits="userSpaceOnUse" x="3" y="2" width="36" height="24">
<path fill-rule="evenodd" clip-rule="evenodd" d="M3 2V26H39V2H3Z" fill="white"/>
</mask>
<g mask="url(#mask1_5_9935)">
<path d="M32.194 21.714C31.0257 21.714 30.2081 21.4683 29.6267 21.0389C29.0467 20.6106 28.6709 19.9765 28.431 19.1372C28.19 18.2942 28.0911 17.2619 28.0542 16.0603C28.0283 15.2157 28.0331 14.2996 28.0382 13.3165C28.04 12.9797 28.0418 12.635 28.0424 12.2827H36.4478C36.5969 14.6911 36.6499 17.0331 36.1211 18.7883C35.8499 19.6882 35.4312 20.4141 34.8109 20.9162C34.1931 21.4162 33.3509 21.714 32.194 21.714Z" fill="#6DC2FF" stroke="#F7FCFF" stroke-width="0.5"/>
<mask id="mask2_5_9935" style="mask-type:alpha" maskUnits="userSpaceOnUse" x="27" y="12" width="10" height="10">
<path d="M32.194 21.714C31.0257 21.714 30.2081 21.4683 29.6267 21.0389C29.0467 20.6106 28.6709 19.9765 28.431 19.1372C28.19 18.2942 28.0911 17.2619 28.0542 16.0603C28.0283 15.2157 28.0331 14.2996 28.0382 13.3165C28.04 12.9797 28.0418 12.635 28.0424 12.2827H36.4478C36.5969 14.6911 36.6499 17.0331 36.1211 18.7883C35.8499 19.6882 35.4312 20.4141 34.8109 20.9162C34.1931 21.4162 33.3509 21.714 32.194 21.714Z" fill="white" stroke="white" stroke-width="0.5"/>
</mask>
<g mask="url(#mask2_5_9935)">
<path fill-rule="evenodd" clip-rule="evenodd" d="M30.5871 15.587C30.5871 15.587 30.1431 15.2951 29.9527 14.8222C29.7623 14.3493 29.3856 13.0903 29.3856 12.981C29.3856 12.8717 28.8843 12.981 28.8843 12.981C28.8843 12.981 28.8913 12.4486 29.0804 12.4486C29.2696 12.4486 29.2767 11.955 29.7357 12.0793C30.1947 12.2036 30.5556 12.6595 31.0234 12.6595C31.4911 12.6595 33.4463 12.7921 33.7606 12.7921C34.0749 12.7921 34.9034 13.3817 34.9034 13.8231C34.9034 14.2645 34.6775 14.9221 34.4997 14.9221C34.322 14.9221 34.0984 15.3047 33.7606 15.1784C33.4228 15.0521 32.6163 14.7921 31.8938 14.9221C31.1714 15.0521 31.0234 14.9704 31.0234 15.1784C31.0234 15.3864 30.5871 15.587 30.5871 15.587Z" fill="#E1E5E8"/>
<path fill-rule="evenodd" clip-rule="evenodd" d="M29.55 15.2787H35.35L34.3511 16.4262H30.253L29.55 15.2787Z" fill="#49801E"/>
<path d="M29.4746 20.2956C29.4746 20.2956 30.477 20.6143 30.8959 20.5756C31.3599 20.5327 31.7706 20.0626 32.0807 20.0626C32.3902 20.0626 32.9861 20.5329 33.4489 20.5756C33.8685 20.6143 34.6868 20.2956 34.6868 20.2956" stroke="white" stroke-width="1.06667"/>
<path d="M28.3738 18.9362C28.7204 18.6754 29.4746 18.6563 29.4746 18.6563C29.4746 18.6563 30.477 18.975 30.896 18.9362C31.3599 18.8934 31.7707 18.4232 32.0807 18.4232C32.3902 18.4232 32.9861 18.8935 33.449 18.9362C33.8685 18.975 34.6868 18.6563 34.6868 18.6563C34.6868 18.6563 35.1441 18.1992 35.7184 18.6818" stroke="white" stroke-width="1.06667"/>
<path d="M28.2684 17.5298L27.5098 16.7033C27.8072 16.4875 28.3067 16.2749 29.0358 16.0399L29.3897 16.0247C30.1456 16.1974 30.651 16.2722 30.8361 16.2558C30.8972 16.2503 30.9992 16.2062 31.1856 16.0963C31.715 15.7842 31.7664 15.7588 32.0807 15.7588C32.3679 15.7588 32.4272 15.7832 33.0276 16.0715C33.1391 16.1246 33.1809 16.1439 33.2413 16.1696C33.368 16.2237 33.4589 16.2513 33.5087 16.2557C33.6529 16.2686 33.9432 16.2087 34.3494 16.0634C34.8776 15.6367 35.5468 15.6809 36.1224 16.147C36.5064 16.458 36.8146 16.7092 37.0473 16.9009L36.2317 17.6833C36.0018 17.494 35.696 17.2446 35.3143 16.9355C35.1625 16.8126 35.1951 16.8134 35.1277 16.8784L34.9201 17.008C34.2899 17.2445 33.7922 17.353 33.3891 17.3171C33.1727 17.2979 32.9635 17.2343 32.7219 17.1313C32.6411 17.0967 32.5833 17.0701 32.4574 17.01C32.1676 16.8709 32.0575 16.8254 32.0807 16.8254C32.1312 16.8254 32.0611 16.8601 31.8489 16.9852C31.5075 17.1865 31.27 17.2891 30.9558 17.3171C30.6083 17.3481 30.0665 17.2736 29.274 17.0989C28.7592 17.2719 28.4172 17.4218 28.2684 17.5298Z" fill="white"/>
</g>
<path d="M28.8337 20.3937C28.8337 20.3937 29.9407 21.3362 29.2723 21.9747C28.6039 22.6133 27.991 22.2424 27.991 22.2424" stroke="#B85F3C"/>
<path d="M35.6812 20.3937C35.6812 20.3937 34.5742 21.3362 35.2426 21.9747C35.911 22.6133 36.5239 22.2424 36.5239 22.2424" stroke="#B85F3C"/>
<path d="M28.1108 21.1531C28.1108 21.1531 30.0179 22.7731 32.3624 22.7731C34.7069 22.7731 36.5934 21.5355 36.5934 21.5355" stroke="#CB8B73"/>
<rect x="3" y="2" width="20.25" height="14" fill="#2B409A"/>
<mask id="mask3_5_9935" style="mask-type:alpha" maskUnits="userSpaceOnUse" x="3" y="2" width="21" height="14">
<rect x="3" y="2" width="20.25" height="14" fill="white"/>
</mask>
<g mask="url(#mask3_5_9935)">
<path d="M0.745117 14.9998L5.20119 16.737L23.351 3.88875L25.7015 1.30722L20.9364 0.726597L13.5335 6.26329L7.57493 9.99372L0.745117 14.9998Z" fill="#F7FCFF"/>
<path d="M1.35498 16.2169L3.62514 17.2251L24.8573 1.06735H21.6697L1.35498 16.2169Z" fill="#F50100"/>
<path d="M25.5049 14.9998L21.0488 16.737L2.89897 3.88875L0.548492 1.30722L5.31362 0.726597L12.7165 6.26329L18.6751 9.99372L25.5049 14.9998Z" fill="#F7FCFF"/>
<path d="M25.353 15.8733L23.0829 16.8815L14.042 9.96351L11.3616 9.19059L0.322517 1.31605H3.51009L14.5429 9.00368L17.4735 9.9305L25.353 15.8733Z" fill="#F50100"/>
<mask id="path-21-outside-1_5_9935" maskUnits="userSpaceOnUse" x="1" y="0" width="24" height="18" fill="black">
<rect fill="white" x="1" width="24" height="18"/>
<path fill-rule="evenodd" clip-rule="evenodd" d="M14.2326 2H11.9826V8H3V10H11.9826V16H14.2326V10H23.25V8H14.2326V2Z"/>
</mask>
<path fill-rule="evenodd" clip-rule="evenodd" d="M14.2326 2H11.9826V8H3V10H11.9826V16H14.2326V10H23.25V8H14.2326V2Z" fill="#F50100"/>
<path d="M11.9826 2V0.5H10.4826V2H11.9826ZM14.2326 2H15.7326V0.5H14.2326V2ZM11.9826 8V9.5H13.4826V8H11.9826ZM3 8V6.5H1.5V8H3ZM3 10H1.5V11.5H3V10ZM11.9826 10H13.4826V8.5H11.9826V10ZM11.9826 16H10.4826V17.5H11.9826V16ZM14.2326 16V17.5H15.7326V16H14.2326ZM14.2326 10V8.5H12.7326V10H14.2326ZM23.25 10V11.5H24.75V10H23.25ZM23.25 8H24.75V6.5H23.25V8ZM14.2326 8H12.7326V9.5H14.2326V8ZM11.9826 3.5H14.2326V0.5H11.9826V3.5ZM13.4826 8V2H10.4826V8H13.4826ZM3 9.5H11.9826V6.5H3V9.5ZM4.5 10V8H1.5V10H4.5ZM11.9826 8.5H3V11.5H11.9826V8.5ZM13.4826 16V10H10.4826V16H13.4826ZM14.2326 14.5H11.9826V17.5H14.2326V14.5ZM12.7326 10V16H15.7326V10H12.7326ZM23.25 8.5H14.2326V11.5H23.25V8.5ZM21.75 8V10H24.75V8H21.75ZM14.2326 9.5H23.25V6.5H14.2326V9.5ZM12.7326 2V8H15.7326V2H12.7326Z" fill="#F7FCFF" mask="url(#path-21-outside-1_5_9935)"/>
</g>
</g>
</g>
</g>
<defs>
<filter id="filter0_dd_5_9935" x="0" y="0" width="42" height="30" filterUnits="userSpaceOnUse" color-interpolation-filters="sRGB">
<feFlood flood-opacity="0" result="BackgroundImageFix"/>
<feColorMatrix in="SourceAlpha" type="matrix" values="0 0 0 0 0 0 0 0 0 0 0 0 0 0 0 0 0 0 127 0" result="hardAlpha"/>
<feOffset dy="1"/>
<feGaussianBlur stdDeviation="1"/>
<feColorMatrix type="matrix" values="0 0 0 0 0.0627451 0 0 0 0 0.0941176 0 0 0 0 0.156863 0 0 0 0.06 0"/>
<feBlend mode="normal" in2="BackgroundImageFix" result="effect1_dropShadow_5_9935"/>
<feColorMatrix in="SourceAlpha" type="matrix" values="0 0 0 0 0 0 0 0 0 0 0 0 0 0 0 0 0 0 127 0" result="hardAlpha"/>
<feOffset dy="1"/>
<feGaussianBlur stdDeviation="1.5"/>
<feColorMatrix type="matrix" values="0 0 0 0 0.0627451 0 0 0 0 0.0941176 0 0 0 0 0.156863 0 0 0 0.1 0"/>
<feBlend mode="normal" in2="effect1_dropShadow_5_9935" result="effect2_dropShadow_5_9935"/>
<feBlend mode="normal" in="SourceGraphic" in2="effect2_dropShadow_5_9935" result="shape"/>
</filter>
</defs>
</svg>
