<svg width="42" height="30" viewBox="0 0 42 30" fill="none" xmlns="http://www.w3.org/2000/svg">
<g filter="url(#filter0_dd_5_7510)">
<mask id="mask0_5_7510" style="mask-type:alpha" maskUnits="userSpaceOnUse" x="3" y="2" width="36" height="24">
<rect x="3" y="2" width="36" height="24" fill="white"/>
</mask>
<g mask="url(#mask0_5_7510)">
<path fill-rule="evenodd" clip-rule="evenodd" d="M3 2V26H39V2H3Z" fill="#BF2714"/>
<mask id="mask1_5_7510" style="mask-type:alpha" maskUnits="userSpaceOnUse" x="3" y="2" width="36" height="24">
<path fill-rule="evenodd" clip-rule="evenodd" d="M3 2V26H39V2H3Z" fill="white"/>
</mask>
<g mask="url(#mask1_5_7510)">
<path fill-rule="evenodd" clip-rule="evenodd" d="M3 0V14H39V0H3Z" fill="#3D58DB"/>
</g>
<path fill-rule="evenodd" clip-rule="evenodd" d="M3 2V26L23.25 14L3 2Z" fill="#F7FCFF"/>
<mask id="mask2_5_7510" style="mask-type:alpha" maskUnits="userSpaceOnUse" x="3" y="2" width="21" height="24">
<path fill-rule="evenodd" clip-rule="evenodd" d="M3 2V26L23.25 14L3 2Z" fill="white"/>
</mask>
<g mask="url(#mask2_5_7510)">
<path fill-rule="evenodd" clip-rule="evenodd" d="M18.3056 12.9201L19.741 13.4122L20.595 12.5188L20.6176 13.7136L21.9387 14.0955L20.5482 14.5151L20.6398 15.613L19.724 14.772L18.2844 15.0154L19.1343 14.0467L18.3056 12.9201Z" fill="#FECA00"/>
<path fill-rule="evenodd" clip-rule="evenodd" d="M4.8056 18.9201L6.12497 19.4386L7.09497 18.5188L7.00162 19.7401L8.43866 20.0955L6.93216 20.5416L7.1398 21.613L6.09089 20.8474L4.78438 21.0154L5.51831 20.0732L4.8056 18.9201Z" fill="#FECA00"/>
<path fill-rule="evenodd" clip-rule="evenodd" d="M4.8056 6.92014L6.26558 7.39836L7.09497 6.51883L7.14223 7.69979L8.43866 8.09554L7.07277 8.50128L7.1398 9.61298L6.2315 8.80711L4.78438 9.01536L5.65892 8.0329L4.8056 6.92014Z" fill="#FECA00"/>
<path fill-rule="evenodd" clip-rule="evenodd" d="M12.1367 16.5328C13.69 16.5328 14.9492 15.4135 14.9492 14.0328C14.9492 12.6521 13.69 11.5328 12.1367 11.5328C10.5834 11.5328 9.32422 12.6521 9.32422 14.0328C9.32422 15.4135 10.5834 16.5328 12.1367 16.5328Z" fill="#FECA00"/>
<path fill-rule="evenodd" clip-rule="evenodd" d="M11.8042 10.2396L11.9553 11.8456C11.9698 11.9432 12.0542 12.0209 12.1633 12.0371C12.3004 12.0575 12.4302 11.9752 12.4531 11.8534L12.6526 10.2528C12.6561 10.2342 12.658 10.2154 12.6584 10.1965C12.6626 9.98594 12.4739 9.81227 12.237 9.80859C12.2158 9.80826 12.1945 9.80933 12.1735 9.8118C11.9386 9.8393 11.7732 10.0309 11.8042 10.2396ZM11.3339 11.0158L11.5674 11.7144C11.5891 11.7793 11.662 11.8194 11.7444 11.8065C11.8119 11.7923 11.8538 11.7322 11.8378 11.6721L11.6514 10.971C11.63 10.8903 11.5421 10.8381 11.45 10.8514C11.4439 10.8522 11.4378 10.8535 11.4319 10.855C11.3549 10.8754 11.311 10.9474 11.3339 11.0158ZM12.597 11.7435C12.5787 11.8031 12.6182 11.8645 12.6925 11.8824C12.767 11.8962 12.8413 11.8584 12.8656 11.7942L13.1264 11.1033C13.152 11.0356 13.111 10.9623 13.0348 10.9396C13.0289 10.9378 13.0229 10.9364 13.0168 10.9353C12.9253 10.9192 12.8354 10.9687 12.8109 11.0486L12.597 11.7435ZM14.9338 11.0414L13.6764 12.2756C13.609 12.3536 13.6069 12.4616 13.6712 12.5417C13.7519 12.6423 13.9091 12.6657 14.0223 12.594L15.5233 11.584C15.5406 11.573 15.5569 11.5609 15.5722 11.5478C15.7426 11.4015 15.7473 11.1601 15.5828 11.0086C15.568 10.9951 15.5522 10.9825 15.5353 10.971C15.3473 10.8428 15.078 10.8743 14.9338 11.0414ZM14.5512 13.6613L16.4288 13.5322C16.6637 13.5047 16.8792 13.6516 16.9102 13.8604C16.9129 13.8792 16.9141 13.898 16.9138 13.9169C16.9096 14.1275 16.7142 14.2952 16.4773 14.2915C16.4561 14.2912 16.4349 14.2894 16.414 14.2863L14.5426 14.1038C14.4054 14.0834 14.3129 13.9681 14.3359 13.8462C14.3541 13.7492 14.4415 13.6742 14.5512 13.6613ZM15.5258 16.3195L14.0676 15.1911C13.9798 15.1312 13.8583 15.1293 13.7682 15.1865C13.6551 15.2582 13.6288 15.3979 13.7095 15.4985L14.9154 16.8435C14.9277 16.8588 14.9413 16.8734 14.956 16.8869C15.1206 17.0384 15.3922 17.0427 15.5626 16.8964C15.5779 16.8832 15.5921 16.8691 15.605 16.8542C15.7492 16.6871 15.7137 16.4477 15.5258 16.3195ZM12.5087 15.9688L12.62 17.6538C12.6509 17.8626 12.4856 18.0542 12.2507 18.0817C12.2296 18.0842 12.2084 18.0852 12.1872 18.0849C11.9503 18.0812 11.7616 17.9075 11.7658 17.697C11.7661 17.6781 11.7681 17.6593 11.7716 17.6407L12.0109 15.9611C12.0338 15.8392 12.1636 15.757 12.3007 15.7774C12.4098 15.7936 12.4942 15.8713 12.5087 15.9688ZM9.54871 16.8791L10.7877 15.5389C10.855 15.4608 10.8571 15.3528 10.7929 15.2727C10.7122 15.1721 10.555 15.1488 10.4418 15.2205L8.95926 16.3366C8.94198 16.3475 8.92563 16.3596 8.91036 16.3727C8.73993 16.519 8.73519 16.7604 8.89977 16.9119C8.91452 16.9255 8.93038 16.9381 8.94722 16.9496C9.13519 17.0778 9.40449 17.0462 9.54871 16.8791ZM9.91275 14.1531L8.02364 14.2915C7.78875 14.319 7.57325 14.172 7.54231 13.9632C7.53954 13.9445 7.53833 13.9257 7.5387 13.9068C7.54284 13.6962 7.73823 13.5285 7.97511 13.5322C7.99634 13.5325 8.01751 13.5342 8.03845 13.5374L9.92144 13.7106C10.0585 13.731 10.1511 13.8464 10.1281 13.9682C10.1099 14.0653 10.0225 14.1403 9.91275 14.1531ZM8.79417 11.522L10.3964 12.6233C10.4842 12.6832 10.6057 12.6851 10.6958 12.628C10.809 12.5562 10.8353 12.4165 10.7546 12.3159L9.40456 10.9981C9.39224 10.9827 9.37864 10.9682 9.36389 10.9546C9.19931 10.8031 8.92773 10.7989 8.7573 10.9452C8.74203 10.9583 8.72787 10.9724 8.71495 10.9874C8.57073 11.1545 8.6062 11.3938 8.79417 11.522ZM13.5065 11.939L13.8971 11.2982C13.9353 11.2354 14.0236 11.2121 14.0942 11.2461C14.0997 11.2487 14.105 11.2517 14.11 11.2549C14.1856 11.3034 14.2062 11.3956 14.1573 11.4661L13.7313 12.079C13.6948 12.1315 13.6174 12.1478 13.5583 12.1153C13.4898 12.0727 13.4702 11.9985 13.5065 11.939ZM15.4849 13.1089L14.6989 13.3165C14.6259 13.3358 14.5808 13.4005 14.5953 13.4738C14.6113 13.5338 14.679 13.571 14.7465 13.5568L15.5353 13.3911C15.626 13.3721 15.6848 13.2939 15.6699 13.2121C15.6689 13.2067 15.6675 13.2013 15.6657 13.196C15.6428 13.1275 15.5619 13.0885 15.4849 13.1089ZM14.4462 15.0401L15.1672 15.3873C15.2378 15.4213 15.264 15.4997 15.2257 15.5625C15.2228 15.5674 15.2195 15.5721 15.2158 15.5766C15.1613 15.6438 15.0576 15.6621 14.9783 15.6185L14.2887 15.2399C14.2297 15.2075 14.2114 15.1386 14.2479 15.0862C14.2959 15.0252 14.3793 15.0078 14.4462 15.0401ZM13.1301 16.7986L12.8966 16.1C12.8749 16.0352 12.802 15.995 12.7196 16.0079C12.6521 16.0221 12.6102 16.0823 12.6262 16.1423L12.8126 16.8435C12.834 16.9241 12.9219 16.9763 13.014 16.9631C13.0201 16.9622 13.0262 16.961 13.0321 16.9594C13.1091 16.9391 13.153 16.8671 13.1301 16.7986ZM10.9575 15.8755L10.5669 16.5163C10.5287 16.5791 10.4404 16.6024 10.3698 16.5684C10.3643 16.5657 10.359 16.5628 10.354 16.5595C10.2784 16.5111 10.2577 16.4189 10.3067 16.3484L10.7327 15.7355C10.7692 15.683 10.8466 15.6667 10.9057 15.6991C10.9742 15.7418 10.9938 15.816 10.9575 15.8755ZM8.97914 14.7056L9.7651 14.4979C9.83806 14.4787 9.88324 14.4139 9.8687 14.3407C9.85274 14.2806 9.78504 14.2434 9.71749 14.2576L8.9287 14.4233C8.83798 14.4424 8.77924 14.5205 8.79414 14.6023C8.79513 14.6078 8.79652 14.6132 8.79829 14.6185C8.82118 14.6869 8.90214 14.7259 8.97914 14.7056ZM10.0178 12.7744L9.29684 12.4272C9.22622 12.3932 9.19998 12.3147 9.23825 12.252C9.24122 12.2471 9.24453 12.2424 9.24817 12.2379C9.30271 12.1707 9.40639 12.1524 9.48569 12.1959L10.1753 12.5746C10.2343 12.607 10.2526 12.6758 10.2161 12.7283C10.1681 12.7892 10.0847 12.8066 10.0178 12.7744ZM14.2113 12.6067C14.151 12.6373 14.1301 12.7055 14.1684 12.7648C14.21 12.8215 14.2927 12.8415 14.3609 12.8113L15.095 12.4867C15.1669 12.4549 15.1962 12.3773 15.1604 12.3134C15.1577 12.3084 15.1545 12.3036 15.1511 12.299C15.0992 12.2302 14.9963 12.2087 14.9153 12.2497L14.2113 12.6067ZM14.51 14.3165C14.5301 14.2505 14.5992 14.2154 14.6662 14.2317L15.448 14.4217C15.5379 14.4436 15.5935 14.5235 15.5754 14.6048C15.5742 14.6102 15.5726 14.6156 15.5706 14.6208C15.5451 14.6885 15.4626 14.725 15.3865 14.7022L14.6092 14.4704C14.537 14.4489 14.4944 14.3827 14.51 14.3165ZM13.6951 15.6666C13.6607 15.613 13.5839 15.5944 13.5172 15.6285C13.4534 15.6655 13.431 15.739 13.4649 15.7996L13.8301 16.4521C13.8658 16.516 13.9531 16.5421 14.0251 16.5103C14.0306 16.5078 14.036 16.505 14.0412 16.5019C14.1187 16.4558 14.1429 16.3644 14.0967 16.2924L13.6951 15.6666ZM11.7715 15.9321C11.8458 15.9499 11.8853 16.0114 11.867 16.0709L11.6531 16.7658C11.6286 16.8458 11.5387 16.8952 11.4472 16.8791C11.4411 16.8781 11.4351 16.8766 11.4292 16.8749C11.353 16.8522 11.312 16.7789 11.3376 16.7112L11.5984 16.0202C11.6227 15.9561 11.697 15.9182 11.7715 15.9321ZM10.2527 15.2077C10.313 15.1772 10.3339 15.1089 10.2956 15.0496C10.254 14.993 10.1712 14.973 10.1031 15.0031L9.36899 15.3278C9.29708 15.3596 9.26778 15.4372 9.30356 15.5011C9.30633 15.506 9.30946 15.5108 9.31292 15.5154C9.36479 15.5843 9.46768 15.6058 9.54865 15.5647L10.2527 15.2077ZM9.95398 13.4979C9.93389 13.564 9.86478 13.599 9.79783 13.5827L9.01601 13.3927C8.9261 13.3708 8.87047 13.2909 8.88856 13.2096C8.88977 13.2042 8.89137 13.1989 8.89335 13.1936C8.91891 13.1259 9.00136 13.0895 9.0775 13.1122L9.85484 13.3441C9.92699 13.3656 9.9696 13.4317 9.95398 13.4979ZM10.7689 12.1478C10.8033 12.2014 10.8801 12.2201 10.9468 12.186C11.0106 12.149 11.033 12.0755 10.9991 12.0149L10.6339 11.3624C10.5982 11.2984 10.5109 11.2724 10.4389 11.3042C10.4334 11.3067 10.428 11.3094 10.4228 11.3125C10.3453 11.3586 10.3211 11.4501 10.3673 11.522L10.7689 12.1478Z" fill="#FECA00"/>
</g>
</g>
</g>
<defs>
<filter id="filter0_dd_5_7510" x="0" y="0" width="42" height="30" filterUnits="userSpaceOnUse" color-interpolation-filters="sRGB">
<feFlood flood-opacity="0" result="BackgroundImageFix"/>
<feColorMatrix in="SourceAlpha" type="matrix" values="0 0 0 0 0 0 0 0 0 0 0 0 0 0 0 0 0 0 127 0" result="hardAlpha"/>
<feOffset dy="1"/>
<feGaussianBlur stdDeviation="1"/>
<feColorMatrix type="matrix" values="0 0 0 0 0.0627451 0 0 0 0 0.0941176 0 0 0 0 0.156863 0 0 0 0.06 0"/>
<feBlend mode="normal" in2="BackgroundImageFix" result="effect1_dropShadow_5_7510"/>
<feColorMatrix in="SourceAlpha" type="matrix" values="0 0 0 0 0 0 0 0 0 0 0 0 0 0 0 0 0 0 127 0" result="hardAlpha"/>
<feOffset dy="1"/>
<feGaussianBlur stdDeviation="1.5"/>
<feColorMatrix type="matrix" values="0 0 0 0 0.0627451 0 0 0 0 0.0941176 0 0 0 0 0.156863 0 0 0 0.1 0"/>
<feBlend mode="normal" in2="effect1_dropShadow_5_7510" result="effect2_dropShadow_5_7510"/>
<feBlend mode="normal" in="SourceGraphic" in2="effect2_dropShadow_5_7510" result="shape"/>
</filter>
</defs>
</svg>
