<svg width="42" height="30" viewBox="0 0 42 30" fill="none" xmlns="http://www.w3.org/2000/svg">
<g filter="url(#filter0_dd_5_10583)">
<mask id="mask0_5_10583" style="mask-type:alpha" maskUnits="userSpaceOnUse" x="3" y="2" width="36" height="24">
<rect x="3" y="2" width="36" height="24" fill="white"/>
</mask>
<g mask="url(#mask0_5_10583)">
<path fill-rule="evenodd" clip-rule="evenodd" d="M3 2H39V26H3V2Z" fill="#E31D1C"/>
<path fill-rule="evenodd" clip-rule="evenodd" d="M19.8927 6.54832L18.7562 7.15815L19.0155 5.96812L18.0691 5.0775L19.3505 5.02935L19.8927 3.91815L20.4348 5.02935H21.7141L20.7699 5.96812L21.0542 7.15815L19.8927 6.54832Z" fill="#FECA00"/>
<path fill-rule="evenodd" clip-rule="evenodd" d="M10.8947 11.6072L7.65376 13.1582L8.393 10.1317L5.69409 7.86662L9.34856 7.74415L10.8947 4.91815L12.4408 7.74415H16.0891L13.3964 10.1317L14.2071 13.1582L10.8947 11.6072Z" fill="#FECA00"/>
<path fill-rule="evenodd" clip-rule="evenodd" d="M22.1427 10.5483L21.0062 11.1582L21.2655 9.96812L20.3191 9.0775L21.6005 9.02935L22.1427 7.91815L22.6848 9.02935H23.9641L23.0199 9.96812L23.3042 11.1582L22.1427 10.5483Z" fill="#FECA00"/>
<path fill-rule="evenodd" clip-rule="evenodd" d="M21.0177 14.5483L19.8812 15.1582L20.1405 13.9681L19.1941 13.0775L20.4755 13.0293L21.0177 11.9182L21.5598 13.0293H22.8391L21.8949 13.9681L22.1792 15.1582L21.0177 14.5483Z" fill="#FECA00"/>
<path fill-rule="evenodd" clip-rule="evenodd" d="M17.6427 17.5483L16.5062 18.1582L16.7655 16.9681L15.8191 16.0775L17.1005 16.0293L17.6427 14.9182L18.1848 16.0293H19.4641L18.5199 16.9681L18.8042 18.1582L17.6427 17.5483Z" fill="#FECA00"/>
</g>
</g>
<defs>
<filter id="filter0_dd_5_10583" x="0" y="0" width="42" height="30" filterUnits="userSpaceOnUse" color-interpolation-filters="sRGB">
<feFlood flood-opacity="0" result="BackgroundImageFix"/>
<feColorMatrix in="SourceAlpha" type="matrix" values="0 0 0 0 0 0 0 0 0 0 0 0 0 0 0 0 0 0 127 0" result="hardAlpha"/>
<feOffset dy="1"/>
<feGaussianBlur stdDeviation="1"/>
<feColorMatrix type="matrix" values="0 0 0 0 0.0627451 0 0 0 0 0.0941176 0 0 0 0 0.156863 0 0 0 0.06 0"/>
<feBlend mode="normal" in2="BackgroundImageFix" result="effect1_dropShadow_5_10583"/>
<feColorMatrix in="SourceAlpha" type="matrix" values="0 0 0 0 0 0 0 0 0 0 0 0 0 0 0 0 0 0 127 0" result="hardAlpha"/>
<feOffset dy="1"/>
<feGaussianBlur stdDeviation="1.5"/>
<feColorMatrix type="matrix" values="0 0 0 0 0.0627451 0 0 0 0 0.0941176 0 0 0 0 0.156863 0 0 0 0.1 0"/>
<feBlend mode="normal" in2="effect1_dropShadow_5_10583" result="effect2_dropShadow_5_10583"/>
<feBlend mode="normal" in="SourceGraphic" in2="effect2_dropShadow_5_10583" result="shape"/>
</filter>
</defs>
</svg>
