<svg width="42" height="30" viewBox="0 0 42 30" fill="none" xmlns="http://www.w3.org/2000/svg">
<g filter="url(#filter0_dd_5_5961)">
<mask id="mask0_5_5961" style="mask-type:alpha" maskUnits="userSpaceOnUse" x="3" y="2" width="36" height="24">
<rect x="3" y="2" width="36" height="24" fill="white"/>
</mask>
<g mask="url(#mask0_5_5961)">
<path fill-rule="evenodd" clip-rule="evenodd" d="M3 2H39V26H3V2Z" fill="#F7FCFF"/>
<path fill-rule="evenodd" clip-rule="evenodd" d="M3 16.6666V18.6666H39V16.6666H3Z" fill="#E31D1C"/>
<path fill-rule="evenodd" clip-rule="evenodd" d="M3 20.3334V22.3334H39V20.3334H3Z" fill="#E31D1C"/>
<path fill-rule="evenodd" clip-rule="evenodd" d="M3 9.33337V11.3334H39V9.33337H3Z" fill="#E31D1C"/>
<path fill-rule="evenodd" clip-rule="evenodd" d="M3 24V26H39V24H3Z" fill="#E31D1C"/>
<path fill-rule="evenodd" clip-rule="evenodd" d="M3 13V15H39V13H3Z" fill="#E31D1C"/>
<path fill-rule="evenodd" clip-rule="evenodd" d="M3 2V4H39V2H3Z" fill="#E31D1C"/>
<path fill-rule="evenodd" clip-rule="evenodd" d="M3 5.66663V7.66663H39V5.66663H3Z" fill="#E31D1C"/>
<rect x="3" y="2" width="22.5" height="13" fill="#2E42A5"/>
<path fill-rule="evenodd" clip-rule="evenodd" d="M4.93737 4.93871L4.12075 5.44759L4.39645 4.54198L3.67114 3.96807H4.61849L4.93622 3.229L5.30879 3.96807H6.11638L5.48184 4.54198L5.7275 5.44759L4.93737 4.93871ZM9.43734 4.93871L8.62073 5.44759L8.89643 4.54198L8.17112 3.96807H9.11847L9.4362 3.229L9.80877 3.96807H10.6164L9.98182 4.54198L10.2275 5.44759L9.43734 4.93871ZM13.1207 5.44759L13.9373 4.93871L14.7275 5.44759L14.4818 4.54198L15.1164 3.96807H14.3088L13.9362 3.229L13.6185 3.96807H12.6711L13.3964 4.54198L13.1207 5.44759ZM18.4373 4.93871L17.6207 5.44759L17.8964 4.54198L17.1711 3.96807H18.1185L18.4362 3.229L18.8088 3.96807H19.6164L18.9818 4.54198L19.2275 5.44759L18.4373 4.93871ZM4.12075 9.44759L4.93737 8.93871L5.7275 9.44759L5.48184 8.54198L6.11638 7.96807H5.30879L4.93622 7.229L4.61849 7.96807H3.67114L4.39645 8.54198L4.12075 9.44759ZM9.43734 8.93871L8.62073 9.44759L8.89643 8.54198L8.17112 7.96807H9.11847L9.4362 7.229L9.80877 7.96807H10.6164L9.98182 8.54198L10.2275 9.44759L9.43734 8.93871ZM13.1207 9.44759L13.9373 8.93871L14.7275 9.44759L14.4818 8.54198L15.1164 7.96807H14.3088L13.9362 7.229L13.6185 7.96807H12.6711L13.3964 8.54198L13.1207 9.44759ZM18.4373 8.93871L17.6207 9.44759L17.8964 8.54198L17.1711 7.96807H18.1185L18.4362 7.229L18.8088 7.96807H19.6164L18.9818 8.54198L19.2275 9.44759L18.4373 8.93871ZM4.12075 13.4476L4.93737 12.9387L5.7275 13.4476L5.48184 12.542L6.11638 11.9681H5.30879L4.93622 11.229L4.61849 11.9681H3.67114L4.39645 12.542L4.12075 13.4476ZM9.43734 12.9387L8.62073 13.4476L8.89643 12.542L8.17112 11.9681H9.11847L9.4362 11.229L9.80877 11.9681H10.6164L9.98182 12.542L10.2275 13.4476L9.43734 12.9387ZM13.1207 13.4476L13.9373 12.9387L14.7275 13.4476L14.4818 12.542L15.1164 11.9681H14.3088L13.9362 11.229L13.6185 11.9681H12.6711L13.3964 12.542L13.1207 13.4476ZM18.4373 12.9387L17.6207 13.4476L17.8964 12.542L17.1711 11.9681H18.1185L18.4362 11.229L18.8088 11.9681H19.6164L18.9818 12.542L19.2275 13.4476L18.4373 12.9387ZM22.1207 5.44759L22.9373 4.93871L23.7275 5.44759L23.4818 4.54198L24.1164 3.96807H23.3088L22.9362 3.229L22.6185 3.96807H21.6711L22.3964 4.54198L22.1207 5.44759ZM22.9373 8.93871L22.1207 9.44759L22.3964 8.54198L21.6711 7.96807H22.6185L22.9362 7.229L23.3088 7.96807H24.1164L23.4818 8.54198L23.7275 9.44759L22.9373 8.93871ZM22.1207 13.4476L22.9373 12.9387L23.7275 13.4476L23.4818 12.542L24.1164 11.9681H23.3088L22.9362 11.229L22.6185 11.9681H21.6711L22.3964 12.542L22.1207 13.4476ZM7.18734 6.93871L6.37073 7.44759L6.64643 6.54198L5.92112 5.96807H6.86847L7.1862 5.229L7.55877 5.96807H8.36636L7.73182 6.54198L7.97747 7.44759L7.18734 6.93871ZM10.8707 7.44759L11.6873 6.93871L12.4775 7.44759L12.2318 6.54198L12.8664 5.96807H12.0588L11.6862 5.229L11.3685 5.96807H10.4211L11.1464 6.54198L10.8707 7.44759ZM16.1873 6.93871L15.3707 7.44759L15.6464 6.54198L14.9211 5.96807H15.8685L16.1862 5.229L16.5588 5.96807H17.3664L16.7318 6.54198L16.9775 7.44759L16.1873 6.93871ZM6.37073 11.4476L7.18734 10.9387L7.97747 11.4476L7.73182 10.542L8.36636 9.96807H7.55877L7.1862 9.229L6.86847 9.96807H5.92112L6.64643 10.542L6.37073 11.4476ZM11.6873 10.9387L10.8707 11.4476L11.1464 10.542L10.4211 9.96807H11.3685L11.6862 9.229L12.0588 9.96807H12.8664L12.2318 10.542L12.4775 11.4476L11.6873 10.9387ZM15.3707 11.4476L16.1873 10.9387L16.9775 11.4476L16.7318 10.542L17.3664 9.96807H16.5588L16.1862 9.229L15.8685 9.96807H14.9211L15.6464 10.542L15.3707 11.4476ZM20.6873 6.93871L19.8707 7.44759L20.1464 6.54198L19.4211 5.96807H20.3685L20.6862 5.229L21.0588 5.96807H21.8664L21.2318 6.54198L21.4775 7.44759L20.6873 6.93871ZM19.8707 11.4476L20.6873 10.9387L21.4775 11.4476L21.2318 10.542L21.8664 9.96807H21.0588L20.6862 9.229L20.3685 9.96807H19.4211L20.1464 10.542L19.8707 11.4476Z" fill="#F7FCFF"/>
</g>
</g>
<defs>
<filter id="filter0_dd_5_5961" x="0" y="0" width="42" height="30" filterUnits="userSpaceOnUse" color-interpolation-filters="sRGB">
<feFlood flood-opacity="0" result="BackgroundImageFix"/>
<feColorMatrix in="SourceAlpha" type="matrix" values="0 0 0 0 0 0 0 0 0 0 0 0 0 0 0 0 0 0 127 0" result="hardAlpha"/>
<feOffset dy="1"/>
<feGaussianBlur stdDeviation="1"/>
<feColorMatrix type="matrix" values="0 0 0 0 0.0627451 0 0 0 0 0.0941176 0 0 0 0 0.156863 0 0 0 0.06 0"/>
<feBlend mode="normal" in2="BackgroundImageFix" result="effect1_dropShadow_5_5961"/>
<feColorMatrix in="SourceAlpha" type="matrix" values="0 0 0 0 0 0 0 0 0 0 0 0 0 0 0 0 0 0 127 0" result="hardAlpha"/>
<feOffset dy="1"/>
<feGaussianBlur stdDeviation="1.5"/>
<feColorMatrix type="matrix" values="0 0 0 0 0.0627451 0 0 0 0 0.0941176 0 0 0 0 0.156863 0 0 0 0.1 0"/>
<feBlend mode="normal" in2="effect1_dropShadow_5_5961" result="effect2_dropShadow_5_5961"/>
<feBlend mode="normal" in="SourceGraphic" in2="effect2_dropShadow_5_5961" result="shape"/>
</filter>
</defs>
</svg>
