<svg width="42" height="30" viewBox="0 0 42 30" fill="none" xmlns="http://www.w3.org/2000/svg">
<g filter="url(#filter0_dd_5_7563)">
<mask id="mask0_5_7563" style="mask-type:alpha" maskUnits="userSpaceOnUse" x="3" y="2" width="36" height="24">
<rect x="3" y="2" width="36" height="24" fill="white"/>
</mask>
<g mask="url(#mask0_5_7563)">
<path fill-rule="evenodd" clip-rule="evenodd" d="M3 2V26H39V2H3Z" fill="#F7FCFF"/>
<mask id="mask1_5_7563" style="mask-type:alpha" maskUnits="userSpaceOnUse" x="3" y="2" width="36" height="24">
<path fill-rule="evenodd" clip-rule="evenodd" d="M3 2V26H39V2H3Z" fill="white"/>
</mask>
<g mask="url(#mask1_5_7563)">
<path fill-rule="evenodd" clip-rule="evenodd" d="M3 2V8H39V2H3Z" fill="#BF2714"/>
<path fill-rule="evenodd" clip-rule="evenodd" d="M3 20V26H39V20H3Z" fill="#BF2714"/>
<mask id="mask2_5_7563" style="mask-type:alpha" maskUnits="userSpaceOnUse" x="14" y="8" width="14" height="12">
<path fill-rule="evenodd" clip-rule="evenodd" d="M21 20C24.7279 20 27.75 17.3137 27.75 14C27.75 10.6863 24.7279 8 21 8C17.2721 8 14.25 10.6863 14.25 14C14.25 17.3137 17.2721 20 21 20Z" fill="white"/>
</mask>
<g mask="url(#mask2_5_7563)">
<path fill-rule="evenodd" clip-rule="evenodd" d="M14.8619 15.7492C14.8015 15.5811 14.9784 15.426 15.1372 15.5079L15.6286 15.7613C15.6801 15.7879 15.7408 15.7904 15.7943 15.7681L16.8752 15.3183C16.9348 15.2935 17.0027 15.2995 17.057 15.3343L18.1969 16.0656L19.7645 15.3153C19.8134 15.2919 19.8697 15.2898 19.9203 15.3093L21.1249 15.7744C21.1728 15.7929 21.226 15.792 21.2732 15.7718L22.3549 15.3089C22.4004 15.2895 22.4515 15.2879 22.4981 15.3044L23.8295 15.7772C23.8768 15.7939 23.9286 15.792 23.9745 15.7719L25.0145 15.3145C25.0663 15.2917 25.1254 15.2924 25.1767 15.3163L26.1366 15.7631C26.1912 15.7885 26.2544 15.7875 26.3081 15.7604L26.8571 15.484C27.0112 15.4064 27.1835 15.5507 27.134 15.716L27.0295 16.0656H14.9755L14.8619 15.7492Z" fill="#5277B9"/>
<path fill-rule="evenodd" clip-rule="evenodd" d="M14.8574 16.9338C14.7988 16.7647 14.9782 16.6115 15.136 16.6959L15.5905 16.9389C15.6433 16.9671 15.7061 16.9697 15.7611 16.946L16.7921 16.5013C16.8533 16.4749 16.9236 16.4812 16.979 16.5181L18.0735 17.2459L19.581 16.4981C19.6312 16.4732 19.6895 16.4709 19.7415 16.4917L20.8935 16.9527C20.9428 16.9725 20.9979 16.9714 21.0464 16.9499L22.0805 16.4913C22.1272 16.4706 22.1802 16.4689 22.2282 16.4865L23.5029 16.9556C23.5515 16.9735 23.6053 16.9715 23.6524 16.95L24.6458 16.4973C24.699 16.473 24.7602 16.4737 24.8128 16.4991L25.7281 16.9407C25.7841 16.9677 25.8495 16.9666 25.9046 16.9379L26.4148 16.6716C26.5682 16.5916 26.7428 16.7343 26.6948 16.9005L26.5952 17.2459H14.9655L14.8574 16.9338Z" fill="#5277B9"/>
<path fill-rule="evenodd" clip-rule="evenodd" d="M15.0786 17.7207C15.02 17.5515 15.1994 17.3984 15.3572 17.4828L15.8116 17.7257C15.8645 17.754 15.9273 17.7566 15.9823 17.7329L17.0133 17.2881C17.0744 17.2618 17.1447 17.2681 17.2002 17.3049L18.2947 18.0327L19.8022 17.285C19.8524 17.2601 19.9107 17.2577 19.9627 17.2785L21.1147 17.7396C21.1639 17.7593 21.2191 17.7583 21.2676 17.7368L22.3017 17.2782C22.3484 17.2574 22.4014 17.2557 22.4494 17.2734L23.7241 17.7425C23.7727 17.7604 23.8265 17.7584 23.8736 17.7369L24.867 17.2841C24.9202 17.2599 24.9814 17.2605 25.034 17.2859L25.9493 17.7275C26.0053 17.7545 26.0707 17.7535 26.1258 17.7247L26.636 17.4585C26.7894 17.3784 26.964 17.5211 26.916 17.6874L26.8164 18.0327H15.1867L15.0786 17.7207Z" fill="#5277B9"/>
<path fill-rule="evenodd" clip-rule="evenodd" d="M16.4062 18.5075C16.3476 18.3384 16.527 18.1853 16.6849 18.2697L17.1393 18.5126C17.1921 18.5408 17.2549 18.5435 17.31 18.5197L18.341 18.075C18.4021 18.0486 18.4724 18.0549 18.5278 18.0918L19.6223 18.8196L21.1298 18.0718C21.18 18.0469 21.2384 18.0446 21.2903 18.0654L22.4423 18.5265C22.4916 18.5462 22.5467 18.5452 22.5952 18.5237L23.6293 18.065C23.6761 18.0443 23.729 18.0426 23.777 18.0602L25.0517 18.5294C25.1004 18.5473 25.1541 18.5452 25.2013 18.5238L26.1946 18.071C26.2478 18.0467 26.309 18.0474 26.3617 18.0728L27.2769 18.5144C27.3329 18.5414 27.3983 18.5404 27.4534 18.5116L27.9636 18.2453C28.117 18.1653 28.2916 18.308 28.2436 18.4743L28.144 18.8196H16.5144L16.4062 18.5075Z" fill="#5277B9"/>
<path fill-rule="evenodd" clip-rule="evenodd" d="M14.636 19.4912C14.5774 19.3221 14.7567 19.1689 14.9146 19.2533L15.369 19.4962C15.4219 19.5245 15.4847 19.5271 15.5397 19.5034L16.5707 19.0586C16.6318 19.0323 16.7021 19.0386 16.7575 19.0754L17.8521 19.8032L19.3596 19.0555C19.4097 19.0306 19.4681 19.0282 19.5201 19.0491L20.6721 19.5101C20.7213 19.5298 20.7764 19.5288 20.8249 19.5073L21.859 19.0487C21.9058 19.028 21.9588 19.0262 22.0067 19.0439L23.2815 19.513C23.3301 19.5309 23.3838 19.5289 23.431 19.5074L24.4243 19.0546C24.4775 19.0304 24.5388 19.0311 24.5914 19.0565L25.5067 19.498C25.5626 19.525 25.6281 19.524 25.6832 19.4953L26.1933 19.229C26.3467 19.1489 26.5213 19.2917 26.4734 19.4579L26.3738 19.8032H14.7441L14.636 19.4912Z" fill="#5277B9"/>
<path d="M19.2255 16.1379V17.1379C18.2756 17.1379 17.6036 16.6194 17.2768 15.6988L17.2507 15.5483V11.4458H18.3757V15.468C18.5632 15.9484 18.8268 16.1379 19.2255 16.1379Z" fill="#FF0000"/>
<path d="M22.3409 16.1379V17.1379C23.2908 17.1379 23.9628 16.6194 24.2896 15.6988L24.3157 15.5483V11.4458H23.1907V15.468C23.0033 15.9484 22.7396 16.1379 22.3409 16.1379Z" fill="#FF0000"/>
<path fill-rule="evenodd" clip-rule="evenodd" d="M21.8155 8.90857C21.8155 8.90857 19.9492 8.4748 19.9492 9.57474C19.9492 10.6747 19.9492 13.0369 19.9492 13.0369L22.1249 13.6112V10.7814C22.1249 10.7814 21.0371 10.1906 21.0371 9.7285C21.0371 9.26643 21.8155 8.90857 21.8155 8.90857Z" fill="#FF0000"/>
<path d="M18.6755 14.8907L19.3851 14.0847" stroke="black"/>
<path d="M19.3224 14.8641L18.6426 14.0533" stroke="black"/>
<path d="M19.6934 14.8907L20.4029 14.0847" stroke="black"/>
<path d="M20.3405 14.8641L19.6606 14.0533" stroke="black"/>
<path d="M20.667 14.8907L21.3765 14.0847" stroke="black"/>
<path d="M21.3141 14.8641L20.6343 14.0533" stroke="black"/>
<path d="M21.6851 14.8907L22.3946 14.0847" stroke="black"/>
<path d="M22.3322 14.8641L21.6523 14.0533" stroke="black"/>
<path d="M22.7034 14.8907L23.4129 14.0847" stroke="black"/>
<path d="M23.3503 14.8641L22.6704 14.0533" stroke="black"/>
<path fill-rule="evenodd" clip-rule="evenodd" d="M18.1362 9.09487L19.4826 11.4331L19.6484 9.09487L19.4826 8.63428L18.1362 9.09487ZM17.4616 11.0903L16.4915 10.176L17.4616 9.14844L19.5006 12.0458V12.7822L18.5202 12.0458V11.0903H17.4616ZM15.3259 11.7947L17.0953 12.5476L17.2335 11.3843L15.7604 10.2654L15.3259 11.7947ZM17.1847 13.7257L14.8571 13.514V12.0549L17.1847 12.8507V13.7257ZM14.7941 15.1589L14.5178 13.9182L17.1413 14.0345V15.1589H14.7941ZM18.488 13.1203V12.42L19.4692 13.1203L19.3627 13.4901L18.488 13.1203ZM27.6156 13.9182L27.3393 15.1589H24.9921V14.0345L27.6156 13.9182ZM24.9487 13.7257L27.2762 13.514V12.0549L24.9487 12.8507V13.7257ZM26.8075 11.7947L25.0381 12.5476L24.8998 11.3843L26.373 10.2654L26.8075 11.7947ZM24.6718 11.0903L25.6419 10.176L24.6718 9.14844L22.6328 12.0458V12.7822L23.6132 12.0458V11.0903H24.6718ZM23.9972 9.09487L22.6507 11.4331L22.485 9.09487L22.6507 8.63428L23.9972 9.09487ZM23.6454 13.1203V12.42L22.6642 13.1203L22.7707 13.4901L23.6454 13.1203Z" fill="#FA8F21"/>
</g>
</g>
</g>
</g>
<defs>
<filter id="filter0_dd_5_7563" x="0" y="0" width="42" height="30" filterUnits="userSpaceOnUse" color-interpolation-filters="sRGB">
<feFlood flood-opacity="0" result="BackgroundImageFix"/>
<feColorMatrix in="SourceAlpha" type="matrix" values="0 0 0 0 0 0 0 0 0 0 0 0 0 0 0 0 0 0 127 0" result="hardAlpha"/>
<feOffset dy="1"/>
<feGaussianBlur stdDeviation="1"/>
<feColorMatrix type="matrix" values="0 0 0 0 0.0627451 0 0 0 0 0.0941176 0 0 0 0 0.156863 0 0 0 0.06 0"/>
<feBlend mode="normal" in2="BackgroundImageFix" result="effect1_dropShadow_5_7563"/>
<feColorMatrix in="SourceAlpha" type="matrix" values="0 0 0 0 0 0 0 0 0 0 0 0 0 0 0 0 0 0 127 0" result="hardAlpha"/>
<feOffset dy="1"/>
<feGaussianBlur stdDeviation="1.5"/>
<feColorMatrix type="matrix" values="0 0 0 0 0.0627451 0 0 0 0 0.0941176 0 0 0 0 0.156863 0 0 0 0.1 0"/>
<feBlend mode="normal" in2="effect1_dropShadow_5_7563" result="effect2_dropShadow_5_7563"/>
<feBlend mode="normal" in="SourceGraphic" in2="effect2_dropShadow_5_7563" result="shape"/>
</filter>
</defs>
</svg>
