<svg width="42" height="30" viewBox="0 0 42 30" fill="none" xmlns="http://www.w3.org/2000/svg">
<g filter="url(#filter0_dd_5_8283)">
<mask id="mask0_5_8283" style="mask-type:alpha" maskUnits="userSpaceOnUse" x="3" y="2" width="36" height="24">
<rect x="3" y="2" width="36" height="24" fill="white"/>
</mask>
<g mask="url(#mask0_5_8283)">
<path fill-rule="evenodd" clip-rule="evenodd" d="M3 2H39V24C39 25.1046 38.1046 26 37 26H5C3.89543 26 3 25.1046 3 24V2Z" fill="#C51918"/>
<path fill-rule="evenodd" clip-rule="evenodd" d="M3 2H39V26H3V2Z" fill="#E31D1C"/>
<path fill-rule="evenodd" clip-rule="evenodd" d="M28.2921 21.6261L21.1865 4.70056H20.8782L14.0195 21.6261L21.1423 17.821L28.2921 21.6261ZM20.4 10.222L21.1617 7.58363L21.9522 10.2976L24.2232 15.954L25.5566 18.6926L22.678 16.8899L21.1407 16.0718L19.6283 16.8798L16.8165 18.6926L18.1164 15.8979L20.4 10.222Z" fill="#579D20"/>
<path fill-rule="evenodd" clip-rule="evenodd" d="M17.2453 15.4731L21.1782 17.797L24.8482 15.4731L31.8184 10.2364H10.1833L17.2453 15.4731ZM17.3269 13.4741L14.6521 12.0191H17.9154H24.3996H27.2782L24.9821 13.3118L21.1611 15.8888L17.3269 13.4741Z" fill="#579D20"/>
</g>
</g>
<defs>
<filter id="filter0_dd_5_8283" x="0" y="0" width="42" height="30" filterUnits="userSpaceOnUse" color-interpolation-filters="sRGB">
<feFlood flood-opacity="0" result="BackgroundImageFix"/>
<feColorMatrix in="SourceAlpha" type="matrix" values="0 0 0 0 0 0 0 0 0 0 0 0 0 0 0 0 0 0 127 0" result="hardAlpha"/>
<feOffset dy="1"/>
<feGaussianBlur stdDeviation="1"/>
<feColorMatrix type="matrix" values="0 0 0 0 0.0627451 0 0 0 0 0.0941176 0 0 0 0 0.156863 0 0 0 0.06 0"/>
<feBlend mode="normal" in2="BackgroundImageFix" result="effect1_dropShadow_5_8283"/>
<feColorMatrix in="SourceAlpha" type="matrix" values="0 0 0 0 0 0 0 0 0 0 0 0 0 0 0 0 0 0 127 0" result="hardAlpha"/>
<feOffset dy="1"/>
<feGaussianBlur stdDeviation="1.5"/>
<feColorMatrix type="matrix" values="0 0 0 0 0.0627451 0 0 0 0 0.0941176 0 0 0 0 0.156863 0 0 0 0.1 0"/>
<feBlend mode="normal" in2="effect1_dropShadow_5_8283" result="effect2_dropShadow_5_8283"/>
<feBlend mode="normal" in="SourceGraphic" in2="effect2_dropShadow_5_8283" result="shape"/>
</filter>
</defs>
</svg>
