<svg width="42" height="30" viewBox="0 0 42 30" fill="none" xmlns="http://www.w3.org/2000/svg">
<g filter="url(#filter0_dd_5_6047)">
<mask id="mask0_5_6047" style="mask-type:alpha" maskUnits="userSpaceOnUse" x="3" y="2" width="36" height="24">
<rect x="3" y="2" width="36" height="24" fill="white"/>
</mask>
<g mask="url(#mask0_5_6047)">
<path fill-rule="evenodd" clip-rule="evenodd" d="M3 2V26H39V2H3Z" fill="#00B4FF"/>
<mask id="mask1_5_6047" style="mask-type:alpha" maskUnits="userSpaceOnUse" x="3" y="2" width="36" height="24">
<path fill-rule="evenodd" clip-rule="evenodd" d="M3 2V26H39V2H3Z" fill="white"/>
</mask>
<g mask="url(#mask1_5_6047)">
<rect x="3" y="2" width="20.25" height="14" fill="#2B409A"/>
<mask id="mask2_5_6047" style="mask-type:alpha" maskUnits="userSpaceOnUse" x="3" y="2" width="21" height="14">
<rect x="3" y="2" width="20.25" height="14" fill="white"/>
</mask>
<g mask="url(#mask2_5_6047)">
<path d="M0.745239 14.9997L5.20131 16.7369L23.3512 3.88866L25.7016 1.30713L20.9365 0.726505L13.5336 6.2632L7.57505 9.99363L0.745239 14.9997Z" fill="#F7FCFF"/>
<path d="M1.35522 16.217L3.62539 17.2251L24.8575 1.06738H21.67L1.35522 16.217Z" fill="#F50100"/>
<path d="M25.5048 14.9997L21.0487 16.7369L2.89885 3.88866L0.54837 1.30713L5.3135 0.726505L12.7164 6.2632L18.6749 9.99363L25.5048 14.9997Z" fill="#F7FCFF"/>
<path d="M25.3528 15.8733L23.0826 16.8815L14.0418 9.96351L11.3613 9.19059L0.322273 1.31605H3.50984L14.5427 9.00368L17.4733 9.9305L25.3528 15.8733Z" fill="#F50100"/>
<mask id="path-11-outside-1_5_6047" maskUnits="userSpaceOnUse" x="1" y="0" width="24" height="18" fill="black">
<rect fill="white" x="1" width="24" height="18"/>
<path fill-rule="evenodd" clip-rule="evenodd" d="M14.2326 2H11.9826V8H3V10H11.9826V16H14.2326V10H23.25V8H14.2326V2Z"/>
</mask>
<path fill-rule="evenodd" clip-rule="evenodd" d="M14.2326 2H11.9826V8H3V10H11.9826V16H14.2326V10H23.25V8H14.2326V2Z" fill="#F50100"/>
<path d="M11.9826 2V0.5H10.4826V2H11.9826ZM14.2326 2H15.7326V0.5H14.2326V2ZM11.9826 8V9.5H13.4826V8H11.9826ZM3 8V6.5H1.5V8H3ZM3 10H1.5V11.5H3V10ZM11.9826 10H13.4826V8.5H11.9826V10ZM11.9826 16H10.4826V17.5H11.9826V16ZM14.2326 16V17.5H15.7326V16H14.2326ZM14.2326 10V8.5H12.7326V10H14.2326ZM23.25 10V11.5H24.75V10H23.25ZM23.25 8H24.75V6.5H23.25V8ZM14.2326 8H12.7326V9.5H14.2326V8ZM11.9826 3.5H14.2326V0.5H11.9826V3.5ZM13.4826 8V2H10.4826V8H13.4826ZM3 9.5H11.9826V6.5H3V9.5ZM4.5 10V8H1.5V10H4.5ZM11.9826 8.5H3V11.5H11.9826V8.5ZM13.4826 16V10H10.4826V16H13.4826ZM14.2326 14.5H11.9826V17.5H14.2326V14.5ZM12.7326 10V16H15.7326V10H12.7326ZM23.25 8.5H14.2326V11.5H23.25V8.5ZM21.75 8V10H24.75V8H21.75ZM14.2326 9.5H23.25V6.5H14.2326V9.5ZM12.7326 2V8H15.7326V2H12.7326Z" fill="#F7FCFF" mask="url(#path-11-outside-1_5_6047)"/>
</g>
<path fill-rule="evenodd" clip-rule="evenodd" d="M33.2139 12.6848L33.897 11.5594L35.3956 11.5196L34.2353 10.6582L34.6353 9.49557L33.635 10.0298L32.3705 9.34814L32.4929 10.6398L31.3599 11.2449L32.8307 11.4083L33.2139 12.6848ZM29.397 13.5594L28.7139 14.6848L28.3307 13.4083L26.8599 13.2449L27.9929 12.6398L27.8705 11.3481L29.135 12.0298L30.1353 11.4956L29.7353 12.6582L30.8956 13.5196L29.397 13.5594ZM26.4639 16.6848L27.147 15.5594L28.6456 15.5196L27.4853 14.6582L27.8853 13.4956L26.885 14.0298L25.6205 13.3481L25.7429 14.6398L24.6099 15.2449L26.0807 15.4083L26.4639 16.6848ZM21.9639 20.6848L22.647 19.5594L24.1456 19.5196L22.9853 18.6582L23.3853 17.4956L22.385 18.0298L21.1205 17.3481L21.2429 18.6398L20.1099 19.2449L21.5807 19.4083L21.9639 20.6848ZM17.596 23.7355L16.3583 24.3875L16.7695 23.118L15.6035 22.3045H16.9253L17.5688 21.1413L18.2577 22.3045H19.4246L18.4081 23.118L18.9036 24.3875L17.596 23.7355ZM22.647 23.5594L21.9639 24.6848L21.5807 23.4083L20.1099 23.2449L21.2429 22.6398L21.1205 21.3481L22.385 22.0298L23.3853 21.4956L22.9853 22.6582L24.1456 23.5196L22.647 23.5594ZM27.147 21.5594L26.4639 22.6848L26.0807 21.4083L24.6099 21.2449L25.7429 20.6398L25.6205 19.3481L26.885 20.0298L27.8853 19.4956L27.4853 20.6582L28.6456 21.5196L27.147 21.5594ZM31.647 19.5594L30.9639 20.6848L30.5807 19.4083L29.1099 19.2449L30.2429 18.6398L30.1205 17.3481L31.385 18.0298L32.3853 17.4956L31.9853 18.6582L33.1456 19.5196L31.647 19.5594ZM33.2139 18.6848L33.897 17.5594L35.3956 17.5196L34.2353 16.6582L34.6353 15.4956L33.635 16.0298L32.3705 15.3481L32.4929 16.6398L31.3599 17.2449L32.8307 17.4083L33.2139 18.6848Z" fill="#FFD018"/>
</g>
</g>
</g>
<defs>
<filter id="filter0_dd_5_6047" x="0" y="0" width="42" height="30" filterUnits="userSpaceOnUse" color-interpolation-filters="sRGB">
<feFlood flood-opacity="0" result="BackgroundImageFix"/>
<feColorMatrix in="SourceAlpha" type="matrix" values="0 0 0 0 0 0 0 0 0 0 0 0 0 0 0 0 0 0 127 0" result="hardAlpha"/>
<feOffset dy="1"/>
<feGaussianBlur stdDeviation="1"/>
<feColorMatrix type="matrix" values="0 0 0 0 0.0627451 0 0 0 0 0.0941176 0 0 0 0 0.156863 0 0 0 0.06 0"/>
<feBlend mode="normal" in2="BackgroundImageFix" result="effect1_dropShadow_5_6047"/>
<feColorMatrix in="SourceAlpha" type="matrix" values="0 0 0 0 0 0 0 0 0 0 0 0 0 0 0 0 0 0 127 0" result="hardAlpha"/>
<feOffset dy="1"/>
<feGaussianBlur stdDeviation="1.5"/>
<feColorMatrix type="matrix" values="0 0 0 0 0.0627451 0 0 0 0 0.0941176 0 0 0 0 0.156863 0 0 0 0.1 0"/>
<feBlend mode="normal" in2="effect1_dropShadow_5_6047" result="effect2_dropShadow_5_6047"/>
<feBlend mode="normal" in="SourceGraphic" in2="effect2_dropShadow_5_6047" result="shape"/>
</filter>
</defs>
</svg>
