<svg width="42" height="30" viewBox="0 0 42 30" fill="none" xmlns="http://www.w3.org/2000/svg">
<g filter="url(#filter0_dd_5_11523)">
<mask id="mask0_5_11523" style="mask-type:alpha" maskUnits="userSpaceOnUse" x="3" y="2" width="36" height="24">
<rect x="3" y="2" width="36" height="24" fill="white"/>
</mask>
<g mask="url(#mask0_5_11523)">
<path fill-rule="evenodd" clip-rule="evenodd" d="M3 2H39V26H3V2Z" fill="#F50100"/>
<path fill-rule="evenodd" clip-rule="evenodd" d="M21.5625 21.2468L21.5547 23.6C21.5547 23.6 20.324 21.6887 20.4215 21.6887C20.519 21.6887 20.8844 21.0562 21.0347 20.7424C21.1851 20.4286 20.7081 20.2063 20.6282 20.4294C20.5484 20.6526 20.2215 20.9678 19.7746 21.2207C19.3276 21.4736 19.2289 20.8398 19.2289 20.6911C19.2289 20.5767 19.4039 20.5821 19.6797 20.5907C19.7622 20.5932 19.8537 20.5961 19.9522 20.5961C20.3801 20.5961 20.4215 19.7528 20.324 19.537C20.2696 19.4165 20.1439 19.5376 19.9496 19.7247C19.7957 19.8728 19.5989 20.0624 19.3604 20.2063C18.8207 20.5319 18.5214 20.1886 18.5214 19.8806C18.5214 19.7078 18.6328 19.7115 18.8054 19.7171C18.9405 19.7215 19.1132 19.7271 19.2992 19.6502C19.7228 19.475 20.0258 18.7408 19.9522 18.676C19.8931 18.6241 19.5484 18.8042 19.1642 19.0049C19.0692 19.0545 18.9718 19.1054 18.8757 19.1544C18.391 19.4013 18.1886 18.8184 18.1886 18.676C18.1886 18.5337 18.6437 18.5142 18.8757 18.5142C19.1077 18.5142 19.9403 18.0632 20.4215 17.4924C20.9027 16.9215 20.7659 16.2436 20.4215 16.0236C20.1824 15.8709 20.0189 16.09 19.8417 16.3276C19.7636 16.4323 19.6829 16.5405 19.5918 16.6221C19.4466 16.7522 19.2572 17.0984 19.082 17.4188C18.8979 17.7552 18.7294 18.0632 18.6437 18.0632C18.4764 18.0632 17.9675 17.5808 17.9675 17.5808L16.1508 18.0632C16.1508 18.0632 16.9015 18.426 17.1485 18.426C17.3956 18.426 17.4917 18.8219 17.4917 18.9075C17.4917 18.993 17.0819 19.1187 16.7911 19.0331C16.5003 18.9476 16.6783 18.676 16.6783 18.676L15.7249 18.1889C15.7249 18.1889 14.9839 18.426 14.9839 18.676C14.9839 18.926 14.6489 19.0331 14.253 19.0331C13.857 19.0331 13.9095 18.889 14.253 18.426C14.3296 18.3228 14.3851 18.2656 14.4253 18.2391C14.4517 18.2396 14.479 18.2398 14.5074 18.2394C14.5406 18.2904 14.5175 18.426 14.5175 18.426C14.5175 18.426 15.5786 18.0748 14.9839 18.1889C14.8 18.2242 14.6423 18.2376 14.5074 18.2394C14.4929 18.2172 14.4677 18.211 14.4253 18.2391C14.2739 18.2358 14.1548 18.2186 14.0624 18.2052C13.9998 18.1962 13.9494 18.1889 13.9095 18.1889C13.7514 18.1889 13.125 17.8622 13.125 17.8622C13.125 17.8622 13.3538 17.6548 13.9095 17.6548C14.4652 17.6548 14.253 17.8622 14.253 17.8622H15.5786C15.5786 17.8622 14.9839 17.4924 14.7893 17.4924C14.6908 17.4924 14.5547 17.4192 14.4202 17.347C14.2889 17.2764 14.1592 17.2068 14.0676 17.2068C13.8822 17.2068 13.9095 16.8341 14.253 16.8341C14.5965 16.8341 14.9839 17.0983 14.9839 17.2068C14.9839 17.3152 15.7249 17.6548 15.7249 17.6548L17.6708 17.2068C17.6708 17.2068 17.3848 16.6221 17.6708 16.6221C17.9568 16.6221 18.8618 16.1008 19.2289 15.4488C19.596 14.7968 19.5566 14.4929 19.3604 14.4929C19.1642 14.4929 18.9974 14.7844 18.9974 14.9086C18.9974 15.0328 18.5245 15.674 18.4141 15.8126C18.3038 15.9513 17.9124 15.674 18.1886 15.3344C18.4334 15.0333 18.4214 14.5837 18.4155 14.3631C18.4148 14.3348 18.4141 14.3103 18.4141 14.2903C18.4141 14.1147 17.9124 14.4659 17.9124 15.0915C17.9124 15.7171 16.8028 15.9536 16.492 15.9536C16.1813 15.9536 16.492 15.4488 17.0819 15.3344C17.5458 15.2444 17.4674 14.7086 17.4127 14.335C17.3979 14.2335 17.3848 14.144 17.3848 14.0786C17.3848 13.7726 16.6783 14.5188 16.4032 14.9086C16.1281 15.2984 14.9839 16.2333 14.6489 16.3554C14.314 16.4774 13.6755 16.09 13.5216 15.8126C13.4085 15.609 13.7561 15.5712 14.2346 15.5192C14.4076 15.5004 14.5977 15.4798 14.7893 15.4488C15.511 15.332 16.492 14.0786 16.6783 13.8362C16.8646 13.5939 16.4032 13.4133 16.1508 13.8362C15.9001 14.2563 14.6664 14.6519 14.2614 14.7817L14.253 14.7844C13.857 14.9114 13.5216 14.3367 13.5216 14.0786C13.5216 13.9236 13.7185 13.9548 14.0321 14.0044C14.2407 14.0374 14.501 14.0786 14.7893 14.0786C15.511 14.0786 16.4032 12.9598 16.4032 12.6798C16.4032 12.3998 16.008 12.522 15.7249 12.6798C15.6541 12.7193 15.5723 12.7751 15.4822 12.8366C15.2122 13.021 14.8672 13.2565 14.5175 13.2565C14.0511 13.2565 13.6755 12.9598 13.6755 12.9598C13.6755 12.9598 13.5216 12.522 13.9095 12.522H14.9839C15.5586 12.522 16.492 11.4395 16.492 11.2382C16.492 11.1284 16.049 11.3039 15.5888 11.4861C15.2051 11.638 14.8096 11.7946 14.6489 11.7946C14.2956 11.7946 13.5216 11.5027 13.5216 11.2382C13.5216 11.1309 13.5216 11.0789 13.5475 11.055C13.5854 11.0201 13.679 11.0454 13.9095 11.0454C14.0835 11.0454 14.2502 11.0842 14.434 11.127C14.66 11.1796 14.9118 11.2382 15.2348 11.2382C15.6307 11.2382 15.9635 10.9665 16.1793 10.7902C16.2828 10.7056 16.3594 10.6431 16.4032 10.6431C16.5381 10.6431 16.2683 10.233 16.008 10.233C15.9003 10.233 15.738 10.3033 15.5479 10.3857C15.2789 10.5023 14.9542 10.6431 14.6489 10.6431C14.1279 10.6431 13.5216 9.90445 13.5216 9.70702C13.5216 9.5096 13.811 9.58112 14.253 9.70702C14.695 9.83293 15.0151 9.92331 16.008 9.70702C17.001 9.49073 16.4032 9.17109 16.1508 9.17109H14.253C13.5215 9.17109 13.5216 8.23151 13.5216 8.05498L13.5216 8.05223C13.5216 7.91931 13.6751 7.99513 14.0501 8.18039C14.1527 8.23107 14.2719 8.28994 14.4091 8.35498C14.9059 8.59056 15.5751 8.54731 16.0514 8.51653C16.1871 8.50775 16.3072 8.49999 16.4032 8.49999C16.8358 8.49999 16.1508 8.05223 16.1508 8.05223C16.1508 8.05223 15.5075 8.05223 14.4091 7.63663C13.3106 7.22103 13.5216 6.0851 13.5216 6.0851C13.5216 6.0851 13.8494 5.67932 14.0676 6.0851C14.2859 6.49088 15.6723 7.51261 16.1508 7.51261C16.4488 7.51261 16.4409 7.4273 16.4344 7.35601C16.4304 7.31285 16.4269 7.27483 16.492 7.264C16.6648 7.2353 18.0581 7.6535 18.0581 7.6535C18.6249 7.68973 18.7124 8.43388 18.7124 8.87442C18.7124 9.31496 19.1305 9.70702 19.7746 9.70702C20.2569 9.70702 20.0625 9.0641 19.9002 8.52762C19.8458 8.34779 19.795 8.17992 19.7746 8.05223C19.6931 7.54362 17.9124 7.24973 17.9124 7.24973C17.2823 7.16107 17.3848 6.84085 17.3848 6.84085C17.6216 6.83314 17.9675 6.70642 17.9675 6.70642C18.3475 6.63047 16.4032 6.46158 16.4032 6.46158C15.9723 6.4264 16.1508 5.96271 16.1508 5.96271C16.1508 5.75289 16.3369 5.86462 16.6027 6.02414C16.8572 6.1769 17.1848 6.37347 17.4917 6.37347C18.1193 6.37347 17.3078 5.96271 17.0819 5.96271C17.0506 5.96271 17.0363 5.96271 17.0362 5.96196C17.036 5.95728 17.589 5.92346 18.0581 5.67932C18.3495 5.5277 18.6159 5.61945 18.9588 5.73755C19.2567 5.84018 19.6125 5.96271 20.0927 5.96271C20.6785 5.96271 20.668 6.28362 20.655 6.68485C20.6451 6.99098 20.6337 7.34386 20.8844 7.63663C21.295 8.11621 21.4861 8.20977 21.5625 8.2236C21.6389 8.20977 21.83 8.11621 22.2406 7.63663C22.4913 7.34386 22.4799 6.99098 22.47 6.68485C22.457 6.28362 22.4465 5.96271 23.0323 5.96271C23.5125 5.96271 23.8683 5.84018 24.1662 5.73755C24.5091 5.61945 24.7755 5.5277 25.0669 5.67932C25.536 5.92346 26.089 5.95728 26.0888 5.96196C26.0887 5.96271 26.0744 5.96271 26.0431 5.96271C25.8172 5.96271 25.0057 6.37347 25.6333 6.37347C25.9402 6.37347 26.2678 6.1769 26.5223 6.02414C26.7881 5.86462 26.9742 5.75289 26.9742 5.96271C26.9742 5.96271 27.1527 6.4264 26.7218 6.46158C26.7218 6.46158 24.7775 6.63047 25.1575 6.70642C25.1575 6.70642 25.5034 6.83314 25.7402 6.84085C25.7402 6.84085 25.8427 7.16107 25.2126 7.24973C25.2126 7.24973 23.4319 7.54362 23.3504 8.05223C23.33 8.17992 23.2792 8.34779 23.2248 8.52762C23.0625 9.0641 22.8681 9.70702 23.3504 9.70702C23.9945 9.70702 24.4126 9.31496 24.4126 8.87442C24.4126 8.43388 24.5001 7.68973 25.0669 7.6535C25.0669 7.6535 26.4602 7.2353 26.633 7.264C26.6981 7.27483 26.6946 7.31285 26.6906 7.35601C26.6841 7.4273 26.6762 7.51261 26.9742 7.51261C27.4527 7.51261 28.8391 6.49088 29.0574 6.0851C29.2756 5.67932 29.6034 6.0851 29.6034 6.0851C29.6034 6.0851 29.8144 7.22103 28.7159 7.63663C27.6175 8.05223 26.9742 8.05223 26.9742 8.05223C26.9742 8.05223 26.2892 8.49999 26.7218 8.49999C26.8178 8.49999 26.9379 8.50775 27.0736 8.51653C27.5499 8.54731 28.2191 8.59056 28.7159 8.35498C28.8531 8.28994 28.9723 8.23107 29.0749 8.18039C29.4499 7.99513 29.6034 7.91931 29.6034 8.05223V8.05498C29.6034 8.23151 29.6035 9.17109 28.872 9.17109H26.9742C26.7218 9.17109 26.124 9.49073 27.117 9.70702C28.1099 9.92331 28.43 9.83293 28.872 9.70702C29.314 9.58112 29.6034 9.5096 29.6034 9.70702C29.6034 9.90445 28.9971 10.6431 28.4761 10.6431C28.1708 10.6431 27.8461 10.5023 27.5771 10.3857C27.387 10.3033 27.2247 10.233 27.117 10.233C26.8567 10.233 26.5869 10.6431 26.7218 10.6431C26.7656 10.6431 26.8422 10.7056 26.9457 10.7902C27.1615 10.9665 27.4943 11.2382 27.8902 11.2382C28.2132 11.2382 28.465 11.1796 28.691 11.127C28.8748 11.0842 29.0415 11.0454 29.2155 11.0454C29.446 11.0454 29.5396 11.0201 29.5775 11.055C29.6034 11.0789 29.6034 11.1309 29.6034 11.2382C29.6034 11.5027 28.8294 11.7946 28.4761 11.7946C28.3154 11.7946 27.9199 11.638 27.5362 11.4861C27.076 11.3039 26.633 11.1284 26.633 11.2382C26.633 11.4395 27.5664 12.522 28.1411 12.522H29.2155C29.6034 12.522 29.4495 12.9598 29.4495 12.9598C29.4495 12.9598 29.0739 13.2565 28.6075 13.2565C28.2578 13.2565 27.9128 13.021 27.6428 12.8366C27.5527 12.7751 27.4709 12.7193 27.4001 12.6798C27.117 12.522 26.7218 12.3998 26.7218 12.6798C26.7218 12.9598 27.614 14.0786 28.3357 14.0786C28.624 14.0786 28.8843 14.0374 29.0929 14.0044C29.4065 13.9548 29.6034 13.9236 29.6034 14.0786C29.6034 14.3367 29.268 14.9114 28.872 14.7844L28.8636 14.7817C28.4586 14.6519 27.2249 14.2563 26.9742 13.8362C26.7218 13.4133 26.2604 13.5939 26.4467 13.8362C26.633 14.0786 27.614 15.332 28.3357 15.4488C28.5273 15.4798 28.7174 15.5004 28.8904 15.5192C29.3689 15.5712 29.7165 15.609 29.6034 15.8126C29.4495 16.09 28.811 16.4774 28.4761 16.3554C28.1411 16.2333 26.9969 15.2984 26.7218 14.9086C26.4467 14.5188 25.7402 13.7726 25.7402 14.0786C25.7402 14.144 25.7271 14.2335 25.7123 14.335C25.6576 14.7086 25.5792 15.2444 26.0431 15.3344C26.633 15.4488 26.9437 15.9536 26.633 15.9536C26.3222 15.9536 25.2126 15.7171 25.2126 15.0915C25.2126 14.4659 24.7109 14.1147 24.7109 14.2903C24.7109 14.3103 24.7102 14.3348 24.7095 14.3631C24.7036 14.5837 24.6916 15.0333 24.9364 15.3344C25.2126 15.674 24.8212 15.9513 24.7109 15.8126C24.6005 15.674 24.1276 15.0328 24.1276 14.9086C24.1276 14.7844 23.9608 14.4929 23.7646 14.4929C23.5684 14.4929 23.529 14.7968 23.8961 15.4488C24.2632 16.1008 25.1682 16.6221 25.4542 16.6221C25.7402 16.6221 25.4542 17.2068 25.4542 17.2068L27.4001 17.6548C27.4001 17.6548 28.1411 17.3152 28.1411 17.2068C28.1411 17.0983 28.5285 16.8341 28.872 16.8341C29.2155 16.8341 29.2428 17.2068 29.0574 17.2068C28.9658 17.2068 28.8361 17.2764 28.7048 17.347C28.5703 17.4192 28.4342 17.4924 28.3357 17.4924C28.1411 17.4924 27.5464 17.8622 27.5464 17.8622H28.872C28.872 17.8622 28.6598 17.6548 29.2155 17.6548C29.7712 17.6548 30 17.8622 30 17.8622C30 17.8622 29.3736 18.1889 29.2155 18.1889C29.1756 18.1889 29.1252 18.1962 29.0626 18.2052C28.9702 18.2186 28.8511 18.2358 28.6997 18.2391C28.6573 18.211 28.6321 18.2172 28.6176 18.2394C28.4827 18.2376 28.325 18.2242 28.1411 18.1889C27.5464 18.0748 28.6075 18.426 28.6075 18.426C28.6075 18.426 28.5844 18.2904 28.6176 18.2394C28.646 18.2398 28.6733 18.2396 28.6997 18.2391C28.7399 18.2656 28.7954 18.3228 28.872 18.426C29.2155 18.889 29.268 19.0331 28.872 19.0331C28.4761 19.0331 28.1411 18.926 28.1411 18.676C28.1411 18.426 27.4001 18.1889 27.4001 18.1889L26.4467 18.676C26.4467 18.676 26.6247 18.9476 26.3339 19.0331C26.0431 19.1187 25.6333 18.993 25.6333 18.9075C25.6333 18.8219 25.7294 18.426 25.9765 18.426C26.2235 18.426 26.9742 18.0632 26.9742 18.0632L25.1575 17.5808C25.1575 17.5808 24.6486 18.0632 24.4813 18.0632C24.3956 18.0632 24.2271 17.7552 24.043 17.4188C23.8678 17.0984 23.6784 16.7522 23.5332 16.6221C23.4421 16.5405 23.3614 16.4323 23.2833 16.3276C23.1061 16.09 22.9426 15.8709 22.7035 16.0236C22.3591 16.2436 22.2223 16.9215 22.7035 17.4924C23.1847 18.0632 24.0173 18.5142 24.2493 18.5142C24.4813 18.5142 24.9364 18.5337 24.9364 18.676C24.9364 18.8184 24.734 19.4013 24.2493 19.1544C24.1532 19.1054 24.0558 19.0545 23.9608 19.0049C23.5766 18.8042 23.2319 18.6241 23.1728 18.676C23.0992 18.7408 23.4022 19.475 23.8258 19.6502C24.0118 19.7271 24.1845 19.7215 24.3196 19.7171C24.4922 19.7115 24.6036 19.7078 24.6036 19.8806C24.6036 20.1886 24.3043 20.5319 23.7646 20.2063C23.5261 20.0624 23.3293 19.8728 23.1754 19.7247C22.9811 19.5376 22.8554 19.4165 22.801 19.537C22.7035 19.7528 22.7449 20.5961 23.1728 20.5961C23.2713 20.5961 23.3628 20.5932 23.4453 20.5907C23.7211 20.5821 23.8961 20.5767 23.8961 20.6911C23.8961 20.8398 23.7974 21.4736 23.3504 21.2207C22.9035 20.9678 22.5766 20.6526 22.4968 20.4294C22.4169 20.2063 21.9399 20.4286 22.0903 20.7424C22.2406 21.0562 22.606 21.6887 22.7035 21.6887C22.801 21.6887 21.5703 23.6 21.5703 23.6L21.5625 21.2468Z" fill="#1A1A1A"/>
</g>
</g>
<defs>
<filter id="filter0_dd_5_11523" x="0" y="0" width="42" height="30" filterUnits="userSpaceOnUse" color-interpolation-filters="sRGB">
<feFlood flood-opacity="0" result="BackgroundImageFix"/>
<feColorMatrix in="SourceAlpha" type="matrix" values="0 0 0 0 0 0 0 0 0 0 0 0 0 0 0 0 0 0 127 0" result="hardAlpha"/>
<feOffset dy="1"/>
<feGaussianBlur stdDeviation="1"/>
<feColorMatrix type="matrix" values="0 0 0 0 0.0627451 0 0 0 0 0.0941176 0 0 0 0 0.156863 0 0 0 0.06 0"/>
<feBlend mode="normal" in2="BackgroundImageFix" result="effect1_dropShadow_5_11523"/>
<feColorMatrix in="SourceAlpha" type="matrix" values="0 0 0 0 0 0 0 0 0 0 0 0 0 0 0 0 0 0 127 0" result="hardAlpha"/>
<feOffset dy="1"/>
<feGaussianBlur stdDeviation="1.5"/>
<feColorMatrix type="matrix" values="0 0 0 0 0.0627451 0 0 0 0 0.0941176 0 0 0 0 0.156863 0 0 0 0.1 0"/>
<feBlend mode="normal" in2="effect1_dropShadow_5_11523" result="effect2_dropShadow_5_11523"/>
<feBlend mode="normal" in="SourceGraphic" in2="effect2_dropShadow_5_11523" result="shape"/>
</filter>
</defs>
</svg>
