<svg width="42" height="30" viewBox="0 0 42 30" fill="none" xmlns="http://www.w3.org/2000/svg">
<g filter="url(#filter0_dd_5_10468)">
<mask id="mask0_5_10468" style="mask-type:alpha" maskUnits="userSpaceOnUse" x="3" y="2" width="36" height="24">
<rect x="3" y="2" width="36" height="24" fill="white"/>
</mask>
<g mask="url(#mask0_5_10468)">
<path fill-rule="evenodd" clip-rule="evenodd" d="M3 2V26H39V2H3Z" fill="#F7FCFF"/>
<mask id="mask1_5_10468" style="mask-type:alpha" maskUnits="userSpaceOnUse" x="3" y="2" width="36" height="24">
<path fill-rule="evenodd" clip-rule="evenodd" d="M3 2V26H39V2H3Z" fill="white"/>
</mask>
<g mask="url(#mask1_5_10468)">
<path fill-rule="evenodd" clip-rule="evenodd" d="M11.5497 16.3208C11.068 16.0232 11.2847 15.3704 11.2847 15.3704C11.2847 15.3704 11.9996 15.7315 12.2503 15.8991C12.5009 16.0667 12.6817 16.7583 12.6817 16.7583C12.6817 16.7583 12.0313 16.6183 11.5497 16.3208ZM12.8368 17.2542C12.8125 17.0656 12.872 16.897 12.872 16.897C12.872 16.897 13.4755 17.1837 13.6871 17.3167C13.8987 17.4498 14.0513 17.9987 14.0513 17.9987C14.0513 17.9987 13.5022 17.8876 13.0957 17.6514C12.9479 17.5655 12.878 17.4424 12.8489 17.3204C12.7275 17.3535 12.418 17.4252 12.0986 17.3979C11.6885 17.3628 11.3926 16.8513 11.3926 16.8513C11.3926 16.8513 11.9522 16.8493 12.1734 16.8761C12.3457 16.8969 12.6921 17.1454 12.8368 17.2542ZM14.74 18.2301C14.74 18.2301 14.7834 18.7675 15.2211 18.8773C15.6587 18.9871 16.1697 18.94 16.1697 18.94C16.1697 18.94 15.8283 18.4662 15.5967 18.3996C15.365 18.3329 14.74 18.2301 14.74 18.2301ZM17.3341 19.6687C16.8817 19.6281 16.7339 19.1056 16.7339 19.1056C16.7339 19.1056 17.3696 19.1104 17.6107 19.1402C17.8519 19.1701 18.2806 19.584 18.2806 19.584C18.2806 19.584 17.7865 19.7092 17.3341 19.6687ZM18.1374 18.7013C18.1374 18.7013 18.0761 19.3282 18.5306 19.5384C18.9851 19.7485 19.5513 19.7921 19.5513 19.7921C19.5513 19.7921 19.2752 19.1814 19.0363 19.0604C18.7975 18.9393 18.1374 18.7013 18.1374 18.7013ZM18.4553 20.3021C17.9533 20.3931 17.5571 19.8716 17.5571 19.8716C17.5571 19.8716 18.2386 19.6873 18.5099 19.6478C18.7813 19.6083 19.4282 19.9284 19.4282 19.9284C19.4282 19.9284 18.9573 20.2112 18.4553 20.3021ZM14.8254 19.1768C14.8254 19.1768 15.0633 19.6723 15.5173 19.6495C15.9713 19.6266 16.4372 19.4342 16.4372 19.4342C16.4372 19.4342 15.9409 19.0851 15.6975 19.0891C15.4541 19.0931 14.8254 19.1768 14.8254 19.1768ZM16.1434 18.6094C15.7373 18.4274 15.8101 17.8925 15.8101 17.8925C15.8101 17.8925 16.4015 18.0994 16.6146 18.2041C16.8277 18.3089 17.0611 18.8318 17.0611 18.8318C17.0611 18.8318 16.5494 18.7914 16.1434 18.6094ZM13.856 16.6529C13.856 16.6529 13.857 17.3137 14.1626 17.572C14.4682 17.8302 14.8348 17.9203 14.8348 17.9203C14.8348 17.9203 14.618 17.2506 14.4568 17.1036C14.2955 16.9566 13.856 16.6529 13.856 16.6529ZM12.7355 18.1128C12.7355 18.1128 13.192 18.6411 13.6621 18.6139C14.1322 18.5868 14.5447 18.3783 14.5447 18.3783C14.5447 18.3783 13.8759 18.0081 13.6204 18.0138C13.3649 18.0196 12.7355 18.1128 12.7355 18.1128ZM12.8455 17.9926C12.5954 18.0129 12.3614 17.736 12.3614 17.736C12.3614 17.736 12.697 17.6784 12.8328 17.6721C12.9685 17.6659 13.3178 17.8556 13.3178 17.8556C13.3178 17.8556 13.0955 17.9722 12.8455 17.9926ZM13.0535 15.8545C13.0535 15.8545 12.7874 16.1074 12.8534 16.3228C12.9193 16.5381 13.0871 16.7124 13.0871 16.7124C13.0871 16.7124 13.2367 16.3737 13.2062 16.256C13.1757 16.1383 13.0535 15.8545 13.0535 15.8545ZM15.2573 18.0833C15.1025 18.0317 15.1384 17.8655 15.1384 17.8655C15.1384 17.8655 15.3647 17.9227 15.4457 17.9527C15.5268 17.9827 15.6098 18.1417 15.6098 18.1417C15.6098 18.1417 15.412 18.135 15.2573 18.0833ZM14.4537 18.7242C14.4537 18.7242 14.4178 18.8904 14.5726 18.9421C14.7273 18.9937 14.9251 19.0004 14.9251 19.0004C14.9251 19.0004 14.8421 18.8414 14.761 18.8115C14.6799 18.7815 14.4537 18.7242 14.4537 18.7242ZM17.4257 18.9421C17.271 18.8904 17.3068 18.7242 17.3068 18.7242C17.3068 18.7242 17.5331 18.7815 17.6142 18.8115C17.6953 18.8414 17.7782 19.0004 17.7782 19.0004C17.7782 19.0004 17.5805 18.9937 17.4257 18.9421ZM16.7362 19.7738C16.7362 19.7738 16.7003 19.94 16.8551 19.9917C17.0099 20.0433 17.2076 20.05 17.2076 20.05C17.2076 20.05 17.1247 19.891 17.0436 19.8611C16.9625 19.8311 16.7362 19.7738 16.7362 19.7738ZM19.7971 20.9121L19.2957 20.5409C19.608 20.3804 19.9298 20.2526 20.205 20.1567C20.1293 20.1104 20.0608 20.0756 20.0055 20.0587V19.9371C20.0055 19.9371 20.1928 19.9803 20.4733 20.068C20.7539 19.9803 20.9411 19.9371 20.9411 19.9371V20.0587C20.8858 20.0756 20.8173 20.1104 20.7416 20.1567C21.0168 20.2526 21.3386 20.3804 21.6509 20.5409L21.1495 20.9121C21.1495 20.9121 20.8054 20.5931 20.4733 20.3426C20.1413 20.5931 19.7971 20.9121 19.7971 20.9121ZM29.6619 15.3704C29.6619 15.3704 29.8786 16.0232 29.3969 16.3208C28.9153 16.6183 28.2649 16.7583 28.2649 16.7583C28.2649 16.7583 28.4457 16.0667 28.6963 15.8991C28.947 15.7315 29.6619 15.3704 29.6619 15.3704ZM28.1098 17.2542C28.1341 17.0656 28.0746 16.897 28.0746 16.897C28.0746 16.897 27.4711 17.1837 27.2595 17.3167C27.0479 17.4498 26.8953 17.9987 26.8953 17.9987C26.8953 17.9987 27.4444 17.8876 27.8509 17.6514C27.9987 17.5655 28.0686 17.4424 28.0977 17.3204C28.2191 17.3535 28.5287 17.4252 28.848 17.3979C29.2581 17.3628 29.554 16.8513 29.554 16.8513C29.554 16.8513 28.9944 16.8493 28.7732 16.8761C28.6009 16.8969 28.2545 17.1454 28.1098 17.2542ZM26.2067 18.2301C26.2067 18.2301 26.1633 18.7675 25.7257 18.8773C25.2881 18.9871 24.777 18.94 24.777 18.94C24.777 18.94 25.1184 18.4662 25.3501 18.3996C25.5817 18.3329 26.2067 18.2301 26.2067 18.2301ZM23.6126 19.6687C24.0651 19.6281 24.2128 19.1056 24.2128 19.1056C24.2128 19.1056 23.5772 19.1104 23.336 19.1402C23.0949 19.1701 22.6661 19.584 22.6661 19.584C22.6661 19.584 23.1602 19.7092 23.6126 19.6687ZM22.8093 18.7013C22.8093 18.7013 22.8706 19.3282 22.4161 19.5384C21.9616 19.7485 21.3955 19.7921 21.3955 19.7921C21.3955 19.7921 21.6716 19.1814 21.9104 19.0604C22.1493 18.9393 22.8093 18.7013 22.8093 18.7013ZM22.4914 20.3021C22.9934 20.3931 23.3896 19.8716 23.3896 19.8716C23.3896 19.8716 22.7082 19.6873 22.4368 19.6478C22.1655 19.6083 21.5185 19.9284 21.5185 19.9284C21.5185 19.9284 21.9894 20.2112 22.4914 20.3021ZM26.1213 19.1768C26.1213 19.1768 25.8834 19.6723 25.4294 19.6495C24.9754 19.6266 24.5095 19.4342 24.5095 19.4342C24.5095 19.4342 25.0058 19.0851 25.2492 19.0891C25.4927 19.0931 26.1213 19.1768 26.1213 19.1768ZM24.8032 18.6094C25.2093 18.4274 25.1365 17.8925 25.1365 17.8925C25.1365 17.8925 24.5451 18.0994 24.332 18.2041C24.1189 18.3089 23.8855 18.8318 23.8855 18.8318C23.8855 18.8318 24.3972 18.7914 24.8032 18.6094ZM27.0907 16.6529C27.0907 16.6529 27.0897 17.3137 26.7841 17.572C26.4786 17.8302 26.1119 17.9203 26.1119 17.9203C26.1119 17.9203 26.3287 17.2506 26.49 17.1036C26.6513 16.9566 27.0907 16.6529 27.0907 16.6529ZM28.2113 18.1128C28.2113 18.1128 27.7548 18.6411 27.2847 18.6139C26.8146 18.5868 26.402 18.3783 26.402 18.3783C26.402 18.3783 27.0709 18.0081 27.3263 18.0138C27.5818 18.0196 28.2113 18.1128 28.2113 18.1128ZM28.1013 17.9926C28.3513 18.0129 28.5854 17.736 28.5854 17.736C28.5854 17.736 28.2497 17.6784 28.114 17.6721C27.9783 17.6659 27.629 17.8556 27.629 17.8556C27.629 17.8556 27.8513 17.9722 28.1013 17.9926ZM27.8931 15.8545C27.8931 15.8545 28.1592 16.1074 28.0932 16.3228C28.0273 16.5381 27.8595 16.7124 27.8595 16.7124C27.8595 16.7124 27.7099 16.3737 27.7404 16.256C27.7709 16.1383 27.8931 15.8545 27.8931 15.8545ZM25.6893 18.0833C25.8441 18.0317 25.8082 17.8655 25.8082 17.8655C25.8082 17.8655 25.5819 17.9227 25.5009 17.9527C25.4198 17.9827 25.3368 18.1417 25.3368 18.1417C25.3368 18.1417 25.5346 18.135 25.6893 18.0833ZM26.4931 18.7242C26.4931 18.7242 26.5289 18.8904 26.3742 18.9421C26.2194 18.9937 26.0217 19.0004 26.0217 19.0004C26.0217 19.0004 26.1046 18.8414 26.1857 18.8115C26.2668 18.7815 26.4931 18.7242 26.4931 18.7242ZM23.5209 18.9421C23.6757 18.8904 23.6398 18.7242 23.6398 18.7242C23.6398 18.7242 23.4135 18.7815 23.3324 18.8115C23.2513 18.8414 23.1684 19.0004 23.1684 19.0004C23.1684 19.0004 23.3661 18.9937 23.5209 18.9421ZM24.2104 19.7738C24.2104 19.7738 24.2463 19.94 24.0915 19.9917C23.9367 20.0433 23.739 20.05 23.739 20.05C23.739 20.05 23.8219 19.891 23.903 19.8611C23.9841 19.8311 24.2104 19.7738 24.2104 19.7738Z" fill="#006B49"/>
<path fill-rule="evenodd" clip-rule="evenodd" d="M34.2818 5.01703C34.2818 5.01703 34.6712 5.46188 34.2818 5.46188C33.8923 5.46188 32.9021 5.94323 32.9021 5.94323C32.9021 5.94323 32.431 6.56814 31.8605 6.70952C31.29 6.85091 31.0976 7.37594 30.2624 7.59477C29.4273 7.81359 29.342 7.87334 29.342 8.09481C29.342 8.31628 29.4844 8.69135 28.9141 8.69135C28.3438 8.69135 27.9407 7.98161 27.6321 8.69135C27.3235 9.4011 27.0109 9.60916 27.4384 10.0433C27.8658 10.4775 28.4322 10.8933 28.6731 11.144C28.9141 11.3948 30.5212 12.1286 29.342 12.1286C28.1628 12.1286 28.7556 11.4644 27.8478 11.707C26.94 11.9496 27.4612 12.3076 26.7674 12.1286C26.0737 11.9496 25.6111 11.7864 25.3959 11.868C25.1806 11.9496 24.8347 11.4144 24.8347 12.1286C24.8347 12.8428 25.4822 12.5533 24.094 13.3422C22.7058 14.1311 22.9815 13.9131 22.3443 13.9131C21.7071 13.9131 21.4832 14.2702 21.0584 14.2702C20.6335 14.2702 20.6853 14.2702 20.2068 14.2702C19.7283 14.2702 20.241 13.8185 19.425 14.2702C18.609 14.722 18.3167 14.812 18.3167 14.9856C18.3167 15.1591 18.3167 15.6194 18.3167 15.6194C18.3167 15.6194 17.569 15.9996 17.569 15.6194C17.569 15.2392 17.3386 15.1419 17.0286 14.9856C16.7186 14.8292 16.0992 14.9418 15.4377 14.9856C14.7762 15.0293 14.0283 14.3925 13.4541 14.3925C12.8798 14.3925 12.773 13.9131 12.6159 13.9131C12.4588 13.9131 12.7798 13.5035 12.1111 13.1359C11.4425 12.7683 11.2084 12.7226 11.2084 12.1286C11.2084 11.5346 10.9014 11.3722 10.9014 11.0112C10.9014 10.6503 11.2286 11.144 11.9222 11.144C12.6159 11.144 12.6614 10.7621 13.4541 10.4027C14.2467 10.0433 14.5158 9.84668 15.1767 10.0433C15.8377 10.24 16.4882 10.9728 17.0286 10.2695C17.569 9.5661 17.569 8.76177 17.569 8.35568C17.569 7.94959 17.2494 7.83393 18.1122 8.09481C18.9749 8.35568 19.4769 8.35568 20.9106 8.35568C22.3443 8.35568 24.0586 8.77244 24.5869 8.35568C25.1152 7.93892 25.6799 7.59477 27.0506 7.59477C28.4213 7.59477 28.8691 6.99594 29.7908 6.70952C30.7125 6.42311 29.3533 7.02859 31.4208 6.24524C33.4883 5.46188 34.2818 5.01703 34.2818 5.01703Z" fill="#F57A01"/>
</g>
</g>
</g>
<defs>
<filter id="filter0_dd_5_10468" x="0" y="0" width="42" height="30" filterUnits="userSpaceOnUse" color-interpolation-filters="sRGB">
<feFlood flood-opacity="0" result="BackgroundImageFix"/>
<feColorMatrix in="SourceAlpha" type="matrix" values="0 0 0 0 0 0 0 0 0 0 0 0 0 0 0 0 0 0 127 0" result="hardAlpha"/>
<feOffset dy="1"/>
<feGaussianBlur stdDeviation="1"/>
<feColorMatrix type="matrix" values="0 0 0 0 0.0627451 0 0 0 0 0.0941176 0 0 0 0 0.156863 0 0 0 0.06 0"/>
<feBlend mode="normal" in2="BackgroundImageFix" result="effect1_dropShadow_5_10468"/>
<feColorMatrix in="SourceAlpha" type="matrix" values="0 0 0 0 0 0 0 0 0 0 0 0 0 0 0 0 0 0 127 0" result="hardAlpha"/>
<feOffset dy="1"/>
<feGaussianBlur stdDeviation="1.5"/>
<feColorMatrix type="matrix" values="0 0 0 0 0.0627451 0 0 0 0 0.0941176 0 0 0 0 0.156863 0 0 0 0.1 0"/>
<feBlend mode="normal" in2="effect1_dropShadow_5_10468" result="effect2_dropShadow_5_10468"/>
<feBlend mode="normal" in="SourceGraphic" in2="effect2_dropShadow_5_10468" result="shape"/>
</filter>
</defs>
</svg>
