<svg width="42" height="30" viewBox="0 0 42 30" fill="none" xmlns="http://www.w3.org/2000/svg">
<g filter="url(#filter0_dd_5_10313)">
<mask id="mask0_5_10313" style="mask-type:alpha" maskUnits="userSpaceOnUse" x="3" y="2" width="36" height="24">
<rect x="3" y="2" width="36" height="24" fill="white"/>
</mask>
<g mask="url(#mask0_5_10313)">
<path fill-rule="evenodd" clip-rule="evenodd" d="M3 2V26H39V2H3Z" fill="#C51918"/>
<mask id="mask1_5_10313" style="mask-type:alpha" maskUnits="userSpaceOnUse" x="3" y="2" width="36" height="24">
<path fill-rule="evenodd" clip-rule="evenodd" d="M3 2V26H39V2H3Z" fill="white"/>
</mask>
<g mask="url(#mask1_5_10313)">
<rect x="3" y="2" width="15.75" height="10" fill="#4257BF"/>
<rect x="23.25" y="16" width="15.75" height="10" fill="#4257BF"/>
<path fill-rule="evenodd" clip-rule="evenodd" d="M17.625 2H24.375V11H39V17H24.375V26H17.625V17H3V11H17.625V2Z" fill="#F7FCFF"/>
<path fill-rule="evenodd" clip-rule="evenodd" d="M18.5985 12.5246C18.556 12.3495 18.5081 12.1333 18.5081 12.1333C18.4016 12.3638 18.368 12.5735 18.4108 12.7609C18.3654 12.8201 18.3244 12.8754 18.2877 12.9271C18.1731 12.7836 18.0301 12.5152 18.0301 12.5152C18.0351 12.5933 18.0328 12.6731 18.0306 12.7505C18.0254 12.9324 18.0207 13.1016 18.1108 13.2075L18.1097 13.2096C18.0917 13.2447 18.0747 13.2798 18.0586 13.3147C17.9344 13.1973 17.7283 12.9857 17.7283 12.9857C17.7444 13.2395 17.8185 13.4395 17.9532 13.5823C17.9288 13.6567 17.9087 13.7307 17.8928 13.8042C17.7886 13.7021 17.6882 13.6012 17.6882 13.6012C17.7029 13.8328 17.7438 13.9859 17.85 14.1144C17.8478 14.151 17.8467 14.1875 17.8467 14.2238C17.7367 14.1162 17.6248 14.0038 17.6248 14.0038C17.6403 14.2482 17.7409 14.4091 17.8733 14.543C17.8864 14.6204 17.9044 14.6969 17.927 14.7726L17.9397 14.8145C17.7868 14.7434 17.6187 14.6622 17.6187 14.6622C17.7206 14.8734 17.8647 14.9926 18.0275 15.0772C18.0629 15.1752 18.1004 15.2699 18.1398 15.361C17.9598 15.312 17.6898 15.2316 17.6898 15.2316C17.8522 15.4519 18.0453 15.5447 18.2516 15.6005C18.294 15.6845 18.338 15.7647 18.3836 15.8408C18.2124 15.7928 18.0098 15.7325 18.0098 15.7325C18.1674 15.9464 18.3541 16.0401 18.5536 16.0965C18.6856 16.2744 18.827 16.4203 18.9746 16.5291C18.8048 16.592 18.5875 16.6681 18.5875 16.6681C18.8284 16.7326 19.0199 16.714 19.1937 16.6609L19.2056 16.6664C19.2769 16.6988 19.3566 16.7293 19.4465 16.7591C19.3066 16.8098 19.1722 16.8568 19.1722 16.8568C19.4086 16.9201 19.5974 16.9034 19.7685 16.8526L19.7767 16.8547C19.8571 16.8755 19.9389 16.8954 20.0467 16.9207C19.9754 16.904 20.2386 16.9655 20.292 16.9784C20.4631 17.0197 20.5606 17.0487 20.6074 17.0736C20.6117 17.076 20.6149 17.0779 20.6169 17.0791L20.6191 17.0804C20.6195 17.0806 20.6196 17.0806 20.6194 17.0803L20.7503 16.9901C20.7351 16.9703 20.714 16.9546 20.6868 16.94C20.6226 16.9057 20.5184 16.8747 20.3319 16.8297C20.2789 16.8169 20.024 16.7573 20.0817 16.7709C19.977 16.7463 19.8973 16.7269 19.8193 16.7067L19.7588 16.6908C19.7731 16.5306 19.7458 16.3635 19.6192 16.1745C19.6192 16.1745 19.5758 16.4679 19.5458 16.6292C19.442 16.5963 19.3526 16.5631 19.2755 16.528C19.2531 16.5179 19.2308 16.5067 19.2085 16.4945C19.193 16.3305 19.1347 16.1662 18.969 15.9954C18.969 15.9954 18.9779 16.1776 18.9827 16.335C18.8726 16.2394 18.7658 16.1197 18.6643 15.9787L18.7601 16.0258C18.7606 15.8248 18.7186 15.6254 18.5158 15.4163C18.5158 15.4163 18.5255 15.6135 18.5301 15.7747C18.4704 15.6758 18.4132 15.5691 18.3588 15.4553C18.4093 15.2945 18.4192 15.1204 18.3279 14.9065C18.3279 14.9065 18.282 15.0358 18.2335 15.1672C18.2192 15.1312 18.2052 15.0947 18.1915 15.0576C18.2971 14.8895 18.3643 14.703 18.3087 14.4432C18.3087 14.4432 18.1907 14.6446 18.1008 14.7903C18.0947 14.7706 18.0886 14.7507 18.0826 14.7307C18.0632 14.6658 18.0475 14.6002 18.0357 14.5339C18.1871 14.4119 18.3097 14.2601 18.3548 14.0138C18.3548 14.0138 18.1513 14.1795 18.0096 14.2895C18.0076 14.2337 18.0082 14.1776 18.0116 14.121C18.175 14.0254 18.3164 13.8963 18.4048 13.671C18.4048 13.671 18.2017 13.786 18.0437 13.8715C18.0544 13.8168 18.0677 13.7618 18.0835 13.7064C18.2781 13.6065 18.4497 13.4745 18.5513 13.2156C18.5513 13.2156 18.3467 13.3315 18.1884 13.4171C18.2089 13.3705 18.2311 13.3237 18.2552 13.2767C18.2836 13.2213 18.324 13.1551 18.3763 13.0782C18.5501 13.0224 18.7132 12.9297 18.8557 12.7436C18.8557 12.7436 18.711 12.7842 18.5625 12.8241C18.6458 12.7165 18.7436 12.596 18.8558 12.4628L18.7294 12.3671C18.6834 12.4216 18.6398 12.4742 18.5985 12.5246Z" fill="#5AB92D"/>
<path fill-rule="evenodd" clip-rule="evenodd" d="M23.1518 12.5246C23.1942 12.3495 23.2421 12.1333 23.2421 12.1333C23.3487 12.3638 23.3822 12.5735 23.3395 12.7609C23.3848 12.8201 23.4258 12.8754 23.4626 12.9271C23.5772 12.7836 23.7202 12.5152 23.7202 12.5152C23.7152 12.5933 23.7174 12.6731 23.7196 12.7505C23.7248 12.9324 23.7296 13.1016 23.6395 13.2075L23.6406 13.2096C23.6585 13.2447 23.6756 13.2798 23.6917 13.3147C23.8159 13.1973 24.0219 12.9857 24.0219 12.9857C24.0058 13.2395 23.9317 13.4395 23.7971 13.5823C23.8214 13.6567 23.8416 13.7307 23.8575 13.8042C23.9616 13.7021 24.062 13.6012 24.062 13.6012C24.0473 13.8328 24.0064 13.9859 23.9003 14.1144C23.9024 14.151 23.9035 14.1875 23.9036 14.2238C24.0136 14.1162 24.1255 14.0038 24.1255 14.0038C24.1099 14.2482 24.0094 14.4091 23.877 14.543C23.8638 14.6204 23.8459 14.6969 23.8232 14.7726L23.8105 14.8145C23.9635 14.7434 24.1316 14.6622 24.1316 14.6622C24.0296 14.8734 23.8856 14.9926 23.7228 15.0772C23.6873 15.1752 23.6498 15.2699 23.6105 15.361C23.7904 15.312 24.0605 15.2316 24.0605 15.2316C23.8981 15.4519 23.705 15.5447 23.4987 15.6005C23.4563 15.6845 23.4122 15.7647 23.3667 15.8408C23.5379 15.7928 23.7405 15.7325 23.7405 15.7325C23.5828 15.9464 23.3962 16.0401 23.1966 16.0965C23.0646 16.2744 22.9232 16.4203 22.7757 16.5291C22.9454 16.592 23.1628 16.6681 23.1628 16.6681C22.9218 16.7326 22.7303 16.714 22.5566 16.6609L22.5447 16.6664C22.4734 16.6988 22.3936 16.7293 22.3038 16.7591C22.4437 16.8098 22.578 16.8568 22.578 16.8568C22.3416 16.9201 22.1529 16.9034 21.9817 16.8526L21.9735 16.8547C21.8931 16.8755 21.8113 16.8954 21.7035 16.9207C21.7748 16.904 21.5116 16.9655 21.4582 16.9784C21.2871 17.0197 21.1897 17.0487 21.1429 17.0736C21.1385 17.076 21.1353 17.0779 21.1333 17.0791C21.1313 17.0804 21.1304 17.0808 21.1309 17.0803L21 16.9901C21.0152 16.9703 21.0362 16.9546 21.0635 16.94C21.1277 16.9057 21.2318 16.8747 21.4183 16.8297C21.4713 16.8169 21.7262 16.7573 21.6685 16.7709C21.7733 16.7463 21.853 16.7269 21.931 16.7067L21.9914 16.6908C21.9772 16.5306 22.0044 16.3635 22.131 16.1745C22.131 16.1745 22.1745 16.4679 22.2045 16.6292C22.3082 16.5963 22.3976 16.5631 22.4748 16.528C22.4971 16.5179 22.5195 16.5067 22.5417 16.4945C22.5572 16.3305 22.6156 16.1662 22.7813 15.9954C22.7813 15.9954 22.7723 16.1776 22.7675 16.335C22.8776 16.2394 22.9845 16.1197 23.086 15.9787L22.9902 16.0258C22.9896 15.8248 23.0316 15.6254 23.2345 15.4163C23.2345 15.4163 23.2248 15.6135 23.2201 15.7747C23.2798 15.6758 23.3371 15.5691 23.3914 15.4553C23.341 15.2945 23.331 15.1204 23.4223 14.9065C23.4223 14.9065 23.4682 15.0358 23.5168 15.1672C23.531 15.1312 23.545 15.0947 23.5587 15.0576C23.4531 14.8895 23.386 14.703 23.4416 14.4432C23.4416 14.4432 23.5595 14.6446 23.6494 14.7903C23.6555 14.7706 23.6616 14.7507 23.6676 14.7307C23.687 14.6658 23.7027 14.6002 23.7146 14.5339C23.5632 14.4119 23.4405 14.2601 23.3955 14.0138C23.3955 14.0138 23.5989 14.1795 23.7407 14.2895C23.7427 14.2337 23.742 14.1776 23.7386 14.121C23.5753 14.0254 23.4339 13.8963 23.3455 13.671C23.3455 13.671 23.5485 13.786 23.7066 13.8715C23.6958 13.8168 23.6825 13.7618 23.6667 13.7064C23.4722 13.6065 23.3006 13.4745 23.199 13.2156C23.199 13.2156 23.4035 13.3315 23.5619 13.4171C23.5414 13.3705 23.5191 13.3237 23.495 13.2767C23.4667 13.2213 23.4263 13.1551 23.374 13.0782C23.2001 13.0224 23.037 12.9297 22.8946 12.7436C22.8946 12.7436 23.0392 12.7842 23.1877 12.8241C23.1044 12.7165 23.0067 12.596 22.8945 12.4628L23.0209 12.3671C23.0668 12.4216 23.1105 12.4742 23.1518 12.5246Z" fill="#5AB92D"/>
<path d="M17.9078 11.3158C18.3574 11.0347 19.1817 10.7921 19.6058 10.7921C19.6079 10.7921 19.6124 10.7912 19.6244 10.7869C19.6596 10.7739 19.8919 10.646 19.9064 10.6386C20.2062 10.4861 20.5197 10.4059 20.9469 10.4059V11.0725C20.6402 11.0725 20.4398 11.1238 20.2389 11.2261C20.2738 11.2083 19.9741 11.3733 19.8786 11.4084C19.7897 11.4411 19.7004 11.4588 19.6058 11.4588C19.3217 11.4588 18.6314 11.662 18.2947 11.8724C18.1737 11.948 18.1849 11.9249 18.1886 11.97C18.2022 12.1339 18.1883 12.2342 18.0748 12.3621C18.0601 12.3788 18.0366 12.4705 18.0346 12.6313L17.3315 12.6234C17.3348 12.3609 17.3796 12.1538 17.486 11.9981C17.4705 11.7289 17.577 11.5225 17.9078 11.3158Z" fill="#003994"/>
<path d="M18.2837 11.5653L18.2061 11.4541C18.567 11.2277 18.9035 11.1135 19.2158 11.1135C19.3193 11.1135 19.4373 11.089 19.5745 11.0419C19.6664 11.0104 19.7605 10.9714 19.887 10.9142C20.345 10.7073 20.358 10.702 20.479 10.702H20.8937V10.8353H20.479C20.3915 10.8353 20.3631 10.8467 19.9475 11.0346C19.8173 11.0934 19.7194 11.134 19.6223 11.1673C19.4711 11.2192 19.338 11.2468 19.2158 11.2468C18.934 11.2468 18.6232 11.3523 18.2837 11.5653Z" fill="#EBCA5E"/>
<path d="M23.8105 11.3158C23.3609 11.0347 22.5366 10.7921 22.1125 10.7921C22.1104 10.7921 22.1058 10.7912 22.0939 10.7869C22.0587 10.7739 21.8264 10.646 21.8118 10.6386C21.5121 10.4861 21.1985 10.4059 20.7713 10.4059V11.0725C21.078 11.0725 21.2784 11.1238 21.4794 11.2261C21.4444 11.2083 21.7442 11.3733 21.8397 11.4084C21.9286 11.4411 22.0179 11.4588 22.1125 11.4588C22.3966 11.4588 23.0868 11.662 23.4235 11.8724C23.5445 11.948 23.5333 11.9249 23.5296 11.97C23.5161 12.1339 23.53 12.2342 23.6434 12.3621C23.6582 12.3788 23.6816 12.4705 23.6836 12.6313L24.3867 12.6234C24.3835 12.3609 24.3386 12.1538 24.2323 11.9981C24.2477 11.7289 24.1413 11.5225 23.8105 11.3158Z" fill="#003994"/>
<path d="M23.3782 11.5653L23.4558 11.4541C23.0949 11.2277 22.7584 11.1135 22.446 11.1135C22.3426 11.1135 22.2246 11.089 22.0874 11.0419C21.9955 11.0104 21.9013 10.9714 21.7749 10.9142C21.3169 10.7073 21.3038 10.702 21.1828 10.702H20.7682V10.8353H21.1828C21.2704 10.8353 21.2987 10.8467 21.7144 11.0346C21.8446 11.0934 21.9424 11.134 22.0395 11.1673C22.1908 11.2192 22.3239 11.2468 22.446 11.2468C22.7279 11.2468 23.0386 11.3523 23.3782 11.5653Z" fill="#EBCA5E"/>
<path d="M18.5495 12.0193L18.9164 12.3739V13.8467H19.2868V13.9404L19.8289 14.1721C19.8289 14.1721 19.9108 13.1978 19.6559 12.9411C19.4009 12.6844 19.8289 12.6212 19.8289 12.6212L20.4797 13.2004V12.0193H18.5495Z" fill="#003994"/>
<path d="M22.9547 12.0193L22.5877 12.3739V13.8467H22.2174V13.9404L21.6752 14.1721C21.6752 14.1721 21.5933 13.1978 21.8483 12.9411C22.1032 12.6844 21.6752 12.6212 21.6752 12.6212L21.0244 13.2004V12.0193H22.9547Z" fill="#D62818"/>
<path d="M19.7362 12.5966L19.6809 12.657L20.7629 13.5461L20.821 13.5434L21.7158 12.6544L21.6548 12.5992L20.7877 13.4606L19.7362 12.5966Z" fill="#FFC300"/>
<path d="M19.5827 12.9699L19.5122 13.0304L20.8932 13.9194L20.9675 13.9168L22.1096 13.0278L22.0317 12.9726L20.925 13.834L19.5827 12.9699Z" fill="#FFC300"/>
<path d="M18.9485 14.4219H19.4235L19.7475 14.5099C19.7475 14.5099 19.8517 15.1709 20.3724 15.1709L20.4577 16.0172L20.0542 15.8235C20.0542 15.8235 19.7919 15.9264 19.7475 15.9264C19.7031 15.9264 19.3291 16.1129 19.3291 15.9264C19.3291 15.74 18.9485 15.4383 18.9485 15.4383V14.4219Z" fill="#D62818"/>
<path d="M22.7078 14.4219H22.2328L21.9087 14.5099C21.9087 14.5099 21.8045 15.1709 21.2838 15.1709L21.1985 16.0172L21.602 15.8235C21.602 15.8235 21.8644 15.9264 21.9087 15.9264C21.9531 15.9264 22.3271 16.1129 22.3271 15.9264C22.3271 15.74 22.7078 15.4383 22.7078 15.4383V14.4219Z" fill="#003994"/>
<path d="M21.6904 14.5019L22.2529 14.5021C22.2527 14.8761 22.1043 15.1792 21.8117 15.3843L21.4773 14.9554C21.6207 14.8549 21.6903 14.7128 21.6904 14.5019Z" fill="#D62818"/>
<path d="M20.2168 13.4733V14.1746H20.8708C20.8708 14.1746 20.8093 14.7005 20.8093 15.0322C20.8093 15.364 20.8708 15.7945 20.8708 15.7945C20.8708 15.7945 21.0308 15.7234 21.0308 15.2748C21.0308 14.8262 21.0308 14.126 21.0308 14.126L21.5476 14.1746L21.493 13.5422H21.2751C21.2751 13.5422 21.6101 13.9363 21.2751 13.9363C20.94 13.9363 20.5549 14.0133 20.4819 14.0133C20.4088 14.0133 20.2168 13.4733 20.2168 13.4733Z" fill="#D62818"/>
<path d="M20.7856 14.3209C20.7856 14.3209 20.4182 14.5132 20.4182 14.8261C20.4182 15.1391 20.6019 15.4959 20.6019 15.4959C20.6019 15.4959 20.5148 14.7911 20.6502 14.6037C20.7856 14.4163 20.7856 14.3209 20.7856 14.3209Z" fill="#003994"/>
<path d="M20.1876 14.5525C20.1876 14.5525 20.1668 14.779 20.3178 14.779C20.4687 14.779 20.1876 14.5525 20.1876 14.5525Z" fill="#003994"/>
<path d="M21.4809 13.944L21.5387 14.1224L20.5773 14.4022L20.3618 13.6065L20.5525 13.5601L20.7167 14.1664L21.4809 13.944Z" fill="#373737"/>
<path fill-rule="evenodd" clip-rule="evenodd" d="M18.7901 17.4086L18.7058 17.4723C18.6775 17.4387 18.6534 17.4049 18.6332 17.3711C18.5486 17.3451 18.4686 17.3105 18.4028 17.2693C18.3114 17.2122 18.2172 17.2122 18.0979 17.2747L17.9619 17.0413C18.1692 16.9327 18.3752 16.9327 18.5576 17.0467C18.5598 17.0481 18.562 17.0494 18.5643 17.0508C18.5896 16.919 18.6867 16.8018 18.8539 16.7172C19.1407 16.572 20.3952 16.4192 20.7764 16.4192V16.8459C20.4671 16.8459 19.2662 16.9922 19.0659 17.0936C19.06 17.0966 19.0545 17.0993 19.0495 17.1018C19.0226 17.1151 19.0084 17.1222 19.0061 17.132C19.0043 17.14 19.0104 17.1498 19.0239 17.1664C19.0347 17.1656 19.042 17.1638 19.045 17.161L19.2445 17.3489C19.1618 17.4279 18.9784 17.4411 18.7901 17.4086ZM17.4463 17.4161C17.4463 17.4161 17.8621 17.7409 18.1623 17.6622C18.4625 17.5834 18.5555 17.4948 18.5555 17.4948C18.5555 17.4948 18.2558 17.4593 17.9377 17.4161C17.6195 17.373 17.4463 17.4161 17.4463 17.4161Z" fill="#D62818"/>
<path fill-rule="evenodd" clip-rule="evenodd" d="M18.8229 17.1794L18.8735 17.1154C18.725 17.0098 18.7636 16.9508 19.0481 16.894C19.0729 16.8891 19.0981 16.8842 19.1235 16.8793L19.1235 16.8794C19.4097 16.8252 19.7248 16.7799 20.0363 16.7488C20.3239 16.7202 20.6092 16.7037 20.8653 16.7037C20.8654 16.7037 20.8654 16.7037 20.8654 16.7037V16.6237C20.8654 16.6237 20.8654 16.6237 20.8653 16.6237C20.6052 16.6237 20.3163 16.6404 20.0245 16.6696C19.6812 16.7038 19.335 16.755 19.0307 16.8157C18.6877 16.8842 18.5988 17.0201 18.8229 17.1794ZM20.0245 16.6696C19.7113 16.7009 19.3948 16.7464 19.1069 16.8009L19.1235 16.8793C19.4071 16.8254 19.723 16.78 20.0363 16.7488C20.3242 16.7202 20.6091 16.7037 20.8653 16.7037V16.6237C20.6053 16.6237 20.3159 16.6405 20.0245 16.6696Z" fill="#EBCA5E"/>
<path fill-rule="evenodd" clip-rule="evenodd" d="M22.6469 17.4086L22.7312 17.4723C22.7595 17.4387 22.7836 17.4049 22.8038 17.3711C22.8884 17.3451 22.9684 17.3105 23.0342 17.2693C23.1256 17.2122 23.2198 17.2122 23.3391 17.2747L23.4751 17.0413C23.2678 16.9327 23.0618 16.9327 22.8794 17.0467C22.8772 17.0481 22.875 17.0494 22.8727 17.0508C22.8474 16.919 22.7503 16.8018 22.5831 16.7172C22.2963 16.572 21.0418 16.4192 20.6606 16.4192V16.8459C20.9699 16.8459 22.1708 16.9922 22.3711 17.0936C22.377 17.0966 22.3825 17.0993 22.3875 17.1018C22.4144 17.1151 22.4286 17.1222 22.4309 17.132C22.4327 17.14 22.4266 17.1498 22.4131 17.1664C22.4023 17.1656 22.3949 17.1638 22.392 17.161L22.1925 17.3489C22.2752 17.4279 22.4586 17.4411 22.6469 17.4086ZM23.9907 17.4161C23.9907 17.4161 23.5749 17.7409 23.2747 17.6622C22.9745 17.5834 22.8815 17.4948 22.8815 17.4948C22.8815 17.4948 23.1812 17.4593 23.4993 17.4161C23.8175 17.373 23.9907 17.4161 23.9907 17.4161Z" fill="#D62818"/>
<path fill-rule="evenodd" clip-rule="evenodd" d="M22.6141 17.1794L22.5635 17.1154C22.712 17.0098 22.6734 16.9508 22.3889 16.894C22.3641 16.8891 22.339 16.8842 22.3136 16.8794L22.3136 16.8794C22.0493 16.8293 21.7604 16.7869 21.4724 16.7562C21.1608 16.7231 20.8491 16.7037 20.5717 16.7037C20.5717 16.7037 20.5717 16.7037 20.5717 16.7037V16.6237C20.5717 16.6237 20.5717 16.6237 20.5717 16.6237C20.8523 16.6237 21.1663 16.6432 21.4814 16.6767C21.8019 16.7107 22.1223 16.7591 22.4063 16.8157C22.7493 16.8842 22.8382 17.0201 22.6141 17.1794ZM21.4814 16.6767C21.772 16.7076 22.0634 16.7504 22.3302 16.8009L22.3136 16.8794C22.0516 16.8296 21.762 16.787 21.4724 16.7562C21.1602 16.723 20.8491 16.7037 20.5717 16.7037V16.6237C20.8522 16.6237 21.1669 16.6433 21.4814 16.6767Z" fill="#EBCA5E"/>
<path d="M20.286 17.5105L20.0674 17.1685C20.2665 17.054 20.5221 16.9995 20.8325 16.9995C21.1444 16.9995 21.3971 17.0545 21.5892 17.171L21.3618 17.508C21.2461 17.4378 21.0702 17.3995 20.8325 17.3995C20.5935 17.3995 20.4119 17.4382 20.286 17.5105Z" fill="#D62818"/>
</g>
</g>
</g>
<defs>
<filter id="filter0_dd_5_10313" x="0" y="0" width="42" height="30" filterUnits="userSpaceOnUse" color-interpolation-filters="sRGB">
<feFlood flood-opacity="0" result="BackgroundImageFix"/>
<feColorMatrix in="SourceAlpha" type="matrix" values="0 0 0 0 0 0 0 0 0 0 0 0 0 0 0 0 0 0 127 0" result="hardAlpha"/>
<feOffset dy="1"/>
<feGaussianBlur stdDeviation="1"/>
<feColorMatrix type="matrix" values="0 0 0 0 0.0627451 0 0 0 0 0.0941176 0 0 0 0 0.156863 0 0 0 0.06 0"/>
<feBlend mode="normal" in2="BackgroundImageFix" result="effect1_dropShadow_5_10313"/>
<feColorMatrix in="SourceAlpha" type="matrix" values="0 0 0 0 0 0 0 0 0 0 0 0 0 0 0 0 0 0 127 0" result="hardAlpha"/>
<feOffset dy="1"/>
<feGaussianBlur stdDeviation="1.5"/>
<feColorMatrix type="matrix" values="0 0 0 0 0.0627451 0 0 0 0 0.0941176 0 0 0 0 0.156863 0 0 0 0.1 0"/>
<feBlend mode="normal" in2="effect1_dropShadow_5_10313" result="effect2_dropShadow_5_10313"/>
<feBlend mode="normal" in="SourceGraphic" in2="effect2_dropShadow_5_10313" result="shape"/>
</filter>
</defs>
</svg>
