<svg width="42" height="30" viewBox="0 0 42 30" fill="none" xmlns="http://www.w3.org/2000/svg">
<g filter="url(#filter0_dd_5_9001)">
<mask id="mask0_5_9001" style="mask-type:alpha" maskUnits="userSpaceOnUse" x="3" y="2" width="36" height="24">
<rect x="3" y="2" width="36" height="24" fill="white"/>
</mask>
<g mask="url(#mask0_5_9001)">
<path fill-rule="evenodd" clip-rule="evenodd" d="M3 2V26H39V2H3Z" fill="#F7FCFF"/>
<mask id="mask1_5_9001" style="mask-type:alpha" maskUnits="userSpaceOnUse" x="3" y="2" width="36" height="24">
<path fill-rule="evenodd" clip-rule="evenodd" d="M3 2V26H39V2H3Z" fill="white"/>
</mask>
<g mask="url(#mask1_5_9001)">
<path fill-rule="evenodd" clip-rule="evenodd" d="M3 2V10H39V2H3Z" fill="#5EAA22"/>
<path fill-rule="evenodd" clip-rule="evenodd" d="M3 18V26H39V18H3Z" fill="#E31D1C"/>
<path fill-rule="evenodd" clip-rule="evenodd" d="M8.17574 18.3919V19.0258H5.55363V18.3919H8.17574ZM3.63641 19.9841H3.40357V19.7309H3.9151V20.618H4.56706V20.6248H5.19869V18.7832H4.79512V19.9909H4.73277V18.6872H4.3292V19.9841H4.31867V19.7309V18.6872H3.9151V19.097H3V20.618H3.20178H3.63641V19.9841ZM5.32484 20.3395H5.72841V19.711H6.17841V20.6247H7.4445V19.0781H6.79523V19.712H7.04093V19.9908H6.58198V19.0771H5.32484V20.3395ZM7.9033 19.9841H8.13614V20.618H7.70151H7.49973V19.097H8.41482V18.6872H8.81839V19.7309V19.9841H8.82893V18.6872H9.2325V19.9909H9.29484V18.7832H9.69841V20.6248H9.06679V20.618H8.41482V19.7309H7.9033V19.9841ZM12.6755 18.3919V19.0258H10.0534V18.3919H12.6755ZM9.82457 20.3395H10.2281V19.711H10.6781V20.6247H11.9442V19.0781H11.295V19.712H11.5407V19.9908H11.0817V19.0771H9.82457V20.3395ZM12.4834 19.9841H12.7162V20.618H12.2816H12.0798V19.097H12.9949V18.6872H13.3985V19.7309V19.9841H13.409V18.6872H13.8126V19.9909H13.8749V18.7832H14.2785V20.6248H13.6469V20.618H12.9949V19.7309H12.4834V19.9841ZM17.2555 18.3919V19.0258H14.6334V18.3919H17.2555ZM14.4046 20.3395H14.8082V19.711H15.2582V20.6247H16.5243V19.0781H15.875V19.712H16.1207V19.9908H15.6618V19.0771H14.4046V20.3395ZM16.9831 19.9841H17.2159V20.618H16.7813H16.5795V19.097H17.4946V18.6872H17.8982V19.7309V19.9841H17.9087V18.6872H18.3123V19.9909H18.3746V18.7832H18.7782V20.6248H18.1466V20.618H17.4946V19.7309H16.9831V19.9841ZM21.7553 18.3919V19.0258H19.1331V18.3919H21.7553ZM18.9044 20.3395H19.3079V19.711H19.7579V20.6247H21.024V19.0781H20.3747V19.712H20.6204V19.9908H20.1615V19.0771H18.9044V20.3395ZM21.4828 19.9841H21.7157V20.618H21.281H21.0792V19.097H21.9943V18.6872H22.3979V19.7309V19.9841H22.4084V18.6872H22.812V19.9909H22.8744V18.7832H23.2779V20.6248H22.6463V20.618H21.9943V19.7309H21.4828V19.9841ZM26.255 18.3919V19.0258H23.6329V18.3919H26.255ZM23.4041 20.3395H23.8077V19.711H24.2577V20.6247H25.5237V19.0781H24.8745V19.712H25.1202V19.9908H24.6612V19.0771H23.4041V20.3395ZM26.0629 19.9841H26.2957V20.618H25.8611H25.6593V19.097H26.5744V18.6872H26.978V19.7309V19.9841H26.9885V18.6872H27.3921V19.9909H27.4544V18.7832H27.858V20.6248H27.2264V20.618H26.5744V19.7309H26.0629V19.9841ZM30.8352 18.3919V19.0258H28.2131V18.3919H30.8352ZM27.9841 20.3395H28.3877V19.711H28.8377V20.6247H30.1038V19.0781H29.4545V19.712H29.7002V19.9908H29.2413V19.0771H27.9841V20.3395ZM30.6431 19.9841H30.8759V20.618H30.4413H30.2395V19.097H31.1546V18.6872H31.5582V19.7309V19.9841H31.5687V18.6872H31.9723V19.9909H32.0345V18.7832H32.4381V20.6248H31.8064V20.618H31.1546V19.7309H30.6431V19.9841ZM35.4152 18.3919V19.0258H32.7931V18.3919H35.4152ZM32.5643 20.3395H32.9679V19.711H33.4179V20.6247H34.684V19.0781H34.0347V19.712H34.2804V19.9908H33.8215V19.0771H32.5643V20.3395ZM35.2231 19.9841H35.456V20.618H35.0214H34.8196V19.097H35.7347V18.6872H36.1382V19.7309V19.9841H36.1488V18.6872H36.5523V19.9909H36.6145V18.7832H37.0181V20.6248H36.3865V20.618H35.7347V19.7309H35.2231V19.9841ZM39.9953 18.3919V19.0258H37.3732V18.3919H39.9953ZM37.1444 20.3395H37.548V19.711H37.998V20.6247H39.2641V19.0781H38.6148V19.712H38.8605V19.9908H38.4015V19.0771H37.1444V20.3395ZM39.7229 19.9841H39.9557V20.618H39.5211H39.3193V19.097H40.2344V18.6872H40.638V19.7309V19.9841H40.6485V18.6872H41.0521V19.9909H41.1144V18.7832H41.518V20.6248H40.8864V20.618H40.2344V19.7309H39.7229V19.9841ZM44.495 18.3919V19.0258H41.8729V18.3919H44.495ZM41.6441 20.3395H42.0477V19.711H42.4977V20.6247H43.7638V19.0781H43.1145V19.712H43.3602V19.9908H42.9013V19.0771H41.6441V20.3395ZM44.4636 19.9841H44.6964V20.618H44.2618H44.06V19.097H44.9751V18.6872H45.3787V19.7309V19.9841H45.3892V18.6872H45.7928V19.9909H45.8551V18.7832H46.2587V20.6248H45.6271V20.618H44.9751V19.7309H44.4636V19.9841ZM49.2358 18.3919V19.0258H46.6137V18.3919H49.2358ZM46.3849 20.3395H46.7884V19.711H47.2384V20.6247H48.5045V19.0781H47.8553V19.712H48.101V19.9908H47.642V19.0771H46.3849V20.3395Z" fill="#F7FCFF"/>
<path fill-rule="evenodd" clip-rule="evenodd" d="M3.54514 7.39191V8.02579H0.923035V7.39191H3.54514ZM-0.994201 8.98414H-1.22705V8.7309H-0.715515V9.61802H-0.0635376V9.62482H0.568088V7.78323H0.164518V8.99094H0.102158V7.68724H-0.301411V8.98414H-0.311946V8.7309V7.68724H-0.715515V8.09702H-1.63062V9.61802H-1.42883H-0.994201V8.98414ZM0.694244 9.33946H1.09781V8.71101H1.54781V9.62466H2.8139V8.07814H2.16463V8.71202H2.41033V8.99078H1.95138V8.07713H0.694244V9.33946ZM3.2727 8.98414H3.50554V9.61802H3.07091H2.86913V8.09703H3.78422V7.68724H4.18779V8.73091V8.98414H4.19833V7.68724H4.6019V8.99094H4.66424V7.78323H5.06781V9.62482H4.43619V9.61802H3.78422V8.73091H3.2727V8.98414ZM8.04487 7.39191V8.02579H5.42276V7.39191H8.04487ZM5.19397 9.33946H5.59754V8.71101H6.04754V9.62466H7.31363V8.07814H6.66435V8.71202H6.91006V8.99078H6.45111V8.07713H5.19397V9.33946ZM7.85276 8.98414H8.0856V9.61802H7.65097H7.44919V8.09703H8.36429V7.68724H8.76786V8.73091V8.98414H8.77839V7.68724H9.18196V8.99094H9.24431V7.78323H9.64788V9.62482H9.01625V9.61802H8.36429V8.73091H7.85276V8.98414ZM12.6249 7.39191V8.02579H10.0028V7.39191H12.6249ZM9.77403 9.33946H10.1776V8.71101H10.6276V9.62466H11.8937V8.07814H11.2444V8.71202H11.4901V8.99078H11.0312V8.07713H9.77403V9.33946ZM12.3525 8.98414H12.5853V9.61802H12.1507H11.9489V8.09703H12.864V7.68724H13.2676V8.73091V8.98414H13.2781V7.68724H13.6817V8.99094H13.744V7.78323H14.1476V9.62482H13.516V9.61802H12.864V8.73091H12.3525V8.98414ZM17.1247 7.39191V8.02579H14.5025V7.39191H17.1247ZM14.2738 9.33946H14.6773V8.71101H15.1273V9.62466H16.3934V8.07814H15.7441V8.71202H15.9898V8.99078H15.5309V8.07713H14.2738V9.33946ZM16.8522 8.98414H17.0851V9.61802H16.6504H16.4486V8.09703H17.3637V7.68724H17.7673V8.73091V8.98414H17.7778V7.68724H18.1814V8.99094H18.2438V7.78323H18.6473V9.62482H18.0157V9.61802H17.3637V8.73091H16.8522V8.98414ZM21.6244 7.39191V8.02579H19.0023V7.39191H21.6244ZM18.7735 9.33946H19.1771V8.71101H19.6271V9.62466H20.8931V8.07814H20.2439V8.71202H20.4896V8.99078H20.0306V8.07713H18.7735V9.33946ZM21.4323 8.98414H21.6651V9.61802H21.2305H21.0287V8.09703H21.9438V7.68724H22.3474V8.73091V8.98414H22.3579V7.68724H22.7615V8.99094H22.8238V7.78323H23.2274V9.62482H22.5958V9.61802H21.9438V8.73091H21.4323V8.98414ZM26.2046 7.39191V8.02579H23.5825V7.39191H26.2046ZM23.3535 9.33946H23.7571V8.71101H24.2071V9.62466H25.4732V8.07814H24.8239V8.71202H25.0696V8.99078H24.6107V8.07713H23.3535V9.33946ZM26.0125 8.98414H26.2453V9.61802H25.8107H25.6089V8.09703H26.524V7.68724H26.9276V8.73091V8.98414H26.9381V7.68724H27.3417V8.99094H27.4039V7.78323H27.8075V9.62482H27.1758V9.61802H26.524V8.73091H26.0125V8.98414ZM30.7846 7.39191V8.02579H28.1625V7.39191H30.7846ZM27.9337 9.33946H28.3373V8.71101H28.7873V9.62466H30.0534V8.07814H29.4041V8.71202H29.6498V8.99078H29.1909V8.07713H27.9337V9.33946ZM30.5925 8.98414H30.8254V9.61802H30.3908H30.189V8.09703H31.1041V7.68724H31.5076V8.73091V8.98414H31.5182V7.68724H31.9217V8.99094H31.9839V7.78323H32.3875V9.62482H31.7559V9.61802H31.1041V8.73091H30.5925V8.98414ZM35.3647 7.39191V8.02579H32.7426V7.39191H35.3647ZM32.5138 9.33946H32.9174V8.71101H33.3674V9.62466H34.6335V8.07814H33.9842V8.71202H34.2299V8.99078H33.7709V8.07713H32.5138V9.33946ZM35.0923 8.98414H35.3251V9.61802H34.8905H34.6887V8.09703H35.6038V7.68724H36.0074V8.73091V8.98414H36.0179V7.68724H36.4215V8.99094H36.4837V7.78323H36.8872V9.62482H36.2556V9.61802H35.6038V8.73091H35.0923V8.98414ZM39.8644 7.39191V8.02579H37.2423V7.39191H39.8644ZM37.0135 9.33946H37.4171V8.71101H37.8671V9.62466H39.1332V8.07814H38.4839V8.71202H38.7296V8.99078H38.2707V8.07713H37.0135V9.33946ZM39.833 8.98414H40.0658V9.61802H39.6312H39.4294V8.09703H40.3445V7.68724H40.7481V8.73091V8.98414H40.7586V7.68724H41.1622V8.99094H41.2245V7.78323H41.6281V9.62482H40.9965V9.61802H40.3445V8.73091H39.833V8.98414ZM44.6052 7.39191V8.02579H41.9831V7.39191H44.6052ZM41.7543 9.33946H42.1578V8.71101H42.6078V9.62466H43.8739V8.07814H43.2247V8.71202H43.4704V8.99078H43.0114V8.07713H41.7543V9.33946Z" fill="#F7FCFF"/>
<path fill-rule="evenodd" clip-rule="evenodd" d="M19.4321 10.25C19.4321 10.25 19.9129 10.475 20.4049 10.475C20.897 10.475 21.392 10.25 21.392 10.25V10.55C21.392 10.55 20.8516 10.775 20.3729 10.775C19.8942 10.775 19.4321 10.55 19.4321 10.55V10.25ZM25.1559 13.6925C25.1559 11.9145 22.4112 10.85 22.4112 10.85C22.4112 10.85 23.999 11.6062 23.999 13.7161C23.999 15.826 23.1748 16.7397 23.1748 16.7397C23.1748 16.7397 25.1559 15.4705 25.1559 13.6925ZM15.8884 13.7906C15.8884 12.0126 18.6357 10.85 18.6357 10.85C18.6357 10.85 17.0478 11.6062 17.0478 13.7161C17.0478 15.826 17.8721 16.7397 17.8721 16.7397C17.8721 16.7397 15.8884 15.5686 15.8884 13.7906ZM17.7639 14.1776C17.6592 12.402 19.3209 10.8105 19.3209 10.8105C19.3209 10.8105 18.7161 11.5418 18.8403 13.6488C18.883 14.3723 19.2036 15.4487 19.6075 16.0832V10.925H21.295V16.1281C21.6995 15.5353 22.0111 14.5246 22.0544 13.7906C22.1786 11.6836 21.6028 10.8105 21.6028 10.8105C21.6028 10.8105 23.2645 12.402 23.1598 14.1776C23.0975 15.2351 22.1821 16.3534 21.4518 17.0851C21.8066 17.1554 22.2822 17.2411 22.9359 17.3559C22.9499 17.4201 22.8042 17.4172 22.5147 17.4113C22.1951 17.4047 21.7003 17.3946 21.0514 17.4675C20.7531 17.7393 20.5455 17.9004 20.5455 17.9004C20.5455 17.9004 20.5126 17.8609 20.4619 17.8064C20.4111 17.8609 20.3783 17.9004 20.3783 17.9004C20.3783 17.9004 20.1706 17.7393 19.8723 17.4675C19.2235 17.3946 18.7286 17.4047 18.409 17.4113C18.1196 17.4172 17.9739 17.4201 17.9878 17.3559C18.6415 17.2411 19.1171 17.1554 19.4719 17.0851C18.7417 16.3534 17.8263 15.2351 17.7639 14.1776Z" fill="#E31D1C"/>
</g>
</g>
</g>
<defs>
<filter id="filter0_dd_5_9001" x="0" y="0" width="42" height="30" filterUnits="userSpaceOnUse" color-interpolation-filters="sRGB">
<feFlood flood-opacity="0" result="BackgroundImageFix"/>
<feColorMatrix in="SourceAlpha" type="matrix" values="0 0 0 0 0 0 0 0 0 0 0 0 0 0 0 0 0 0 127 0" result="hardAlpha"/>
<feOffset dy="1"/>
<feGaussianBlur stdDeviation="1"/>
<feColorMatrix type="matrix" values="0 0 0 0 0.0627451 0 0 0 0 0.0941176 0 0 0 0 0.156863 0 0 0 0.06 0"/>
<feBlend mode="normal" in2="BackgroundImageFix" result="effect1_dropShadow_5_9001"/>
<feColorMatrix in="SourceAlpha" type="matrix" values="0 0 0 0 0 0 0 0 0 0 0 0 0 0 0 0 0 0 127 0" result="hardAlpha"/>
<feOffset dy="1"/>
<feGaussianBlur stdDeviation="1.5"/>
<feColorMatrix type="matrix" values="0 0 0 0 0.0627451 0 0 0 0 0.0941176 0 0 0 0 0.156863 0 0 0 0.1 0"/>
<feBlend mode="normal" in2="effect1_dropShadow_5_9001" result="effect2_dropShadow_5_9001"/>
<feBlend mode="normal" in="SourceGraphic" in2="effect2_dropShadow_5_9001" result="shape"/>
</filter>
</defs>
</svg>
