<svg width="42" height="30" viewBox="0 0 42 30" fill="none" xmlns="http://www.w3.org/2000/svg">
<g filter="url(#filter0_dd_5_8717)">
<mask id="mask0_5_8717" style="mask-type:alpha" maskUnits="userSpaceOnUse" x="3" y="2" width="36" height="24">
<rect x="3" y="2" width="36" height="24" fill="white"/>
</mask>
<g mask="url(#mask0_5_8717)">
<path fill-rule="evenodd" clip-rule="evenodd" d="M3 2V26H39V2H3Z" fill="#E31D1C"/>
<mask id="mask1_5_8717" style="mask-type:alpha" maskUnits="userSpaceOnUse" x="3" y="2" width="36" height="24">
<path fill-rule="evenodd" clip-rule="evenodd" d="M3 2V26H39V2H3Z" fill="white"/>
</mask>
<g mask="url(#mask1_5_8717)">
<path fill-rule="evenodd" clip-rule="evenodd" d="M21.0104 11.9609C21.0291 11.9624 21.0478 11.964 21.0664 11.9657C21.1306 11.7697 21.2445 11.4483 21.3905 11.1444C21.622 10.6623 22.2909 10.3917 22.2909 10.3917C22.2909 10.3917 21.9604 10.7231 21.8735 11.2484C21.8205 11.5692 21.8018 11.8955 21.7952 12.1008L21.8418 12.1141C21.9583 11.9371 22.1531 11.6554 22.3733 11.3967C22.7292 10.9787 23.4519 10.86 23.4519 10.86C23.4519 10.86 23.041 11.1105 22.8137 11.6015C22.6818 11.8865 22.5787 12.1829 22.5154 12.3814C22.5386 12.3932 22.5616 12.4052 22.5845 12.4175C22.7444 12.2677 22.9938 12.0448 23.2604 11.8468C23.713 11.5107 24.4472 11.5395 24.4472 11.5395C24.4472 11.5395 23.9834 11.7014 23.6377 12.1344C23.4481 12.3719 23.2809 12.6246 23.1686 12.8042C23.1933 12.8241 23.2177 12.8444 23.2417 12.8649C23.4353 12.7522 23.7164 12.5971 24.0067 12.4663C24.5327 12.2293 25.2408 12.4042 25.2408 12.4042C25.2408 12.4042 24.7479 12.4692 24.3015 12.822C24.0734 13.0023 23.8609 13.1992 23.7077 13.3486C23.7289 13.3755 23.7496 13.4026 23.7698 13.43C23.9855 13.3642 24.2803 13.2815 24.5771 13.2211C25.1519 13.1043 25.7914 13.4263 25.7914 13.4263C25.7914 13.4263 25.2955 13.3834 24.7664 13.6297C24.5191 13.7447 24.2809 13.8761 24.0972 13.9834C24.1163 14.025 24.1344 14.0671 24.1516 14.1095C24.3712 14.0903 24.6527 14.0723 24.9311 14.0728C25.5208 14.0739 26.0624 14.5155 26.0624 14.5155C26.0624 14.5155 25.59 14.3745 25.0122 14.5087C24.7641 14.5663 24.5198 14.6388 24.3219 14.7028C24.331 14.755 24.3388 14.8076 24.3451 14.8606C24.5538 14.8858 24.8076 14.9225 25.0549 14.9738C25.6292 15.0928 26.0451 15.6313 26.0451 15.6313C26.0451 15.6313 25.6206 15.3995 25.0235 15.4147C24.7882 15.4207 24.5528 15.4396 24.3541 15.4603C24.349 15.5179 24.3422 15.5751 24.3338 15.6318C24.5199 15.6988 24.7373 15.7829 24.946 15.8779C25.4709 16.1169 25.7279 16.7289 25.7279 16.7289C25.7279 16.7289 25.379 16.4127 24.7956 16.299C24.586 16.2582 24.3736 16.2278 24.1874 16.2056C24.1636 16.2703 24.1377 16.3342 24.1096 16.3971C24.2638 16.4943 24.4373 16.6098 24.6013 16.7327C25.0523 17.0704 25.1478 17.7182 25.1478 17.7182C25.1478 17.7182 24.8879 17.3403 24.3482 17.1129C24.168 17.0369 23.983 16.9693 23.8166 16.9128C23.7727 16.9754 23.7266 17.0365 23.6782 17.0962C23.7965 17.2154 23.9252 17.3522 24.0445 17.4935C24.3984 17.9128 24.3276 18.563 24.3276 18.563C24.3276 18.563 24.17 18.1428 23.7017 17.8134C23.5542 17.7096 23.4008 17.6122 23.2598 17.5274C23.1991 17.58 23.1363 17.6307 23.0716 17.6796C23.1505 17.8157 23.2336 17.9688 23.3073 18.1239C23.5366 18.6069 23.2909 19.2226 23.2909 19.2226C23.2909 19.2226 23.2523 18.781 22.8876 18.3606C22.7788 18.2352 22.6633 18.1142 22.5548 18.0061C22.4763 18.0472 22.3959 18.0858 22.3138 18.1218C22.3542 18.2651 22.3942 18.4233 22.4253 18.5818C22.5264 19.0982 22.1312 19.649 22.1312 19.649C22.1312 19.649 22.2054 19.211 21.9564 18.7284C21.8839 18.5879 21.8041 18.4502 21.7275 18.3255C21.6385 18.3489 21.5481 18.3694 21.4565 18.3869C21.4594 18.5316 21.4581 18.6898 21.4485 18.8465C21.4164 19.3699 20.8919 19.8275 20.8919 19.8275C20.8919 19.8275 21.075 19.4156 20.9545 18.8956C20.9195 18.7443 20.8766 18.5942 20.8335 18.4574C20.7798 18.4595 20.7259 18.4605 20.6717 18.4605C20.635 18.4605 20.5984 18.46 20.5619 18.4591C20.5251 18.6015 20.4804 18.7565 20.4278 18.9082C20.2542 19.4091 19.6208 19.7404 19.6208 19.7404C19.6208 19.7404 19.9106 19.3801 19.9352 18.8497C19.9424 18.6944 19.9416 18.5387 19.9369 18.3961C19.8461 18.3799 19.7565 18.3608 19.6683 18.3389C19.5957 18.4718 19.5119 18.6158 19.4211 18.755C19.1252 19.2083 18.4242 19.4045 18.4242 19.4045C18.4242 19.4045 18.7977 19.1113 18.9559 18.5994C19.004 18.4438 19.0438 18.2861 19.076 18.1418C18.9951 18.1076 18.9159 18.0708 18.8384 18.0317C18.7314 18.15 18.6094 18.2782 18.4814 18.3997C18.0783 18.7823 17.3456 18.8332 17.3456 18.8332C17.3456 18.8332 17.7838 18.6223 18.0675 18.1551C18.1588 18.0048 18.2417 17.8501 18.3122 17.7096C18.249 17.6633 18.1877 17.6152 18.1283 17.5654C17.9858 17.6623 17.8227 17.7674 17.655 17.8638C17.1598 18.1483 16.435 18.0402 16.435 18.0402C16.435 18.0402 16.9175 17.9297 17.32 17.5374C17.4573 17.4036 17.5868 17.263 17.6979 17.1358C17.6506 17.0794 17.6054 17.0216 17.5623 16.9624C17.3916 17.032 17.1943 17.1069 16.9945 17.1711C16.4399 17.3493 15.7611 17.099 15.7611 17.099C15.7611 17.099 16.2592 17.0879 16.7506 16.7862C16.9325 16.6744 17.1074 16.5532 17.2556 16.4448C17.2279 16.3856 17.2022 16.3256 17.1784 16.2647C16.9853 16.3009 16.7583 16.3378 16.5317 16.3621C15.9462 16.4249 15.3481 16.0452 15.3481 16.0452C15.3481 16.0452 15.8363 16.134 16.3915 15.9382C16.6165 15.8589 16.8363 15.7667 17.0181 15.6851C17.0092 15.6324 17.0018 15.5792 16.9958 15.5256C16.787 15.5199 16.5343 15.5069 16.286 15.4793C15.7009 15.4144 15.2239 14.9174 15.2239 14.9174C15.2239 14.9174 15.6734 15.1085 16.2653 15.0379C16.5258 15.0069 16.7843 14.9598 16.9922 14.9169C16.9971 14.8676 17.0032 14.8186 17.0105 14.7699C16.7995 14.7215 16.5355 14.6542 16.2811 14.5714C15.7274 14.3911 15.3884 13.8115 15.3884 13.8115C15.3884 13.8115 15.778 14.0875 16.3726 14.1371C16.6588 14.161 16.9476 14.1658 17.1702 14.1643C17.1852 14.125 17.2011 14.0861 17.2177 14.0475C17.0174 13.956 16.7567 13.8294 16.5115 13.6872C16.0176 13.4008 15.834 12.7682 15.834 12.7682C15.834 12.7682 16.1437 13.1151 16.7106 13.2824C17.0079 13.3701 17.314 13.4363 17.5378 13.4795C17.5555 13.4545 17.5735 13.4298 17.5919 13.4054C17.4176 13.2713 17.1783 13.0779 16.9617 12.8706C16.5605 12.4865 16.5544 11.8333 16.5544 11.8333C16.5544 11.8333 16.7606 12.2365 17.2651 12.5207C17.547 12.6794 17.8451 12.8167 18.0534 12.9069C18.0749 12.8878 18.0967 12.869 18.1188 12.8504C17.981 12.6842 17.7832 12.4333 17.6144 12.1722C17.3206 11.7177 17.4801 11.08 17.4801 11.08C17.4801 11.08 17.5789 11.5141 17.9985 11.8919C18.2474 12.1159 18.5203 12.32 18.7012 12.449C18.7218 12.4375 18.7425 12.4262 18.7634 12.4151C18.6706 12.2262 18.5335 11.9286 18.4304 11.6265C18.2592 11.1249 18.5759 10.5354 18.5759 10.5354C18.5759 10.5354 18.5623 10.9782 18.8756 11.4302C19.0693 11.7096 19.294 11.9732 19.4372 12.1337C19.4512 12.1293 19.4652 12.125 19.4792 12.1208C19.4402 11.9194 19.3844 11.5873 19.3658 11.2582C19.3361 10.7347 19.8039 10.2309 19.8039 10.2309C19.8039 10.2309 19.6702 10.6576 19.8512 11.1635C19.9643 11.4797 20.1125 11.7868 20.2077 11.9728C20.226 11.9708 20.2442 11.9689 20.2626 11.9671C20.2753 11.7639 20.3049 11.4246 20.3708 11.0962C20.4744 10.5802 21.0577 10.1827 21.0577 10.1827C21.0577 10.1827 20.8195 10.5718 20.8678 11.1009C20.898 11.4316 20.9646 11.7606 21.0104 11.9609Z" fill="#FFC84A"/>
<path fill-rule="evenodd" clip-rule="evenodd" d="M2.10888 15.9201L5.18302 14.8111C5.52972 14.686 5.90947 14.6876 6.25514 14.8154L10.6146 16.428C10.989 16.5666 11.4023 16.5565 11.7696 16.3998L15.3463 14.874C15.7312 14.7099 16.1657 14.7069 16.5527 14.8658L20.2927 16.4016C20.6707 16.5568 21.0944 16.5578 21.4731 16.4043L25.2906 14.8568C25.6692 14.7034 26.0927 14.7043 26.4706 14.8593L30.2397 16.406C30.6116 16.5586 31.0279 16.562 31.4022 16.4155L35.4796 14.8196C35.8138 14.6888 36.1828 14.6771 36.5246 14.7863L40.072 15.9201V25.9337H2.00879L2.10888 15.9201Z" fill="#F7FCFF"/>
<mask id="mask2_5_8717" style="mask-type:alpha" maskUnits="userSpaceOnUse" x="2" y="14" width="39" height="12">
<path fill-rule="evenodd" clip-rule="evenodd" d="M2.10888 15.9201L5.18302 14.8111C5.52972 14.686 5.90947 14.6876 6.25514 14.8154L10.6146 16.428C10.989 16.5666 11.4023 16.5565 11.7696 16.3998L15.3463 14.874C15.7312 14.7099 16.1657 14.7069 16.5527 14.8658L20.2927 16.4016C20.6707 16.5568 21.0944 16.5578 21.4731 16.4043L25.2906 14.8568C25.6692 14.7034 26.0927 14.7043 26.4706 14.8593L30.2397 16.406C30.6116 16.5586 31.0279 16.562 31.4022 16.4155L35.4796 14.8196C35.8138 14.6888 36.1828 14.6771 36.5246 14.7863L40.072 15.9201V25.9337H2.00879L2.10888 15.9201Z" fill="white"/>
</mask>
<g mask="url(#mask2_5_8717)">
<path d="M2.10889 18.2457L5.18303 17.1367C5.52972 17.0116 5.90947 17.0132 6.25515 17.141L10.6146 18.7537C10.9891 18.8922 11.4023 18.8821 11.7696 18.7254L15.3463 17.1996C15.7312 17.0355 16.1657 17.0325 16.5527 17.1914L20.2927 18.7272C20.6707 18.8824 21.0944 18.8834 21.4731 18.7299L25.2906 17.1824C25.6692 17.029 26.0927 17.0299 26.4706 17.1849L30.2397 18.7316C30.6116 18.8842 31.0279 18.8876 31.4022 18.7411L35.4796 17.1452C35.8138 17.0144 36.1828 17.0027 36.5246 17.1119L40.072 18.2457" stroke="#015989" stroke-width="2"/>
<path d="M2.10889 21.5747L5.18303 20.4657C5.52972 20.3406 5.90947 20.3422 6.25515 20.47L10.6146 22.0826C10.9891 22.2212 11.4023 22.211 11.7696 22.0544L15.3463 20.5286C15.7312 20.3645 16.1657 20.3615 16.5527 20.5204L20.2927 22.0562C20.6707 22.2114 21.0944 22.2124 21.4731 22.0589L25.2906 20.5114C25.6692 20.3579 26.0927 20.3589 26.4706 20.5139L30.2397 22.0606C30.6116 22.2132 31.0279 22.2166 31.4022 22.0701L35.4796 20.4742C35.8138 20.3434 36.1828 20.3317 36.5246 20.4409L40.072 21.5747" stroke="#015989" stroke-width="2"/>
<path fill-rule="evenodd" clip-rule="evenodd" d="M2.10889 24.2272L3.80853 23.6141C5.04287 23.1688 6.39489 23.1743 7.62558 23.6295L10.6146 24.7352C10.9891 24.8737 11.4023 24.8636 11.7696 24.707L13.8064 23.8381C15.1764 23.2537 16.7236 23.2432 18.1015 23.809L20.2927 24.7088C20.6707 24.864 21.0944 24.865 21.4731 24.7115L23.7788 23.7768C25.1265 23.2305 26.6345 23.2337 27.9798 23.7858L30.2397 24.7132C30.6116 24.8658 31.0279 24.8692 31.4022 24.7227L34.157 23.6445C35.3467 23.1788 36.6605 23.1369 37.8775 23.5259L40.072 24.2272V27.5421H2.31546L2.10889 24.2272Z" fill="#015989"/>
</g>
<path fill-rule="evenodd" clip-rule="evenodd" d="M14.0024 5.41838C14.0024 5.41838 15.5684 5.41838 16.0955 5.41838C16.6227 5.41838 17.8121 4.70185 18.5 4.9407C19.1879 5.17954 20.346 5.95065 20.346 5.95065C20.346 5.95065 22.2578 4.60913 23.3982 4.60913C24.5386 4.60913 26.5956 4.45996 26.5956 4.45996C26.5956 4.45996 26.113 5.57343 24.7556 5.76204C23.3982 5.95065 21.7742 6.87437 21.7742 6.87437C21.7742 6.87437 23.6441 6.87437 23.9804 6.87437C24.3167 6.87437 24.7556 7.32516 24.7556 7.32516C24.7556 7.32516 23.8502 7.87201 23.3982 7.87201C22.9463 7.87201 22.447 7.87201 22.447 7.87201C22.447 7.87201 21.4861 8.60498 20.299 8.44902C19.1119 8.29307 18.1594 7.32516 18.1594 7.32516C18.1594 7.32516 17.1208 7.19283 17.1208 7.0336C17.1208 7.0336 16.9979 6.98338 16.9413 6.98475C16.6146 6.99267 16.3968 7.04485 16.2882 7.0336C16.8854 6.82644 17.1208 6.64316 17.1208 6.64316C17.1208 6.64316 17.5319 6.30041 17.8457 6.30041C18.1594 6.30041 19.2073 6.87437 19.2073 6.87437L19.4575 6.64316L18.1594 5.76204C15.5118 6.00862 14.0024 5.41838 14.0024 5.41838Z" fill="#FFC84A"/>
</g>
</g>
</g>
<defs>
<filter id="filter0_dd_5_8717" x="0" y="0" width="42" height="30" filterUnits="userSpaceOnUse" color-interpolation-filters="sRGB">
<feFlood flood-opacity="0" result="BackgroundImageFix"/>
<feColorMatrix in="SourceAlpha" type="matrix" values="0 0 0 0 0 0 0 0 0 0 0 0 0 0 0 0 0 0 127 0" result="hardAlpha"/>
<feOffset dy="1"/>
<feGaussianBlur stdDeviation="1"/>
<feColorMatrix type="matrix" values="0 0 0 0 0.0627451 0 0 0 0 0.0941176 0 0 0 0 0.156863 0 0 0 0.06 0"/>
<feBlend mode="normal" in2="BackgroundImageFix" result="effect1_dropShadow_5_8717"/>
<feColorMatrix in="SourceAlpha" type="matrix" values="0 0 0 0 0 0 0 0 0 0 0 0 0 0 0 0 0 0 127 0" result="hardAlpha"/>
<feOffset dy="1"/>
<feGaussianBlur stdDeviation="1.5"/>
<feColorMatrix type="matrix" values="0 0 0 0 0.0627451 0 0 0 0 0.0941176 0 0 0 0 0.156863 0 0 0 0.1 0"/>
<feBlend mode="normal" in2="effect1_dropShadow_5_8717" result="effect2_dropShadow_5_8717"/>
<feBlend mode="normal" in="SourceGraphic" in2="effect2_dropShadow_5_8717" result="shape"/>
</filter>
</defs>
</svg>
