<svg width="42" height="30" viewBox="0 0 42 30" fill="none" xmlns="http://www.w3.org/2000/svg">
<g filter="url(#filter0_dd_5_8236)">
<mask id="mask0_5_8236" style="mask-type:alpha" maskUnits="userSpaceOnUse" x="3" y="2" width="36" height="24">
<rect x="3" y="2" width="36" height="24" fill="white"/>
</mask>
<g mask="url(#mask0_5_8236)">
<path fill-rule="evenodd" clip-rule="evenodd" d="M27.75 2H39V26H27.75V2Z" fill="#D9071E"/>
<path fill-rule="evenodd" clip-rule="evenodd" d="M3 2H16.5V26H3V2Z" fill="#3D58DB"/>
<path fill-rule="evenodd" clip-rule="evenodd" d="M14.25 2H27.75V26H14.25V2Z" fill="#FBCD17"/>
<path fill-rule="evenodd" clip-rule="evenodd" d="M27.4333 21.6141L26.2486 22.1895L22.3217 15.8007L23.5064 15.2253L27.4333 21.6141ZM14.8278 21.7678L16.0125 22.3431L19.9393 15.9543L18.7546 15.379L14.8278 21.7678Z" fill="#FD1900"/>
<path fill-rule="evenodd" clip-rule="evenodd" d="M15.8003 11.389V16.9404C15.8003 18.1735 14.6058 19.7807 14.0033 20.3786C13.4008 20.9765 12.2042 22.3462 12.2042 22.3462V7.40833C12.2042 5.73276 14.0033 5.15718 14.0033 5.15718C14.0033 5.15718 15.4971 5.41987 15.8003 7.40833V9.34626C16.2626 9.66988 17.8066 10.6625 18.804 10.2435C19.9882 9.74601 20.3972 8.31905 20.3972 8.31905C20.3972 8.31905 20.2865 6.87916 19.8004 6.87916C19.3144 6.87916 19.2755 4.85089 21.137 4.85089C22.9984 4.85089 23.2154 5.63271 23.2154 6.25594C23.2154 6.58263 22.9208 7.10692 22.6404 7.60585C22.386 8.05872 22.1432 8.49069 22.1432 8.73502C22.1432 9.24851 22.5785 10.2435 23.2154 10.2435C23.6621 10.2435 25.8106 9.50156 27.0541 9.05835V7.40833C27.3574 5.41987 28.8512 5.15718 28.8512 5.15718C28.8512 5.15718 30.6503 5.73276 30.6503 7.40833V22.3462C30.6503 22.3462 29.4537 20.9765 28.8512 20.3786C28.2487 19.7807 27.0541 18.1735 27.0541 16.9404V11.389H15.8003ZM17.7939 21.8322C19.0107 21.128 20.7906 17.9702 20.7906 17.9702L21.3816 18.0922C21.3816 18.0922 22.2839 20.1838 24.937 21.8322C22.109 22.5031 21.3816 23.8502 21.3816 23.8502C21.3816 22.7725 17.7939 21.8322 17.7939 21.8322ZM17.598 19.8333C18.4181 19.8333 19.083 19.2737 19.083 18.5833C19.083 17.893 18.4181 17.3333 17.598 17.3333C16.7779 17.3333 16.113 17.893 16.113 18.5833C16.113 19.2737 16.7779 19.8333 17.598 19.8333ZM26.31 18.5833C26.31 19.2737 25.6451 19.8333 24.825 19.8333C24.0048 19.8333 23.34 19.2737 23.34 18.5833C23.34 17.893 24.0048 17.3333 24.825 17.3333C25.6451 17.3333 26.31 17.893 26.31 18.5833Z" fill="#A77B3B"/>
<path d="M31.2826 12.4077L32.3152 12.8044L28.1082 21.4563L27.0756 21.0596L31.2826 12.4077Z" fill="#FDFF00"/>
<path opacity="0.3" fill-rule="evenodd" clip-rule="evenodd" d="M15.42 9.83331H27.3V17.4722C27.3 17.4722 24.2771 18.2816 21.36 19.6097C19.2068 18.1898 15.42 17.4722 15.42 17.4722V9.83331Z" fill="#E1E5E8"/>
<mask id="mask1_5_8236" style="mask-type:alpha" maskUnits="userSpaceOnUse" x="15" y="9" width="13" height="11">
<path fill-rule="evenodd" clip-rule="evenodd" d="M15.42 9.83331H27.3V17.4722C27.3 17.4722 24.2771 18.2816 21.36 19.6097C19.2068 18.1898 15.42 17.4722 15.42 17.4722V9.83331Z" fill="white"/>
</mask>
<g mask="url(#mask1_5_8236)">
<rect x="15.42" y="14.8333" width="11.88" height="5" fill="#3D58DB"/>
<rect x="15.42" y="9.83331" width="11.88" height="5" fill="#FD1900"/>
<path fill-rule="evenodd" clip-rule="evenodd" d="M20.76 12.0821L19.8596 12.1484L20.3789 11.5257L19.8255 10.8809L20.7305 10.9844L21.0775 10.2734L21.4631 10.9996L22.3635 10.9334L21.8442 11.556L22.3976 12.2009L21.4927 12.0973L21.1457 12.8084L20.76 12.0821Z" fill="#FDFF00"/>
<path fill-rule="evenodd" clip-rule="evenodd" d="M19.1438 10.6716C19.1438 10.6716 16.7252 11.9796 17.5314 12.9186C18.3376 13.8575 19.3525 13.9777 19.3525 13.9777C19.3525 13.9777 16.8783 17.277 21.2329 19.1619C25.8949 17.3423 23.4431 13.9777 23.4431 13.9777C23.4431 13.9777 24.8782 13.6955 25.1655 12.6803C25.4528 11.665 23.2897 10.5006 23.2897 10.5006C23.2897 10.5006 24.6393 12.2394 24.3312 12.6803C24.0231 13.1211 22.3726 13.5699 21.2329 13.5699C20.0931 13.5699 18.3332 13.2855 18.0491 12.5151C17.7651 11.7448 19.1438 10.6716 19.1438 10.6716Z" fill="#FDFF00"/>
<path fill-rule="evenodd" clip-rule="evenodd" d="M16.905 14L18.39 14.8333L16.905 15.6667L15.42 14.8333L16.905 14Z" fill="#FDFF00"/>
<path fill-rule="evenodd" clip-rule="evenodd" d="M25.8151 14L27.3001 14.8333L25.8151 15.6667L24.3301 14.8333L25.8151 14Z" fill="#FDFF00"/>
<path fill-rule="evenodd" clip-rule="evenodd" d="M16.86 17.3C17.1086 17.3 17.31 17.1209 17.31 16.9C17.31 16.6791 17.1086 16.5 16.86 16.5C16.6115 16.5 16.41 16.6791 16.41 16.9C16.41 17.1209 16.6115 17.3 16.86 17.3Z" fill="#FDFF00"/>
<path fill-rule="evenodd" clip-rule="evenodd" d="M26.4338 16.5428C26.0475 16.2647 25.4554 16.3455 25.1113 16.7232C24.7672 17.1009 24.8014 17.6325 25.1877 17.9106C25.3977 18.0617 25.2881 17.4612 25.6059 17.0792C25.8728 16.7583 26.6101 16.6697 26.4338 16.5428Z" fill="#FDFF00"/>
</g>
<path fill-rule="evenodd" clip-rule="evenodd" d="M8.32874 13.529C8.32874 13.529 9.51462 14.7752 10.6313 14.3677C11.7479 13.9603 11.4772 12.4995 11.4772 12.4995L10.6313 13.1816H9.91119V13.529L9.3488 13.1816V13.529H8.32874ZM9.13078 15.444C9.13078 15.444 10.5762 16.5646 11.55 16.2479C12.5237 15.9313 12.2792 14.4145 12.2792 14.4145L11.4333 15.0966H10.7132V15.444L10.1509 15.0966V15.444H9.13078ZM13.0231 17.9869C12.0493 18.3036 10.6039 17.183 10.6039 17.183H11.624V16.8356L12.1864 17.183V16.8356H12.9064L13.7523 16.1535C13.7523 16.1535 13.9969 17.6703 13.0231 17.9869Z" fill="#048F02"/>
<path fill-rule="evenodd" clip-rule="evenodd" d="M18.7268 4.24847H17.6018V4.84406H17.0723V5.84406H17.6018V7.58869H18.7268V5.84406H19.3705V4.84406H18.7268V4.24847Z" fill="#FDFF00"/>
<path fill-rule="evenodd" clip-rule="evenodd" d="M20.0529 5.38452L17.4473 5.98117L20.0529 6.71305V5.38452Z" fill="#DB4400"/>
</g>
</g>
<defs>
<filter id="filter0_dd_5_8236" x="0" y="0" width="42" height="30" filterUnits="userSpaceOnUse" color-interpolation-filters="sRGB">
<feFlood flood-opacity="0" result="BackgroundImageFix"/>
<feColorMatrix in="SourceAlpha" type="matrix" values="0 0 0 0 0 0 0 0 0 0 0 0 0 0 0 0 0 0 127 0" result="hardAlpha"/>
<feOffset dy="1"/>
<feGaussianBlur stdDeviation="1"/>
<feColorMatrix type="matrix" values="0 0 0 0 0.0627451 0 0 0 0 0.0941176 0 0 0 0 0.156863 0 0 0 0.06 0"/>
<feBlend mode="normal" in2="BackgroundImageFix" result="effect1_dropShadow_5_8236"/>
<feColorMatrix in="SourceAlpha" type="matrix" values="0 0 0 0 0 0 0 0 0 0 0 0 0 0 0 0 0 0 127 0" result="hardAlpha"/>
<feOffset dy="1"/>
<feGaussianBlur stdDeviation="1.5"/>
<feColorMatrix type="matrix" values="0 0 0 0 0.0627451 0 0 0 0 0.0941176 0 0 0 0 0.156863 0 0 0 0.1 0"/>
<feBlend mode="normal" in2="effect1_dropShadow_5_8236" result="effect2_dropShadow_5_8236"/>
<feBlend mode="normal" in="SourceGraphic" in2="effect2_dropShadow_5_8236" result="shape"/>
</filter>
</defs>
</svg>
