<svg width="114" height="36" viewBox="0 0 114 36" fill="none" xmlns="http://www.w3.org/2000/svg">
<g filter="url(#filter0_d_314_3996)">
<rect x="4" y="4" width="106" height="28" rx="4" fill="#2E4B65"/>
</g>
<path d="M27.0301 6.8133L33.0002 12.6625L20.9703 24.4489L15.0002 18.5996L27.0301 6.8133Z" fill="#6AC6E7"/>
<path d="M33.5073 13.4566L33.6464 13.3204L39.3597 18.918L33.6883 24.4746L33.5068 24.2969C30.4519 21.3032 30.452 16.45 33.5073 13.4566Z" fill="#F45747"/>
<path d="M45.3706 15.1322H47.3523V15.8827C47.7157 15.509 48.0386 15.2529 48.3211 15.1145C48.6391 14.9642 48.9891 14.8904 49.342 14.8991C49.8647 14.8991 50.4108 15.066 50.9804 15.3998L50.0769 17.1771C49.7014 16.9148 49.3333 16.7837 48.9726 16.7837C47.8924 16.7837 47.3523 17.5833 47.3523 19.1826V23.5398H45.3706V15.1322Z" fill="#F45747"/>
<path d="M61.2716 19.7907H55.1247C55.181 20.4812 55.4099 21.03 55.8114 21.4372C56.213 21.8444 56.7327 22.0457 57.3705 22.0412C57.863 22.0412 58.271 21.9261 58.5942 21.6959C58.9175 21.4658 59.2785 21.0395 59.6774 20.4173L61.3509 21.332C61.1182 21.73 60.8429 22.1025 60.5297 22.4434C60.2588 22.7371 59.9476 22.9926 59.6051 23.2028C59.2754 23.4015 58.9161 23.5485 58.54 23.6385C58.1333 23.7337 57.7163 23.7803 57.2982 23.7772C56.0185 23.7772 54.9909 23.3742 54.2152 22.5683C53.4395 21.7625 53.0527 20.6871 53.0547 19.3422C53.0547 18.0137 53.4305 16.938 54.1821 16.1151C54.9404 15.304 55.9443 14.8984 57.1938 14.8984C58.4567 14.8984 59.4549 15.2919 60.1884 16.0787C60.9219 16.8656 61.286 17.9498 61.2807 19.3314L61.2716 19.7907ZM59.2377 18.2032C58.962 17.1672 58.2954 16.6495 57.238 16.6502C57.0075 16.6483 56.7784 16.6846 56.5603 16.7574C56.3513 16.8282 56.1561 16.9333 55.9831 17.0682C55.8081 17.2069 55.6578 17.3731 55.5384 17.56C55.4106 17.7599 55.3157 17.9783 55.2573 18.2072L59.2377 18.2032Z" fill="#F45747"/>
<path d="M71.2574 15.1323H73.2481V23.536H71.2574V22.6557C70.4409 23.4045 69.5635 23.7786 68.6252 23.7779C67.4386 23.7779 66.4581 23.3579 65.6838 22.518C64.9148 21.6609 64.5303 20.5911 64.5303 19.3086C64.5303 18.0483 64.9148 16.9991 65.6838 16.1611C66.4069 15.3406 67.4657 14.8787 68.572 14.9012C69.5698 14.9012 70.465 15.3038 71.2574 16.109V15.1323ZM66.5531 19.3086C66.5531 20.1131 66.7733 20.7688 67.2137 21.2757C67.6338 21.7725 68.2619 22.0548 68.9203 22.0429C69.6565 22.0429 70.2495 21.7957 70.6992 21.3013C71.151 20.7898 71.3769 20.1397 71.3769 19.3509C71.3769 18.562 71.1523 17.9135 70.7032 17.4054C70.2508 16.905 69.6635 16.6549 68.9414 16.6549C68.2851 16.6443 67.6585 16.923 67.2348 17.4142C66.7803 17.923 66.5531 18.5545 66.5531 19.3086Z" fill="#F45747"/>
<path d="M83.9372 15.4935V18.0734C83.4854 17.5325 83.0802 17.1613 82.7215 16.96C82.3444 16.7471 81.9148 16.6399 81.4796 16.6502C80.7768 16.6327 80.1003 16.9122 79.6224 17.4174C79.1285 17.9295 78.8819 18.5711 78.8826 19.3422C78.8826 20.1291 79.1202 20.776 79.5953 21.2828C80.068 21.785 80.7395 22.062 81.4365 22.0421C81.8758 22.0509 82.3099 21.9468 82.6954 21.7402C83.0474 21.5435 83.4613 21.1638 83.9372 20.6012V23.1644C83.1964 23.5564 82.3697 23.7667 81.5278 23.7772C80.202 23.7772 79.0924 23.3572 78.1989 22.5172C77.3054 21.6772 76.8594 20.6281 76.8607 19.3698C76.8366 18.1716 77.329 17.019 78.217 16.1948C79.1218 15.3325 80.2315 14.9011 81.5459 14.9004C82.3811 14.8986 83.2035 15.1025 83.9372 15.4935Z" fill="#F45747"/>
<path d="M87.7222 8.96289H89.7039V15.8312C90.4086 15.2102 91.1863 14.8997 92.0369 14.8997C93.0054 14.8997 93.7804 15.2076 94.362 15.8233C94.8559 16.3571 95.1025 17.2095 95.1018 18.3806V23.5316H93.1201V18.5655C93.1201 17.8928 92.9983 17.4052 92.7547 17.1029C92.5111 16.8007 92.1193 16.6498 91.5792 16.6505C90.8865 16.6505 90.3992 16.8603 90.1175 17.28C89.8357 17.6996 89.6978 18.4298 89.7039 19.4704V23.5345H87.7222V8.96289Z" fill="#F45747"/>
<defs>
<filter id="filter0_d_314_3996" x="0" y="0" width="114" height="36" filterUnits="userSpaceOnUse" color-interpolation-filters="sRGB">
<feFlood flood-opacity="0" result="BackgroundImageFix"/>
<feColorMatrix in="SourceAlpha" type="matrix" values="0 0 0 0 0 0 0 0 0 0 0 0 0 0 0 0 0 0 127 0" result="hardAlpha"/>
<feOffset/>
<feGaussianBlur stdDeviation="2"/>
<feComposite in2="hardAlpha" operator="out"/>
<feColorMatrix type="matrix" values="0 0 0 0 0 0 0 0 0 0 0 0 0 0 0 0 0 0 0.25 0"/>
<feBlend mode="normal" in2="BackgroundImageFix" result="effect1_dropShadow_314_3996"/>
<feBlend mode="normal" in="SourceGraphic" in2="effect1_dropShadow_314_3996" result="shape"/>
</filter>
</defs>
</svg>
