<svg width="32" height="32" viewBox="0 0 32 32" fill="none" xmlns="http://www.w3.org/2000/svg">
<path d="M32 0H0V32H32V0Z" fill="black"/>
<path d="M18.8556 8.54184C18.657 8.89753 18.48 9.26486 18.3256 9.64184C16.8083 9.40189 15.2628 9.40189 13.7456 9.64184C13.5912 9.26486 13.4142 8.89753 13.2156 8.54184C11.7864 8.78604 10.397 9.22338 9.08556 9.84184C6.7405 13.2261 5.677 17.3348 6.08556 21.4318C7.6138 22.5807 9.32902 23.4569 11.1556 24.0218C11.5715 23.4724 11.9427 22.8906 12.2656 22.2818C11.6696 22.0621 11.0969 21.7841 10.5556 21.4518C10.704 21.3531 10.8445 21.2427 10.9756 21.1218C12.554 21.8822 14.2835 22.277 16.0356 22.277C17.7876 22.277 19.5171 21.8822 21.0956 21.1218C21.2356 21.2418 21.3756 21.3518 21.5156 21.4518C20.9713 21.7815 20.3991 22.0626 19.8056 22.2918C20.1151 22.9144 20.4763 23.5098 20.8856 24.0718C22.7098 23.5089 24.4221 22.6324 25.9456 21.4818C26.3639 17.384 25.2996 13.272 22.9456 9.89184C21.6489 9.26058 20.2732 8.80651 18.8556 8.54184ZM12.7156 19.0918C12.2151 19.0559 11.7481 18.8275 11.4125 18.4546C11.0769 18.0817 10.8988 17.5933 10.9156 17.0918C10.8962 16.5898 11.0734 16.0999 11.4096 15.7264C11.7457 15.353 12.2142 15.1253 12.7156 15.0918C13.2169 15.1253 13.6854 15.353 14.0215 15.7264C14.3577 16.0999 14.5349 16.5898 14.5156 17.0918C14.5349 17.5939 14.3577 18.0838 14.0215 18.4572C13.6854 18.8307 13.2169 19.0584 12.7156 19.0918ZM19.3556 19.0918C18.8551 19.0559 18.3881 18.8275 18.0525 18.4546C17.7169 18.0817 17.5388 17.5933 17.5556 17.0918C17.5362 16.5898 17.7134 16.0999 18.0496 15.7264C18.3857 15.353 18.8542 15.1253 19.3556 15.0918C19.8578 15.1228 20.3279 15.3497 20.6645 15.7238C21.0012 16.0978 21.1775 16.5891 21.1556 17.0918C21.1775 17.5946 21.0012 18.0858 20.6645 18.4599C20.3279 18.8339 19.8578 19.0609 19.3556 19.0918Z" fill="white"/>
</svg>
