<svg width="32" height="32" viewBox="0 0 32 32" fill="none" xmlns="http://www.w3.org/2000/svg">
<path d="M32 0H0V32H32V0Z" fill="black"/>
<path fill-rule="evenodd" clip-rule="evenodd" d="M16.2474 6C10.5893 6 6 10.5893 6 16.2474C6 20.7739 8.95477 24.6088 12.9783 25.9919C13.4812 26.0547 13.6698 25.7404 13.6698 25.4889C13.6698 25.2375 13.6698 24.6088 13.6698 23.7286C10.8408 24.3573 10.2121 22.3456 10.2121 22.3456C9.77205 21.1511 9.08051 20.8367 9.08051 20.8367C8.1375 20.2081 9.14337 20.2081 9.14337 20.2081C10.1493 20.2709 10.7151 21.2768 10.7151 21.2768C11.6581 22.8485 13.104 22.4084 13.6698 22.1569C13.7327 21.4654 14.047 21.0253 14.2985 20.7739C12.0353 20.5224 9.64631 19.6422 9.64631 15.6816C9.64631 14.55 10.0235 13.6698 10.7151 12.9154C10.6522 12.7268 10.275 11.6581 10.8408 10.275C10.8408 10.275 11.7209 10.0235 13.6698 11.3437C14.4871 11.0923 15.3673 11.0294 16.2474 11.0294C17.1275 11.0294 18.0077 11.1551 18.825 11.3437C20.7739 10.0235 21.654 10.275 21.654 10.275C22.2198 11.6581 21.8426 12.7268 21.7797 12.9783C22.4084 13.6698 22.8485 14.6128 22.8485 15.7445C22.8485 19.7051 20.4595 20.5224 18.1963 20.7739C18.5735 21.0882 18.8878 21.7169 18.8878 22.6599C18.8878 24.043 18.8878 25.1117 18.8878 25.4889C18.8878 25.7404 19.0764 26.0547 19.5794 25.9919C23.6658 24.6088 26.5577 20.7739 26.5577 16.2474C26.4948 10.5893 21.9055 6 16.2474 6Z" fill="white"/>
</svg>
