<svg width="356" height="200" viewBox="0 0 356 200" fill="none" xmlns="http://www.w3.org/2000/svg">
<rect width="355.55" height="200" fill="#05172E"/>
<path d="M200.851 134.071C200.851 134.071 197.892 130.508 195.435 127.382C206.202 124.343 210.31 117.603 210.31 117.603C207.351 119.569 204.181 121.195 200.859 122.452C197.037 124.088 193.038 125.273 188.942 125.986C181.903 127.284 174.683 127.256 167.654 125.906C163.526 125.101 159.481 123.919 155.57 122.372C153.51 121.58 151.506 120.647 149.572 119.581C149.325 119.413 149.078 119.333 148.845 119.166C148.721 119.106 148.61 119.022 148.518 118.919C147.064 118.097 146.213 117.523 146.213 117.523C146.213 117.523 150.161 124.066 160.594 127.222C158.108 130.341 155.069 134.071 155.069 134.071C136.907 133.467 130 121.551 130 121.551C130 95.0861 141.836 73.6308 141.836 73.6308C153.673 64.7535 164.935 65.0007 164.935 65.0007L165.756 65.9895C150.961 70.2645 144.134 76.7571 144.134 76.7571C144.134 76.7571 145.944 75.7683 148.983 74.3724C157.781 70.5117 164.768 69.443 167.647 69.1958C168.106 69.0967 168.573 69.0407 169.043 69.0286C174.549 68.3127 180.122 68.2566 185.641 68.8613C194.317 69.858 202.714 72.5402 210.361 76.7571C210.361 76.7571 203.89 70.5917 189.916 66.3167L191.072 65.0007C191.072 65.0007 202.327 64.7535 214.164 73.6308C214.164 73.6308 226 95.0861 226 121.551C225.971 121.551 219.013 133.467 200.851 134.071ZM162.63 95.6605C157.948 95.6605 154.247 99.7683 154.247 104.785C154.247 109.802 158.028 113.902 162.63 113.902C167.232 113.902 171.013 109.794 171.013 104.785C171.013 99.7756 167.312 95.6605 162.63 95.6605ZM192.628 95.6605C187.946 95.6605 184.245 99.7683 184.245 104.785C184.245 109.802 188.026 113.902 192.628 113.902C197.231 113.902 201.011 109.794 201.011 104.785C201.011 99.7756 197.318 95.6605 192.628 95.6605Z" fill="#4536DA"/>
</svg>
