<svg width="356" height="200" viewBox="0 0 356 200" fill="none" xmlns="http://www.w3.org/2000/svg">
<rect width="355.55" height="200" fill="#05172E"/>
<path fill-rule="evenodd" clip-rule="evenodd" d="M177.981 56C167.297 56.0041 156.964 59.8092 148.829 66.7346C140.694 73.6599 135.289 83.2537 133.58 93.7995C131.871 104.345 133.969 115.155 139.501 124.295C145.032 133.435 153.635 140.309 163.77 143.687C166.021 144.098 166.842 142.706 166.842 141.52C166.842 140.449 166.803 136.903 166.784 133.145C154.254 135.864 151.586 127.822 151.586 127.822C149.54 122.622 146.591 121.236 146.591 121.236C142.506 118.447 146.898 118.505 146.898 118.505C151.419 118.819 153.798 123.141 153.798 123.141C157.806 130.015 164.322 128.028 166.887 126.88C167.291 123.975 168.458 121.987 169.747 120.865C159.749 119.729 149.226 115.869 149.226 98.6317C149.164 94.1588 150.824 89.8331 153.863 86.5501C153.394 85.4215 151.855 80.8428 154.299 74.6482C154.299 74.6482 158.076 73.4362 166.675 79.2589C174.051 77.2409 181.834 77.2409 189.209 79.2589C197.841 73.449 201.605 74.661 201.605 74.661C204.055 80.8557 202.516 85.4343 202.048 86.563C205.087 89.8448 206.745 94.1718 206.678 98.6445C206.678 115.92 196.154 119.729 186.157 120.839C187.773 122.237 189.209 124.975 189.209 129.175C189.209 135.191 189.158 140.039 189.158 141.52C189.158 142.719 189.966 144.123 192.249 143.681C202.384 140.298 210.985 133.419 216.512 124.274C222.039 115.13 224.132 104.317 222.416 93.7705C220.699 83.2242 215.286 73.6328 207.145 66.7126C199.004 59.7923 188.666 55.995 177.981 56V56Z" fill="#4536DA"/>
</svg>
