<svg width="18" height="18" viewBox="0 0 18 18" fill="none" xmlns="http://www.w3.org/2000/svg">
<path d="M8.1561 2.68683H2.58986C2.16808 2.68683 1.76356 2.85438 1.46532 3.15263C1.16707 3.45088 0.999512 3.85539 0.999512 4.27718V15.4097C0.999512 15.8314 1.16707 16.236 1.46532 16.5342C1.76356 16.8324 2.16808 17 2.58986 17H13.7223C14.1441 17 14.5486 16.8324 14.8469 16.5342C15.1451 16.236 15.3127 15.8314 15.3127 15.4097V9.84342" stroke="#F2F2F2" stroke-width="2" stroke-linecap="round" stroke-linejoin="round"/>
<path d="M14.1203 1.49406C14.4367 1.17772 14.8657 1 15.3131 1C15.7605 1 16.1895 1.17772 16.5059 1.49406C16.8222 1.8104 16.9999 2.23945 16.9999 2.68682C16.9999 3.1342 16.8222 3.56325 16.5059 3.87959L8.9517 11.4338L5.771 12.2289L6.56617 9.04824L14.1203 1.49406Z" stroke="#F2F2F2" stroke-width="2" stroke-linecap="round" stroke-linejoin="round"/>
</svg>
