<svg width="356" height="200" viewBox="0 0 356 200" fill="none" xmlns="http://www.w3.org/2000/svg">
<rect width="355.55" height="200" fill="#05172E"/>
<path d="M194.667 76.6666H141.333C137.667 76.6666 134.667 79.6666 134.667 83.3333V143.333L148 130H194.667C198.333 130 201.333 127 201.333 123.333V83.3333C201.333 79.6666 198.333 76.6666 194.667 76.6666ZM194.667 123.333H148L141.333 130V83.3333H194.667V123.333Z" fill="#4536DA"/>
<path fill-rule="evenodd" clip-rule="evenodd" d="M218 55H178C175.25 55 173 57.25 173 60V79H199V95H213L223 105V60C223 57.25 220.75 55 218 55Z" fill="#4536DA"/>
<rect x="153" y="101" width="6" height="6" fill="#4536DA"/>
<rect x="165" y="101" width="6" height="6" fill="#4536DA"/>
<rect x="177" y="101" width="6" height="6" fill="#4536DA"/>
</svg>
